<?xml version="1.0" encoding="UTF-8" standalone="no"?>
<!DOCTYPE svg PUBLIC "-//W3C//DTD SVG 1.1//EN"
 "http://www.w3.org/Graphics/SVG/1.1/DTD/svg11.dtd">
<!-- Generated by graphviz version a (a)
 -->
<!-- Title: prof Pages: 1 -->
<svg width="431pt" height="288pt"
 viewBox="0.00 0.00 431.00 288.00" xmlns="http://www.w3.org/2000/svg" xmlns:xlink="http://www.w3.org/1999/xlink">
<g id="graph0" class="graph" transform="scale(0.208341 0.208341) rotate(0) translate(4 1378.35)">
<title>prof</title>
<polygon fill="white" stroke="none" points="-4,4 -4,-1378.35 2065.52,-1378.35 2065.52,4 -4,4"/>
<!-- start -->
<g id="node1" class="node">
<title>start</title>
<ellipse fill="lightgrey" stroke="black" cx="1496.64" cy="-1334" rx="27.66" ry="18"/>
<text xml:space="preserve" text-anchor="middle" x="1496.64" y="-1329.8" font-family="Times,serif" font-size="14.00">start</text>
</g>
<!-- main -->
<g id="node2" class="node">
<title>main</title>
<ellipse fill="#ccd1ff" stroke="#ccd1ff" cx="994.64" cy="-1011" rx="30.35" ry="18"/>
<text xml:space="preserve" text-anchor="middle" x="994.64" y="-1006.8" font-family="Times,serif" font-size="14.00">main</text>
</g>
<!-- start&#45;&gt;main -->
<g id="edge1" class="edge">
<title>start&#45;&gt;main</title>
<path fill="none" stroke="#fe0300" d="M1477.27,-1320.61C1400.5,-1271.53 1117.33,-1090.45 1024.4,-1031.03"/>
<polygon fill="#fe0300" stroke="#fe0300" points="1026.35,-1028.13 1016.04,-1025.69 1022.58,-1034.02 1026.35,-1028.13"/>
</g>
<!-- on_exit -->
<g id="node3" class="node">
<title>on_exit</title>
<ellipse fill="#ccd1ff" stroke="#ccd1ff" cx="1516.64" cy="-1172" rx="40" ry="18"/>
<text xml:space="preserve" text-anchor="middle" x="1516.64" y="-1167.8" font-family="Times,serif" font-size="14.00">on_exit</text>
</g>
<!-- start&#45;&gt;on_exit -->
<g id="edge2" class="edge">
<title>start&#45;&gt;on_exit</title>
<path fill="none" stroke="#3542b2" d="M1498.82,-1315.57C1502.24,-1288.16 1508.92,-1234.69 1513.06,-1201.59"/>
<polygon fill="#3542b2" stroke="#3542b2" points="1516.51,-1202.26 1514.27,-1191.91 1509.56,-1201.4 1516.51,-1202.26"/>
</g>
<!-- sort -->
<g id="node4" class="node">
<title>sort</title>
<ellipse fill="#80ffb8" stroke="#80ffb8" cx="348.64" cy="-849" rx="27" ry="18"/>
<text xml:space="preserve" text-anchor="middle" x="348.64" y="-844.8" font-family="Times,serif" font-size="14.00">sort</text>
</g>
<!-- main&#45;&gt;sort -->
<g id="edge3" class="edge">
<title>main&#45;&gt;sort</title>
<path fill="none" stroke="#22d532" d="M965.84,-1004.9C878.1,-989.01 606.84,-937.2 389.64,-867 386.88,-866.11 384.04,-865.11 381.22,-864.06"/>
<polygon fill="#22d532" stroke="#22d532" points="382.52,-860.81 371.93,-860.39 379.95,-867.32 382.52,-860.81"/>
</g>
<!-- merge -->
<g id="node5" class="node">
<title>merge</title>
<ellipse fill="#bdd6ff" stroke="#bdd6ff" cx="466.64" cy="-849" rx="35.16" ry="18"/>
<text xml:space="preserve" text-anchor="middle" x="466.64" y="-844.8" font-family="Times,serif" font-size="14.00">merge</text>
</g>
<!-- main&#45;&gt;merge -->
<g id="edge4" class="edge">
<title>main&#45;&gt;merge</title>
<path fill="none" stroke="#2eb4c2" d="M968.09,-1001.96C882.12,-975.91 610.94,-893.73 507.38,-862.35"/>
<polygon fill="#2eb4c2" stroke="#2eb4c2" points="508.49,-859.03 497.9,-859.48 506.46,-865.72 508.49,-859.03"/>
</g>
<!-- term -->
<g id="node6" class="node">
<title>term</title>
<ellipse fill="#ccd1ff" stroke="#ccd1ff" cx="845.64" cy="-849" rx="28.73" ry="18"/>
<text xml:space="preserve" text-anchor="middle" x="845.64" y="-844.8" font-family="Times,serif" font-size="14.00">term</text>
</g>
<!-- main&#45;&gt;term -->
<g id="edge5" class="edge">
<title>main&#45;&gt;term</title>
<path fill="none" stroke="#3544b3" d="M980.35,-994.66C954.14,-966.51 898.23,-906.47 867.31,-873.28"/>
<polygon fill="#3544b3" stroke="#3544b3" points="870.07,-871.1 860.69,-866.17 864.95,-875.87 870.07,-871.1"/>
</g>
<!-- signal -->
<g id="node7" class="node">
<title>signal</title>
<ellipse fill="#cad1ff" stroke="#cad1ff" cx="1183.64" cy="-687" rx="34.1" ry="18"/>
<text xml:space="preserve" text-anchor="middle" x="1183.64" y="-682.8" font-family="Times,serif" font-size="14.00">signal</text>
</g>
<!-- main&#45;&gt;signal -->
<g id="edge6" class="edge">
<title>main&#45;&gt;signal</title>
<path fill="none" stroke="#3542b2" d="M1024.28,-1006.11C1086.95,-996.12 1232.12,-963.16 1292.64,-867 1328.38,-810.2 1256.02,-742.31 1212.79,-708.81"/>
<polygon fill="#3542b2" stroke="#3542b2" points="1215.09,-706.17 1205,-702.92 1210.87,-711.75 1215.09,-706.17"/>
</g>
<!-- sbrk -->
<g id="node8" class="node">
<title>sbrk</title>
<ellipse fill="#cad1ff" stroke="#cad1ff" cx="1683.64" cy="-202" rx="27.67" ry="18"/>
<text xml:space="preserve" text-anchor="middle" x="1683.64" y="-197.8" font-family="Times,serif" font-size="14.00">sbrk</text>
</g>
<!-- main&#45;&gt;sbrk -->
<g id="edge7" class="edge">
<title>main&#45;&gt;sbrk</title>
<path fill="none" stroke="#3542b2" d="M1024.8,-1007.48C1137.16,-997.44 1529.05,-956.43 1608.64,-867 1693.84,-771.26 1687.84,-346.16 1684.6,-231.55"/>
<polygon fill="#3542b2" stroke="#3542b2" points="1688.1,-231.69 1684.3,-221.8 1681.1,-231.9 1688.1,-231.69"/>
</g>
<!-- unlink -->
<g id="node9" class="node">
<title>unlink</title>
<ellipse fill="#c5d2ff" stroke="#c5d2ff" cx="843.64" cy="-687" rx="35.72" ry="18"/>
<text xml:space="preserve" text-anchor="middle" x="843.64" y="-682.8" font-family="Times,serif" font-size="14.00">unlink</text>
</g>
<!-- main&#45;&gt;unlink -->
<g id="edge8" class="edge">
<title>main&#45;&gt;unlink</title>
<path fill="none" stroke="#3542b2" d="M966.2,-1004.2C910.17,-991.08 786.54,-953.26 735.64,-867 701.77,-809.61 772.04,-742.46 814.49,-709.08"/>
<polygon fill="#3542b2" stroke="#3542b2" points="816.58,-711.88 822.39,-703.02 812.32,-706.33 816.58,-711.88"/>
</g>
<!-- newfile -->
<g id="node10" class="node">
<title>newfile</title>
<ellipse fill="#ccd1ff" stroke="#ccd1ff" cx="711.64" cy="-687" rx="39.99" ry="18"/>
<text xml:space="preserve" text-anchor="middle" x="711.64" y="-682.8" font-family="Times,serif" font-size="14.00">newfile</text>
</g>
<!-- main&#45;&gt;newfile -->
<g id="edge9" class="edge">
<title>main&#45;&gt;newfile</title>
<path fill="none" stroke="#3542b2" d="M966.17,-1004.59C908.7,-991.98 779.42,-954.8 722.64,-867 692.96,-821.12 698.81,-754.01 705.41,-716.35"/>
<polygon fill="#3542b2" stroke="#3542b2" points="708.82,-717.19 707.26,-706.71 701.94,-715.88 708.82,-717.19"/>
</g>
<!-- fclose -->
<g id="node11" class="node">
<title>fclose</title>
<ellipse fill="#ccd1ff" stroke="#ccd1ff" cx="357.64" cy="-687" rx="34.09" ry="18"/>
<text xml:space="preserve" text-anchor="middle" x="357.64" y="-682.8" font-family="Times,serif" font-size="14.00">fclose</text>
</g>
<!-- main&#45;&gt;fclose -->
<g id="edge10" class="edge">
<title>main&#45;&gt;fclose</title>
<path fill="none" stroke="#3542b2" d="M964.96,-1006.28C859.58,-992.53 505.22,-941.46 422.64,-867 378.91,-827.57 364.57,-756.38 359.88,-716.7"/>
<polygon fill="#3542b2" stroke="#3542b2" points="363.39,-716.55 358.88,-706.97 356.42,-717.28 363.39,-716.55"/>
</g>
<!-- close -->
<g id="node12" class="node">
<title>close</title>
<ellipse fill="#ccd1ff" stroke="#ccd1ff" cx="616.64" cy="-525" rx="30.88" ry="18"/>
<text xml:space="preserve" text-anchor="middle" x="616.64" y="-520.8" font-family="Times,serif" font-size="14.00">close</text>
</g>
<!-- main&#45;&gt;close -->
<g id="edge11" class="edge">
<title>main&#45;&gt;close</title>
<path fill="none" stroke="#3542b2" d="M966.08,-1004.33C907.49,-991.17 773.35,-952.88 703.64,-867 626.92,-772.5 616.92,-618.57 616.26,-554.94"/>
<polygon fill="#3542b2" stroke="#3542b2" points="619.76,-554.97 616.23,-544.97 612.76,-554.98 619.76,-554.97"/>
</g>
<!-- brk -->
<g id="node13" class="node">
<title>brk</title>
<ellipse fill="#ccd1ff" stroke="#ccd1ff" cx="771.64" cy="-849" rx="27" ry="18"/>
<text xml:space="preserve" text-anchor="middle" x="771.64" y="-844.8" font-family="Times,serif" font-size="14.00">brk</text>
</g>
<!-- main&#45;&gt;brk -->
<g id="edge12" class="edge">
<title>main&#45;&gt;brk</title>
<path fill="none" stroke="#3542b2" d="M976.01,-996.63C936.61,-968.37 844.69,-902.42 798.76,-869.46"/>
<polygon fill="#3542b2" stroke="#3542b2" points="800.83,-866.64 790.67,-863.65 796.75,-872.33 800.83,-866.64"/>
</g>
<!-- setbuf -->
<g id="node14" class="node">
<title>setbuf</title>
<ellipse fill="#ccd1ff" stroke="#ccd1ff" cx="34.64" cy="-687" rx="34.64" ry="18"/>
<text xml:space="preserve" text-anchor="middle" x="34.64" y="-682.8" font-family="Times,serif" font-size="14.00">setbuf</text>
</g>
<!-- main&#45;&gt;setbuf -->
<g id="edge13" class="edge">
<title>main&#45;&gt;setbuf</title>
<path fill="none" stroke="#3542b2" d="M964.59,-1007.62C867.07,-999.1 551.87,-965.16 312.64,-867 212.32,-825.84 108.67,-747.95 61.24,-709.96"/>
<polygon fill="#3542b2" stroke="#3542b2" points="63.68,-707.43 53.7,-703.86 59.28,-712.87 63.68,-707.43"/>
</g>
<!-- copyproto -->
<g id="node15" class="node">
<title>copyproto</title>
<ellipse fill="#ccd1ff" stroke="#ccd1ff" cx="942.64" cy="-849" rx="50.19" ry="18"/>
<text xml:space="preserve" text-anchor="middle" x="942.64" y="-844.8" font-family="Times,serif" font-size="14.00">copyproto</text>
</g>
<!-- main&#45;&gt;copyproto -->
<g id="edge14" class="edge">
<title>main&#45;&gt;copyproto</title>
<path fill="none" stroke="#3542b2" d="M989.07,-992.88C980.12,-965.33 962.43,-910.91 951.66,-877.76"/>
<polygon fill="#3542b2" stroke="#3542b2" points="955.05,-876.87 948.63,-868.44 948.39,-879.03 955.05,-876.87"/>
</g>
<!-- initree -->
<g id="node16" class="node">
<title>initree</title>
<ellipse fill="#ccd1ff" stroke="#ccd1ff" cx="1046.64" cy="-849" rx="35.7" ry="18"/>
<text xml:space="preserve" text-anchor="middle" x="1046.64" y="-844.8" font-family="Times,serif" font-size="14.00">initree</text>
</g>
<!-- main&#45;&gt;initree -->
<g id="edge15" class="edge">
<title>main&#45;&gt;initree</title>
<path fill="none" stroke="#3542b2" d="M1000.2,-992.88C1009.15,-965.33 1026.84,-910.91 1037.61,-877.76"/>
<polygon fill="#3542b2" stroke="#3542b2" points="1040.88,-879.03 1040.64,-868.44 1034.22,-876.87 1040.88,-879.03"/>
</g>
<!-- safeoutfil -->
<g id="node17" class="node">
<title>safeoutfil</title>
<ellipse fill="#ccd1ff" stroke="#ccd1ff" cx="1147.64" cy="-849" rx="47.5" ry="18"/>
<text xml:space="preserve" text-anchor="middle" x="1147.64" y="-844.8" font-family="Times,serif" font-size="14.00">safeoutfil</text>
</g>
<!-- main&#45;&gt;safeoutfil -->
<g id="edge16" class="edge">
<title>main&#45;&gt;safeoutfil</title>
<path fill="none" stroke="#3542b2" d="M1009.03,-994.95C1035.64,-967.12 1092.72,-907.43 1124.71,-873.98"/>
<polygon fill="#3542b2" stroke="#3542b2" points="1126.84,-876.82 1131.22,-867.17 1121.78,-871.98 1126.84,-876.82"/>
</g>
<!-- getpid -->
<g id="node18" class="node">
<title>getpid</title>
<ellipse fill="#ccd1ff" stroke="#ccd1ff" cx="1248.64" cy="-849" rx="35.17" ry="18"/>
<text xml:space="preserve" text-anchor="middle" x="1248.64" y="-844.8" font-family="Times,serif" font-size="14.00">getpid</text>
</g>
<!-- main&#45;&gt;getpid -->
<g id="edge17" class="edge">
<title>main&#45;&gt;getpid</title>
<path fill="none" stroke="#3542b2" d="M1014.99,-997.18C1059.34,-969.24 1164.92,-902.74 1217.61,-869.54"/>
<polygon fill="#3542b2" stroke="#3542b2" points="1219.23,-872.66 1225.83,-864.37 1215.5,-866.74 1219.23,-872.66"/>
</g>
<!-- sprintf -->
<g id="node19" class="node">
<title>sprintf</title>
<ellipse fill="#ccd1ff" stroke="#ccd1ff" cx="1453.64" cy="-849" rx="36.25" ry="18"/>
<text xml:space="preserve" text-anchor="middle" x="1453.64" y="-844.8" font-family="Times,serif" font-size="14.00">sprintf</text>
</g>
<!-- main&#45;&gt;sprintf -->
<g id="edge18" class="edge">
<title>main&#45;&gt;sprintf</title>
<path fill="none" stroke="#3542b2" d="M1020.4,-1001.39C1085.61,-979.52 1262.39,-919.87 1408.64,-867 1410.7,-866.25 1412.81,-865.48 1414.94,-864.7"/>
<polygon fill="#3542b2" stroke="#3542b2" points="1416.03,-868.03 1424.18,-861.26 1413.59,-861.47 1416.03,-868.03"/>
</g>
<!-- creat -->
<g id="node20" class="node">
<title>creat</title>
<ellipse fill="#ccd1ff" stroke="#ccd1ff" cx="1369.64" cy="-849" rx="29.79" ry="18"/>
<text xml:space="preserve" text-anchor="middle" x="1369.64" y="-844.8" font-family="Times,serif" font-size="14.00">creat</text>
</g>
<!-- main&#45;&gt;creat -->
<g id="edge19" class="edge">
<title>main&#45;&gt;creat</title>
<path fill="none" stroke="#3542b2" d="M1018.95,-999.63C1083.77,-971.97 1260.83,-896.43 1335.6,-864.52"/>
<polygon fill="#3542b2" stroke="#3542b2" points="1336.64,-867.88 1344.47,-860.74 1333.9,-861.44 1336.64,-867.88"/>
</g>
<!-- rem -->
<g id="node21" class="node">
<title>rem</title>
<ellipse fill="#ccd1ff" stroke="#ccd1ff" cx="1085.64" cy="-364" rx="27" ry="18"/>
<text xml:space="preserve" text-anchor="middle" x="1085.64" y="-359.8" font-family="Times,serif" font-size="14.00">rem</text>
</g>
<!-- main&#45;&gt;rem -->
<g id="edge20" class="edge">
<title>main&#45;&gt;rem</title>
<path fill="none" stroke="#3542b2" d="M1024.9,-1007.52C1135.78,-997.75 1517,-957.92 1588.64,-867 1605.53,-845.55 1645.07,-648.79 1514.64,-507 1390.55,-372.1 1292.22,-449.06 1121.64,-382 1120.11,-381.4 1118.55,-380.76 1116.99,-380.11"/>
<polygon fill="#3542b2" stroke="#3542b2" points="1118.69,-377.03 1108.13,-376.16 1115.84,-383.43 1118.69,-377.03"/>
</g>
<!-- oldfile -->
<g id="node22" class="node">
<title>oldfile</title>
<ellipse fill="#ccd1ff" stroke="#ccd1ff" cx="1543.64" cy="-849" rx="36.24" ry="18"/>
<text xml:space="preserve" text-anchor="middle" x="1543.64" y="-844.8" font-family="Times,serif" font-size="14.00">oldfile</text>
</g>
<!-- main&#45;&gt;oldfile -->
<g id="edge21" class="edge">
<title>main&#45;&gt;oldfile</title>
<path fill="none" stroke="#3542b2" d="M1022.2,-1003.06C1098.55,-983.64 1318.99,-926.3 1498.64,-867 1500.72,-866.31 1502.85,-865.59 1504.99,-864.84"/>
<polygon fill="#3542b2" stroke="#3542b2" points="1506.04,-868.18 1514.26,-861.49 1503.66,-861.6 1506.04,-868.18"/>
</g>
<!-- malloc -->
<g id="node44" class="node">
<title>malloc</title>
<ellipse fill="#ccd1ff" stroke="#ccd1ff" cx="1720.64" cy="-1011" rx="37.31" ry="18"/>
<text xml:space="preserve" text-anchor="middle" x="1720.64" y="-1006.8" font-family="Times,serif" font-size="14.00">malloc</text>
</g>
<!-- on_exit&#45;&gt;malloc -->
<g id="edge71" class="edge">
<title>on_exit&#45;&gt;malloc</title>
<path fill="none" stroke="#29d820" d="M1535.83,-1156.04C1572.07,-1127.8 1650.7,-1066.51 1692.76,-1033.73"/>
<polygon fill="#29d820" stroke="#29d820" points="1694.71,-1036.64 1700.45,-1027.73 1690.41,-1031.12 1694.71,-1036.64"/>
</g>
<!-- sort&#45;&gt;newfile -->
<g id="edge24" class="edge">
<title>sort&#45;&gt;newfile</title>
<path fill="none" stroke="#3542b2" d="M370.8,-838.23C430.88,-811.75 597.43,-738.34 673.21,-704.94"/>
<polygon fill="#3542b2" stroke="#3542b2" points="674.58,-708.16 682.32,-700.92 671.76,-701.75 674.58,-708.16"/>
</g>
<!-- sort&#45;&gt;fclose -->
<g id="edge25" class="edge">
<title>sort&#45;&gt;fclose</title>
<path fill="none" stroke="#3542b2" d="M349.62,-830.57C351.16,-803.16 354.17,-749.69 356.03,-716.59"/>
<polygon fill="#3542b2" stroke="#3542b2" points="359.51,-717.1 356.57,-706.92 352.52,-716.7 359.51,-717.1"/>
</g>
<!-- sort&#45;&gt;setbuf -->
<g id="edge26" class="edge">
<title>sort&#45;&gt;setbuf</title>
<path fill="none" stroke="#3542b2" d="M327.55,-837.25C274.27,-810.11 133.9,-738.58 68.75,-705.38"/>
<polygon fill="#3542b2" stroke="#3542b2" points="70.45,-702.32 59.95,-700.9 67.27,-708.56 70.45,-702.32"/>
</g>
<!-- msort -->
<g id="node23" class="node">
<title>msort</title>
<ellipse fill="#b9d9ff" stroke="#b9d9ff" cx="272.64" cy="-687" rx="33.03" ry="18"/>
<text xml:space="preserve" text-anchor="middle" x="272.64" y="-682.8" font-family="Times,serif" font-size="14.00">msort</text>
</g>
<!-- sort&#45;&gt;msort -->
<g id="edge22" class="edge">
<title>sort&#45;&gt;msort</title>
<path fill="none" stroke="#3459b6" d="M340.79,-831.48C327.71,-803.93 301.31,-748.36 285.48,-715.04"/>
<polygon fill="#3459b6" stroke="#3459b6" points="288.66,-713.57 281.2,-706.04 282.33,-716.57 288.66,-713.57"/>
</g>
<!-- filbuf -->
<g id="node24" class="node">
<title>filbuf</title>
<ellipse fill="#c8d1ff" stroke="#c8d1ff" cx="102.64" cy="-525" rx="32.49" ry="18"/>
<text xml:space="preserve" text-anchor="middle" x="102.64" y="-520.8" font-family="Times,serif" font-size="14.00">filbuf</text>
</g>
<!-- sort&#45;&gt;filbuf -->
<g id="edge23" class="edge">
<title>sort&#45;&gt;filbuf</title>
<path fill="none" stroke="#3542b2" d="M323.97,-841.04C274.72,-825.71 164.85,-783.94 116.64,-705 88.2,-658.43 92.11,-591.85 97.42,-554.4"/>
<polygon fill="#3542b2" stroke="#3542b2" points="100.83,-555.25 98.92,-544.83 93.92,-554.16 100.83,-555.25"/>
</g>
<!-- setfil -->
<g id="node25" class="node">
<title>setfil</title>
<ellipse fill="#ccd1ff" stroke="#ccd1ff" cx="780.64" cy="-525" rx="30.35" ry="18"/>
<text xml:space="preserve" text-anchor="middle" x="780.64" y="-520.8" font-family="Times,serif" font-size="14.00">setfil</text>
</g>
<!-- sort&#45;&gt;setfil -->
<g id="edge27" class="edge">
<title>sort&#45;&gt;setfil</title>
<path fill="none" stroke="#3542b2" d="M363.29,-833.66C395.88,-802.11 477.44,-725.01 552.64,-669 619.73,-619.02 704.51,-569 749.41,-543.45"/>
<polygon fill="#3542b2" stroke="#3542b2" points="750.85,-546.65 757.83,-538.68 747.4,-540.56 750.85,-546.65"/>
</g>
<!-- merge&#45;&gt;unlink -->
<g id="edge36" class="edge">
<title>merge&#45;&gt;unlink</title>
<path fill="none" stroke="#3542b2" d="M493.15,-836.75C559.04,-808.78 730.41,-736.05 806.41,-703.8"/>
<polygon fill="#3542b2" stroke="#3542b2" points="807.67,-707.07 815.51,-699.94 804.94,-700.62 807.67,-707.07"/>
</g>
<!-- merge&#45;&gt;fclose -->
<g id="edge38" class="edge">
<title>merge&#45;&gt;fclose</title>
<path fill="none" stroke="#3542b2" d="M455.38,-831.48C436.35,-803.55 397.7,-746.81 375.12,-713.66"/>
<polygon fill="#3542b2" stroke="#3542b2" points="378.04,-711.74 369.52,-705.44 372.26,-715.68 378.04,-711.74"/>
</g>
<!-- merge&#45;&gt;setbuf -->
<g id="edge41" class="edge">
<title>merge&#45;&gt;setbuf</title>
<path fill="none" stroke="#3542b2" d="M438.62,-837.63C363.66,-809.86 158.38,-733.83 72.84,-702.15"/>
<polygon fill="#3542b2" stroke="#3542b2" points="74.32,-698.96 63.72,-698.77 71.89,-705.53 74.32,-698.96"/>
</g>
<!-- merge&#45;&gt;setfil -->
<g id="edge39" class="edge">
<title>merge&#45;&gt;setfil</title>
<path fill="none" stroke="#3542b2" d="M499.81,-842.54C562.44,-830.33 697.46,-794.49 760.64,-705 792.37,-660.05 789.93,-592.33 785.3,-554.37"/>
<polygon fill="#3542b2" stroke="#3542b2" points="788.79,-554.09 783.97,-544.66 781.86,-555.04 788.79,-554.09"/>
</g>
<!-- insert -->
<g id="node27" class="node">
<title>insert</title>
<ellipse fill="#ccd1ff" stroke="#ccd1ff" cx="535.64" cy="-525" rx="32.49" ry="18"/>
<text xml:space="preserve" text-anchor="middle" x="535.64" y="-520.8" font-family="Times,serif" font-size="14.00">insert</text>
</g>
<!-- merge&#45;&gt;insert -->
<g id="edge33" class="edge">
<title>merge&#45;&gt;insert</title>
<path fill="none" stroke="#3542b2" d="M466.51,-830.73C466.61,-798.52 468.47,-727.25 481.64,-669 491.09,-627.18 510.12,-581.19 522.87,-552.95"/>
<polygon fill="#3542b2" stroke="#3542b2" points="525.96,-554.62 526.95,-544.07 519.59,-551.7 525.96,-554.62"/>
</g>
<!-- wline -->
<g id="node28" class="node">
<title>wline</title>
<ellipse fill="#d7ff3e" stroke="#d7ff3e" cx="190.64" cy="-525" rx="32.49" ry="18"/>
<text xml:space="preserve" text-anchor="middle" x="190.64" y="-520.8" font-family="Times,serif" font-size="14.00">wline</text>
</g>
<!-- merge&#45;&gt;wline -->
<g id="edge35" class="edge">
<title>merge&#45;&gt;wline</title>
<path fill="none" stroke="#3542b2" d="M437.06,-838.71C386.37,-821.21 283.32,-778.34 230.64,-705 198.03,-659.61 191.33,-592.33 190.34,-554.5"/>
<polygon fill="#3542b2" stroke="#3542b2" points="193.85,-554.79 190.22,-544.83 186.85,-554.88 193.85,-554.79"/>
</g>
<!-- cmpsave -->
<g id="node30" class="node">
<title>cmpsave</title>
<ellipse fill="#ccd1ff" stroke="#ccd1ff" cx="402.64" cy="-525" rx="44.82" ry="18"/>
<text xml:space="preserve" text-anchor="middle" x="402.64" y="-520.8" font-family="Times,serif" font-size="14.00">cmpsave</text>
</g>
<!-- merge&#45;&gt;cmpsave -->
<g id="edge42" class="edge">
<title>merge&#45;&gt;cmpsave</title>
<path fill="none" stroke="#3542b2" d="M463.2,-830.69C452.73,-778.05 421.23,-619.57 408.29,-554.43"/>
<polygon fill="#3542b2" stroke="#3542b2" points="411.77,-554.01 406.39,-544.88 404.91,-555.37 411.77,-554.01"/>
</g>
<!-- rline -->
<g id="node31" class="node">
<title>rline</title>
<ellipse fill="#6fff82" stroke="#6fff82" cx="154.64" cy="-687" rx="28.73" ry="18"/>
<text xml:space="preserve" text-anchor="middle" x="154.64" y="-682.8" font-family="Times,serif" font-size="14.00">rline</text>
</g>
<!-- merge&#45;&gt;rline -->
<g id="edge34" class="edge">
<title>merge&#45;&gt;rline</title>
<path fill="none" stroke="#3542b2" d="M442.41,-835.58C386.65,-806.98 249.21,-736.5 186.61,-704.4"/>
<polygon fill="#3542b2" stroke="#3542b2" points="188.37,-701.37 177.88,-699.92 185.18,-707.6 188.37,-701.37"/>
</g>
<!-- fopen -->
<g id="node32" class="node">
<title>fopen</title>
<ellipse fill="#ccd1ff" stroke="#ccd1ff" cx="698.64" cy="-525" rx="33.02" ry="18"/>
<text xml:space="preserve" text-anchor="middle" x="698.64" y="-520.8" font-family="Times,serif" font-size="14.00">fopen</text>
</g>
<!-- merge&#45;&gt;fopen -->
<g id="edge37" class="edge">
<title>merge&#45;&gt;fopen</title>
<path fill="none" stroke="#3542b2" d="M472.56,-830.9C484.53,-797.74 513.77,-723.23 552.64,-669 587.63,-620.18 640.18,-573.39 671.78,-547.3"/>
<polygon fill="#3542b2" stroke="#3542b2" points="673.77,-550.19 679.31,-541.15 669.35,-544.76 673.77,-550.19"/>
</g>
<!-- mul -->
<g id="node33" class="node">
<title>mul</title>
<ellipse fill="#ccd1ff" stroke="#ccd1ff" cx="588.64" cy="-687" rx="27" ry="18"/>
<text xml:space="preserve" text-anchor="middle" x="588.64" y="-682.8" font-family="Times,serif" font-size="14.00">mul</text>
</g>
<!-- merge&#45;&gt;mul -->
<g id="edge40" class="edge">
<title>merge&#45;&gt;mul</title>
<path fill="none" stroke="#3542b2" d="M479.01,-831.78C500.51,-803.58 544.89,-745.37 570.09,-712.32"/>
<polygon fill="#3542b2" stroke="#3542b2" points="572.76,-714.6 576.04,-704.53 567.19,-710.36 572.76,-714.6"/>
</g>
<!-- term&#45;&gt;signal -->
<g id="edge51" class="edge">
<title>term&#45;&gt;signal</title>
<path fill="none" stroke="#3542b2" d="M868.08,-837.38C925.72,-810.09 1079.3,-737.39 1148.72,-704.53"/>
<polygon fill="#3542b2" stroke="#3542b2" points="1149.81,-707.89 1157.35,-700.44 1146.81,-701.56 1149.81,-707.89"/>
</g>
<!-- term&#45;&gt;unlink -->
<g id="edge50" class="edge">
<title>term&#45;&gt;unlink</title>
<path fill="none" stroke="#3542b2" d="M845.42,-830.57C845.08,-803.16 844.41,-749.69 843.99,-716.59"/>
<polygon fill="#3542b2" stroke="#3542b2" points="847.5,-716.87 843.87,-706.92 840.5,-716.96 847.5,-716.87"/>
</g>
<!-- term&#45;&gt;setfil -->
<g id="edge52" class="edge">
<title>term&#45;&gt;setfil</title>
<path fill="none" stroke="#3542b2" d="M864.95,-835.17C905.38,-806.64 992.59,-735.2 960.64,-669 930.49,-606.54 858.33,-562.99 815.09,-541.45"/>
<polygon fill="#3542b2" stroke="#3542b2" points="816.65,-538.32 806.12,-537.11 813.6,-544.62 816.65,-538.32"/>
</g>
<!-- exit -->
<g id="node39" class="node">
<title>exit</title>
<ellipse fill="#ccd1ff" stroke="#ccd1ff" cx="924.64" cy="-687" rx="27" ry="18"/>
<text xml:space="preserve" text-anchor="middle" x="924.64" y="-682.8" font-family="Times,serif" font-size="14.00">exit</text>
</g>
<!-- term&#45;&gt;exit -->
<g id="edge53" class="edge">
<title>term&#45;&gt;exit</title>
<path fill="none" stroke="#3542b2" d="M853.79,-831.48C867.52,-803.67 895.36,-747.3 911.75,-714.09"/>
<polygon fill="#3542b2" stroke="#3542b2" points="914.68,-716.07 915.97,-705.55 908.41,-712.97 914.68,-716.07"/>
</g>
<!-- sigvec -->
<g id="node53" class="node">
<title>sigvec</title>
<ellipse fill="#ccd1ff" stroke="#ccd1ff" cx="1183.64" cy="-525" rx="35.71" ry="18"/>
<text xml:space="preserve" text-anchor="middle" x="1183.64" y="-520.8" font-family="Times,serif" font-size="14.00">sigvec</text>
</g>
<!-- signal&#45;&gt;sigvec -->
<g id="edge72" class="edge">
<title>signal&#45;&gt;sigvec</title>
<path fill="none" stroke="#3542b2" d="M1183.64,-668.57C1183.64,-641.16 1183.64,-587.69 1183.64,-554.59"/>
<polygon fill="#3542b2" stroke="#3542b2" points="1187.14,-554.92 1183.64,-544.92 1180.14,-554.92 1187.14,-554.92"/>
</g>
<!-- newfile&#45;&gt;setfil -->
<g id="edge58" class="edge">
<title>newfile&#45;&gt;setfil</title>
<path fill="none" stroke="#3542b2" d="M719.02,-668.88C731.02,-641.06 754.82,-585.86 769.08,-552.81"/>
<polygon fill="#3542b2" stroke="#3542b2" points="772.17,-554.48 772.91,-543.91 765.74,-551.71 772.17,-554.48"/>
</g>
<!-- newfile&#45;&gt;fopen -->
<g id="edge57" class="edge">
<title>newfile&#45;&gt;fopen</title>
<path fill="none" stroke="#344db4" d="M710.22,-668.57C707.99,-641.16 703.65,-587.69 700.96,-554.59"/>
<polygon fill="#344db4" stroke="#344db4" points="704.47,-554.6 700.17,-544.91 697.49,-555.17 704.47,-554.6"/>
</g>
<!-- fclose&#45;&gt;close -->
<g id="edge60" class="edge">
<title>fclose&#45;&gt;close</title>
<path fill="none" stroke="#3542b2" d="M379.27,-672.63C425.42,-644.13 533.58,-577.31 586.46,-544.64"/>
<polygon fill="#3542b2" stroke="#3542b2" points="588.01,-547.8 594.68,-539.57 584.33,-541.84 588.01,-547.8"/>
</g>
<!-- fflush -->
<g id="node43" class="node">
<title>fflush</title>
<ellipse fill="#ccd1ff" stroke="#ccd1ff" cx="364.64" cy="-364" rx="33.57" ry="18"/>
<text xml:space="preserve" text-anchor="middle" x="364.64" y="-359.8" font-family="Times,serif" font-size="14.00">fflush</text>
</g>
<!-- fclose&#45;&gt;fflush -->
<g id="edge59" class="edge">
<title>fclose&#45;&gt;fflush</title>
<path fill="none" stroke="#3547b3" d="M373.18,-670.61C396.65,-646.15 440.16,-595.74 456.64,-543 475.19,-483.62 422.92,-420.33 389.73,-387.58"/>
<polygon fill="#3547b3" stroke="#3547b3" points="392.48,-385.37 382.84,-380.98 387.64,-390.43 392.48,-385.37"/>
</g>
<!-- doprnt -->
<g id="node58" class="node">
<title>doprnt</title>
<ellipse fill="#ccd1ff" stroke="#ccd1ff" cx="1453.64" cy="-687" rx="36.25" ry="18"/>
<text xml:space="preserve" text-anchor="middle" x="1453.64" y="-682.8" font-family="Times,serif" font-size="14.00">doprnt</text>
</g>
<!-- sprintf&#45;&gt;doprnt -->
<g id="edge85" class="edge">
<title>sprintf&#45;&gt;doprnt</title>
<path fill="none" stroke="#3542b2" d="M1453.64,-830.57C1453.64,-803.16 1453.64,-749.69 1453.64,-716.59"/>
<polygon fill="#3542b2" stroke="#3542b2" points="1457.14,-716.92 1453.64,-706.92 1450.14,-716.92 1457.14,-716.92"/>
</g>
<!-- qsort -->
<g id="node26" class="node">
<title>qsort</title>
<ellipse fill="#8dffdc" stroke="#8dffdc" cx="271.64" cy="-525" rx="30.35" ry="18"/>
<text xml:space="preserve" text-anchor="middle" x="271.64" y="-520.8" font-family="Times,serif" font-size="14.00">qsort</text>
</g>
<!-- msort&#45;&gt;qsort -->
<g id="edge28" class="edge">
<title>msort&#45;&gt;qsort</title>
<path fill="none" stroke="#3542b2" d="M272.53,-668.57C272.36,-641.16 272.02,-587.69 271.82,-554.59"/>
<polygon fill="#3542b2" stroke="#3542b2" points="275.32,-554.9 271.75,-544.92 268.32,-554.94 275.32,-554.9"/>
</g>
<!-- msort&#45;&gt;insert -->
<g id="edge29" class="edge">
<title>msort&#45;&gt;insert</title>
<path fill="none" stroke="#3542b2" d="M294.16,-672.91C340.61,-644.65 450.4,-577.86 504.46,-544.97"/>
<polygon fill="#3542b2" stroke="#3542b2" points="506.17,-548.02 512.89,-539.84 502.53,-542.04 506.17,-548.02"/>
</g>
<!-- msort&#45;&gt;wline -->
<g id="edge30" class="edge">
<title>msort&#45;&gt;wline</title>
<path fill="none" stroke="#3542b2" d="M264.02,-669.18C249.77,-641.38 221.2,-585.63 204.22,-552.49"/>
<polygon fill="#3542b2" stroke="#3542b2" points="207.51,-551.24 199.83,-543.94 201.28,-554.44 207.51,-551.24"/>
</g>
<!-- div -->
<g id="node29" class="node">
<title>div</title>
<ellipse fill="#ccd1ff" stroke="#ccd1ff" cx="781.64" cy="-364" rx="27" ry="18"/>
<text xml:space="preserve" text-anchor="middle" x="781.64" y="-359.8" font-family="Times,serif" font-size="14.00">div</text>
</g>
<!-- msort&#45;&gt;div -->
<g id="edge31" class="edge">
<title>msort&#45;&gt;div</title>
<path fill="none" stroke="#3542b2" d="M275.08,-668.71C281.03,-633.19 299.52,-551.59 348.64,-507 485.6,-382.66 573.38,-449.43 745.64,-382 747.17,-381.4 748.72,-380.77 750.28,-380.11"/>
<polygon fill="#3542b2" stroke="#3542b2" points="751.43,-383.43 759.14,-376.17 748.58,-377.04 751.43,-383.43"/>
</g>
<!-- msort&#45;&gt;cmpsave -->
<g id="edge32" class="edge">
<title>msort&#45;&gt;cmpsave</title>
<path fill="none" stroke="#3542b2" d="M285.58,-670.07C308.24,-642.18 355.26,-584.32 382.3,-551.03"/>
<polygon fill="#3542b2" stroke="#3542b2" points="384.82,-553.48 388.41,-543.51 379.38,-549.07 384.82,-553.48"/>
</g>
<!-- read -->
<g id="node38" class="node">
<title>read</title>
<ellipse fill="#b5dcff" stroke="#b5dcff" cx="102.64" cy="-364" rx="27.65" ry="18"/>
<text xml:space="preserve" text-anchor="middle" x="102.64" y="-359.8" font-family="Times,serif" font-size="14.00">read</text>
</g>
<!-- filbuf&#45;&gt;read -->
<g id="edge49" class="edge">
<title>filbuf&#45;&gt;read</title>
<path fill="none" stroke="#3542b2" d="M102.64,-506.68C102.64,-479.44 102.64,-426.31 102.64,-393.41"/>
<polygon fill="#3542b2" stroke="#3542b2" points="106.14,-393.81 102.64,-383.81 99.14,-393.81 106.14,-393.81"/>
</g>
<!-- setfil&#45;&gt;rem -->
<g id="edge78" class="edge">
<title>setfil&#45;&gt;rem</title>
<path fill="none" stroke="#3542b2" d="M803.06,-512.31C856.9,-484.24 993.53,-413.01 1054.93,-381.01"/>
<polygon fill="#3542b2" stroke="#3542b2" points="1056.21,-384.29 1063.46,-376.56 1052.97,-378.08 1056.21,-384.29"/>
</g>
<!-- setfil&#45;&gt;div -->
<g id="edge77" class="edge">
<title>setfil&#45;&gt;div</title>
<path fill="none" stroke="#3542b2" d="M780.75,-506.68C780.92,-479.44 781.25,-426.31 781.46,-393.41"/>
<polygon fill="#3542b2" stroke="#3542b2" points="784.96,-393.83 781.52,-383.81 777.96,-393.79 784.96,-393.83"/>
</g>
<!-- cmpa -->
<g id="node34" class="node">
<title>cmpa</title>
<ellipse fill="#ff0000" stroke="#ff0000" cx="484.64" cy="-364" rx="31.95" ry="18"/>
<text xml:space="preserve" text-anchor="middle" x="484.64" y="-359.8" font-family="Times,serif" font-size="14.00">cmpa</text>
</g>
<!-- qsort&#45;&gt;cmpa -->
<g id="edge45" class="edge">
<title>qsort&#45;&gt;cmpa</title>
<path fill="none" stroke="#3542b2" d="M289.8,-510.44C327.1,-482.6 412.56,-418.8 456.86,-385.73"/>
<polygon fill="#3542b2" stroke="#3542b2" points="458.78,-388.67 464.7,-379.88 454.6,-383.06 458.78,-388.67"/>
</g>
<!-- insert&#45;&gt;cmpa -->
<g id="edge43" class="edge">
<title>insert&#45;&gt;cmpa</title>
<path fill="none" stroke="#3542b2" d="M530.18,-506.98C521.4,-479.61 504.05,-425.53 493.49,-392.59"/>
<polygon fill="#3542b2" stroke="#3542b2" points="496.9,-391.79 490.52,-383.33 490.24,-393.93 496.9,-391.79"/>
</g>
<!-- getfreehdr -->
<g id="node47" class="node">
<title>getfreehdr</title>
<ellipse fill="#ccd1ff" stroke="#ccd1ff" cx="989.64" cy="-364" rx="50.71" ry="18"/>
<text xml:space="preserve" text-anchor="middle" x="989.64" y="-359.8" font-family="Times,serif" font-size="14.00">getfreehdr</text>
</g>
<!-- insert&#45;&gt;getfreehdr -->
<g id="edge76" class="edge">
<title>insert&#45;&gt;getfreehdr</title>
<path fill="none" stroke="#3542b2" d="M560.69,-513.32C565.94,-511.17 571.45,-508.97 576.64,-507 707.74,-457.33 864.92,-405.33 942.11,-380.28"/>
<polygon fill="#3542b2" stroke="#3542b2" points="943.03,-383.66 951.46,-377.25 940.87,-377 943.03,-383.66"/>
</g>
<!-- flsbuf -->
<g id="node35" class="node">
<title>flsbuf</title>
<ellipse fill="#ccd1ff" stroke="#ccd1ff" cx="207.64" cy="-364" rx="33.57" ry="18"/>
<text xml:space="preserve" text-anchor="middle" x="207.64" y="-359.8" font-family="Times,serif" font-size="14.00">flsbuf</text>
</g>
<!-- wline&#45;&gt;flsbuf -->
<g id="edge44" class="edge">
<title>wline&#45;&gt;flsbuf</title>
<path fill="none" stroke="#3542b2" d="M192.49,-506.68C195.4,-479.44 201.08,-426.31 204.6,-393.41"/>
<polygon fill="#3542b2" stroke="#3542b2" points="208.04,-394.12 205.63,-383.8 201.08,-393.37 208.04,-394.12"/>
</g>
<!-- rline&#45;&gt;filbuf -->
<g id="edge46" class="edge">
<title>rline&#45;&gt;filbuf</title>
<path fill="none" stroke="#3542b2" d="M149.07,-668.88C140.12,-641.33 122.43,-586.91 111.66,-553.76"/>
<polygon fill="#3542b2" stroke="#3542b2" points="115.05,-552.87 108.63,-544.44 108.39,-555.03 115.05,-552.87"/>
</g>
<!-- endopen -->
<g id="node40" class="node">
<title>endopen</title>
<ellipse fill="#ccd1ff" stroke="#ccd1ff" cx="596.64" cy="-364" rx="43.75" ry="18"/>
<text xml:space="preserve" text-anchor="middle" x="596.64" y="-359.8" font-family="Times,serif" font-size="14.00">endopen</text>
</g>
<!-- fopen&#45;&gt;endopen -->
<g id="edge55" class="edge">
<title>fopen&#45;&gt;endopen</title>
<path fill="none" stroke="#354ab3" d="M688.1,-507.58C670.39,-479.97 634.5,-424.02 613.33,-391.02"/>
<polygon fill="#354ab3" stroke="#354ab3" points="616.43,-389.37 608.08,-382.84 610.53,-393.15 616.43,-389.37"/>
</g>
<!-- findiop -->
<g id="node42" class="node">
<title>findiop</title>
<ellipse fill="#ccd1ff" stroke="#ccd1ff" cx="697.64" cy="-364" rx="38.93" ry="18"/>
<text xml:space="preserve" text-anchor="middle" x="697.64" y="-359.8" font-family="Times,serif" font-size="14.00">findiop</text>
</g>
<!-- fopen&#45;&gt;findiop -->
<g id="edge56" class="edge">
<title>fopen&#45;&gt;findiop</title>
<path fill="none" stroke="#3542b2" d="M698.53,-506.68C698.36,-479.44 698.02,-426.31 697.82,-393.41"/>
<polygon fill="#3542b2" stroke="#3542b2" points="701.32,-393.79 697.75,-383.81 694.32,-393.83 701.32,-393.79"/>
</g>
<!-- xflsbuf -->
<g id="node36" class="node">
<title>xflsbuf</title>
<ellipse fill="#ccd1ff" stroke="#ccd1ff" cx="286.64" cy="-202" rx="38.39" ry="18"/>
<text xml:space="preserve" text-anchor="middle" x="286.64" y="-197.8" font-family="Times,serif" font-size="14.00">xflsbuf</text>
</g>
<!-- flsbuf&#45;&gt;xflsbuf -->
<g id="edge48" class="edge">
<title>flsbuf&#45;&gt;xflsbuf</title>
<path fill="none" stroke="#3542b2" d="M215.94,-346.18C229.67,-318.38 257.19,-262.63 273.55,-229.49"/>
<polygon fill="#3542b2" stroke="#3542b2" points="276.48,-231.47 277.77,-220.95 270.21,-228.37 276.48,-231.47"/>
</g>
<!-- write -->
<g id="node37" class="node">
<title>write</title>
<ellipse fill="#9cfffe" stroke="#9cfffe" cx="286.64" cy="-40" rx="30.88" ry="18"/>
<text xml:space="preserve" text-anchor="middle" x="286.64" y="-35.8" font-family="Times,serif" font-size="14.00">write</text>
</g>
<!-- xflsbuf&#45;&gt;write -->
<g id="edge47" class="edge">
<title>xflsbuf&#45;&gt;write</title>
<path fill="none" stroke="#3542b2" d="M286.64,-183.57C286.64,-156.16 286.64,-102.69 286.64,-69.59"/>
<polygon fill="#3542b2" stroke="#3542b2" points="290.14,-69.92 286.64,-59.92 283.14,-69.92 290.14,-69.92"/>
</g>
<!-- open -->
<g id="node41" class="node">
<title>open</title>
<ellipse fill="#c8d1ff" stroke="#c8d1ff" cx="596.64" cy="-202" rx="29.81" ry="18"/>
<text xml:space="preserve" text-anchor="middle" x="596.64" y="-197.8" font-family="Times,serif" font-size="14.00">open</text>
</g>
<!-- endopen&#45;&gt;open -->
<g id="edge54" class="edge">
<title>endopen&#45;&gt;open</title>
<path fill="none" stroke="#3542b2" d="M596.64,-345.57C596.64,-318.16 596.64,-264.69 596.64,-231.59"/>
<polygon fill="#3542b2" stroke="#3542b2" points="600.14,-231.92 596.64,-221.92 593.14,-231.92 600.14,-231.92"/>
</g>
<!-- fflush&#45;&gt;xflsbuf -->
<g id="edge61" class="edge">
<title>fflush&#45;&gt;xflsbuf</title>
<path fill="none" stroke="#344db4" d="M356.44,-346.18C342.94,-318.5 315.94,-263.11 299.76,-229.93"/>
<polygon fill="#344db4" stroke="#344db4" points="302.92,-228.41 295.39,-220.96 296.63,-231.48 302.92,-228.41"/>
</g>
<!-- morecore -->
<g id="node45" class="node">
<title>morecore</title>
<ellipse fill="#ccd1ff" stroke="#ccd1ff" cx="1720.64" cy="-849" rx="47.5" ry="18"/>
<text xml:space="preserve" text-anchor="middle" x="1720.64" y="-844.8" font-family="Times,serif" font-size="14.00">morecore</text>
</g>
<!-- malloc&#45;&gt;morecore -->
<g id="edge62" class="edge">
<title>malloc&#45;&gt;morecore</title>
<path fill="none" stroke="#29d820" d="M1720.64,-992.57C1720.64,-965.16 1720.64,-911.69 1720.64,-878.59"/>
<polygon fill="#29d820" stroke="#29d820" points="1724.14,-878.92 1720.64,-868.92 1717.14,-878.92 1724.14,-878.92"/>
</g>
<!-- demote -->
<g id="node46" class="node">
<title>demote</title>
<ellipse fill="#ccd1ff" stroke="#ccd1ff" cx="1825.64" cy="-849" rx="39.46" ry="18"/>
<text xml:space="preserve" text-anchor="middle" x="1825.64" y="-844.8" font-family="Times,serif" font-size="14.00">demote</text>
</g>
<!-- malloc&#45;&gt;demote -->
<g id="edge63" class="edge">
<title>malloc&#45;&gt;demote</title>
<path fill="none" stroke="#3542b2" d="M1731.48,-993.48C1749.71,-965.69 1786.66,-909.4 1808.46,-876.18"/>
<polygon fill="#3542b2" stroke="#3542b2" points="1811.31,-878.22 1813.87,-867.94 1805.45,-874.38 1811.31,-878.22"/>
</g>
<!-- morecore&#45;&gt;sbrk -->
<g id="edge64" class="edge">
<title>morecore&#45;&gt;sbrk</title>
<path fill="none" stroke="#3542b2" d="M1720.17,-830.64C1718.36,-766.35 1711.26,-535.7 1697.64,-346 1694.78,-306.16 1690.02,-260.21 1686.85,-231.38"/>
<polygon fill="#3542b2" stroke="#3542b2" points="1690.35,-231.2 1685.77,-221.65 1683.4,-231.97 1690.35,-231.2"/>
</g>
<!-- morecore&#45;&gt;getfreehdr -->
<g id="edge65" class="edge">
<title>morecore&#45;&gt;getfreehdr</title>
<path fill="none" stroke="#3542b2" d="M1718.25,-830.73C1709.24,-767.93 1675.27,-553 1626.64,-507 1436.01,-326.69 1304.21,-445.57 1049.64,-382 1046.12,-381.12 1042.49,-380.18 1038.85,-379.21"/>
<polygon fill="#3542b2" stroke="#3542b2" points="1039.98,-375.89 1029.41,-376.64 1038.14,-382.65 1039.98,-375.89"/>
</g>
<!-- free -->
<g id="node48" class="node">
<title>free</title>
<ellipse fill="#ccd1ff" stroke="#ccd1ff" cx="1317.64" cy="-687" rx="27" ry="18"/>
<text xml:space="preserve" text-anchor="middle" x="1317.64" y="-682.8" font-family="Times,serif" font-size="14.00">free</text>
</g>
<!-- morecore&#45;&gt;free -->
<g id="edge66" class="edge">
<title>morecore&#45;&gt;free</title>
<path fill="none" stroke="#3542b2" d="M1688.68,-835.31C1613.62,-805.51 1426.7,-731.3 1350.63,-701.1"/>
<polygon fill="#3542b2" stroke="#3542b2" points="1352.23,-697.97 1341.64,-697.53 1349.64,-704.47 1352.23,-697.97"/>
</g>
<!-- getpagesize -->
<g id="node49" class="node">
<title>getpagesize</title>
<ellipse fill="#ccd1ff" stroke="#ccd1ff" cx="1805.64" cy="-687" rx="56.08" ry="18"/>
<text xml:space="preserve" text-anchor="middle" x="1805.64" y="-682.8" font-family="Times,serif" font-size="14.00">getpagesize</text>
</g>
<!-- morecore&#45;&gt;getpagesize -->
<g id="edge67" class="edge">
<title>morecore&#45;&gt;getpagesize</title>
<path fill="none" stroke="#3542b2" d="M1729.73,-830.88C1744.5,-803.09 1773.78,-747.96 1791.35,-714.9"/>
<polygon fill="#3542b2" stroke="#3542b2" points="1794.29,-716.81 1795.9,-706.34 1788.11,-713.53 1794.29,-716.81"/>
</g>
<!-- putfreehdr -->
<g id="node50" class="node">
<title>putfreehdr</title>
<ellipse fill="#ccd1ff" stroke="#ccd1ff" cx="1930.64" cy="-687" rx="51.25" ry="18"/>
<text xml:space="preserve" text-anchor="middle" x="1930.64" y="-682.8" font-family="Times,serif" font-size="14.00">putfreehdr</text>
</g>
<!-- morecore&#45;&gt;putfreehdr -->
<g id="edge68" class="edge">
<title>morecore&#45;&gt;putfreehdr</title>
<path fill="none" stroke="#3542b2" d="M1741.15,-832.37C1778.56,-803.87 1857.95,-743.38 1901.14,-710.47"/>
<polygon fill="#3542b2" stroke="#3542b2" points="1903,-713.46 1908.83,-704.61 1898.76,-707.89 1903,-713.46"/>
</g>
<!-- udiv -->
<g id="node51" class="node">
<title>udiv</title>
<ellipse fill="#ccd1ff" stroke="#ccd1ff" cx="1589.64" cy="-525" rx="28.2" ry="18"/>
<text xml:space="preserve" text-anchor="middle" x="1589.64" y="-520.8" font-family="Times,serif" font-size="14.00">udiv</text>
</g>
<!-- morecore&#45;&gt;udiv -->
<g id="edge69" class="edge">
<title>morecore&#45;&gt;udiv</title>
<path fill="none" stroke="#3542b2" d="M1713.78,-831.14C1692.42,-778.65 1626.98,-617.8 1600.72,-553.24"/>
<polygon fill="#3542b2" stroke="#3542b2" points="1604.01,-552.04 1597,-544.09 1597.52,-554.68 1604.01,-552.04"/>
</g>
<!-- umul -->
<g id="node52" class="node">
<title>umul</title>
<ellipse fill="#ccd1ff" stroke="#ccd1ff" cx="2030.64" cy="-687" rx="30.89" ry="18"/>
<text xml:space="preserve" text-anchor="middle" x="2030.64" y="-682.8" font-family="Times,serif" font-size="14.00">umul</text>
</g>
<!-- morecore&#45;&gt;umul -->
<g id="edge70" class="edge">
<title>morecore&#45;&gt;umul</title>
<path fill="none" stroke="#3542b2" d="M1747.88,-833.94C1805,-804.46 1937.09,-736.28 1998.35,-704.66"/>
<polygon fill="#3542b2" stroke="#3542b2" points="1999.62,-707.95 2006.9,-700.25 1996.41,-701.73 1999.62,-707.95"/>
</g>
<!-- getfreehdr&#45;&gt;sbrk -->
<g id="edge74" class="edge">
<title>getfreehdr&#45;&gt;sbrk</title>
<path fill="none" stroke="#3542b2" d="M1027.96,-351.81C1035.15,-349.8 1042.61,-347.79 1049.64,-346 1274.78,-288.76 1547.85,-231.1 1646.14,-210.72"/>
<polygon fill="#3542b2" stroke="#3542b2" points="1646.68,-214.18 1655.76,-208.72 1645.26,-207.32 1646.68,-214.18"/>
</g>
<!-- free&#45;&gt;insert -->
<g id="edge75" class="edge">
<title>free&#45;&gt;insert</title>
<path fill="none" stroke="#3542b2" d="M1291.8,-681.17C1164.89,-657.4 612.16,-553.67 576.64,-543 574.67,-542.41 572.68,-541.76 570.67,-541.07"/>
<polygon fill="#3542b2" stroke="#3542b2" points="572.07,-537.85 561.48,-537.61 569.6,-544.4 572.07,-537.85"/>
</g>
<!-- sigblock -->
<g id="node56" class="node">
<title>sigblock</title>
<ellipse fill="#ccd1ff" stroke="#ccd1ff" cx="1298.64" cy="-364" rx="43.76" ry="18"/>
<text xml:space="preserve" text-anchor="middle" x="1298.64" y="-359.8" font-family="Times,serif" font-size="14.00">sigblock</text>
</g>
<!-- sigvec&#45;&gt;sigblock -->
<g id="edge79" class="edge">
<title>sigvec&#45;&gt;sigblock</title>
<path fill="none" stroke="#3542b2" d="M1195.51,-507.58C1215.57,-479.85 1256.3,-423.54 1280.13,-390.59"/>
<polygon fill="#3542b2" stroke="#3542b2" points="1282.74,-392.95 1285.77,-382.79 1277.07,-388.84 1282.74,-392.95"/>
</g>
<!-- sigsetmask -->
<g id="node57" class="node">
<title>sigsetmask</title>
<ellipse fill="#ccd1ff" stroke="#ccd1ff" cx="1183.64" cy="-364" rx="53.42" ry="18"/>
<text xml:space="preserve" text-anchor="middle" x="1183.64" y="-359.8" font-family="Times,serif" font-size="14.00">sigsetmask</text>
</g>
<!-- sigvec&#45;&gt;sigsetmask -->
<g id="edge80" class="edge">
<title>sigvec&#45;&gt;sigsetmask</title>
<path fill="none" stroke="#3542b2" d="M1183.64,-506.68C1183.64,-479.44 1183.64,-426.31 1183.64,-393.41"/>
<polygon fill="#3542b2" stroke="#3542b2" points="1187.14,-393.81 1183.64,-383.81 1180.14,-393.81 1187.14,-393.81"/>
</g>
<!-- moncontrol -->
<g id="node54" class="node">
<title>moncontrol</title>
<ellipse fill="#cad1ff" stroke="#cad1ff" cx="1625.64" cy="-1334" rx="55.56" ry="18"/>
<text xml:space="preserve" text-anchor="middle" x="1625.64" y="-1329.8" font-family="Times,serif" font-size="14.00">moncontrol</text>
</g>
<!-- profil -->
<g id="node55" class="node">
<title>profil</title>
<ellipse fill="#ccd1ff" stroke="#ccd1ff" cx="1625.64" cy="-1172" rx="32.49" ry="18"/>
<text xml:space="preserve" text-anchor="middle" x="1625.64" y="-1167.8" font-family="Times,serif" font-size="14.00">profil</text>
</g>
<!-- moncontrol&#45;&gt;profil -->
<g id="edge73" class="edge">
<title>moncontrol&#45;&gt;profil</title>
<path fill="none" stroke="#3542b2" d="M1625.64,-1315.57C1625.64,-1288.16 1625.64,-1234.69 1625.64,-1201.59"/>
<polygon fill="#3542b2" stroke="#3542b2" points="1629.14,-1201.92 1625.64,-1191.92 1622.14,-1201.92 1629.14,-1201.92"/>
</g>
<!-- doprnt&#45;&gt;udiv -->
<g id="edge82" class="edge">
<title>doprnt&#45;&gt;udiv</title>
<path fill="none" stroke="#3542b2" d="M1467.17,-670.07C1491.13,-641.9 1541.09,-583.11 1569.23,-550"/>
<polygon fill="#3542b2" stroke="#3542b2" points="1571.76,-552.43 1575.57,-542.54 1566.43,-547.9 1571.76,-552.43"/>
</g>
<!-- urem -->
<g id="node59" class="node">
<title>urem</title>
<ellipse fill="#ccd1ff" stroke="#ccd1ff" cx="1474.64" cy="-525" rx="30.88" ry="18"/>
<text xml:space="preserve" text-anchor="middle" x="1474.64" y="-520.8" font-family="Times,serif" font-size="14.00">urem</text>
</g>
<!-- doprnt&#45;&gt;urem -->
<g id="edge81" class="edge">
<title>doprnt&#45;&gt;urem</title>
<path fill="none" stroke="#3542b2" d="M1455.92,-668.57C1459.52,-641.16 1466.54,-587.69 1470.88,-554.59"/>
<polygon fill="#3542b2" stroke="#3542b2" points="1474.32,-555.28 1472.16,-544.91 1467.38,-554.37 1474.32,-555.28"/>
</g>
<!-- strlen -->
<g id="node60" class="node">
<title>strlen</title>
<ellipse fill="#ccd1ff" stroke="#ccd1ff" cx="1269.64" cy="-525" rx="32.49" ry="18"/>
<text xml:space="preserve" text-anchor="middle" x="1269.64" y="-520.8" font-family="Times,serif" font-size="14.00">strlen</text>
</g>
<!-- doprnt&#45;&gt;strlen -->
<g id="edge83" class="edge">
<title>doprnt&#45;&gt;strlen</title>
<path fill="none" stroke="#3542b2" d="M1436.33,-670.95C1403.69,-642.57 1332.96,-581.06 1294.97,-548.03"/>
<polygon fill="#3542b2" stroke="#3542b2" points="1297.49,-545.58 1287.64,-541.66 1292.89,-550.86 1297.49,-545.58"/>
</g>
<!-- localeconv -->
<g id="node61" class="node">
<title>localeconv</title>
<ellipse fill="#ccd1ff" stroke="#ccd1ff" cx="1372.64" cy="-525" rx="52.86" ry="18"/>
<text xml:space="preserve" text-anchor="middle" x="1372.64" y="-520.8" font-family="Times,serif" font-size="14.00">localeconv</text>
</g>
<!-- doprnt&#45;&gt;localeconv -->
<g id="edge84" class="edge">
<title>doprnt&#45;&gt;localeconv</title>
<path fill="none" stroke="#3542b2" d="M1445.12,-669.18C1431.12,-641.52 1403.12,-586.21 1386.31,-553.01"/>
<polygon fill="#3542b2" stroke="#3542b2" points="1389.6,-551.77 1381.97,-544.43 1383.36,-554.93 1389.6,-551.77"/>
</g>
</g>
</svg>
