<?xml version="1.0" encoding="UTF-8" standalone="no"?>
<!DOCTYPE svg PUBLIC "-//W3C//DTD SVG 1.1//EN"
 "http://www.w3.org/Graphics/SVG/1.1/DTD/svg11.dtd">
<!-- Generated by graphviz version a (a)
 -->
<!-- Title: g Pages: 1 -->
<svg width="212pt" height="666pt"
 viewBox="0.00 0.00 212.00 666.00" xmlns="http://www.w3.org/2000/svg" xmlns:xlink="http://www.w3.org/1999/xlink">
<g id="graph0" class="graph" transform="scale(1 1) rotate(0) translate(4 661.6)">
<title>g</title>
<polygon fill="white" stroke="none" points="-4,4 -4,-661.6 207.74,-661.6 207.74,4 -4,4"/>
<!-- start -->
<g id="node1" class="node">
<title>start</title>
<ellipse fill="none" stroke="black" cx="105.37" cy="-639.6" rx="45.37" ry="18"/>
<text xml:space="preserve" text-anchor="middle" x="105.37" y="-635.4" font-family="Times,serif" font-size="14.00">MWGC&#45;</text>
</g>
<!-- n1 -->
<g id="node2" class="node">
<title>n1</title>
<ellipse fill="none" stroke="black" cx="105.37" cy="-550.8" rx="45.37" ry="18"/>
<text xml:space="preserve" text-anchor="middle" x="105.37" y="-546.6" font-family="Times,serif" font-size="14.00">WC&#45;MG</text>
</g>
<!-- start&#45;&gt;n1 -->
<g id="edge1" class="edge">
<title>start&#45;&gt;n1</title>
<path fill="none" stroke="black" d="M98.23,-621.45C96.24,-615.86 94.36,-609.56 93.37,-603.6 92.14,-596.23 92.14,-594.17 93.37,-586.8 93.76,-584.47 94.28,-582.09 94.89,-579.73"/>
<polygon fill="black" stroke="black" points="98.17,-580.99 97.78,-570.4 91.48,-578.92 98.17,-580.99"/>
<text xml:space="preserve" text-anchor="middle" x="96.87" y="-591" font-family="Times,serif" font-size="14.00">g</text>
</g>
<!-- n1&#45;&gt;start -->
<g id="edge2" class="edge">
<title>n1&#45;&gt;start</title>
<path fill="none" stroke="black" d="M105.37,-569.21C105.37,-580.96 105.37,-596.74 105.37,-610.28"/>
<polygon fill="black" stroke="black" points="101.87,-609.94 105.37,-619.94 108.87,-609.94 101.87,-609.94"/>
<text xml:space="preserve" text-anchor="middle" x="108.87" y="-591" font-family="Times,serif" font-size="14.00">g</text>
</g>
<!-- n2 -->
<g id="node3" class="node">
<title>n2</title>
<ellipse fill="none" stroke="black" cx="105.37" cy="-462" rx="45.37" ry="18"/>
<text xml:space="preserve" text-anchor="middle" x="105.37" y="-457.8" font-family="Times,serif" font-size="14.00">MWC&#45;G</text>
</g>
<!-- n1&#45;&gt;n2 -->
<g id="edge3" class="edge">
<title>n1&#45;&gt;n2</title>
<path fill="none" stroke="black" d="M95.93,-532.86C93.3,-527.28 90.81,-520.93 89.48,-514.8 87.9,-507.5 87.9,-505.3 89.48,-498 90.02,-495.51 90.75,-492.98 91.6,-490.49"/>
<polygon fill="black" stroke="black" points="94.8,-491.92 95.35,-481.34 88.32,-489.27 94.8,-491.92"/>
<text xml:space="preserve" text-anchor="middle" x="94.92" y="-502.2" font-family="Times,serif" font-size="14.00">m</text>
</g>
<!-- n2&#45;&gt;n1 -->
<g id="edge4" class="edge">
<title>n2&#45;&gt;n1</title>
<path fill="none" stroke="black" d="M105.37,-480.41C105.37,-492.16 105.37,-507.94 105.37,-521.48"/>
<polygon fill="black" stroke="black" points="101.87,-521.14 105.37,-531.14 108.87,-521.14 101.87,-521.14"/>
<text xml:space="preserve" text-anchor="middle" x="110.81" y="-502.2" font-family="Times,serif" font-size="14.00">m</text>
</g>
<!-- n3 -->
<g id="node4" class="node">
<title>n3</title>
<ellipse fill="none" stroke="black" cx="45.37" cy="-373.2" rx="45.37" ry="18"/>
<text xml:space="preserve" text-anchor="middle" x="45.37" y="-369" font-family="Times,serif" font-size="14.00">C&#45;MWG</text>
</g>
<!-- n2&#45;&gt;n3 -->
<g id="edge5" class="edge">
<title>n2&#45;&gt;n3</title>
<path fill="none" stroke="black" d="M78.5,-447.1C70.22,-441.58 61.82,-434.5 56.26,-426 51.73,-419.08 49.04,-410.62 47.45,-402.56"/>
<polygon fill="black" stroke="black" points="50.93,-402.16 46.05,-392.76 44,-403.15 50.93,-402.16"/>
<text xml:space="preserve" text-anchor="middle" x="61.31" y="-413.4" font-family="Times,serif" font-size="14.00">w</text>
</g>
<!-- n4 -->
<g id="node5" class="node">
<title>n4</title>
<ellipse fill="none" stroke="black" cx="154.37" cy="-373.2" rx="45.37" ry="18"/>
<text xml:space="preserve" text-anchor="middle" x="154.37" y="-369" font-family="Times,serif" font-size="14.00">W&#45;MGC</text>
</g>
<!-- n2&#45;&gt;n4 -->
<g id="edge7" class="edge">
<title>n2&#45;&gt;n4</title>
<path fill="none" stroke="black" d="M111.35,-443.66C115.23,-433.33 120.75,-420.15 127.15,-409.2 129.02,-406.01 131.14,-402.79 133.36,-399.66"/>
<polygon fill="black" stroke="black" points="136.01,-401.96 139.23,-391.86 130.42,-397.75 136.01,-401.96"/>
<text xml:space="preserve" text-anchor="middle" x="130.26" y="-413.4" font-family="Times,serif" font-size="14.00">c</text>
</g>
<!-- n3&#45;&gt;n2 -->
<g id="edge6" class="edge">
<title>n3&#45;&gt;n2</title>
<path fill="none" stroke="black" d="M56.9,-390.88C65.53,-403.36 77.48,-420.65 87.36,-434.95"/>
<polygon fill="black" stroke="black" points="84.37,-436.78 92.94,-443.02 90.13,-432.8 84.37,-436.78"/>
<text xml:space="preserve" text-anchor="middle" x="85.8" y="-413.4" font-family="Times,serif" font-size="14.00">w</text>
</g>
<!-- n5 -->
<g id="node6" class="node">
<title>n5</title>
<ellipse fill="none" stroke="black" cx="49.37" cy="-284.4" rx="45.37" ry="18"/>
<text xml:space="preserve" text-anchor="middle" x="49.37" y="-280.2" font-family="Times,serif" font-size="14.00">MGC&#45;W</text>
</g>
<!-- n3&#45;&gt;n5 -->
<g id="edge9" class="edge">
<title>n3&#45;&gt;n5</title>
<path fill="none" stroke="black" d="M39.93,-354.92C37.45,-344.84 35.45,-331.89 37.37,-320.4 37.76,-318.07 38.28,-315.69 38.89,-313.33"/>
<polygon fill="black" stroke="black" points="42.17,-314.59 41.78,-304 35.48,-312.52 42.17,-314.59"/>
<text xml:space="preserve" text-anchor="middle" x="40.87" y="-324.6" font-family="Times,serif" font-size="14.00">g</text>
</g>
<!-- n4&#45;&gt;n2 -->
<g id="edge8" class="edge">
<title>n4&#45;&gt;n2</title>
<path fill="none" stroke="black" d="M147.82,-391.46C143.65,-401.77 137.82,-414.95 131.37,-426 129.59,-429.04 127.61,-432.13 125.54,-435.15"/>
<polygon fill="black" stroke="black" points="122.75,-433.04 119.73,-443.2 128.42,-437.14 122.75,-433.04"/>
<text xml:space="preserve" text-anchor="middle" x="143.1" y="-413.4" font-family="Times,serif" font-size="14.00">c</text>
</g>
<!-- n6 -->
<g id="node7" class="node">
<title>n6</title>
<ellipse fill="none" stroke="black" cx="158.37" cy="-284.4" rx="45.37" ry="18"/>
<text xml:space="preserve" text-anchor="middle" x="158.37" y="-280.2" font-family="Times,serif" font-size="14.00">MWG&#45;C</text>
</g>
<!-- n4&#45;&gt;n6 -->
<g id="edge11" class="edge">
<title>n4&#45;&gt;n6</title>
<path fill="none" stroke="black" d="M144.27,-355.5C139.4,-345.4 135.23,-332.23 138.37,-320.4 139.11,-317.62 140.12,-314.83 141.31,-312.1"/>
<polygon fill="black" stroke="black" points="144.32,-313.9 145.81,-303.41 138.1,-310.69 144.32,-313.9"/>
<text xml:space="preserve" text-anchor="middle" x="141.87" y="-324.6" font-family="Times,serif" font-size="14.00">g</text>
</g>
<!-- n5&#45;&gt;n3 -->
<g id="edge10" class="edge">
<title>n5&#45;&gt;n3</title>
<path fill="none" stroke="black" d="M48.57,-302.81C48.02,-314.56 47.3,-330.34 46.67,-343.88"/>
<polygon fill="black" stroke="black" points="43.19,-343.39 46.23,-353.54 50.19,-343.71 43.19,-343.39"/>
<text xml:space="preserve" text-anchor="middle" x="51.23" y="-324.6" font-family="Times,serif" font-size="14.00">g</text>
</g>
<!-- n7 -->
<g id="node8" class="node">
<title>n7</title>
<ellipse fill="none" stroke="black" cx="105.37" cy="-195.6" rx="45.37" ry="18"/>
<text xml:space="preserve" text-anchor="middle" x="105.37" y="-191.4" font-family="Times,serif" font-size="14.00">G&#45;MWC</text>
</g>
<!-- n5&#45;&gt;n7 -->
<g id="edge13" class="edge">
<title>n5&#45;&gt;n7</title>
<path fill="none" stroke="black" d="M51.28,-266C53.07,-255.4 56.53,-241.95 63.15,-231.6 66.08,-227.03 69.8,-222.76 73.8,-218.88"/>
<polygon fill="black" stroke="black" points="75.89,-221.7 81.14,-212.5 71.3,-216.42 75.89,-221.7"/>
<text xml:space="preserve" text-anchor="middle" x="66.26" y="-235.8" font-family="Times,serif" font-size="14.00">c</text>
</g>
<!-- n6&#45;&gt;n4 -->
<g id="edge12" class="edge">
<title>n6&#45;&gt;n4</title>
<path fill="none" stroke="black" d="M157.57,-302.81C157.02,-314.56 156.3,-330.34 155.67,-343.88"/>
<polygon fill="black" stroke="black" points="152.19,-343.39 155.23,-353.54 159.19,-343.71 152.19,-343.39"/>
<text xml:space="preserve" text-anchor="middle" x="160.23" y="-324.6" font-family="Times,serif" font-size="14.00">g</text>
</g>
<!-- n6&#45;&gt;n7 -->
<g id="edge15" class="edge">
<title>n6&#45;&gt;n7</title>
<path fill="none" stroke="black" d="M140.13,-267.56C134.47,-261.94 128.59,-255.3 124.26,-248.4 119.69,-241.13 116,-232.59 113.14,-224.57"/>
<polygon fill="black" stroke="black" points="116.52,-223.63 110.1,-215.2 109.86,-225.79 116.52,-223.63"/>
<text xml:space="preserve" text-anchor="middle" x="129.31" y="-235.8" font-family="Times,serif" font-size="14.00">w</text>
</g>
<!-- n7&#45;&gt;n5 -->
<g id="edge14" class="edge">
<title>n7&#45;&gt;n5</title>
<path fill="none" stroke="black" d="M94.6,-213.28C86.56,-225.76 75.4,-243.05 66.18,-257.35"/>
<polygon fill="black" stroke="black" points="63.47,-255.09 60.99,-265.39 69.35,-258.89 63.47,-255.09"/>
<text xml:space="preserve" text-anchor="middle" x="85.49" y="-235.8" font-family="Times,serif" font-size="14.00">c</text>
</g>
<!-- n7&#45;&gt;n6 -->
<g id="edge16" class="edge">
<title>n7&#45;&gt;n6</title>
<path fill="none" stroke="black" d="M120.46,-213.02C125.24,-218.67 130.33,-225.19 134.37,-231.6 139.17,-239.21 143.58,-247.93 147.28,-256.02"/>
<polygon fill="black" stroke="black" points="144.04,-257.34 151.24,-265.11 150.45,-254.55 144.04,-257.34"/>
<text xml:space="preserve" text-anchor="middle" x="148.54" y="-235.8" font-family="Times,serif" font-size="14.00">w</text>
</g>
<!-- n8 -->
<g id="node9" class="node">
<title>n8</title>
<ellipse fill="none" stroke="black" cx="105.37" cy="-106.8" rx="45.37" ry="18"/>
<text xml:space="preserve" text-anchor="middle" x="105.37" y="-102.6" font-family="Times,serif" font-size="14.00">MG&#45;WC</text>
</g>
<!-- n7&#45;&gt;n8 -->
<g id="edge17" class="edge">
<title>n7&#45;&gt;n8</title>
<path fill="none" stroke="black" d="M95.93,-177.66C93.3,-172.08 90.81,-165.73 89.48,-159.6 87.9,-152.3 87.9,-150.1 89.48,-142.8 90.02,-140.31 90.75,-137.78 91.6,-135.29"/>
<polygon fill="black" stroke="black" points="94.8,-136.72 95.35,-126.14 88.32,-134.07 94.8,-136.72"/>
<text xml:space="preserve" text-anchor="middle" x="94.92" y="-147" font-family="Times,serif" font-size="14.00">m</text>
</g>
<!-- n8&#45;&gt;n7 -->
<g id="edge18" class="edge">
<title>n8&#45;&gt;n7</title>
<path fill="none" stroke="black" d="M105.37,-125.21C105.37,-136.96 105.37,-152.74 105.37,-166.28"/>
<polygon fill="black" stroke="black" points="101.87,-165.94 105.37,-175.94 108.87,-165.94 101.87,-165.94"/>
<text xml:space="preserve" text-anchor="middle" x="110.81" y="-147" font-family="Times,serif" font-size="14.00">m</text>
</g>
<!-- n9 -->
<g id="node10" class="node">
<title>n9</title>
<ellipse fill="none" stroke="black" cx="105.37" cy="-18" rx="45.37" ry="18"/>
<text xml:space="preserve" text-anchor="middle" x="105.37" y="-13.8" font-family="Times,serif" font-size="14.00">&#45;MWGC</text>
</g>
<!-- n8&#45;&gt;n9 -->
<g id="edge19" class="edge">
<title>n8&#45;&gt;n9</title>
<path fill="none" stroke="black" d="M98.23,-88.65C96.24,-83.06 94.36,-76.76 93.37,-70.8 92.14,-63.43 92.14,-61.37 93.37,-54 93.76,-51.67 94.28,-49.29 94.89,-46.93"/>
<polygon fill="black" stroke="black" points="98.17,-48.19 97.78,-37.6 91.48,-46.12 98.17,-48.19"/>
<text xml:space="preserve" text-anchor="middle" x="96.87" y="-58.2" font-family="Times,serif" font-size="14.00">g</text>
</g>
<!-- n9&#45;&gt;n8 -->
<g id="edge20" class="edge">
<title>n9&#45;&gt;n8</title>
<path fill="none" stroke="black" d="M105.37,-36.41C105.37,-48.16 105.37,-63.94 105.37,-77.48"/>
<polygon fill="black" stroke="black" points="101.87,-77.14 105.37,-87.14 108.87,-77.14 101.87,-77.14"/>
<text xml:space="preserve" text-anchor="middle" x="108.87" y="-58.2" font-family="Times,serif" font-size="14.00">g</text>
</g>
</g>
</svg>
