<?xml version="1.0" encoding="UTF-8" standalone="no"?>
<!DOCTYPE svg PUBLIC "-//W3C//DTD SVG 1.1//EN"
 "http://www.w3.org/Graphics/SVG/1.1/DTD/svg11.dtd">
<!-- Generated by graphviz version a (a)
 -->
<!-- Title: PhiloDilemma Pages: 1 -->
<svg width="498pt" height="536pt"
 viewBox="0.00 0.00 498.00 536.00" xmlns="http://www.w3.org/2000/svg" xmlns:xlink="http://www.w3.org/1999/xlink">
<g id="graph0" class="graph" transform="scale(1 1) rotate(0) translate(4 531.52)">
<title>PhiloDilemma</title>
<polygon fill="white" stroke="none" points="-4,4 -4,-531.52 493.77,-531.52 493.77,4 -4,4"/>
<text xml:space="preserve" text-anchor="middle" x="244.88" y="-22" font-family="Helvetica,sans-Serif" font-size="12.00">PetriNet Model PhiloDilemma</text>
<text xml:space="preserve" text-anchor="middle" x="244.88" y="-7.6" font-family="Helvetica,sans-Serif" font-size="12.00">Extracted from ConceptBase and layed out by Graphviz </text>
<!-- bec3 -->
<g id="node1" class="node">
<title>bec3</title>
<polygon fill="none" stroke="black" points="322.18,-72.8 268.18,-72.8 268.18,-36.8 322.18,-36.8 322.18,-72.8"/>
<text xml:space="preserve" text-anchor="middle" x="295.18" y="-50.6" font-family="Helvetica,sans-Serif" font-size="14.00">bec3</text>
</g>
<!-- hu3 -->
<g id="node10" class="node">
<title>hu3</title>
<ellipse fill="none" stroke="black" cx="237.4" cy="-119.21" rx="32.4" ry="32.4"/>
<text xml:space="preserve" text-anchor="middle" x="237.4" y="-115.01" font-family="Helvetica,sans-Serif" font-size="14.00">hu3</text>
</g>
<!-- bec3&#45;&gt;hu3 -->
<g id="edge4" class="edge">
<title>bec3&#45;&gt;hu3</title>
<path fill="none" stroke="black" d="M278.78,-73.08C274.94,-77.36 270.74,-82.04 266.53,-86.73"/>
<polygon fill="black" stroke="black" points="264.11,-84.19 260.04,-93.97 269.32,-88.86 264.11,-84.19"/>
</g>
<!-- rel3 -->
<g id="node2" class="node">
<title>rel3</title>
<polygon fill="none" stroke="black" points="408.45,-185.96 354.45,-185.96 354.45,-149.96 408.45,-149.96 408.45,-185.96"/>
<text xml:space="preserve" text-anchor="middle" x="381.45" y="-163.76" font-family="Helvetica,sans-Serif" font-size="14.00">rel3</text>
</g>
<!-- th3 -->
<g id="node11" class="node">
<title>th3</title>
<ellipse fill="none" stroke="black" cx="378.01" cy="-83.6" rx="32.4" ry="32.4"/>
<text xml:space="preserve" text-anchor="middle" x="378.01" y="-79.4" font-family="Helvetica,sans-Serif" font-size="14.00">th3</text>
</g>
<!-- rel3&#45;&gt;th3 -->
<g id="edge6" class="edge">
<title>rel3&#45;&gt;th3</title>
<path fill="none" stroke="black" d="M380.71,-149.66C380.44,-143.08 380.12,-135.35 379.8,-127.54"/>
<polygon fill="black" stroke="black" points="383.3,-127.52 379.4,-117.67 376.31,-127.8 383.3,-127.52"/>
</g>
<!-- ri3 -->
<g id="node12" class="node">
<title>ri3</title>
<ellipse fill="none" stroke="black" cx="339.12" cy="-241.95" rx="32.4" ry="32.4"/>
<text xml:space="preserve" text-anchor="middle" x="339.12" y="-237.75" font-family="Helvetica,sans-Serif" font-size="14.00">ri3</text>
</g>
<!-- rel3&#45;&gt;ri3 -->
<g id="edge7" class="edge">
<title>rel3&#45;&gt;ri3</title>
<path fill="none" stroke="black" d="M370.99,-186.25C367.91,-191.64 364.41,-197.76 360.89,-203.91"/>
<polygon fill="black" stroke="black" points="358.08,-201.77 356.15,-212.19 364.15,-205.25 358.08,-201.77"/>
</g>
<!-- bec2 -->
<g id="node3" class="node">
<title>bec2</title>
<polygon fill="none" stroke="black" points="489.77,-456.41 435.77,-456.41 435.77,-420.41 489.77,-420.41 489.77,-456.41"/>
<text xml:space="preserve" text-anchor="middle" x="462.77" y="-434.21" font-family="Helvetica,sans-Serif" font-size="14.00">bec2</text>
</g>
<!-- hu2 -->
<g id="node14" class="node">
<title>hu2</title>
<ellipse fill="none" stroke="black" cx="437.36" cy="-355.37" rx="32.4" ry="32.4"/>
<text xml:space="preserve" text-anchor="middle" x="437.36" y="-351.17" font-family="Helvetica,sans-Serif" font-size="14.00">hu2</text>
</g>
<!-- bec2&#45;&gt;hu2 -->
<g id="edge13" class="edge">
<title>bec2&#45;&gt;hu2</title>
<path fill="none" stroke="black" d="M457.13,-419.98C455.1,-413.36 452.72,-405.58 450.33,-397.76"/>
<polygon fill="black" stroke="black" points="453.69,-396.79 447.42,-388.25 447,-398.83 453.69,-396.79"/>
</g>
<!-- rel2 -->
<g id="node4" class="node">
<title>rel2</title>
<polygon fill="none" stroke="black" points="349.4,-472.28 295.4,-472.28 295.4,-436.28 349.4,-436.28 349.4,-472.28"/>
<text xml:space="preserve" text-anchor="middle" x="322.4" y="-450.08" font-family="Helvetica,sans-Serif" font-size="14.00">rel2</text>
</g>
<!-- th2 -->
<g id="node15" class="node">
<title>th2</title>
<ellipse fill="none" stroke="black" cx="395.86" cy="-495.12" rx="32.4" ry="32.4"/>
<text xml:space="preserve" text-anchor="middle" x="395.86" y="-490.92" font-family="Helvetica,sans-Serif" font-size="14.00">th2</text>
</g>
<!-- rel2&#45;&gt;th2 -->
<g id="edge15" class="edge">
<title>rel2&#45;&gt;th2</title>
<path fill="none" stroke="black" d="M349.75,-469.48C352.25,-470.87 354.81,-472.3 357.38,-473.73"/>
<polygon fill="black" stroke="black" points="355.49,-476.68 365.93,-478.48 358.89,-470.56 355.49,-476.68"/>
</g>
<!-- ri2 -->
<g id="node16" class="node">
<title>ri2</title>
<ellipse fill="none" stroke="black" cx="280.12" cy="-380.6" rx="32.4" ry="32.4"/>
<text xml:space="preserve" text-anchor="middle" x="280.12" y="-376.4" font-family="Helvetica,sans-Serif" font-size="14.00">ri2</text>
</g>
<!-- rel2&#45;&gt;ri2 -->
<g id="edge16" class="edge">
<title>rel2&#45;&gt;ri2</title>
<path fill="none" stroke="black" d="M311.95,-436.06C308.87,-430.69 305.38,-424.61 301.86,-418.48"/>
<polygon fill="black" stroke="black" points="305.14,-417.17 297.13,-410.24 299.07,-420.65 305.14,-417.17"/>
</g>
<!-- acq2 -->
<g id="node5" class="node">
<title>acq2</title>
<polygon fill="none" stroke="black" points="380.56,-342.86 326.56,-342.86 326.56,-306.86 380.56,-306.86 380.56,-342.86"/>
<text xml:space="preserve" text-anchor="middle" x="353.56" y="-320.66" font-family="Helvetica,sans-Serif" font-size="14.00">acq2</text>
</g>
<!-- ea2 -->
<g id="node17" class="node">
<title>ea2</title>
<ellipse fill="none" stroke="black" cx="370.94" cy="-394.89" rx="32.4" ry="32.4"/>
<text xml:space="preserve" text-anchor="middle" x="370.94" y="-390.69" font-family="Helvetica,sans-Serif" font-size="14.00">ea2</text>
</g>
<!-- acq2&#45;&gt;ea2 -->
<g id="edge18" class="edge">
<title>acq2&#45;&gt;ea2</title>
<path fill="none" stroke="black" d="M358.12,-343.26C358.81,-346.01 359.53,-348.95 360.28,-351.96"/>
<polygon fill="black" stroke="black" points="356.87,-352.74 362.68,-361.6 363.66,-351.06 356.87,-352.74"/>
</g>
<!-- acq3 -->
<g id="node6" class="node">
<title>acq3</title>
<polygon fill="none" stroke="black" points="275.07,-230.15 221.07,-230.15 221.07,-194.15 275.07,-194.15 275.07,-230.15"/>
<text xml:space="preserve" text-anchor="middle" x="248.07" y="-207.95" font-family="Helvetica,sans-Serif" font-size="14.00">acq3</text>
</g>
<!-- ea3 -->
<g id="node13" class="node">
<title>ea3</title>
<ellipse fill="none" stroke="black" cx="308.5" cy="-152.38" rx="32.4" ry="32.4"/>
<text xml:space="preserve" text-anchor="middle" x="308.5" y="-148.18" font-family="Helvetica,sans-Serif" font-size="14.00">ea3</text>
</g>
<!-- acq3&#45;&gt;ea3 -->
<g id="edge9" class="edge">
<title>acq3&#45;&gt;ea3</title>
<path fill="none" stroke="black" d="M266.53,-193.89C269.98,-190.48 273.68,-186.82 277.39,-183.15"/>
<polygon fill="black" stroke="black" points="279.73,-185.76 284.38,-176.24 274.81,-180.78 279.73,-185.76"/>
</g>
<!-- bec1 -->
<g id="node7" class="node">
<title>bec1</title>
<polygon fill="none" stroke="black" points="74.49,-406.76 20.49,-406.76 20.49,-370.76 74.49,-370.76 74.49,-406.76"/>
<text xml:space="preserve" text-anchor="middle" x="47.49" y="-384.56" font-family="Helvetica,sans-Serif" font-size="14.00">bec1</text>
</g>
<!-- hu1 -->
<g id="node18" class="node">
<title>hu1</title>
<ellipse fill="none" stroke="black" cx="132.05" cy="-409.18" rx="32.4" ry="32.4"/>
<text xml:space="preserve" text-anchor="middle" x="132.05" y="-404.98" font-family="Helvetica,sans-Serif" font-size="14.00">hu1</text>
</g>
<!-- bec1&#45;&gt;hu1 -->
<g id="edge22" class="edge">
<title>bec1&#45;&gt;hu1</title>
<path fill="none" stroke="black" d="M74.71,-395.34C79.4,-396.47 84.37,-397.67 89.36,-398.87"/>
<polygon fill="black" stroke="black" points="88.15,-402.18 98.7,-401.13 89.8,-395.38 88.15,-402.18"/>
</g>
<!-- rel1 -->
<g id="node8" class="node">
<title>rel1</title>
<polygon fill="none" stroke="black" points="131.97,-278.33 77.97,-278.33 77.97,-242.33 131.97,-242.33 131.97,-278.33"/>
<text xml:space="preserve" text-anchor="middle" x="104.97" y="-256.13" font-family="Helvetica,sans-Serif" font-size="14.00">rel1</text>
</g>
<!-- th1 -->
<g id="node19" class="node">
<title>th1</title>
<ellipse fill="none" stroke="black" cx="32.4" cy="-302.41" rx="32.4" ry="32.4"/>
<text xml:space="preserve" text-anchor="middle" x="32.4" y="-298.21" font-family="Helvetica,sans-Serif" font-size="14.00">th1</text>
</g>
<!-- rel1&#45;&gt;th1 -->
<g id="edge24" class="edge">
<title>rel1&#45;&gt;th1</title>
<path fill="none" stroke="black" d="M77.54,-276.24C75.32,-277.53 73.05,-278.84 70.78,-280.16"/>
<polygon fill="black" stroke="black" points="69.05,-277.12 62.15,-285.16 72.56,-283.17 69.05,-277.12"/>
</g>
<!-- ri1 -->
<g id="node20" class="node">
<title>ri1</title>
<ellipse fill="none" stroke="black" cx="189.87" cy="-261.05" rx="32.4" ry="32.4"/>
<text xml:space="preserve" text-anchor="middle" x="189.87" y="-256.85" font-family="Helvetica,sans-Serif" font-size="14.00">ri1</text>
</g>
<!-- rel1&#45;&gt;ri1 -->
<g id="edge25" class="edge">
<title>rel1&#45;&gt;ri1</title>
<path fill="none" stroke="black" d="M132.3,-260.56C136.65,-260.6 141.24,-260.64 145.86,-260.68"/>
<polygon fill="black" stroke="black" points="145.71,-264.17 155.74,-260.76 145.77,-257.17 145.71,-264.17"/>
</g>
<!-- acq1 -->
<g id="node9" class="node">
<title>acq1</title>
<polygon fill="none" stroke="black" points="227.92,-370.44 173.92,-370.44 173.92,-334.44 227.92,-334.44 227.92,-370.44"/>
<text xml:space="preserve" text-anchor="middle" x="200.92" y="-348.24" font-family="Helvetica,sans-Serif" font-size="14.00">acq1</text>
</g>
<!-- ea1 -->
<g id="node21" class="node">
<title>ea1</title>
<ellipse fill="none" stroke="black" cx="131.67" cy="-332.34" rx="32.4" ry="32.4"/>
<text xml:space="preserve" text-anchor="middle" x="131.67" y="-328.14" font-family="Helvetica,sans-Serif" font-size="14.00">ea1</text>
</g>
<!-- acq1&#45;&gt;ea1 -->
<g id="edge27" class="edge">
<title>acq1&#45;&gt;ea1</title>
<path fill="none" stroke="black" d="M173.55,-344.5C173.44,-344.47 173.33,-344.43 173.22,-344.4"/>
<polygon fill="black" stroke="black" points="174.99,-341.27 164.41,-341.84 173.04,-347.99 174.99,-341.27"/>
</g>
<!-- hu3&#45;&gt;acq3 -->
<g id="edge3" class="edge">
<title>hu3&#45;&gt;acq3</title>
<path fill="none" stroke="black" d="M241.14,-151.71C242.29,-161.76 243.55,-172.77 244.68,-182.61"/>
<polygon fill="black" stroke="black" points="241.19,-182.84 245.8,-192.38 248.14,-182.04 241.19,-182.84"/>
</g>
<!-- th3&#45;&gt;bec3 -->
<g id="edge5" class="edge">
<title>th3&#45;&gt;bec3</title>
<path fill="none" stroke="black" d="M347.16,-72.87C342.61,-71.29 337.87,-69.64 333.2,-68.02"/>
<polygon fill="black" stroke="black" points="334.52,-64.77 323.93,-64.8 332.23,-71.39 334.52,-64.77"/>
</g>
<!-- ri3&#45;&gt;acq2 -->
<g id="edge1" class="edge">
<title>ri3&#45;&gt;acq2</title>
<path fill="none" stroke="black" d="M344.74,-274.24C345.95,-281.15 347.21,-288.41 348.39,-295.21"/>
<polygon fill="black" stroke="black" points="344.92,-295.68 350.09,-304.93 351.82,-294.48 344.92,-295.68"/>
</g>
<!-- ri3&#45;&gt;acq3 -->
<g id="edge2" class="edge">
<title>ri3&#45;&gt;acq3</title>
<path fill="none" stroke="black" d="M308.04,-231.78C301,-229.47 293.43,-227 286.14,-224.61"/>
<polygon fill="black" stroke="black" points="287.39,-221.33 276.8,-221.55 285.21,-227.99 287.39,-221.33"/>
</g>
<!-- ea3&#45;&gt;rel3 -->
<g id="edge8" class="edge">
<title>ea3&#45;&gt;rel3</title>
<path fill="none" stroke="black" d="M340.29,-159.17C341.15,-159.36 342.02,-159.54 342.89,-159.73"/>
<polygon fill="black" stroke="black" points="342.12,-163.14 352.63,-161.81 343.58,-156.3 342.12,-163.14"/>
</g>
<!-- hu2&#45;&gt;acq2 -->
<g id="edge12" class="edge">
<title>hu2&#45;&gt;acq2</title>
<path fill="none" stroke="black" d="M406.63,-344.18C401.77,-342.41 396.69,-340.56 391.69,-338.74"/>
<polygon fill="black" stroke="black" points="392.97,-335.48 382.38,-335.35 390.58,-342.06 392.97,-335.48"/>
</g>
<!-- th2&#45;&gt;bec2 -->
<g id="edge14" class="edge">
<title>th2&#45;&gt;bec2</title>
<path fill="none" stroke="black" d="M420.77,-474C424.64,-470.72 428.67,-467.31 432.64,-463.95"/>
<polygon fill="black" stroke="black" points="434.61,-466.86 439.98,-457.73 430.09,-461.52 434.61,-466.86"/>
</g>
<!-- ri2&#45;&gt;acq2 -->
<g id="edge11" class="edge">
<title>ri2&#45;&gt;acq2</title>
<path fill="none" stroke="black" d="M306.22,-360.79C310.84,-357.28 315.71,-353.59 320.49,-349.95"/>
<polygon fill="black" stroke="black" points="322.45,-352.86 328.3,-344.03 318.22,-347.29 322.45,-352.86"/>
</g>
<!-- ri2&#45;&gt;acq1 -->
<g id="edge10" class="edge">
<title>ri2&#45;&gt;acq1</title>
<path fill="none" stroke="black" d="M249.27,-369.63C245.91,-368.43 242.45,-367.21 239.01,-365.98"/>
<polygon fill="black" stroke="black" points="240.22,-362.7 229.63,-362.65 237.88,-369.3 240.22,-362.7"/>
</g>
<!-- ea2&#45;&gt;rel2 -->
<g id="edge17" class="edge">
<title>ea2&#45;&gt;rel2</title>
<path fill="none" stroke="black" d="M350.35,-420.08C348.45,-422.4 346.52,-424.76 344.61,-427.1"/>
<polygon fill="black" stroke="black" points="341.99,-424.77 338.38,-434.73 347.41,-429.2 341.99,-424.77"/>
</g>
<!-- hu1&#45;&gt;acq1 -->
<g id="edge21" class="edge">
<title>hu1&#45;&gt;acq1</title>
<path fill="none" stroke="black" d="M157.31,-388.38C161.5,-384.92 165.89,-381.3 170.2,-377.75"/>
<polygon fill="black" stroke="black" points="172.19,-380.65 177.68,-371.59 167.74,-375.24 172.19,-380.65"/>
</g>
<!-- th1&#45;&gt;bec1 -->
<g id="edge23" class="edge">
<title>th1&#45;&gt;bec1</title>
<path fill="none" stroke="black" d="M38.02,-334.56C39.42,-342.59 40.92,-351.16 42.3,-359.06"/>
<polygon fill="black" stroke="black" points="38.85,-359.64 44.02,-368.89 45.74,-358.43 38.85,-359.64"/>
</g>
<!-- ri1&#45;&gt;acq3 -->
<g id="edge19" class="edge">
<title>ri1&#45;&gt;acq3</title>
<path fill="none" stroke="black" d="M214.89,-240.03C215.85,-239.22 216.81,-238.42 217.77,-237.61"/>
<polygon fill="black" stroke="black" points="219.81,-240.47 225.21,-231.36 215.3,-235.11 219.81,-240.47"/>
</g>
<!-- ri1&#45;&gt;acq1 -->
<g id="edge20" class="edge">
<title>ri1&#45;&gt;acq1</title>
<path fill="none" stroke="black" d="M193.8,-293.53C194.96,-303.12 196.22,-313.57 197.36,-322.96"/>
<polygon fill="black" stroke="black" points="193.85,-323.15 198.53,-332.66 200.8,-322.31 193.85,-323.15"/>
</g>
<!-- ea1&#45;&gt;rel1 -->
<g id="edge26" class="edge">
<title>ea1&#45;&gt;rel1</title>
<path fill="none" stroke="black" d="M120.35,-301.8C118.81,-297.65 117.23,-293.39 115.7,-289.27"/>
<polygon fill="black" stroke="black" points="119.11,-288.39 112.35,-280.23 112.55,-290.82 119.11,-288.39"/>
</g>
</g>
</svg>
