<?xml version="1.0" encoding="UTF-8" standalone="no"?>
<!DOCTYPE svg PUBLIC "-//W3C//DTD SVG 1.1//EN"
 "http://www.w3.org/Graphics/SVG/1.1/DTD/svg11.dtd">
<!-- Generated by graphviz version a (a)
 -->
<!-- Title: test Pages: 1 -->
<svg width="504pt" height="683pt"
 viewBox="0.00 0.00 504.00 683.00" xmlns="http://www.w3.org/2000/svg" xmlns:xlink="http://www.w3.org/1999/xlink">
<g id="graph0" class="graph" transform="scale(0.489671 0.489671) rotate(0) translate(4 1390)">
<title>test</title>
<polygon fill="white" stroke="none" points="-4,4 -4,-1390 1025.26,-1390 1025.26,4 -4,4"/>
<!-- A -->
<g id="node1" class="node">
<title>A</title>
<polygon fill="none" stroke="black" points="965.26,-1373.56 938.26,-1386 911.26,-1373.56 911.29,-1353.44 965.24,-1353.44 965.26,-1373.56"/>
<text xml:space="preserve" text-anchor="middle" x="938.26" y="-1363.8" font-family="Times,serif" font-size="14.00">A</text>
</g>
<!-- C -->
<g id="node2" class="node">
<title>C</title>
<polygon fill="none" stroke="black" points="965.26,-1319.56 938.26,-1332 911.26,-1319.56 911.29,-1299.44 965.24,-1299.44 965.26,-1319.56"/>
<text xml:space="preserve" text-anchor="middle" x="938.26" y="-1309.8" font-family="Times,serif" font-size="14.00">C</text>
</g>
<!-- E -->
<g id="node3" class="node">
<title>E</title>
<polygon fill="none" stroke="black" points="965.26,-1265.56 938.26,-1278 911.26,-1265.56 911.29,-1245.44 965.24,-1245.44 965.26,-1265.56"/>
<text xml:space="preserve" text-anchor="middle" x="938.26" y="-1255.8" font-family="Times,serif" font-size="14.00">E</text>
</g>
<!-- G -->
<g id="node4" class="node">
<title>G</title>
<polygon fill="none" stroke="black" points="965.26,-1211.56 938.26,-1224 911.26,-1211.56 911.29,-1191.44 965.24,-1191.44 965.26,-1211.56"/>
<text xml:space="preserve" text-anchor="middle" x="938.26" y="-1201.8" font-family="Times,serif" font-size="14.00">G</text>
</g>
<!-- I -->
<g id="node5" class="node">
<title>I</title>
<polygon fill="none" stroke="black" points="965.26,-1157.56 938.26,-1170 911.26,-1157.56 911.29,-1137.44 965.24,-1137.44 965.26,-1157.56"/>
<text xml:space="preserve" text-anchor="middle" x="938.26" y="-1147.8" font-family="Times,serif" font-size="14.00">I</text>
</g>
<!-- K -->
<g id="node6" class="node">
<title>K</title>
<polygon fill="none" stroke="black" points="965.26,-1103.56 938.26,-1116 911.26,-1103.56 911.29,-1083.44 965.24,-1083.44 965.26,-1103.56"/>
<text xml:space="preserve" text-anchor="middle" x="938.26" y="-1093.8" font-family="Times,serif" font-size="14.00">K</text>
</g>
<!-- M -->
<g id="node7" class="node">
<title>M</title>
<polygon fill="none" stroke="black" points="965.26,-1049.56 938.26,-1062 911.26,-1049.56 911.29,-1029.44 965.24,-1029.44 965.26,-1049.56"/>
<text xml:space="preserve" text-anchor="middle" x="938.26" y="-1039.8" font-family="Times,serif" font-size="14.00">M</text>
</g>
<!-- O -->
<g id="node8" class="node">
<title>O</title>
<polygon fill="none" stroke="black" points="965.26,-995.56 938.26,-1008 911.26,-995.56 911.29,-975.44 965.24,-975.44 965.26,-995.56"/>
<text xml:space="preserve" text-anchor="middle" x="938.26" y="-985.8" font-family="Times,serif" font-size="14.00">O</text>
</g>
<!-- Q -->
<g id="node9" class="node">
<title>Q</title>
<polygon fill="none" stroke="black" points="965.26,-941.56 938.26,-954 911.26,-941.56 911.29,-921.44 965.24,-921.44 965.26,-941.56"/>
<text xml:space="preserve" text-anchor="middle" x="938.26" y="-931.8" font-family="Times,serif" font-size="14.00">Q</text>
</g>
<!-- S -->
<g id="node10" class="node">
<title>S</title>
<polygon fill="none" stroke="black" points="965.26,-887.56 938.26,-900 911.26,-887.56 911.29,-867.44 965.24,-867.44 965.26,-887.56"/>
<text xml:space="preserve" text-anchor="middle" x="938.26" y="-877.8" font-family="Times,serif" font-size="14.00">S</text>
</g>
<!-- U -->
<g id="node11" class="node">
<title>U</title>
<polygon fill="none" stroke="black" points="965.26,-833.56 938.26,-846 911.26,-833.56 911.29,-813.44 965.24,-813.44 965.26,-833.56"/>
<text xml:space="preserve" text-anchor="middle" x="938.26" y="-823.8" font-family="Times,serif" font-size="14.00">U</text>
</g>
<!-- W -->
<g id="node12" class="node">
<title>W</title>
<polygon fill="none" stroke="black" points="965.26,-779.56 938.26,-792 911.26,-779.56 911.29,-759.44 965.24,-759.44 965.26,-779.56"/>
<text xml:space="preserve" text-anchor="middle" x="938.26" y="-769.8" font-family="Times,serif" font-size="14.00">W</text>
</g>
<!-- Y -->
<g id="node13" class="node">
<title>Y</title>
<polygon fill="none" stroke="black" points="965.26,-725.56 938.26,-738 911.26,-725.56 911.29,-705.44 965.24,-705.44 965.26,-725.56"/>
<text xml:space="preserve" text-anchor="middle" x="938.26" y="-715.8" font-family="Times,serif" font-size="14.00">Y</text>
</g>
<!-- B -->
<g id="node14" class="node">
<title>B</title>
<polygon fill="none" stroke="black" points="911.26,-660.44 938.26,-648 965.26,-660.44 965.24,-680.56 911.29,-680.56 911.26,-660.44"/>
<text xml:space="preserve" text-anchor="middle" x="938.26" y="-661.8" font-family="Times,serif" font-size="14.00">B</text>
</g>
<!-- D -->
<g id="node15" class="node">
<title>D</title>
<polygon fill="none" stroke="black" points="911.26,-606.44 938.26,-594 965.26,-606.44 965.24,-626.56 911.29,-626.56 911.26,-606.44"/>
<text xml:space="preserve" text-anchor="middle" x="938.26" y="-607.8" font-family="Times,serif" font-size="14.00">D</text>
</g>
<!-- F -->
<g id="node16" class="node">
<title>F</title>
<polygon fill="none" stroke="black" points="911.26,-552.44 938.26,-540 965.26,-552.44 965.24,-572.56 911.29,-572.56 911.26,-552.44"/>
<text xml:space="preserve" text-anchor="middle" x="938.26" y="-553.8" font-family="Times,serif" font-size="14.00">F</text>
</g>
<!-- H -->
<g id="node17" class="node">
<title>H</title>
<polygon fill="none" stroke="black" points="911.26,-498.44 938.26,-486 965.26,-498.44 965.24,-518.56 911.29,-518.56 911.26,-498.44"/>
<text xml:space="preserve" text-anchor="middle" x="938.26" y="-499.8" font-family="Times,serif" font-size="14.00">H</text>
</g>
<!-- J -->
<g id="node18" class="node">
<title>J</title>
<polygon fill="none" stroke="black" points="911.26,-444.44 938.26,-432 965.26,-444.44 965.24,-464.56 911.29,-464.56 911.26,-444.44"/>
<text xml:space="preserve" text-anchor="middle" x="938.26" y="-445.8" font-family="Times,serif" font-size="14.00">J</text>
</g>
<!-- L -->
<g id="node19" class="node">
<title>L</title>
<polygon fill="none" stroke="black" points="911.26,-390.44 938.26,-378 965.26,-390.44 965.24,-410.56 911.29,-410.56 911.26,-390.44"/>
<text xml:space="preserve" text-anchor="middle" x="938.26" y="-391.8" font-family="Times,serif" font-size="14.00">L</text>
</g>
<!-- N -->
<g id="node20" class="node">
<title>N</title>
<polygon fill="none" stroke="black" points="911.26,-336.44 938.26,-324 965.26,-336.44 965.24,-356.56 911.29,-356.56 911.26,-336.44"/>
<text xml:space="preserve" text-anchor="middle" x="938.26" y="-337.8" font-family="Times,serif" font-size="14.00">N</text>
</g>
<!-- P -->
<g id="node21" class="node">
<title>P</title>
<polygon fill="none" stroke="black" points="911.26,-282.44 938.26,-270 965.26,-282.44 965.24,-302.56 911.29,-302.56 911.26,-282.44"/>
<text xml:space="preserve" text-anchor="middle" x="938.26" y="-283.8" font-family="Times,serif" font-size="14.00">P</text>
</g>
<!-- R -->
<g id="node22" class="node">
<title>R</title>
<polygon fill="none" stroke="black" points="911.26,-228.44 938.26,-216 965.26,-228.44 965.24,-248.56 911.29,-248.56 911.26,-228.44"/>
<text xml:space="preserve" text-anchor="middle" x="938.26" y="-229.8" font-family="Times,serif" font-size="14.00">R</text>
</g>
<!-- T -->
<g id="node23" class="node">
<title>T</title>
<polygon fill="none" stroke="black" points="911.26,-174.44 938.26,-162 965.26,-174.44 965.24,-194.56 911.29,-194.56 911.26,-174.44"/>
<text xml:space="preserve" text-anchor="middle" x="938.26" y="-175.8" font-family="Times,serif" font-size="14.00">T</text>
</g>
<!-- V -->
<g id="node24" class="node">
<title>V</title>
<polygon fill="none" stroke="black" points="911.26,-120.44 938.26,-108 965.26,-120.44 965.24,-140.56 911.29,-140.56 911.26,-120.44"/>
<text xml:space="preserve" text-anchor="middle" x="938.26" y="-121.8" font-family="Times,serif" font-size="14.00">V</text>
</g>
<!-- X -->
<g id="node25" class="node">
<title>X</title>
<polygon fill="none" stroke="black" points="911.26,-66.44 938.26,-54 965.26,-66.44 965.24,-86.56 911.29,-86.56 911.26,-66.44"/>
<text xml:space="preserve" text-anchor="middle" x="938.26" y="-67.8" font-family="Times,serif" font-size="14.00">X</text>
</g>
<!-- Z -->
<g id="node26" class="node">
<title>Z</title>
<polygon fill="none" stroke="black" points="911.26,-12.44 938.26,0 965.26,-12.44 965.24,-32.56 911.29,-32.56 911.26,-12.44"/>
<text xml:space="preserve" text-anchor="middle" x="938.26" y="-13.8" font-family="Times,serif" font-size="14.00">Z</text>
</g>
<!-- Trapezium -->
<g id="node27" class="node">
<title>Trapezium</title>
<polygon fill="none" stroke="black" points="556.92,-711 469.6,-711 438.51,-675 588.02,-675 556.92,-711"/>
<text xml:space="preserve" text-anchor="middle" x="513.26" y="-688.8" font-family="Times,serif" font-size="14.00">Trapezium</text>
</g>
<!-- Trapezium&#45;&gt;A -->
<g id="edge1" class="edge">
<title>Trapezium&#45;&gt;A</title>
<path fill="none" stroke="black" d="M523.66,-711.45C564.38,-790.71 731.72,-1108.75 911.26,-1341 912.26,-1342.29 913.31,-1343.58 914.39,-1344.87"/>
<polygon fill="black" stroke="black" points="911.5,-1346.89 920.8,-1351.98 916.7,-1342.21 911.5,-1346.89"/>
</g>
<!-- Trapezium&#45;&gt;C -->
<g id="edge3" class="edge">
<title>Trapezium&#45;&gt;C</title>
<path fill="none" stroke="black" d="M524.86,-711.3C568.39,-785.93 739.36,-1073.48 911.26,-1287 912.28,-1288.27 913.35,-1289.54 914.45,-1290.82"/>
<polygon fill="black" stroke="black" points="911.58,-1292.86 920.9,-1297.89 916.75,-1288.15 911.58,-1292.86"/>
</g>
<!-- Trapezium&#45;&gt;E -->
<g id="edge5" class="edge">
<title>Trapezium&#45;&gt;E</title>
<path fill="none" stroke="black" d="M526.45,-711.37C573.26,-781.49 747.05,-1038.14 911.26,-1233 912.34,-1234.28 913.46,-1235.57 914.6,-1236.86"/>
<polygon fill="black" stroke="black" points="911.93,-1239.12 921.29,-1244.08 917.07,-1234.37 911.93,-1239.12"/>
</g>
<!-- Trapezium&#45;&gt;G -->
<g id="edge7" class="edge">
<title>Trapezium&#45;&gt;G</title>
<path fill="none" stroke="black" d="M528.17,-711.09C578.2,-775.92 754.36,-1002.16 911.26,-1179 912.37,-1180.25 913.52,-1181.52 914.68,-1182.79"/>
<polygon fill="black" stroke="black" points="912.03,-1185.08 921.43,-1189.97 917.13,-1180.28 912.03,-1185.08"/>
</g>
<!-- Trapezium&#45;&gt;I -->
<g id="edge9" class="edge">
<title>Trapezium&#45;&gt;I</title>
<path fill="none" stroke="black" d="M530.75,-711.25C584.83,-771.03 761.9,-966.23 911.26,-1125 912.55,-1126.37 913.88,-1127.77 915.22,-1129.18"/>
<polygon fill="black" stroke="black" points="912.41,-1131.31 921.85,-1136.11 917.46,-1126.47 912.41,-1131.31"/>
</g>
<!-- Trapezium&#45;&gt;K -->
<g id="edge11" class="edge">
<title>Trapezium&#45;&gt;K</title>
<path fill="none" stroke="black" d="M533.54,-711.45C602.64,-777.61 837.83,-1002.8 913.56,-1075.31"/>
<polygon fill="black" stroke="black" points="910.85,-1077.56 920.49,-1081.95 915.69,-1072.5 910.85,-1077.56"/>
</g>
<!-- Trapezium&#45;&gt;M -->
<g id="edge13" class="edge">
<title>Trapezium&#45;&gt;M</title>
<path fill="none" stroke="black" d="M536.41,-711.38C607.96,-770.75 832.76,-957.28 910.5,-1021.79"/>
<polygon fill="black" stroke="black" points="908.13,-1024.38 918.06,-1028.07 912.6,-1018.99 908.13,-1024.38"/>
</g>
<!-- Trapezium&#45;&gt;O -->
<g id="edge15" class="edge">
<title>Trapezium&#45;&gt;O</title>
<path fill="none" stroke="black" d="M540.4,-711.35C614.83,-763.61 827.61,-913.01 906.95,-968.72"/>
<polygon fill="black" stroke="black" points="904.51,-971.28 914.71,-974.16 908.53,-965.55 904.51,-971.28"/>
</g>
<!-- Trapezium&#45;&gt;Q -->
<g id="edge17" class="edge">
<title>Trapezium&#45;&gt;Q</title>
<path fill="none" stroke="black" d="M546.4,-711.46C623.87,-755.97 820.48,-868.91 901.51,-915.46"/>
<polygon fill="black" stroke="black" points="899.53,-918.36 909.94,-920.31 903.02,-912.29 899.53,-918.36"/>
</g>
<!-- Trapezium&#45;&gt;S -->
<g id="edge19" class="edge">
<title>Trapezium&#45;&gt;S</title>
<path fill="none" stroke="black" d="M555.59,-711.47C638.09,-748.33 821.99,-830.49 900.54,-865.59"/>
<polygon fill="black" stroke="black" points="898.96,-868.72 909.52,-869.61 901.82,-862.33 898.96,-868.72"/>
</g>
<!-- Trapezium&#45;&gt;U -->
<g id="edge21" class="edge">
<title>Trapezium&#45;&gt;U</title>
<path fill="none" stroke="black" d="M560.34,-707.7C644.83,-734.67 822.97,-791.52 900.22,-816.18"/>
<polygon fill="black" stroke="black" points="898.83,-819.41 909.42,-819.11 900.96,-812.74 898.83,-819.41"/>
</g>
<!-- Trapezium&#45;&gt;W -->
<g id="edge23" class="edge">
<title>Trapezium&#45;&gt;W</title>
<path fill="none" stroke="black" d="M564.45,-702.61C650.42,-719.07 823.93,-752.3 900.05,-766.87"/>
<polygon fill="black" stroke="black" points="899.01,-770.24 909.49,-768.68 900.33,-763.36 899.01,-770.24"/>
</g>
<!-- Trapezium&#45;&gt;Y -->
<g id="edge25" class="edge">
<title>Trapezium&#45;&gt;Y</title>
<path fill="none" stroke="black" d="M570,-696.56C657.52,-702.14 824.9,-712.83 899.62,-717.6"/>
<polygon fill="black" stroke="black" points="899.08,-721.07 909.28,-718.21 899.52,-714.08 899.08,-721.07"/>
</g>
<!-- Trapezium&#45;&gt;B -->
<g id="edge2" class="edge">
<title>Trapezium&#45;&gt;B</title>
<path fill="none" stroke="black" d="M576.22,-689.05C665.35,-683.36 827,-673.04 899.87,-668.39"/>
<polygon fill="black" stroke="black" points="899.92,-671.89 909.68,-667.76 899.47,-664.91 899.92,-671.89"/>
</g>
<!-- Trapezium&#45;&gt;D -->
<g id="edge4" class="edge">
<title>Trapezium&#45;&gt;D</title>
<path fill="none" stroke="black" d="M584.59,-679.53C675.16,-662.19 829.3,-632.67 899.92,-619.15"/>
<polygon fill="black" stroke="black" points="900.26,-622.65 909.43,-617.33 898.95,-615.77 900.26,-622.65"/>
</g>
<!-- Trapezium&#45;&gt;F -->
<g id="edge6" class="edge">
<title>Trapezium&#45;&gt;F</title>
<path fill="none" stroke="black" d="M572.19,-674.51C660.65,-646.28 826.86,-593.24 900.52,-569.73"/>
<polygon fill="black" stroke="black" points="901.2,-573.18 909.66,-566.81 899.07,-566.51 901.2,-573.18"/>
</g>
<!-- Trapezium&#45;&gt;H -->
<g id="edge8" class="edge">
<title>Trapezium&#45;&gt;H</title>
<path fill="none" stroke="black" d="M555.59,-674.53C638.09,-637.67 821.99,-555.51 900.54,-520.41"/>
<polygon fill="black" stroke="black" points="901.82,-523.67 909.52,-516.39 898.96,-517.28 901.82,-523.67"/>
</g>
<!-- Trapezium&#45;&gt;J -->
<g id="edge10" class="edge">
<title>Trapezium&#45;&gt;J</title>
<path fill="none" stroke="black" d="M546.4,-674.54C623.87,-630.03 820.48,-517.09 901.51,-470.54"/>
<polygon fill="black" stroke="black" points="903.02,-473.71 909.94,-465.69 899.53,-467.64 903.02,-473.71"/>
</g>
<!-- Trapezium&#45;&gt;L -->
<g id="edge12" class="edge">
<title>Trapezium&#45;&gt;L</title>
<path fill="none" stroke="black" d="M540.4,-674.65C614.83,-622.39 827.61,-472.99 906.95,-417.28"/>
<polygon fill="black" stroke="black" points="908.53,-420.45 914.71,-411.84 904.51,-414.72 908.53,-420.45"/>
</g>
<!-- Trapezium&#45;&gt;N -->
<g id="edge14" class="edge">
<title>Trapezium&#45;&gt;N</title>
<path fill="none" stroke="black" d="M536.41,-674.62C607.96,-615.25 832.76,-428.72 910.5,-364.21"/>
<polygon fill="black" stroke="black" points="912.6,-367.01 918.06,-357.93 908.13,-361.62 912.6,-367.01"/>
</g>
<!-- Trapezium&#45;&gt;P -->
<g id="edge16" class="edge">
<title>Trapezium&#45;&gt;P</title>
<path fill="none" stroke="black" d="M533.54,-674.55C602.64,-608.39 837.83,-383.2 913.56,-310.69"/>
<polygon fill="black" stroke="black" points="915.69,-313.5 920.49,-304.05 910.85,-308.44 915.69,-313.5"/>
</g>
<!-- Trapezium&#45;&gt;R -->
<g id="edge18" class="edge">
<title>Trapezium&#45;&gt;R</title>
<path fill="none" stroke="black" d="M530.75,-674.75C584.83,-614.97 761.9,-419.77 911.26,-261 912.55,-259.63 913.88,-258.23 915.22,-256.82"/>
<polygon fill="black" stroke="black" points="917.46,-259.53 921.85,-249.89 912.41,-254.69 917.46,-259.53"/>
</g>
<!-- Trapezium&#45;&gt;T -->
<g id="edge20" class="edge">
<title>Trapezium&#45;&gt;T</title>
<path fill="none" stroke="black" d="M528.17,-674.91C578.2,-610.08 754.36,-383.84 911.26,-207 912.37,-205.75 913.52,-204.48 914.68,-203.21"/>
<polygon fill="black" stroke="black" points="917.13,-205.72 921.43,-196.03 912.03,-200.92 917.13,-205.72"/>
</g>
<!-- Trapezium&#45;&gt;V -->
<g id="edge22" class="edge">
<title>Trapezium&#45;&gt;V</title>
<path fill="none" stroke="black" d="M526.45,-674.63C573.26,-604.51 747.05,-347.86 911.26,-153 912.34,-151.72 913.46,-150.43 914.6,-149.14"/>
<polygon fill="black" stroke="black" points="917.07,-151.63 921.29,-141.92 911.93,-146.88 917.07,-151.63"/>
</g>
<!-- Trapezium&#45;&gt;X -->
<g id="edge24" class="edge">
<title>Trapezium&#45;&gt;X</title>
<path fill="none" stroke="black" d="M524.86,-674.7C568.39,-600.07 739.36,-312.52 911.26,-99 912.28,-97.73 913.35,-96.46 914.45,-95.18"/>
<polygon fill="black" stroke="black" points="916.75,-97.85 920.9,-88.11 911.58,-93.14 916.75,-97.85"/>
</g>
<!-- Trapezium&#45;&gt;Z -->
<g id="edge26" class="edge">
<title>Trapezium&#45;&gt;Z</title>
<path fill="none" stroke="black" d="M523.66,-674.55C564.38,-595.29 731.72,-277.25 911.26,-45 912.26,-43.71 913.31,-42.42 914.39,-41.13"/>
<polygon fill="black" stroke="black" points="916.7,-43.79 920.8,-34.02 911.5,-39.11 916.7,-43.79"/>
</g>
<!-- a -->
<g id="node28" class="node">
<title>a</title>
<polygon fill="none" stroke="black" points="114.26,-1386 69.73,-1386 58.27,-1350 102.8,-1350 114.26,-1386"/>
<text xml:space="preserve" text-anchor="middle" x="86.26" y="-1363.8" font-family="Times,serif" font-size="14.00">a</text>
</g>
<!-- a&#45;&gt;Trapezium -->
<g id="edge27" class="edge">
<title>a&#45;&gt;Trapezium</title>
<path fill="none" stroke="black" d="M103.9,-1352.59C107.49,-1348.94 111.14,-1344.95 114.26,-1341 289.49,-1118.92 450.21,-814.65 497.95,-721.34"/>
<polygon fill="black" stroke="black" points="500.97,-723.12 502.4,-712.62 494.74,-719.94 500.97,-723.12"/>
</g>
<!-- b -->
<g id="node29" class="node">
<title>b</title>
<polygon fill="none" stroke="black" points="114.26,-1332 69.73,-1332 58.27,-1296 102.8,-1296 114.26,-1332"/>
<text xml:space="preserve" text-anchor="middle" x="86.26" y="-1309.8" font-family="Times,serif" font-size="14.00">b</text>
</g>
<!-- b&#45;&gt;Trapezium -->
<g id="edge28" class="edge">
<title>b&#45;&gt;Trapezium</title>
<path fill="none" stroke="black" d="M103.79,-1298.5C107.38,-1294.85 111.06,-1290.89 114.26,-1287 281.61,-1083.31 445.2,-808.8 496.1,-721.13"/>
<polygon fill="black" stroke="black" points="499.01,-723.11 500.99,-712.7 492.95,-719.6 499.01,-723.11"/>
</g>
<!-- c -->
<g id="node30" class="node">
<title>c</title>
<polygon fill="none" stroke="black" points="114.26,-1278 69.73,-1278 58.27,-1242 102.8,-1242 114.26,-1278"/>
<text xml:space="preserve" text-anchor="middle" x="86.26" y="-1255.8" font-family="Times,serif" font-size="14.00">c</text>
</g>
<!-- c&#45;&gt;Trapezium -->
<g id="edge29" class="edge">
<title>c&#45;&gt;Trapezium</title>
<path fill="none" stroke="black" d="M103.94,-1244.1C107.45,-1240.54 111.06,-1236.72 114.26,-1233 273.73,-1047.54 439.41,-802.94 493.79,-721.06"/>
<polygon fill="black" stroke="black" points="496.71,-722.99 499.31,-712.72 490.87,-719.13 496.71,-722.99"/>
</g>
<!-- d -->
<g id="node31" class="node">
<title>d</title>
<polygon fill="none" stroke="black" points="114.26,-1224 69.73,-1224 58.27,-1188 102.8,-1188 114.26,-1224"/>
<text xml:space="preserve" text-anchor="middle" x="86.26" y="-1201.8" font-family="Times,serif" font-size="14.00">d</text>
</g>
<!-- d&#45;&gt;Trapezium -->
<g id="edge30" class="edge">
<title>d&#45;&gt;Trapezium</title>
<path fill="none" stroke="black" d="M103.8,-1189.98C107.32,-1186.43 110.96,-1182.64 114.26,-1179 266.57,-1010.75 434.25,-794.89 491.67,-720.01"/>
<polygon fill="black" stroke="black" points="494.2,-722.46 497.5,-712.39 488.65,-718.2 494.2,-722.46"/>
</g>
<!-- e -->
<g id="node32" class="node">
<title>e</title>
<polygon fill="none" stroke="black" points="114.26,-1170 69.73,-1170 58.27,-1134 102.8,-1134 114.26,-1170"/>
<text xml:space="preserve" text-anchor="middle" x="86.26" y="-1147.8" font-family="Times,serif" font-size="14.00">e</text>
</g>
<!-- e&#45;&gt;Trapezium -->
<g id="edge31" class="edge">
<title>e&#45;&gt;Trapezium</title>
<path fill="none" stroke="black" d="M103.64,-1135.83C107.17,-1132.29 110.86,-1128.54 114.26,-1125 258.88,-974.31 426.83,-788.24 488.23,-719.84"/>
<polygon fill="black" stroke="black" points="490.76,-722.26 494.83,-712.48 485.55,-717.59 490.76,-722.26"/>
</g>
<!-- f -->
<g id="node33" class="node">
<title>f</title>
<polygon fill="none" stroke="black" points="114.26,-1116 69.73,-1116 58.27,-1080 102.8,-1080 114.26,-1116"/>
<text xml:space="preserve" text-anchor="middle" x="86.26" y="-1093.8" font-family="Times,serif" font-size="14.00">f</text>
</g>
<!-- f&#45;&gt;Trapezium -->
<g id="edge32" class="edge">
<title>f&#45;&gt;Trapezium</title>
<path fill="none" stroke="black" d="M103.92,-1082.12C168.63,-1020.46 403.69,-796.47 484.64,-719.32"/>
<polygon fill="black" stroke="black" points="486.94,-721.97 491.77,-712.53 482.11,-716.9 486.94,-721.97"/>
</g>
<!-- g -->
<g id="node34" class="node">
<title>g</title>
<polygon fill="none" stroke="black" points="114.26,-1062 69.73,-1062 58.27,-1026 102.8,-1026 114.26,-1062"/>
<text xml:space="preserve" text-anchor="middle" x="86.26" y="-1039.8" font-family="Times,serif" font-size="14.00">g</text>
</g>
<!-- g&#45;&gt;Trapezium -->
<g id="edge33" class="edge">
<title>g&#45;&gt;Trapezium</title>
<path fill="none" stroke="black" d="M104.45,-1029.81C168.96,-976.53 397.27,-787.97 481.1,-718.74"/>
<polygon fill="black" stroke="black" points="483.25,-721.5 488.73,-712.44 478.79,-716.1 483.25,-721.5"/>
</g>
<!-- h -->
<g id="node35" class="node">
<title>h</title>
<polygon fill="none" stroke="black" points="114.26,-1008 69.73,-1008 58.27,-972 102.8,-972 114.26,-1008"/>
<text xml:space="preserve" text-anchor="middle" x="86.26" y="-985.8" font-family="Times,serif" font-size="14.00">h</text>
</g>
<!-- h&#45;&gt;Trapezium -->
<g id="edge34" class="edge">
<title>h&#45;&gt;Trapezium</title>
<path fill="none" stroke="black" d="M104.98,-977.62C169.11,-932.8 389.86,-778.54 476.74,-717.83"/>
<polygon fill="black" stroke="black" points="478.49,-720.87 484.69,-712.27 474.49,-715.13 478.49,-720.87"/>
</g>
<!-- i -->
<g id="node36" class="node">
<title>i</title>
<polygon fill="none" stroke="black" points="114.26,-954 69.73,-954 58.27,-918 102.8,-918 114.26,-954"/>
<text xml:space="preserve" text-anchor="middle" x="86.26" y="-931.8" font-family="Times,serif" font-size="14.00">i</text>
</g>
<!-- i&#45;&gt;Trapezium -->
<g id="edge35" class="edge">
<title>i&#45;&gt;Trapezium</title>
<path fill="none" stroke="black" d="M105.52,-925.56C168.78,-889.39 379.63,-768.84 470.26,-717.02"/>
<polygon fill="black" stroke="black" points="471.93,-720.09 478.87,-712.09 468.46,-714.02 471.93,-720.09"/>
</g>
<!-- j -->
<g id="node37" class="node">
<title>j</title>
<polygon fill="none" stroke="black" points="114.26,-900 69.73,-900 58.27,-864 102.8,-864 114.26,-900"/>
<text xml:space="preserve" text-anchor="middle" x="86.26" y="-877.8" font-family="Times,serif" font-size="14.00">j</text>
</g>
<!-- j&#45;&gt;Trapezium -->
<g id="edge36" class="edge">
<title>j&#45;&gt;Trapezium</title>
<path fill="none" stroke="black" d="M106.35,-873.51C168.33,-845.95 365.39,-758.31 460.26,-716.13"/>
<polygon fill="black" stroke="black" points="461.66,-719.34 469.37,-712.07 458.81,-712.94 461.66,-719.34"/>
</g>
<!-- k -->
<g id="node38" class="node">
<title>k</title>
<polygon fill="none" stroke="black" points="114.26,-846 69.73,-846 58.27,-810 102.8,-810 114.26,-846"/>
<text xml:space="preserve" text-anchor="middle" x="86.26" y="-823.8" font-family="Times,serif" font-size="14.00">k</text>
</g>
<!-- k&#45;&gt;Trapezium -->
<g id="edge37" class="edge">
<title>k&#45;&gt;Trapezium</title>
<path fill="none" stroke="black" d="M106.91,-821.76C168.45,-802.21 359.11,-741.65 455.4,-711.06"/>
<polygon fill="black" stroke="black" points="456.18,-714.49 464.65,-708.12 454.06,-707.82 456.18,-714.49"/>
</g>
<!-- l -->
<g id="node39" class="node">
<title>l</title>
<polygon fill="none" stroke="black" points="114.26,-792 69.73,-792 58.27,-756 102.8,-756 114.26,-792"/>
<text xml:space="preserve" text-anchor="middle" x="86.26" y="-769.8" font-family="Times,serif" font-size="14.00">l</text>
</g>
<!-- l&#45;&gt;Trapezium -->
<g id="edge38" class="edge">
<title>l&#45;&gt;Trapezium</title>
<path fill="none" stroke="black" d="M107.76,-770.09C169.17,-758.39 353.37,-723.28 450.6,-704.75"/>
<polygon fill="black" stroke="black" points="451.07,-708.22 460.24,-702.91 449.76,-701.35 451.07,-708.22"/>
</g>
<!-- m -->
<g id="node40" class="node">
<title>m</title>
<polygon fill="none" stroke="black" points="114.26,-738 69.73,-738 58.27,-702 102.8,-702 114.26,-738"/>
<text xml:space="preserve" text-anchor="middle" x="86.26" y="-715.8" font-family="Times,serif" font-size="14.00">m</text>
</g>
<!-- m&#45;&gt;Trapezium -->
<g id="edge39" class="edge">
<title>m&#45;&gt;Trapezium</title>
<path fill="none" stroke="black" d="M108.34,-718.66C169.24,-714.79 347.35,-703.48 445.49,-697.24"/>
<polygon fill="black" stroke="black" points="445.48,-700.75 455.24,-696.62 445.04,-693.76 445.48,-700.75"/>
</g>
<!-- n -->
<g id="node41" class="node">
<title>n</title>
<polygon fill="none" stroke="black" points="114.26,-684 69.73,-684 58.27,-648 102.8,-648 114.26,-684"/>
<text xml:space="preserve" text-anchor="middle" x="86.26" y="-661.8" font-family="Times,serif" font-size="14.00">n</text>
</g>
<!-- n&#45;&gt;Trapezium -->
<g id="edge40" class="edge">
<title>n&#45;&gt;Trapezium</title>
<path fill="none" stroke="black" d="M109.22,-667.39C169.55,-671.23 339.94,-682.05 438.79,-688.33"/>
<polygon fill="black" stroke="black" points="438.47,-691.82 448.67,-688.96 438.91,-684.83 438.47,-691.82"/>
</g>
<!-- o -->
<g id="node42" class="node">
<title>o</title>
<polygon fill="none" stroke="black" points="114.26,-630 69.73,-630 58.27,-594 102.8,-594 114.26,-630"/>
<text xml:space="preserve" text-anchor="middle" x="86.26" y="-607.8" font-family="Times,serif" font-size="14.00">o</text>
</g>
<!-- o&#45;&gt;Trapezium -->
<g id="edge41" class="edge">
<title>o&#45;&gt;Trapezium</title>
<path fill="none" stroke="black" d="M110.41,-616.41C170.13,-627.79 331.59,-658.57 430.72,-677.46"/>
<polygon fill="black" stroke="black" points="429.93,-680.87 440.41,-679.31 431.24,-674 429.93,-680.87"/>
</g>
<!-- p -->
<g id="node43" class="node">
<title>p</title>
<polygon fill="none" stroke="black" points="114.26,-576 69.73,-576 58.27,-540 102.8,-540 114.26,-576"/>
<text xml:space="preserve" text-anchor="middle" x="86.26" y="-553.8" font-family="Times,serif" font-size="14.00">p</text>
</g>
<!-- p&#45;&gt;Trapezium -->
<g id="edge42" class="edge">
<title>p&#45;&gt;Trapezium</title>
<path fill="none" stroke="black" d="M111.33,-565.64C174.4,-585.68 346.27,-640.27 443.27,-671.08"/>
<polygon fill="black" stroke="black" points="442.11,-674.39 452.7,-674.08 444.23,-667.72 442.11,-674.39"/>
</g>
<!-- q -->
<g id="node44" class="node">
<title>q</title>
<polygon fill="none" stroke="black" points="114.26,-522 69.73,-522 58.27,-486 102.8,-486 114.26,-522"/>
<text xml:space="preserve" text-anchor="middle" x="86.26" y="-499.8" font-family="Times,serif" font-size="14.00">q</text>
</g>
<!-- q&#45;&gt;Trapezium -->
<g id="edge43" class="edge">
<title>q&#45;&gt;Trapezium</title>
<path fill="none" stroke="black" d="M112.58,-515.26C180.65,-545.53 368.66,-629.14 460.47,-669.97"/>
<polygon fill="black" stroke="black" points="458.97,-673.13 469.53,-673.99 461.81,-666.73 458.97,-673.13"/>
</g>
<!-- r -->
<g id="node45" class="node">
<title>r</title>
<polygon fill="none" stroke="black" points="114.26,-468 69.73,-468 58.27,-432 102.8,-432 114.26,-468"/>
<text xml:space="preserve" text-anchor="middle" x="86.26" y="-445.8" font-family="Times,serif" font-size="14.00">r</text>
</g>
<!-- r&#45;&gt;Trapezium -->
<g id="edge44" class="edge">
<title>r&#45;&gt;Trapezium</title>
<path fill="none" stroke="black" d="M113.85,-465.2C185.52,-506.18 383.17,-619.19 470.2,-668.95"/>
<polygon fill="black" stroke="black" points="468.27,-671.88 478.68,-673.8 471.74,-665.8 468.27,-671.88"/>
</g>
<!-- s -->
<g id="node46" class="node">
<title>s</title>
<polygon fill="none" stroke="black" points="114.26,-414 69.73,-414 58.27,-378 102.8,-378 114.26,-414"/>
<text xml:space="preserve" text-anchor="middle" x="86.26" y="-391.8" font-family="Times,serif" font-size="14.00">s</text>
</g>
<!-- s&#45;&gt;Trapezium -->
<g id="edge45" class="edge">
<title>s&#45;&gt;Trapezium</title>
<path fill="none" stroke="black" d="M113.53,-414.35C186.73,-465.51 393.13,-609.75 476.58,-668.07"/>
<polygon fill="black" stroke="black" points="474.46,-670.85 484.66,-673.71 478.47,-665.11 474.46,-670.85"/>
</g>
<!-- t -->
<g id="node47" class="node">
<title>t</title>
<polygon fill="none" stroke="black" points="114.26,-360 69.73,-360 58.27,-324 102.8,-324 114.26,-360"/>
<text xml:space="preserve" text-anchor="middle" x="86.26" y="-337.8" font-family="Times,serif" font-size="14.00">t</text>
</g>
<!-- t&#45;&gt;Trapezium -->
<g id="edge46" class="edge">
<title>t&#45;&gt;Trapezium</title>
<path fill="none" stroke="black" d="M109.51,-360.38C180.15,-418.71 399.44,-599.82 481.16,-667.31"/>
<polygon fill="black" stroke="black" points="478.87,-669.96 488.81,-673.63 483.33,-664.56 478.87,-669.96"/>
</g>
<!-- u -->
<g id="node48" class="node">
<title>u</title>
<polygon fill="none" stroke="black" points="114.26,-306 69.73,-306 58.27,-270 102.8,-270 114.26,-306"/>
<text xml:space="preserve" text-anchor="middle" x="86.26" y="-283.8" font-family="Times,serif" font-size="14.00">u</text>
</g>
<!-- u&#45;&gt;Trapezium -->
<g id="edge47" class="edge">
<title>u&#45;&gt;Trapezium</title>
<path fill="none" stroke="black" d="M106.63,-306.45C175.1,-371.7 405.88,-591.63 485.22,-667.23"/>
<polygon fill="black" stroke="black" points="482.52,-669.49 492.17,-673.86 487.35,-664.42 482.52,-669.49"/>
</g>
<!-- v -->
<g id="node49" class="node">
<title>v</title>
<polygon fill="none" stroke="black" points="114.26,-252 69.73,-252 58.27,-216 102.8,-216 114.26,-252"/>
<text xml:space="preserve" text-anchor="middle" x="86.26" y="-229.8" font-family="Times,serif" font-size="14.00">v</text>
</g>
<!-- v&#45;&gt;Trapezium -->
<g id="edge48" class="edge">
<title>v&#45;&gt;Trapezium</title>
<path fill="none" stroke="black" d="M105.95,-252.49C108.75,-255.32 111.59,-258.23 114.26,-261 258.88,-411.69 426.83,-597.76 488.23,-666.16"/>
<polygon fill="black" stroke="black" points="485.55,-668.41 494.83,-673.52 490.76,-663.74 485.55,-668.41"/>
</g>
<!-- w -->
<g id="node50" class="node">
<title>w</title>
<polygon fill="none" stroke="black" points="114.26,-198 69.73,-198 58.27,-162 102.8,-162 114.26,-198"/>
<text xml:space="preserve" text-anchor="middle" x="86.26" y="-175.8" font-family="Times,serif" font-size="14.00">w</text>
</g>
<!-- w&#45;&gt;Trapezium -->
<g id="edge49" class="edge">
<title>w&#45;&gt;Trapezium</title>
<path fill="none" stroke="black" d="M106.1,-198.36C108.88,-201.21 111.68,-204.15 114.26,-207 266.57,-375.25 434.25,-591.11 491.67,-665.99"/>
<polygon fill="black" stroke="black" points="488.65,-667.8 497.5,-673.61 494.2,-663.54 488.65,-667.8"/>
</g>
<!-- x -->
<g id="node51" class="node">
<title>x</title>
<polygon fill="none" stroke="black" points="114.26,-144 69.73,-144 58.27,-108 102.8,-108 114.26,-144"/>
<text xml:space="preserve" text-anchor="middle" x="86.26" y="-121.8" font-family="Times,serif" font-size="14.00">x</text>
</g>
<!-- x&#45;&gt;Trapezium -->
<g id="edge50" class="edge">
<title>x&#45;&gt;Trapezium</title>
<path fill="none" stroke="black" d="M106.23,-144.24C108.99,-147.11 111.75,-150.09 114.26,-153 273.73,-338.46 439.41,-583.06 493.79,-664.94"/>
<polygon fill="black" stroke="black" points="490.87,-666.87 499.31,-673.28 496.71,-663.01 490.87,-666.87"/>
</g>
<!-- y -->
<g id="node52" class="node">
<title>y</title>
<polygon fill="none" stroke="black" points="114.26,-90 69.73,-90 58.27,-54 102.8,-54 114.26,-90"/>
<text xml:space="preserve" text-anchor="middle" x="86.26" y="-67.8" font-family="Times,serif" font-size="14.00">y</text>
</g>
<!-- y&#45;&gt;Trapezium -->
<g id="edge51" class="edge">
<title>y&#45;&gt;Trapezium</title>
<path fill="none" stroke="black" d="M106.63,-90.44C109.28,-93.23 111.9,-96.13 114.26,-99 281.61,-302.69 445.2,-577.2 496.1,-664.87"/>
<polygon fill="black" stroke="black" points="492.95,-666.4 500.99,-673.3 499.01,-662.89 492.95,-666.4"/>
</g>
<!-- z -->
<g id="node53" class="node">
<title>z</title>
<polygon fill="none" stroke="black" points="114.26,-36 69.73,-36 58.27,0 102.8,0 114.26,-36"/>
<text xml:space="preserve" text-anchor="middle" x="86.26" y="-13.8" font-family="Times,serif" font-size="14.00">z</text>
</g>
<!-- z&#45;&gt;Trapezium -->
<g id="edge52" class="edge">
<title>z&#45;&gt;Trapezium</title>
<path fill="none" stroke="black" d="M106.74,-36.35C109.37,-39.16 111.96,-42.09 114.26,-45 289.49,-267.08 450.21,-571.35 497.95,-664.66"/>
<polygon fill="black" stroke="black" points="494.74,-666.06 502.4,-673.38 500.97,-662.88 494.74,-666.06"/>
</g>
</g>
</svg>
