<?xml version="1.0" encoding="UTF-8" standalone="no"?>
<!DOCTYPE svg PUBLIC "-//W3C//DTD SVG 1.1//EN"
 "http://www.w3.org/Graphics/SVG/1.1/DTD/svg11.dtd">
<!-- Generated by graphviz version a (a)
 -->
<!-- Title: G Pages: 1 -->
<svg width="147pt" height="1491pt"
 viewBox="0.00 0.00 147.00 1491.00" xmlns="http://www.w3.org/2000/svg" xmlns:xlink="http://www.w3.org/1999/xlink">
<g id="graph0" class="graph" transform="scale(1 1) rotate(0) translate(4 1486.85)">
<title>G</title>
<polygon fill="white" stroke="none" points="-4,4 -4,-1486.85 143.03,-1486.85 143.03,4 -4,4"/>
<text xml:space="preserve" text-anchor="middle" x="69.51" y="-8.2" font-family="Times,serif" font-size="14.00">SelfTop</text>
<!-- node13 -->
<g id="node1" class="node">
<title>node13</title>
<polygon fill="none" stroke="black" points="98.12,-1447.8 40.91,-1447.8 40.91,-1411.8 98.12,-1411.8 98.12,-1447.8"/>
<text xml:space="preserve" text-anchor="middle" x="69.51" y="-1425.6" font-family="Times,serif" font-size="14.00">node13</text>
</g>
<!-- node13&#45;&gt;node13 -->
<g id="edge1" class="edge">
<title>node13:nw&#45;&gt;node13:ne</title>
<path fill="none" stroke="black" d="M40.91,-1447.8C31.91,-1453.88 31.91,-1466.05 69.51,-1466.05 89.49,-1466.05 98.86,-1462.62 101.9,-1458.49"/>
<polygon fill="black" stroke="black" points="105.26,-1457.49 98.63,-1449.23 98.66,-1459.82 105.26,-1457.49"/>
<text xml:space="preserve" text-anchor="middle" x="69.51" y="-1470.25" font-family="Times,serif" font-size="14.00">tailport=nw headport=ne</text>
</g>
<!-- node14 -->
<g id="node2" class="node">
<title>node14</title>
<polygon fill="none" stroke="black" points="98.12,-1374.8 40.91,-1374.8 40.91,-1338.8 98.12,-1338.8 98.12,-1374.8"/>
<text xml:space="preserve" text-anchor="middle" x="69.51" y="-1352.6" font-family="Times,serif" font-size="14.00">node14</text>
</g>
<!-- node13&#45;&gt;node14 -->
<g id="edge2" class="edge">
<title>node13&#45;&gt;node14</title>
<path fill="none" stroke="black" d="M69.51,-1411.61C69.51,-1404.03 69.51,-1394.9 69.51,-1386.34"/>
<polygon fill="black" stroke="black" points="73.01,-1386.34 69.51,-1376.34 66.01,-1386.34 73.01,-1386.34"/>
</g>
<!-- node14&#45;&gt;node14 -->
<g id="edge3" class="edge">
<title>node14:nw&#45;&gt;node14:e</title>
<path fill="none" stroke="black" d="M40.91,-1374.8C31.91,-1380.88 31.91,-1393.05 69.51,-1393.05 98.01,-1393.05 104.92,-1379.17 102.67,-1367.19"/>
<polygon fill="black" stroke="black" points="105.95,-1365.94 98.73,-1358.19 99.53,-1368.75 105.95,-1365.94"/>
<text xml:space="preserve" text-anchor="middle" x="69.51" y="-1397.25" font-family="Times,serif" font-size="14.00">tailport=nw headport=e</text>
</g>
<!-- node15 -->
<g id="node3" class="node">
<title>node15</title>
<polygon fill="none" stroke="black" points="98.12,-1301.8 40.91,-1301.8 40.91,-1265.8 98.12,-1265.8 98.12,-1301.8"/>
<text xml:space="preserve" text-anchor="middle" x="69.51" y="-1279.6" font-family="Times,serif" font-size="14.00">node15</text>
</g>
<!-- node14&#45;&gt;node15 -->
<g id="edge4" class="edge">
<title>node14&#45;&gt;node15</title>
<path fill="none" stroke="black" d="M69.51,-1338.61C69.51,-1331.03 69.51,-1321.9 69.51,-1313.34"/>
<polygon fill="black" stroke="black" points="73.01,-1313.34 69.51,-1303.34 66.01,-1313.34 73.01,-1313.34"/>
</g>
<!-- node15&#45;&gt;node15 -->
<g id="edge5" class="edge">
<title>node15:nw&#45;&gt;node15:se</title>
<path fill="none" stroke="black" d="M40.91,-1301.8C22.91,-1307.88 22.91,-1320.05 69.51,-1320.05 108.11,-1320.05 114.74,-1291.13 105.66,-1274.33"/>
<polygon fill="black" stroke="black" points="108.37,-1272.11 99.12,-1266.93 103.13,-1276.74 108.37,-1272.11"/>
<text xml:space="preserve" text-anchor="middle" x="69.51" y="-1324.25" font-family="Times,serif" font-size="14.00">tailport=nw headport=se</text>
</g>
<!-- node22 -->
<g id="node4" class="node">
<title>node22</title>
<polygon fill="none" stroke="black" points="98.12,-1228.8 40.91,-1228.8 40.91,-1192.8 98.12,-1192.8 98.12,-1228.8"/>
<text xml:space="preserve" text-anchor="middle" x="69.51" y="-1206.6" font-family="Times,serif" font-size="14.00">node22</text>
</g>
<!-- node15&#45;&gt;node22 -->
<g id="edge6" class="edge">
<title>node15&#45;&gt;node22</title>
<path fill="none" stroke="black" d="M69.51,-1265.61C69.51,-1258.03 69.51,-1248.9 69.51,-1240.34"/>
<polygon fill="black" stroke="black" points="73.01,-1240.34 69.51,-1230.34 66.01,-1240.34 73.01,-1240.34"/>
</g>
<!-- node22&#45;&gt;node22 -->
<g id="edge7" class="edge">
<title>node22:n&#45;&gt;node22:n</title>
<path fill="none" stroke="black" d="M69.51,-1228.8C78.51,-1234.88 78.51,-1247.05 69.51,-1247.05 64.17,-1247.05 62,-1242.76 63,-1238"/>
<polygon fill="black" stroke="black" points="65.72,-1240.22 68.64,-1230.04 60.01,-1236.18 65.72,-1240.22"/>
<text xml:space="preserve" text-anchor="middle" x="69.51" y="-1251.25" font-family="Times,serif" font-size="14.00">tailport=n headport=n</text>
</g>
<!-- node31 -->
<g id="node5" class="node">
<title>node31</title>
<polygon fill="none" stroke="black" points="98.12,-1155.8 40.91,-1155.8 40.91,-1119.8 98.12,-1119.8 98.12,-1155.8"/>
<text xml:space="preserve" text-anchor="middle" x="69.51" y="-1133.6" font-family="Times,serif" font-size="14.00">node31</text>
</g>
<!-- node22&#45;&gt;node31 -->
<g id="edge8" class="edge">
<title>node22&#45;&gt;node31</title>
<path fill="none" stroke="black" d="M69.51,-1192.61C69.51,-1185.03 69.51,-1175.9 69.51,-1167.34"/>
<polygon fill="black" stroke="black" points="73.01,-1167.34 69.51,-1157.34 66.01,-1167.34 73.01,-1167.34"/>
</g>
<!-- node31&#45;&gt;node31 -->
<g id="edge9" class="edge">
<title>node31:ne&#45;&gt;node31:nw</title>
<path fill="none" stroke="black" d="M98.12,-1155.8C107.12,-1161.88 107.12,-1174.05 69.51,-1174.05 49.54,-1174.05 40.17,-1170.62 37.13,-1166.49"/>
<polygon fill="black" stroke="black" points="40.37,-1167.82 40.4,-1157.23 33.77,-1165.49 40.37,-1167.82"/>
<text xml:space="preserve" text-anchor="middle" x="69.51" y="-1178.25" font-family="Times,serif" font-size="14.00">tailport=ne headport=nw</text>
</g>
<!-- node33 -->
<g id="node6" class="node">
<title>node33</title>
<polygon fill="none" stroke="black" points="98.12,-1082.8 40.91,-1082.8 40.91,-1046.8 98.12,-1046.8 98.12,-1082.8"/>
<text xml:space="preserve" text-anchor="middle" x="69.51" y="-1060.6" font-family="Times,serif" font-size="14.00">node33</text>
</g>
<!-- node31&#45;&gt;node33 -->
<g id="edge10" class="edge">
<title>node31&#45;&gt;node33</title>
<path fill="none" stroke="black" d="M69.51,-1119.61C69.51,-1112.03 69.51,-1102.9 69.51,-1094.34"/>
<polygon fill="black" stroke="black" points="73.01,-1094.34 69.51,-1084.34 66.01,-1094.34 73.01,-1094.34"/>
</g>
<!-- node33&#45;&gt;node33 -->
<g id="edge11" class="edge">
<title>node33:ne&#45;&gt;node33:ne</title>
<path fill="none" stroke="black" d="M98.12,-1082.8C107.12,-1088.88 107.12,-1101.05 98.12,-1101.05 92.78,-1101.05 90.61,-1096.76 91.61,-1092"/>
<polygon fill="black" stroke="black" points="94.33,-1094.22 97.25,-1084.04 88.61,-1090.18 94.33,-1094.22"/>
<text xml:space="preserve" text-anchor="middle" x="69.51" y="-1105.25" font-family="Times,serif" font-size="14.00">tailport=ne headport=ne</text>
</g>
<!-- node37 -->
<g id="node7" class="node">
<title>node37</title>
<polygon fill="none" stroke="black" points="98.12,-1009.8 40.91,-1009.8 40.91,-973.8 98.12,-973.8 98.12,-1009.8"/>
<text xml:space="preserve" text-anchor="middle" x="69.51" y="-987.6" font-family="Times,serif" font-size="14.00">node37</text>
</g>
<!-- node33&#45;&gt;node37 -->
<g id="edge12" class="edge">
<title>node33&#45;&gt;node37</title>
<path fill="none" stroke="black" d="M69.51,-1046.61C69.51,-1039.03 69.51,-1029.9 69.51,-1021.34"/>
<polygon fill="black" stroke="black" points="73.01,-1021.34 69.51,-1011.34 66.01,-1021.34 73.01,-1021.34"/>
</g>
<!-- node37&#45;&gt;node37 -->
<g id="edge13" class="edge">
<title>node37:ne&#45;&gt;node37:sw</title>
<path fill="none" stroke="black" d="M98.12,-1009.8C145.26,-1015.88 145.26,-1028.05 69.51,-1028.05 -0.02,-1028.05 -5.73,-992.52 30.27,-977.34"/>
<polygon fill="black" stroke="black" points="31.09,-980.76 39.47,-974.28 28.88,-974.12 31.09,-980.76"/>
<text xml:space="preserve" text-anchor="middle" x="69.51" y="-1032.25" font-family="Times,serif" font-size="14.00">tailport=ne headport=sw</text>
</g>
<!-- node38 -->
<g id="node8" class="node">
<title>node38</title>
<polygon fill="none" stroke="black" points="98.12,-936.8 40.91,-936.8 40.91,-900.8 98.12,-900.8 98.12,-936.8"/>
<text xml:space="preserve" text-anchor="middle" x="69.51" y="-914.6" font-family="Times,serif" font-size="14.00">node38</text>
</g>
<!-- node37&#45;&gt;node38 -->
<g id="edge14" class="edge">
<title>node37&#45;&gt;node38</title>
<path fill="none" stroke="black" d="M69.51,-973.61C69.51,-966.03 69.51,-956.9 69.51,-948.34"/>
<polygon fill="black" stroke="black" points="73.01,-948.34 69.51,-938.34 66.01,-948.34 73.01,-948.34"/>
</g>
<!-- node38&#45;&gt;node38 -->
<g id="edge15" class="edge">
<title>node38:ne&#45;&gt;node38:w</title>
<path fill="none" stroke="black" d="M98.12,-936.8C116.12,-942.88 116.12,-955.05 69.51,-955.05 31.65,-955.05 24.55,-939.1 32.87,-926.63"/>
<polygon fill="black" stroke="black" points="35.1,-929.34 39.82,-919.86 30.22,-924.33 35.1,-929.34"/>
<text xml:space="preserve" text-anchor="middle" x="69.51" y="-959.25" font-family="Times,serif" font-size="14.00">tailport=ne headport=w</text>
</g>
<!-- node41 -->
<g id="node9" class="node">
<title>node41</title>
<polygon fill="none" stroke="black" points="98.12,-863.8 40.91,-863.8 40.91,-827.8 98.12,-827.8 98.12,-863.8"/>
<text xml:space="preserve" text-anchor="middle" x="69.51" y="-841.6" font-family="Times,serif" font-size="14.00">node41</text>
</g>
<!-- node38&#45;&gt;node41 -->
<g id="edge16" class="edge">
<title>node38&#45;&gt;node41</title>
<path fill="none" stroke="black" d="M69.51,-900.61C69.51,-893.03 69.51,-883.9 69.51,-875.34"/>
<polygon fill="black" stroke="black" points="73.01,-875.34 69.51,-865.34 66.01,-875.34 73.01,-875.34"/>
</g>
<!-- node41&#45;&gt;node41 -->
<g id="edge17" class="edge">
<title>node41:e&#45;&gt;node41:nw</title>
<path fill="none" stroke="black" d="M98.12,-845.8C116.12,-857.88 116.12,-882.05 69.51,-882.05 34.56,-882.05 25.82,-875.21 31.23,-869.22"/>
<polygon fill="black" stroke="black" points="32.57,-872.48 39.59,-864.54 29.15,-866.37 32.57,-872.48"/>
<text xml:space="preserve" text-anchor="middle" x="69.51" y="-886.25" font-family="Times,serif" font-size="14.00">tailport=e headport=nw</text>
</g>
<!-- node47 -->
<g id="node10" class="node">
<title>node47</title>
<polygon fill="none" stroke="black" points="98.12,-790.8 40.91,-790.8 40.91,-754.8 98.12,-754.8 98.12,-790.8"/>
<text xml:space="preserve" text-anchor="middle" x="69.51" y="-768.6" font-family="Times,serif" font-size="14.00">node47</text>
</g>
<!-- node41&#45;&gt;node47 -->
<g id="edge18" class="edge">
<title>node41&#45;&gt;node47</title>
<path fill="none" stroke="black" d="M69.51,-827.61C69.51,-820.03 69.51,-810.9 69.51,-802.34"/>
<polygon fill="black" stroke="black" points="73.01,-802.34 69.51,-792.34 66.01,-802.34 73.01,-802.34"/>
</g>
<!-- node47&#45;&gt;node47 -->
<g id="edge19" class="edge">
<title>node47:e&#45;&gt;node47:sw</title>
<path fill="none" stroke="black" d="M98.12,-772.8C145.26,-784.88 145.26,-809.05 69.51,-809.05 -0.02,-809.05 -5.73,-773.52 30.27,-758.34"/>
<polygon fill="black" stroke="black" points="31.09,-761.76 39.47,-755.28 28.88,-755.12 31.09,-761.76"/>
<text xml:space="preserve" text-anchor="middle" x="69.51" y="-813.25" font-family="Times,serif" font-size="14.00">tailport=e headport=sw</text>
</g>
<!-- node48 -->
<g id="node11" class="node">
<title>node48</title>
<polygon fill="none" stroke="black" points="98.12,-717.8 40.91,-717.8 40.91,-681.8 98.12,-681.8 98.12,-717.8"/>
<text xml:space="preserve" text-anchor="middle" x="69.51" y="-695.6" font-family="Times,serif" font-size="14.00">node48</text>
</g>
<!-- node47&#45;&gt;node48 -->
<g id="edge20" class="edge">
<title>node47&#45;&gt;node48</title>
<path fill="none" stroke="black" d="M69.51,-754.61C69.51,-747.03 69.51,-737.9 69.51,-729.34"/>
<polygon fill="black" stroke="black" points="73.01,-729.34 69.51,-719.34 66.01,-729.34 73.01,-729.34"/>
</g>
<!-- node48&#45;&gt;node48 -->
<g id="edge21" class="edge">
<title>node48:e&#45;&gt;node48:w</title>
<path fill="none" stroke="black" d="M98.12,-699.8C116.12,-711.88 116.12,-736.05 69.51,-736.05 31.65,-736.05 24.55,-720.1 32.87,-707.63"/>
<polygon fill="black" stroke="black" points="35.1,-710.34 39.82,-700.86 30.22,-705.33 35.1,-710.34"/>
<text xml:space="preserve" text-anchor="middle" x="69.51" y="-740.25" font-family="Times,serif" font-size="14.00">tailport=e headport=w</text>
</g>
<!-- node51 -->
<g id="node12" class="node">
<title>node51</title>
<polygon fill="none" stroke="black" points="98.12,-644.8 40.91,-644.8 40.91,-608.8 98.12,-608.8 98.12,-644.8"/>
<text xml:space="preserve" text-anchor="middle" x="69.51" y="-622.6" font-family="Times,serif" font-size="14.00">node51</text>
</g>
<!-- node48&#45;&gt;node51 -->
<g id="edge22" class="edge">
<title>node48&#45;&gt;node51</title>
<path fill="none" stroke="black" d="M69.51,-681.61C69.51,-674.03 69.51,-664.9 69.51,-656.34"/>
<polygon fill="black" stroke="black" points="73.01,-656.34 69.51,-646.34 66.01,-656.34 73.01,-656.34"/>
</g>
<!-- node51&#45;&gt;node51 -->
<g id="edge23" class="edge">
<title>node51:se&#45;&gt;node51:nw</title>
<path fill="none" stroke="black" d="M98.12,-608.8C145.26,-620.88 145.26,-663.05 69.51,-663.05 0.27,-663.05 -5.68,-652.88 29.82,-646.49"/>
<polygon fill="black" stroke="black" points="30.05,-650 39.41,-645.03 29,-643.08 30.05,-650"/>
<text xml:space="preserve" text-anchor="middle" x="69.51" y="-667.25" font-family="Times,serif" font-size="14.00">tailport=se headport=nw</text>
</g>
<!-- node57 -->
<g id="node13" class="node">
<title>node57</title>
<polygon fill="none" stroke="black" points="98.12,-571.8 40.91,-571.8 40.91,-535.8 98.12,-535.8 98.12,-571.8"/>
<text xml:space="preserve" text-anchor="middle" x="69.51" y="-549.6" font-family="Times,serif" font-size="14.00">node57</text>
</g>
<!-- node51&#45;&gt;node57 -->
<g id="edge24" class="edge">
<title>node51&#45;&gt;node57</title>
<path fill="none" stroke="black" d="M69.51,-608.61C69.51,-601.03 69.51,-591.9 69.51,-583.34"/>
<polygon fill="black" stroke="black" points="73.01,-583.34 69.51,-573.34 66.01,-583.34 73.01,-583.34"/>
</g>
<!-- node57&#45;&gt;node57 -->
<g id="edge25" class="edge">
<title>node57:se&#45;&gt;node57:sw</title>
<path fill="none" stroke="black" d="M98.12,-535.8C145.26,-547.88 145.26,-590.05 69.51,-590.05 -0.02,-590.05 -5.73,-554.52 30.27,-539.34"/>
<polygon fill="black" stroke="black" points="31.09,-542.76 39.47,-536.28 28.88,-536.12 31.09,-542.76"/>
<text xml:space="preserve" text-anchor="middle" x="69.51" y="-594.25" font-family="Times,serif" font-size="14.00">tailport=se headport=sw</text>
</g>
<!-- node58 -->
<g id="node14" class="node">
<title>node58</title>
<polygon fill="none" stroke="black" points="98.12,-498.8 40.91,-498.8 40.91,-462.8 98.12,-462.8 98.12,-498.8"/>
<text xml:space="preserve" text-anchor="middle" x="69.51" y="-476.6" font-family="Times,serif" font-size="14.00">node58</text>
</g>
<!-- node57&#45;&gt;node58 -->
<g id="edge26" class="edge">
<title>node57&#45;&gt;node58</title>
<path fill="none" stroke="black" d="M69.51,-535.61C69.51,-528.03 69.51,-518.9 69.51,-510.34"/>
<polygon fill="black" stroke="black" points="73.01,-510.34 69.51,-500.34 66.01,-510.34 73.01,-510.34"/>
</g>
<!-- node58&#45;&gt;node58 -->
<g id="edge27" class="edge">
<title>node58:se&#45;&gt;node58:w</title>
<path fill="none" stroke="black" d="M98.12,-462.8C145.26,-474.88 145.26,-517.05 69.51,-517.05 -0.02,-517.05 -5.73,-496.69 30.27,-484"/>
<polygon fill="black" stroke="black" points="30.89,-487.47 39.46,-481.24 28.87,-480.76 30.89,-487.47"/>
<text xml:space="preserve" text-anchor="middle" x="69.51" y="-521.25" font-family="Times,serif" font-size="14.00">tailport=se headport=w</text>
</g>
<!-- node73 -->
<g id="node15" class="node">
<title>node73</title>
<polygon fill="none" stroke="black" points="98.12,-425.8 40.91,-425.8 40.91,-389.8 98.12,-389.8 98.12,-425.8"/>
<text xml:space="preserve" text-anchor="middle" x="69.51" y="-403.6" font-family="Times,serif" font-size="14.00">node73</text>
</g>
<!-- node58&#45;&gt;node73 -->
<g id="edge28" class="edge">
<title>node58&#45;&gt;node73</title>
<path fill="none" stroke="black" d="M69.51,-462.61C69.51,-455.03 69.51,-445.9 69.51,-437.34"/>
<polygon fill="black" stroke="black" points="73.01,-437.34 69.51,-427.34 66.01,-437.34 73.01,-437.34"/>
</g>
<!-- node73&#45;&gt;node73 -->
<g id="edge29" class="edge">
<title>node73:sw&#45;&gt;node73:ne</title>
<path fill="none" stroke="black" d="M40.91,-389.8C22.91,-401.88 22.91,-444.05 69.51,-444.05 104.47,-444.05 113.21,-437.21 107.8,-431.22"/>
<polygon fill="black" stroke="black" points="109.88,-428.37 99.44,-426.54 106.46,-434.48 109.88,-428.37"/>
<text xml:space="preserve" text-anchor="middle" x="69.51" y="-448.25" font-family="Times,serif" font-size="14.00">tailport=sw headport=ne</text>
</g>
<!-- node74 -->
<g id="node16" class="node">
<title>node74</title>
<polygon fill="none" stroke="black" points="98.12,-352.8 40.91,-352.8 40.91,-316.8 98.12,-316.8 98.12,-352.8"/>
<text xml:space="preserve" text-anchor="middle" x="69.51" y="-330.6" font-family="Times,serif" font-size="14.00">node74</text>
</g>
<!-- node73&#45;&gt;node74 -->
<g id="edge30" class="edge">
<title>node73&#45;&gt;node74</title>
<path fill="none" stroke="black" d="M69.51,-389.61C69.51,-382.03 69.51,-372.9 69.51,-364.34"/>
<polygon fill="black" stroke="black" points="73.01,-364.34 69.51,-354.34 66.01,-364.34 73.01,-364.34"/>
</g>
<!-- node74&#45;&gt;node74 -->
<g id="edge31" class="edge">
<title>node74:sw&#45;&gt;node74:e</title>
<path fill="none" stroke="black" d="M40.91,-316.8C13.91,-328.88 13.91,-371.05 69.51,-371.05 117.3,-371.05 124.02,-353.2 107.83,-340.51"/>
<polygon fill="black" stroke="black" points="109.82,-337.62 99.43,-335.57 106.27,-343.66 109.82,-337.62"/>
<text xml:space="preserve" text-anchor="middle" x="69.51" y="-375.25" font-family="Times,serif" font-size="14.00">tailport=sw headport=e</text>
</g>
<!-- node75 -->
<g id="node17" class="node">
<title>node75</title>
<polygon fill="none" stroke="black" points="98.12,-279.8 40.91,-279.8 40.91,-243.8 98.12,-243.8 98.12,-279.8"/>
<text xml:space="preserve" text-anchor="middle" x="69.51" y="-257.6" font-family="Times,serif" font-size="14.00">node75</text>
</g>
<!-- node74&#45;&gt;node75 -->
<g id="edge32" class="edge">
<title>node74&#45;&gt;node75</title>
<path fill="none" stroke="black" d="M69.51,-316.61C69.51,-309.03 69.51,-299.9 69.51,-291.34"/>
<polygon fill="black" stroke="black" points="73.01,-291.34 69.51,-281.34 66.01,-291.34 73.01,-291.34"/>
</g>
<!-- node75&#45;&gt;node75 -->
<g id="edge33" class="edge">
<title>node75:sw&#45;&gt;node75:se</title>
<path fill="none" stroke="black" d="M40.91,-243.8C13.91,-255.88 13.91,-298.05 69.51,-298.05 117.74,-298.05 124.14,-266.34 107.38,-250.04"/>
<polygon fill="black" stroke="black" points="109.63,-247.33 99.38,-244.65 105.72,-253.13 109.63,-247.33"/>
<text xml:space="preserve" text-anchor="middle" x="69.51" y="-302.25" font-family="Times,serif" font-size="14.00">tailport=sw headport=se</text>
</g>
<!-- node83 -->
<g id="node18" class="node">
<title>node83</title>
<polygon fill="none" stroke="black" points="98.12,-206.8 40.91,-206.8 40.91,-170.8 98.12,-170.8 98.12,-206.8"/>
<text xml:space="preserve" text-anchor="middle" x="69.51" y="-184.6" font-family="Times,serif" font-size="14.00">node83</text>
</g>
<!-- node75&#45;&gt;node83 -->
<g id="edge34" class="edge">
<title>node75&#45;&gt;node83</title>
<path fill="none" stroke="black" d="M69.51,-243.61C69.51,-236.03 69.51,-226.9 69.51,-218.34"/>
<polygon fill="black" stroke="black" points="73.01,-218.34 69.51,-208.34 66.01,-218.34 73.01,-218.34"/>
</g>
<!-- node83&#45;&gt;node83 -->
<g id="edge35" class="edge">
<title>node83:w&#45;&gt;node83:ne</title>
<path fill="none" stroke="black" d="M40.91,-188.8C31.91,-200.88 31.91,-225.05 69.51,-225.05 89.49,-225.05 98.86,-221.62 101.9,-217.49"/>
<polygon fill="black" stroke="black" points="105.26,-216.49 98.63,-208.23 98.66,-218.82 105.26,-216.49"/>
<text xml:space="preserve" text-anchor="middle" x="69.51" y="-229.25" font-family="Times,serif" font-size="14.00">tailport=w headport=ne</text>
</g>
<!-- node84 -->
<g id="node19" class="node">
<title>node84</title>
<polygon fill="none" stroke="black" points="98.12,-133.8 40.91,-133.8 40.91,-97.8 98.12,-97.8 98.12,-133.8"/>
<text xml:space="preserve" text-anchor="middle" x="69.51" y="-111.6" font-family="Times,serif" font-size="14.00">node84</text>
</g>
<!-- node83&#45;&gt;node84 -->
<g id="edge36" class="edge">
<title>node83&#45;&gt;node84</title>
<path fill="none" stroke="black" d="M69.51,-170.61C69.51,-163.03 69.51,-153.9 69.51,-145.34"/>
<polygon fill="black" stroke="black" points="73.01,-145.34 69.51,-135.34 66.01,-145.34 73.01,-145.34"/>
</g>
<!-- node84&#45;&gt;node84 -->
<g id="edge37" class="edge">
<title>node84:w&#45;&gt;node84:e</title>
<path fill="none" stroke="black" d="M40.91,-115.8C22.91,-127.88 22.91,-152.05 69.51,-152.05 107.38,-152.05 114.48,-136.1 106.16,-123.63"/>
<polygon fill="black" stroke="black" points="108.81,-121.33 99.21,-116.86 103.93,-126.34 108.81,-121.33"/>
<text xml:space="preserve" text-anchor="middle" x="69.51" y="-156.25" font-family="Times,serif" font-size="14.00">tailport=w headport=e</text>
</g>
<!-- node85 -->
<g id="node20" class="node">
<title>node85</title>
<polygon fill="none" stroke="black" points="98.12,-60.8 40.91,-60.8 40.91,-24.8 98.12,-24.8 98.12,-60.8"/>
<text xml:space="preserve" text-anchor="middle" x="69.51" y="-38.6" font-family="Times,serif" font-size="14.00">node85</text>
</g>
<!-- node84&#45;&gt;node85 -->
<g id="edge38" class="edge">
<title>node84&#45;&gt;node85</title>
<path fill="none" stroke="black" d="M69.51,-97.61C69.51,-90.03 69.51,-80.9 69.51,-72.34"/>
<polygon fill="black" stroke="black" points="73.01,-72.34 69.51,-62.34 66.01,-72.34 73.01,-72.34"/>
</g>
<!-- node85&#45;&gt;node85 -->
<g id="edge39" class="edge">
<title>node85:w&#45;&gt;node85:se</title>
<path fill="none" stroke="black" d="M40.91,-42.8C13.91,-54.88 13.91,-79.05 69.51,-79.05 117.74,-79.05 124.14,-47.34 107.38,-31.04"/>
<polygon fill="black" stroke="black" points="109.63,-28.33 99.38,-25.65 105.72,-34.13 109.63,-28.33"/>
<text xml:space="preserve" text-anchor="middle" x="69.51" y="-83.25" font-family="Times,serif" font-size="14.00">tailport=w headport=se</text>
</g>
</g>
</svg>
