<?xml version="1.0" encoding="UTF-8" standalone="no"?>
<!DOCTYPE svg PUBLIC "-//W3C//DTD SVG 1.1//EN"
 "http://www.w3.org/Graphics/SVG/1.1/DTD/svg11.dtd">
<!-- Generated by graphviz version a (a)
 -->
<!-- Title: G Pages: 1 -->
<svg width="1391pt" height="764pt"
 viewBox="0.00 0.00 1391.00 764.00" xmlns="http://www.w3.org/2000/svg" xmlns:xlink="http://www.w3.org/1999/xlink">
<g id="graph0" class="graph" transform="scale(1 1) rotate(0) translate(4 760)">
<title>G</title>
<polygon fill="white" stroke="none" points="-4,4 -4,-760 1387.08,-760 1387.08,4 -4,4"/>
<!-- Marden -->
<g id="node1" class="node">
<title>Marden</title>
<ellipse fill="none" stroke="black" cx="411.08" cy="-738" rx="41.07" ry="18"/>
<text xml:space="preserve" text-anchor="middle" x="411.08" y="-733.8" font-family="Times,serif" font-size="14.00">Marden</text>
</g>
<!-- ldt -->
<g id="node2" class="node">
<title>ldt</title>
<ellipse fill="none" stroke="black" cx="508.08" cy="-666" rx="27" ry="18"/>
<text xml:space="preserve" text-anchor="middle" x="508.08" y="-661.8" font-family="Times,serif" font-size="14.00">ldt</text>
</g>
<!-- Marden&#45;&#45;ldt -->
<g id="edge1" class="edge">
<title>Marden&#45;&#45;ldt</title>
<path fill="none" stroke="black" d="M431.65,-722.15C449,-709.63 473.59,-691.89 490.15,-679.94"/>
</g>
<!-- kg -->
<g id="node3" class="node">
<title>kg</title>
<ellipse fill="none" stroke="black" cx="707.08" cy="-378" rx="27" ry="18"/>
<text xml:space="preserve" text-anchor="middle" x="707.08" y="-373.8" font-family="Times,serif" font-size="14.00">kg</text>
</g>
<!-- Marden&#45;&#45;kg -->
<g id="edge2" class="edge">
<title>Marden&#45;&#45;kg</title>
<path fill="none" stroke="black" d="M418.82,-720.33C434.27,-688.59 471.73,-618.82 521.08,-576 548.4,-552.29 566.61,-563.54 594.08,-540 620.14,-517.67 674.94,-431.15 697.28,-395.01"/>
</g>
<!-- hg -->
<g id="node4" class="node">
<title>hg</title>
<ellipse fill="none" stroke="black" cx="502.08" cy="-450" rx="27" ry="18"/>
<text xml:space="preserve" text-anchor="middle" x="502.08" y="-445.8" font-family="Times,serif" font-size="14.00">hg</text>
</g>
<!-- Marden&#45;&#45;hg -->
<g id="edge3" class="edge">
<title>Marden&#45;&#45;hg</title>
<path fill="none" stroke="black" d="M404.97,-719.93C395.21,-689.83 378.93,-625.82 397.08,-576 414.73,-527.53 460.35,-484.8 485.25,-464.15"/>
</g>
<!-- ldt&#45;&#45;hg -->
<g id="edge72" class="edge">
<title>ldt&#45;&#45;hg</title>
<path fill="none" stroke="black" d="M507.47,-647.61C506.64,-623.47 505.12,-578.42 504.08,-540 503.4,-515.13 502.78,-486.34 502.42,-468.4"/>
</g>
<!-- ggt -->
<g id="node6" class="node">
<title>ggt</title>
<ellipse fill="none" stroke="black" cx="294.08" cy="-522" rx="27" ry="18"/>
<text xml:space="preserve" text-anchor="middle" x="294.08" y="-517.8" font-family="Times,serif" font-size="14.00">ggt</text>
</g>
<!-- ldt&#45;&#45;ggt -->
<g id="edge71" class="edge">
<title>ldt&#45;&#45;ggt</title>
<path fill="none" stroke="black" d="M489.46,-652.65C448.99,-625.79 353.38,-562.35 312.8,-535.43"/>
</g>
<!-- kt -->
<g id="node9" class="node">
<title>kt</title>
<ellipse fill="none" stroke="black" cx="668.08" cy="-522" rx="27" ry="18"/>
<text xml:space="preserve" text-anchor="middle" x="668.08" y="-517.8" font-family="Times,serif" font-size="14.00">kt</text>
</g>
<!-- ldt&#45;&#45;kt -->
<g id="edge73" class="edge">
<title>ldt&#45;&#45;kt</title>
<path fill="none" stroke="black" d="M512.07,-647.8C517.44,-628.13 528.74,-596.08 549.08,-576 552.77,-572.36 612.31,-546.7 645.74,-532.47"/>
</g>
<!-- ds -->
<g id="node18" class="node">
<title>ds</title>
<ellipse fill="none" stroke="black" cx="732.08" cy="-594" rx="27" ry="18"/>
<text xml:space="preserve" text-anchor="middle" x="732.08" y="-589.8" font-family="Times,serif" font-size="14.00">ds</text>
</g>
<!-- ldt&#45;&#45;ds -->
<g id="edge70" class="edge">
<title>ldt&#45;&#45;ds</title>
<path fill="none" stroke="black" d="M532.05,-657.51C575.05,-644.07 664.82,-616.02 707.94,-602.54"/>
</g>
<!-- cd -->
<g id="node20" class="node">
<title>cd</title>
<ellipse fill="none" stroke="black" cx="854.08" cy="-522" rx="27" ry="18"/>
<text xml:space="preserve" text-anchor="middle" x="854.08" y="-517.8" font-family="Times,serif" font-size="14.00">cd</text>
</g>
<!-- ldt&#45;&#45;cd -->
<g id="edge74" class="edge">
<title>ldt&#45;&#45;cd</title>
<path fill="none" stroke="black" d="M528.86,-654.16C563.14,-636.51 633.94,-601.03 696.08,-576 742.51,-557.3 798.34,-539.67 829.66,-530.2"/>
</g>
<!-- vd -->
<g id="node11" class="node">
<title>vd</title>
<ellipse fill="none" stroke="black" cx="593.08" cy="-306" rx="27" ry="18"/>
<text xml:space="preserve" text-anchor="middle" x="593.08" y="-301.8" font-family="Times,serif" font-size="14.00">vd</text>
</g>
<!-- kg&#45;&#45;vd -->
<g id="edge91" class="edge">
<title>kg&#45;&#45;vd</title>
<path fill="none" stroke="black" d="M687.74,-365.13C666.78,-352.25 633.51,-331.83 612.51,-318.93"/>
</g>
<!-- hg&#45;&#45;kg -->
<g id="edge90" class="edge">
<title>hg&#45;&#45;kg</title>
<path fill="none" stroke="black" d="M525.59,-440.97C564.93,-427.54 643.63,-400.66 683.2,-387.15"/>
</g>
<!-- lat -->
<g id="node10" class="node">
<title>lat</title>
<ellipse fill="none" stroke="black" cx="521.08" cy="-378" rx="27" ry="18"/>
<text xml:space="preserve" text-anchor="middle" x="521.08" y="-373.8" font-family="Times,serif" font-size="14.00">lat</text>
</g>
<!-- hg&#45;&#45;lat -->
<g id="edge87" class="edge">
<title>hg&#45;&#45;lat</title>
<path fill="none" stroke="black" d="M506.68,-432.05C509.66,-421.05 513.54,-406.76 516.52,-395.79"/>
</g>
<!-- hg&#45;&#45;vd -->
<g id="edge88" class="edge">
<title>hg&#45;&#45;vd</title>
<path fill="none" stroke="black" d="M519.32,-435.69C531.21,-425.79 546.69,-411.38 557.08,-396 572.47,-373.21 582.98,-342.83 588.5,-324.1"/>
</g>
<!-- cg -->
<g id="node28" class="node">
<title>cg</title>
<ellipse fill="none" stroke="black" cx="871.08" cy="-90" rx="27" ry="18"/>
<text xml:space="preserve" text-anchor="middle" x="871.08" y="-85.8" font-family="Times,serif" font-size="14.00">cg</text>
</g>
<!-- hg&#45;&#45;cg -->
<g id="edge89" class="edge">
<title>hg&#45;&#45;cg</title>
<path fill="none" stroke="black" d="M522.52,-438C539.23,-428.37 562.82,-413.24 580.08,-396 607.46,-368.64 610.17,-357.78 629.08,-324 671.92,-247.45 644.88,-202.7 710.08,-144 748.24,-109.64 809.18,-97.5 844.12,-93.25"/>
</g>
<!-- Cannon -->
<g id="node5" class="node">
<title>Cannon</title>
<ellipse fill="none" stroke="black" cx="41.08" cy="-738" rx="41.08" ry="18"/>
<text xml:space="preserve" text-anchor="middle" x="41.08" y="-733.8" font-family="Times,serif" font-size="14.00">Cannon</text>
</g>
<!-- Cannon&#45;&#45;ldt -->
<g id="edge4" class="edge">
<title>Cannon&#45;&#45;ldt</title>
<path fill="none" stroke="black" d="M79.5,-731C100.62,-727.72 127.29,-723.6 151.08,-720 274.67,-701.28 422.44,-679.55 481.65,-670.87"/>
</g>
<!-- Cannon&#45;&#45;kg -->
<g id="edge5" class="edge">
<title>Cannon&#45;&#45;kg</title>
<path fill="none" stroke="black" d="M40.71,-719.51C40.78,-676.86 46.92,-566.49 105.08,-504 158.76,-446.33 191.12,-452.94 267.08,-432 277.15,-429.22 587,-392.99 680.58,-382.08"/>
</g>
<!-- Cannon&#45;&#45;ggt -->
<g id="edge6" class="edge">
<title>Cannon&#45;&#45;ggt</title>
<path fill="none" stroke="black" d="M61.72,-722.1C92.91,-699.33 153.56,-654.08 202.08,-612 230.78,-587.1 262.19,-555.75 279.88,-537.68"/>
</g>
<!-- ggt&#45;&#45;hg -->
<g id="edge86" class="edge">
<title>ggt&#45;&#45;hg</title>
<path fill="none" stroke="black" d="M317.94,-512.97C357.95,-499.5 438.13,-472.52 478.18,-459.04"/>
</g>
<!-- ggt&#45;&#45;lat -->
<g id="edge85" class="edge">
<title>ggt&#45;&#45;lat</title>
<path fill="none" stroke="black" d="M313.43,-508.89C356.32,-482.07 458.93,-417.88 501.77,-391.08"/>
</g>
<!-- Epstein -->
<g id="node7" class="node">
<title>Epstein</title>
<ellipse fill="none" stroke="black" cx="200.08" cy="-738" rx="40" ry="18"/>
<text xml:space="preserve" text-anchor="middle" x="200.08" y="-733.8" font-family="Times,serif" font-size="14.00">Epstein</text>
</g>
<!-- Epstein&#45;&#45;ldt -->
<g id="edge8" class="edge">
<title>Epstein&#45;&#45;ldt</title>
<path fill="none" stroke="black" d="M235.41,-728.97C298.3,-714.68 428.18,-685.16 482.9,-672.72"/>
</g>
<!-- Epstein&#45;&#45;kg -->
<g id="edge7" class="edge">
<title>Epstein&#45;&#45;kg</title>
<path fill="none" stroke="black" d="M167.12,-727.5C145.1,-719.46 117.31,-705.7 101.08,-684 81.5,-657.83 89.43,-644.51 86.08,-612 84.44,-596.08 79.52,-590.6 86.08,-576 105.81,-532.06 124.39,-526.31 167.08,-504 259.94,-455.48 585.51,-399.06 680.73,-383.29"/>
</g>
<!-- Epstein&#45;&#45;hg -->
<g id="edge10" class="edge">
<title>Epstein&#45;&#45;hg</title>
<path fill="none" stroke="black" d="M178.57,-722.47C139.76,-694.39 64.97,-630.61 98.08,-576 116.01,-546.42 138.66,-559.73 167.08,-540 186.72,-526.36 185.6,-514.52 207.08,-504 297.98,-459.5 421.04,-452.02 474.92,-451"/>
</g>
<!-- Epstein&#45;&#45;ggt -->
<g id="edge9" class="edge">
<title>Epstein&#45;&#45;ggt</title>
<path fill="none" stroke="black" d="M207.61,-719.85C225.3,-679.58 269.31,-579.4 286.77,-539.64"/>
</g>
<!-- Conway -->
<g id="node8" class="node">
<title>Conway</title>
<ellipse fill="none" stroke="black" cx="150.08" cy="-594" rx="43.22" ry="18"/>
<text xml:space="preserve" text-anchor="middle" x="150.08" y="-589.8" font-family="Times,serif" font-size="14.00">Conway</text>
</g>
<!-- Conway&#45;&#45;hg -->
<g id="edge13" class="edge">
<title>Conway&#45;&#45;hg</title>
<path fill="none" stroke="black" d="M167.36,-577.03C192.5,-554.11 238.29,-513.6 258.08,-504 331.4,-468.44 428.62,-456.52 475.1,-452.7"/>
</g>
<!-- Conway&#45;&#45;ggt -->
<g id="edge11" class="edge">
<title>Conway&#45;&#45;ggt</title>
<path fill="none" stroke="black" d="M177.5,-579.67C205.25,-566.18 247.55,-545.62 272.84,-533.32"/>
</g>
<!-- Conway&#45;&#45;kt -->
<g id="edge12" class="edge">
<title>Conway&#45;&#45;kt</title>
<path fill="none" stroke="black" d="M192.23,-589.48C271.37,-582.55 447.43,-565.52 594.08,-540 610.57,-537.13 628.91,-532.92 643.21,-529.41"/>
</g>
<!-- Conway&#45;&#45;lat -->
<g id="edge14" class="edge">
<title>Conway&#45;&#45;lat</title>
<path fill="none" stroke="black" d="M157.15,-576.09C166.14,-556.4 183.4,-524.02 207.08,-504 306.71,-419.75 358.1,-442.35 480.08,-396 486.13,-393.7 492.62,-391.08 498.62,-388.6"/>
</g>
<!-- Conway&#45;&#45;vd -->
<g id="edge15" class="edge">
<title>Conway&#45;&#45;vd</title>
<path fill="none" stroke="black" d="M151.53,-575.78C153.76,-556.95 159.35,-526.47 173.08,-504 198.19,-462.9 210.82,-453.19 254.08,-432 332.44,-393.61 369.34,-435.63 447.08,-396 467.8,-385.43 465.97,-373.28 485.08,-360 512.35,-341.05 547.41,-325.19 570.06,-315.9"/>
</g>
<!-- kt&#45;&#45;kg -->
<g id="edge80" class="edge">
<title>kt&#45;&#45;kg</title>
<path fill="none" stroke="black" d="M672.78,-503.87C680.28,-476.58 694.85,-423.52 702.36,-396.19"/>
</g>
<!-- kt&#45;&#45;hg -->
<g id="edge79" class="edge">
<title>kt&#45;&#45;hg</title>
<path fill="none" stroke="black" d="M645.69,-511.56C614.01,-498.2 556.42,-473.91 524.64,-460.51"/>
</g>
<!-- lat&#45;&#45;vd -->
<g id="edge96" class="edge">
<title>lat&#45;&#45;vd</title>
<path fill="none" stroke="black" d="M536,-362.5C548.35,-350.48 565.83,-333.49 578.18,-321.49"/>
</g>
<!-- crys -->
<g id="node13" class="node">
<title>crys</title>
<ellipse fill="none" stroke="black" cx="555.08" cy="-234" rx="27.13" ry="18"/>
<text xml:space="preserve" text-anchor="middle" x="555.08" y="-229.8" font-family="Times,serif" font-size="14.00">crys</text>
</g>
<!-- lat&#45;&#45;crys -->
<g id="edge95" class="edge">
<title>lat&#45;&#45;crys</title>
<path fill="none" stroke="black" d="M525.18,-359.87C531.71,-332.58 544.42,-279.52 550.96,-252.19"/>
</g>
<!-- vd&#45;&#45;crys -->
<g id="edge97" class="edge">
<title>vd&#45;&#45;crys</title>
<path fill="none" stroke="black" d="M584.26,-288.76C578.13,-277.46 569.97,-262.44 563.84,-251.15"/>
</g>
<!-- gcv -->
<g id="node14" class="node">
<title>gcv</title>
<ellipse fill="none" stroke="black" cx="620.08" cy="-162" rx="27" ry="18"/>
<text xml:space="preserve" text-anchor="middle" x="620.08" y="-157.8" font-family="Times,serif" font-size="14.00">gcv</text>
</g>
<!-- vd&#45;&#45;gcv -->
<g id="edge98" class="edge">
<title>vd&#45;&#45;gcv</title>
<path fill="none" stroke="black" d="M596.33,-287.87C601.52,-260.58 611.61,-207.52 616.81,-180.19"/>
</g>
<!-- cv -->
<g id="node34" class="node">
<title>cv</title>
<ellipse fill="none" stroke="black" cx="801.08" cy="-234" rx="27" ry="18"/>
<text xml:space="preserve" text-anchor="middle" x="801.08" y="-229.8" font-family="Times,serif" font-size="14.00">cv</text>
</g>
<!-- vd&#45;&#45;cv -->
<g id="edge99" class="edge">
<title>vd&#45;&#45;cv</title>
<path fill="none" stroke="black" d="M615.54,-295.85C654.97,-281.62 735.7,-254.51 776.54,-241.84"/>
</g>
<!-- Taylor -->
<g id="node12" class="node">
<title>Taylor</title>
<ellipse fill="none" stroke="black" cx="293.08" cy="-378" rx="36.78" ry="18"/>
<text xml:space="preserve" text-anchor="middle" x="293.08" y="-373.8" font-family="Times,serif" font-size="14.00">Taylor</text>
</g>
<!-- Taylor&#45;&#45;vd -->
<g id="edge17" class="edge">
<title>Taylor&#45;&#45;vd</title>
<path fill="none" stroke="black" d="M321.08,-365.9C326.97,-363.78 333.19,-361.69 339.08,-360 420.9,-336.48 520.35,-318.8 566.8,-311.16"/>
</g>
<!-- Taylor&#45;&#45;crys -->
<g id="edge16" class="edge">
<title>Taylor&#45;&#45;crys</title>
<path fill="none" stroke="black" d="M316.79,-364.15C367.68,-336.57 486.62,-272.1 534.54,-246.13"/>
</g>
<!-- Taylor&#45;&#45;gcv -->
<g id="edge18" class="edge">
<title>Taylor&#45;&#45;gcv</title>
<path fill="none" stroke="black" d="M307.13,-361.44C336.5,-329.79 407.74,-257.42 481.08,-216 518.86,-194.66 566.91,-178.5 595.49,-169.92"/>
</g>
<!-- fd -->
<g id="node15" class="node">
<title>fd</title>
<ellipse fill="none" stroke="black" cx="578.08" cy="-18" rx="27" ry="18"/>
<text xml:space="preserve" text-anchor="middle" x="578.08" y="-13.8" font-family="Times,serif" font-size="14.00">fd</text>
</g>
<!-- Taylor&#45;&#45;fd -->
<g id="edge19" class="edge">
<title>Taylor&#45;&#45;fd</title>
<path fill="none" stroke="black" d="M291.66,-359.52C289.62,-332.74 286.08,-279.92 286.08,-235 286.08,-235 286.08,-235 286.08,-161 286.08,-43.89 478.38,-23.34 550.87,-19.75"/>
</g>
<!-- crys&#45;&#45;gcv -->
<g id="edge105" class="edge">
<title>crys&#45;&#45;gcv</title>
<path fill="none" stroke="black" d="M568.86,-218.15C579.89,-206.28 595.29,-189.7 606.31,-177.82"/>
</g>
<!-- crys&#45;&#45;fd -->
<g id="edge104" class="edge">
<title>crys&#45;&#45;fd</title>
<path fill="none" stroke="black" d="M556.92,-215.85C561.23,-175.78 571.91,-76.38 576.23,-36.23"/>
</g>
<!-- gcv&#45;&#45;fd -->
<g id="edge106" class="edge">
<title>gcv&#45;&#45;fd</title>
<path fill="none" stroke="black" d="M615.01,-143.87C606.9,-116.43 591.08,-62.95 583.03,-35.75"/>
</g>
<!-- gcv&#45;&#45;cg -->
<g id="edge107" class="edge">
<title>gcv&#45;&#45;cg</title>
<path fill="none" stroke="black" d="M643.81,-152.93C652.65,-150.01 662.79,-146.75 672.08,-144 734.12,-125.61 807.91,-106.73 845.82,-97.25"/>
</g>
<!-- Almgren -->
<g id="node16" class="node">
<title>Almgren</title>
<ellipse fill="none" stroke="black" cx="393.08" cy="-378" rx="45.36" ry="18"/>
<text xml:space="preserve" text-anchor="middle" x="393.08" y="-373.8" font-family="Times,serif" font-size="14.00">Almgren</text>
</g>
<!-- Almgren&#45;&#45;vd -->
<g id="edge21" class="edge">
<title>Almgren&#45;&#45;vd</title>
<path fill="none" stroke="black" d="M426.1,-365.44C466.49,-351.31 533.85,-327.73 569.41,-315.28"/>
</g>
<!-- Almgren&#45;&#45;crys -->
<g id="edge20" class="edge">
<title>Almgren&#45;&#45;crys</title>
<path fill="none" stroke="black" d="M419.03,-362.93C436.07,-353.11 458.39,-339.1 476.08,-324 502.79,-301.2 528.86,-269.43 543.37,-250.66"/>
</g>
<!-- Almgren&#45;&#45;gcv -->
<g id="edge22" class="edge">
<title>Almgren&#45;&#45;gcv</title>
<path fill="none" stroke="black" d="M402.95,-360.03C422.03,-328.38 466.74,-259.64 519.08,-216 542.96,-196.09 575.53,-180.67 597.16,-171.72"/>
</g>
<!-- Almgren&#45;&#45;fd -->
<g id="edge23" class="edge">
<title>Almgren&#45;&#45;fd</title>
<path fill="none" stroke="black" d="M397.5,-359.87C402.47,-341.65 411.27,-312.18 422.08,-288 467.23,-186.96 540.1,-75.24 567.35,-34.74"/>
</g>
<!-- Freedman -->
<g id="node17" class="node">
<title>Freedman</title>
<ellipse fill="none" stroke="black" cx="783.08" cy="-738" rx="49.65" ry="18"/>
<text xml:space="preserve" text-anchor="middle" x="783.08" y="-733.8" font-family="Times,serif" font-size="14.00">Freedman</text>
</g>
<!-- Freedman&#45;&#45;ldt -->
<g id="edge25" class="edge">
<title>Freedman&#45;&#45;ldt</title>
<path fill="none" stroke="black" d="M743.38,-726.9C685.82,-712.24 580.84,-685.52 533.01,-673.35"/>
</g>
<!-- Freedman&#45;&#45;gcv -->
<g id="edge24" class="edge">
<title>Freedman&#45;&#45;gcv</title>
<path fill="none" stroke="black" d="M830.74,-732.73C945.78,-721.33 1233.19,-685.85 1288.08,-612 1297.62,-599.16 1292.37,-591.41 1288.08,-576 1268.01,-503.97 1262.6,-474.5 1201.08,-432 1128.2,-381.66 1082.47,-439.07 1005.08,-396 990.92,-388.12 918.17,-299.81 907.08,-288 876.52,-255.47 875.82,-238.16 837.08,-216 775.14,-180.57 690.13,-168.69 647.22,-164.81"/>
</g>
<!-- Freedman&#45;&#45;ds -->
<g id="edge26" class="edge">
<title>Freedman&#45;&#45;ds</title>
<path fill="none" stroke="black" d="M781.13,-719.78C778.66,-701.48 773.55,-671.95 764.08,-648 758.78,-634.61 750.26,-620.71 743.34,-610.51"/>
</g>
<!-- ds&#45;&#45;ggt -->
<g id="edge75" class="edge">
<title>ds&#45;&#45;ggt</title>
<path fill="none" stroke="black" d="M705.99,-588.83C628.18,-576.4 398.3,-539.66 320.3,-527.19"/>
</g>
<!-- ds&#45;&#45;cd -->
<g id="edge76" class="edge">
<title>ds&#45;&#45;cd</title>
<path fill="none" stroke="black" d="M752.22,-581.44C774.96,-568.39 811.72,-547.3 834.31,-534.34"/>
</g>
<!-- fg -->
<g id="node23" class="node">
<title>fg</title>
<ellipse fill="none" stroke="black" cx="863.08" cy="-450" rx="27" ry="18"/>
<text xml:space="preserve" text-anchor="middle" x="863.08" y="-445.8" font-family="Times,serif" font-size="14.00">fg</text>
</g>
<!-- ds&#45;&#45;fg -->
<g id="edge77" class="edge">
<title>ds&#45;&#45;fg</title>
<path fill="none" stroke="black" d="M745.85,-578.07C771.07,-550.73 824.4,-492.92 849.49,-465.73"/>
</g>
<!-- sg -->
<g id="node26" class="node">
<title>sg</title>
<ellipse fill="none" stroke="black" cx="893.08" cy="-378" rx="27" ry="18"/>
<text xml:space="preserve" text-anchor="middle" x="893.08" y="-373.8" font-family="Times,serif" font-size="14.00">sg</text>
</g>
<!-- ds&#45;&#45;sg -->
<g id="edge78" class="edge">
<title>ds&#45;&#45;sg</title>
<path fill="none" stroke="black" d="M738.99,-576.43C752.5,-545.45 784.79,-477.77 827.08,-432 841.54,-416.35 860.79,-401.42 874.77,-391.42"/>
</g>
<!-- Milnor -->
<g id="node19" class="node">
<title>Milnor</title>
<ellipse fill="none" stroke="black" cx="563.08" cy="-738" rx="37.86" ry="18"/>
<text xml:space="preserve" text-anchor="middle" x="563.08" y="-733.8" font-family="Times,serif" font-size="14.00">Milnor</text>
</g>
<!-- Milnor&#45;&#45;ldt -->
<g id="edge27" class="edge">
<title>Milnor&#45;&#45;ldt</title>
<path fill="none" stroke="black" d="M550.32,-720.76C541.18,-709.13 528.96,-693.58 520.01,-682.19"/>
</g>
<!-- Milnor&#45;&#45;hg -->
<g id="edge30" class="edge">
<title>Milnor&#45;&#45;hg</title>
<path fill="none" stroke="black" d="M531.36,-727.71C510.48,-719.76 484.74,-706.03 472.08,-684 430.72,-612.04 474.07,-507.25 493.59,-467.3"/>
</g>
<!-- Milnor&#45;&#45;kt -->
<g id="edge31" class="edge">
<title>Milnor&#45;&#45;kt</title>
<path fill="none" stroke="black" d="M567.77,-719.76C576.44,-689.4 596.72,-625 625.08,-576 633.15,-562.05 644.78,-547.97 653.91,-537.82"/>
</g>
<!-- Milnor&#45;&#45;ds -->
<g id="edge29" class="edge">
<title>Milnor&#45;&#45;ds</title>
<path fill="none" stroke="black" d="M579.52,-721.44C598.86,-703.32 632.14,-672.72 662.08,-648 679.36,-633.73 699.87,-618.38 714.21,-607.88"/>
</g>
<!-- Milnor&#45;&#45;cd -->
<g id="edge28" class="edge">
<title>Milnor&#45;&#45;cd</title>
<path fill="none" stroke="black" d="M601.02,-735.69C644.57,-732.36 716.16,-721.15 764.08,-684 813.18,-645.94 839.54,-573.11 849.44,-540.06"/>
</g>
<!-- cd&#45;&#45;kg -->
<g id="edge82" class="edge">
<title>cd&#45;&#45;kg</title>
<path fill="none" stroke="black" d="M839.17,-506.6C811,-479.39 750.23,-420.68 722.02,-393.44"/>
</g>
<!-- cd&#45;&#45;fg -->
<g id="edge81" class="edge">
<title>cd&#45;&#45;fg</title>
<path fill="none" stroke="black" d="M856.3,-503.7C857.7,-492.85 859.49,-478.92 860.88,-468.1"/>
</g>
<!-- Douady -->
<g id="node21" class="node">
<title>Douady</title>
<ellipse fill="none" stroke="black" cx="713.08" cy="-666" rx="41.61" ry="18"/>
<text xml:space="preserve" text-anchor="middle" x="713.08" y="-661.8" font-family="Times,serif" font-size="14.00">Douady</text>
</g>
<!-- Douady&#45;&#45;kg -->
<g id="edge34" class="edge">
<title>Douady&#45;&#45;kg</title>
<path fill="none" stroke="black" d="M706.19,-648.14C702.37,-637.88 698.02,-624.41 696.08,-612 693.6,-596.19 694.33,-591.9 696.08,-576 697.87,-559.71 702.14,-556.28 704.08,-540 710.27,-488.09 709.01,-426.11 707.89,-396.47"/>
</g>
<!-- Douady&#45;&#45;ds -->
<g id="edge33" class="edge">
<title>Douady&#45;&#45;ds</title>
<path fill="none" stroke="black" d="M717.77,-647.7C720.72,-636.85 724.5,-622.92 727.44,-612.1"/>
</g>
<!-- Douady&#45;&#45;cd -->
<g id="edge32" class="edge">
<title>Douady&#45;&#45;cd</title>
<path fill="none" stroke="black" d="M729.59,-649.38C740.59,-638.9 755.32,-624.74 768.08,-612 793.92,-586.19 823.37,-555.41 840.23,-537.65"/>
</g>
<!-- Hubard -->
<g id="node22" class="node">
<title>Hubard</title>
<ellipse fill="none" stroke="black" cx="1000.08" cy="-666" rx="40" ry="18"/>
<text xml:space="preserve" text-anchor="middle" x="1000.08" y="-661.8" font-family="Times,serif" font-size="14.00">Hubard</text>
</g>
<!-- Hubard&#45;&#45;kg -->
<g id="edge37" class="edge">
<title>Hubard&#45;&#45;kg</title>
<path fill="none" stroke="black" d="M1026.35,-651.94C1041.27,-642.96 1058.61,-629.49 1067.08,-612 1074.05,-597.6 1073.02,-590.86 1067.08,-576 1050.68,-534.99 968.78,-453.28 930.08,-432 857.83,-392.27 826.99,-419.91 748.08,-396 741.74,-394.08 735.03,-391.53 728.92,-388.99"/>
</g>
<!-- Hubard&#45;&#45;ds -->
<g id="edge35" class="edge">
<title>Hubard&#45;&#45;ds</title>
<path fill="none" stroke="black" d="M966.14,-656.13C911.49,-641.86 805.25,-614.11 757,-601.51"/>
</g>
<!-- Hubard&#45;&#45;cd -->
<g id="edge36" class="edge">
<title>Hubard&#45;&#45;cd</title>
<path fill="none" stroke="black" d="M975.03,-651.47C958.39,-641.78 936.64,-627.71 920.08,-612 896.49,-589.63 875.28,-558.01 863.59,-539.1"/>
</g>
<!-- Hubard&#45;&#45;fg -->
<g id="edge38" class="edge">
<title>Hubard&#45;&#45;fg</title>
<path fill="none" stroke="black" d="M1020.34,-650.01C1031.4,-640.5 1044.05,-627.17 1050.08,-612 1055.98,-597.13 1057.62,-590.11 1050.08,-576 1031.76,-541.73 928.93,-485.21 884.04,-461.73"/>
</g>
<!-- fg&#45;&#45;kg -->
<g id="edge83" class="edge">
<title>fg&#45;&#45;kg</title>
<path fill="none" stroke="black" d="M841.06,-439.12C811.41,-425.82 758.96,-402.28 729.24,-388.94"/>
</g>
<!-- fg&#45;&#45;sg -->
<g id="edge84" class="edge">
<title>fg&#45;&#45;sg</title>
<path fill="none" stroke="black" d="M870.19,-432.41C874.97,-421.25 881.25,-406.6 886.02,-395.47"/>
</g>
<!-- Mandelbrot -->
<g id="node24" class="node">
<title>Mandelbrot</title>
<ellipse fill="none" stroke="black" cx="985.08" cy="-594" rx="56.09" ry="18"/>
<text xml:space="preserve" text-anchor="middle" x="985.08" y="-589.8" font-family="Times,serif" font-size="14.00">Mandelbrot</text>
</g>
<!-- Mandelbrot&#45;&#45;kg -->
<g id="edge41" class="edge">
<title>Mandelbrot&#45;&#45;kg</title>
<path fill="none" stroke="black" d="M980.88,-575.59C971.92,-542.27 947.63,-469.46 899.08,-432 844.45,-389.86 813.71,-417.28 748.08,-396 741.77,-393.96 735.08,-391.37 728.97,-388.83"/>
</g>
<!-- Mandelbrot&#45;&#45;cd -->
<g id="edge39" class="edge">
<title>Mandelbrot&#45;&#45;cd</title>
<path fill="none" stroke="black" d="M956.97,-577.98C932.32,-564.81 897.02,-545.95 874.84,-534.09"/>
</g>
<!-- Mandelbrot&#45;&#45;fg -->
<g id="edge40" class="edge">
<title>Mandelbrot&#45;&#45;fg</title>
<path fill="none" stroke="black" d="M968.2,-576.74C957.79,-566.47 944.31,-552.78 933.08,-540 911.27,-515.2 887.94,-484.62 874.48,-466.53"/>
</g>
<!-- Wilks -->
<g id="node25" class="node">
<title>Wilks</title>
<ellipse fill="none" stroke="black" cx="1245.08" cy="-594" rx="34.1" ry="18"/>
<text xml:space="preserve" text-anchor="middle" x="1245.08" y="-589.8" font-family="Times,serif" font-size="14.00">Wilks</text>
</g>
<!-- Wilks&#45;&#45;cd -->
<g id="edge44" class="edge">
<title>Wilks&#45;&#45;cd</title>
<path fill="none" stroke="black" d="M1213.08,-587.27C1137.57,-573.75 949.45,-540.07 880.2,-527.68"/>
</g>
<!-- Wilks&#45;&#45;sg -->
<g id="edge42" class="edge">
<title>Wilks&#45;&#45;sg</title>
<path fill="none" stroke="black" d="M1235.79,-576.52C1230.1,-566.17 1222.83,-552.47 1217.08,-540 1195.42,-493.09 1214.12,-464.65 1174.08,-432 1103.41,-374.37 1061.56,-413.6 972.08,-396 954.18,-392.48 934.09,-388.15 918.65,-384.74"/>
</g>
<!-- gv -->
<g id="node27" class="node">
<title>gv</title>
<ellipse fill="none" stroke="black" cx="1062.08" cy="-162" rx="27" ry="18"/>
<text xml:space="preserve" text-anchor="middle" x="1062.08" y="-157.8" font-family="Times,serif" font-size="14.00">gv</text>
</g>
<!-- Wilks&#45;&#45;gv -->
<g id="edge43" class="edge">
<title>Wilks&#45;&#45;gv</title>
<path fill="none" stroke="black" d="M1245.29,-575.61C1245.21,-535.89 1241.7,-436.03 1211.08,-360 1179.52,-281.64 1108.29,-207.22 1077.14,-177.08"/>
</g>
<!-- Wilks&#45;&#45;cg -->
<g id="edge45" class="edge">
<title>Wilks&#45;&#45;cg</title>
<path fill="none" stroke="black" d="M1249.95,-575.98C1252.64,-565.67 1255.72,-552.19 1257.08,-540 1258.86,-524.1 1257.37,-520 1257.08,-504 1254.69,-375.23 1290.39,-327 1225.08,-216 1203.06,-178.59 1197.06,-165.02 1159.08,-144 1072.78,-96.25 951.88,-90.43 898.39,-90.42"/>
</g>
<!-- sg&#45;&#45;gv -->
<g id="edge93" class="edge">
<title>sg&#45;&#45;gv</title>
<path fill="none" stroke="black" d="M907.33,-362.66C929.44,-340.08 972.8,-294.45 1005.08,-252 1023.51,-227.75 1042.01,-197.53 1052.73,-179.28"/>
</g>
<!-- sg&#45;&#45;cv -->
<g id="edge94" class="edge">
<title>sg&#45;&#45;cv</title>
<path fill="none" stroke="black" d="M887.48,-360.01C880.9,-341.38 868.84,-311.08 853.08,-288 842.9,-273.1 828.3,-258.64 817.16,-248.6"/>
</g>
<!-- dv -->
<g id="node36" class="node">
<title>dv</title>
<ellipse fill="none" stroke="black" cx="817.08" cy="-306" rx="27" ry="18"/>
<text xml:space="preserve" text-anchor="middle" x="817.08" y="-301.8" font-family="Times,serif" font-size="14.00">dv</text>
</g>
<!-- sg&#45;&#45;dv -->
<g id="edge92" class="edge">
<title>sg&#45;&#45;dv</title>
<path fill="none" stroke="black" d="M877.7,-362.83C864.51,-350.69 845.61,-333.28 832.43,-321.14"/>
</g>
<!-- cg&#45;&#45;fd -->
<g id="edge108" class="edge">
<title>cg&#45;&#45;fd</title>
<path fill="none" stroke="black" d="M845.84,-82.97C790.46,-69.74 658.78,-38.28 603.36,-25.04"/>
</g>
<!-- Dobkin -->
<g id="node29" class="node">
<title>Dobkin</title>
<ellipse fill="none" stroke="black" cx="1054.08" cy="-378" rx="40.01" ry="18"/>
<text xml:space="preserve" text-anchor="middle" x="1054.08" y="-373.8" font-family="Times,serif" font-size="14.00">Dobkin</text>
</g>
<!-- Dobkin&#45;&#45;vd -->
<g id="edge47" class="edge">
<title>Dobkin&#45;&#45;vd</title>
<path fill="none" stroke="black" d="M1016.35,-371.27C925.61,-357.49 696.9,-322.77 619.3,-310.98"/>
</g>
<!-- Dobkin&#45;&#45;gv -->
<g id="edge46" class="edge">
<title>Dobkin&#45;&#45;gv</title>
<path fill="none" stroke="black" d="M1054.72,-359.85C1056.22,-319.78 1059.93,-220.38 1061.43,-180.23"/>
</g>
<!-- Dobkin&#45;&#45;cg -->
<g id="edge48" class="edge">
<title>Dobkin&#45;&#45;cg</title>
<path fill="none" stroke="black" d="M1047.64,-360.04C1039.37,-340.3 1023.26,-307.88 1000.08,-288 968.31,-260.76 940.57,-283.55 913.08,-252 876.64,-210.19 871.23,-140.53 870.81,-108.32"/>
</g>
<!-- Chazelle -->
<g id="node30" class="node">
<title>Chazelle</title>
<ellipse fill="none" stroke="black" cx="1157.08" cy="-378" rx="44.82" ry="18"/>
<text xml:space="preserve" text-anchor="middle" x="1157.08" y="-373.8" font-family="Times,serif" font-size="14.00">Chazelle</text>
</g>
<!-- Chazelle&#45;&#45;vd -->
<g id="edge51" class="edge">
<title>Chazelle&#45;&#45;vd</title>
<path fill="none" stroke="black" d="M1123.94,-365.42C1117.11,-363.35 1109.91,-361.42 1103.08,-360 1055.52,-350.15 718.37,-318.57 619.97,-309.47"/>
</g>
<!-- Chazelle&#45;&#45;gv -->
<g id="edge50" class="edge">
<title>Chazelle&#45;&#45;gv</title>
<path fill="none" stroke="black" d="M1149.46,-359.85C1131.59,-319.58 1087.11,-219.4 1069.46,-179.64"/>
</g>
<!-- Chazelle&#45;&#45;cg -->
<g id="edge49" class="edge">
<title>Chazelle&#45;&#45;cg</title>
<path fill="none" stroke="black" d="M1158.37,-359.65C1160.58,-316.37 1159.85,-202.87 1098.08,-144 1069.37,-116.64 951.56,-100.11 897.91,-93.86"/>
</g>
<!-- Peskin -->
<g id="node31" class="node">
<title>Peskin</title>
<ellipse fill="none" stroke="black" cx="959.08" cy="-234" rx="36.79" ry="18"/>
<text xml:space="preserve" text-anchor="middle" x="959.08" y="-229.8" font-family="Times,serif" font-size="14.00">Peskin</text>
</g>
<!-- Peskin&#45;&#45;gcv -->
<g id="edge53" class="edge">
<title>Peskin&#45;&#45;gcv</title>
<path fill="none" stroke="black" d="M925.65,-226.1C857.99,-212.13 706.17,-180.78 645.67,-168.29"/>
</g>
<!-- Peskin&#45;&#45;fd -->
<g id="edge52" class="edge">
<title>Peskin&#45;&#45;fd</title>
<path fill="none" stroke="black" d="M959.01,-215.51C957.85,-182.05 950.22,-109.01 907.08,-72 861.8,-33.15 675.93,-22.5 605.39,-19.83"/>
</g>
<!-- Peskin&#45;&#45;gv -->
<g id="edge54" class="edge">
<title>Peskin&#45;&#45;gv</title>
<path fill="none" stroke="black" d="M979.92,-218.83C998.61,-206.13 1025.78,-187.67 1043.68,-175.5"/>
</g>
<!-- Tarjan -->
<g id="node32" class="node">
<title>Tarjan</title>
<ellipse fill="none" stroke="black" cx="549.08" cy="-522" rx="36.24" ry="18"/>
<text xml:space="preserve" text-anchor="middle" x="549.08" y="-517.8" font-family="Times,serif" font-size="14.00">Tarjan</text>
</g>
<!-- Tarjan&#45;&#45;hg -->
<g id="edge56" class="edge">
<title>Tarjan&#45;&#45;hg</title>
<path fill="none" stroke="black" d="M537.94,-504.41C530.34,-493.09 520.33,-478.18 512.81,-466.99"/>
</g>
<!-- Tarjan&#45;&#45;cg -->
<g id="edge55" class="edge">
<title>Tarjan&#45;&#45;cg</title>
<path fill="none" stroke="black" d="M560.16,-504.51C591.36,-458.24 683.06,-323.59 765.08,-216 790.16,-183.1 797.24,-175.48 824.08,-144 835.25,-130.9 848.26,-116.28 857.75,-105.71"/>
</g>
<!-- Mumford -->
<g id="node33" class="node">
<title>Mumford</title>
<ellipse fill="none" stroke="black" cx="1117.08" cy="-450" rx="48.05" ry="18"/>
<text xml:space="preserve" text-anchor="middle" x="1117.08" y="-445.8" font-family="Times,serif" font-size="14.00">Mumford</text>
</g>
<!-- Mumford&#45;&#45;kg -->
<g id="edge57" class="edge">
<title>Mumford&#45;&#45;kg</title>
<path fill="none" stroke="black" d="M1074.28,-441.59C1056.58,-438.56 1035.85,-435.06 1017.08,-432 914.52,-415.29 888.24,-414.94 786.08,-396 768.01,-392.65 747.74,-388.28 732.26,-384.81"/>
</g>
<!-- Mumford&#45;&#45;crys -->
<g id="edge61" class="edge">
<title>Mumford&#45;&#45;crys</title>
<path fill="none" stroke="black" d="M1080.2,-438.15C1071.97,-435.94 1063.26,-433.75 1055.08,-432 953.48,-410.23 919.82,-436.37 824.08,-396 799.51,-385.64 798.4,-374.59 776.08,-360 705.06,-313.56 615.89,-266.28 576.02,-245.69"/>
</g>
<!-- Mumford&#45;&#45;gcv -->
<g id="edge60" class="edge">
<title>Mumford&#45;&#45;gcv</title>
<path fill="none" stroke="black" d="M1079.84,-438.22C1071.71,-436.03 1063.13,-433.83 1055.08,-432 967.86,-412.16 936.86,-436.44 857.08,-396 843.15,-388.94 683.27,-227.18 634.27,-177.43"/>
</g>
<!-- Mumford&#45;&#45;cg -->
<g id="edge58" class="edge">
<title>Mumford&#45;&#45;cg</title>
<path fill="none" stroke="black" d="M1154.05,-438.4C1174.74,-430.37 1198.79,-417.03 1211.08,-396 1270.77,-293.82 1218.42,-216.75 1125.08,-144 1089.72,-116.45 955.85,-99.7 897.99,-93.61"/>
</g>
<!-- Mumford&#45;&#45;cv -->
<g id="edge59" class="edge">
<title>Mumford&#45;&#45;cv</title>
<path fill="none" stroke="black" d="M1080.71,-437.98C1043.96,-426.45 990.11,-408.33 972.08,-396 919.31,-359.91 924.75,-330.59 877.08,-288 859.32,-272.14 836.7,-256.9 820.76,-246.87"/>
</g>
<!-- cv&#45;&#45;vd -->
<g id="edge100" class="edge">
<title>cv&#45;&#45;vd</title>
<path fill="none" stroke="black" d="M778.23,-244.29C738.66,-258.56 658.32,-285.54 617.61,-298.16"/>
</g>
<!-- cv&#45;&#45;gcv -->
<g id="edge101" class="edge">
<title>cv&#45;&#45;gcv</title>
<path fill="none" stroke="black" d="M778.15,-224.13C743.43,-210.71 677.88,-185.35 643.1,-171.9"/>
</g>
<!-- cv&#45;&#45;gv -->
<g id="edge103" class="edge">
<title>cv&#45;&#45;gv</title>
<path fill="none" stroke="black" d="M825.63,-226.41C875.38,-213.07 987.55,-182.99 1037.4,-169.62"/>
</g>
<!-- cv&#45;&#45;cg -->
<g id="edge102" class="edge">
<title>cv&#45;&#45;cg</title>
<path fill="none" stroke="black" d="M809.24,-216.43C822.73,-189.07 849.51,-134.75 862.96,-107.46"/>
</g>
<!-- Thurston -->
<g id="node35" class="node">
<title>Thurston</title>
<ellipse fill="none" stroke="black" cx="1023.08" cy="-738" rx="45.91" ry="18"/>
<text xml:space="preserve" text-anchor="middle" x="1023.08" y="-733.8" font-family="Times,serif" font-size="14.00">Thurston</text>
</g>
<!-- Thurston&#45;&#45;ldt -->
<g id="edge68" class="edge">
<title>Thurston&#45;&#45;ldt</title>
<path fill="none" stroke="black" d="M979.77,-731.4C906.63,-721.92 754.01,-701.95 625.08,-684 593.97,-679.67 558.26,-674.44 534.55,-670.94"/>
</g>
<!-- Thurston&#45;&#45;kg -->
<g id="edge66" class="edge">
<title>Thurston&#45;&#45;kg</title>
<path fill="none" stroke="black" d="M1034.28,-720.12C1048.92,-696.92 1073.81,-653.34 1083.08,-612 1094.28,-562.05 1074.45,-544.44 1043.08,-504 1014.56,-467.24 1008.76,-452.68 967.08,-432 878.72,-388.15 842.93,-423.07 748.08,-396 741.71,-394.18 734.99,-391.67 728.88,-389.13"/>
</g>
<!-- Thurston&#45;&#45;ggt -->
<g id="edge62" class="edge">
<title>Thurston&#45;&#45;ggt</title>
<path fill="none" stroke="black" d="M978.73,-732.81C848.32,-720.48 475.05,-685.12 472.08,-684 394.28,-654.72 329.64,-573.3 304.89,-538.79"/>
</g>
<!-- Thurston&#45;&#45;kt -->
<g id="edge69" class="edge">
<title>Thurston&#45;&#45;kt</title>
<path fill="none" stroke="black" d="M979.24,-732.1C885.34,-721.4 672.39,-695.94 662.08,-684 626.6,-642.94 648.34,-571.65 660.95,-539.53"/>
</g>
<!-- Thurston&#45;&#45;vd -->
<g id="edge63" class="edge">
<title>Thurston&#45;&#45;vd</title>
<path fill="none" stroke="black" d="M1043.27,-721.51C1054.64,-711.83 1068.28,-698.48 1077.08,-684 1094.44,-655.4 1094.13,-645.09 1099.08,-612 1112.41,-522.74 1084.45,-474.97 1005.08,-432 914.47,-382.95 866.87,-444.7 776.08,-396 756.95,-385.74 761.18,-371.97 743.08,-360 722,-346.06 654.41,-324.97 617.57,-314.07"/>
</g>
<!-- Thurston&#45;&#45;cd -->
<g id="edge67" class="edge">
<title>Thurston&#45;&#45;cd</title>
<path fill="none" stroke="black" d="M999.57,-722.07C968.73,-701.23 915.12,-660.47 886.08,-612 872.24,-588.9 863,-558.87 858.14,-540.27"/>
</g>
<!-- Thurston&#45;&#45;gv -->
<g id="edge65" class="edge">
<title>Thurston&#45;&#45;gv</title>
<path fill="none" stroke="black" d="M1065.8,-731.03C1127.34,-719.88 1238.92,-689.55 1288.08,-612 1368.16,-485.68 1273.7,-416.45 1197.08,-288 1176.72,-253.88 1173.01,-243.23 1144.08,-216 1125.56,-198.58 1100.59,-183.37 1083.09,-173.77"/>
</g>
<!-- Thurston&#45;&#45;cg -->
<g id="edge64" class="edge">
<title>Thurston&#45;&#45;cg</title>
<path fill="none" stroke="black" d="M1064.37,-729.77C1158.93,-712.04 1383.08,-662.86 1383.08,-595 1383.08,-595 1383.08,-595 1383.08,-233 1383.08,-131.42 1004.09,-99.52 898.24,-92.59"/>
</g>
</g>
</svg>
