<?xml version="1.0" encoding="UTF-8" standalone="no"?>
<!DOCTYPE svg PUBLIC "-//W3C//DTD SVG 1.1//EN"
 "http://www.w3.org/Graphics/SVG/1.1/DTD/svg11.dtd">
<!-- Generated by graphviz version a (a)
 -->
<!-- Title: G Pages: 1 -->
<svg width="380pt" height="362pt"
 viewBox="0.00 0.00 380.00 362.00" xmlns="http://www.w3.org/2000/svg" xmlns:xlink="http://www.w3.org/1999/xlink">
<g id="graph0" class="graph" transform="scale(1 1) rotate(0) translate(4 357.92)">
<title>G</title>
<polygon fill="white" stroke="none" points="-4,4 -4,-357.92 376.04,-357.92 376.04,4 -4,4"/>
<!-- Marden -->
<g id="node1" class="node">
<title>Marden</title>
<ellipse fill="none" stroke="black" cx="63.15" cy="-76.34" rx="41.07" ry="18"/>
<text xml:space="preserve" text-anchor="middle" x="63.15" y="-72.14" font-family="Times,serif" font-size="14.00">Marden</text>
</g>
<!-- ldt -->
<g id="node2" class="node">
<title>ldt</title>
<ellipse fill="none" stroke="black" cx="113.65" cy="-102.16" rx="27" ry="18"/>
<text xml:space="preserve" text-anchor="middle" x="113.65" y="-97.96" font-family="Times,serif" font-size="14.00">ldt</text>
</g>
<!-- Marden&#45;&#45;ldt -->
<g id="edge1" class="edge">
<title>Marden&#45;&#45;ldt</title>
<path fill="none" stroke="black" d="M90.17,-90.16C90.73,-90.44 91.3,-90.73 91.86,-91.02"/>
</g>
<!-- kg -->
<g id="node3" class="node">
<title>kg</title>
<ellipse fill="none" stroke="black" cx="123.83" cy="-129.95" rx="27" ry="18"/>
<text xml:space="preserve" text-anchor="middle" x="123.83" y="-125.75" font-family="Times,serif" font-size="14.00">kg</text>
</g>
<!-- Marden&#45;&#45;kg -->
<g id="edge2" class="edge">
<title>Marden&#45;&#45;kg</title>
<path fill="none" stroke="black" d="M81.68,-92.71C89.91,-99.98 99.51,-108.46 107.46,-115.49"/>
</g>
<!-- hg -->
<g id="node4" class="node">
<title>hg</title>
<ellipse fill="none" stroke="black" cx="163.69" cy="-91.14" rx="27" ry="18"/>
<text xml:space="preserve" text-anchor="middle" x="163.69" y="-86.94" font-family="Times,serif" font-size="14.00">hg</text>
</g>
<!-- Marden&#45;&#45;hg -->
<g id="edge3" class="edge">
<title>Marden&#45;&#45;hg</title>
<path fill="none" stroke="black" d="M102.6,-82.15C114.15,-83.85 126.5,-85.67 137.05,-87.22"/>
</g>
<!-- ldt&#45;&#45;hg -->
<g id="edge72" class="edge">
<title>ldt&#45;&#45;hg</title>
<path fill="none" stroke="black" d="M139.55,-96.46C139.64,-96.44 139.74,-96.42 139.83,-96.4"/>
</g>
<!-- ggt -->
<g id="node6" class="node">
<title>ggt</title>
<ellipse fill="none" stroke="black" cx="147.43" cy="-52.64" rx="27" ry="18"/>
<text xml:space="preserve" text-anchor="middle" x="147.43" y="-48.44" font-family="Times,serif" font-size="14.00">ggt</text>
</g>
<!-- ldt&#45;&#45;ggt -->
<g id="edge71" class="edge">
<title>ldt&#45;&#45;ggt</title>
<path fill="none" stroke="black" d="M125.08,-85.4C128.61,-80.23 132.48,-74.55 136,-69.39"/>
</g>
<!-- kt -->
<g id="node9" class="node">
<title>kt</title>
<ellipse fill="none" stroke="black" cx="123.11" cy="-56.62" rx="27" ry="18"/>
<text xml:space="preserve" text-anchor="middle" x="123.11" y="-52.42" font-family="Times,serif" font-size="14.00">kt</text>
</g>
<!-- ldt&#45;&#45;kt -->
<g id="edge73" class="edge">
<title>ldt&#45;&#45;kt</title>
<path fill="none" stroke="black" d="M117.44,-83.9C118.06,-80.93 118.7,-77.86 119.32,-74.89"/>
</g>
<!-- ds -->
<g id="node18" class="node">
<title>ds</title>
<ellipse fill="none" stroke="black" cx="122.93" cy="-161.8" rx="27" ry="18"/>
<text xml:space="preserve" text-anchor="middle" x="122.93" y="-157.6" font-family="Times,serif" font-size="14.00">ds</text>
</g>
<!-- ldt&#45;&#45;ds -->
<g id="edge70" class="edge">
<title>ldt&#45;&#45;ds</title>
<path fill="none" stroke="black" d="M116.48,-120.38C117.63,-127.78 118.96,-136.31 120.11,-143.69"/>
</g>
<!-- cd -->
<g id="node20" class="node">
<title>cd</title>
<ellipse fill="none" stroke="black" cx="101.93" cy="-185.62" rx="27" ry="18"/>
<text xml:space="preserve" text-anchor="middle" x="101.93" y="-181.42" font-family="Times,serif" font-size="14.00">cd</text>
</g>
<!-- ldt&#45;&#45;cd -->
<g id="edge74" class="edge">
<title>ldt&#45;&#45;cd</title>
<path fill="none" stroke="black" d="M111.1,-120.27C109.15,-134.17 106.47,-153.29 104.5,-167.26"/>
</g>
<!-- vd -->
<g id="node11" class="node">
<title>vd</title>
<ellipse fill="none" stroke="black" cx="232.48" cy="-105.38" rx="27" ry="18"/>
<text xml:space="preserve" text-anchor="middle" x="232.48" y="-101.18" font-family="Times,serif" font-size="14.00">vd</text>
</g>
<!-- kg&#45;&#45;vd -->
<g id="edge91" class="edge">
<title>kg&#45;&#45;vd</title>
<path fill="none" stroke="black" d="M149.85,-124.06C167.06,-120.17 189.51,-115.09 206.67,-111.21"/>
</g>
<!-- hg&#45;&#45;kg -->
<g id="edge90" class="edge">
<title>hg&#45;&#45;kg</title>
<path fill="none" stroke="black" d="M148.39,-106.04C145.4,-108.94 142.27,-111.99 139.28,-114.9"/>
</g>
<!-- lat -->
<g id="node10" class="node">
<title>lat</title>
<ellipse fill="none" stroke="black" cx="221.76" cy="-30.3" rx="27" ry="18"/>
<text xml:space="preserve" text-anchor="middle" x="221.76" y="-26.1" font-family="Times,serif" font-size="14.00">lat</text>
</g>
<!-- hg&#45;&#45;lat -->
<g id="edge87" class="edge">
<title>hg&#45;&#45;lat</title>
<path fill="none" stroke="black" d="M178.34,-75.79C187.08,-66.64 198.14,-55.05 206.91,-45.86"/>
</g>
<!-- hg&#45;&#45;vd -->
<g id="edge88" class="edge">
<title>hg&#45;&#45;vd</title>
<path fill="none" stroke="black" d="M189.7,-96.52C195.18,-97.66 200.96,-98.85 206.44,-99.99"/>
</g>
<!-- cg -->
<g id="node28" class="node">
<title>cg</title>
<ellipse fill="none" stroke="black" cx="237.47" cy="-157.87" rx="27" ry="18"/>
<text xml:space="preserve" text-anchor="middle" x="237.47" y="-153.67" font-family="Times,serif" font-size="14.00">cg</text>
</g>
<!-- hg&#45;&#45;cg -->
<g id="edge89" class="edge">
<title>hg&#45;&#45;cg</title>
<path fill="none" stroke="black" d="M180.06,-105.95C192.29,-117.01 208.93,-132.06 221.14,-143.11"/>
</g>
<!-- Cannon -->
<g id="node5" class="node">
<title>Cannon</title>
<ellipse fill="none" stroke="black" cx="81.33" cy="-29.43" rx="41.08" ry="18"/>
<text xml:space="preserve" text-anchor="middle" x="81.33" y="-25.23" font-family="Times,serif" font-size="14.00">Cannon</text>
</g>
<!-- Cannon&#45;&#45;ldt -->
<g id="edge4" class="edge">
<title>Cannon&#45;&#45;ldt</title>
<path fill="none" stroke="black" d="M89.32,-47.41C94.37,-58.77 100.86,-73.37 105.86,-84.64"/>
</g>
<!-- Cannon&#45;&#45;kg -->
<g id="edge5" class="edge">
<title>Cannon&#45;&#45;kg</title>
<path fill="none" stroke="black" d="M88.93,-47.4C96.71,-65.81 108.73,-94.24 116.44,-112.47"/>
</g>
<!-- Cannon&#45;&#45;ggt -->
<g id="edge6" class="edge">
<title>Cannon&#45;&#45;ggt</title>
<path fill="none" stroke="black" d="M113.61,-40.77C116.88,-41.92 120.17,-43.07 123.34,-44.18"/>
</g>
<!-- ggt&#45;&#45;hg -->
<g id="edge86" class="edge">
<title>ggt&#45;&#45;hg</title>
<path fill="none" stroke="black" d="M154.8,-70.09C155.27,-71.2 155.74,-72.33 156.21,-73.44"/>
</g>
<!-- ggt&#45;&#45;lat -->
<g id="edge85" class="edge">
<title>ggt&#45;&#45;lat</title>
<path fill="none" stroke="black" d="M172.18,-45.2C180.12,-42.82 188.91,-40.17 196.86,-37.78"/>
</g>
<!-- Epstein -->
<g id="node7" class="node">
<title>Epstein</title>
<ellipse fill="none" stroke="black" cx="90.35" cy="-50.5" rx="40" ry="18"/>
<text xml:space="preserve" text-anchor="middle" x="90.35" y="-46.3" font-family="Times,serif" font-size="14.00">Epstein</text>
</g>
<!-- Epstein&#45;&#45;ldt -->
<g id="edge8" class="edge">
<title>Epstein&#45;&#45;ldt</title>
<path fill="none" stroke="black" d="M98.5,-68.57C100.86,-73.81 103.43,-79.51 105.78,-84.71"/>
</g>
<!-- Epstein&#45;&#45;kg -->
<g id="edge7" class="edge">
<title>Epstein&#45;&#45;kg</title>
<path fill="none" stroke="black" d="M97.95,-68.53C103.47,-81.62 110.89,-99.25 116.38,-112.27"/>
</g>
<!-- Epstein&#45;&#45;hg -->
<g id="edge10" class="edge">
<title>Epstein&#45;&#45;hg</title>
<path fill="none" stroke="black" d="M116,-64.72C124.76,-69.57 134.44,-74.93 142.78,-79.56"/>
</g>
<!-- Epstein&#45;&#45;ggt -->
<g id="edge9" class="edge">
<title>Epstein&#45;&#45;ggt</title>
<path fill="none" stroke="black" d="M130.61,-52.01C130.76,-52.02 130.91,-52.02 131.06,-52.03"/>
</g>
<!-- Conway -->
<g id="node8" class="node">
<title>Conway</title>
<ellipse fill="none" stroke="black" cx="189.94" cy="-18" rx="43.22" ry="18"/>
<text xml:space="preserve" text-anchor="middle" x="189.94" y="-13.8" font-family="Times,serif" font-size="14.00">Conway</text>
</g>
<!-- Conway&#45;&#45;hg -->
<g id="edge13" class="edge">
<title>Conway&#45;&#45;hg</title>
<path fill="none" stroke="black" d="M183.45,-36.08C179.38,-47.42 174.16,-61.97 170.1,-73.27"/>
</g>
<!-- Conway&#45;&#45;ggt -->
<g id="edge11" class="edge">
<title>Conway&#45;&#45;ggt</title>
<path fill="none" stroke="black" d="M170.18,-34.1C168.36,-35.59 166.52,-37.08 164.73,-38.55"/>
</g>
<!-- Conway&#45;&#45;kt -->
<g id="edge12" class="edge">
<title>Conway&#45;&#45;kt</title>
<path fill="none" stroke="black" d="M164.3,-32.82C157.52,-36.74 150.3,-40.91 143.82,-44.65"/>
</g>
<!-- Conway&#45;&#45;lat -->
<g id="edge14" class="edge">
<title>Conway&#45;&#45;lat</title>
<path fill="none" stroke="black" d="M221.67,-30.27C221.7,-30.28 221.72,-30.29 221.74,-30.29"/>
</g>
<!-- Conway&#45;&#45;vd -->
<g id="edge15" class="edge">
<title>Conway&#45;&#45;vd</title>
<path fill="none" stroke="black" d="M198.76,-36.1C206.16,-51.3 216.66,-72.87 223.97,-87.89"/>
</g>
<!-- kt&#45;&#45;kg -->
<g id="edge80" class="edge">
<title>kt&#45;&#45;kg</title>
<path fill="none" stroke="black" d="M123.29,-74.75C123.4,-85.94 123.54,-100.27 123.65,-111.52"/>
</g>
<!-- kt&#45;&#45;hg -->
<g id="edge79" class="edge">
<title>kt&#45;&#45;hg</title>
<path fill="none" stroke="black" d="M140.09,-71.06C142.26,-72.91 144.48,-74.8 146.65,-76.65"/>
</g>
<!-- lat&#45;&#45;vd -->
<g id="edge96" class="edge">
<title>lat&#45;&#45;vd</title>
<path fill="none" stroke="black" d="M224.36,-48.48C226.03,-60.19 228.2,-75.38 229.88,-87.11"/>
</g>
<!-- crys -->
<g id="node13" class="node">
<title>crys</title>
<ellipse fill="none" stroke="black" cx="274.94" cy="-56.29" rx="27.13" ry="18"/>
<text xml:space="preserve" text-anchor="middle" x="274.94" y="-52.09" font-family="Times,serif" font-size="14.00">crys</text>
</g>
<!-- lat&#45;&#45;crys -->
<g id="edge95" class="edge">
<title>lat&#45;&#45;crys</title>
<path fill="none" stroke="black" d="M244.01,-41.17C246.97,-42.62 250,-44.1 252.95,-45.55"/>
</g>
<!-- vd&#45;&#45;crys -->
<g id="edge97" class="edge">
<title>vd&#45;&#45;crys</title>
<path fill="none" stroke="black" d="M246.15,-89.58C251,-83.97 256.45,-77.67 261.3,-72.06"/>
</g>
<!-- gcv -->
<g id="node14" class="node">
<title>gcv</title>
<ellipse fill="none" stroke="black" cx="281.64" cy="-123.4" rx="27" ry="18"/>
<text xml:space="preserve" text-anchor="middle" x="281.64" y="-119.2" font-family="Times,serif" font-size="14.00">gcv</text>
</g>
<!-- vd&#45;&#45;gcv -->
<g id="edge98" class="edge">
<title>vd&#45;&#45;gcv</title>
<path fill="none" stroke="black" d="M256.49,-114.18C256.88,-114.32 257.27,-114.46 257.66,-114.61"/>
</g>
<!-- cv -->
<g id="node34" class="node">
<title>cv</title>
<ellipse fill="none" stroke="black" cx="245.64" cy="-196.74" rx="27" ry="18"/>
<text xml:space="preserve" text-anchor="middle" x="245.64" y="-192.54" font-family="Times,serif" font-size="14.00">cv</text>
</g>
<!-- vd&#45;&#45;cv -->
<g id="edge99" class="edge">
<title>vd&#45;&#45;cv</title>
<path fill="none" stroke="black" d="M229.62,-123.77C230.23,-139.98 233.59,-163.43 237.56,-179.34"/>
</g>
<!-- Taylor -->
<g id="node12" class="node">
<title>Taylor</title>
<ellipse fill="none" stroke="black" cx="317.82" cy="-76.47" rx="36.78" ry="18"/>
<text xml:space="preserve" text-anchor="middle" x="317.82" y="-72.27" font-family="Times,serif" font-size="14.00">Taylor</text>
</g>
<!-- Taylor&#45;&#45;vd -->
<g id="edge17" class="edge">
<title>Taylor&#45;&#45;vd</title>
<path fill="none" stroke="black" d="M287.49,-86.74C277.43,-90.15 266.37,-93.9 256.82,-97.13"/>
</g>
<!-- Taylor&#45;&#45;crys -->
<g id="edge16" class="edge">
<title>Taylor&#45;&#45;crys</title>
<path fill="none" stroke="black" d="M290.91,-63.8C290.77,-63.74 290.64,-63.68 290.5,-63.61"/>
</g>
<!-- Taylor&#45;&#45;gcv -->
<g id="edge18" class="edge">
<title>Taylor&#45;&#45;gcv</title>
<path fill="none" stroke="black" d="M304.56,-93.68C301.17,-98.07 297.54,-102.78 294.19,-107.13"/>
</g>
<!-- fd -->
<g id="node15" class="node">
<title>fd</title>
<ellipse fill="none" stroke="black" cx="332.74" cy="-122.95" rx="27" ry="18"/>
<text xml:space="preserve" text-anchor="middle" x="332.74" y="-118.75" font-family="Times,serif" font-size="14.00">fd</text>
</g>
<!-- Taylor&#45;&#45;fd -->
<g id="edge19" class="edge">
<title>Taylor&#45;&#45;fd</title>
<path fill="none" stroke="black" d="M323.63,-94.57C324.75,-98.04 325.91,-101.66 327.02,-105.12"/>
</g>
<!-- crys&#45;&#45;gcv -->
<g id="edge105" class="edge">
<title>crys&#45;&#45;gcv</title>
<path fill="none" stroke="black" d="M276.77,-74.63C277.72,-84.1 278.87,-95.62 279.81,-105.09"/>
</g>
<!-- crys&#45;&#45;fd -->
<g id="edge104" class="edge">
<title>crys&#45;&#45;fd</title>
<path fill="none" stroke="black" d="M288.64,-72.09C297.85,-82.71 309.95,-96.66 319.14,-107.26"/>
</g>
<!-- gcv&#45;&#45;fd -->
<g id="edge106" class="edge">
<title>gcv&#45;&#45;fd</title>
<path fill="none" stroke="black" d="M308.99,-123.16C309.08,-123.16 309.18,-123.16 309.27,-123.15"/>
</g>
<!-- gcv&#45;&#45;cg -->
<g id="edge107" class="edge">
<title>gcv&#45;&#45;cg</title>
<path fill="none" stroke="black" d="M263.93,-137.22C261.05,-139.47 258.07,-141.8 255.19,-144.05"/>
</g>
<!-- Almgren -->
<g id="node16" class="node">
<title>Almgren</title>
<ellipse fill="none" stroke="black" cx="308.48" cy="-54.83" rx="45.36" ry="18"/>
<text xml:space="preserve" text-anchor="middle" x="308.48" y="-50.63" font-family="Times,serif" font-size="14.00">Almgren</text>
</g>
<!-- Almgren&#45;&#45;vd -->
<g id="edge21" class="edge">
<title>Almgren&#45;&#45;vd</title>
<path fill="none" stroke="black" d="M284.85,-70.55C274.22,-77.62 261.83,-85.86 251.77,-92.55"/>
</g>
<!-- Almgren&#45;&#45;crys -->
<g id="edge20" class="edge">
<title>Almgren&#45;&#45;crys</title>
<path fill="none" stroke="black" d="M275.04,-56.29C275,-56.29 274.98,-56.29 274.96,-56.29"/>
</g>
<!-- Almgren&#45;&#45;gcv -->
<g id="edge22" class="edge">
<title>Almgren&#45;&#45;gcv</title>
<path fill="none" stroke="black" d="M301.43,-72.85C297.45,-83.01 292.51,-95.64 288.55,-105.74"/>
</g>
<!-- Almgren&#45;&#45;fd -->
<g id="edge23" class="edge">
<title>Almgren&#45;&#45;fd</title>
<path fill="none" stroke="black" d="M314.98,-73.09C318.52,-83.02 322.88,-95.25 326.39,-105.11"/>
</g>
<!-- Freedman -->
<g id="node17" class="node">
<title>Freedman</title>
<ellipse fill="none" stroke="black" cx="194.41" cy="-83.56" rx="49.65" ry="18"/>
<text xml:space="preserve" text-anchor="middle" x="194.41" y="-79.36" font-family="Times,serif" font-size="14.00">Freedman</text>
</g>
<!-- Freedman&#45;&#45;ldt -->
<g id="edge25" class="edge">
<title>Freedman&#45;&#45;ldt</title>
<path fill="none" stroke="black" d="M152.13,-93.3C147.86,-94.28 143.61,-95.26 139.59,-96.19"/>
</g>
<!-- Freedman&#45;&#45;gcv -->
<g id="edge24" class="edge">
<title>Freedman&#45;&#45;gcv</title>
<path fill="none" stroke="black" d="M225.9,-97.94C236.83,-102.94 248.87,-108.43 258.95,-113.04"/>
</g>
<!-- Freedman&#45;&#45;ds -->
<g id="edge26" class="edge">
<title>Freedman&#45;&#45;ds</title>
<path fill="none" stroke="black" d="M178.54,-100.92C166.2,-114.43 149.23,-133.01 137.29,-146.08"/>
</g>
<!-- ds&#45;&#45;ggt -->
<g id="edge75" class="edge">
<title>ds&#45;&#45;ggt</title>
<path fill="none" stroke="black" d="M126.97,-143.77C131.51,-123.55 138.84,-90.93 143.38,-70.69"/>
</g>
<!-- ds&#45;&#45;cd -->
<g id="edge76" class="edge">
<title>ds&#45;&#45;cd</title>
<path fill="none" stroke="black" d="M109.03,-177.56C108.91,-177.69 108.79,-177.83 108.67,-177.97"/>
</g>
<!-- fg -->
<g id="node23" class="node">
<title>fg</title>
<ellipse fill="none" stroke="black" cx="106.48" cy="-224.35" rx="27" ry="18"/>
<text xml:space="preserve" text-anchor="middle" x="106.48" y="-220.15" font-family="Times,serif" font-size="14.00">fg</text>
</g>
<!-- ds&#45;&#45;fg -->
<g id="edge77" class="edge">
<title>ds&#45;&#45;fg</title>
<path fill="none" stroke="black" d="M118.17,-179.89C115.97,-188.26 113.36,-198.17 111.17,-206.51"/>
</g>
<!-- sg -->
<g id="node26" class="node">
<title>sg</title>
<ellipse fill="none" stroke="black" cx="167.28" cy="-253.83" rx="27" ry="18"/>
<text xml:space="preserve" text-anchor="middle" x="167.28" y="-249.63" font-family="Times,serif" font-size="14.00">sg</text>
</g>
<!-- ds&#45;&#45;sg -->
<g id="edge78" class="edge">
<title>ds&#45;&#45;sg</title>
<path fill="none" stroke="black" d="M131.27,-179.11C139.15,-195.46 150.91,-219.86 158.83,-236.28"/>
</g>
<!-- Milnor -->
<g id="node19" class="node">
<title>Milnor</title>
<ellipse fill="none" stroke="black" cx="72.31" cy="-117.36" rx="37.86" ry="18"/>
<text xml:space="preserve" text-anchor="middle" x="72.31" y="-113.16" font-family="Times,serif" font-size="14.00">Milnor</text>
</g>
<!-- Milnor&#45;&#45;ldt -->
<g id="edge27" class="edge">
<title>Milnor&#45;&#45;ldt</title>
<path fill="none" stroke="black" d="M102.79,-106.16C102.88,-106.12 102.98,-106.09 103.07,-106.05"/>
</g>
<!-- Milnor&#45;&#45;hg -->
<g id="edge30" class="edge">
<title>Milnor&#45;&#45;hg</title>
<path fill="none" stroke="black" d="M105.04,-107.97C116.1,-104.8 128.27,-101.31 138.64,-98.33"/>
</g>
<!-- Milnor&#45;&#45;kt -->
<g id="edge31" class="edge">
<title>Milnor&#45;&#45;kt</title>
<path fill="none" stroke="black" d="M86.46,-100.44C93.74,-91.74 102.57,-81.19 109.74,-72.62"/>
</g>
<!-- Milnor&#45;&#45;ds -->
<g id="edge29" class="edge">
<title>Milnor&#45;&#45;ds</title>
<path fill="none" stroke="black" d="M90.58,-133.4C95.79,-137.98 101.44,-142.93 106.53,-147.4"/>
</g>
<!-- Milnor&#45;&#45;cd -->
<g id="edge28" class="edge">
<title>Milnor&#45;&#45;cd</title>
<path fill="none" stroke="black" d="M80.09,-135.3C84.48,-145.41 89.94,-157.99 94.3,-168.04"/>
</g>
<!-- cd&#45;&#45;kg -->
<g id="edge82" class="edge">
<title>cd&#45;&#45;kg</title>
<path fill="none" stroke="black" d="M108.85,-168.01C111.41,-161.51 114.31,-154.15 116.87,-147.64"/>
</g>
<!-- cd&#45;&#45;fg -->
<g id="edge81" class="edge">
<title>cd&#45;&#45;fg</title>
<path fill="none" stroke="black" d="M104.04,-203.62C104.14,-204.41 104.23,-205.21 104.32,-206"/>
</g>
<!-- Douady -->
<g id="node21" class="node">
<title>Douady</title>
<ellipse fill="none" stroke="black" cx="42.57" cy="-148.99" rx="41.61" ry="18"/>
<text xml:space="preserve" text-anchor="middle" x="42.57" y="-144.79" font-family="Times,serif" font-size="14.00">Douady</text>
</g>
<!-- Douady&#45;&#45;kg -->
<g id="edge34" class="edge">
<title>Douady&#45;&#45;kg</title>
<path fill="none" stroke="black" d="M79.39,-140.36C85.78,-138.86 92.29,-137.34 98.28,-135.93"/>
</g>
<!-- Douady&#45;&#45;ds -->
<g id="edge33" class="edge">
<title>Douady&#45;&#45;ds</title>
<path fill="none" stroke="black" d="M81.81,-155.24C86.75,-156.03 91.71,-156.82 96.38,-157.57"/>
</g>
<!-- Douady&#45;&#45;cd -->
<g id="edge32" class="edge">
<title>Douady&#45;&#45;cd</title>
<path fill="none" stroke="black" d="M66.71,-163.89C71.72,-166.98 76.94,-170.2 81.79,-173.19"/>
</g>
<!-- Hubard -->
<g id="node22" class="node">
<title>Hubard</title>
<ellipse fill="none" stroke="black" cx="54.31" cy="-180.12" rx="40" ry="18"/>
<text xml:space="preserve" text-anchor="middle" x="54.31" y="-175.92" font-family="Times,serif" font-size="14.00">Hubard</text>
</g>
<!-- Hubard&#45;&#45;kg -->
<g id="edge37" class="edge">
<title>Hubard&#45;&#45;kg</title>
<path fill="none" stroke="black" d="M75.92,-164.52C85.33,-157.73 96.24,-149.85 105.27,-143.34"/>
</g>
<!-- Hubard&#45;&#45;ds -->
<g id="edge35" class="edge">
<title>Hubard&#45;&#45;ds</title>
<path fill="none" stroke="black" d="M89.02,-170.85C91.94,-170.07 94.87,-169.29 97.7,-168.53"/>
</g>
<!-- Hubard&#45;&#45;cd -->
<g id="edge36" class="edge">
<title>Hubard&#45;&#45;cd</title>
<path fill="none" stroke="black" d="M93.19,-184.61C93.35,-184.63 93.51,-184.65 93.67,-184.67"/>
</g>
<!-- Hubard&#45;&#45;fg -->
<g id="edge38" class="edge">
<title>Hubard&#45;&#45;fg</title>
<path fill="none" stroke="black" d="M73.44,-196.34C78.68,-200.77 84.31,-205.55 89.42,-209.89"/>
</g>
<!-- fg&#45;&#45;kg -->
<g id="edge83" class="edge">
<title>fg&#45;&#45;kg</title>
<path fill="none" stroke="black" d="M109.83,-206.15C112.9,-189.43 117.42,-164.79 120.49,-148.09"/>
</g>
<!-- fg&#45;&#45;sg -->
<g id="edge84" class="edge">
<title>fg&#45;&#45;sg</title>
<path fill="none" stroke="black" d="M128.78,-235.16C134.06,-237.72 139.7,-240.46 144.99,-243.02"/>
</g>
<!-- Mandelbrot -->
<g id="node24" class="node">
<title>Mandelbrot</title>
<ellipse fill="none" stroke="black" cx="56.09" cy="-212.37" rx="56.09" ry="18"/>
<text xml:space="preserve" text-anchor="middle" x="56.09" y="-208.17" font-family="Times,serif" font-size="14.00">Mandelbrot</text>
</g>
<!-- Mandelbrot&#45;&#45;kg -->
<g id="edge41" class="edge">
<title>Mandelbrot&#45;&#45;kg</title>
<path fill="none" stroke="black" d="M70.46,-194.89C82.34,-180.43 99.08,-160.06 110.63,-146"/>
</g>
<!-- Mandelbrot&#45;&#45;cd -->
<g id="edge39" class="edge">
<title>Mandelbrot&#45;&#45;cd</title>
<path fill="none" stroke="black" d="M83.55,-196.35C83.7,-196.26 83.85,-196.17 84,-196.08"/>
</g>
<!-- Mandelbrot&#45;&#45;fg -->
<g id="edge40" class="edge">
<title>Mandelbrot&#45;&#45;fg</title>
<path fill="none" stroke="black" d="M101.83,-223.24C102.01,-223.29 102.19,-223.33 102.36,-223.37"/>
</g>
<!-- Wilks -->
<g id="node25" class="node">
<title>Wilks</title>
<ellipse fill="none" stroke="black" cx="188.27" cy="-237.99" rx="34.1" ry="18"/>
<text xml:space="preserve" text-anchor="middle" x="188.27" y="-233.79" font-family="Times,serif" font-size="14.00">Wilks</text>
</g>
<!-- Wilks&#45;&#45;cd -->
<g id="edge44" class="edge">
<title>Wilks&#45;&#45;cd</title>
<path fill="none" stroke="black" d="M165.59,-224.23C152.1,-216.05 135.13,-205.76 122.11,-197.86"/>
</g>
<!-- Wilks&#45;&#45;sg -->
<g id="edge42" class="edge">
<title>Wilks&#45;&#45;sg</title>
<path fill="none" stroke="black" d="M168.41,-252.98C168.05,-253.25 167.77,-253.46 167.58,-253.6"/>
</g>
<!-- gv -->
<g id="node27" class="node">
<title>gv</title>
<ellipse fill="none" stroke="black" cx="241.52" cy="-236.51" rx="27" ry="18"/>
<text xml:space="preserve" text-anchor="middle" x="241.52" y="-232.31" font-family="Times,serif" font-size="14.00">gv</text>
</g>
<!-- Wilks&#45;&#45;gv -->
<g id="edge43" class="edge">
<title>Wilks&#45;&#45;gv</title>
<path fill="none" stroke="black" d="M222.6,-237.04C222.76,-237.03 222.92,-237.03 223.08,-237.02"/>
</g>
<!-- Wilks&#45;&#45;cg -->
<g id="edge45" class="edge">
<title>Wilks&#45;&#45;cg</title>
<path fill="none" stroke="black" d="M198.95,-220.6C207.26,-207.07 218.73,-188.4 226.99,-174.95"/>
</g>
<!-- sg&#45;&#45;gv -->
<g id="edge93" class="edge">
<title>sg&#45;&#45;gv</title>
<path fill="none" stroke="black" d="M193.25,-247.77C200.52,-246.08 208.43,-244.23 215.69,-242.54"/>
</g>
<!-- sg&#45;&#45;cv -->
<g id="edge94" class="edge">
<title>sg&#45;&#45;cv</title>
<path fill="none" stroke="black" d="M185.85,-240.3C198.34,-231.2 214.74,-219.25 227.2,-210.17"/>
</g>
<!-- dv -->
<g id="node36" class="node">
<title>dv</title>
<ellipse fill="none" stroke="black" cx="168.37" cy="-335.92" rx="27" ry="18"/>
<text xml:space="preserve" text-anchor="middle" x="168.37" y="-331.72" font-family="Times,serif" font-size="14.00">dv</text>
</g>
<!-- sg&#45;&#45;dv -->
<g id="edge92" class="edge">
<title>sg&#45;&#45;dv</title>
<path fill="none" stroke="black" d="M167.52,-272.05C167.7,-285.56 167.95,-303.91 168.13,-317.47"/>
</g>
<!-- cg&#45;&#45;fd -->
<g id="edge108" class="edge">
<title>cg&#45;&#45;fd</title>
<path fill="none" stroke="black" d="M261.51,-149.06C275.96,-143.76 294.27,-137.05 308.71,-131.76"/>
</g>
<!-- Dobkin -->
<g id="node29" class="node">
<title>Dobkin</title>
<ellipse fill="none" stroke="black" cx="295.37" cy="-172.97" rx="40.01" ry="18"/>
<text xml:space="preserve" text-anchor="middle" x="295.37" y="-168.77" font-family="Times,serif" font-size="14.00">Dobkin</text>
</g>
<!-- Dobkin&#45;&#45;vd -->
<g id="edge47" class="edge">
<title>Dobkin&#45;&#45;vd</title>
<path fill="none" stroke="black" d="M279.82,-156.26C269.79,-145.47 256.81,-131.53 246.99,-120.97"/>
</g>
<!-- Dobkin&#45;&#45;gv -->
<g id="edge46" class="edge">
<title>Dobkin&#45;&#45;gv</title>
<path fill="none" stroke="black" d="M280.94,-190C272.84,-199.56 262.8,-211.4 254.88,-220.75"/>
</g>
<!-- Dobkin&#45;&#45;cg -->
<g id="edge48" class="edge">
<title>Dobkin&#45;&#45;cg</title>
<path fill="none" stroke="black" d="M260.36,-163.84C260.26,-163.81 260.16,-163.79 260.07,-163.77"/>
</g>
<!-- Chazelle -->
<g id="node30" class="node">
<title>Chazelle</title>
<ellipse fill="none" stroke="black" cx="285.97" cy="-199.67" rx="44.82" ry="18"/>
<text xml:space="preserve" text-anchor="middle" x="285.97" y="-195.47" font-family="Times,serif" font-size="14.00">Chazelle</text>
</g>
<!-- Chazelle&#45;&#45;vd -->
<g id="edge51" class="edge">
<title>Chazelle&#45;&#45;vd</title>
<path fill="none" stroke="black" d="M275.91,-181.94C266.23,-164.86 251.69,-139.23 242.14,-122.4"/>
</g>
<!-- Chazelle&#45;&#45;gv -->
<g id="edge50" class="edge">
<title>Chazelle&#45;&#45;gv</title>
<path fill="none" stroke="black" d="M266.09,-216.15C263.59,-218.22 261.05,-220.32 258.6,-222.35"/>
</g>
<!-- Chazelle&#45;&#45;cg -->
<g id="edge49" class="edge">
<title>Chazelle&#45;&#45;cg</title>
<path fill="none" stroke="black" d="M266.8,-183.15C262.67,-179.59 258.34,-175.85 254.3,-172.38"/>
</g>
<!-- Peskin -->
<g id="node31" class="node">
<title>Peskin</title>
<ellipse fill="none" stroke="black" cx="335.25" cy="-199.1" rx="36.79" ry="18"/>
<text xml:space="preserve" text-anchor="middle" x="335.25" y="-194.9" font-family="Times,serif" font-size="14.00">Peskin</text>
</g>
<!-- Peskin&#45;&#45;gcv -->
<g id="edge53" class="edge">
<title>Peskin&#45;&#45;gcv</title>
<path fill="none" stroke="black" d="M323.09,-181.92C314.19,-169.36 302.19,-152.41 293.39,-139.99"/>
</g>
<!-- Peskin&#45;&#45;fd -->
<g id="edge52" class="edge">
<title>Peskin&#45;&#45;fd</title>
<path fill="none" stroke="black" d="M334.64,-180.66C334.25,-168.69 333.74,-153.15 333.35,-141.21"/>
</g>
<!-- Peskin&#45;&#45;gv -->
<g id="edge54" class="edge">
<title>Peskin&#45;&#45;gv</title>
<path fill="none" stroke="black" d="M306.36,-210.63C293.13,-215.91 277.64,-222.09 265.12,-227.09"/>
</g>
<!-- Tarjan -->
<g id="node32" class="node">
<title>Tarjan</title>
<ellipse fill="none" stroke="black" cx="180.23" cy="-187.11" rx="36.24" ry="18"/>
<text xml:space="preserve" text-anchor="middle" x="180.23" y="-182.91" font-family="Times,serif" font-size="14.00">Tarjan</text>
</g>
<!-- Tarjan&#45;&#45;hg -->
<g id="edge56" class="edge">
<title>Tarjan&#45;&#45;hg</title>
<path fill="none" stroke="black" d="M177.12,-169.06C174.18,-152.01 169.79,-126.57 166.84,-109.44"/>
</g>
<!-- Tarjan&#45;&#45;cg -->
<g id="edge55" class="edge">
<title>Tarjan&#45;&#45;cg</title>
<path fill="none" stroke="black" d="M205.84,-174.03C209.17,-172.33 212.56,-170.6 215.82,-168.93"/>
</g>
<!-- Mumford -->
<g id="node33" class="node">
<title>Mumford</title>
<ellipse fill="none" stroke="black" cx="214.29" cy="-128.9" rx="48.05" ry="18"/>
<text xml:space="preserve" text-anchor="middle" x="214.29" y="-124.7" font-family="Times,serif" font-size="14.00">Mumford</text>
</g>
<!-- Mumford&#45;&#45;kg -->
<g id="edge57" class="edge">
<title>Mumford&#45;&#45;kg</title>
<path fill="none" stroke="black" d="M165.88,-129.46C160.84,-129.52 155.85,-129.58 151.17,-129.63"/>
</g>
<!-- Mumford&#45;&#45;crys -->
<g id="edge61" class="edge">
<title>Mumford&#45;&#45;crys</title>
<path fill="none" stroke="black" d="M228.97,-111.33C238.93,-99.41 251.98,-83.78 261.64,-72.22"/>
</g>
<!-- Mumford&#45;&#45;gcv -->
<g id="edge60" class="edge">
<title>Mumford&#45;&#45;gcv</title>
<path fill="none" stroke="black" d="M261.44,-125.05C261.53,-125.04 261.61,-125.04 261.7,-125.03"/>
</g>
<!-- Mumford&#45;&#45;cg -->
<g id="edge58" class="edge">
<title>Mumford&#45;&#45;cg</title>
<path fill="none" stroke="black" d="M228.31,-146.42C228.39,-146.52 228.46,-146.61 228.54,-146.71"/>
</g>
<!-- Mumford&#45;&#45;cv -->
<g id="edge59" class="edge">
<title>Mumford&#45;&#45;cv</title>
<path fill="none" stroke="black" d="M222.69,-147.08C227.33,-157.13 233.07,-169.54 237.65,-179.44"/>
</g>
<!-- cv&#45;&#45;vd -->
<g id="edge100" class="edge">
<title>cv&#45;&#45;vd</title>
<path fill="none" stroke="black" d="M248.5,-178.34C247.89,-162.13 244.53,-138.69 240.56,-122.78"/>
</g>
<!-- cv&#45;&#45;gcv -->
<g id="edge101" class="edge">
<title>cv&#45;&#45;gcv</title>
<path fill="none" stroke="black" d="M254.17,-179.36C259.87,-167.75 267.34,-152.54 273.05,-140.91"/>
</g>
<!-- cv&#45;&#45;gv -->
<g id="edge103" class="edge">
<title>cv&#45;&#45;gv</title>
<path fill="none" stroke="black" d="M243.77,-214.76C243.65,-215.91 243.53,-217.07 243.41,-218.23"/>
</g>
<!-- cv&#45;&#45;cg -->
<g id="edge102" class="edge">
<title>cv&#45;&#45;cg</title>
<path fill="none" stroke="black" d="M241.84,-178.67C241.64,-177.72 241.44,-176.76 241.24,-175.81"/>
</g>
<!-- Thurston -->
<g id="node35" class="node">
<title>Thurston</title>
<ellipse fill="none" stroke="black" cx="175.49" cy="-140.87" rx="45.91" ry="18"/>
<text xml:space="preserve" text-anchor="middle" x="175.49" y="-136.67" font-family="Times,serif" font-size="14.00">Thurston</text>
</g>
<!-- Thurston&#45;&#45;ldt -->
<g id="edge68" class="edge">
<title>Thurston&#45;&#45;ldt</title>
<path fill="none" stroke="black" d="M150.69,-125.35C145.05,-121.82 139.12,-118.11 133.7,-114.71"/>
</g>
<!-- Thurston&#45;&#45;kg -->
<g id="edge66" class="edge">
<title>Thurston&#45;&#45;kg</title>
<path fill="none" stroke="black" d="M134.53,-132.21C134.43,-132.19 134.34,-132.17 134.24,-132.15"/>
</g>
<!-- Thurston&#45;&#45;ggt -->
<g id="edge62" class="edge">
<title>Thurston&#45;&#45;ggt</title>
<path fill="none" stroke="black" d="M169.68,-122.59C164.83,-107.35 157.96,-85.75 153.14,-70.6"/>
</g>
<!-- Thurston&#45;&#45;kt -->
<g id="edge69" class="edge">
<title>Thurston&#45;&#45;kt</title>
<path fill="none" stroke="black" d="M164.39,-123.01C155.32,-108.42 142.59,-87.94 133.67,-73.6"/>
</g>
<!-- Thurston&#45;&#45;vd -->
<g id="edge63" class="edge">
<title>Thurston&#45;&#45;vd</title>
<path fill="none" stroke="black" d="M200.33,-125.41C204.4,-122.87 208.59,-120.26 212.53,-117.81"/>
</g>
<!-- Thurston&#45;&#45;cd -->
<g id="edge67" class="edge">
<title>Thurston&#45;&#45;cd</title>
<path fill="none" stroke="black" d="M150.18,-156.27C141.03,-161.83 130.84,-168.04 122.18,-173.3"/>
</g>
<!-- Thurston&#45;&#45;gv -->
<g id="edge65" class="edge">
<title>Thurston&#45;&#45;gv</title>
<path fill="none" stroke="black" d="M187.6,-158.41C199.74,-175.99 218.28,-202.85 230.15,-220.04"/>
</g>
<!-- Thurston&#45;&#45;cg -->
<g id="edge64" class="edge">
<title>Thurston&#45;&#45;cg</title>
<path fill="none" stroke="black" d="M213.69,-151.35C213.79,-151.38 213.89,-151.4 213.99,-151.43"/>
</g>
</g>
</svg>
