<?xml version="1.0" encoding="UTF-8" standalone="no"?>
<!DOCTYPE svg PUBLIC "-//W3C//DTD SVG 1.1//EN"
 "http://www.w3.org/Graphics/SVG/1.1/DTD/svg11.dtd">
<!-- Generated by graphviz version a (a)
 -->
<!-- Title: G Pages: 1 -->
<svg width="899pt" height="927pt"
 viewBox="0.00 0.00 899.00 927.00" xmlns="http://www.w3.org/2000/svg" xmlns:xlink="http://www.w3.org/1999/xlink">
<g id="graph0" class="graph" transform="scale(1 1) rotate(0) translate(4 923.05)">
<title>G</title>
<polygon fill="white" stroke="none" points="-4,4 -4,-923.05 895.34,-923.05 895.34,4 -4,4"/>
<!-- Marden -->
<g id="node1" class="node">
<title>Marden</title>
<ellipse fill="none" stroke="black" cx="98.77" cy="-180.03" rx="41.07" ry="18"/>
<text xml:space="preserve" text-anchor="middle" x="98.77" y="-175.83" font-family="Times,serif" font-size="14.00">Marden</text>
</g>
<!-- ldt -->
<g id="node2" class="node">
<title>ldt</title>
<ellipse fill="none" stroke="black" cx="239.03" cy="-251.77" rx="27" ry="18"/>
<text xml:space="preserve" text-anchor="middle" x="239.03" y="-247.57" font-family="Times,serif" font-size="14.00">ldt</text>
</g>
<!-- Marden&#45;&#45;ldt -->
<g id="edge1" class="edge">
<title>Marden&#45;&#45;ldt</title>
<path fill="none" stroke="black" d="M125.81,-193.86C152.56,-207.54 192.96,-228.21 217.57,-240.79"/>
</g>
<!-- kg -->
<g id="node3" class="node">
<title>kg</title>
<ellipse fill="none" stroke="black" cx="267.3" cy="-328.94" rx="27" ry="18"/>
<text xml:space="preserve" text-anchor="middle" x="267.3" y="-324.74" font-family="Times,serif" font-size="14.00">kg</text>
</g>
<!-- Marden&#45;&#45;kg -->
<g id="edge2" class="edge">
<title>Marden&#45;&#45;kg</title>
<path fill="none" stroke="black" d="M117.45,-196.54C150.7,-225.92 219.61,-286.81 251.04,-314.57"/>
</g>
<!-- hg -->
<g id="node4" class="node">
<title>hg</title>
<ellipse fill="none" stroke="black" cx="378.02" cy="-221.16" rx="27" ry="18"/>
<text xml:space="preserve" text-anchor="middle" x="378.02" y="-216.96" font-family="Times,serif" font-size="14.00">hg</text>
</g>
<!-- Marden&#45;&#45;hg -->
<g id="edge3" class="edge">
<title>Marden&#45;&#45;hg</title>
<path fill="none" stroke="black" d="M138.19,-185.84C195.92,-194.34 301.96,-209.96 351.37,-217.24"/>
</g>
<!-- ldt&#45;&#45;hg -->
<g id="edge72" class="edge">
<title>ldt&#45;&#45;hg</title>
<path fill="none" stroke="black" d="M264.85,-246.08C289.81,-240.58 327.42,-232.3 352.34,-226.82"/>
</g>
<!-- ggt -->
<g id="node6" class="node">
<title>ggt</title>
<ellipse fill="none" stroke="black" cx="332.87" cy="-114.22" rx="27" ry="18"/>
<text xml:space="preserve" text-anchor="middle" x="332.87" y="-110.02" font-family="Times,serif" font-size="14.00">ggt</text>
</g>
<!-- ldt&#45;&#45;ggt -->
<g id="edge71" class="edge">
<title>ldt&#45;&#45;ggt</title>
<path fill="none" stroke="black" d="M250.35,-235.18C268.38,-208.74 303.45,-157.34 321.51,-130.87"/>
</g>
<!-- kt -->
<g id="node9" class="node">
<title>kt</title>
<ellipse fill="none" stroke="black" cx="265.33" cy="-125.28" rx="27" ry="18"/>
<text xml:space="preserve" text-anchor="middle" x="265.33" y="-121.08" font-family="Times,serif" font-size="14.00">kt</text>
</g>
<!-- ldt&#45;&#45;kt -->
<g id="edge73" class="edge">
<title>ldt&#45;&#45;kt</title>
<path fill="none" stroke="black" d="M242.8,-233.64C247.8,-209.6 256.57,-167.4 261.57,-143.37"/>
</g>
<!-- ds -->
<g id="node18" class="node">
<title>ds</title>
<ellipse fill="none" stroke="black" cx="264.8" cy="-417.4" rx="27" ry="18"/>
<text xml:space="preserve" text-anchor="middle" x="264.8" y="-413.2" font-family="Times,serif" font-size="14.00">ds</text>
</g>
<!-- ldt&#45;&#45;ds -->
<g id="edge70" class="edge">
<title>ldt&#45;&#45;ds</title>
<path fill="none" stroke="black" d="M241.88,-270.13C246.85,-302.05 257.02,-367.41 261.97,-399.22"/>
</g>
<!-- cd -->
<g id="node20" class="node">
<title>cd</title>
<ellipse fill="none" stroke="black" cx="206.47" cy="-483.58" rx="27" ry="18"/>
<text xml:space="preserve" text-anchor="middle" x="206.47" y="-479.38" font-family="Times,serif" font-size="14.00">cd</text>
</g>
<!-- ldt&#45;&#45;cd -->
<g id="edge74" class="edge">
<title>ldt&#45;&#45;cd</title>
<path fill="none" stroke="black" d="M236.47,-269.96C230.39,-313.29 215.09,-422.22 209.02,-465.47"/>
</g>
<!-- vd -->
<g id="node11" class="node">
<title>vd</title>
<ellipse fill="none" stroke="black" cx="569.11" cy="-260.7" rx="27" ry="18"/>
<text xml:space="preserve" text-anchor="middle" x="569.11" y="-256.5" font-family="Times,serif" font-size="14.00">vd</text>
</g>
<!-- kg&#45;&#45;vd -->
<g id="edge91" class="edge">
<title>kg&#45;&#45;vd</title>
<path fill="none" stroke="black" d="M293.3,-323.06C350.35,-310.16 485.98,-279.49 543.07,-266.58"/>
</g>
<!-- hg&#45;&#45;kg -->
<g id="edge90" class="edge">
<title>hg&#45;&#45;kg</title>
<path fill="none" stroke="black" d="M362.62,-236.15C341.59,-256.62 304.08,-293.14 282.92,-313.73"/>
</g>
<!-- lat -->
<g id="node10" class="node">
<title>lat</title>
<ellipse fill="none" stroke="black" cx="539.32" cy="-52.17" rx="27" ry="18"/>
<text xml:space="preserve" text-anchor="middle" x="539.32" y="-47.97" font-family="Times,serif" font-size="14.00">lat</text>
</g>
<!-- hg&#45;&#45;lat -->
<g id="edge87" class="edge">
<title>hg&#45;&#45;lat</title>
<path fill="none" stroke="black" d="M392.62,-205.87C423.33,-173.69 494.29,-99.35 524.87,-67.31"/>
</g>
<!-- hg&#45;&#45;vd -->
<g id="edge88" class="edge">
<title>hg&#45;&#45;vd</title>
<path fill="none" stroke="black" d="M404.19,-226.58C440.68,-234.13 506.46,-247.74 542.95,-255.28"/>
</g>
<!-- cg -->
<g id="node28" class="node">
<title>cg</title>
<ellipse fill="none" stroke="black" cx="582.96" cy="-406.51" rx="27" ry="18"/>
<text xml:space="preserve" text-anchor="middle" x="582.96" y="-402.31" font-family="Times,serif" font-size="14.00">cg</text>
</g>
<!-- hg&#45;&#45;cg -->
<g id="edge89" class="edge">
<title>hg&#45;&#45;cg</title>
<path fill="none" stroke="black" d="M394.1,-235.7C432.32,-270.27 528.25,-357.02 566.67,-391.77"/>
</g>
<!-- Cannon -->
<g id="node5" class="node">
<title>Cannon</title>
<ellipse fill="none" stroke="black" cx="149.28" cy="-49.76" rx="41.08" ry="18"/>
<text xml:space="preserve" text-anchor="middle" x="149.28" y="-45.56" font-family="Times,serif" font-size="14.00">Cannon</text>
</g>
<!-- Cannon&#45;&#45;ldt -->
<g id="edge4" class="edge">
<title>Cannon&#45;&#45;ldt</title>
<path fill="none" stroke="black" d="M157.24,-67.68C174.32,-106.11 214.27,-196.03 231.21,-234.17"/>
</g>
<!-- Cannon&#45;&#45;kg -->
<g id="edge5" class="edge">
<title>Cannon&#45;&#45;kg</title>
<path fill="none" stroke="black" d="M156.84,-67.64C178.16,-118.07 238.56,-260.96 259.8,-311.2"/>
</g>
<!-- Cannon&#45;&#45;ggt -->
<g id="edge6" class="edge">
<title>Cannon&#45;&#45;ggt</title>
<path fill="none" stroke="black" d="M181.68,-61.13C218.01,-73.89 276.11,-94.29 308.7,-105.73"/>
</g>
<!-- ggt&#45;&#45;hg -->
<g id="edge86" class="edge">
<title>ggt&#45;&#45;hg</title>
<path fill="none" stroke="black" d="M340.32,-131.88C348.69,-151.69 362.18,-183.65 370.55,-203.48"/>
</g>
<!-- ggt&#45;&#45;lat -->
<g id="edge85" class="edge">
<title>ggt&#45;&#45;lat</title>
<path fill="none" stroke="black" d="M357.77,-106.74C397.45,-94.81 474.6,-71.62 514.33,-59.68"/>
</g>
<!-- Epstein -->
<g id="node7" class="node">
<title>Epstein</title>
<ellipse fill="none" stroke="black" cx="174.33" cy="-108.28" rx="40" ry="18"/>
<text xml:space="preserve" text-anchor="middle" x="174.33" y="-104.08" font-family="Times,serif" font-size="14.00">Epstein</text>
</g>
<!-- Epstein&#45;&#45;ldt -->
<g id="edge8" class="edge">
<title>Epstein&#45;&#45;ldt</title>
<path fill="none" stroke="black" d="M182.4,-126.16C194.86,-153.81 218.66,-206.6 231.07,-234.11"/>
</g>
<!-- Epstein&#45;&#45;kg -->
<g id="edge7" class="edge">
<title>Epstein&#45;&#45;kg</title>
<path fill="none" stroke="black" d="M181.94,-126.33C199.46,-167.92 242.48,-270.02 259.85,-311.25"/>
</g>
<!-- Epstein&#45;&#45;hg -->
<g id="edge10" class="edge">
<title>Epstein&#45;&#45;hg</title>
<path fill="none" stroke="black" d="M199.72,-122.34C240.35,-144.86 319.24,-188.59 356.95,-209.49"/>
</g>
<!-- Epstein&#45;&#45;ggt -->
<g id="edge9" class="edge">
<title>Epstein&#45;&#45;ggt</title>
<path fill="none" stroke="black" d="M214.34,-109.78C242.96,-110.85 280.71,-112.26 305.84,-113.21"/>
</g>
<!-- Conway -->
<g id="node8" class="node">
<title>Conway</title>
<ellipse fill="none" stroke="black" cx="450.95" cy="-18" rx="43.22" ry="18"/>
<text xml:space="preserve" text-anchor="middle" x="450.95" y="-13.8" font-family="Times,serif" font-size="14.00">Conway</text>
</g>
<!-- Conway&#45;&#45;hg -->
<g id="edge13" class="edge">
<title>Conway&#45;&#45;hg</title>
<path fill="none" stroke="black" d="M444.47,-36.03C430.6,-74.68 398.14,-165.11 384.37,-203.46"/>
</g>
<!-- Conway&#45;&#45;ggt -->
<g id="edge11" class="edge">
<title>Conway&#45;&#45;ggt</title>
<path fill="none" stroke="black" d="M430.92,-34.32C408.28,-52.77 371.8,-82.49 350.3,-100.02"/>
</g>
<!-- Conway&#45;&#45;kt -->
<g id="edge12" class="edge">
<title>Conway&#45;&#45;kt</title>
<path fill="none" stroke="black" d="M425.14,-32.92C387.98,-54.39 320.15,-93.6 286.05,-113.3"/>
</g>
<!-- Conway&#45;&#45;lat -->
<g id="edge14" class="edge">
<title>Conway&#45;&#45;lat</title>
<path fill="none" stroke="black" d="M483.1,-30.43C493.86,-34.59 505.65,-39.15 515.64,-43.01"/>
</g>
<!-- Conway&#45;&#45;vd -->
<g id="edge15" class="edge">
<title>Conway&#45;&#45;vd</title>
<path fill="none" stroke="black" d="M459.63,-35.85C481.54,-80.84 538.82,-198.49 560.57,-243.15"/>
</g>
<!-- kt&#45;&#45;kg -->
<g id="edge80" class="edge">
<title>kt&#45;&#45;kg</title>
<path fill="none" stroke="black" d="M265.51,-143.71C265.88,-182.49 266.75,-272.09 267.13,-310.7"/>
</g>
<!-- kt&#45;&#45;hg -->
<g id="edge79" class="edge">
<title>kt&#45;&#45;hg</title>
<path fill="none" stroke="black" d="M281.96,-139.43C303.26,-157.56 339.98,-188.8 361.32,-206.96"/>
</g>
<!-- lat&#45;&#45;vd -->
<g id="edge96" class="edge">
<title>lat&#45;&#45;vd</title>
<path fill="none" stroke="black" d="M541.92,-70.31C547.55,-109.75 560.86,-202.91 566.5,-242.45"/>
</g>
<!-- crys -->
<g id="node13" class="node">
<title>crys</title>
<ellipse fill="none" stroke="black" cx="687.03" cy="-124.35" rx="27.13" ry="18"/>
<text xml:space="preserve" text-anchor="middle" x="687.03" y="-120.15" font-family="Times,serif" font-size="14.00">crys</text>
</g>
<!-- lat&#45;&#45;crys -->
<g id="edge95" class="edge">
<title>lat&#45;&#45;crys</title>
<path fill="none" stroke="black" d="M561.44,-62.98C589.28,-76.58 636.85,-99.83 664.77,-113.47"/>
</g>
<!-- vd&#45;&#45;crys -->
<g id="edge97" class="edge">
<title>vd&#45;&#45;crys</title>
<path fill="none" stroke="black" d="M582.87,-244.79C605.59,-218.52 650.7,-166.36 673.36,-140.16"/>
</g>
<!-- gcv -->
<g id="node14" class="node">
<title>gcv</title>
<ellipse fill="none" stroke="black" cx="705.65" cy="-310.76" rx="27" ry="18"/>
<text xml:space="preserve" text-anchor="middle" x="705.65" y="-306.56" font-family="Times,serif" font-size="14.00">gcv</text>
</g>
<!-- vd&#45;&#45;gcv -->
<g id="edge98" class="edge">
<title>vd&#45;&#45;gcv</title>
<path fill="none" stroke="black" d="M593.21,-269.53C618.17,-278.68 656.93,-292.89 681.8,-302.01"/>
</g>
<!-- cv -->
<g id="node34" class="node">
<title>cv</title>
<ellipse fill="none" stroke="black" cx="605.64" cy="-514.45" rx="27" ry="18"/>
<text xml:space="preserve" text-anchor="middle" x="605.64" y="-510.25" font-family="Times,serif" font-size="14.00">cv</text>
</g>
<!-- vd&#45;&#45;cv -->
<g id="edge99" class="edge">
<title>vd&#45;&#45;cv</title>
<path fill="none" stroke="black" d="M568.05,-279.06C570.67,-326.01 588.5,-449.96 599.29,-496.48"/>
</g>
<!-- Taylor -->
<g id="node12" class="node">
<title>Taylor</title>
<ellipse fill="none" stroke="black" cx="806.14" cy="-180.4" rx="36.78" ry="18"/>
<text xml:space="preserve" text-anchor="middle" x="806.14" y="-176.2" font-family="Times,serif" font-size="14.00">Taylor</text>
</g>
<!-- Taylor&#45;&#45;vd -->
<g id="edge17" class="edge">
<title>Taylor&#45;&#45;vd</title>
<path fill="none" stroke="black" d="M775.63,-190.74C728,-206.87 636.9,-237.73 593.4,-252.47"/>
</g>
<!-- Taylor&#45;&#45;crys -->
<g id="edge16" class="edge">
<title>Taylor&#45;&#45;crys</title>
<path fill="none" stroke="black" d="M779.11,-167.69C758.11,-157.8 729.32,-144.25 709.55,-134.95"/>
</g>
<!-- Taylor&#45;&#45;gcv -->
<g id="edge18" class="edge">
<title>Taylor&#45;&#45;gcv</title>
<path fill="none" stroke="black" d="M793,-197.45C773.53,-222.7 737.26,-269.75 718.16,-294.53"/>
</g>
<!-- fd -->
<g id="node15" class="node">
<title>fd</title>
<ellipse fill="none" stroke="black" cx="847.59" cy="-309.49" rx="27" ry="18"/>
<text xml:space="preserve" text-anchor="middle" x="847.59" y="-305.29" font-family="Times,serif" font-size="14.00">fd</text>
</g>
<!-- Taylor&#45;&#45;fd -->
<g id="edge19" class="edge">
<title>Taylor&#45;&#45;fd</title>
<path fill="none" stroke="black" d="M811.99,-198.63C819.93,-223.37 834.04,-267.3 841.9,-291.78"/>
</g>
<!-- crys&#45;&#45;gcv -->
<g id="edge105" class="edge">
<title>crys&#45;&#45;gcv</title>
<path fill="none" stroke="black" d="M688.85,-142.57C692.41,-178.2 700.26,-256.78 703.83,-292.47"/>
</g>
<!-- crys&#45;&#45;fd -->
<g id="edge104" class="edge">
<title>crys&#45;&#45;fd</title>
<path fill="none" stroke="black" d="M700.72,-140.14C731.05,-175.12 803.63,-258.81 833.93,-293.75"/>
</g>
<!-- gcv&#45;&#45;fd -->
<g id="edge106" class="edge">
<title>gcv&#45;&#45;fd</title>
<path fill="none" stroke="black" d="M733.02,-310.51C758.15,-310.29 795.2,-309.96 820.3,-309.74"/>
</g>
<!-- gcv&#45;&#45;cg -->
<g id="edge107" class="edge">
<title>gcv&#45;&#45;cg</title>
<path fill="none" stroke="black" d="M687.81,-324.68C664.55,-342.83 624.1,-374.4 600.83,-392.57"/>
</g>
<!-- Almgren -->
<g id="node16" class="node">
<title>Almgren</title>
<ellipse fill="none" stroke="black" cx="780.18" cy="-120.3" rx="45.36" ry="18"/>
<text xml:space="preserve" text-anchor="middle" x="780.18" y="-116.1" font-family="Times,serif" font-size="14.00">Almgren</text>
</g>
<!-- Almgren&#45;&#45;vd -->
<g id="edge21" class="edge">
<title>Almgren&#45;&#45;vd</title>
<path fill="none" stroke="black" d="M756.79,-135.86C714.82,-163.78 627.5,-221.86 588.57,-247.75"/>
</g>
<!-- Almgren&#45;&#45;crys -->
<g id="edge20" class="edge">
<title>Almgren&#45;&#45;crys</title>
<path fill="none" stroke="black" d="M734.7,-122.28C727.77,-122.58 720.81,-122.88 714.43,-123.16"/>
</g>
<!-- Almgren&#45;&#45;gcv -->
<g id="edge22" class="edge">
<title>Almgren&#45;&#45;gcv</title>
<path fill="none" stroke="black" d="M773.04,-138.56C758.72,-175.15 726.68,-257.03 712.56,-293.11"/>
</g>
<!-- Almgren&#45;&#45;fd -->
<g id="edge23" class="edge">
<title>Almgren&#45;&#45;fd</title>
<path fill="none" stroke="black" d="M786.65,-138.44C799.56,-174.7 828.42,-255.7 841.24,-291.68"/>
</g>
<!-- Freedman -->
<g id="node17" class="node">
<title>Freedman</title>
<ellipse fill="none" stroke="black" cx="463.35" cy="-200.1" rx="49.65" ry="18"/>
<text xml:space="preserve" text-anchor="middle" x="463.35" y="-195.9" font-family="Times,serif" font-size="14.00">Freedman</text>
</g>
<!-- Freedman&#45;&#45;ldt -->
<g id="edge25" class="edge">
<title>Freedman&#45;&#45;ldt</title>
<path fill="none" stroke="black" d="M420.89,-209.88C374.91,-220.47 303.04,-237.02 264.87,-245.81"/>
</g>
<!-- Freedman&#45;&#45;gcv -->
<g id="edge24" class="edge">
<title>Freedman&#45;&#45;gcv</title>
<path fill="none" stroke="black" d="M494.53,-214.34C544.12,-236.99 639.8,-280.68 683.23,-300.52"/>
</g>
<!-- Freedman&#45;&#45;ds -->
<g id="edge26" class="edge">
<title>Freedman&#45;&#45;ds</title>
<path fill="none" stroke="black" d="M447.44,-217.51C409.71,-258.81 315.29,-362.15 279.17,-401.68"/>
</g>
<!-- ds&#45;&#45;ggt -->
<g id="edge75" class="edge">
<title>ds&#45;&#45;ggt</title>
<path fill="none" stroke="black" d="M268.86,-399.35C280.96,-345.42 316.76,-185.98 328.84,-132.18"/>
</g>
<!-- ds&#45;&#45;cd -->
<g id="edge76" class="edge">
<title>ds&#45;&#45;cd</title>
<path fill="none" stroke="black" d="M250.98,-433.09C241.68,-443.64 229.47,-457.48 220.2,-468.01"/>
</g>
<!-- fg -->
<g id="node23" class="node">
<title>fg</title>
<ellipse fill="none" stroke="black" cx="219.13" cy="-591.15" rx="27" ry="18"/>
<text xml:space="preserve" text-anchor="middle" x="219.13" y="-586.95" font-family="Times,serif" font-size="14.00">fg</text>
</g>
<!-- ds&#45;&#45;fg -->
<g id="edge77" class="edge">
<title>ds&#45;&#45;fg</title>
<path fill="none" stroke="black" d="M260.09,-435.34C251.33,-468.64 232.67,-539.63 223.89,-573.05"/>
</g>
<!-- sg -->
<g id="node26" class="node">
<title>sg</title>
<ellipse fill="none" stroke="black" cx="388.01" cy="-673.03" rx="27" ry="18"/>
<text xml:space="preserve" text-anchor="middle" x="388.01" y="-668.83" font-family="Times,serif" font-size="14.00">sg</text>
</g>
<!-- ds&#45;&#45;sg -->
<g id="edge78" class="edge">
<title>ds&#45;&#45;sg</title>
<path fill="none" stroke="black" d="M273.27,-434.97C295.83,-481.79 357.2,-609.11 379.64,-655.67"/>
</g>
<!-- Milnor -->
<g id="node19" class="node">
<title>Milnor</title>
<ellipse fill="none" stroke="black" cx="124.21" cy="-293.99" rx="37.86" ry="18"/>
<text xml:space="preserve" text-anchor="middle" x="124.21" y="-289.79" font-family="Times,serif" font-size="14.00">Milnor</text>
</g>
<!-- Milnor&#45;&#45;ldt -->
<g id="edge27" class="edge">
<title>Milnor&#45;&#45;ldt</title>
<path fill="none" stroke="black" d="M154.68,-282.78C173.55,-275.85 197.44,-267.06 214.97,-260.61"/>
</g>
<!-- Milnor&#45;&#45;hg -->
<g id="edge30" class="edge">
<title>Milnor&#45;&#45;hg</title>
<path fill="none" stroke="black" d="M157.13,-284.54C208.5,-269.8 306.62,-241.65 352.8,-228.4"/>
</g>
<!-- Milnor&#45;&#45;kt -->
<g id="edge31" class="edge">
<title>Milnor&#45;&#45;kt</title>
<path fill="none" stroke="black" d="M138.52,-276.88C165.99,-244.05 225.73,-172.62 252.22,-140.95"/>
</g>
<!-- Milnor&#45;&#45;ds -->
<g id="edge29" class="edge">
<title>Milnor&#45;&#45;ds</title>
<path fill="none" stroke="black" d="M142.59,-310.12C170.13,-334.3 221.69,-379.56 248.17,-402.8"/>
</g>
<!-- Milnor&#45;&#45;cd -->
<g id="edge28" class="edge">
<title>Milnor&#45;&#45;cd</title>
<path fill="none" stroke="black" d="M131.95,-311.82C147.67,-348.05 183.16,-429.86 198.82,-465.93"/>
</g>
<!-- cd&#45;&#45;kg -->
<g id="edge82" class="edge">
<title>cd&#45;&#45;kg</title>
<path fill="none" stroke="black" d="M213.45,-465.84C225.19,-436.01 248.73,-376.16 260.41,-346.47"/>
</g>
<!-- cd&#45;&#45;fg -->
<g id="edge81" class="edge">
<title>cd&#45;&#45;fg</title>
<path fill="none" stroke="black" d="M208.62,-501.83C210.95,-521.61 214.64,-552.99 216.97,-572.81"/>
</g>
<!-- Douady -->
<g id="node21" class="node">
<title>Douady</title>
<ellipse fill="none" stroke="black" cx="41.61" cy="-381.83" rx="41.61" ry="18"/>
<text xml:space="preserve" text-anchor="middle" x="41.61" y="-377.63" font-family="Times,serif" font-size="14.00">Douady</text>
</g>
<!-- Douady&#45;&#45;kg -->
<g id="edge34" class="edge">
<title>Douady&#45;&#45;kg</title>
<path fill="none" stroke="black" d="M78.63,-373.16C124.52,-362.4 201.56,-344.35 241.52,-334.98"/>
</g>
<!-- Douady&#45;&#45;ds -->
<g id="edge33" class="edge">
<title>Douady&#45;&#45;ds</title>
<path fill="none" stroke="black" d="M81,-388.11C126.18,-395.31 199.02,-406.92 238.06,-413.14"/>
</g>
<!-- Douady&#45;&#45;cd -->
<g id="edge32" class="edge">
<title>Douady&#45;&#45;cd</title>
<path fill="none" stroke="black" d="M65.94,-396.84C98.72,-417.08 156.45,-452.7 186.71,-471.38"/>
</g>
<!-- Hubard -->
<g id="node22" class="node">
<title>Hubard</title>
<ellipse fill="none" stroke="black" cx="74.22" cy="-468.29" rx="40" ry="18"/>
<text xml:space="preserve" text-anchor="middle" x="74.22" y="-464.09" font-family="Times,serif" font-size="14.00">Hubard</text>
</g>
<!-- Hubard&#45;&#45;kg -->
<g id="edge37" class="edge">
<title>Hubard&#45;&#45;kg</title>
<path fill="none" stroke="black" d="M95.62,-452.84C133.71,-425.35 212.67,-368.37 248.67,-342.39"/>
</g>
<!-- Hubard&#45;&#45;ds -->
<g id="edge35" class="edge">
<title>Hubard&#45;&#45;ds</title>
<path fill="none" stroke="black" d="M109.17,-458.95C146.89,-448.88 206.04,-433.09 239.5,-424.16"/>
</g>
<!-- Hubard&#45;&#45;cd -->
<g id="edge36" class="edge">
<title>Hubard&#45;&#45;cd</title>
<path fill="none" stroke="black" d="M113.18,-472.79C134.52,-475.26 160.42,-478.25 179.51,-480.46"/>
</g>
<!-- Hubard&#45;&#45;fg -->
<g id="edge38" class="edge">
<title>Hubard&#45;&#45;fg</title>
<path fill="none" stroke="black" d="M93.16,-484.35C121.7,-508.55 175.27,-553.96 202.43,-576.99"/>
</g>
<!-- fg&#45;&#45;kg -->
<g id="edge83" class="edge">
<title>fg&#45;&#45;kg</title>
<path fill="none" stroke="black" d="M222.44,-573.13C231.24,-525.22 255.14,-395.13 263.97,-347.09"/>
</g>
<!-- fg&#45;&#45;sg -->
<g id="edge84" class="edge">
<title>fg&#45;&#45;sg</title>
<path fill="none" stroke="black" d="M241.21,-601.85C273.57,-617.54 333.56,-646.63 365.92,-662.32"/>
</g>
<!-- Mandelbrot -->
<g id="node24" class="node">
<title>Mandelbrot</title>
<ellipse fill="none" stroke="black" cx="79.17" cy="-557.87" rx="56.09" ry="18"/>
<text xml:space="preserve" text-anchor="middle" x="79.17" y="-553.67" font-family="Times,serif" font-size="14.00">Mandelbrot</text>
</g>
<!-- Mandelbrot&#45;&#45;kg -->
<g id="edge41" class="edge">
<title>Mandelbrot&#45;&#45;kg</title>
<path fill="none" stroke="black" d="M93.62,-540.29C129.07,-497.15 219.93,-386.59 254.07,-345.04"/>
</g>
<!-- Mandelbrot&#45;&#45;cd -->
<g id="edge39" class="edge">
<title>Mandelbrot&#45;&#45;cd</title>
<path fill="none" stroke="black" d="M106.79,-541.75C130.63,-527.84 164.52,-508.06 186,-495.52"/>
</g>
<!-- Mandelbrot&#45;&#45;fg -->
<g id="edge40" class="edge">
<title>Mandelbrot&#45;&#45;fg</title>
<path fill="none" stroke="black" d="M124.61,-568.67C147.44,-574.1 174.26,-580.48 193.49,-585.05"/>
</g>
<!-- Wilks -->
<g id="node25" class="node">
<title>Wilks</title>
<ellipse fill="none" stroke="black" cx="446.31" cy="-629.03" rx="34.1" ry="18"/>
<text xml:space="preserve" text-anchor="middle" x="446.31" y="-624.83" font-family="Times,serif" font-size="14.00">Wilks</text>
</g>
<!-- Wilks&#45;&#45;cd -->
<g id="edge44" class="edge">
<title>Wilks&#45;&#45;cd</title>
<path fill="none" stroke="black" d="M423.75,-615.34C377.22,-587.13 271.26,-522.87 226.75,-495.88"/>
</g>
<!-- Wilks&#45;&#45;sg -->
<g id="edge42" class="edge">
<title>Wilks&#45;&#45;sg</title>
<path fill="none" stroke="black" d="M426.57,-643.92C419.96,-648.91 412.63,-654.44 406.16,-659.33"/>
</g>
<!-- gv -->
<g id="node27" class="node">
<title>gv</title>
<ellipse fill="none" stroke="black" cx="594.2" cy="-624.94" rx="27" ry="18"/>
<text xml:space="preserve" text-anchor="middle" x="594.2" y="-620.74" font-family="Times,serif" font-size="14.00">gv</text>
</g>
<!-- Wilks&#45;&#45;gv -->
<g id="edge43" class="edge">
<title>Wilks&#45;&#45;gv</title>
<path fill="none" stroke="black" d="M480.61,-628.08C506.89,-627.35 542.66,-626.36 566.99,-625.69"/>
</g>
<!-- Wilks&#45;&#45;cg -->
<g id="edge45" class="edge">
<title>Wilks&#45;&#45;cg</title>
<path fill="none" stroke="black" d="M457.03,-611.56C482.64,-569.87 547.11,-464.88 572.48,-423.58"/>
</g>
<!-- sg&#45;&#45;gv -->
<g id="edge93" class="edge">
<title>sg&#45;&#45;gv</title>
<path fill="none" stroke="black" d="M413.7,-667.03C453.32,-657.79 528.88,-640.17 568.5,-630.93"/>
</g>
<!-- sg&#45;&#45;cv -->
<g id="edge94" class="edge">
<title>sg&#45;&#45;cv</title>
<path fill="none" stroke="black" d="M406.56,-659.51C447.68,-629.55 546.06,-557.87 587.13,-527.94"/>
</g>
<!-- dv -->
<g id="node36" class="node">
<title>dv</title>
<ellipse fill="none" stroke="black" cx="391.04" cy="-901.05" rx="27" ry="18"/>
<text xml:space="preserve" text-anchor="middle" x="391.04" y="-896.85" font-family="Times,serif" font-size="14.00">dv</text>
</g>
<!-- sg&#45;&#45;dv -->
<g id="edge92" class="edge">
<title>sg&#45;&#45;dv</title>
<path fill="none" stroke="black" d="M388.25,-691.3C388.82,-734 390.22,-839.91 390.79,-882.69"/>
</g>
<!-- cg&#45;&#45;fd -->
<g id="edge108" class="edge">
<title>cg&#45;&#45;fd</title>
<path fill="none" stroke="black" d="M606.91,-397.73C657.17,-379.3 773.13,-336.79 823.5,-318.32"/>
</g>
<!-- Dobkin -->
<g id="node29" class="node">
<title>Dobkin</title>
<ellipse fill="none" stroke="black" cx="743.78" cy="-448.44" rx="40.01" ry="18"/>
<text xml:space="preserve" text-anchor="middle" x="743.78" y="-444.24" font-family="Times,serif" font-size="14.00">Dobkin</text>
</g>
<!-- Dobkin&#45;&#45;vd -->
<g id="edge47" class="edge">
<title>Dobkin&#45;&#45;vd</title>
<path fill="none" stroke="black" d="M727.97,-431.45C694.29,-395.25 615.92,-311.01 583.52,-276.19"/>
</g>
<!-- Dobkin&#45;&#45;gv -->
<g id="edge46" class="edge">
<title>Dobkin&#45;&#45;gv</title>
<path fill="none" stroke="black" d="M729.16,-465.68C700.2,-499.86 635.89,-575.74 607.78,-608.9"/>
</g>
<!-- Dobkin&#45;&#45;cg -->
<g id="edge48" class="edge">
<title>Dobkin&#45;&#45;cg</title>
<path fill="none" stroke="black" d="M708.88,-439.34C678.68,-431.46 635.69,-420.25 608.57,-413.18"/>
</g>
<!-- Chazelle -->
<g id="node30" class="node">
<title>Chazelle</title>
<ellipse fill="none" stroke="black" cx="717.68" cy="-522.6" rx="44.82" ry="18"/>
<text xml:space="preserve" text-anchor="middle" x="717.68" y="-518.4" font-family="Times,serif" font-size="14.00">Chazelle</text>
</g>
<!-- Chazelle&#45;&#45;vd -->
<g id="edge51" class="edge">
<title>Chazelle&#45;&#45;vd</title>
<path fill="none" stroke="black" d="M707.46,-504.6C680.13,-456.41 605.54,-324.93 578.81,-277.79"/>
</g>
<!-- Chazelle&#45;&#45;gv -->
<g id="edge50" class="edge">
<title>Chazelle&#45;&#45;gv</title>
<path fill="none" stroke="black" d="M697.84,-539.05C673.84,-558.93 633.85,-592.07 611.2,-610.84"/>
</g>
<!-- Chazelle&#45;&#45;cg -->
<g id="edge49" class="edge">
<title>Chazelle&#45;&#45;cg</title>
<path fill="none" stroke="black" d="M698.37,-505.97C671.89,-483.15 624.73,-442.5 599.68,-420.91"/>
</g>
<!-- Peskin -->
<g id="node31" class="node">
<title>Peskin</title>
<ellipse fill="none" stroke="black" cx="854.55" cy="-521" rx="36.79" ry="18"/>
<text xml:space="preserve" text-anchor="middle" x="854.55" y="-516.8" font-family="Times,serif" font-size="14.00">Peskin</text>
</g>
<!-- Peskin&#45;&#45;gcv -->
<g id="edge53" class="edge">
<title>Peskin&#45;&#45;gcv</title>
<path fill="none" stroke="black" d="M842.36,-503.8C814.23,-464.08 745.07,-366.41 717.38,-327.32"/>
</g>
<!-- Peskin&#45;&#45;fd -->
<g id="edge52" class="edge">
<title>Peskin&#45;&#45;fd</title>
<path fill="none" stroke="black" d="M853.94,-502.6C852.62,-462.5 849.5,-367.62 848.19,-327.7"/>
</g>
<!-- Peskin&#45;&#45;gv -->
<g id="edge54" class="edge">
<title>Peskin&#45;&#45;gv</title>
<path fill="none" stroke="black" d="M825.69,-532.52C773.79,-553.24 665.67,-596.4 617.83,-615.5"/>
</g>
<!-- Tarjan -->
<g id="node32" class="node">
<title>Tarjan</title>
<ellipse fill="none" stroke="black" cx="423.97" cy="-487.71" rx="36.24" ry="18"/>
<text xml:space="preserve" text-anchor="middle" x="423.97" y="-483.51" font-family="Times,serif" font-size="14.00">Tarjan</text>
</g>
<!-- Tarjan&#45;&#45;hg -->
<g id="edge56" class="edge">
<title>Tarjan&#45;&#45;hg</title>
<path fill="none" stroke="black" d="M420.82,-469.39C412.4,-420.58 389.51,-287.81 381.14,-239.26"/>
</g>
<!-- Tarjan&#45;&#45;cg -->
<g id="edge55" class="edge">
<title>Tarjan&#45;&#45;cg</title>
<path fill="none" stroke="black" d="M449.52,-474.66C480.42,-458.88 531.9,-432.58 561.07,-417.69"/>
</g>
<!-- Mumford -->
<g id="node33" class="node">
<title>Mumford</title>
<ellipse fill="none" stroke="black" cx="518.58" cy="-326.04" rx="48.05" ry="18"/>
<text xml:space="preserve" text-anchor="middle" x="518.58" y="-321.84" font-family="Times,serif" font-size="14.00">Mumford</text>
</g>
<!-- Mumford&#45;&#45;kg -->
<g id="edge57" class="edge">
<title>Mumford&#45;&#45;kg</title>
<path fill="none" stroke="black" d="M470.13,-326.6C417.94,-327.2 336.72,-328.14 294.64,-328.63"/>
</g>
<!-- Mumford&#45;&#45;crys -->
<g id="edge61" class="edge">
<title>Mumford&#45;&#45;crys</title>
<path fill="none" stroke="black" d="M533.24,-308.5C565.58,-269.78 642.63,-177.51 673.7,-140.31"/>
</g>
<!-- Mumford&#45;&#45;gcv -->
<g id="edge60" class="edge">
<title>Mumford&#45;&#45;gcv</title>
<path fill="none" stroke="black" d="M565.79,-322.18C601.4,-319.28 649,-315.39 678.47,-312.98"/>
</g>
<!-- Mumford&#45;&#45;cg -->
<g id="edge58" class="edge">
<title>Mumford&#45;&#45;cg</title>
<path fill="none" stroke="black" d="M532.55,-343.5C543.72,-357.46 559.25,-376.87 570.12,-390.45"/>
</g>
<!-- Mumford&#45;&#45;cv -->
<g id="edge59" class="edge">
<title>Mumford&#45;&#45;cv</title>
<path fill="none" stroke="black" d="M526.93,-344.11C543.66,-380.3 581.08,-461.3 597.57,-496.99"/>
</g>
<!-- cv&#45;&#45;vd -->
<g id="edge100" class="edge">
<title>cv&#45;&#45;vd</title>
<path fill="none" stroke="black" d="M606.7,-496.09C604.07,-449.14 586.25,-325.19 575.46,-278.67"/>
</g>
<!-- cv&#45;&#45;gcv -->
<g id="edge101" class="edge">
<title>cv&#45;&#45;gcv</title>
<path fill="none" stroke="black" d="M614.16,-497.09C633.06,-458.6 678.27,-366.52 697.15,-328.08"/>
</g>
<!-- cv&#45;&#45;gv -->
<g id="edge103" class="edge">
<title>cv&#45;&#45;gv</title>
<path fill="none" stroke="black" d="M603.75,-532.7C601.63,-553.17 598.21,-586.18 596.09,-606.66"/>
</g>
<!-- cv&#45;&#45;cg -->
<g id="edge102" class="edge">
<title>cv&#45;&#45;cg</title>
<path fill="none" stroke="black" d="M601.79,-496.14C597.6,-476.17 590.93,-444.41 586.75,-424.55"/>
</g>
<!-- Thurston -->
<g id="node35" class="node">
<title>Thurston</title>
<ellipse fill="none" stroke="black" cx="410.81" cy="-359.28" rx="45.91" ry="18"/>
<text xml:space="preserve" text-anchor="middle" x="410.81" y="-355.08" font-family="Times,serif" font-size="14.00">Thurston</text>
</g>
<!-- Thurston&#45;&#45;ldt -->
<g id="edge68" class="edge">
<title>Thurston&#45;&#45;ldt</title>
<path fill="none" stroke="black" d="M386.2,-343.88C351.97,-322.45 290.63,-284.07 259.05,-264.3"/>
</g>
<!-- Thurston&#45;&#45;kg -->
<g id="edge66" class="edge">
<title>Thurston&#45;&#45;kg</title>
<path fill="none" stroke="black" d="M370.07,-350.67C345.38,-345.45 314.62,-338.94 293.21,-334.42"/>
</g>
<!-- Thurston&#45;&#45;ggt -->
<g id="edge62" class="edge">
<title>Thurston&#45;&#45;ggt</title>
<path fill="none" stroke="black" d="M405.08,-341.26C390.67,-295.94 353.03,-177.61 338.61,-132.27"/>
</g>
<!-- Thurston&#45;&#45;kt -->
<g id="edge69" class="edge">
<title>Thurston&#45;&#45;kt</title>
<path fill="none" stroke="black" d="M399.88,-341.7C372.72,-298.01 302.46,-185.01 275.8,-142.12"/>
</g>
<!-- Thurston&#45;&#45;vd -->
<g id="edge63" class="edge">
<title>Thurston&#45;&#45;vd</title>
<path fill="none" stroke="black" d="M435.55,-343.88C466.85,-324.38 520.17,-291.18 549.06,-273.18"/>
</g>
<!-- Thurston&#45;&#45;cd -->
<g id="edge67" class="edge">
<title>Thurston&#45;&#45;cd</title>
<path fill="none" stroke="black" d="M385.76,-374.53C344.83,-399.42 264.45,-448.31 226.81,-471.21"/>
</g>
<!-- Thurston&#45;&#45;gv -->
<g id="edge65" class="edge">
<title>Thurston&#45;&#45;gv</title>
<path fill="none" stroke="black" d="M422.85,-376.71C456.31,-425.2 550.18,-561.17 582.83,-608.47"/>
</g>
<!-- Thurston&#45;&#45;cg -->
<g id="edge64" class="edge">
<title>Thurston&#45;&#45;cg</title>
<path fill="none" stroke="black" d="M449.02,-369.76C482.1,-378.84 529.02,-391.71 557.65,-399.56"/>
</g>
</g>
</svg>
