<?xml version="1.0" encoding="UTF-8" standalone="no"?>
<!DOCTYPE svg PUBLIC "-//W3C//DTD SVG 1.1//EN"
 "http://www.w3.org/Graphics/SVG/1.1/DTD/svg11.dtd">
<!-- Generated by graphviz version a (a)
 -->
<!-- Title: G Pages: 1 -->
<svg width="390pt" height="2452pt"
 viewBox="0.00 0.00 390.00 2452.00" xmlns="http://www.w3.org/2000/svg" xmlns:xlink="http://www.w3.org/1999/xlink">
<g id="graph0" class="graph" transform="scale(1 1) rotate(0) translate(4 2448.08)">
<title>G</title>
<polygon fill="white" stroke="none" points="-4,4 -4,-2448.08 386.09,-2448.08 386.09,4 -4,4"/>
<text xml:space="preserve" text-anchor="middle" x="191.05" y="-8.2" font-family="Times,serif" font-size="14.00">SelfRight</text>
<!-- node23 -->
<g id="node1" class="node">
<title>node23</title>
<ellipse fill="none" stroke="black" cx="39.47" cy="-2393.74" rx="39.47" ry="39.47"/>
<text xml:space="preserve" text-anchor="middle" x="39.47" y="-2389.54" font-family="Times,serif" font-size="14.00">node23</text>
</g>
<!-- node23&#45;&gt;node23 -->
<g id="edge1" class="edge">
<title>node23:n&#45;&gt;node23:ne</title>
<path fill="none" stroke="black" d="M39.47,-2433.58C58.62,-2440.82 96.93,-2440.82 96.93,-2427.77 96.93,-2417.68 89.75,-2415.39 78.52,-2418.22"/>
<polygon fill="black" stroke="black" points="77.43,-2414.9 69.12,-2421.47 79.71,-2421.52 77.43,-2414.9"/>
<text xml:space="preserve" text-anchor="middle" x="161.39" y="-2389.54" font-family="Times,serif" font-size="14.00">tailport=n headport=ne</text>
</g>
<!-- node23&#45;&gt;node23 -->
<g id="edge2" class="edge">
<title>node23:n&#45;&gt;node23:ne</title>
<path fill="none" stroke="black" d="M39.47,-2433.58C64.62,-2448.07 225.85,-2448.07 225.85,-2427.77 225.85,-2409.58 117.42,-2407.69 78.22,-2417.94"/>
<polygon fill="black" stroke="black" points="77.19,-2414.58 69.1,-2421.43 79.69,-2421.12 77.19,-2414.58"/>
<text xml:space="preserve" text-anchor="middle" x="290.31" y="-2389.54" font-family="Times,serif" font-size="14.00">tailport=n headport=ne</text>
</g>
<!-- node24 -->
<g id="node2" class="node">
<title>node24</title>
<ellipse fill="none" stroke="black" cx="39.47" cy="-2277.81" rx="39.47" ry="39.47"/>
<text xml:space="preserve" text-anchor="middle" x="39.47" y="-2273.61" font-family="Times,serif" font-size="14.00">node24</text>
</g>
<!-- node23&#45;&gt;node24 -->
<g id="edge3" class="edge">
<title>node23&#45;&gt;node24</title>
<path fill="none" stroke="black" d="M39.47,-2353.85C39.47,-2345.79 39.47,-2337.18 39.47,-2328.78"/>
<polygon fill="black" stroke="black" points="42.97,-2329.04 39.47,-2319.04 35.97,-2329.04 42.97,-2329.04"/>
</g>
<!-- node24&#45;&gt;node24 -->
<g id="edge4" class="edge">
<title>node24:n&#45;&gt;node24:e</title>
<path fill="none" stroke="black" d="M39.47,-2317.65C58.62,-2324.89 96.93,-2324.89 96.93,-2297.73 96.93,-2284.15 93.93,-2277.36 90.23,-2274.87"/>
<polygon fill="black" stroke="black" points="89.51,-2271.44 80.76,-2277.42 91.33,-2278.2 89.51,-2271.44"/>
<text xml:space="preserve" text-anchor="middle" x="157.89" y="-2273.61" font-family="Times,serif" font-size="14.00">tailport=n headport=e</text>
</g>
<!-- node24&#45;&gt;node24 -->
<g id="edge5" class="edge">
<title>node24:n&#45;&gt;node24:e</title>
<path fill="none" stroke="black" d="M39.47,-2317.65C64.62,-2332.14 218.85,-2332.14 218.85,-2297.73 218.85,-2267.89 122.65,-2263.93 89.52,-2272.85"/>
<polygon fill="black" stroke="black" points="88.13,-2269.64 80.66,-2277.15 91.19,-2275.93 88.13,-2269.64"/>
<text xml:space="preserve" text-anchor="middle" x="279.81" y="-2273.61" font-family="Times,serif" font-size="14.00">tailport=n headport=e</text>
</g>
<!-- node25 -->
<g id="node3" class="node">
<title>node25</title>
<ellipse fill="none" stroke="black" cx="39.47" cy="-2161.88" rx="39.47" ry="39.47"/>
<text xml:space="preserve" text-anchor="middle" x="39.47" y="-2157.68" font-family="Times,serif" font-size="14.00">node25</text>
</g>
<!-- node24&#45;&gt;node25 -->
<g id="edge6" class="edge">
<title>node24&#45;&gt;node25</title>
<path fill="none" stroke="black" d="M39.47,-2237.92C39.47,-2229.86 39.47,-2221.25 39.47,-2212.85"/>
<polygon fill="black" stroke="black" points="42.97,-2213.11 39.47,-2203.11 35.97,-2213.11 42.97,-2213.11"/>
</g>
<!-- node25&#45;&gt;node25 -->
<g id="edge7" class="edge">
<title>node25:n&#45;&gt;node25:se</title>
<path fill="none" stroke="black" d="M39.47,-2201.72C58.62,-2208.96 96.93,-2208.96 96.93,-2167.69 96.93,-2135.77 89.75,-2128.53 78.52,-2130.25"/>
<polygon fill="black" stroke="black" points="77.62,-2126.86 69.13,-2133.21 79.72,-2133.54 77.62,-2126.86"/>
<text xml:space="preserve" text-anchor="middle" x="160.61" y="-2157.68" font-family="Times,serif" font-size="14.00">tailport=n headport=se</text>
</g>
<!-- node25&#45;&gt;node25 -->
<g id="edge8" class="edge">
<title>node25:n&#45;&gt;node25:se</title>
<path fill="none" stroke="black" d="M39.47,-2201.72C64.62,-2216.21 224.3,-2216.21 224.3,-2167.69 224.3,-2124.29 117.58,-2119.71 78.43,-2129.6"/>
<polygon fill="black" stroke="black" points="77.22,-2126.32 69.1,-2133.13 79.69,-2132.86 77.22,-2126.32"/>
<text xml:space="preserve" text-anchor="middle" x="287.98" y="-2157.68" font-family="Times,serif" font-size="14.00">tailport=n headport=se</text>
</g>
<!-- node26 -->
<g id="node4" class="node">
<title>node26</title>
<ellipse fill="none" stroke="black" cx="39.47" cy="-2045.95" rx="39.47" ry="39.47"/>
<text xml:space="preserve" text-anchor="middle" x="39.47" y="-2041.75" font-family="Times,serif" font-size="14.00">node26</text>
</g>
<!-- node25&#45;&gt;node26 -->
<g id="edge9" class="edge">
<title>node25&#45;&gt;node26</title>
<path fill="none" stroke="black" d="M39.47,-2121.99C39.47,-2113.93 39.47,-2105.32 39.47,-2096.92"/>
<polygon fill="black" stroke="black" points="42.97,-2097.18 39.47,-2087.18 35.97,-2097.18 42.97,-2097.18"/>
</g>
<!-- node26&#45;&gt;node26 -->
<g id="edge10" class="edge">
<title>node26:n&#45;&gt;node26:s</title>
<path fill="none" stroke="black" d="M39.47,-2085.79C58.62,-2093.03 96.93,-2093.03 96.93,-2045.95 96.93,-2006.78 70.41,-2000.2 50.47,-2003.27"/>
<polygon fill="black" stroke="black" points="49.73,-1999.84 40.93,-2005.74 51.49,-2006.62 49.73,-1999.84"/>
<text xml:space="preserve" text-anchor="middle" x="157.51" y="-2041.75" font-family="Times,serif" font-size="14.00">tailport=n headport=s</text>
</g>
<!-- node26&#45;&gt;node26 -->
<g id="edge11" class="edge">
<title>node26:n&#45;&gt;node26:s</title>
<path fill="none" stroke="black" d="M39.47,-2085.79C64.62,-2100.28 218.08,-2100.28 218.08,-2045.95 218.08,-1996.93 93.13,-1992.15 50.24,-2002.32"/>
<polygon fill="black" stroke="black" points="49.16,-1998.99 40.89,-2005.62 51.49,-2005.6 49.16,-1998.99"/>
<text xml:space="preserve" text-anchor="middle" x="278.66" y="-2041.75" font-family="Times,serif" font-size="14.00">tailport=n headport=s</text>
</g>
<!-- node32 -->
<g id="node5" class="node">
<title>node32</title>
<ellipse fill="none" stroke="black" cx="39.47" cy="-1930.02" rx="39.47" ry="39.47"/>
<text xml:space="preserve" text-anchor="middle" x="39.47" y="-1925.82" font-family="Times,serif" font-size="14.00">node32</text>
</g>
<!-- node26&#45;&gt;node32 -->
<g id="edge12" class="edge">
<title>node26&#45;&gt;node32</title>
<path fill="none" stroke="black" d="M39.47,-2006.06C39.47,-1998 39.47,-1989.39 39.47,-1980.99"/>
<polygon fill="black" stroke="black" points="42.97,-1981.25 39.47,-1971.25 35.97,-1981.25 42.97,-1981.25"/>
</g>
<!-- node32&#45;&gt;node32 -->
<g id="edge13" class="edge">
<title>node32:ne&#45;&gt;node32:n</title>
<path fill="none" stroke="black" d="M67.69,-1958.25C84.93,-1951 96.93,-1951 96.93,-1964.05 96.93,-1974.91 70.41,-1976.74 50.47,-1972.87"/>
<polygon fill="black" stroke="black" points="51.49,-1969.52 40.92,-1970.26 49.65,-1976.27 51.49,-1969.52"/>
<text xml:space="preserve" text-anchor="middle" x="161.39" y="-1925.82" font-family="Times,serif" font-size="14.00">tailport=ne headport=n</text>
</g>
<!-- node32&#45;&gt;node32 -->
<g id="edge14" class="edge">
<title>node32:ne&#45;&gt;node32:n</title>
<path fill="none" stroke="black" d="M67.69,-1958.25C90.93,-1943.75 225.85,-1943.75 225.85,-1964.05 225.85,-1982.41 94,-1984.16 50.17,-1973.62"/>
<polygon fill="black" stroke="black" points="51.49,-1970.37 40.89,-1970.36 49.17,-1976.97 51.49,-1970.37"/>
<text xml:space="preserve" text-anchor="middle" x="290.31" y="-1925.82" font-family="Times,serif" font-size="14.00">tailport=ne headport=n</text>
</g>
<!-- node34 -->
<g id="node6" class="node">
<title>node34</title>
<ellipse fill="none" stroke="black" cx="39.47" cy="-1814.09" rx="39.47" ry="39.47"/>
<text xml:space="preserve" text-anchor="middle" x="39.47" y="-1809.89" font-family="Times,serif" font-size="14.00">node34</text>
</g>
<!-- node32&#45;&gt;node34 -->
<g id="edge15" class="edge">
<title>node32&#45;&gt;node34</title>
<path fill="none" stroke="black" d="M39.47,-1890.13C39.47,-1882.07 39.47,-1873.46 39.47,-1865.06"/>
<polygon fill="black" stroke="black" points="42.97,-1865.32 39.47,-1855.32 35.97,-1865.32 42.97,-1865.32"/>
</g>
<!-- node34&#45;&gt;node34 -->
<g id="edge16" class="edge">
<title>node34:ne&#45;&gt;node34:e</title>
<path fill="none" stroke="black" d="M67.69,-1842.32C84.93,-1849.56 96.93,-1849.56 96.93,-1828.2 96.93,-1817.19 93.74,-1811.86 89.88,-1810.27"/>
<polygon fill="black" stroke="black" points="88.94,-1806.89 80.72,-1813.58 91.32,-1813.47 88.94,-1806.89"/>
<text xml:space="preserve" text-anchor="middle" x="161" y="-1809.89" font-family="Times,serif" font-size="14.00">tailport=ne headport=e</text>
</g>
<!-- node34&#45;&gt;node34 -->
<g id="edge17" class="edge">
<title>node34:ne&#45;&gt;node34:e</title>
<path fill="none" stroke="black" d="M67.69,-1842.32C90.93,-1856.81 225.06,-1856.81 225.06,-1828.2 225.06,-1803.29 123.28,-1800.08 89.35,-1809.24"/>
<polygon fill="black" stroke="black" points="88.15,-1805.94 80.66,-1813.44 91.19,-1812.24 88.15,-1805.94"/>
<text xml:space="preserve" text-anchor="middle" x="289.13" y="-1809.89" font-family="Times,serif" font-size="14.00">tailport=ne headport=e</text>
</g>
<!-- node35 -->
<g id="node7" class="node">
<title>node35</title>
<ellipse fill="none" stroke="black" cx="39.47" cy="-1698.16" rx="39.47" ry="39.47"/>
<text xml:space="preserve" text-anchor="middle" x="39.47" y="-1693.96" font-family="Times,serif" font-size="14.00">node35</text>
</g>
<!-- node34&#45;&gt;node35 -->
<g id="edge18" class="edge">
<title>node34&#45;&gt;node35</title>
<path fill="none" stroke="black" d="M39.47,-1774.2C39.47,-1766.14 39.47,-1757.53 39.47,-1749.13"/>
<polygon fill="black" stroke="black" points="42.97,-1749.39 39.47,-1739.39 35.97,-1749.39 42.97,-1749.39"/>
</g>
<!-- node35&#45;&gt;node35 -->
<g id="edge19" class="edge">
<title>node35:ne&#45;&gt;node35:se</title>
<path fill="none" stroke="black" d="M67.69,-1726.38C84.93,-1733.63 96.93,-1733.63 96.93,-1698.16 96.93,-1670.73 89.75,-1664.52 78.52,-1666.46"/>
<polygon fill="black" stroke="black" points="77.58,-1663.09 69.13,-1669.48 79.72,-1669.75 77.58,-1663.09"/>
<text xml:space="preserve" text-anchor="middle" x="163.72" y="-1693.96" font-family="Times,serif" font-size="14.00">tailport=ne headport=se</text>
</g>
<!-- node35&#45;&gt;node35 -->
<g id="edge20" class="edge">
<title>node35:ne&#45;&gt;node35:se</title>
<path fill="none" stroke="black" d="M67.69,-1726.38C90.93,-1740.88 230.51,-1740.88 230.51,-1698.16 230.51,-1659.87 118.33,-1655.91 78.36,-1665.94"/>
<polygon fill="black" stroke="black" points="77.24,-1662.62 69.1,-1669.41 79.7,-1669.17 77.24,-1662.62"/>
<text xml:space="preserve" text-anchor="middle" x="297.3" y="-1693.96" font-family="Times,serif" font-size="14.00">tailport=ne headport=se</text>
</g>
<!-- node36 -->
<g id="node8" class="node">
<title>node36</title>
<ellipse fill="none" stroke="black" cx="39.47" cy="-1582.23" rx="39.47" ry="39.47"/>
<text xml:space="preserve" text-anchor="middle" x="39.47" y="-1578.03" font-family="Times,serif" font-size="14.00">node36</text>
</g>
<!-- node35&#45;&gt;node36 -->
<g id="edge21" class="edge">
<title>node35&#45;&gt;node36</title>
<path fill="none" stroke="black" d="M39.47,-1658.27C39.47,-1650.21 39.47,-1641.6 39.47,-1633.2"/>
<polygon fill="black" stroke="black" points="42.97,-1633.46 39.47,-1623.46 35.97,-1633.46 42.97,-1633.46"/>
</g>
<!-- node36&#45;&gt;node36 -->
<g id="edge22" class="edge">
<title>node36:ne&#45;&gt;node36:s</title>
<path fill="none" stroke="black" d="M67.69,-1610.45C84.93,-1617.7 96.93,-1617.7 96.93,-1576.43 96.93,-1542.08 70.41,-1536.32 50.47,-1539.52"/>
<polygon fill="black" stroke="black" points="49.72,-1536.1 40.93,-1542.01 51.49,-1542.87 49.72,-1536.1"/>
<text xml:space="preserve" text-anchor="middle" x="160.61" y="-1578.03" font-family="Times,serif" font-size="14.00">tailport=ne headport=s</text>
</g>
<!-- node36&#45;&gt;node36 -->
<g id="edge23" class="edge">
<title>node36:ne&#45;&gt;node36:s</title>
<path fill="none" stroke="black" d="M67.69,-1610.45C90.93,-1624.95 224.3,-1624.95 224.3,-1576.43 224.3,-1532.55 93.72,-1528.35 50.13,-1538.67"/>
<polygon fill="black" stroke="black" points="49.18,-1535.29 40.89,-1541.9 51.49,-1541.9 49.18,-1535.29"/>
<text xml:space="preserve" text-anchor="middle" x="287.98" y="-1578.03" font-family="Times,serif" font-size="14.00">tailport=ne headport=s</text>
</g>
<!-- node42 -->
<g id="node9" class="node">
<title>node42</title>
<ellipse fill="none" stroke="black" cx="39.47" cy="-1466.3" rx="39.47" ry="39.47"/>
<text xml:space="preserve" text-anchor="middle" x="39.47" y="-1462.1" font-family="Times,serif" font-size="14.00">node42</text>
</g>
<!-- node36&#45;&gt;node42 -->
<g id="edge24" class="edge">
<title>node36&#45;&gt;node42</title>
<path fill="none" stroke="black" d="M39.47,-1542.34C39.47,-1534.28 39.47,-1525.67 39.47,-1517.27"/>
<polygon fill="black" stroke="black" points="42.97,-1517.53 39.47,-1507.53 35.97,-1517.53 42.97,-1517.53"/>
</g>
<!-- node42&#45;&gt;node42 -->
<g id="edge25" class="edge">
<title>node42:e&#45;&gt;node42:n</title>
<path fill="none" stroke="black" d="M79.3,-1466.3C84.93,-1459.06 96.93,-1459.06 96.93,-1486.22 96.93,-1508.82 70.41,-1512.62 50.47,-1509.08"/>
<polygon fill="black" stroke="black" points="51.49,-1505.73 40.93,-1506.53 49.68,-1512.49 51.49,-1505.73"/>
<text xml:space="preserve" text-anchor="middle" x="157.89" y="-1462.1" font-family="Times,serif" font-size="14.00">tailport=e headport=n</text>
</g>
<!-- node42&#45;&gt;node42 -->
<g id="edge26" class="edge">
<title>node42:e&#45;&gt;node42:n</title>
<path fill="none" stroke="black" d="M79.3,-1466.3C90.93,-1451.81 218.85,-1451.81 218.85,-1486.22 218.85,-1517.27 93.27,-1520.3 50.26,-1509.95"/>
<polygon fill="black" stroke="black" points="51.49,-1506.67 40.89,-1506.64 49.16,-1513.27 51.49,-1506.67"/>
<text xml:space="preserve" text-anchor="middle" x="279.81" y="-1462.1" font-family="Times,serif" font-size="14.00">tailport=e headport=n</text>
</g>
<!-- node43 -->
<g id="node10" class="node">
<title>node43</title>
<ellipse fill="none" stroke="black" cx="39.47" cy="-1350.37" rx="39.47" ry="39.47"/>
<text xml:space="preserve" text-anchor="middle" x="39.47" y="-1346.17" font-family="Times,serif" font-size="14.00">node43</text>
</g>
<!-- node42&#45;&gt;node43 -->
<g id="edge27" class="edge">
<title>node42&#45;&gt;node43</title>
<path fill="none" stroke="black" d="M39.47,-1426.41C39.47,-1418.35 39.47,-1409.74 39.47,-1401.34"/>
<polygon fill="black" stroke="black" points="42.97,-1401.6 39.47,-1391.6 35.97,-1401.6 42.97,-1401.6"/>
</g>
<!-- node43&#45;&gt;node43 -->
<g id="edge28" class="edge">
<title>node43:e&#45;&gt;node43:ne</title>
<path fill="none" stroke="black" d="M79.3,-1350.37C84.93,-1343.13 96.93,-1343.13 96.93,-1364.48 96.93,-1381 89.75,-1384.74 78.52,-1382.24"/>
<polygon fill="black" stroke="black" points="79.72,-1378.95 69.12,-1379.08 77.48,-1385.58 79.72,-1378.95"/>
<text xml:space="preserve" text-anchor="middle" x="161" y="-1346.17" font-family="Times,serif" font-size="14.00">tailport=e headport=ne</text>
</g>
<!-- node43&#45;&gt;node43 -->
<g id="edge29" class="edge">
<title>node43:e&#45;&gt;node43:ne</title>
<path fill="none" stroke="black" d="M79.3,-1350.37C90.93,-1335.88 225.06,-1335.88 225.06,-1364.48 225.06,-1390.12 117.26,-1392.78 78.2,-1382.61"/>
<polygon fill="black" stroke="black" points="79.69,-1379.44 69.1,-1379.13 77.19,-1385.98 79.69,-1379.44"/>
<text xml:space="preserve" text-anchor="middle" x="289.13" y="-1346.17" font-family="Times,serif" font-size="14.00">tailport=e headport=ne</text>
</g>
<!-- node44 -->
<g id="node11" class="node">
<title>node44</title>
<ellipse fill="none" stroke="black" cx="39.47" cy="-1234.44" rx="39.47" ry="39.47"/>
<text xml:space="preserve" text-anchor="middle" x="39.47" y="-1230.24" font-family="Times,serif" font-size="14.00">node44</text>
</g>
<!-- node43&#45;&gt;node44 -->
<g id="edge30" class="edge">
<title>node43&#45;&gt;node44</title>
<path fill="none" stroke="black" d="M39.47,-1310.48C39.47,-1302.42 39.47,-1293.81 39.47,-1285.41"/>
<polygon fill="black" stroke="black" points="42.97,-1285.67 39.47,-1275.67 35.97,-1285.67 42.97,-1285.67"/>
</g>
<!-- node44&#45;&gt;node44 -->
<g id="edge31" class="edge">
<title>node44:e&#45;&gt;node44:e</title>
<path fill="none" stroke="black" d="M79.3,-1234.44C84.93,-1241.69 96.93,-1241.69 96.93,-1234.44 96.93,-1230.48 93.34,-1228.68 89.17,-1229.06"/>
<polygon fill="black" stroke="black" points="87.73,-1225.85 80.63,-1233.72 91.08,-1232 87.73,-1225.85"/>
<text xml:space="preserve" text-anchor="middle" x="157.5" y="-1230.24" font-family="Times,serif" font-size="14.00">tailport=e headport=e</text>
</g>
<!-- node44&#45;&gt;node44 -->
<g id="edge32" class="edge">
<title>node44:e&#45;&gt;node44:e</title>
<path fill="none" stroke="black" d="M79.3,-1234.44C90.93,-1248.93 218.06,-1248.93 218.06,-1234.44 218.06,-1221.88 122.46,-1220.21 89.48,-1229.43"/>
<polygon fill="black" stroke="black" points="88.09,-1226.22 80.66,-1233.77 91.18,-1232.5 88.09,-1226.22"/>
<text xml:space="preserve" text-anchor="middle" x="278.63" y="-1230.24" font-family="Times,serif" font-size="14.00">tailport=e headport=e</text>
</g>
<!-- node45 -->
<g id="node12" class="node">
<title>node45</title>
<ellipse fill="none" stroke="black" cx="39.47" cy="-1118.51" rx="39.47" ry="39.47"/>
<text xml:space="preserve" text-anchor="middle" x="39.47" y="-1114.31" font-family="Times,serif" font-size="14.00">node45</text>
</g>
<!-- node44&#45;&gt;node45 -->
<g id="edge33" class="edge">
<title>node44&#45;&gt;node45</title>
<path fill="none" stroke="black" d="M39.47,-1194.55C39.47,-1186.49 39.47,-1177.88 39.47,-1169.48"/>
<polygon fill="black" stroke="black" points="42.97,-1169.74 39.47,-1159.74 35.97,-1169.74 42.97,-1169.74"/>
</g>
<!-- node45&#45;&gt;node45 -->
<g id="edge34" class="edge">
<title>node45:e&#45;&gt;node45:se</title>
<path fill="none" stroke="black" d="M79.3,-1118.51C84.93,-1125.76 96.93,-1125.76 96.93,-1104.4 96.93,-1087.88 89.75,-1084.14 78.52,-1086.64"/>
<polygon fill="black" stroke="black" points="77.48,-1083.3 69.12,-1089.81 79.72,-1089.94 77.48,-1083.3"/>
<text xml:space="preserve" text-anchor="middle" x="160.22" y="-1114.31" font-family="Times,serif" font-size="14.00">tailport=e headport=se</text>
</g>
<!-- node45&#45;&gt;node45 -->
<g id="edge35" class="edge">
<title>node45:e&#45;&gt;node45:se</title>
<path fill="none" stroke="black" d="M79.3,-1118.51C90.93,-1133 223.51,-1133 223.51,-1104.4 223.51,-1078.81 117.42,-1076.12 78.41,-1086.2"/>
<polygon fill="black" stroke="black" points="77.2,-1082.92 69.1,-1089.75 79.69,-1089.46 77.2,-1082.92"/>
<text xml:space="preserve" text-anchor="middle" x="286.8" y="-1114.31" font-family="Times,serif" font-size="14.00">tailport=e headport=se</text>
</g>
<!-- node46 -->
<g id="node13" class="node">
<title>node46</title>
<ellipse fill="none" stroke="black" cx="39.47" cy="-1002.58" rx="39.47" ry="39.47"/>
<text xml:space="preserve" text-anchor="middle" x="39.47" y="-998.38" font-family="Times,serif" font-size="14.00">node46</text>
</g>
<!-- node45&#45;&gt;node46 -->
<g id="edge36" class="edge">
<title>node45&#45;&gt;node46</title>
<path fill="none" stroke="black" d="M39.47,-1078.62C39.47,-1070.56 39.47,-1061.95 39.47,-1053.55"/>
<polygon fill="black" stroke="black" points="42.97,-1053.81 39.47,-1043.81 35.97,-1053.81 42.97,-1053.81"/>
</g>
<!-- node46&#45;&gt;node46 -->
<g id="edge37" class="edge">
<title>node46:e&#45;&gt;node46:s</title>
<path fill="none" stroke="black" d="M79.3,-1002.58C84.93,-1009.83 96.93,-1009.83 96.93,-982.66 96.93,-960.06 70.41,-956.27 50.47,-959.8"/>
<polygon fill="black" stroke="black" points="49.68,-956.39 40.93,-962.36 51.49,-963.15 49.68,-956.39"/>
<text xml:space="preserve" text-anchor="middle" x="157.11" y="-998.38" font-family="Times,serif" font-size="14.00">tailport=e headport=s</text>
</g>
<!-- node46&#45;&gt;node46 -->
<g id="edge38" class="edge">
<title>node46:e&#45;&gt;node46:s</title>
<path fill="none" stroke="black" d="M79.3,-1002.58C90.93,-1017.07 217.3,-1017.07 217.3,-982.66 217.3,-951.62 92.98,-948.58 50.22,-958.93"/>
<polygon fill="black" stroke="black" points="49.15,-955.6 40.89,-962.24 51.49,-962.2 49.15,-955.6"/>
<text xml:space="preserve" text-anchor="middle" x="277.48" y="-998.38" font-family="Times,serif" font-size="14.00">tailport=e headport=s</text>
</g>
<!-- node52 -->
<g id="node14" class="node">
<title>node52</title>
<ellipse fill="none" stroke="black" cx="39.47" cy="-886.65" rx="39.47" ry="39.47"/>
<text xml:space="preserve" text-anchor="middle" x="39.47" y="-882.45" font-family="Times,serif" font-size="14.00">node52</text>
</g>
<!-- node46&#45;&gt;node52 -->
<g id="edge39" class="edge">
<title>node46&#45;&gt;node52</title>
<path fill="none" stroke="black" d="M39.47,-962.69C39.47,-954.63 39.47,-946.02 39.47,-937.62"/>
<polygon fill="black" stroke="black" points="42.97,-937.88 39.47,-927.88 35.97,-937.88 42.97,-937.88"/>
</g>
<!-- node52&#45;&gt;node52 -->
<g id="edge40" class="edge">
<title>node52:se&#45;&gt;node52:n</title>
<path fill="none" stroke="black" d="M67.69,-858.43C84.93,-851.18 96.93,-851.18 96.93,-892.46 96.93,-926.8 70.41,-932.57 50.47,-929.36"/>
<polygon fill="black" stroke="black" points="51.49,-926.01 40.93,-926.87 49.72,-932.79 51.49,-926.01"/>
<text xml:space="preserve" text-anchor="middle" x="160.61" y="-882.45" font-family="Times,serif" font-size="14.00">tailport=se headport=n</text>
</g>
<!-- node52&#45;&gt;node52 -->
<g id="edge41" class="edge">
<title>node52:se&#45;&gt;node52:n</title>
<path fill="none" stroke="black" d="M67.69,-858.43C90.93,-843.94 224.3,-843.94 224.3,-892.46 224.3,-936.33 93.72,-940.53 50.13,-930.22"/>
<polygon fill="black" stroke="black" points="51.49,-926.99 40.89,-926.99 49.18,-933.59 51.49,-926.99"/>
<text xml:space="preserve" text-anchor="middle" x="287.98" y="-882.45" font-family="Times,serif" font-size="14.00">tailport=se headport=n</text>
</g>
<!-- node53 -->
<g id="node15" class="node">
<title>node53</title>
<ellipse fill="none" stroke="black" cx="39.47" cy="-770.72" rx="39.47" ry="39.47"/>
<text xml:space="preserve" text-anchor="middle" x="39.47" y="-766.52" font-family="Times,serif" font-size="14.00">node53</text>
</g>
<!-- node52&#45;&gt;node53 -->
<g id="edge42" class="edge">
<title>node52&#45;&gt;node53</title>
<path fill="none" stroke="black" d="M39.47,-846.76C39.47,-838.7 39.47,-830.09 39.47,-821.69"/>
<polygon fill="black" stroke="black" points="42.97,-821.95 39.47,-811.95 35.97,-821.95 42.97,-821.95"/>
</g>
<!-- node53&#45;&gt;node53 -->
<g id="edge43" class="edge">
<title>node53:se&#45;&gt;node53:ne</title>
<path fill="none" stroke="black" d="M67.69,-742.5C84.93,-735.25 96.93,-735.25 96.93,-770.72 96.93,-798.15 89.75,-804.37 78.52,-802.42"/>
<polygon fill="black" stroke="black" points="79.72,-799.13 69.13,-799.41 77.58,-805.8 79.72,-799.13"/>
<text xml:space="preserve" text-anchor="middle" x="163.72" y="-766.52" font-family="Times,serif" font-size="14.00">tailport=se headport=ne</text>
</g>
<!-- node53&#45;&gt;node53 -->
<g id="edge44" class="edge">
<title>node53:se&#45;&gt;node53:ne</title>
<path fill="none" stroke="black" d="M67.69,-742.5C90.93,-728.01 230.51,-728.01 230.51,-770.72 230.51,-809.01 118.33,-812.98 78.36,-802.95"/>
<polygon fill="black" stroke="black" points="79.7,-799.71 69.1,-799.48 77.24,-806.26 79.7,-799.71"/>
<text xml:space="preserve" text-anchor="middle" x="297.3" y="-766.52" font-family="Times,serif" font-size="14.00">tailport=se headport=ne</text>
</g>
<!-- node54 -->
<g id="node16" class="node">
<title>node54</title>
<ellipse fill="none" stroke="black" cx="39.47" cy="-654.79" rx="39.47" ry="39.47"/>
<text xml:space="preserve" text-anchor="middle" x="39.47" y="-650.59" font-family="Times,serif" font-size="14.00">node54</text>
</g>
<!-- node53&#45;&gt;node54 -->
<g id="edge45" class="edge">
<title>node53&#45;&gt;node54</title>
<path fill="none" stroke="black" d="M39.47,-730.83C39.47,-722.77 39.47,-714.16 39.47,-705.76"/>
<polygon fill="black" stroke="black" points="42.97,-706.02 39.47,-696.02 35.97,-706.02 42.97,-706.02"/>
</g>
<!-- node54&#45;&gt;node54 -->
<g id="edge46" class="edge">
<title>node54:se&#45;&gt;node54:e</title>
<path fill="none" stroke="black" d="M67.69,-626.57C84.93,-619.32 96.93,-619.32 96.93,-640.68 96.93,-651.69 93.74,-657.03 89.88,-658.62"/>
<polygon fill="black" stroke="black" points="91.32,-655.42 80.72,-655.31 88.94,-662 91.32,-655.42"/>
<text xml:space="preserve" text-anchor="middle" x="160.22" y="-650.59" font-family="Times,serif" font-size="14.00">tailport=se headport=e</text>
</g>
<!-- node54&#45;&gt;node54 -->
<g id="edge47" class="edge">
<title>node54:se&#45;&gt;node54:e</title>
<path fill="none" stroke="black" d="M67.69,-626.57C90.93,-612.08 223.51,-612.08 223.51,-640.68 223.51,-665.6 122.91,-668.81 89.28,-659.64"/>
<polygon fill="black" stroke="black" points="91.19,-656.68 80.66,-655.45 88.13,-662.97 91.19,-656.68"/>
<text xml:space="preserve" text-anchor="middle" x="286.8" y="-650.59" font-family="Times,serif" font-size="14.00">tailport=se headport=e</text>
</g>
<!-- node56 -->
<g id="node17" class="node">
<title>node56</title>
<ellipse fill="none" stroke="black" cx="39.47" cy="-538.86" rx="39.47" ry="39.47"/>
<text xml:space="preserve" text-anchor="middle" x="39.47" y="-534.66" font-family="Times,serif" font-size="14.00">node56</text>
</g>
<!-- node54&#45;&gt;node56 -->
<g id="edge48" class="edge">
<title>node54&#45;&gt;node56</title>
<path fill="none" stroke="black" d="M39.47,-614.9C39.47,-606.84 39.47,-598.23 39.47,-589.83"/>
<polygon fill="black" stroke="black" points="42.97,-590.09 39.47,-580.09 35.97,-590.09 42.97,-590.09"/>
</g>
<!-- node56&#45;&gt;node56 -->
<g id="edge49" class="edge">
<title>node56:se&#45;&gt;node56:s</title>
<path fill="none" stroke="black" d="M67.69,-510.64C84.93,-517.88 96.93,-517.88 96.93,-504.83 96.93,-493.97 70.41,-492.15 50.47,-496.02"/>
<polygon fill="black" stroke="black" points="49.65,-492.61 40.92,-498.63 51.49,-499.36 49.65,-492.61"/>
<text xml:space="preserve" text-anchor="middle" x="159.84" y="-534.66" font-family="Times,serif" font-size="14.00">tailport=se headport=s</text>
</g>
<!-- node56&#45;&gt;node56 -->
<g id="edge50" class="edge">
<title>node56:se&#45;&gt;node56:s</title>
<path fill="none" stroke="black" d="M67.69,-510.64C90.93,-525.13 222.75,-525.13 222.75,-504.83 222.75,-486.48 93.44,-484.72 50.09,-495.27"/>
<polygon fill="black" stroke="black" points="49.15,-491.89 40.89,-498.52 51.49,-498.49 49.15,-491.89"/>
<text xml:space="preserve" text-anchor="middle" x="285.65" y="-534.66" font-family="Times,serif" font-size="14.00">tailport=se headport=s</text>
</g>
<!-- node62 -->
<g id="node18" class="node">
<title>node62</title>
<ellipse fill="none" stroke="black" cx="39.47" cy="-422.93" rx="39.47" ry="39.47"/>
<text xml:space="preserve" text-anchor="middle" x="39.47" y="-418.73" font-family="Times,serif" font-size="14.00">node62</text>
</g>
<!-- node56&#45;&gt;node62 -->
<g id="edge51" class="edge">
<title>node56&#45;&gt;node62</title>
<path fill="none" stroke="black" d="M39.47,-498.97C39.47,-490.91 39.47,-482.3 39.47,-473.9"/>
<polygon fill="black" stroke="black" points="42.97,-474.16 39.47,-464.16 35.97,-474.16 42.97,-474.16"/>
</g>
<!-- node62&#45;&gt;node62 -->
<g id="edge52" class="edge">
<title>node62:s&#45;&gt;node62:n</title>
<path fill="none" stroke="black" d="M39.47,-383.1C58.62,-375.85 96.93,-375.85 96.93,-422.93 96.93,-462.1 70.41,-468.68 50.47,-465.61"/>
<polygon fill="black" stroke="black" points="51.49,-462.26 40.93,-463.15 49.73,-469.04 51.49,-462.26"/>
<text xml:space="preserve" text-anchor="middle" x="157.51" y="-418.73" font-family="Times,serif" font-size="14.00">tailport=s headport=n</text>
</g>
<!-- node62&#45;&gt;node62 -->
<g id="edge53" class="edge">
<title>node62:s&#45;&gt;node62:n</title>
<path fill="none" stroke="black" d="M39.47,-383.1C64.62,-368.6 218.08,-368.6 218.08,-422.93 218.08,-471.95 93.13,-476.74 50.24,-466.56"/>
<polygon fill="black" stroke="black" points="51.49,-463.29 40.89,-463.27 49.16,-469.89 51.49,-463.29"/>
<text xml:space="preserve" text-anchor="middle" x="278.66" y="-418.73" font-family="Times,serif" font-size="14.00">tailport=s headport=n</text>
</g>
<!-- node63 -->
<g id="node19" class="node">
<title>node63</title>
<ellipse fill="none" stroke="black" cx="39.47" cy="-307" rx="39.47" ry="39.47"/>
<text xml:space="preserve" text-anchor="middle" x="39.47" y="-302.8" font-family="Times,serif" font-size="14.00">node63</text>
</g>
<!-- node62&#45;&gt;node63 -->
<g id="edge54" class="edge">
<title>node62&#45;&gt;node63</title>
<path fill="none" stroke="black" d="M39.47,-383.04C39.47,-374.98 39.47,-366.37 39.47,-357.97"/>
<polygon fill="black" stroke="black" points="42.97,-358.23 39.47,-348.23 35.97,-358.23 42.97,-358.23"/>
</g>
<!-- node63&#45;&gt;node63 -->
<g id="edge55" class="edge">
<title>node63:s&#45;&gt;node63:ne</title>
<path fill="none" stroke="black" d="M39.47,-267.17C58.62,-259.92 96.93,-259.92 96.93,-301.19 96.93,-333.12 89.75,-340.35 78.52,-338.64"/>
<polygon fill="black" stroke="black" points="79.72,-335.34 69.13,-335.68 77.62,-342.02 79.72,-335.34"/>
<text xml:space="preserve" text-anchor="middle" x="160.61" y="-302.8" font-family="Times,serif" font-size="14.00">tailport=s headport=ne</text>
</g>
<!-- node63&#45;&gt;node63 -->
<g id="edge56" class="edge">
<title>node63:s&#45;&gt;node63:ne</title>
<path fill="none" stroke="black" d="M39.47,-267.17C64.62,-252.67 224.3,-252.67 224.3,-301.19 224.3,-344.6 117.58,-349.17 78.43,-339.28"/>
<polygon fill="black" stroke="black" points="79.69,-336.02 69.1,-335.76 77.22,-342.57 79.69,-336.02"/>
<text xml:space="preserve" text-anchor="middle" x="287.98" y="-302.8" font-family="Times,serif" font-size="14.00">tailport=s headport=ne</text>
</g>
<!-- node64 -->
<g id="node20" class="node">
<title>node64</title>
<ellipse fill="none" stroke="black" cx="39.47" cy="-191.07" rx="39.47" ry="39.47"/>
<text xml:space="preserve" text-anchor="middle" x="39.47" y="-186.87" font-family="Times,serif" font-size="14.00">node64</text>
</g>
<!-- node63&#45;&gt;node64 -->
<g id="edge57" class="edge">
<title>node63&#45;&gt;node64</title>
<path fill="none" stroke="black" d="M39.47,-267.11C39.47,-259.05 39.47,-250.44 39.47,-242.04"/>
<polygon fill="black" stroke="black" points="42.97,-242.3 39.47,-232.3 35.97,-242.3 42.97,-242.3"/>
</g>
<!-- node64&#45;&gt;node64 -->
<g id="edge58" class="edge">
<title>node64:s&#45;&gt;node64:e</title>
<path fill="none" stroke="black" d="M39.47,-151.24C58.62,-143.99 96.93,-143.99 96.93,-171.15 96.93,-184.73 93.93,-191.53 90.23,-194.02"/>
<polygon fill="black" stroke="black" points="91.33,-190.69 80.76,-191.46 89.51,-197.45 91.33,-190.69"/>
<text xml:space="preserve" text-anchor="middle" x="157.11" y="-186.87" font-family="Times,serif" font-size="14.00">tailport=s headport=e</text>
</g>
<!-- node64&#45;&gt;node64 -->
<g id="edge59" class="edge">
<title>node64:s&#45;&gt;node64:e</title>
<path fill="none" stroke="black" d="M39.47,-151.24C64.62,-136.74 217.3,-136.74 217.3,-171.15 217.3,-200.99 122.27,-204.95 89.44,-196.03"/>
<polygon fill="black" stroke="black" points="91.18,-192.99 80.66,-191.74 88.1,-199.27 91.18,-192.99"/>
<text xml:space="preserve" text-anchor="middle" x="277.48" y="-186.87" font-family="Times,serif" font-size="14.00">tailport=s headport=e</text>
</g>
<!-- node65 -->
<g id="node21" class="node">
<title>node65</title>
<ellipse fill="none" stroke="black" cx="39.47" cy="-75.14" rx="39.47" ry="39.47"/>
<text xml:space="preserve" text-anchor="middle" x="39.47" y="-70.94" font-family="Times,serif" font-size="14.00">node65</text>
</g>
<!-- node64&#45;&gt;node65 -->
<g id="edge60" class="edge">
<title>node64&#45;&gt;node65</title>
<path fill="none" stroke="black" d="M39.47,-151.18C39.47,-143.12 39.47,-134.51 39.47,-126.11"/>
<polygon fill="black" stroke="black" points="42.97,-126.37 39.47,-116.37 35.97,-126.37 42.97,-126.37"/>
</g>
<!-- node65&#45;&gt;node65 -->
<g id="edge61" class="edge">
<title>node65:s&#45;&gt;node65:se</title>
<path fill="none" stroke="black" d="M39.47,-35.31C58.62,-28.06 96.93,-28.06 96.93,-41.11 96.93,-51.21 89.75,-53.49 78.52,-50.66"/>
<polygon fill="black" stroke="black" points="79.71,-47.37 69.12,-47.41 77.43,-53.98 79.71,-47.37"/>
<text xml:space="preserve" text-anchor="middle" x="159.84" y="-70.94" font-family="Times,serif" font-size="14.00">tailport=s headport=se</text>
</g>
<!-- node65&#45;&gt;node65 -->
<g id="edge62" class="edge">
<title>node65:s&#45;&gt;node65:se</title>
<path fill="none" stroke="black" d="M39.47,-35.31C64.62,-20.81 222.75,-20.81 222.75,-41.11 222.75,-59.27 117.27,-61.18 78.38,-51.01"/>
<polygon fill="black" stroke="black" points="79.69,-47.77 69.1,-47.46 77.19,-54.3 79.69,-47.77"/>
<text xml:space="preserve" text-anchor="middle" x="285.65" y="-70.94" font-family="Times,serif" font-size="14.00">tailport=s headport=se</text>
</g>
</g>
</svg>
