<?xml version="1.0" encoding="UTF-8" standalone="no"?>
<!DOCTYPE svg PUBLIC "-//W3C//DTD SVG 1.1//EN"
 "http://www.w3.org/Graphics/SVG/1.1/DTD/svg11.dtd">
<!-- Generated by graphviz version a (a)
 -->
<!-- Title: git_basics Pages: 1 -->
<svg width="833pt" height="244pt"
 viewBox="0.00 0.00 833.00 244.00" xmlns="http://www.w3.org/2000/svg" xmlns:xlink="http://www.w3.org/1999/xlink">
<g id="graph0" class="graph" transform="scale(1 1) rotate(0) translate(4 239.8)">
<title>git_basics</title>
<polygon fill="white" stroke="none" points="-4,4 -4,-239.8 829.2,-239.8 829.2,4 -4,4"/>
<text xml:space="preserve" text-anchor="middle" x="412.6" y="-213.8" font-family="Helvetica,sans-Serif" font-size="20.00">Basic git concepts and operations</text>
<!-- changes -->
<g id="node1" class="node">
<title>changes</title>
<polygon fill="#880000" fill-opacity="0.133333" stroke="none" points="128.28,-179.8 0,-179.8 0,-103.8 128.28,-103.8 128.28,-179.8"/>
<polygon fill="none" stroke="#000000" stroke-opacity="0.266667" points="0,-141.8 0,-179.8 128.28,-179.8 128.28,-141.8 0,-141.8"/>
<text xml:space="preserve" text-anchor="start" x="33.8" y="-163.2" font-family="Helvetica,sans-Serif" font-size="14.00"> </text>
<text xml:space="preserve" text-anchor="start" x="37.69" y="-163.2" font-family="Helvetica,sans-Serif" font-weight="bold" font-size="14.00">changes</text>
<text xml:space="preserve" text-anchor="start" x="5" y="-149.2" font-family="Helvetica,sans-Serif" font-size="14.00">in the working tree </text>
<polygon fill="none" stroke="#000000" stroke-opacity="0.266667" points="0,-103.8 0,-141.8 128.28,-141.8 128.28,-103.8 0,-103.8"/>
<text xml:space="preserve" text-anchor="start" x="5" y="-125.2" font-family="Helvetica,sans-Serif" font-style="italic" font-size="14.00">To view: </text>
<text xml:space="preserve" text-anchor="start" x="5" y="-111.2" font-family="Helvetica,sans-Serif" font-size="14.00">git diff</text>
</g>
<!-- staging -->
<g id="node2" class="node">
<title>staging</title>
<polygon fill="#ff8800" fill-opacity="0.133333" stroke="none" points="399.05,-174.8 296.45,-174.8 296.45,-98.8 399.05,-98.8 399.05,-174.8"/>
<polygon fill="none" stroke="#000000" stroke-opacity="0.266667" points="296.45,-136.8 296.45,-174.8 399.05,-174.8 399.05,-136.8 296.45,-136.8"/>
<text xml:space="preserve" text-anchor="start" x="304.56" y="-158.2" font-family="Helvetica,sans-Serif" font-size="14.00"> </text>
<text xml:space="preserve" text-anchor="start" x="308.45" y="-158.2" font-family="Helvetica,sans-Serif" font-weight="bold" font-size="14.00">staging area</text>
<text xml:space="preserve" text-anchor="start" x="303.78" y="-144.2" font-family="Helvetica,sans-Serif" font-size="14.00">(cache, index)</text>
<polygon fill="none" stroke="#000000" stroke-opacity="0.266667" points="296.45,-98.8 296.45,-136.8 399.05,-136.8 399.05,-98.8 296.45,-98.8"/>
<text xml:space="preserve" text-anchor="start" x="301.45" y="-120.2" font-family="Helvetica,sans-Serif" font-style="italic" font-size="14.00">To view: </text>
<text xml:space="preserve" text-anchor="start" x="301.45" y="-106.2" font-family="Helvetica,sans-Serif" font-size="14.00">git diff &#45;&#45;staged</text>
</g>
<!-- changes&#45;&gt;staging -->
<g id="edge8" class="edge">
<title>changes&#45;&gt;staging</title>
<path fill="none" stroke="#880000" stroke-width="2" stroke-dasharray="1,5" stroke-opacity="0.533333" d="M128.15,-141.78C170.63,-141.63 227.91,-141.15 278.45,-139.8 281.88,-139.71 285.4,-139.6 288.96,-139.48"/>
<polygon fill="#880000" fill-opacity="0.533333" stroke="#880000" stroke-width="2" stroke-opacity="0.533333" points="288.81,-141.23 293.74,-139.3 288.68,-137.74 288.81,-141.23"/>
<text xml:space="preserve" text-anchor="middle" x="212.36" y="-162.57" font-family="Helvetica,sans-Serif" font-size="14.00">git add ... &#160;&#160;&#160;</text>
<text xml:space="preserve" text-anchor="middle" x="212.36" y="-145.77" font-family="Helvetica,sans-Serif" font-size="14.00">git reset &#160;&#160;&#160;&#160;&#160;</text>
</g>
<!-- stash -->
<g id="node4" class="node">
<title>stash</title>
<polygon fill="#0044ff" fill-opacity="0.133333" stroke="none" points="253.93,-88.2 170.8,-88.2 170.8,-23.4 253.93,-23.4 253.93,-88.2"/>
<polygon fill="none" stroke="#000000" stroke-opacity="0.266667" points="170.8,-61.4 170.8,-88.2 253.93,-88.2 253.93,-61.4 170.8,-61.4"/>
<text xml:space="preserve" text-anchor="start" x="192.13" y="-71.6" font-family="Helvetica,sans-Serif" font-size="14.00"> </text>
<text xml:space="preserve" text-anchor="start" x="196.02" y="-71.6" font-family="Helvetica,sans-Serif" font-weight="bold" font-size="14.00">stash</text>
<polygon fill="none" stroke="#000000" stroke-opacity="0.266667" points="170.8,-23.4 170.8,-61.4 253.93,-61.4 253.93,-23.4 170.8,-23.4"/>
<text xml:space="preserve" text-anchor="start" x="175.8" y="-44.8" font-family="Helvetica,sans-Serif" font-style="italic" font-size="14.00">To view:</text>
<text xml:space="preserve" text-anchor="start" x="175.8" y="-30.8" font-family="Helvetica,sans-Serif" font-size="14.00">git stash list</text>
</g>
<!-- changes&#45;&gt;stash -->
<g id="edge4" class="edge">
<title>changes&#45;&gt;stash</title>
<path fill="none" stroke="#000000" stroke-width="2" stroke-dasharray="1,5" stroke-opacity="0.533333" d="M134.85,-100.8C147.23,-93.52 159.74,-86.17 170.95,-79.57"/>
<polygon fill="#000000" fill-opacity="0.533333" stroke="#000000" stroke-width="2" stroke-opacity="0.533333" points="134.03,-99.25 130.61,-103.29 135.81,-102.27 134.03,-99.25"/>
<text xml:space="preserve" text-anchor="middle" x="189.02" y="-92.28" font-family="Helvetica,sans-Serif" font-size="14.00">git stash pop</text>
</g>
<!-- stash_push -->
<g id="node5" class="node">
<title>stash_push</title>
<text xml:space="preserve" text-anchor="middle" x="212.36" y="-110.6" font-family="Helvetica,sans-Serif" font-size="14.00">git stash [push]</text>
</g>
<!-- changes&#45;&gt;stash_push -->
<g id="edge2" class="edge">
<title>changes&#45;&gt;stash_push</title>
<path fill="none" stroke="#000088" stroke-width="2" stroke-dasharray="1,5" stroke-opacity="0.266667" d="M128,-130.19C140.85,-127.82 154.13,-125.37 166.21,-123.14"/>
</g>
<!-- discard -->
<g id="node8" class="node">
<title>discard</title>
<text xml:space="preserve" text-anchor="middle" x="64.14" y="-45.6" font-family="Helvetica,sans-Serif" font-size="14.00">discard</text>
</g>
<!-- changes&#45;&gt;discard -->
<g id="edge9" class="edge">
<title>changes&#45;&gt;discard</title>
<path fill="none" stroke="#880000" stroke-width="2" stroke-dasharray="1,5" stroke-opacity="0.533333" d="M64.14,-103.93C64.14,-94.38 64.14,-84.34 64.14,-75.54"/>
<polygon fill="#880000" fill-opacity="0.533333" stroke="#880000" stroke-width="2" stroke-opacity="0.533333" points="65.89,-75.57 64.14,-70.57 62.39,-75.57 65.89,-75.57"/>
<text xml:space="preserve" text-anchor="middle" x="52.74" y="-81.6" font-family="Helvetica,sans-Serif" font-size="14.00">git restore ...</text>
</g>
<!-- HEAD -->
<g id="node3" class="node">
<title>HEAD</title>
<polygon fill="#88ff00" fill-opacity="0.133333" stroke="none" points="624.34,-149.6 498.83,-149.6 498.83,0 624.34,0 624.34,-149.6"/>
<polyline fill="none" stroke="#000000" stroke-opacity="0.266667" points="624.34,-124.8 624.34,-149.6 498.83,-149.6 498.83,-124.8"/>
<text xml:space="preserve" text-anchor="start" x="532.03" y="-134" font-family="Helvetica,sans-Serif" font-size="14.00"> </text>
<text xml:space="preserve" text-anchor="start" x="535.92" y="-134" font-family="Helvetica,sans-Serif" font-weight="bold" font-size="14.00">HEAD </text>
<text xml:space="preserve" text-anchor="start" x="579.47" y="-134" font-family="Helvetica,sans-Serif" font-size="14.00">of</text>
<polyline fill="none" stroke="#000000" stroke-opacity="0.266667" points="498.83,-124.8 498.83,-100 624.34,-100 624.34,-124.8"/>
<text xml:space="preserve" text-anchor="start" x="502.83" y="-108.2" font-family="Helvetica,sans-Serif" font-size="14.00"> the current branch</text>
<polygon fill="none" stroke="#000000" stroke-opacity="0.266667" points="498.83,-50 498.83,-100 624.34,-100 624.34,-50 498.83,-50"/>
<text xml:space="preserve" text-anchor="start" x="502.83" y="-84.4" font-family="Helvetica,sans-Serif" font-style="italic" font-size="14.00">To view:</text>
<text xml:space="preserve" text-anchor="start" x="502.83" y="-70.4" font-family="Helvetica,sans-Serif" font-size="14.00">git show</text>
<text xml:space="preserve" text-anchor="start" x="502.83" y="-56.4" font-family="Helvetica,sans-Serif" font-size="14.00">git log</text>
<polygon fill="none" stroke="#000000" stroke-opacity="0.266667" points="498.83,0 498.83,-50 624.34,-50 624.34,0 498.83,0"/>
<text xml:space="preserve" text-anchor="start" x="502.83" y="-34.4" font-family="Helvetica,sans-Serif" font-style="italic" font-size="14.00">To change branch:</text>
<text xml:space="preserve" text-anchor="start" x="502.83" y="-20.4" font-family="Helvetica,sans-Serif" font-size="14.00">git switch ...</text>
<text xml:space="preserve" text-anchor="start" x="502.83" y="-6.4" font-family="Helvetica,sans-Serif" font-size="14.00">git checkout ...</text>
</g>
<!-- staging&#45;&gt;HEAD -->
<g id="edge1" class="edge">
<title>staging&#45;&gt;HEAD:push</title>
<path fill="none" stroke="#880000" stroke-width="2" stroke-dasharray="1,5" stroke-opacity="0.533333" d="M398.78,-137C425.68,-137.09 459.67,-137.18 490.95,-137.2"/>
<polygon fill="#880000" fill-opacity="0.533333" stroke="#880000" stroke-width="2" stroke-opacity="0.533333" points="490.81,-138.95 495.81,-137.2 490.81,-135.45 490.81,-138.95"/>
<text xml:space="preserve" text-anchor="middle" x="448.94" y="-141.39" font-family="Helvetica,sans-Serif" font-size="14.00">git commit</text>
</g>
<!-- remote -->
<g id="node6" class="node">
<title>remote</title>
<polygon fill="#00ff00" fill-opacity="0.133333" stroke="#000000" stroke-opacity="0.133333" points="820.42,-163.8 714.15,-163.8 714.15,-127.8 820.42,-127.8 820.42,-163.8"/>
<text xml:space="preserve" text-anchor="middle" x="767.29" y="-141.6" font-family="Helvetica,sans-Serif" font-size="14.00">remote branch</text>
</g>
<!-- HEAD&#45;&gt;remote -->
<g id="edge6" class="edge">
<title>HEAD:push&#45;&gt;remote</title>
<path fill="none" stroke="#880000" stroke-width="2" stroke-dasharray="1,5" stroke-opacity="0.533333" d="M624.34,-137.2C651.19,-137.2 680.84,-138.75 706.07,-140.54"/>
<polygon fill="#880000" fill-opacity="0.533333" stroke="#880000" stroke-width="2" stroke-opacity="0.533333" points="705.62,-142.26 710.73,-140.88 705.88,-138.77 705.62,-142.26"/>
<text xml:space="preserve" text-anchor="middle" x="666.86" y="-143.71" font-family="Helvetica,sans-Serif" font-size="14.00">git push</text>
</g>
<!-- HEAD&#45;&gt;remote -->
<g id="edge7" class="edge">
<title>HEAD:pull&#45;&gt;remote</title>
<path fill="none" stroke="#004400" stroke-width="2" stroke-dasharray="1,5" stroke-opacity="0.533333" d="M632.2,-112.36C655.89,-112.13 664.95,-111.15 691.38,-117 702.53,-119.47 714.23,-123.31 724.97,-127.39"/>
<polygon fill="#004400" fill-opacity="0.533333" stroke="#004400" stroke-width="2" stroke-opacity="0.533333" points="632.36,-110.61 627.37,-112.38 632.38,-114.11 632.36,-110.61"/>
<text xml:space="preserve" text-anchor="middle" x="666.86" y="-121.2" font-family="Helvetica,sans-Serif" font-size="14.00">git pull</text>
</g>
<!-- branches -->
<g id="node7" class="node">
<title>branches</title>
<polygon fill="#008888" fill-opacity="0.133333" stroke="none" points="825.2,-107.2 709.38,-107.2 709.38,-42.4 825.2,-42.4 825.2,-107.2"/>
<polygon fill="none" stroke="#000000" stroke-opacity="0.266667" points="709.38,-80.4 709.38,-107.2 825.2,-107.2 825.2,-80.4 709.38,-80.4"/>
<text xml:space="preserve" text-anchor="start" x="714.38" y="-90.6" font-family="Helvetica,sans-Serif" font-size="14.00"> </text>
<text xml:space="preserve" text-anchor="start" x="718.27" y="-90.6" font-family="Helvetica,sans-Serif" font-weight="bold" font-size="14.00">local branches</text>
<text xml:space="preserve" text-anchor="start" x="816.31" y="-90.6" font-family="Helvetica,sans-Serif" font-size="14.00"> </text>
<polygon fill="none" stroke="#000000" stroke-opacity="0.266667" points="709.38,-42.4 709.38,-80.4 825.2,-80.4 825.2,-42.4 709.38,-42.4"/>
<text xml:space="preserve" text-anchor="start" x="714.38" y="-63.8" font-family="Helvetica,sans-Serif" font-style="italic" font-size="14.00">To view:</text>
<text xml:space="preserve" text-anchor="start" x="714.38" y="-49.8" font-family="Helvetica,sans-Serif" font-size="14.00">git branch [&#45;&#45;list]</text>
</g>
<!-- HEAD&#45;&gt;branches -->
<g id="edge10" class="edge">
<title>HEAD:switch&#45;&gt;branches</title>
<path fill="none" stroke="#000000" stroke-opacity="0.533333" d="M631.31,-75C657.52,-74.99 685.79,-74.96 709.65,-74.92"/>
<polygon fill="none" stroke="#000000" stroke-opacity="0.533333" points="631.24,-75 628.24,-77 625.24,-75 628.24,-73 631.24,-75"/>
</g>
<!-- stash_push&#45;&gt;staging -->
<g id="edge3" class="edge">
<title>stash_push&#45;&gt;staging</title>
<path fill="none" stroke="#000088" stroke-width="2" stroke-dasharray="1,5" stroke-opacity="0.266667" d="M259.27,-122.37C271.32,-124.36 284.39,-126.51 296.65,-128.54"/>
</g>
<!-- stash_push&#45;&gt;stash -->
<g id="edge5" class="edge">
<title>stash_push&#45;&gt;stash</title>
<path fill="none" stroke="#000088" stroke-width="2" stroke-dasharray="1,5" stroke-opacity="0.266667" d="M212.36,-106.45C212.36,-102.9 212.36,-99.36 212.36,-95.82"/>
<polygon fill="#000088" fill-opacity="0.266667" stroke="#000088" stroke-width="2" stroke-opacity="0.266667" points="214.11,-96.09 212.36,-91.09 210.61,-96.09 214.11,-96.09"/>
</g>
</g>
</svg>
