<?xml version="1.0" encoding="UTF-8" standalone="no"?>
<!DOCTYPE svg PUBLIC "-//W3C//DTD SVG 1.1//EN"
 "http://www.w3.org/Graphics/SVG/1.1/DTD/svg11.dtd">
<!-- Generated by graphviz version a (a)
 -->
<!-- Title: G Pages: 1 -->
<svg width="226pt" height="1536pt"
 viewBox="0.00 0.00 226.00 1536.00" xmlns="http://www.w3.org/2000/svg" xmlns:xlink="http://www.w3.org/1999/xlink">
<g id="graph0" class="graph" transform="scale(1 1) rotate(0) translate(4 1531.64)">
<title>G</title>
<polygon fill="white" stroke="none" points="-4,4 -4,-1531.64 222.14,-1531.64 222.14,4 -4,4"/>
<text xml:space="preserve" text-anchor="middle" x="109.07" y="-8.2" font-family="Times,serif" font-size="14.00">SelfLeft</text>
<!-- node11 -->
<g id="node1" class="node">
<title>node11</title>
<polygon fill="none" stroke="black" points="218.14,-1520.8 160.93,-1520.8 160.93,-1484.8 218.14,-1484.8 218.14,-1520.8"/>
<text xml:space="preserve" text-anchor="middle" x="189.53" y="-1498.6" font-family="Times,serif" font-size="14.00">node11</text>
</g>
<!-- node11&#45;&gt;node11 -->
<g id="edge1" class="edge">
<title>node11:nw&#45;&gt;node11:nw</title>
<path fill="none" stroke="black" d="M160.93,-1520.8C154.93,-1529.92 142.93,-1529.92 142.93,-1520.8 142.93,-1515.38 147.16,-1513.18 151.85,-1514.2"/>
<polygon fill="black" stroke="black" points="149.56,-1516.86 159.7,-1519.91 153.67,-1511.2 149.56,-1516.86"/>
<text xml:space="preserve" text-anchor="middle" x="71.46" y="-1498.6" font-family="Times,serif" font-size="14.00">tailport=nw headport=nw</text>
</g>
<!-- node12 -->
<g id="node2" class="node">
<title>node12</title>
<polygon fill="none" stroke="black" points="218.14,-1447.8 160.93,-1447.8 160.93,-1411.8 218.14,-1411.8 218.14,-1447.8"/>
<text xml:space="preserve" text-anchor="middle" x="189.53" y="-1425.6" font-family="Times,serif" font-size="14.00">node12</text>
</g>
<!-- node11&#45;&gt;node12 -->
<g id="edge2" class="edge">
<title>node11&#45;&gt;node12</title>
<path fill="none" stroke="black" d="M189.53,-1484.61C189.53,-1477.03 189.53,-1467.9 189.53,-1459.34"/>
<polygon fill="black" stroke="black" points="193.03,-1459.34 189.53,-1449.34 186.03,-1459.34 193.03,-1459.34"/>
</g>
<!-- node12&#45;&gt;node12 -->
<g id="edge3" class="edge">
<title>node12:nw&#45;&gt;node12:n</title>
<path fill="none" stroke="black" d="M160.93,-1447.8C154.93,-1438.67 142.93,-1438.67 142.93,-1447.8 142.93,-1455.14 163.05,-1456.58 179,-1452.1"/>
<polygon fill="black" stroke="black" points="180.2,-1455.39 188.13,-1448.37 177.55,-1448.91 180.2,-1455.39"/>
<text xml:space="preserve" text-anchor="middle" x="76.52" y="-1425.6" font-family="Times,serif" font-size="14.00">tailport=nw headport=n</text>
</g>
<!-- node16 -->
<g id="node3" class="node">
<title>node16</title>
<polygon fill="none" stroke="black" points="218.14,-1374.8 160.93,-1374.8 160.93,-1338.8 218.14,-1338.8 218.14,-1374.8"/>
<text xml:space="preserve" text-anchor="middle" x="189.53" y="-1352.6" font-family="Times,serif" font-size="14.00">node16</text>
</g>
<!-- node12&#45;&gt;node16 -->
<g id="edge4" class="edge">
<title>node12&#45;&gt;node16</title>
<path fill="none" stroke="black" d="M189.53,-1411.61C189.53,-1404.03 189.53,-1394.9 189.53,-1386.34"/>
<polygon fill="black" stroke="black" points="193.03,-1386.34 189.53,-1376.34 186.03,-1386.34 193.03,-1386.34"/>
</g>
<!-- node16&#45;&gt;node16 -->
<g id="edge5" class="edge">
<title>node16:nw&#45;&gt;node16:s</title>
<path fill="none" stroke="black" d="M160.93,-1374.8C154.93,-1383.92 142.93,-1383.92 142.93,-1356.8 142.93,-1334.97 163.05,-1330.71 179,-1334.63"/>
<polygon fill="black" stroke="black" points="177.54,-1337.82 188.13,-1338.24 180.11,-1331.31 177.54,-1337.82"/>
<text xml:space="preserve" text-anchor="middle" x="77.29" y="-1352.6" font-family="Times,serif" font-size="14.00">tailport=nw headport=s</text>
</g>
<!-- node17 -->
<g id="node4" class="node">
<title>node17</title>
<polygon fill="none" stroke="black" points="218.14,-1301.8 160.93,-1301.8 160.93,-1265.8 218.14,-1265.8 218.14,-1301.8"/>
<text xml:space="preserve" text-anchor="middle" x="189.53" y="-1279.6" font-family="Times,serif" font-size="14.00">node17</text>
</g>
<!-- node16&#45;&gt;node17 -->
<g id="edge6" class="edge">
<title>node16&#45;&gt;node17</title>
<path fill="none" stroke="black" d="M189.53,-1338.61C189.53,-1331.03 189.53,-1321.9 189.53,-1313.34"/>
<polygon fill="black" stroke="black" points="193.03,-1313.34 189.53,-1303.34 186.03,-1313.34 193.03,-1313.34"/>
</g>
<!-- node17&#45;&gt;node17 -->
<g id="edge7" class="edge">
<title>node17:nw&#45;&gt;node17:sw</title>
<path fill="none" stroke="black" d="M160.93,-1301.8C154.93,-1310.92 142.93,-1310.92 142.93,-1283.8 142.93,-1268.97 146.51,-1262.24 150.75,-1260.69"/>
<polygon fill="black" stroke="black" points="149.07,-1263.76 159.57,-1265.12 152.21,-1257.51 149.07,-1263.76"/>
<text xml:space="preserve" text-anchor="middle" x="72.24" y="-1279.6" font-family="Times,serif" font-size="14.00">tailport=nw headport=sw</text>
</g>
<!-- node18 -->
<g id="node5" class="node">
<title>node18</title>
<polygon fill="none" stroke="black" points="218.14,-1228.8 160.93,-1228.8 160.93,-1192.8 218.14,-1192.8 218.14,-1228.8"/>
<text xml:space="preserve" text-anchor="middle" x="189.53" y="-1206.6" font-family="Times,serif" font-size="14.00">node18</text>
</g>
<!-- node17&#45;&gt;node18 -->
<g id="edge8" class="edge">
<title>node17&#45;&gt;node18</title>
<path fill="none" stroke="black" d="M189.53,-1265.61C189.53,-1258.03 189.53,-1248.9 189.53,-1240.34"/>
<polygon fill="black" stroke="black" points="193.03,-1240.34 189.53,-1230.34 186.03,-1240.34 193.03,-1240.34"/>
</g>
<!-- node18&#45;&gt;node18 -->
<g id="edge9" class="edge">
<title>node18:nw&#45;&gt;node18:w</title>
<path fill="none" stroke="black" d="M160.93,-1228.8C154.93,-1237.92 142.93,-1237.92 142.93,-1219.8 142.93,-1209.6 146.72,-1205.14 151.11,-1204.82"/>
<polygon fill="black" stroke="black" points="149.27,-1207.79 159.63,-1210.01 152.92,-1201.82 149.27,-1207.79"/>
<text xml:space="preserve" text-anchor="middle" x="74.96" y="-1206.6" font-family="Times,serif" font-size="14.00">tailport=nw headport=w</text>
</g>
<!-- node21 -->
<g id="node6" class="node">
<title>node21</title>
<polygon fill="none" stroke="black" points="218.14,-1155.8 160.93,-1155.8 160.93,-1119.8 218.14,-1119.8 218.14,-1155.8"/>
<text xml:space="preserve" text-anchor="middle" x="189.53" y="-1133.6" font-family="Times,serif" font-size="14.00">node21</text>
</g>
<!-- node18&#45;&gt;node21 -->
<g id="edge10" class="edge">
<title>node18&#45;&gt;node21</title>
<path fill="none" stroke="black" d="M189.53,-1192.61C189.53,-1185.03 189.53,-1175.9 189.53,-1167.34"/>
<polygon fill="black" stroke="black" points="193.03,-1167.34 189.53,-1157.34 186.03,-1167.34 193.03,-1167.34"/>
</g>
<!-- node21&#45;&gt;node21 -->
<g id="edge11" class="edge">
<title>node21:n&#45;&gt;node21:nw</title>
<path fill="none" stroke="black" d="M189.53,-1155.8C174,-1164.92 142.93,-1164.92 142.93,-1155.8 142.93,-1150.38 147.16,-1148.18 151.85,-1149.2"/>
<polygon fill="black" stroke="black" points="149.56,-1151.86 159.7,-1154.91 153.67,-1146.2 149.56,-1151.86"/>
<text xml:space="preserve" text-anchor="middle" x="76.52" y="-1133.6" font-family="Times,serif" font-size="14.00">tailport=n headport=nw</text>
</g>
<!-- node27 -->
<g id="node7" class="node">
<title>node27</title>
<polygon fill="none" stroke="black" points="218.14,-1082.8 160.93,-1082.8 160.93,-1046.8 218.14,-1046.8 218.14,-1082.8"/>
<text xml:space="preserve" text-anchor="middle" x="189.53" y="-1060.6" font-family="Times,serif" font-size="14.00">node27</text>
</g>
<!-- node21&#45;&gt;node27 -->
<g id="edge12" class="edge">
<title>node21&#45;&gt;node27</title>
<path fill="none" stroke="black" d="M189.53,-1119.61C189.53,-1112.03 189.53,-1102.9 189.53,-1094.34"/>
<polygon fill="black" stroke="black" points="193.03,-1094.34 189.53,-1084.34 186.03,-1094.34 193.03,-1094.34"/>
</g>
<!-- node27&#45;&gt;node27 -->
<g id="edge13" class="edge">
<title>node27:n&#45;&gt;node27:sw</title>
<path fill="none" stroke="black" d="M189.53,-1082.8C174,-1091.92 142.93,-1091.92 142.93,-1064.8 142.93,-1049.97 146.51,-1043.24 150.75,-1041.69"/>
<polygon fill="black" stroke="black" points="149.07,-1044.76 159.57,-1046.12 152.21,-1038.51 149.07,-1044.76"/>
<text xml:space="preserve" text-anchor="middle" x="77.29" y="-1060.6" font-family="Times,serif" font-size="14.00">tailport=n headport=sw</text>
</g>
<!-- node28 -->
<g id="node8" class="node">
<title>node28</title>
<polygon fill="none" stroke="black" points="218.14,-1009.8 160.93,-1009.8 160.93,-973.8 218.14,-973.8 218.14,-1009.8"/>
<text xml:space="preserve" text-anchor="middle" x="189.53" y="-987.6" font-family="Times,serif" font-size="14.00">node28</text>
</g>
<!-- node27&#45;&gt;node28 -->
<g id="edge14" class="edge">
<title>node27&#45;&gt;node28</title>
<path fill="none" stroke="black" d="M189.53,-1046.61C189.53,-1039.03 189.53,-1029.9 189.53,-1021.34"/>
<polygon fill="black" stroke="black" points="193.03,-1021.34 189.53,-1011.34 186.03,-1021.34 193.03,-1021.34"/>
</g>
<!-- node28&#45;&gt;node28 -->
<g id="edge15" class="edge">
<title>node28:n&#45;&gt;node28:w</title>
<path fill="none" stroke="black" d="M189.53,-1009.8C174,-1018.92 142.93,-1018.92 142.93,-1000.8 142.93,-990.6 146.72,-986.14 151.11,-985.82"/>
<polygon fill="black" stroke="black" points="149.27,-988.79 159.63,-991.01 152.92,-982.82 149.27,-988.79"/>
<text xml:space="preserve" text-anchor="middle" x="80.02" y="-987.6" font-family="Times,serif" font-size="14.00">tailport=n headport=w</text>
</g>
<!-- node61 -->
<g id="node9" class="node">
<title>node61</title>
<polygon fill="none" stroke="black" points="218.14,-936.8 160.93,-936.8 160.93,-900.8 218.14,-900.8 218.14,-936.8"/>
<text xml:space="preserve" text-anchor="middle" x="189.53" y="-914.6" font-family="Times,serif" font-size="14.00">node61</text>
</g>
<!-- node28&#45;&gt;node61 -->
<g id="edge16" class="edge">
<title>node28&#45;&gt;node61</title>
<path fill="none" stroke="black" d="M189.53,-973.61C189.53,-966.03 189.53,-956.9 189.53,-948.34"/>
<polygon fill="black" stroke="black" points="193.03,-948.34 189.53,-938.34 186.03,-948.34 193.03,-948.34"/>
</g>
<!-- node61&#45;&gt;node61 -->
<g id="edge17" class="edge">
<title>node61:s&#45;&gt;node61:nw</title>
<path fill="none" stroke="black" d="M189.53,-900.8C174,-891.67 142.93,-891.67 142.93,-918.8 142.93,-933.63 146.51,-940.36 150.75,-941.91"/>
<polygon fill="black" stroke="black" points="152.21,-945.09 159.57,-937.48 149.07,-938.84 152.21,-945.09"/>
<text xml:space="preserve" text-anchor="middle" x="77.29" y="-914.6" font-family="Times,serif" font-size="14.00">tailport=s headport=nw</text>
</g>
<!-- node67 -->
<g id="node10" class="node">
<title>node67</title>
<polygon fill="none" stroke="black" points="218.14,-863.8 160.93,-863.8 160.93,-827.8 218.14,-827.8 218.14,-863.8"/>
<text xml:space="preserve" text-anchor="middle" x="189.53" y="-841.6" font-family="Times,serif" font-size="14.00">node67</text>
</g>
<!-- node61&#45;&gt;node67 -->
<g id="edge18" class="edge">
<title>node61&#45;&gt;node67</title>
<path fill="none" stroke="black" d="M189.53,-900.61C189.53,-893.03 189.53,-883.9 189.53,-875.34"/>
<polygon fill="black" stroke="black" points="193.03,-875.34 189.53,-865.34 186.03,-875.34 193.03,-875.34"/>
</g>
<!-- node67&#45;&gt;node67 -->
<g id="edge19" class="edge">
<title>node67:s&#45;&gt;node67:sw</title>
<path fill="none" stroke="black" d="M189.53,-827.8C174,-818.67 142.93,-818.67 142.93,-827.8 142.93,-833.22 147.16,-835.42 151.85,-834.4"/>
<polygon fill="black" stroke="black" points="153.67,-837.4 159.7,-828.69 149.56,-831.74 153.67,-837.4"/>
<text xml:space="preserve" text-anchor="middle" x="78.07" y="-841.6" font-family="Times,serif" font-size="14.00">tailport=s headport=sw</text>
</g>
<!-- node68 -->
<g id="node11" class="node">
<title>node68</title>
<polygon fill="none" stroke="black" points="218.14,-790.8 160.93,-790.8 160.93,-754.8 218.14,-754.8 218.14,-790.8"/>
<text xml:space="preserve" text-anchor="middle" x="189.53" y="-768.6" font-family="Times,serif" font-size="14.00">node68</text>
</g>
<!-- node67&#45;&gt;node68 -->
<g id="edge20" class="edge">
<title>node67&#45;&gt;node68</title>
<path fill="none" stroke="black" d="M189.53,-827.61C189.53,-820.03 189.53,-810.9 189.53,-802.34"/>
<polygon fill="black" stroke="black" points="193.03,-802.34 189.53,-792.34 186.03,-802.34 193.03,-802.34"/>
</g>
<!-- node68&#45;&gt;node68 -->
<g id="edge21" class="edge">
<title>node68:s&#45;&gt;node68:w</title>
<path fill="none" stroke="black" d="M189.53,-754.8C174,-745.67 142.93,-745.67 142.93,-763.8 142.93,-774 146.72,-778.46 151.11,-778.78"/>
<polygon fill="black" stroke="black" points="152.92,-781.78 159.63,-773.59 149.27,-775.81 152.92,-781.78"/>
<text xml:space="preserve" text-anchor="middle" x="80.79" y="-768.6" font-family="Times,serif" font-size="14.00">tailport=s headport=w</text>
</g>
<!-- node71 -->
<g id="node12" class="node">
<title>node71</title>
<polygon fill="none" stroke="black" points="218.14,-717.8 160.93,-717.8 160.93,-681.8 218.14,-681.8 218.14,-717.8"/>
<text xml:space="preserve" text-anchor="middle" x="189.53" y="-695.6" font-family="Times,serif" font-size="14.00">node71</text>
</g>
<!-- node68&#45;&gt;node71 -->
<g id="edge22" class="edge">
<title>node68&#45;&gt;node71</title>
<path fill="none" stroke="black" d="M189.53,-754.61C189.53,-747.03 189.53,-737.9 189.53,-729.34"/>
<polygon fill="black" stroke="black" points="193.03,-729.34 189.53,-719.34 186.03,-729.34 193.03,-729.34"/>
</g>
<!-- node71&#45;&gt;node71 -->
<g id="edge23" class="edge">
<title>node71:sw&#45;&gt;node71:nw</title>
<path fill="none" stroke="black" d="M160.93,-681.8C154.93,-672.67 142.93,-672.67 142.93,-699.8 142.93,-714.63 146.51,-721.36 150.75,-722.91"/>
<polygon fill="black" stroke="black" points="152.21,-726.09 159.57,-718.48 149.07,-719.84 152.21,-726.09"/>
<text xml:space="preserve" text-anchor="middle" x="72.24" y="-695.6" font-family="Times,serif" font-size="14.00">tailport=sw headport=nw</text>
</g>
<!-- node72 -->
<g id="node13" class="node">
<title>node72</title>
<polygon fill="none" stroke="black" points="218.14,-644.8 160.93,-644.8 160.93,-608.8 218.14,-608.8 218.14,-644.8"/>
<text xml:space="preserve" text-anchor="middle" x="189.53" y="-622.6" font-family="Times,serif" font-size="14.00">node72</text>
</g>
<!-- node71&#45;&gt;node72 -->
<g id="edge24" class="edge">
<title>node71&#45;&gt;node72</title>
<path fill="none" stroke="black" d="M189.53,-681.61C189.53,-674.03 189.53,-664.9 189.53,-656.34"/>
<polygon fill="black" stroke="black" points="193.03,-656.34 189.53,-646.34 186.03,-656.34 193.03,-656.34"/>
</g>
<!-- node72&#45;&gt;node72 -->
<g id="edge25" class="edge">
<title>node72:sw&#45;&gt;node72:n</title>
<path fill="none" stroke="black" d="M160.93,-608.8C154.93,-599.67 142.93,-599.67 142.93,-626.8 142.93,-648.63 163.05,-652.89 179,-648.97"/>
<polygon fill="black" stroke="black" points="180.11,-652.29 188.13,-645.36 177.54,-645.78 180.11,-652.29"/>
<text xml:space="preserve" text-anchor="middle" x="77.29" y="-622.6" font-family="Times,serif" font-size="14.00">tailport=sw headport=n</text>
</g>
<!-- node76 -->
<g id="node14" class="node">
<title>node76</title>
<polygon fill="none" stroke="black" points="218.14,-571.8 160.93,-571.8 160.93,-535.8 218.14,-535.8 218.14,-571.8"/>
<text xml:space="preserve" text-anchor="middle" x="189.53" y="-549.6" font-family="Times,serif" font-size="14.00">node76</text>
</g>
<!-- node72&#45;&gt;node76 -->
<g id="edge26" class="edge">
<title>node72&#45;&gt;node76</title>
<path fill="none" stroke="black" d="M189.53,-608.61C189.53,-601.03 189.53,-591.9 189.53,-583.34"/>
<polygon fill="black" stroke="black" points="193.03,-583.34 189.53,-573.34 186.03,-583.34 193.03,-583.34"/>
</g>
<!-- node76&#45;&gt;node76 -->
<g id="edge27" class="edge">
<title>node76:sw&#45;&gt;node76:s</title>
<path fill="none" stroke="black" d="M160.93,-535.8C154.93,-544.92 142.93,-544.92 142.93,-535.8 142.93,-528.46 163.05,-527.02 179,-531.5"/>
<polygon fill="black" stroke="black" points="177.55,-534.69 188.13,-535.23 180.2,-528.21 177.55,-534.69"/>
<text xml:space="preserve" text-anchor="middle" x="78.07" y="-549.6" font-family="Times,serif" font-size="14.00">tailport=sw headport=s</text>
</g>
<!-- node77 -->
<g id="node15" class="node">
<title>node77</title>
<polygon fill="none" stroke="black" points="218.14,-498.8 160.93,-498.8 160.93,-462.8 218.14,-462.8 218.14,-498.8"/>
<text xml:space="preserve" text-anchor="middle" x="189.53" y="-476.6" font-family="Times,serif" font-size="14.00">node77</text>
</g>
<!-- node76&#45;&gt;node77 -->
<g id="edge28" class="edge">
<title>node76&#45;&gt;node77</title>
<path fill="none" stroke="black" d="M189.53,-535.61C189.53,-528.03 189.53,-518.9 189.53,-510.34"/>
<polygon fill="black" stroke="black" points="193.03,-510.34 189.53,-500.34 186.03,-510.34 193.03,-510.34"/>
</g>
<!-- node77&#45;&gt;node77 -->
<g id="edge29" class="edge">
<title>node77:sw&#45;&gt;node77:sw</title>
<path fill="none" stroke="black" d="M160.93,-462.8C154.93,-471.93 142.93,-471.93 142.93,-462.8 142.93,-457.38 147.16,-455.18 151.85,-456.2"/>
<polygon fill="black" stroke="black" points="149.56,-458.86 159.7,-461.91 153.67,-453.2 149.56,-458.86"/>
<text xml:space="preserve" text-anchor="middle" x="73.01" y="-476.6" font-family="Times,serif" font-size="14.00">tailport=sw headport=sw</text>
</g>
<!-- node78 -->
<g id="node16" class="node">
<title>node78</title>
<polygon fill="none" stroke="black" points="218.14,-425.8 160.93,-425.8 160.93,-389.8 218.14,-389.8 218.14,-425.8"/>
<text xml:space="preserve" text-anchor="middle" x="189.53" y="-403.6" font-family="Times,serif" font-size="14.00">node78</text>
</g>
<!-- node77&#45;&gt;node78 -->
<g id="edge30" class="edge">
<title>node77&#45;&gt;node78</title>
<path fill="none" stroke="black" d="M189.53,-462.61C189.53,-455.03 189.53,-445.9 189.53,-437.34"/>
<polygon fill="black" stroke="black" points="193.03,-437.34 189.53,-427.34 186.03,-437.34 193.03,-437.34"/>
</g>
<!-- node78&#45;&gt;node78 -->
<g id="edge31" class="edge">
<title>node78:sw&#45;&gt;node78:w</title>
<path fill="none" stroke="black" d="M160.93,-389.8C154.93,-380.68 142.93,-380.68 142.93,-398.8 142.93,-409 146.72,-413.46 151.11,-413.78"/>
<polygon fill="black" stroke="black" points="152.92,-416.78 159.63,-408.59 149.27,-410.81 152.92,-416.78"/>
<text xml:space="preserve" text-anchor="middle" x="75.74" y="-403.6" font-family="Times,serif" font-size="14.00">tailport=sw headport=w</text>
</g>
<!-- node81 -->
<g id="node17" class="node">
<title>node81</title>
<polygon fill="none" stroke="black" points="218.14,-352.8 160.93,-352.8 160.93,-316.8 218.14,-316.8 218.14,-352.8"/>
<text xml:space="preserve" text-anchor="middle" x="189.53" y="-330.6" font-family="Times,serif" font-size="14.00">node81</text>
</g>
<!-- node78&#45;&gt;node81 -->
<g id="edge32" class="edge">
<title>node78&#45;&gt;node81</title>
<path fill="none" stroke="black" d="M189.53,-389.61C189.53,-382.03 189.53,-372.9 189.53,-364.34"/>
<polygon fill="black" stroke="black" points="193.03,-364.34 189.53,-354.34 186.03,-364.34 193.03,-364.34"/>
</g>
<!-- node81&#45;&gt;node81 -->
<g id="edge33" class="edge">
<title>node81:w&#45;&gt;node81:nw</title>
<path fill="none" stroke="black" d="M160.93,-334.8C154.93,-325.68 142.93,-325.68 142.93,-343.8 142.93,-354 146.72,-358.46 151.11,-358.78"/>
<polygon fill="black" stroke="black" points="152.92,-361.78 159.63,-353.59 149.27,-355.81 152.92,-361.78"/>
<text xml:space="preserve" text-anchor="middle" x="74.96" y="-330.6" font-family="Times,serif" font-size="14.00">tailport=w headport=nw</text>
</g>
<!-- node82 -->
<g id="node18" class="node">
<title>node82</title>
<polygon fill="none" stroke="black" points="218.14,-279.8 160.93,-279.8 160.93,-243.8 218.14,-243.8 218.14,-279.8"/>
<text xml:space="preserve" text-anchor="middle" x="189.53" y="-257.6" font-family="Times,serif" font-size="14.00">node82</text>
</g>
<!-- node81&#45;&gt;node82 -->
<g id="edge34" class="edge">
<title>node81&#45;&gt;node82</title>
<path fill="none" stroke="black" d="M189.53,-316.61C189.53,-309.03 189.53,-299.9 189.53,-291.34"/>
<polygon fill="black" stroke="black" points="193.03,-291.34 189.53,-281.34 186.03,-291.34 193.03,-291.34"/>
</g>
<!-- node82&#45;&gt;node82 -->
<g id="edge35" class="edge">
<title>node82:w&#45;&gt;node82:n</title>
<path fill="none" stroke="black" d="M160.93,-261.8C154.93,-252.68 142.93,-252.68 142.93,-270.8 142.93,-285.38 163.05,-288.23 179,-284.04"/>
<polygon fill="black" stroke="black" points="180.16,-287.34 188.13,-280.36 177.54,-280.85 180.16,-287.34"/>
<text xml:space="preserve" text-anchor="middle" x="80.02" y="-257.6" font-family="Times,serif" font-size="14.00">tailport=w headport=n</text>
</g>
<!-- node86 -->
<g id="node19" class="node">
<title>node86</title>
<polygon fill="none" stroke="black" points="218.14,-206.8 160.93,-206.8 160.93,-170.8 218.14,-170.8 218.14,-206.8"/>
<text xml:space="preserve" text-anchor="middle" x="189.53" y="-184.6" font-family="Times,serif" font-size="14.00">node86</text>
</g>
<!-- node82&#45;&gt;node86 -->
<g id="edge36" class="edge">
<title>node82&#45;&gt;node86</title>
<path fill="none" stroke="black" d="M189.53,-243.61C189.53,-236.03 189.53,-226.9 189.53,-218.34"/>
<polygon fill="black" stroke="black" points="193.03,-218.34 189.53,-208.34 186.03,-218.34 193.03,-218.34"/>
</g>
<!-- node86&#45;&gt;node86 -->
<g id="edge37" class="edge">
<title>node86:w&#45;&gt;node86:s</title>
<path fill="none" stroke="black" d="M160.93,-188.8C154.93,-197.93 142.93,-197.93 142.93,-179.8 142.93,-165.22 163.05,-162.37 179,-166.56"/>
<polygon fill="black" stroke="black" points="177.54,-169.75 188.13,-170.24 180.16,-163.26 177.54,-169.75"/>
<text xml:space="preserve" text-anchor="middle" x="80.79" y="-184.6" font-family="Times,serif" font-size="14.00">tailport=w headport=s</text>
</g>
<!-- node87 -->
<g id="node20" class="node">
<title>node87</title>
<polygon fill="none" stroke="black" points="218.14,-133.8 160.93,-133.8 160.93,-97.8 218.14,-97.8 218.14,-133.8"/>
<text xml:space="preserve" text-anchor="middle" x="189.53" y="-111.6" font-family="Times,serif" font-size="14.00">node87</text>
</g>
<!-- node86&#45;&gt;node87 -->
<g id="edge38" class="edge">
<title>node86&#45;&gt;node87</title>
<path fill="none" stroke="black" d="M189.53,-170.61C189.53,-163.03 189.53,-153.9 189.53,-145.34"/>
<polygon fill="black" stroke="black" points="193.03,-145.34 189.53,-135.34 186.03,-145.34 193.03,-145.34"/>
</g>
<!-- node87&#45;&gt;node87 -->
<g id="edge39" class="edge">
<title>node87:w&#45;&gt;node87:sw</title>
<path fill="none" stroke="black" d="M160.93,-115.8C154.93,-124.92 142.93,-124.92 142.93,-106.8 142.93,-96.6 146.72,-92.14 151.11,-91.82"/>
<polygon fill="black" stroke="black" points="149.27,-94.79 159.63,-97.01 152.92,-88.82 149.27,-94.79"/>
<text xml:space="preserve" text-anchor="middle" x="75.74" y="-111.6" font-family="Times,serif" font-size="14.00">tailport=w headport=sw</text>
</g>
<!-- node88 -->
<g id="node21" class="node">
<title>node88</title>
<polygon fill="none" stroke="black" points="218.14,-60.8 160.93,-60.8 160.93,-24.8 218.14,-24.8 218.14,-60.8"/>
<text xml:space="preserve" text-anchor="middle" x="189.53" y="-38.6" font-family="Times,serif" font-size="14.00">node88</text>
</g>
<!-- node87&#45;&gt;node88 -->
<g id="edge40" class="edge">
<title>node87&#45;&gt;node88</title>
<path fill="none" stroke="black" d="M189.53,-97.61C189.53,-90.03 189.53,-80.9 189.53,-72.34"/>
<polygon fill="black" stroke="black" points="193.03,-72.34 189.53,-62.34 186.03,-72.34 193.03,-72.34"/>
</g>
<!-- node88&#45;&gt;node88 -->
<g id="edge41" class="edge">
<title>node88:w&#45;&gt;node88:w</title>
<path fill="none" stroke="black" d="M160.93,-42.8C154.93,-51.92 142.93,-51.92 142.93,-42.8 142.93,-37.38 147.16,-35.18 151.85,-36.2"/>
<polygon fill="black" stroke="black" points="149.56,-38.86 159.7,-41.91 153.67,-33.2 149.56,-38.86"/>
<text xml:space="preserve" text-anchor="middle" x="78.46" y="-38.6" font-family="Times,serif" font-size="14.00">tailport=w headport=w</text>
</g>
</g>
</svg>
