<?xml version="1.0" encoding="UTF-8" standalone="no"?>
<!DOCTYPE svg PUBLIC "-//W3C//DTD SVG 1.1//EN"
 "http://www.w3.org/Graphics/SVG/1.1/DTD/svg11.dtd">
<!-- Generated by graphviz version a (a)
 -->
<!-- Pages: 1 -->
<svg width="1313pt" height="558pt"
 viewBox="0.00 0.00 1313.00 558.00" xmlns="http://www.w3.org/2000/svg" xmlns:xlink="http://www.w3.org/1999/xlink">
<g id="graph0" class="graph" transform="scale(1 1) rotate(0) translate(4 553.6)">
<polygon fill="white" stroke="none" points="-4,4 -4,-553.6 1309,-553.6 1309,4 -4,4"/>
<text xml:space="preserve" text-anchor="middle" x="652.5" y="-8.2" font-family="Helvetica,sans-Serif" font-size="14.00">((+ (* (X) (&#45; (&#45; (X) (X)) (X))) (% (+ (X) (X)) (COS (&#45; (X) (X))))) (EXP (* (X) (X))) (+ (% (EXP (SIN (+ (X) (X)))) (SIN (* (X) (EXP (* (X) (X)))))) (* (X) (X))) (% (EXP (% (X) (% (X) (X)))) (EXP (SIN (X)))))</text>
<g id="clust1" class="cluster">
<title>cluster01</title>
<polygon fill="none" stroke="black" points="8,-176.8 8,-541.6 384,-541.6 384,-176.8 8,-176.8"/>
<text xml:space="preserve" text-anchor="middle" x="196" y="-525" font-family="Helvetica,sans-Serif" font-size="14.00">(+ (* (X) (&#45; (&#45; (X) (X)) (X))) (% (+ (X) (X)) (COS (&#45; (X) (X)))))</text>
</g>
<g id="clust2" class="cluster">
<title>cluster17</title>
<polygon fill="none" stroke="black" points="392,-320.8 392,-541.6 534,-541.6 534,-320.8 392,-320.8"/>
<text xml:space="preserve" text-anchor="middle" x="463" y="-525" font-family="Helvetica,sans-Serif" font-size="14.00">(EXP (* (X) (X)))</text>
</g>
<g id="clust3" class="cluster">
<title>cluster21</title>
<polygon fill="none" stroke="black" points="542,-32.8 542,-541.6 991,-541.6 991,-32.8 542,-32.8"/>
<text xml:space="preserve" text-anchor="middle" x="766.5" y="-525" font-family="Helvetica,sans-Serif" font-size="14.00">(+ (% (EXP (SIN (+ (X) (X)))) (SIN (* (X) (EXP (* (X) (X)))))) (* (X) (X)))</text>
</g>
<g id="clust4" class="cluster">
<title>cluster38</title>
<polygon fill="none" stroke="black" points="999,-176.8 999,-541.6 1297,-541.6 1297,-176.8 999,-176.8"/>
<text xml:space="preserve" text-anchor="middle" x="1148" y="-525" font-family="Helvetica,sans-Serif" font-size="14.00">(% (EXP (% (X) (% (X) (X)))) (EXP (SIN (X))))</text>
</g>
<!-- n002 -->
<g id="node1" class="node">
<title>n002</title>
<ellipse fill="none" stroke="black" cx="170" cy="-490.8" rx="27" ry="18"/>
<text xml:space="preserve" text-anchor="middle" x="170" y="-486.6" font-family="Helvetica,sans-Serif" font-size="14.00">+</text>
</g>
<!-- n003 -->
<g id="node2" class="node">
<title>n003</title>
<ellipse fill="none" stroke="black" cx="126" cy="-418.8" rx="27" ry="18"/>
<text xml:space="preserve" text-anchor="middle" x="126" y="-414.6" font-family="Helvetica,sans-Serif" font-size="14.00">*</text>
</g>
<!-- n002&#45;&#45;n003 -->
<g id="edge1" class="edge">
<title>n002&#45;&#45;n003</title>
<path fill="none" stroke="black" d="M160.02,-473.92C152.81,-462.46 143.14,-447.06 135.94,-435.62"/>
</g>
<!-- n010 -->
<g id="node9" class="node">
<title>n010</title>
<ellipse fill="none" stroke="black" cx="215" cy="-418.8" rx="27" ry="18"/>
<text xml:space="preserve" text-anchor="middle" x="215" y="-414.6" font-family="Helvetica,sans-Serif" font-size="14.00">%</text>
</g>
<!-- n002&#45;&#45;n010 -->
<g id="edge8" class="edge">
<title>n002&#45;&#45;n010</title>
<path fill="none" stroke="black" d="M180.21,-473.92C187.58,-462.46 197.47,-447.06 204.83,-435.62"/>
</g>
<!-- n004 -->
<g id="node3" class="node">
<title>n004</title>
<ellipse fill="none" stroke="black" cx="54" cy="-346.8" rx="27" ry="18"/>
<text xml:space="preserve" text-anchor="middle" x="54" y="-342.6" font-family="Helvetica,sans-Serif" font-size="14.00">X</text>
</g>
<!-- n003&#45;&#45;n004 -->
<g id="edge2" class="edge">
<title>n003&#45;&#45;n004</title>
<path fill="none" stroke="black" d="M111.08,-403.3C98.72,-391.28 81.25,-374.29 68.9,-362.29"/>
</g>
<!-- n005 -->
<g id="node4" class="node">
<title>n005</title>
<ellipse fill="none" stroke="black" cx="126" cy="-346.8" rx="27" ry="18"/>
<text xml:space="preserve" text-anchor="middle" x="126" y="-342.6" font-family="Helvetica,sans-Serif" font-size="14.00">&#45;</text>
</g>
<!-- n003&#45;&#45;n005 -->
<g id="edge3" class="edge">
<title>n003&#45;&#45;n005</title>
<path fill="none" stroke="black" d="M126,-400.5C126,-389.65 126,-375.72 126,-364.9"/>
</g>
<!-- n006 -->
<g id="node5" class="node">
<title>n006</title>
<ellipse fill="none" stroke="black" cx="54" cy="-274.8" rx="27" ry="18"/>
<text xml:space="preserve" text-anchor="middle" x="54" y="-270.6" font-family="Helvetica,sans-Serif" font-size="14.00">&#45;</text>
</g>
<!-- n005&#45;&#45;n006 -->
<g id="edge4" class="edge">
<title>n005&#45;&#45;n006</title>
<path fill="none" stroke="black" d="M111.08,-331.3C98.72,-319.28 81.25,-302.29 68.9,-290.29"/>
</g>
<!-- n009 -->
<g id="node8" class="node">
<title>n009</title>
<ellipse fill="none" stroke="black" cx="126" cy="-274.8" rx="27" ry="18"/>
<text xml:space="preserve" text-anchor="middle" x="126" y="-270.6" font-family="Helvetica,sans-Serif" font-size="14.00">X</text>
</g>
<!-- n005&#45;&#45;n009 -->
<g id="edge7" class="edge">
<title>n005&#45;&#45;n009</title>
<path fill="none" stroke="black" d="M126,-328.5C126,-317.65 126,-303.72 126,-292.9"/>
</g>
<!-- n007 -->
<g id="node6" class="node">
<title>n007</title>
<ellipse fill="none" stroke="black" cx="52" cy="-202.8" rx="27" ry="18"/>
<text xml:space="preserve" text-anchor="middle" x="52" y="-198.6" font-family="Helvetica,sans-Serif" font-size="14.00">X</text>
</g>
<!-- n006&#45;&#45;n007 -->
<g id="edge5" class="edge">
<title>n006&#45;&#45;n007</title>
<path fill="none" stroke="black" d="M53.51,-256.5C53.2,-245.65 52.8,-231.72 52.49,-220.9"/>
</g>
<!-- n008 -->
<g id="node7" class="node">
<title>n008</title>
<ellipse fill="none" stroke="black" cx="124" cy="-202.8" rx="27" ry="18"/>
<text xml:space="preserve" text-anchor="middle" x="124" y="-198.6" font-family="Helvetica,sans-Serif" font-size="14.00">X</text>
</g>
<!-- n006&#45;&#45;n008 -->
<g id="edge6" class="edge">
<title>n006&#45;&#45;n008</title>
<path fill="none" stroke="black" d="M68.5,-259.3C80.52,-247.28 97.51,-230.29 109.51,-218.29"/>
</g>
<!-- n011 -->
<g id="node10" class="node">
<title>n011</title>
<ellipse fill="none" stroke="black" cx="215" cy="-346.8" rx="27" ry="18"/>
<text xml:space="preserve" text-anchor="middle" x="215" y="-342.6" font-family="Helvetica,sans-Serif" font-size="14.00">+</text>
</g>
<!-- n010&#45;&#45;n011 -->
<g id="edge9" class="edge">
<title>n010&#45;&#45;n011</title>
<path fill="none" stroke="black" d="M215,-400.5C215,-389.65 215,-375.72 215,-364.9"/>
</g>
<!-- n014 -->
<g id="node13" class="node">
<title>n014</title>
<ellipse fill="none" stroke="black" cx="325" cy="-346.8" rx="31.96" ry="18"/>
<text xml:space="preserve" text-anchor="middle" x="325" y="-342.6" font-family="Helvetica,sans-Serif" font-size="14.00">COS</text>
</g>
<!-- n010&#45;&#45;n014 -->
<g id="edge12" class="edge">
<title>n010&#45;&#45;n014</title>
<path fill="none" stroke="black" d="M234.16,-405.61C253.86,-393.07 284.42,-373.63 304.57,-360.8"/>
</g>
<!-- n012 -->
<g id="node11" class="node">
<title>n012</title>
<ellipse fill="none" stroke="black" cx="198" cy="-274.8" rx="27" ry="18"/>
<text xml:space="preserve" text-anchor="middle" x="198" y="-270.6" font-family="Helvetica,sans-Serif" font-size="14.00">X</text>
</g>
<!-- n011&#45;&#45;n012 -->
<g id="edge10" class="edge">
<title>n011&#45;&#45;n012</title>
<path fill="none" stroke="black" d="M210.88,-328.85C208.25,-318.01 204.84,-303.98 202.2,-293.08"/>
</g>
<!-- n013 -->
<g id="node12" class="node">
<title>n013</title>
<ellipse fill="none" stroke="black" cx="270" cy="-274.8" rx="27" ry="18"/>
<text xml:space="preserve" text-anchor="middle" x="270" y="-270.6" font-family="Helvetica,sans-Serif" font-size="14.00">X</text>
</g>
<!-- n011&#45;&#45;n013 -->
<g id="edge11" class="edge">
<title>n011&#45;&#45;n013</title>
<path fill="none" stroke="black" d="M227.21,-330.26C236.32,-318.66 248.72,-302.88 257.83,-291.29"/>
</g>
<!-- n015 -->
<g id="node14" class="node">
<title>n015</title>
<ellipse fill="none" stroke="black" cx="342" cy="-274.8" rx="27" ry="18"/>
<text xml:space="preserve" text-anchor="middle" x="342" y="-270.6" font-family="Helvetica,sans-Serif" font-size="14.00">&#45;</text>
</g>
<!-- n014&#45;&#45;n015 -->
<g id="edge13" class="edge">
<title>n014&#45;&#45;n015</title>
<path fill="none" stroke="black" d="M329.2,-328.5C331.84,-317.65 335.22,-303.72 337.85,-292.9"/>
</g>
<!-- n016 -->
<g id="node15" class="node">
<title>n016</title>
<ellipse fill="none" stroke="black" cx="274" cy="-202.8" rx="27" ry="18"/>
<text xml:space="preserve" text-anchor="middle" x="274" y="-198.6" font-family="Helvetica,sans-Serif" font-size="14.00">X</text>
</g>
<!-- n015&#45;&#45;n016 -->
<g id="edge14" class="edge">
<title>n015&#45;&#45;n016</title>
<path fill="none" stroke="black" d="M327.91,-259.3C316.24,-247.28 299.74,-230.29 288.07,-218.29"/>
</g>
<!-- n017 -->
<g id="node16" class="node">
<title>n017</title>
<ellipse fill="none" stroke="black" cx="346" cy="-202.8" rx="27" ry="18"/>
<text xml:space="preserve" text-anchor="middle" x="346" y="-198.6" font-family="Helvetica,sans-Serif" font-size="14.00">X</text>
</g>
<!-- n015&#45;&#45;n017 -->
<g id="edge15" class="edge">
<title>n015&#45;&#45;n017</title>
<path fill="none" stroke="black" d="M342.99,-256.5C343.61,-245.65 344.4,-231.72 345.02,-220.9"/>
</g>
<!-- n018 -->
<g id="node17" class="node">
<title>n018</title>
<ellipse fill="none" stroke="black" cx="463" cy="-490.8" rx="30.36" ry="18"/>
<text xml:space="preserve" text-anchor="middle" x="463" y="-486.6" font-family="Helvetica,sans-Serif" font-size="14.00">EXP</text>
</g>
<!-- n019 -->
<g id="node18" class="node">
<title>n019</title>
<ellipse fill="none" stroke="black" cx="463" cy="-418.8" rx="27" ry="18"/>
<text xml:space="preserve" text-anchor="middle" x="463" y="-414.6" font-family="Helvetica,sans-Serif" font-size="14.00">*</text>
</g>
<!-- n018&#45;&#45;n019 -->
<g id="edge16" class="edge">
<title>n018&#45;&#45;n019</title>
<path fill="none" stroke="black" d="M463,-472.5C463,-461.65 463,-447.72 463,-436.9"/>
</g>
<!-- n020 -->
<g id="node19" class="node">
<title>n020</title>
<ellipse fill="none" stroke="black" cx="427" cy="-346.8" rx="27" ry="18"/>
<text xml:space="preserve" text-anchor="middle" x="427" y="-342.6" font-family="Helvetica,sans-Serif" font-size="14.00">X</text>
</g>
<!-- n019&#45;&#45;n020 -->
<g id="edge17" class="edge">
<title>n019&#45;&#45;n020</title>
<path fill="none" stroke="black" d="M454.65,-401.56C448.83,-390.26 441.11,-375.24 435.3,-363.95"/>
</g>
<!-- n021 -->
<g id="node20" class="node">
<title>n021</title>
<ellipse fill="none" stroke="black" cx="499" cy="-346.8" rx="27" ry="18"/>
<text xml:space="preserve" text-anchor="middle" x="499" y="-342.6" font-family="Helvetica,sans-Serif" font-size="14.00">X</text>
</g>
<!-- n019&#45;&#45;n021 -->
<g id="edge18" class="edge">
<title>n019&#45;&#45;n021</title>
<path fill="none" stroke="black" d="M471.35,-401.56C477.17,-390.26 484.89,-375.24 490.7,-363.95"/>
</g>
<!-- n022 -->
<g id="node21" class="node">
<title>n022</title>
<ellipse fill="none" stroke="black" cx="769" cy="-490.8" rx="27" ry="18"/>
<text xml:space="preserve" text-anchor="middle" x="769" y="-486.6" font-family="Helvetica,sans-Serif" font-size="14.00">+</text>
</g>
<!-- n023 -->
<g id="node22" class="node">
<title>n023</title>
<ellipse fill="none" stroke="black" cx="733" cy="-418.8" rx="27" ry="18"/>
<text xml:space="preserve" text-anchor="middle" x="733" y="-414.6" font-family="Helvetica,sans-Serif" font-size="14.00">%</text>
</g>
<!-- n022&#45;&#45;n023 -->
<g id="edge19" class="edge">
<title>n022&#45;&#45;n023</title>
<path fill="none" stroke="black" d="M760.65,-473.56C754.83,-462.26 747.11,-447.24 741.3,-435.95"/>
</g>
<!-- n036 -->
<g id="node35" class="node">
<title>n036</title>
<ellipse fill="none" stroke="black" cx="805" cy="-418.8" rx="27" ry="18"/>
<text xml:space="preserve" text-anchor="middle" x="805" y="-414.6" font-family="Helvetica,sans-Serif" font-size="14.00">*</text>
</g>
<!-- n022&#45;&#45;n036 -->
<g id="edge32" class="edge">
<title>n022&#45;&#45;n036</title>
<path fill="none" stroke="black" d="M777.35,-473.56C783.17,-462.26 790.89,-447.24 796.7,-435.95"/>
</g>
<!-- n024 -->
<g id="node23" class="node">
<title>n024</title>
<ellipse fill="none" stroke="black" cx="658" cy="-346.8" rx="30.36" ry="18"/>
<text xml:space="preserve" text-anchor="middle" x="658" y="-342.6" font-family="Helvetica,sans-Serif" font-size="14.00">EXP</text>
</g>
<!-- n023&#45;&#45;n024 -->
<g id="edge20" class="edge">
<title>n023&#45;&#45;n024</title>
<path fill="none" stroke="black" d="M717.82,-403.63C704.98,-391.65 686.65,-374.54 673.67,-362.43"/>
</g>
<!-- n029 -->
<g id="node28" class="node">
<title>n029</title>
<ellipse fill="none" stroke="black" cx="733" cy="-346.8" rx="27.13" ry="18"/>
<text xml:space="preserve" text-anchor="middle" x="733" y="-342.6" font-family="Helvetica,sans-Serif" font-size="14.00">SIN</text>
</g>
<!-- n023&#45;&#45;n029 -->
<g id="edge25" class="edge">
<title>n023&#45;&#45;n029</title>
<path fill="none" stroke="black" d="M733,-400.5C733,-389.65 733,-375.72 733,-364.9"/>
</g>
<!-- n025 -->
<g id="node24" class="node">
<title>n025</title>
<ellipse fill="none" stroke="black" cx="658" cy="-274.8" rx="27.13" ry="18"/>
<text xml:space="preserve" text-anchor="middle" x="658" y="-270.6" font-family="Helvetica,sans-Serif" font-size="14.00">SIN</text>
</g>
<!-- n024&#45;&#45;n025 -->
<g id="edge21" class="edge">
<title>n024&#45;&#45;n025</title>
<path fill="none" stroke="black" d="M658,-328.5C658,-317.65 658,-303.72 658,-292.9"/>
</g>
<!-- n026 -->
<g id="node25" class="node">
<title>n026</title>
<ellipse fill="none" stroke="black" cx="658" cy="-202.8" rx="27" ry="18"/>
<text xml:space="preserve" text-anchor="middle" x="658" y="-198.6" font-family="Helvetica,sans-Serif" font-size="14.00">+</text>
</g>
<!-- n025&#45;&#45;n026 -->
<g id="edge22" class="edge">
<title>n025&#45;&#45;n026</title>
<path fill="none" stroke="black" d="M658,-256.5C658,-245.65 658,-231.72 658,-220.9"/>
</g>
<!-- n027 -->
<g id="node26" class="node">
<title>n027</title>
<ellipse fill="none" stroke="black" cx="622" cy="-130.8" rx="27" ry="18"/>
<text xml:space="preserve" text-anchor="middle" x="622" y="-126.6" font-family="Helvetica,sans-Serif" font-size="14.00">X</text>
</g>
<!-- n026&#45;&#45;n027 -->
<g id="edge23" class="edge">
<title>n026&#45;&#45;n027</title>
<path fill="none" stroke="black" d="M649.65,-185.56C643.83,-174.26 636.11,-159.24 630.3,-147.95"/>
</g>
<!-- n028 -->
<g id="node27" class="node">
<title>n028</title>
<ellipse fill="none" stroke="black" cx="694" cy="-130.8" rx="27" ry="18"/>
<text xml:space="preserve" text-anchor="middle" x="694" y="-126.6" font-family="Helvetica,sans-Serif" font-size="14.00">X</text>
</g>
<!-- n026&#45;&#45;n028 -->
<g id="edge24" class="edge">
<title>n026&#45;&#45;n028</title>
<path fill="none" stroke="black" d="M666.35,-185.56C672.17,-174.26 679.89,-159.24 685.7,-147.95"/>
</g>
<!-- n030 -->
<g id="node29" class="node">
<title>n030</title>
<ellipse fill="none" stroke="black" cx="733" cy="-274.8" rx="27" ry="18"/>
<text xml:space="preserve" text-anchor="middle" x="733" y="-270.6" font-family="Helvetica,sans-Serif" font-size="14.00">*</text>
</g>
<!-- n029&#45;&#45;n030 -->
<g id="edge26" class="edge">
<title>n029&#45;&#45;n030</title>
<path fill="none" stroke="black" d="M733,-328.5C733,-317.65 733,-303.72 733,-292.9"/>
</g>
<!-- n031 -->
<g id="node30" class="node">
<title>n031</title>
<ellipse fill="none" stroke="black" cx="732" cy="-202.8" rx="27" ry="18"/>
<text xml:space="preserve" text-anchor="middle" x="732" y="-198.6" font-family="Helvetica,sans-Serif" font-size="14.00">X</text>
</g>
<!-- n030&#45;&#45;n031 -->
<g id="edge27" class="edge">
<title>n030&#45;&#45;n031</title>
<path fill="none" stroke="black" d="M732.75,-256.5C732.6,-245.65 732.4,-231.72 732.24,-220.9"/>
</g>
<!-- n032 -->
<g id="node31" class="node">
<title>n032</title>
<ellipse fill="none" stroke="black" cx="807" cy="-202.8" rx="30.36" ry="18"/>
<text xml:space="preserve" text-anchor="middle" x="807" y="-198.6" font-family="Helvetica,sans-Serif" font-size="14.00">EXP</text>
</g>
<!-- n030&#45;&#45;n032 -->
<g id="edge28" class="edge">
<title>n030&#45;&#45;n032</title>
<path fill="none" stroke="black" d="M747.98,-259.63C760.56,-247.73 778.49,-230.77 791.28,-218.67"/>
</g>
<!-- n033 -->
<g id="node32" class="node">
<title>n033</title>
<ellipse fill="none" stroke="black" cx="807" cy="-130.8" rx="27" ry="18"/>
<text xml:space="preserve" text-anchor="middle" x="807" y="-126.6" font-family="Helvetica,sans-Serif" font-size="14.00">*</text>
</g>
<!-- n032&#45;&#45;n033 -->
<g id="edge29" class="edge">
<title>n032&#45;&#45;n033</title>
<path fill="none" stroke="black" d="M807,-184.5C807,-173.65 807,-159.72 807,-148.9"/>
</g>
<!-- n034 -->
<g id="node33" class="node">
<title>n034</title>
<ellipse fill="none" stroke="black" cx="771" cy="-58.8" rx="27" ry="18"/>
<text xml:space="preserve" text-anchor="middle" x="771" y="-54.6" font-family="Helvetica,sans-Serif" font-size="14.00">X</text>
</g>
<!-- n033&#45;&#45;n034 -->
<g id="edge30" class="edge">
<title>n033&#45;&#45;n034</title>
<path fill="none" stroke="black" d="M798.65,-113.56C792.83,-102.26 785.11,-87.24 779.3,-75.95"/>
</g>
<!-- n035 -->
<g id="node34" class="node">
<title>n035</title>
<ellipse fill="none" stroke="black" cx="843" cy="-58.8" rx="27" ry="18"/>
<text xml:space="preserve" text-anchor="middle" x="843" y="-54.6" font-family="Helvetica,sans-Serif" font-size="14.00">X</text>
</g>
<!-- n033&#45;&#45;n035 -->
<g id="edge31" class="edge">
<title>n033&#45;&#45;n035</title>
<path fill="none" stroke="black" d="M815.35,-113.56C821.17,-102.26 828.89,-87.24 834.7,-75.95"/>
</g>
<!-- n037 -->
<g id="node36" class="node">
<title>n037</title>
<ellipse fill="none" stroke="black" cx="805" cy="-346.8" rx="27" ry="18"/>
<text xml:space="preserve" text-anchor="middle" x="805" y="-342.6" font-family="Helvetica,sans-Serif" font-size="14.00">X</text>
</g>
<!-- n036&#45;&#45;n037 -->
<g id="edge33" class="edge">
<title>n036&#45;&#45;n037</title>
<path fill="none" stroke="black" d="M805,-400.5C805,-389.65 805,-375.72 805,-364.9"/>
</g>
<!-- n038 -->
<g id="node37" class="node">
<title>n038</title>
<ellipse fill="none" stroke="black" cx="877" cy="-346.8" rx="27" ry="18"/>
<text xml:space="preserve" text-anchor="middle" x="877" y="-342.6" font-family="Helvetica,sans-Serif" font-size="14.00">X</text>
</g>
<!-- n036&#45;&#45;n038 -->
<g id="edge34" class="edge">
<title>n036&#45;&#45;n038</title>
<path fill="none" stroke="black" d="M819.92,-403.3C832.28,-391.28 849.75,-374.29 862.1,-362.29"/>
</g>
<!-- n039 -->
<g id="node38" class="node">
<title>n039</title>
<ellipse fill="none" stroke="black" cx="1141" cy="-490.8" rx="27" ry="18"/>
<text xml:space="preserve" text-anchor="middle" x="1141" y="-486.6" font-family="Helvetica,sans-Serif" font-size="14.00">%</text>
</g>
<!-- n040 -->
<g id="node39" class="node">
<title>n040</title>
<ellipse fill="none" stroke="black" cx="1102" cy="-418.8" rx="30.36" ry="18"/>
<text xml:space="preserve" text-anchor="middle" x="1102" y="-414.6" font-family="Helvetica,sans-Serif" font-size="14.00">EXP</text>
</g>
<!-- n039&#45;&#45;n040 -->
<g id="edge35" class="edge">
<title>n039&#45;&#45;n040</title>
<path fill="none" stroke="black" d="M1131.95,-473.56C1125.74,-462.42 1117.52,-447.67 1111.27,-436.43"/>
</g>
<!-- n046 -->
<g id="node45" class="node">
<title>n046</title>
<ellipse fill="none" stroke="black" cx="1181" cy="-418.8" rx="30.36" ry="18"/>
<text xml:space="preserve" text-anchor="middle" x="1181" y="-414.6" font-family="Helvetica,sans-Serif" font-size="14.00">EXP</text>
</g>
<!-- n039&#45;&#45;n046 -->
<g id="edge41" class="edge">
<title>n039&#45;&#45;n046</title>
<path fill="none" stroke="black" d="M1150.28,-473.56C1156.74,-462.26 1165.32,-447.24 1171.77,-435.95"/>
</g>
<!-- n041 -->
<g id="node40" class="node">
<title>n041</title>
<ellipse fill="none" stroke="black" cx="1102" cy="-346.8" rx="27" ry="18"/>
<text xml:space="preserve" text-anchor="middle" x="1102" y="-342.6" font-family="Helvetica,sans-Serif" font-size="14.00">%</text>
</g>
<!-- n040&#45;&#45;n041 -->
<g id="edge36" class="edge">
<title>n040&#45;&#45;n041</title>
<path fill="none" stroke="black" d="M1102,-400.5C1102,-389.65 1102,-375.72 1102,-364.9"/>
</g>
<!-- n042 -->
<g id="node41" class="node">
<title>n042</title>
<ellipse fill="none" stroke="black" cx="1034" cy="-274.8" rx="27" ry="18"/>
<text xml:space="preserve" text-anchor="middle" x="1034" y="-270.6" font-family="Helvetica,sans-Serif" font-size="14.00">X</text>
</g>
<!-- n041&#45;&#45;n042 -->
<g id="edge37" class="edge">
<title>n041&#45;&#45;n042</title>
<path fill="none" stroke="black" d="M1087.91,-331.3C1076.24,-319.28 1059.74,-302.29 1048.07,-290.29"/>
</g>
<!-- n043 -->
<g id="node42" class="node">
<title>n043</title>
<ellipse fill="none" stroke="black" cx="1106" cy="-274.8" rx="27" ry="18"/>
<text xml:space="preserve" text-anchor="middle" x="1106" y="-270.6" font-family="Helvetica,sans-Serif" font-size="14.00">%</text>
</g>
<!-- n041&#45;&#45;n043 -->
<g id="edge38" class="edge">
<title>n041&#45;&#45;n043</title>
<path fill="none" stroke="black" d="M1102.99,-328.5C1103.61,-317.65 1104.4,-303.72 1105.02,-292.9"/>
</g>
<!-- n044 -->
<g id="node43" class="node">
<title>n044</title>
<ellipse fill="none" stroke="black" cx="1070" cy="-202.8" rx="27" ry="18"/>
<text xml:space="preserve" text-anchor="middle" x="1070" y="-198.6" font-family="Helvetica,sans-Serif" font-size="14.00">X</text>
</g>
<!-- n043&#45;&#45;n044 -->
<g id="edge39" class="edge">
<title>n043&#45;&#45;n044</title>
<path fill="none" stroke="black" d="M1097.65,-257.56C1091.83,-246.26 1084.11,-231.24 1078.3,-219.95"/>
</g>
<!-- n045 -->
<g id="node44" class="node">
<title>n045</title>
<ellipse fill="none" stroke="black" cx="1142" cy="-202.8" rx="27" ry="18"/>
<text xml:space="preserve" text-anchor="middle" x="1142" y="-198.6" font-family="Helvetica,sans-Serif" font-size="14.00">X</text>
</g>
<!-- n043&#45;&#45;n045 -->
<g id="edge40" class="edge">
<title>n043&#45;&#45;n045</title>
<path fill="none" stroke="black" d="M1114.35,-257.56C1120.17,-246.26 1127.89,-231.24 1133.7,-219.95"/>
</g>
<!-- n047 -->
<g id="node46" class="node">
<title>n047</title>
<ellipse fill="none" stroke="black" cx="1181" cy="-346.8" rx="27.13" ry="18"/>
<text xml:space="preserve" text-anchor="middle" x="1181" y="-342.6" font-family="Helvetica,sans-Serif" font-size="14.00">SIN</text>
</g>
<!-- n046&#45;&#45;n047 -->
<g id="edge42" class="edge">
<title>n046&#45;&#45;n047</title>
<path fill="none" stroke="black" d="M1181,-400.5C1181,-389.65 1181,-375.72 1181,-364.9"/>
</g>
<!-- n048 -->
<g id="node47" class="node">
<title>n048</title>
<ellipse fill="none" stroke="black" cx="1181" cy="-274.8" rx="27" ry="18"/>
<text xml:space="preserve" text-anchor="middle" x="1181" y="-270.6" font-family="Helvetica,sans-Serif" font-size="14.00">X</text>
</g>
<!-- n047&#45;&#45;n048 -->
<g id="edge43" class="edge">
<title>n047&#45;&#45;n048</title>
<path fill="none" stroke="black" d="M1181,-328.5C1181,-317.65 1181,-303.72 1181,-292.9"/>
</g>
</g>
</svg>
