<?xml version="1.0" encoding="UTF-8" standalone="no"?>
<!DOCTYPE svg PUBLIC "-//W3C//DTD SVG 1.1//EN"
 "http://www.w3.org/Graphics/SVG/1.1/DTD/svg11.dtd">
<!-- Generated by graphviz version a (a)
 -->
<!-- Title: Linux_kernel_diagram Pages: 1 -->
<svg width="1463pt" height="806pt"
 viewBox="0.00 0.00 1463.00 806.00" xmlns="http://www.w3.org/2000/svg" xmlns:xlink="http://www.w3.org/1999/xlink">
<g id="graph0" class="graph" transform="scale(1 1) rotate(0) translate(4 802)">
<title>Linux_kernel_diagram</title>
<polygon fill="white" stroke="none" points="-4,4 -4,-802 1458.66,-802 1458.66,4 -4,4"/>
<!-- system_ -->
<!-- SCI -->
<g id="node3" class="node">
<title>SCI</title>
<g id="a_node3"><a xlink:href="https://en.wikibooks.org/wiki/The_Linux_Kernel/Syscalls" xlink:title="System calls">
<ellipse fill="#d9e7ee" stroke="#e27dd6" stroke-width="5" cx="493.2" cy="-592" rx="79.2" ry="36"/>
<text xml:space="preserve" text-anchor="middle" x="493.2" y="-584.8" font-family="Helvetica,sans-Serif" font-size="24.00">System calls</text>
</a>
</g>
</g>
<!-- system_&#45;&gt;SCI -->
<!-- system -->
<g id="node2" class="node">
<title>system</title>
<g id="a_node2"><a xlink:href="https://en.wikibooks.org/wiki/The_Linux_Kernel/System" xlink:title="system">
<polygon fill="white" stroke="#e27dd6" stroke-width="5" points="565.2,-736 421.2,-736 421.2,-692.8 565.2,-692.8 565.2,-736"/>
<text xml:space="preserve" text-anchor="middle" x="493.2" y="-707.2" font-family="Helvetica,sans-Serif" font-size="24.00">system</text>
</a>
</g>
</g>
<!-- system&#45;&gt;system_ -->
<g id="edge1" class="edge">
<title>system&#45;&gt;system_</title>
<path fill="none" stroke="#e27dd6" stroke-width="5" d="M493.2,-692.55C493.2,-683.65 493.2,-673.91 493.2,-667.73"/>
<polygon fill="#e27dd6" stroke="#e27dd6" stroke-width="5" points="495.39,-672.83 493.2,-667.83 491.01,-672.83 495.39,-672.83"/>
</g>
<!-- processing -->
<g id="node18" class="node">
<title>processing</title>
<g id="a_node18"><a xlink:href="https://en.wikibooks.org/wiki/The_Linux_Kernel/Processing" xlink:title="processing">
<polygon fill="white" stroke="#c46747" stroke-width="5" points="745.2,-736 601.2,-736 601.2,-692.8 745.2,-692.8 745.2,-736"/>
<text xml:space="preserve" text-anchor="middle" x="673.2" y="-707.2" font-family="Helvetica,sans-Serif" font-size="24.00">processing</text>
</a>
</g>
</g>
<!-- system&#45;&gt;processing -->
<!-- sysfs -->
<g id="node4" class="node">
<title>sysfs</title>
<polygon fill="#b2d3e4" stroke="#e27dd6" stroke-width="5" points="572.4,-542 414,-542 414,-470 572.4,-470 572.4,-542"/>
<text xml:space="preserve" text-anchor="middle" x="493.2" y="-513.2" font-family="Helvetica,sans-Serif" font-size="24.00">proc &amp; sysfs</text>
<text xml:space="preserve" text-anchor="middle" x="493.2" y="-484.4" font-family="Helvetica,sans-Serif" font-size="24.00">file systems</text>
</g>
<!-- SCI&#45;&gt;sysfs -->
<g id="edge2" class="edge">
<title>SCI&#45;&gt;sysfs</title>
<path fill="none" stroke="#e27dd6" stroke-width="5" d="M493.2,-555.86C493.2,-551.37 493.2,-546.76 493.2,-542.27"/>
</g>
<!-- DM -->
<g id="node5" class="node">
<title>DM</title>
<polygon fill="#91b5c9" stroke="#e27dd6" stroke-width="5" points="565.2,-408.07 565.2,-431.93 523.02,-448.8 463.38,-448.8 421.2,-431.93 421.2,-408.07 463.38,-391.2 523.02,-391.2 565.2,-408.07"/>
<text xml:space="preserve" text-anchor="middle" x="493.2" y="-426" font-family="Helvetica,sans-Serif" font-size="20.00">Device</text>
<text xml:space="preserve" text-anchor="middle" x="493.2" y="-402" font-family="Helvetica,sans-Serif" font-size="20.00">Model</text>
</g>
<!-- sysfs&#45;&gt;DM -->
<g id="edge3" class="edge">
<title>sysfs&#45;&gt;DM</title>
<path fill="none" stroke="#e27dd6" stroke-width="5" d="M493.2,-469.86C493.2,-462.94 493.2,-455.76 493.2,-449.11"/>
</g>
<!-- log_sys -->
<g id="node6" class="node">
<title>log_sys</title>
<polygon fill="#6a9ab1" stroke="#e27dd6" stroke-width="5" points="572.4,-370 414,-370 414,-266 572.4,-266 572.4,-370"/>
<text xml:space="preserve" text-anchor="middle" x="493.2" y="-348" font-family="Helvetica,sans-Serif" font-size="20.00">system run,</text>
<text xml:space="preserve" text-anchor="middle" x="493.2" y="-324" font-family="Helvetica,sans-Serif" font-size="20.00">modules,</text>
<text xml:space="preserve" text-anchor="middle" x="493.2" y="-300" font-family="Helvetica,sans-Serif" font-size="20.00">generic</text>
<text xml:space="preserve" text-anchor="middle" x="493.2" y="-276" font-family="Helvetica,sans-Serif" font-size="20.00">HW access </text>
</g>
<!-- DM&#45;&gt;log_sys -->
<g id="edge4" class="edge">
<title>DM&#45;&gt;log_sys</title>
<path fill="none" stroke="#e27dd6" stroke-width="5" d="M493.2,-390.88C493.2,-384.41 493.2,-377.33 493.2,-370.22"/>
</g>
<!-- bus_drv -->
<g id="node7" class="node">
<title>bus_drv</title>
<polygon fill="#71809b" stroke="#e27dd6" stroke-width="5" points="572.4,-248 414,-248 414,-176 572.4,-176 572.4,-248"/>
<text xml:space="preserve" text-anchor="middle" x="493.2" y="-204.8" font-family="Helvetica,sans-Serif" font-size="24.00">bus drivers</text>
</g>
<!-- log_sys&#45;&gt;bus_drv -->
<g id="edge5" class="edge">
<title>log_sys&#45;&gt;bus_drv</title>
<path fill="none" stroke="#e27dd6" stroke-width="5" d="M493.2,-265.61C493.2,-259.78 493.2,-253.93 493.2,-248.37"/>
</g>
<!-- buses -->
<g id="node8" class="node">
<title>buses</title>
<polygon fill="#777777" stroke="#e27dd6" stroke-width="5" points="572.4,-158 414,-158 414,-86 572.4,-86 572.4,-158"/>
<text xml:space="preserve" text-anchor="middle" x="493.2" y="-128" font-family="Helvetica,sans-Serif" font-size="20.00" fill="white">buses:</text>
<text xml:space="preserve" text-anchor="middle" x="493.2" y="-104" font-family="Helvetica,sans-Serif" font-size="20.00" fill="white">PCI, USB ...</text>
</g>
<!-- bus_drv&#45;&gt;buses -->
<g id="edge6" class="edge">
<title>bus_drv&#45;&gt;buses</title>
<path fill="none" stroke="#e27dd6" stroke-width="5" d="M493.2,-175.71C493.2,-169.98 493.2,-164.03 493.2,-158.29"/>
</g>
<!-- networking_ -->
<!-- sock -->
<g id="node11" class="node">
<title>sock</title>
<ellipse fill="#d9e7ee" stroke="#61c2c5" stroke-width="5" cx="1372.2" cy="-592" rx="79.2" ry="36"/>
<text xml:space="preserve" text-anchor="middle" x="1372.2" y="-584.8" font-family="Helvetica,sans-Serif" font-size="24.00">Sockets</text>
</g>
<!-- networking_&#45;&gt;sock -->
<!-- networking -->
<g id="node10" class="node">
<title>networking</title>
<g id="a_node10"><a xlink:href="https://en.wikibooks.org/wiki/The_Linux_Kernel/Networking" xlink:title="networking">
<polygon fill="white" stroke="#61c2c5" stroke-width="5" points="1444.2,-736 1300.2,-736 1300.2,-692.8 1444.2,-692.8 1444.2,-736"/>
<text xml:space="preserve" text-anchor="middle" x="1372.2" y="-707.2" font-family="Helvetica,sans-Serif" font-size="24.00">networking</text>
</a>
</g>
</g>
<!-- networking&#45;&gt;networking_ -->
<g id="edge7" class="edge">
<title>networking&#45;&gt;networking_</title>
<path fill="none" stroke="#61c2c5" stroke-width="5" d="M1372.2,-692.55C1372.2,-683.57 1372.2,-673.74 1372.2,-667.57"/>
<polygon fill="#61c2c5" stroke="#61c2c5" stroke-width="5" points="1374.39,-672.69 1372.2,-667.69 1370.01,-672.69 1374.39,-672.69"/>
</g>
<!-- prot_fam -->
<g id="node12" class="node">
<title>prot_fam</title>
<polygon fill="#b2d3e4" stroke="#61c2c5" stroke-width="5" points="1451.4,-542 1293,-542 1293,-470 1451.4,-470 1451.4,-542"/>
<text xml:space="preserve" text-anchor="middle" x="1372.2" y="-513.2" font-family="Helvetica,sans-Serif" font-size="24.00">protocol</text>
<text xml:space="preserve" text-anchor="middle" x="1372.2" y="-484.4" font-family="Helvetica,sans-Serif" font-size="24.00">families</text>
</g>
<!-- sock&#45;&gt;prot_fam -->
<g id="edge8" class="edge">
<title>sock&#45;&gt;prot_fam</title>
<path fill="none" stroke="#61c2c5" stroke-width="5" d="M1372.2,-555.86C1372.2,-551.37 1372.2,-546.76 1372.2,-542.27"/>
</g>
<!-- log_prot -->
<g id="node13" class="node">
<title>log_prot</title>
<polygon fill="#6a9ab1" stroke="#61c2c5" stroke-width="5" points="1454.21,-354 1290.19,-354 1290.19,-282 1454.21,-282 1454.21,-354"/>
<text xml:space="preserve" text-anchor="middle" x="1372.2" y="-325.2" font-family="Helvetica,sans-Serif" font-size="24.00">protocols:</text>
<text xml:space="preserve" text-anchor="middle" x="1372.2" y="-296.4" font-family="Helvetica,sans-Serif" font-size="24.00">TCP, UDP, IP</text>
</g>
<!-- prot_fam&#45;&gt;log_prot -->
<g id="edge9" class="edge">
<title>prot_fam&#45;&gt;log_prot</title>
<path fill="none" stroke="#61c2c5" stroke-width="5" d="M1372.2,-469.75C1372.2,-436.57 1372.2,-387.71 1372.2,-354.46"/>
</g>
<!-- netif -->
<g id="node14" class="node">
<title>netif</title>
<polygon fill="#71809b" stroke="#61c2c5" stroke-width="5" points="1451.4,-252 1293,-252 1293,-172 1451.4,-172 1451.4,-252"/>
<text xml:space="preserve" text-anchor="middle" x="1372.2" y="-230" font-family="Helvetica,sans-Serif" font-size="20.00">network</text>
<text xml:space="preserve" text-anchor="middle" x="1372.2" y="-206" font-family="Helvetica,sans-Serif" font-size="20.00">interfaces</text>
<text xml:space="preserve" text-anchor="middle" x="1372.2" y="-182" font-family="Helvetica,sans-Serif" font-size="20.00">and drivers</text>
</g>
<!-- log_prot&#45;&gt;netif -->
<g id="edge10" class="edge">
<title>log_prot&#45;&gt;netif</title>
<path fill="none" stroke="#61c2c5" stroke-width="5" d="M1372.2,-281.79C1372.2,-272.36 1372.2,-262.11 1372.2,-252.47"/>
</g>
<!-- net_hw -->
<g id="node15" class="node">
<title>net_hw</title>
<polygon fill="#777777" stroke="#61c2c5" stroke-width="5" points="1454.66,-158 1289.74,-158 1289.74,-86 1454.66,-86 1454.66,-158"/>
<text xml:space="preserve" text-anchor="middle" x="1372.2" y="-128" font-family="Helvetica,sans-Serif" font-size="20.00" fill="white">network:</text>
<text xml:space="preserve" text-anchor="middle" x="1372.2" y="-104" font-family="Helvetica,sans-Serif" font-size="20.00" fill="white">Ethernet, WiFi ...</text>
</g>
<!-- netif&#45;&gt;net_hw -->
<g id="edge11" class="edge">
<title>netif&#45;&gt;net_hw</title>
<path fill="none" stroke="#61c2c5" stroke-width="5" d="M1372.2,-171.63C1372.2,-167.24 1372.2,-162.78 1372.2,-158.44"/>
</g>
<!-- NFS -->
<g id="node16" class="node">
<title>NFS</title>
<polygon fill="#91b5c9" stroke="#8383cc" stroke-width="5" points="1323.4,-408.07 1323.4,-431.93 1298.09,-448.8 1262.31,-448.8 1237,-431.93 1237,-408.07 1262.31,-391.2 1298.09,-391.2 1323.4,-408.07"/>
<text xml:space="preserve" text-anchor="middle" x="1280.2" y="-412.8" font-family="Helvetica,sans-Serif" font-size="24.00">NFS</text>
</g>
<!-- NFS&#45;&gt;log_prot -->
<g id="edge12" class="edge">
<title>NFS&#45;&gt;log_prot</title>
<path fill="none" stroke="#61c2c5" stroke-width="5" d="M1303.18,-394.02C1314.25,-381.99 1327.72,-367.35 1339.8,-354.21"/>
</g>
<!-- processing_ -->
<!-- proc -->
<g id="node19" class="node">
<title>proc</title>
<ellipse fill="#d9e7ee" stroke="#c46747" stroke-width="5" cx="673.2" cy="-592" rx="79.2" ry="36"/>
<text xml:space="preserve" text-anchor="middle" x="673.2" y="-584.8" font-family="Helvetica,sans-Serif" font-size="24.00">Processes</text>
</g>
<!-- processing_&#45;&gt;proc -->
<!-- processing&#45;&gt;processing_ -->
<g id="edge13" class="edge">
<title>processing&#45;&gt;processing_</title>
<path fill="none" stroke="#c46747" stroke-width="5" d="M673.2,-692.55C673.2,-683.57 673.2,-673.74 673.2,-667.57"/>
<polygon fill="#c46747" stroke="#c46747" stroke-width="5" points="675.39,-672.69 673.2,-667.69 671.01,-672.69 675.39,-672.69"/>
</g>
<!-- memory -->
<g id="node34" class="node">
<title>memory</title>
<g id="a_node34"><a xlink:href="https://en.wikibooks.org/wiki/The_Linux_Kernel/Memory" xlink:title="memory">
<polygon fill="white" stroke="#51bf5b" stroke-width="5" points="925.2,-736 781.2,-736 781.2,-692.8 925.2,-692.8 925.2,-736"/>
<text xml:space="preserve" text-anchor="middle" x="853.2" y="-707.2" font-family="Helvetica,sans-Serif" font-size="24.00">memory</text>
</a>
</g>
</g>
<!-- processing&#45;&gt;memory -->
<!-- Tasks -->
<g id="node20" class="node">
<title>Tasks</title>
<polygon fill="#b2d3e4" stroke="#c46747" stroke-width="5" points="752.4,-542 594,-542 594,-470 752.4,-470 752.4,-542"/>
<text xml:space="preserve" text-anchor="middle" x="673.2" y="-498.8" font-family="Helvetica,sans-Serif" font-size="24.00">Tasks</text>
</g>
<!-- proc&#45;&gt;Tasks -->
<g id="edge14" class="edge">
<title>proc&#45;&gt;Tasks</title>
<path fill="none" stroke="#c46747" stroke-width="5" d="M673.2,-555.86C673.2,-551.37 673.2,-546.76 673.2,-542.27"/>
</g>
<!-- sync -->
<g id="node21" class="node">
<title>sync</title>
<polygon fill="#91b5c9" stroke="#c46747" stroke-width="5" points="752.4,-409.56 752.4,-430.44 706.01,-445.2 640.39,-445.2 594,-430.44 594,-409.56 640.39,-394.8 706.01,-394.8 752.4,-409.56"/>
<text xml:space="preserve" text-anchor="middle" x="673.2" y="-414" font-family="Arial" font-size="20.00">synchronization</text>
</g>
<!-- Tasks&#45;&gt;sync -->
<g id="edge15" class="edge">
<title>Tasks&#45;&gt;sync</title>
<path fill="none" stroke="#c46747" stroke-width="5" d="M673.2,-469.86C673.2,-461.68 673.2,-453.14 673.2,-445.53"/>
</g>
<!-- sched -->
<g id="node22" class="node">
<title>sched</title>
<polygon fill="#6a9ab1" stroke="#c46747" stroke-width="5" points="752.4,-354 594,-354 594,-282 752.4,-282 752.4,-354"/>
<text xml:space="preserve" text-anchor="middle" x="673.2" y="-310.8" font-family="Helvetica,sans-Serif" font-size="24.00">Scheduler</text>
</g>
<!-- sync&#45;&gt;sched -->
<g id="edge16" class="edge">
<title>sync&#45;&gt;sched</title>
<path fill="none" stroke="#c46747" stroke-width="5" d="M673.2,-394.54C673.2,-382.39 673.2,-367.51 673.2,-354.17"/>
</g>
<!-- IRQ -->
<g id="node23" class="node">
<title>IRQ</title>
<polygon fill="#71809b" stroke="#c46747" stroke-width="5" points="752.4,-252 594,-252 594,-172 752.4,-172 752.4,-252"/>
<text xml:space="preserve" text-anchor="middle" x="673.2" y="-230" font-family="Helvetica,sans-Serif" font-size="20.00">interrupts</text>
<text xml:space="preserve" text-anchor="middle" x="673.2" y="-206" font-family="Helvetica,sans-Serif" font-size="20.00">core,</text>
<text xml:space="preserve" text-anchor="middle" x="673.2" y="-182" font-family="Helvetica,sans-Serif" font-size="20.00">CPU arch</text>
</g>
<!-- sched&#45;&gt;IRQ -->
<g id="edge17" class="edge">
<title>sched&#45;&gt;IRQ</title>
<path fill="none" stroke="#c46747" stroke-width="5" d="M673.2,-281.79C673.2,-272.36 673.2,-262.11 673.2,-252.47"/>
</g>
<!-- CPU -->
<g id="node24" class="node">
<title>CPU</title>
<polygon fill="#777777" stroke="#c46747" stroke-width="5" points="752.4,-158 594,-158 594,-86 752.4,-86 752.4,-158"/>
<text xml:space="preserve" text-anchor="middle" x="673.2" y="-116" font-family="Helvetica,sans-Serif" font-size="20.00" fill="white">CPU</text>
</g>
<!-- IRQ&#45;&gt;CPU -->
<g id="edge18" class="edge">
<title>IRQ&#45;&gt;CPU</title>
<path fill="none" stroke="#c46747" stroke-width="5" d="M673.2,-171.63C673.2,-167.24 673.2,-162.78 673.2,-158.44"/>
</g>
<!-- bottom -->
<g id="node63" class="node">
<title>bottom</title>
<g id="a_node63"><a xlink:href="http://www.MakeLinux.net/kernel/diagram" xlink:title="@ 2007&#45;2022 Costa Shulyupin http://www.MakeLinux.net/kernel/diagram">
<text xml:space="preserve" text-anchor="middle" x="673.2" y="-28.8" font-family="Helvetica,sans-Serif" font-size="24.00">@ 2007&#45;2022 Costa Shulyupin http://www.MakeLinux.net/kernel/diagram</text>
</a>
</g>
</g>
<!-- CPU&#45;&gt;bottom -->
<!-- MA -->
<g id="node25" class="node">
<title>MA</title>
<ellipse fill="#d9e7ee" stroke="#51bf5b" stroke-width="5" cx="853.2" cy="-592" rx="79.2" ry="36"/>
<text xml:space="preserve" text-anchor="middle" x="853.2" y="-599.2" font-family="Helvetica,sans-Serif" font-size="24.00">memory</text>
<text xml:space="preserve" text-anchor="middle" x="853.2" y="-570.4" font-family="Helvetica,sans-Serif" font-size="24.00">access</text>
</g>
<!-- VM -->
<g id="node26" class="node">
<title>VM</title>
<polygon fill="#b2d3e4" stroke="#51bf5b" stroke-width="5" points="932.4,-542 774,-542 774,-470 932.4,-470 932.4,-542"/>
<text xml:space="preserve" text-anchor="middle" x="853.2" y="-513.2" font-family="Helvetica,sans-Serif" font-size="24.00">Virtual</text>
<text xml:space="preserve" text-anchor="middle" x="853.2" y="-484.4" font-family="Helvetica,sans-Serif" font-size="24.00">memory</text>
</g>
<!-- MA&#45;&gt;VM -->
<g id="edge19" class="edge">
<title>MA&#45;&gt;VM</title>
<path fill="none" stroke="#51bf5b" stroke-width="5" d="M853.2,-555.86C853.2,-551.37 853.2,-546.76 853.2,-542.27"/>
</g>
<!-- mmap -->
<g id="node27" class="node">
<title>mmap</title>
<polygon fill="#91b5c9" stroke="#51bf5b" stroke-width="5" points="925.2,-408.07 925.2,-431.93 883.02,-448.8 823.38,-448.8 781.2,-431.93 781.2,-408.07 823.38,-391.2 883.02,-391.2 925.2,-408.07"/>
<text xml:space="preserve" text-anchor="middle" x="853.2" y="-426" font-family="Helvetica,sans-Serif" font-size="20.00">memory</text>
<text xml:space="preserve" text-anchor="middle" x="853.2" y="-402" font-family="Helvetica,sans-Serif" font-size="20.00">mapping</text>
</g>
<!-- VM&#45;&gt;mmap -->
<g id="edge27" class="edge">
<title>VM&#45;&gt;mmap</title>
<path fill="none" stroke="#51bf5b" stroke-width="5" d="M853.2,-469.86C853.2,-462.94 853.2,-455.76 853.2,-449.11"/>
</g>
<!-- log_mem -->
<g id="node28" class="node">
<title>log_mem</title>
<polygon fill="#6a9ab1" stroke="#51bf5b" stroke-width="5" points="932.4,-354 774,-354 774,-282 932.4,-282 932.4,-354"/>
<text xml:space="preserve" text-anchor="middle" x="853.2" y="-325.2" font-family="Helvetica,sans-Serif" font-size="24.00">logical</text>
<text xml:space="preserve" text-anchor="middle" x="853.2" y="-296.4" font-family="Helvetica,sans-Serif" font-size="24.00">memory</text>
</g>
<!-- mmap&#45;&gt;log_mem -->
<g id="edge20" class="edge">
<title>mmap&#45;&gt;log_mem</title>
<path fill="none" stroke="#51bf5b" stroke-width="5" d="M853.2,-390.88C853.2,-379.56 853.2,-366.37 853.2,-354.4"/>
</g>
<!-- SW -->
<g id="node30" class="node">
<title>SW</title>
<polygon fill="#91b5c9" stroke="#8383cc" stroke-width="5" points="1040.4,-306.07 1040.4,-329.93 1015.09,-346.8 979.31,-346.8 954,-329.93 954,-306.07 979.31,-289.2 1015.09,-289.2 1040.4,-306.07"/>
<text xml:space="preserve" text-anchor="middle" x="997.2" y="-310.8" font-family="Helvetica,sans-Serif" font-size="24.00">Swap</text>
</g>
<!-- mmap&#45;&gt;SW -->
<g id="edge22" class="edge">
<title>mmap&#45;&gt;SW</title>
<path fill="none" stroke="#51bf5b" stroke-width="5" d="M889.91,-393.51C914.07,-376.73 945.29,-355.05 967.81,-339.41"/>
</g>
<!-- PA -->
<g id="node29" class="node">
<title>PA</title>
<polygon fill="#71809b" stroke="#51bf5b" stroke-width="5" points="932.4,-248 774,-248 774,-176 932.4,-176 932.4,-248"/>
<text xml:space="preserve" text-anchor="middle" x="853.2" y="-219.2" font-family="Helvetica,sans-Serif" font-size="24.00">Page</text>
<text xml:space="preserve" text-anchor="middle" x="853.2" y="-190.4" font-family="Helvetica,sans-Serif" font-size="24.00">Allocator</text>
</g>
<!-- log_mem&#45;&gt;PA -->
<g id="edge21" class="edge">
<title>log_mem&#45;&gt;PA</title>
<path fill="none" stroke="#51bf5b" stroke-width="5" d="M853.2,-281.79C853.2,-270.95 853.2,-259.01 853.2,-248.17"/>
</g>
<!-- RAM -->
<g id="node33" class="node">
<title>RAM</title>
<polygon fill="#777777" stroke="#51bf5b" stroke-width="5" points="932.4,-158 774,-158 774,-86 932.4,-86 932.4,-158"/>
<text xml:space="preserve" text-anchor="middle" x="853.2" y="-116" font-family="Helvetica,sans-Serif" font-size="20.00" fill="white">MMU, RAM</text>
</g>
<!-- PA&#45;&gt;RAM -->
<g id="edge25" class="edge">
<title>PA&#45;&gt;RAM</title>
<path fill="none" stroke="#51bf5b" stroke-width="5" d="M853.2,-175.71C853.2,-169.98 853.2,-164.03 853.2,-158.29"/>
</g>
<!-- block -->
<g id="node31" class="node">
<title>block</title>
<polygon fill="#71809b" stroke="#51bf5b" stroke-width="5" points="1266.4,-252 1108,-252 1108,-172 1266.4,-172 1266.4,-252"/>
<text xml:space="preserve" text-anchor="middle" x="1187.2" y="-230" font-family="Helvetica,sans-Serif" font-size="20.00">Block</text>
<text xml:space="preserve" text-anchor="middle" x="1187.2" y="-206" font-family="Helvetica,sans-Serif" font-size="20.00">devices</text>
<text xml:space="preserve" text-anchor="middle" x="1187.2" y="-182" font-family="Helvetica,sans-Serif" font-size="20.00">and drivers</text>
</g>
<!-- SW&#45;&gt;block -->
<g id="edge23" class="edge">
<title>SW&#45;&gt;block</title>
<path fill="none" stroke="#8383cc" stroke-width="5" d="M1030.3,-298.88C1053.69,-286.08 1085.94,-268.42 1115.13,-252.45"/>
</g>
<!-- SD -->
<g id="node41" class="node">
<title>SD</title>
<polygon fill="#777777" stroke="#8383cc" stroke-width="5" points="1268.02,-158 1106.38,-158 1106.38,-86 1268.02,-86 1268.02,-158"/>
<text xml:space="preserve" text-anchor="middle" x="1187.2" y="-128" font-family="Helvetica,sans-Serif" font-size="20.00" fill="white">storage devices:</text>
<text xml:space="preserve" text-anchor="middle" x="1187.2" y="-104" font-family="Helvetica,sans-Serif" font-size="20.00" fill="white">SCSI, NVMe ...</text>
</g>
<!-- block&#45;&gt;SD -->
<g id="edge35" class="edge">
<title>block&#45;&gt;SD</title>
<path fill="none" stroke="#8383cc" stroke-width="5" d="M1187.2,-171.63C1187.2,-167.24 1187.2,-162.78 1187.2,-158.44"/>
</g>
<!-- PC -->
<g id="node32" class="node">
<title>PC</title>
<polygon fill="#91b5c9" stroke="#51bf5b" stroke-width="5" points="1135.4,-408.07 1135.4,-431.93 1110.09,-448.8 1074.31,-448.8 1049,-431.93 1049,-408.07 1074.31,-391.2 1110.09,-391.2 1135.4,-408.07"/>
<text xml:space="preserve" text-anchor="middle" x="1092.2" y="-426" font-family="Helvetica,sans-Serif" font-size="20.00">page</text>
<text xml:space="preserve" text-anchor="middle" x="1092.2" y="-402" font-family="Helvetica,sans-Serif" font-size="20.00">cache</text>
</g>
<!-- PC&#45;&gt;PA -->
<g id="edge24" class="edge">
<title>PC&#45;&gt;PA</title>
<path fill="none" stroke="#51bf5b" stroke-width="5" d="M1065.71,-396.95C1024.39,-360.98 944.23,-291.23 895.04,-248.42"/>
</g>
<!-- memory_ -->
<!-- memory&#45;&gt;memory_ -->
<g id="edge26" class="edge">
<title>memory&#45;&gt;memory_</title>
<path fill="none" stroke="#51bf5b" stroke-width="5" d="M853.2,-692.55C853.2,-683.57 853.2,-673.74 853.2,-667.57"/>
<polygon fill="#51bf5b" stroke="#51bf5b" stroke-width="5" points="855.39,-672.69 853.2,-667.69 851.01,-672.69 855.39,-672.69"/>
</g>
<!-- storage -->
<g id="node37" class="node">
<title>storage</title>
<g id="a_node37"><a xlink:href="https://en.wikibooks.org/wiki/The_Linux_Kernel/Storage" xlink:title="storage">
<polygon fill="white" stroke="#8383cc" stroke-width="5" points="1259.2,-736 1115.2,-736 1115.2,-692.8 1259.2,-692.8 1259.2,-736"/>
<text xml:space="preserve" text-anchor="middle" x="1187.2" y="-707.2" font-family="Helvetica,sans-Serif" font-size="24.00">storage</text>
</a>
</g>
</g>
<!-- memory&#45;&gt;storage -->
<!-- memory_&#45;&gt;MA -->
<!-- storage_ -->
<!-- FS -->
<g id="node38" class="node">
<title>FS</title>
<ellipse fill="#d9e7ee" stroke="#8383cc" stroke-width="5" cx="1187.2" cy="-592" rx="79.2" ry="36"/>
<text xml:space="preserve" text-anchor="middle" x="1187.2" y="-599.2" font-family="Helvetica,sans-Serif" font-size="24.00">files and</text>
<text xml:space="preserve" text-anchor="middle" x="1187.2" y="-570.4" font-family="Helvetica,sans-Serif" font-size="24.00">directories</text>
</g>
<!-- storage_&#45;&gt;FS -->
<!-- storage&#45;&gt;networking -->
<!-- storage&#45;&gt;storage_ -->
<g id="edge28" class="edge">
<title>storage&#45;&gt;storage_</title>
<path fill="none" stroke="#8383cc" stroke-width="5" d="M1187.2,-692.55C1187.2,-683.57 1187.2,-673.74 1187.2,-667.57"/>
<polygon fill="#8383cc" stroke="#8383cc" stroke-width="5" points="1189.39,-672.69 1187.2,-667.69 1185.01,-672.69 1189.39,-672.69"/>
</g>
<!-- VFS -->
<g id="node39" class="node">
<title>VFS</title>
<polygon fill="#b2d3e4" stroke="#8383cc" stroke-width="5" points="1266.4,-542 1108,-542 1108,-470 1266.4,-470 1266.4,-542"/>
<text xml:space="preserve" text-anchor="middle" x="1187.2" y="-513.2" font-family="Helvetica,sans-Serif" font-size="24.00">Virtual</text>
<text xml:space="preserve" text-anchor="middle" x="1187.2" y="-484.4" font-family="Helvetica,sans-Serif" font-size="24.00">File System</text>
</g>
<!-- FS&#45;&gt;VFS -->
<g id="edge29" class="edge">
<title>FS&#45;&gt;VFS</title>
<path fill="none" stroke="#8383cc" stroke-width="5" d="M1187.2,-555.86C1187.2,-551.37 1187.2,-546.76 1187.2,-542.27"/>
</g>
<!-- VFS&#45;&gt;NFS -->
<g id="edge31" class="edge">
<title>VFS&#45;&gt;NFS</title>
<path fill="none" stroke="#8383cc" stroke-width="5" d="M1226.37,-469.62C1235.9,-461.01 1245.85,-452.02 1254.57,-444.15"/>
</g>
<!-- VFS&#45;&gt;mmap -->
<g id="edge30" class="edge">
<title>VFS&#45;&gt;mmap</title>
<path fill="none" stroke="#8383cc" stroke-width="5" d="M1107.62,-484.99C1048.58,-470.14 969.23,-450.18 914.94,-436.53"/>
</g>
<!-- VFS&#45;&gt;PC -->
<g id="edge33" class="edge">
<title>VFS&#45;&gt;PC</title>
<path fill="none" stroke="#8383cc" stroke-width="5" d="M1147.19,-469.62C1137.35,-460.92 1127.07,-451.83 1118.1,-443.9"/>
</g>
<!-- logFS -->
<g id="node40" class="node">
<title>logFS</title>
<polygon fill="#6a9ab1" stroke="#8383cc" stroke-width="5" points="1266.4,-358 1108,-358 1108,-278 1266.4,-278 1266.4,-358"/>
<text xml:space="preserve" text-anchor="middle" x="1187.2" y="-336" font-family="Helvetica,sans-Serif" font-size="20.00">logical</text>
<text xml:space="preserve" text-anchor="middle" x="1187.2" y="-312" font-family="Helvetica,sans-Serif" font-size="20.00">filesystems:</text>
<text xml:space="preserve" text-anchor="middle" x="1187.2" y="-288" font-family="Helvetica,sans-Serif" font-size="20.00">ext3, xfs ...</text>
</g>
<!-- VFS&#45;&gt;logFS -->
<g id="edge32" class="edge">
<title>VFS&#45;&gt;logFS</title>
<path fill="none" stroke="#8383cc" stroke-width="5" d="M1187.2,-469.75C1187.2,-437.85 1187.2,-391.45 1187.2,-358.37"/>
</g>
<!-- logFS&#45;&gt;block -->
<g id="edge34" class="edge">
<title>logFS&#45;&gt;block</title>
<path fill="none" stroke="#8383cc" stroke-width="5" d="M1187.2,-277.68C1187.2,-269.4 1187.2,-260.66 1187.2,-252.37"/>
</g>
<!-- HI_ -->
<!-- char -->
<g id="node44" class="node">
<title>char</title>
<ellipse fill="#d9e7ee" stroke="#cfbf57" stroke-width="5" cx="308.2" cy="-592" rx="79.2" ry="36"/>
<text xml:space="preserve" text-anchor="middle" x="308.2" y="-599.2" font-family="Helvetica,sans-Serif" font-size="24.00">char</text>
<text xml:space="preserve" text-anchor="middle" x="308.2" y="-570.4" font-family="Helvetica,sans-Serif" font-size="24.00">devices</text>
</g>
<!-- HI_&#45;&gt;char -->
<!-- HI -->
<g id="node43" class="node">
<title>HI</title>
<g id="a_node43"><a xlink:href="https://en.wikibooks.org/wiki/The_Linux_Kernel/Human_interfaces" xlink:title="human\ninterface">
<polygon fill="white" stroke="#cfbf57" stroke-width="5" points="380.2,-736 236.2,-736 236.2,-692.8 380.2,-692.8 380.2,-736"/>
<text xml:space="preserve" text-anchor="middle" x="308.2" y="-718" font-family="Helvetica,sans-Serif" font-size="12.00">human</text>
<text xml:space="preserve" text-anchor="middle" x="308.2" y="-703.6" font-family="Helvetica,sans-Serif" font-size="12.00">interface</text>
</a>
</g>
</g>
<!-- HI&#45;&gt;system -->
<!-- HI&#45;&gt;HI_ -->
<g id="edge36" class="edge">
<title>HI&#45;&gt;HI_</title>
<path fill="none" stroke="#cfbf57" stroke-width="5" d="M308.2,-692.55C308.2,-683.57 308.2,-673.74 308.2,-667.57"/>
<polygon fill="#cfbf57" stroke="#cfbf57" stroke-width="5" points="310.39,-672.69 308.2,-667.69 306.01,-672.69 310.39,-672.69"/>
</g>
<!-- input -->
<g id="node45" class="node">
<title>input</title>
<polygon fill="#b2d3e4" stroke="#cfbf57" stroke-width="5" points="387.4,-542 229,-542 229,-470 387.4,-470 387.4,-542"/>
<text xml:space="preserve" text-anchor="middle" x="308.2" y="-513.2" font-family="Helvetica,sans-Serif" font-size="24.00">input</text>
<text xml:space="preserve" text-anchor="middle" x="308.2" y="-484.4" font-family="Helvetica,sans-Serif" font-size="24.00">subsystem</text>
</g>
<!-- char&#45;&gt;input -->
<g id="edge37" class="edge">
<title>char&#45;&gt;input</title>
<path fill="none" stroke="#cfbf57" stroke-width="5" d="M308.2,-555.86C308.2,-551.37 308.2,-546.76 308.2,-542.27"/>
</g>
<!-- F7 -->
<g id="node46" class="node">
<title>F7</title>
<polygon fill="#6a9ab1" stroke="#cfbf57" stroke-width="5" points="387.4,-354 229,-354 229,-282 387.4,-282 387.4,-354"/>
<text xml:space="preserve" text-anchor="middle" x="308.2" y="-325.2" font-family="Helvetica,sans-Serif" font-size="24.00">HI class</text>
<text xml:space="preserve" text-anchor="middle" x="308.2" y="-296.4" font-family="Helvetica,sans-Serif" font-size="24.00">drivers</text>
</g>
<!-- input&#45;&gt;F7 -->
<g id="edge38" class="edge">
<title>input&#45;&gt;F7</title>
<path fill="none" stroke="#cfbf57" stroke-width="5" d="M308.2,-469.75C308.2,-436.57 308.2,-387.71 308.2,-354.46"/>
</g>
<!-- HID -->
<g id="node47" class="node">
<title>HID</title>
<g id="a_node47"><a xlink:href="https://www.kernel.org/doc/html/latest/hid/" xlink:title="HI\nperipherals\ndrivers">
<polygon fill="#71809b" stroke="#cfbf57" stroke-width="5" points="387.4,-252 229,-252 229,-172 387.4,-172 387.4,-252"/>
<text xml:space="preserve" text-anchor="middle" x="308.2" y="-230" font-family="Helvetica,sans-Serif" font-size="20.00">HI</text>
<text xml:space="preserve" text-anchor="middle" x="308.2" y="-206" font-family="Helvetica,sans-Serif" font-size="20.00">peripherals</text>
<text xml:space="preserve" text-anchor="middle" x="308.2" y="-182" font-family="Helvetica,sans-Serif" font-size="20.00">drivers</text>
</a>
</g>
</g>
<!-- F7&#45;&gt;HID -->
<g id="edge39" class="edge">
<title>F7&#45;&gt;HID</title>
<path fill="none" stroke="#cfbf57" stroke-width="5" d="M308.2,-281.79C308.2,-272.36 308.2,-262.11 308.2,-252.47"/>
</g>
<!-- display -->
<g id="node48" class="node">
<title>display</title>
<polygon fill="#777777" stroke="#cfbf57" stroke-width="5" points="391.71,-158 224.69,-158 224.69,-86 391.71,-86 391.71,-158"/>
<text xml:space="preserve" text-anchor="middle" x="308.2" y="-127.7" font-family="Helvetica,sans-Serif" font-size="19.00" fill="white">keyboard, mouse,</text>
<text xml:space="preserve" text-anchor="middle" x="308.2" y="-104.9" font-family="Helvetica,sans-Serif" font-size="19.00" fill="white">display, audio</text>
</g>
<!-- HID&#45;&gt;display -->
<g id="edge40" class="edge">
<title>HID&#45;&gt;display</title>
<path fill="none" stroke="#cfbf57" stroke-width="5" d="M308.2,-171.63C308.2,-167.24 308.2,-162.78 308.2,-158.44"/>
</g>
<!-- functions_ -->
<!-- functions_&#45;&gt;HI -->
<!-- functions -->
<g id="node50" class="node">
<title>functions</title>
<g id="a_node50"><a xlink:href="http://www.makelinux.net/ldd3/chp-1-sect-2.shtml" xlink:title="Columns represent main functionalities of the kernel">
<polygon fill="none" stroke="gray" stroke-dasharray="5,2" points="136.8,-736 21.6,-736 21.6,-692.8 136.8,-692.8 136.8,-736"/>
<text xml:space="preserve" text-anchor="middle" x="79.2" y="-707.2" font-family="Helvetica,sans-Serif" font-size="24.00">functions</text>
</a>
</g>
</g>
<!-- functions&#45;&gt;functions_ -->
<g id="edge47" class="edge">
<title>functions&#45;&gt;functions_</title>
<path fill="none" stroke="gray" d="M137,-714.4C151.41,-714.4 165.82,-714.4 180.24,-714.4"/>
<polygon fill="gray" stroke="gray" points="179.9,-716.15 184.9,-714.4 179.9,-712.65 179.9,-716.15"/>
</g>
<!-- layers -->
<g id="node64" class="node">
<title>layers</title>
<g id="a_node64"><a xlink:title="Functionalities are divided to common layers. It is approximate division.">
<polygon fill="lightgray" stroke="black" stroke-width="0" points="119.21,-678.8 39.19,-678.8 39.19,-642 119.21,-642 119.21,-678.8"/>
<text xml:space="preserve" text-anchor="middle" x="79.2" y="-653.2" font-family="Helvetica,sans-Serif" font-size="24.00">layers</text>
</a>
</g>
</g>
<!-- functions&#45;&gt;layers -->
<!-- usr_ -->
<!-- usr -->
<g id="node52" class="node">
<title>usr</title>
<ellipse fill="#d9e7ee" stroke="black" stroke-width="0" cx="79.2" cy="-592" rx="79.2" ry="36"/>
<text xml:space="preserve" text-anchor="middle" x="79.2" y="-599.2" font-family="Helvetica,sans-Serif" font-size="24.00">user space</text>
<text xml:space="preserve" text-anchor="middle" x="79.2" y="-570.4" font-family="Helvetica,sans-Serif" font-size="24.00">interfaces</text>
</g>
<!-- usr&#45;&gt;usr_ -->
<g id="edge56" class="edge">
<title>usr&#45;&gt;usr_</title>
<path fill="none" stroke="#d9e7ee" stroke-width="5" d="M158.48,-592C170.6,-592 182.72,-592 194.84,-592"/>
<polygon fill="#d9e7ee" stroke="#d9e7ee" stroke-width="5" points="189.94,-594.19 194.94,-592 189.94,-589.81 189.94,-594.19"/>
</g>
<!-- virt -->
<g id="node54" class="node">
<title>virt</title>
<g id="a_node54"><a xlink:href="https://en.wikipedia.org/wiki/Proxy_pattern" xlink:title="proxy between standard user space interfaces and internal implementations">
<polygon fill="#b2d3e4" stroke="black" stroke-width="0" points="158.4,-542 0,-542 0,-470 158.4,-470 158.4,-542"/>
<text xml:space="preserve" text-anchor="middle" x="79.2" y="-513.2" font-family="Helvetica,sans-Serif" font-size="24.00">virtual</text>
<text xml:space="preserve" text-anchor="middle" x="79.2" y="-484.4" font-family="Helvetica,sans-Serif" font-size="24.00">subsystems</text>
</a>
</g>
</g>
<!-- usr&#45;&gt;virt -->
<g id="edge57" class="edge">
<title>usr&#45;&gt;virt</title>
<path fill="none" stroke="#d9e7ee" stroke-width="5" d="M79.2,-555.86C79.2,-551.37 79.2,-546.76 79.2,-542.27"/>
</g>
<!-- D0 -->
<!-- virt&#45;&gt;D0 -->
<g id="edge58" class="edge">
<title>virt&#45;&gt;D0</title>
<path fill="none" stroke="#b2d3e4" stroke-width="5" d="M158.48,-506C170.69,-506 182.91,-506 195.13,-506"/>
<polygon fill="#b2d3e4" stroke="#b2d3e4" stroke-width="5" points="190.28,-508.19 195.28,-506 190.28,-503.81 190.28,-508.19"/>
</g>
<!-- bridges -->
<g id="node55" class="node">
<title>bridges</title>
<g id="a_node55"><a xlink:href="https://en.wikipedia.org/wiki/Bridge_pattern" xlink:title="bridges between uniform virtual interfaces and various implementations">
<polygon fill="#91b5c9" stroke="black" stroke-width="0" points="158.4,-405.09 158.4,-434.91 112.01,-456 46.39,-456 0,-434.91 0,-405.09 46.39,-384 112.01,-384 158.4,-405.09"/>
<text xml:space="preserve" text-anchor="middle" x="79.2" y="-412.8" font-family="Helvetica,sans-Serif" font-size="24.00">bridges</text>
</a>
</g>
</g>
<!-- virt&#45;&gt;bridges -->
<g id="edge59" class="edge">
<title>virt&#45;&gt;bridges</title>
<path fill="none" stroke="#b2d3e4" stroke-width="5" d="M79.2,-469.86C79.2,-465.37 79.2,-460.76 79.2,-456.27"/>
</g>
<!-- E0 -->
<!-- bridges&#45;&gt;E0 -->
<g id="edge60" class="edge">
<title>bridges&#45;&gt;E0</title>
<path fill="none" stroke="#91b5c9" stroke-width="6" d="M158.48,-420C170.69,-420 182.91,-420 195.13,-420"/>
<polygon fill="#91b5c9" stroke="#91b5c9" stroke-width="6" points="190.06,-422.63 195.06,-420 190.06,-417.38 190.06,-422.63"/>
</g>
<!-- logical -->
<g id="node58" class="node">
<title>logical</title>
<polygon fill="#6a9ab1" stroke="black" stroke-width="0" points="158.4,-354 0,-354 0,-282 158.4,-282 158.4,-354"/>
<text xml:space="preserve" text-anchor="middle" x="79.2" y="-310.8" font-family="Helvetica,sans-Serif" font-size="24.00">logical</text>
</g>
<!-- bridges&#45;&gt;logical -->
<g id="edge61" class="edge">
<title>bridges&#45;&gt;logical</title>
<path fill="none" stroke="#91b5c9" stroke-width="6" d="M79.2,-383.74C79.2,-374.18 79.2,-363.84 79.2,-354.27"/>
</g>
<!-- F0 -->
<!-- logical&#45;&gt;F0 -->
<g id="edge62" class="edge">
<title>logical&#45;&gt;F0</title>
<path fill="none" stroke="#6a9ab1" stroke-width="6" d="M158.48,-318C170.69,-318 182.91,-318 195.13,-318"/>
<polygon fill="#6a9ab1" stroke="#6a9ab1" stroke-width="6" points="190.06,-320.63 195.06,-318 190.06,-315.38 190.06,-320.63"/>
</g>
<!-- HWI -->
<g id="node59" class="node">
<title>HWI</title>
<polygon fill="#71809b" stroke="black" stroke-width="0" points="158.4,-248 0,-248 0,-176 158.4,-176 158.4,-248"/>
<text xml:space="preserve" text-anchor="middle" x="79.2" y="-219.2" font-family="Helvetica,sans-Serif" font-size="24.00">hardware</text>
<text xml:space="preserve" text-anchor="middle" x="79.2" y="-190.4" font-family="Helvetica,sans-Serif" font-size="24.00">interfaces</text>
</g>
<!-- logical&#45;&gt;HWI -->
<g id="edge63" class="edge">
<title>logical&#45;&gt;HWI</title>
<path fill="none" stroke="#6a9ab1" stroke-width="6" d="M79.2,-281.79C79.2,-270.95 79.2,-259.01 79.2,-248.17"/>
</g>
<!-- G0 -->
<!-- HWI&#45;&gt;G0 -->
<g id="edge64" class="edge">
<title>HWI&#45;&gt;G0</title>
<path fill="none" stroke="#71809b" stroke-width="6" d="M158.48,-212C170.69,-212 182.91,-212 195.13,-212"/>
<polygon fill="#71809b" stroke="#71809b" stroke-width="6" points="190.06,-214.63 195.06,-212 190.06,-209.38 190.06,-214.63"/>
</g>
<!-- HW -->
<g id="node61" class="node">
<title>HW</title>
<polygon fill="#777777" stroke="black" stroke-width="0" points="158.4,-158 0,-158 0,-86 158.4,-86 158.4,-158"/>
<text xml:space="preserve" text-anchor="middle" x="79.2" y="-129.2" font-family="Helvetica,sans-Serif" font-size="24.00" fill="white">electronics,</text>
<text xml:space="preserve" text-anchor="middle" x="79.2" y="-100.4" font-family="Helvetica,sans-Serif" font-size="24.00" fill="white">hardware</text>
</g>
<!-- HWI&#45;&gt;HW -->
<g id="edge65" class="edge">
<title>HWI&#45;&gt;HW</title>
<path fill="none" stroke="#71809b" stroke-width="6" d="M79.2,-175.71C79.2,-169.98 79.2,-164.03 79.2,-158.29"/>
</g>
<!-- H0 -->
<!-- HW&#45;&gt;H0 -->
<g id="edge66" class="edge">
<title>HW&#45;&gt;H0</title>
<path fill="none" stroke="#777777" stroke-width="6" d="M158.48,-122C170.69,-122 182.91,-122 195.13,-122"/>
<polygon fill="#777777" stroke="#777777" stroke-width="6" points="190.06,-124.63 195.06,-122 190.06,-119.38 190.06,-124.63"/>
</g>
<!-- layers&#45;&gt;usr -->
<g id="edge67" class="edge">
<title>layers&#45;&gt;usr</title>
<path fill="none" stroke="gray" d="M79.2,-641.61C79.2,-639.4 79.2,-637.08 79.2,-634.7"/>
<polygon fill="gray" stroke="gray" points="80.95,-634.79 79.2,-629.79 77.45,-634.79 80.95,-634.79"/>
</g>
<!-- LKD -->
<g id="node65" class="node">
<title>LKD</title>
<text xml:space="preserve" text-anchor="middle" x="673.2" y="-762" font-family="Helvetica,sans-Serif" font-size="40.00">Linux kernel diagram</text>
</g>
<!-- LKD&#45;&gt;processing -->
</g>
</svg>
