<?xml version="1.0" encoding="UTF-8" standalone="no"?>
<!DOCTYPE svg PUBLIC "-//W3C//DTD SVG 1.1//EN"
 "http://www.w3.org/Graphics/SVG/1.1/DTD/svg11.dtd">
<!-- Generated by graphviz version a (a)
 -->
<!-- Title: g Pages: 1 -->
<svg width="1178pt" height="586pt"
 viewBox="0.00 0.00 1178.00 586.00" xmlns="http://www.w3.org/2000/svg" xmlns:xlink="http://www.w3.org/1999/xlink">
<g id="graph0" class="graph" transform="scale(1 1) rotate(0) translate(4 581.6)">
<title>g</title>
<polygon fill="white" stroke="none" points="-4,4 -4,-581.6 1173.95,-581.6 1173.95,4 -4,4"/>
<!-- state0 -->
<g id="node1" class="node">
<title>state0</title>
<path fill="white" stroke="black" stroke-width="5" d="M12,-75.5C12,-75.5 175.63,-75.5 175.63,-75.5 181.63,-75.5 187.63,-81.5 187.63,-87.5 187.63,-87.5 187.63,-247.1 187.63,-247.1 187.63,-253.1 181.63,-259.1 175.63,-259.1 175.63,-259.1 12,-259.1 12,-259.1 6,-259.1 0,-253.1 0,-247.1 0,-247.1 0,-87.5 0,-87.5 0,-81.5 6,-75.5 12,-75.5"/>
<polygon fill="white" stroke="none" points="8,-79.5 8,-255.1 179.63,-255.1 179.63,-79.5 8,-79.5"/>
<polygon fill="black" stroke="none" points="10,-230.3 10,-253.1 177.63,-253.1 177.63,-230.3 10,-230.3"/>
<text xml:space="preserve" text-anchor="start" x="60.21" y="-237.5" font-family="Courier New" font-size="14.00" fill="white">State #0</text>
<text xml:space="preserve" text-anchor="start" x="13" y="-212.7" font-family="Courier New" font-size="14.00">(0) s &#45;&gt; *;e $ </text>
<text xml:space="preserve" text-anchor="start" x="13" y="-187.9" font-family="Courier New" font-size="14.00">(1) e &#45;&gt; *;l &#39;=&#39; r </text>
<text xml:space="preserve" text-anchor="start" x="13" y="-163.1" font-family="Courier New" font-size="14.00">(2) e &#45;&gt; *;r </text>
<text xml:space="preserve" text-anchor="start" x="13" y="-138.3" font-family="Courier New" font-size="14.00">(3) l &#45;&gt; *;&#39;*&#39; r </text>
<text xml:space="preserve" text-anchor="start" x="13" y="-113.5" font-family="Courier New" font-size="14.00">(4) l &#45;&gt; *;&#39;n&#39; </text>
<text xml:space="preserve" text-anchor="start" x="13" y="-88.7" font-family="Courier New" font-size="14.00">(5) r &#45;&gt; *;l </text>
</g>
<!-- state1 -->
<g id="node2" class="node">
<title>state1</title>
<path fill="white" stroke="black" d="M752.77,-260.3C752.77,-260.3 899.59,-260.3 899.59,-260.3 905.59,-260.3 911.59,-266.3 911.59,-272.3 911.59,-272.3 911.59,-382.3 911.59,-382.3 911.59,-388.3 905.59,-394.3 899.59,-394.3 899.59,-394.3 752.77,-394.3 752.77,-394.3 746.77,-394.3 740.77,-388.3 740.77,-382.3 740.77,-382.3 740.77,-272.3 740.77,-272.3 740.77,-266.3 746.77,-260.3 752.77,-260.3"/>
<polygon fill="white" stroke="none" points="748.77,-264.3 748.77,-390.3 903.59,-390.3 903.59,-264.3 748.77,-264.3"/>
<polygon fill="black" stroke="none" points="750.77,-365.5 750.77,-388.3 901.59,-388.3 901.59,-365.5 750.77,-365.5"/>
<text xml:space="preserve" text-anchor="start" x="792.58" y="-372.7" font-family="Courier New" font-size="14.00" fill="white">State #1</text>
<text xml:space="preserve" text-anchor="start" x="753.77" y="-347.9" font-family="Courier New" font-size="14.00">(3) l &#45;&gt; *;&#39;*&#39; r </text>
<text xml:space="preserve" text-anchor="start" x="753.77" y="-323.1" font-family="Courier New" font-size="14.00">(3) l &#45;&gt; &#39;*&#39; *;r </text>
<text xml:space="preserve" text-anchor="start" x="753.77" y="-298.3" font-family="Courier New" font-size="14.00">(4) l &#45;&gt; *;&#39;n&#39; </text>
<text xml:space="preserve" text-anchor="start" x="753.77" y="-273.5" font-family="Courier New" font-size="14.00">(5) r &#45;&gt; *;l </text>
</g>
<!-- state0&#45;&gt;state1 -->
<g id="edge4" class="edge">
<title>state0&#45;&gt;state1</title>
<path fill="none" stroke="black" d="M190.02,-180.16C349.46,-201.82 655.39,-243.93 678.37,-251.3 695.57,-256.82 713.19,-264.21 729.98,-272.23"/>
<polygon fill="black" stroke="black" points="728.43,-275.37 738.95,-276.63 731.51,-269.09 728.43,-275.37"/>
<text xml:space="preserve" text-anchor="middle" x="465.99" y="-223.41" font-family="Helvetica,sans-Serif" font-size="14.00" fill="#474747">&#39;*&#39;</text>
</g>
<!-- state2 -->
<g id="node3" class="node">
<title>state2</title>
<path fill="white" stroke="black" d="M996.73,-195.5C996.73,-195.5 1149.55,-195.5 1149.55,-195.5 1155.55,-195.5 1161.55,-201.5 1161.55,-207.5 1161.55,-207.5 1161.55,-243.1 1161.55,-243.1 1161.55,-249.1 1155.55,-255.1 1149.55,-255.1 1149.55,-255.1 996.73,-255.1 996.73,-255.1 990.73,-255.1 984.73,-249.1 984.73,-243.1 984.73,-243.1 984.73,-207.5 984.73,-207.5 984.73,-201.5 990.73,-195.5 996.73,-195.5"/>
<polygon fill="white" stroke="none" points="992.73,-199.5 992.73,-251.1 1153.55,-251.1 1153.55,-199.5 992.73,-199.5"/>
<polygon fill="black" stroke="none" points="994.73,-226.3 994.73,-249.1 1151.55,-249.1 1151.55,-226.3 994.73,-226.3"/>
<text xml:space="preserve" text-anchor="start" x="1039.53" y="-233.5" font-family="Courier New" font-size="14.00" fill="white">State #2</text>
<text xml:space="preserve" text-anchor="start" x="997.73" y="-208.7" font-family="Courier New" font-size="14.00">(4) l &#45;&gt; &#39;n&#39; *;</text>
<polygon fill="grey" stroke="none" points="1128.75,-201.5 1128.75,-224.3 1151.55,-224.3 1151.55,-201.5 1128.75,-201.5"/>
<text xml:space="preserve" text-anchor="start" x="1131.75" y="-208.7" font-family="Courier New" font-size="14.00">=$</text>
</g>
<!-- state0&#45;&gt;state2 -->
<g id="edge5" class="edge">
<title>state0&#45;&gt;state2</title>
<path fill="none" stroke="black" d="M189.99,-167.3C235.2,-167.3 289.99,-167.3 339.21,-167.3 339.21,-167.3 339.21,-167.3 827.18,-167.3 877.35,-167.3 931.77,-178.96 976.55,-191.83"/>
<polygon fill="black" stroke="black" points="975.39,-195.13 985.97,-194.6 977.37,-188.42 975.39,-195.13"/>
<text xml:space="preserve" text-anchor="middle" x="584.56" y="-171.5" font-family="Helvetica,sans-Serif" font-size="14.00" fill="#474747">&#39;n&#39;</text>
</g>
<!-- state5 -->
<g id="node6" class="node">
<title>state5</title>
<path fill="black" stroke="black" d="M275.2,-79.5C275.2,-79.5 405.22,-79.5 405.22,-79.5 411.22,-79.5 417.22,-85.5 417.22,-91.5 417.22,-91.5 417.22,-127.1 417.22,-127.1 417.22,-133.1 411.22,-139.1 405.22,-139.1 405.22,-139.1 275.2,-139.1 275.2,-139.1 269.2,-139.1 263.2,-133.1 263.2,-127.1 263.2,-127.1 263.2,-91.5 263.2,-91.5 263.2,-85.5 269.2,-79.5 275.2,-79.5"/>
<polygon fill="black" stroke="none" points="271.2,-83.5 271.2,-135.1 409.22,-135.1 409.22,-83.5 271.2,-83.5"/>
<polygon fill="black" stroke="none" points="273.2,-110.3 273.2,-133.1 407.22,-133.1 407.22,-110.3 273.2,-110.3"/>
<text xml:space="preserve" text-anchor="start" x="306.61" y="-117.5" font-family="Courier New" font-size="14.00" fill="white">State #5</text>
<text xml:space="preserve" text-anchor="start" x="276.2" y="-92.7" font-family="Courier New" font-size="14.00" fill="white">(0) s &#45;&gt; e *;$ </text>
</g>
<!-- state0&#45;&gt;state5 -->
<g id="edge1" class="edge">
<title>state0&#45;&gt;state5</title>
<path fill="none" stroke="black" stroke-width="5" d="M189.94,-124.13C195.19,-122.47 200.44,-120.98 205.63,-119.7 218.92,-116.42 233.16,-114.1 247.21,-112.47"/>
<polygon fill="black" stroke="black" stroke-width="5" points="247.21,-116.87 256.72,-111.53 246.34,-108.16 247.21,-116.87"/>
<text xml:space="preserve" text-anchor="middle" x="213.41" y="-128.1" font-family="Helvetica,sans-Serif" font-size="28.00">e</text>
</g>
<!-- state6 -->
<g id="node7" class="node">
<title>state6</title>
<path fill="white" stroke="black" d="M251.2,-257.1C251.2,-257.1 429.23,-257.1 429.23,-257.1 435.23,-257.1 441.23,-263.1 441.23,-269.1 441.23,-269.1 441.23,-329.5 441.23,-329.5 441.23,-335.5 435.23,-341.5 429.23,-341.5 429.23,-341.5 251.2,-341.5 251.2,-341.5 245.2,-341.5 239.2,-335.5 239.2,-329.5 239.2,-329.5 239.2,-269.1 239.2,-269.1 239.2,-263.1 245.2,-257.1 251.2,-257.1"/>
<polygon fill="white" stroke="none" points="247.2,-261.1 247.2,-337.5 433.23,-337.5 433.23,-261.1 247.2,-261.1"/>
<polygon fill="black" stroke="none" points="249.2,-312.7 249.2,-335.5 431.23,-335.5 431.23,-312.7 249.2,-312.7"/>
<text xml:space="preserve" text-anchor="start" x="306.61" y="-319.9" font-family="Courier New" font-size="14.00" fill="white">State #6</text>
<text xml:space="preserve" text-anchor="start" x="252.2" y="-295.1" font-family="Courier New" font-size="14.00">(1) e &#45;&gt; l *;&#39;=&#39; r </text>
<text xml:space="preserve" text-anchor="start" x="252.2" y="-270.3" font-family="Courier New" font-size="14.00">(5) r &#45;&gt; l *;</text>
<polygon fill="grey" stroke="none" points="416.82,-263.1 416.82,-285.9 431.23,-285.9 431.23,-263.1 416.82,-263.1"/>
<text xml:space="preserve" text-anchor="start" x="419.82" y="-270.3" font-family="Courier New" font-size="14.00">$</text>
</g>
<!-- state0&#45;&gt;state6 -->
<g id="edge2" class="edge">
<title>state0&#45;&gt;state6</title>
<path fill="none" stroke="black" stroke-width="5" d="M190,-218.71C208.5,-228.7 227.86,-239.16 246.28,-249.11"/>
<polygon fill="black" stroke="black" stroke-width="5" points="244.11,-252.91 254.99,-253.81 248.27,-245.21 244.11,-252.91"/>
<text xml:space="preserve" text-anchor="middle" x="213.41" y="-241.7" font-family="Helvetica,sans-Serif" font-size="28.00">l</text>
</g>
<!-- state9 -->
<g id="node10" class="node">
<title>state9</title>
<path fill="white" stroke="black" d="M276.4,-0.5C276.4,-0.5 404.02,-0.5 404.02,-0.5 410.02,-0.5 416.02,-6.5 416.02,-12.5 416.02,-12.5 416.02,-48.1 416.02,-48.1 416.02,-54.1 410.02,-60.1 404.02,-60.1 404.02,-60.1 276.4,-60.1 276.4,-60.1 270.4,-60.1 264.4,-54.1 264.4,-48.1 264.4,-48.1 264.4,-12.5 264.4,-12.5 264.4,-6.5 270.4,-0.5 276.4,-0.5"/>
<polygon fill="white" stroke="none" points="272.4,-4.5 272.4,-56.1 408.02,-56.1 408.02,-4.5 272.4,-4.5"/>
<polygon fill="black" stroke="none" points="274.4,-31.3 274.4,-54.1 406.02,-54.1 406.02,-31.3 274.4,-31.3"/>
<text xml:space="preserve" text-anchor="start" x="306.61" y="-38.5" font-family="Courier New" font-size="14.00" fill="white">State #9</text>
<text xml:space="preserve" text-anchor="start" x="277.4" y="-13.7" font-family="Courier New" font-size="14.00">(2) e &#45;&gt; r *;</text>
<polygon fill="grey" stroke="none" points="391.62,-6.5 391.62,-29.3 406.02,-29.3 406.02,-6.5 391.62,-6.5"/>
<text xml:space="preserve" text-anchor="start" x="394.62" y="-13.7" font-family="Courier New" font-size="14.00">$</text>
</g>
<!-- state0&#45;&gt;state9 -->
<g id="edge3" class="edge">
<title>state0&#45;&gt;state9</title>
<path fill="none" stroke="black" stroke-width="5" d="M189.86,-88.22C195.09,-84.85 200.36,-81.65 205.63,-78.7 219.26,-71.05 234.33,-64.23 249.29,-58.28"/>
<polygon fill="black" stroke="black" stroke-width="5" points="250.53,-62.49 258.33,-54.85 247.43,-54.31 250.53,-62.49"/>
<text xml:space="preserve" text-anchor="middle" x="213.41" y="-87.1" font-family="Helvetica,sans-Serif" font-size="28.00">r</text>
</g>
<!-- state1&#45;&gt;state1 -->
<g id="edge6" class="edge">
<title>state1&#45;&gt;state1</title>
<path fill="none" stroke="black" d="M804.7,-394.68C807.84,-405.44 815,-412.8 826.18,-412.8 833.34,-412.8 838.85,-409.78 842.72,-404.78"/>
<polygon fill="black" stroke="black" points="845.74,-406.56 847,-396.04 839.45,-403.48 845.74,-406.56"/>
<text xml:space="preserve" text-anchor="middle" x="826.18" y="-417" font-family="Helvetica,sans-Serif" font-size="14.00" fill="#474747">&#39;*&#39;</text>
</g>
<!-- state1&#45;&gt;state2 -->
<g id="edge8" class="edge">
<title>state1&#45;&gt;state2</title>
<path fill="none" stroke="black" d="M911.82,-292.05C936.87,-281.62 964.26,-270.22 989.2,-259.84"/>
<polygon fill="black" stroke="black" points="990.44,-263.11 998.33,-256.04 987.75,-256.65 990.44,-263.11"/>
<text xml:space="preserve" text-anchor="middle" x="951.76" y="-280.5" font-family="Helvetica,sans-Serif" font-size="14.00" fill="#474747">&#39;n&#39;</text>
</g>
<!-- state3 -->
<g id="node4" class="node">
<title>state3</title>
<path fill="white" stroke="black" d="M1005.13,-386.5C1005.13,-386.5 1141.15,-386.5 1141.15,-386.5 1147.15,-386.5 1153.15,-392.5 1153.15,-398.5 1153.15,-398.5 1153.15,-434.1 1153.15,-434.1 1153.15,-440.1 1147.15,-446.1 1141.15,-446.1 1141.15,-446.1 1005.13,-446.1 1005.13,-446.1 999.13,-446.1 993.13,-440.1 993.13,-434.1 993.13,-434.1 993.13,-398.5 993.13,-398.5 993.13,-392.5 999.13,-386.5 1005.13,-386.5"/>
<polygon fill="white" stroke="none" points="1001.13,-390.5 1001.13,-442.1 1145.15,-442.1 1145.15,-390.5 1001.13,-390.5"/>
<polygon fill="black" stroke="none" points="1003.13,-417.3 1003.13,-440.1 1143.15,-440.1 1143.15,-417.3 1003.13,-417.3"/>
<text xml:space="preserve" text-anchor="start" x="1039.53" y="-424.5" font-family="Courier New" font-size="14.00" fill="white">State #3</text>
<text xml:space="preserve" text-anchor="start" x="1006.13" y="-399.7" font-family="Courier New" font-size="14.00">(5) r &#45;&gt; l *;</text>
<polygon fill="grey" stroke="none" points="1120.35,-392.5 1120.35,-415.3 1143.15,-415.3 1143.15,-392.5 1120.35,-392.5"/>
<text xml:space="preserve" text-anchor="start" x="1123.35" y="-399.7" font-family="Courier New" font-size="14.00">=$</text>
</g>
<!-- state1&#45;&gt;state3 -->
<g id="edge9" class="edge">
<title>state1&#45;&gt;state3</title>
<path fill="none" stroke="black" stroke-width="5" d="M911.82,-358.05C933.07,-365.77 956,-374.1 977.69,-381.98"/>
<polygon fill="black" stroke="black" stroke-width="5" points="976.09,-386.06 986.99,-385.36 979.08,-377.83 976.09,-386.06"/>
<text xml:space="preserve" text-anchor="middle" x="951.76" y="-382.87" font-family="Helvetica,sans-Serif" font-size="28.00">l</text>
</g>
<!-- state4 -->
<g id="node5" class="node">
<title>state4</title>
<path fill="white" stroke="black" d="M988.33,-297.5C988.33,-297.5 1157.95,-297.5 1157.95,-297.5 1163.95,-297.5 1169.95,-303.5 1169.95,-309.5 1169.95,-309.5 1169.95,-345.1 1169.95,-345.1 1169.95,-351.1 1163.95,-357.1 1157.95,-357.1 1157.95,-357.1 988.33,-357.1 988.33,-357.1 982.33,-357.1 976.33,-351.1 976.33,-345.1 976.33,-345.1 976.33,-309.5 976.33,-309.5 976.33,-303.5 982.33,-297.5 988.33,-297.5"/>
<polygon fill="white" stroke="none" points="984.33,-301.5 984.33,-353.1 1161.95,-353.1 1161.95,-301.5 984.33,-301.5"/>
<polygon fill="black" stroke="none" points="986.33,-328.3 986.33,-351.1 1159.95,-351.1 1159.95,-328.3 986.33,-328.3"/>
<text xml:space="preserve" text-anchor="start" x="1039.53" y="-335.5" font-family="Courier New" font-size="14.00" fill="white">State #4</text>
<text xml:space="preserve" text-anchor="start" x="989.33" y="-310.7" font-family="Courier New" font-size="14.00">(3) l &#45;&gt; &#39;*&#39; r *;</text>
<polygon fill="grey" stroke="none" points="1137.15,-303.5 1137.15,-326.3 1159.95,-326.3 1159.95,-303.5 1137.15,-303.5"/>
<text xml:space="preserve" text-anchor="start" x="1140.15" y="-310.7" font-family="Courier New" font-size="14.00">=$</text>
</g>
<!-- state1&#45;&gt;state4 -->
<g id="edge7" class="edge">
<title>state1&#45;&gt;state4</title>
<path fill="none" stroke="black" stroke-width="5" d="M911.82,-327.3C927.38,-327.3 943.84,-327.3 960.06,-327.3"/>
<polygon fill="black" stroke="black" stroke-width="5" points="959.91,-331.68 969.91,-327.3 959.91,-322.93 959.91,-331.68"/>
<text xml:space="preserve" text-anchor="middle" x="951.76" y="-335.7" font-family="Helvetica,sans-Serif" font-size="28.00">r</text>
</g>
<!-- state7 -->
<g id="node8" class="node">
<title>state7</title>
<path fill="white" stroke="black" d="M502.75,-260.3C502.75,-260.3 666.37,-260.3 666.37,-260.3 672.37,-260.3 678.37,-266.3 678.37,-272.3 678.37,-272.3 678.37,-382.3 678.37,-382.3 678.37,-388.3 672.37,-394.3 666.37,-394.3 666.37,-394.3 502.75,-394.3 502.75,-394.3 496.75,-394.3 490.75,-388.3 490.75,-382.3 490.75,-382.3 490.75,-272.3 490.75,-272.3 490.75,-266.3 496.75,-260.3 502.75,-260.3"/>
<polygon fill="white" stroke="none" points="498.75,-264.3 498.75,-390.3 670.37,-390.3 670.37,-264.3 498.75,-264.3"/>
<polygon fill="black" stroke="none" points="500.75,-365.5 500.75,-388.3 668.37,-388.3 668.37,-365.5 500.75,-365.5"/>
<text xml:space="preserve" text-anchor="start" x="550.95" y="-372.7" font-family="Courier New" font-size="14.00" fill="white">State #7</text>
<text xml:space="preserve" text-anchor="start" x="503.75" y="-347.9" font-family="Courier New" font-size="14.00">(1) e &#45;&gt; l &#39;=&#39; *;r </text>
<text xml:space="preserve" text-anchor="start" x="503.75" y="-323.1" font-family="Courier New" font-size="14.00">(3) l &#45;&gt; *;&#39;*&#39; r </text>
<text xml:space="preserve" text-anchor="start" x="503.75" y="-298.3" font-family="Courier New" font-size="14.00">(4) l &#45;&gt; *;&#39;n&#39; </text>
<text xml:space="preserve" text-anchor="start" x="503.75" y="-273.5" font-family="Courier New" font-size="14.00">(5) r &#45;&gt; *;l </text>
</g>
<!-- state6&#45;&gt;state7 -->
<g id="edge10" class="edge">
<title>state6&#45;&gt;state7</title>
<path fill="none" stroke="black" d="M441.53,-310.89C453.9,-312.32 466.56,-313.78 478.98,-315.22"/>
<polygon fill="black" stroke="black" points="478.47,-318.68 488.81,-316.35 479.27,-311.73 478.47,-318.68"/>
<text xml:space="preserve" text-anchor="middle" x="465.99" y="-318.34" font-family="Helvetica,sans-Serif" font-size="14.00" fill="#474747">&#39;=&#39;</text>
</g>
<!-- state7&#45;&gt;state1 -->
<g id="edge12" class="edge">
<title>state7&#45;&gt;state1</title>
<path fill="none" stroke="black" d="M678.55,-327.3C695.11,-327.3 712.4,-327.3 729.06,-327.3"/>
<polygon fill="black" stroke="black" points="728.95,-330.8 738.95,-327.3 728.95,-323.8 728.95,-330.8"/>
<text xml:space="preserve" text-anchor="middle" x="701.77" y="-331.5" font-family="Helvetica,sans-Serif" font-size="14.00" fill="#474747">&#39;*&#39;</text>
</g>
<!-- state7&#45;&gt;state2 -->
<g id="edge13" class="edge">
<title>state7&#45;&gt;state2</title>
<path fill="none" stroke="black" d="M671.09,-259.87C688.15,-249.55 706.58,-240.38 725.17,-234.5 805.87,-208.95 902.49,-208.67 973.25,-213.62"/>
<polygon fill="black" stroke="black" points="972.64,-217.09 982.87,-214.35 973.16,-210.11 972.64,-217.09"/>
<text xml:space="preserve" text-anchor="middle" x="826.18" y="-238.7" font-family="Helvetica,sans-Serif" font-size="14.00" fill="#474747">&#39;n&#39;</text>
</g>
<!-- state7&#45;&gt;state3 -->
<g id="edge14" class="edge">
<title>state7&#45;&gt;state3</title>
<path fill="none" stroke="black" stroke-width="5" d="M651.63,-394.62C673.23,-412.3 698.56,-429.01 725.17,-438.3 806.89,-466.83 905.93,-456.49 977.25,-441.88"/>
<polygon fill="black" stroke="black" stroke-width="5" points="977.98,-446.2 986.83,-439.82 976.14,-437.64 977.98,-446.2"/>
<text xml:space="preserve" text-anchor="middle" x="826.18" y="-464.76" font-family="Helvetica,sans-Serif" font-size="28.00">l</text>
</g>
<!-- state8 -->
<g id="node9" class="node">
<title>state8</title>
<path fill="white" stroke="black" d="M737.17,-517.5C737.17,-517.5 915.19,-517.5 915.19,-517.5 921.19,-517.5 927.19,-523.5 927.19,-529.5 927.19,-529.5 927.19,-565.1 927.19,-565.1 927.19,-571.1 921.19,-577.1 915.19,-577.1 915.19,-577.1 737.17,-577.1 737.17,-577.1 731.17,-577.1 725.17,-571.1 725.17,-565.1 725.17,-565.1 725.17,-529.5 725.17,-529.5 725.17,-523.5 731.17,-517.5 737.17,-517.5"/>
<polygon fill="white" stroke="none" points="733.17,-521.5 733.17,-573.1 919.19,-573.1 919.19,-521.5 733.17,-521.5"/>
<polygon fill="black" stroke="none" points="735.17,-548.3 735.17,-571.1 917.19,-571.1 917.19,-548.3 735.17,-548.3"/>
<text xml:space="preserve" text-anchor="start" x="792.58" y="-555.5" font-family="Courier New" font-size="14.00" fill="white">State #8</text>
<text xml:space="preserve" text-anchor="start" x="738.17" y="-530.7" font-family="Courier New" font-size="14.00">(1) e &#45;&gt; l &#39;=&#39; r *;</text>
<polygon fill="grey" stroke="none" points="902.79,-523.5 902.79,-546.3 917.19,-546.3 917.19,-523.5 902.79,-523.5"/>
<text xml:space="preserve" text-anchor="start" x="905.79" y="-530.7" font-family="Courier New" font-size="14.00">$</text>
</g>
<!-- state7&#45;&gt;state8 -->
<g id="edge11" class="edge">
<title>state7&#45;&gt;state8</title>
<path fill="none" stroke="black" stroke-width="5" d="M622.97,-394.71C647.28,-432.32 682.4,-476.8 725.17,-503.3 728.75,-505.52 732.46,-507.68 736.25,-509.79"/>
<polygon fill="black" stroke="black" stroke-width="5" points="733.84,-513.46 744.73,-514.23 737.9,-505.71 733.84,-513.46"/>
<text xml:space="preserve" text-anchor="middle" x="701.77" y="-497.82" font-family="Helvetica,sans-Serif" font-size="28.00">r</text>
</g>
</g>
</svg>
