<?xml version="1.0" encoding="UTF-8" standalone="no"?>
<!DOCTYPE svg PUBLIC "-//W3C//DTD SVG 1.1//EN"
 "http://www.w3.org/Graphics/SVG/1.1/DTD/svg11.dtd">
<!-- Generated by graphviz version a (a)
 -->
<!-- Title: UML_Class_diagram Pages: 1 -->
<svg width="372pt" height="956pt"
 viewBox="0.00 0.00 372.00 956.00" xmlns="http://www.w3.org/2000/svg" xmlns:xlink="http://www.w3.org/1999/xlink">
<g id="graph0" class="graph" transform="scale(1 1) rotate(0) translate(4 952.4)">
<title>UML_Class_diagram</title>
<polygon fill="white" stroke="none" points="-4,4 -4,-952.4 367.63,-952.4 367.63,4 -4,4"/>
<text xml:space="preserve" text-anchor="middle" x="181.81" y="-931.8" font-family="Helvetica,sans-Serif" font-size="14.00">UML Class diagram demo</text>
<!-- Client -->
<g id="node1" class="node">
<title>Client</title>
<polygon fill="#f2f2f2" stroke="black" points="162.55,-887.1 162.55,-923.1 216.55,-923.1 216.55,-887.1 162.55,-887.1"/>
<text xml:space="preserve" text-anchor="middle" x="189.45" y="-900.9" font-family="Helvetica,sans-Serif" font-size="14.00">Client</text>
</g>
<!-- Interface1 -->
<g id="node2" class="node">
<title>Interface1</title>
<polygon fill="#f2f2f2" stroke="black" points="89.46,-725.3 89.46,-833.3 199.65,-833.3 199.65,-725.3 89.46,-725.3"/>
<text xml:space="preserve" text-anchor="start" x="97.46" y="-817.7" font-family="Helvetica,sans-Serif" font-weight="bold" font-size="14.00">&quot;interface&quot; I/O</text>
<polyline fill="none" stroke="black" points="89.46,-808.5 199.65,-808.5"/>
<text xml:space="preserve" text-anchor="start" x="112.84" y="-791.9" font-family="Helvetica,sans-Serif" font-size="14.00">+ property</text>
<text xml:space="preserve" text-anchor="start" x="112.84" y="-775.1" font-family="Helvetica,sans-Serif" font-size="14.00">...</text>
<polyline fill="none" stroke="black" points="89.46,-766.9 199.65,-766.9"/>
<text xml:space="preserve" text-anchor="start" x="115.17" y="-750.3" font-family="Helvetica,sans-Serif" font-size="14.00">+ method</text>
<text xml:space="preserve" text-anchor="start" x="115.17" y="-733.5" font-family="Helvetica,sans-Serif" font-size="14.00">...</text>
</g>
<!-- Client&#45;&gt;Interface1 -->
<g id="edge1" class="edge">
<title>Client&#45;&gt;Interface1</title>
<path fill="none" stroke="black" stroke-dasharray="5,2" d="M162.26,-888.38C155.46,-883.04 149.05,-876.4 145.26,-868.6 141.64,-861.12 139.51,-852.84 138.42,-844.45"/>
<polygon fill="black" stroke="black" points="137.63,-834.61 142.92,-844.22 137.94,-838.38 138.43,-844.58 138.43,-844.58 138.43,-844.58 137.94,-838.38 133.95,-844.94 137.63,-834.61"/>
<text xml:space="preserve" text-anchor="middle" x="183.41" y="-856" font-family="Helvetica,sans-Serif" font-size="14.00">dependency</text>
</g>
<!-- Interface2 -->
<g id="node3" class="node">
<title>Interface2</title>
<ellipse fill="#f2f2f2" stroke="black" cx="235.55" cy="-779.3" rx="18" ry="18"/>
<text xml:space="preserve" text-anchor="middle" x="244.4" y="-818.3" font-family="Helvetica,sans-Serif" font-size="14.00">Simple</text>
<text xml:space="preserve" text-anchor="middle" x="244.4" y="-801.5" font-family="Helvetica,sans-Serif" font-size="14.00">interface</text>
</g>
<!-- Client&#45;&gt;Interface2 -->
<g id="edge2" class="edge">
<title>Client&#45;&gt;Interface2</title>
<path fill="none" stroke="black" stroke-dasharray="5,2" d="M208.74,-886.81C213.64,-881.44 218.41,-875.19 221.55,-868.6 230.45,-849.96 233.88,-826.84 235.12,-808.93"/>
<polygon fill="black" stroke="black" points="235.61,-798.97 239.62,-809.18 235.43,-802.75 235.12,-808.96 235.12,-808.96 235.12,-808.96 235.43,-802.75 230.63,-808.74 235.61,-798.97"/>
</g>
<!-- Class1 -->
<g id="node4" class="node">
<title>Class1</title>
<polygon fill="#f2f2f2" stroke="black" points="149.84,-579.3 149.84,-687.3 229.26,-687.3 229.26,-579.3 149.84,-579.3"/>
<text xml:space="preserve" text-anchor="start" x="160.76" y="-671.7" font-family="Helvetica,sans-Serif" font-weight="bold" font-size="14.00">I/O class</text>
<polyline fill="none" stroke="black" points="149.84,-662.5 229.26,-662.5"/>
<text xml:space="preserve" text-anchor="start" x="157.84" y="-645.9" font-family="Helvetica,sans-Serif" font-size="14.00">+ property</text>
<text xml:space="preserve" text-anchor="start" x="157.84" y="-629.1" font-family="Helvetica,sans-Serif" font-size="14.00">...</text>
<polyline fill="none" stroke="black" points="149.84,-620.9 229.26,-620.9"/>
<text xml:space="preserve" text-anchor="start" x="160.17" y="-604.3" font-family="Helvetica,sans-Serif" font-size="14.00">+ method</text>
<text xml:space="preserve" text-anchor="start" x="160.17" y="-587.5" font-family="Helvetica,sans-Serif" font-size="14.00">...</text>
</g>
<!-- Interface1&#45;&gt;Class1 -->
<g id="edge3" class="edge">
<title>Interface1&#45;&gt;Class1</title>
<path fill="none" stroke="black" d="M164.53,-714.37C167.31,-705.49 170.13,-696.44 172.84,-687.77"/>
<polygon fill="none" stroke="black" points="161.27,-713.06 161.63,-723.64 167.96,-715.14 161.27,-713.06"/>
<text xml:space="preserve" text-anchor="middle" x="132.77" y="-710.63" font-family="Helvetica,sans-Serif" font-size="14.00">inheritance</text>
</g>
<!-- Interface2&#45;&gt;Class1 -->
<g id="edge4" class="edge">
<title>Interface2&#45;&gt;Class1</title>
<path fill="none" stroke="black" d="M230.28,-761.78C224.52,-743.76 215,-713.96 206.61,-687.7"/>
</g>
<!-- System_1 -->
<g id="node5" class="node">
<title>System_1</title>
<polygon fill="#f2f2f2" stroke="none" points="241.29,-526 137.82,-526 137.82,-341.6 241.29,-341.6 241.29,-526"/>
<polygon fill="none" stroke="black" points="137.82,-499.2 137.82,-526 241.29,-526 241.29,-499.2 137.82,-499.2"/>
<text xml:space="preserve" text-anchor="start" x="160.76" y="-509.4" font-family="Helvetica,sans-Serif" font-size="14.00"> </text>
<text xml:space="preserve" text-anchor="start" x="164.65" y="-509.4" font-family="Helvetica,sans-Serif" font-weight="bold" font-size="14.00">System</text>
<text xml:space="preserve" text-anchor="start" x="214.46" y="-509.4" font-family="Helvetica,sans-Serif" font-size="14.00"> </text>
<polygon fill="none" stroke="black" points="137.82,-385.2 137.82,-499.2 241.29,-499.2 241.29,-385.2 137.82,-385.2"/>
<text xml:space="preserve" text-anchor="start" x="144.82" y="-479.6" font-family="Helvetica,sans-Serif" font-size="14.00">+ property</text>
<text xml:space="preserve" text-anchor="start" x="144.82" y="-458.8" font-family="Helvetica,sans-Serif" font-size="14.00">&#45; Subsystem 1</text>
<text xml:space="preserve" text-anchor="start" x="144.82" y="-438" font-family="Helvetica,sans-Serif" font-size="14.00">&#45; Subsystem 2</text>
<text xml:space="preserve" text-anchor="start" x="144.82" y="-417.2" font-family="Helvetica,sans-Serif" font-size="14.00">&#45; Subsystem 3</text>
<text xml:space="preserve" text-anchor="start" x="144.82" y="-396.4" font-family="Helvetica,sans-Serif" font-size="14.00">...</text>
<polygon fill="none" stroke="black" points="137.82,-341.6 137.82,-385.2 241.29,-385.2 241.29,-341.6 137.82,-341.6"/>
<text xml:space="preserve" text-anchor="start" x="142.82" y="-367.6" font-family="Helvetica,sans-Serif" font-size="14.00">+ method</text>
<text xml:space="preserve" text-anchor="start" x="142.82" y="-350.8" font-family="Helvetica,sans-Serif" font-size="14.00">...</text>
</g>
<!-- Class1&#45;&gt;System_1 -->
<g id="edge5" class="edge">
<title>Class1&#45;&gt;System_1</title>
<path fill="none" stroke="black" stroke-dasharray="5,2" d="M189.55,-567.45C189.55,-554.18 189.55,-539.97 189.55,-525.96"/>
<polygon fill="none" stroke="black" points="186.05,-567.34 189.55,-577.34 193.05,-567.34 186.05,-567.34"/>
<text xml:space="preserve" text-anchor="middle" x="237.02" y="-548.2" font-family="Helvetica,sans-Serif" font-size="14.00">implementation</text>
</g>
<!-- Subsystem_1 -->
<g id="node6" class="node">
<title>Subsystem_1</title>
<polygon fill="#f2f2f2" stroke="none" points="119.63,-304.6 15.48,-304.6 15.48,-161.8 119.63,-161.8 119.63,-304.6"/>
<polygon fill="none" stroke="black" points="15.48,-277.8 15.48,-304.6 119.63,-304.6 119.63,-277.8 15.48,-277.8"/>
<text xml:space="preserve" text-anchor="start" x="20.48" y="-288" font-family="Helvetica,sans-Serif" font-size="14.00"> </text>
<text xml:space="preserve" text-anchor="start" x="24.37" y="-288" font-family="Helvetica,sans-Serif" font-weight="bold" font-size="14.00">Subsystem 1</text>
<text xml:space="preserve" text-anchor="start" x="110.74" y="-288" font-family="Helvetica,sans-Serif" font-size="14.00"> </text>
<polygon fill="none" stroke="black" points="15.48,-205.4 15.48,-277.8 119.63,-277.8 119.63,-205.4 15.48,-205.4"/>
<text xml:space="preserve" text-anchor="start" x="22.48" y="-258.2" font-family="Helvetica,sans-Serif" font-size="14.00">+ property</text>
<text xml:space="preserve" text-anchor="start" x="22.48" y="-237.4" font-family="Helvetica,sans-Serif" font-size="14.00">&#45; resource</text>
<text xml:space="preserve" text-anchor="start" x="22.48" y="-216.6" font-family="Helvetica,sans-Serif" font-size="14.00">...</text>
<polygon fill="none" stroke="black" points="15.48,-161.8 15.48,-205.4 119.63,-205.4 119.63,-161.8 15.48,-161.8"/>
<text xml:space="preserve" text-anchor="start" x="20.48" y="-187.8" font-family="Helvetica,sans-Serif" font-size="14.00">+ method</text>
<text xml:space="preserve" text-anchor="start" x="20.48" y="-171" font-family="Helvetica,sans-Serif" font-size="14.00">...</text>
</g>
<!-- System_1&#45;&gt;Subsystem_1 -->
<g id="edge6" class="edge">
<title>System_1:ss1&#45;&gt;Subsystem_1</title>
<path fill="none" stroke="black" stroke-dasharray="5,2" d="M129.08,-461.83C72.75,-450.98 62.46,-367.19 62.87,-304.4"/>
<polygon fill="black" stroke="black" points="128.97,-461.81 135.31,-458.38 140.92,-462.92 134.58,-466.35 128.97,-461.81"/>
<text xml:space="preserve" text-anchor="middle" x="37.35" y="-406.81" font-family="Helvetica,sans-Serif" font-size="14.00">composition</text>
</g>
<!-- Subsystem_2 -->
<g id="node7" class="node">
<title>Subsystem_2</title>
<polygon fill="#f2f2f2" stroke="none" points="241.63,-304.6 137.48,-304.6 137.48,-161.8 241.63,-161.8 241.63,-304.6"/>
<polygon fill="none" stroke="black" points="137.48,-277.8 137.48,-304.6 241.63,-304.6 241.63,-277.8 137.48,-277.8"/>
<text xml:space="preserve" text-anchor="start" x="142.48" y="-288" font-family="Helvetica,sans-Serif" font-size="14.00"> </text>
<text xml:space="preserve" text-anchor="start" x="146.37" y="-288" font-family="Helvetica,sans-Serif" font-weight="bold" font-size="14.00">Subsystem 2</text>
<text xml:space="preserve" text-anchor="start" x="232.74" y="-288" font-family="Helvetica,sans-Serif" font-size="14.00"> </text>
<polygon fill="none" stroke="black" points="137.48,-205.4 137.48,-277.8 241.63,-277.8 241.63,-205.4 137.48,-205.4"/>
<text xml:space="preserve" text-anchor="start" x="144.48" y="-258.2" font-family="Helvetica,sans-Serif" font-size="14.00">+ property</text>
<text xml:space="preserve" text-anchor="start" x="144.48" y="-237.4" font-family="Helvetica,sans-Serif" font-size="14.00">&#45; resource</text>
<text xml:space="preserve" text-anchor="start" x="144.48" y="-216.6" font-family="Helvetica,sans-Serif" font-size="14.00">...</text>
<polygon fill="none" stroke="black" points="137.48,-161.8 137.48,-205.4 241.63,-205.4 241.63,-161.8 137.48,-161.8"/>
<text xml:space="preserve" text-anchor="start" x="142.48" y="-187.8" font-family="Helvetica,sans-Serif" font-size="14.00">+ method</text>
<text xml:space="preserve" text-anchor="start" x="142.48" y="-171" font-family="Helvetica,sans-Serif" font-size="14.00">...</text>
</g>
<!-- System_1&#45;&gt;Subsystem_2 -->
<g id="edge7" class="edge">
<title>System_1:ss2&#45;&gt;Subsystem_2</title>
<path fill="none" stroke="black" stroke-dasharray="5,2" d="M250.06,-440.62C290.03,-429.31 261.88,-359.64 232.02,-304.33"/>
<polygon fill="black" stroke="black" points="250.09,-440.61 244.63,-445.32 238.19,-442.09 243.65,-437.38 250.09,-440.61"/>
</g>
<!-- Subsystem_3 -->
<g id="node8" class="node">
<title>Subsystem_3</title>
<polygon fill="#f2f2f2" stroke="none" points="363.63,-304.6 259.48,-304.6 259.48,-161.8 363.63,-161.8 363.63,-304.6"/>
<polygon fill="none" stroke="black" points="259.48,-277.8 259.48,-304.6 363.63,-304.6 363.63,-277.8 259.48,-277.8"/>
<text xml:space="preserve" text-anchor="start" x="264.48" y="-288" font-family="Helvetica,sans-Serif" font-size="14.00"> </text>
<text xml:space="preserve" text-anchor="start" x="268.37" y="-288" font-family="Helvetica,sans-Serif" font-weight="bold" font-size="14.00">Subsystem 3</text>
<text xml:space="preserve" text-anchor="start" x="354.74" y="-288" font-family="Helvetica,sans-Serif" font-size="14.00"> </text>
<polygon fill="none" stroke="black" points="259.48,-205.4 259.48,-277.8 363.63,-277.8 363.63,-205.4 259.48,-205.4"/>
<text xml:space="preserve" text-anchor="start" x="266.48" y="-258.2" font-family="Helvetica,sans-Serif" font-size="14.00">+ property</text>
<text xml:space="preserve" text-anchor="start" x="266.48" y="-237.4" font-family="Helvetica,sans-Serif" font-size="14.00">&#45; resource</text>
<text xml:space="preserve" text-anchor="start" x="266.48" y="-216.6" font-family="Helvetica,sans-Serif" font-size="14.00">...</text>
<polygon fill="none" stroke="black" points="259.48,-161.8 259.48,-205.4 363.63,-205.4 363.63,-161.8 259.48,-161.8"/>
<text xml:space="preserve" text-anchor="start" x="264.48" y="-187.8" font-family="Helvetica,sans-Serif" font-size="14.00">+ method</text>
<text xml:space="preserve" text-anchor="start" x="264.48" y="-171" font-family="Helvetica,sans-Serif" font-size="14.00">...</text>
</g>
<!-- System_1&#45;&gt;Subsystem_3 -->
<g id="edge8" class="edge">
<title>System_1:ss3&#45;&gt;Subsystem_3</title>
<path fill="none" stroke="black" stroke-dasharray="5,2" d="M250.26,-419.97C292.38,-410.26 306.52,-352.89 310.83,-304.44"/>
<polygon fill="black" stroke="black" points="250.11,-419.99 244.59,-424.62 238.19,-421.3 243.71,-416.67 250.11,-419.99"/>
</g>
<!-- Shared resource -->
<g id="node9" class="node">
<title>Shared resource</title>
<polygon fill="#f2f2f2" stroke="black" points="126.3,-0.5 126.3,-108.5 252.8,-108.5 252.8,-0.5 126.3,-0.5"/>
<text xml:space="preserve" text-anchor="start" x="134.3" y="-92.9" font-family="Helvetica,sans-Serif" font-weight="bold" font-size="14.00">Shared resource</text>
<polyline fill="none" stroke="black" points="126.3,-83.7 252.8,-83.7"/>
<text xml:space="preserve" text-anchor="start" x="157.84" y="-67.1" font-family="Helvetica,sans-Serif" font-size="14.00">+ property</text>
<text xml:space="preserve" text-anchor="start" x="157.84" y="-50.3" font-family="Helvetica,sans-Serif" font-size="14.00">...</text>
<polyline fill="none" stroke="black" points="126.3,-42.1 252.8,-42.1"/>
<text xml:space="preserve" text-anchor="start" x="160.17" y="-25.5" font-family="Helvetica,sans-Serif" font-size="14.00">+ method</text>
<text xml:space="preserve" text-anchor="start" x="160.17" y="-8.7" font-family="Helvetica,sans-Serif" font-size="14.00">...</text>
</g>
<!-- Subsystem_1&#45;&gt;Shared resource -->
<g id="edge9" class="edge">
<title>Subsystem_1:r1&#45;&gt;Shared resource</title>
<path fill="none" stroke="black" stroke-dasharray="5,2" d="M124.23,-232.08C129.24,-213.84 124,-174.63 128.55,-161.8 134.95,-143.75 144.39,-125.25 153.94,-108.86"/>
<polygon fill="none" stroke="black" points="124.28,-232.03 123.22,-239.16 116.23,-240.93 117.29,-233.8 124.28,-232.03"/>
<text xml:space="preserve" text-anchor="middle" x="180.4" y="-131.2" font-family="Helvetica,sans-Serif" font-size="14.00">aggregation</text>
</g>
<!-- Subsystem_2&#45;&gt;Shared resource -->
<g id="edge10" class="edge">
<title>Subsystem_2:r1&#45;&gt;Shared resource</title>
<path fill="none" stroke="black" stroke-dasharray="5,2" d="M245.53,-231.28C248.49,-212.79 239.45,-174.73 236.63,-161.8 232.74,-143.95 225.71,-125.44 218.26,-108.96"/>
<polygon fill="none" stroke="black" points="245.47,-231.36 245,-238.55 238.18,-240.88 238.65,-233.69 245.47,-231.36"/>
</g>
<!-- Subsystem_3&#45;&gt;Shared resource -->
<g id="edge11" class="edge">
<title>Subsystem_3:r1&#45;&gt;Shared resource</title>
<path fill="none" stroke="black" stroke-dasharray="5,2" d="M254.53,-232.18C248.92,-214.1 253.17,-175.16 250.55,-161.8 247.5,-146.23 249.2,-141.41 242.55,-127 239.71,-120.83 236.27,-114.66 232.54,-108.69"/>
<polygon fill="none" stroke="black" points="254.6,-232.24 261.63,-233.84 262.86,-240.95 255.83,-239.35 254.6,-232.24"/>
</g>
</g>
</svg>
