<?xml version="1.0" encoding="UTF-8" standalone="no"?>
<!DOCTYPE svg PUBLIC "-//W3C//DTD SVG 1.1//EN"
 "http://www.w3.org/Graphics/SVG/1.1/DTD/svg11.dtd">
<!-- Generated by graphviz version a (a)
 -->
<!-- Title: mygraph Pages: 1 -->
<svg width="696pt" height="404pt"
 viewBox="0.00 0.00 696.00 404.00" xmlns="http://www.w3.org/2000/svg" xmlns:xlink="http://www.w3.org/1999/xlink">
<g id="graph0" class="graph" transform="scale(1 1) rotate(0) translate(4 400)">
<title>mygraph</title>
<polygon fill="white" stroke="none" points="-4,4 -4,-400 692.31,-400 692.31,4 -4,4"/>
<!-- //absl/random:random -->
<g id="node1" class="node">
<title>//absl/random:random</title>
<polygon fill="none" stroke="black" points="314.8,-396 162.62,-396 162.62,-360 314.8,-360 314.8,-396"/>
<text xml:space="preserve" text-anchor="middle" x="238.71" y="-373.8" font-family="Helvetica,sans-Serif" font-size="14.00">//absl/random:random</text>
</g>
<!-- //absl/random:distributions -->
<g id="node2" class="node">
<title>//absl/random:distributions</title>
<polygon fill="none" stroke="black" points="179.41,-252 0,-252 0,-216 179.41,-216 179.41,-252"/>
<text xml:space="preserve" text-anchor="middle" x="89.71" y="-229.8" font-family="Helvetica,sans-Serif" font-size="14.00">//absl/random:distributions</text>
</g>
<!-- //absl/random:random&#45;&gt;//absl/random:distributions -->
<g id="edge1" class="edge">
<title>//absl/random:random&#45;&gt;//absl/random:distributions</title>
<path fill="none" stroke="black" d="M220.44,-359.59C194.27,-334.65 145.97,-288.62 115.97,-260.03"/>
<polygon fill="black" stroke="black" points="118.41,-257.52 108.76,-253.16 113.58,-262.59 118.41,-257.52"/>
</g>
<!-- //absl/random:seed_sequences -->
<g id="node3" class="node">
<title>//absl/random:seed_sequences</title>
<polygon fill="none" stroke="black" points="507.99,-324 297.42,-324 297.42,-288 507.99,-288 507.99,-324"/>
<text xml:space="preserve" text-anchor="middle" x="402.71" y="-301.8" font-family="Helvetica,sans-Serif" font-size="14.00">//absl/random:seed_sequences</text>
</g>
<!-- //absl/random:random&#45;&gt;//absl/random:seed_sequences -->
<g id="edge2" class="edge">
<title>//absl/random:random&#45;&gt;//absl/random:seed_sequences</title>
<path fill="none" stroke="black" d="M279.67,-359.52C301.47,-350.21 328.49,-338.68 351.65,-328.79"/>
<polygon fill="black" stroke="black" points="352.77,-332.12 360.59,-324.98 350.02,-325.68 352.77,-332.12"/>
</g>
<!-- //absl/random/internal:pool_urbg -->
<g id="node4" class="node">
<title>//absl/random/internal:pool_urbg</title>
<polygon fill="none" stroke="black" points="349.1,-180 132.31,-180 132.31,-144 349.1,-144 349.1,-180"/>
<text xml:space="preserve" text-anchor="middle" x="240.71" y="-157.8" font-family="Helvetica,sans-Serif" font-size="14.00">//absl/random/internal:pool_urbg</text>
</g>
<!-- //absl/random:random&#45;&gt;//absl/random/internal:pool_urbg -->
<g id="edge3" class="edge">
<title>//absl/random:random&#45;&gt;//absl/random/internal:pool_urbg</title>
<path fill="none" stroke="black" d="M238.87,-359.85C239.21,-323.14 240.02,-236.66 240.44,-191.53"/>
<polygon fill="black" stroke="black" points="243.94,-191.78 240.53,-181.75 236.94,-191.71 243.94,-191.78"/>
</g>
<!-- //absl/random/internal:nonsecure_base -->
<g id="node5" class="node">
<title>//absl/random/internal:nonsecure_base</title>
<polygon fill="none" stroke="black" points="531.73,-252 273.69,-252 273.69,-216 531.73,-216 531.73,-252"/>
<text xml:space="preserve" text-anchor="middle" x="402.71" y="-229.8" font-family="Helvetica,sans-Serif" font-size="14.00">//absl/random/internal:nonsecure_base</text>
</g>
<!-- //absl/random:random&#45;&gt;//absl/random/internal:nonsecure_base -->
<g id="edge4" class="edge">
<title>//absl/random:random&#45;&gt;//absl/random/internal:nonsecure_base</title>
<path fill="none" stroke="black" d="M244.76,-359.5C252.33,-339.86 266.99,-308.11 288.71,-288 302.7,-275.04 320.41,-264.76 337.68,-256.83"/>
<polygon fill="black" stroke="black" points="338.61,-260.24 346.38,-253.04 335.81,-253.83 338.61,-260.24"/>
</g>
<!-- //absl/strings:strings -->
<g id="node6" class="node">
<title>//absl/strings:strings</title>
<polygon fill="none" stroke="black" points="305.56,-36 165.85,-36 165.85,0 305.56,0 305.56,-36"/>
<text xml:space="preserve" text-anchor="middle" x="235.71" y="-13.8" font-family="Helvetica,sans-Serif" font-size="14.00">//absl/strings:strings</text>
</g>
<!-- //absl/random:distributions&#45;&gt;//absl/strings:strings -->
<g id="edge5" class="edge">
<title>//absl/random:distributions&#45;&gt;//absl/strings:strings</title>
<path fill="none" stroke="black" d="M94.25,-215.75C99.6,-197.17 109.58,-167.16 123.71,-144 147.19,-105.5 183.21,-67.87 208.03,-44.13"/>
<polygon fill="black" stroke="black" points="210.32,-46.77 215.2,-37.37 205.52,-41.68 210.32,-46.77"/>
</g>
<!-- //absl/random:seed_sequences&#45;&gt;//absl/random/internal:pool_urbg -->
<g id="edge8" class="edge">
<title>//absl/random:seed_sequences&#45;&gt;//absl/random/internal:pool_urbg</title>
<path fill="none" stroke="black" d="M320.52,-287.61C299.91,-279.75 279.49,-268.39 264.71,-252 249.87,-235.54 244.06,-210.85 241.85,-191.65"/>
<polygon fill="black" stroke="black" points="245.35,-191.42 241.01,-181.75 238.37,-192.01 245.35,-191.42"/>
</g>
<!-- //absl/random:seed_sequences&#45;&gt;//absl/random/internal:nonsecure_base -->
<g id="edge9" class="edge">
<title>//absl/random:seed_sequences&#45;&gt;//absl/random/internal:nonsecure_base</title>
<path fill="none" stroke="black" d="M402.71,-287.7C402.71,-280.41 402.71,-271.73 402.71,-263.54"/>
<polygon fill="black" stroke="black" points="406.21,-263.62 402.71,-253.62 399.21,-263.62 406.21,-263.62"/>
</g>
<!-- //absl/random/internal:seed_material -->
<g id="node7" class="node">
<title>//absl/random/internal:seed_material</title>
<polygon fill="none" stroke="black" points="497.93,-108 255.48,-108 255.48,-72 497.93,-72 497.93,-108"/>
<text xml:space="preserve" text-anchor="middle" x="376.71" y="-85.8" font-family="Helvetica,sans-Serif" font-size="14.00">//absl/random/internal:seed_material</text>
</g>
<!-- //absl/random:seed_sequences&#45;&gt;//absl/random/internal:seed_material -->
<g id="edge6" class="edge">
<title>//absl/random:seed_sequences&#45;&gt;//absl/random/internal:seed_material</title>
<path fill="none" stroke="black" d="M491.05,-287.58C591.45,-263.9 734.05,-216.06 673.71,-144 652.25,-118.37 578.35,-105.12 509.64,-98.28"/>
<polygon fill="black" stroke="black" points="510.02,-94.8 499.73,-97.34 509.36,-101.77 510.02,-94.8"/>
</g>
<!-- //absl/random/internal:salted_seed_seq -->
<g id="node8" class="node">
<title>//absl/random/internal:salted_seed_seq</title>
<polygon fill="none" stroke="black" points="664.9,-180 404.52,-180 404.52,-144 664.9,-144 664.9,-180"/>
<text xml:space="preserve" text-anchor="middle" x="534.71" y="-157.8" font-family="Helvetica,sans-Serif" font-size="14.00">//absl/random/internal:salted_seed_seq</text>
</g>
<!-- //absl/random:seed_sequences&#45;&gt;//absl/random/internal:salted_seed_seq -->
<g id="edge7" class="edge">
<title>//absl/random:seed_sequences&#45;&gt;//absl/random/internal:salted_seed_seq</title>
<path fill="none" stroke="black" d="M493.99,-287.54C512.35,-279.72 529.44,-268.39 540.71,-252 552.76,-234.45 550.14,-210.09 545.13,-191.29"/>
<polygon fill="black" stroke="black" points="548.52,-190.4 542.25,-181.86 541.82,-192.44 548.52,-190.4"/>
</g>
<!-- //absl/random/internal:pool_urbg&#45;&gt;//absl/random/internal:seed_material -->
<g id="edge13" class="edge">
<title>//absl/random/internal:pool_urbg&#45;&gt;//absl/random/internal:seed_material</title>
<path fill="none" stroke="black" d="M274.67,-143.52C292.33,-134.43 314.12,-123.22 333.01,-113.49"/>
<polygon fill="black" stroke="black" points="334.54,-116.64 341.83,-108.95 331.33,-110.42 334.54,-116.64"/>
</g>
<!-- //absl/random/internal:nonsecure_base&#45;&gt;//absl/random/internal:pool_urbg -->
<g id="edge10" class="edge">
<title>//absl/random/internal:nonsecure_base&#45;&gt;//absl/random/internal:pool_urbg</title>
<path fill="none" stroke="black" d="M362.24,-215.52C340.81,-206.25 314.26,-194.78 291.45,-184.93"/>
<polygon fill="black" stroke="black" points="292.89,-181.74 282.32,-180.98 290.11,-188.16 292.89,-181.74"/>
</g>
<!-- //absl/random/internal:nonsecure_base&#45;&gt;//absl/random/internal:seed_material -->
<g id="edge12" class="edge">
<title>//absl/random/internal:nonsecure_base&#45;&gt;//absl/random/internal:seed_material</title>
<path fill="none" stroke="black" d="M399.52,-215.59C395.13,-191.61 387.17,-148.14 381.91,-119.42"/>
<polygon fill="black" stroke="black" points="385.36,-118.81 380.11,-109.6 378.47,-120.07 385.36,-118.81"/>
</g>
<!-- //absl/random/internal:nonsecure_base&#45;&gt;//absl/random/internal:salted_seed_seq -->
<g id="edge11" class="edge">
<title>//absl/random/internal:nonsecure_base&#45;&gt;//absl/random/internal:salted_seed_seq</title>
<path fill="none" stroke="black" d="M435.68,-215.52C452.73,-206.47 473.76,-195.32 492.04,-185.62"/>
<polygon fill="black" stroke="black" points="493.63,-188.75 500.82,-180.97 490.35,-182.56 493.63,-188.75"/>
</g>
<!-- //absl/random/internal:seed_material&#45;&gt;//absl/strings:strings -->
<g id="edge15" class="edge">
<title>//absl/random/internal:seed_material&#45;&gt;//absl/strings:strings</title>
<path fill="none" stroke="black" d="M341.49,-71.52C323.1,-62.39 300.39,-51.11 280.73,-41.35"/>
<polygon fill="black" stroke="black" points="282.34,-38.25 271.83,-36.93 279.23,-44.52 282.34,-38.25"/>
</g>
<!-- //absl/random/internal:salted_seed_seq&#45;&gt;//absl/random/internal:seed_material -->
<g id="edge14" class="edge">
<title>//absl/random/internal:salted_seed_seq&#45;&gt;//absl/random/internal:seed_material</title>
<path fill="none" stroke="black" d="M495.24,-143.52C474.33,-134.25 448.44,-122.78 426.2,-112.93"/>
<polygon fill="black" stroke="black" points="427.88,-109.85 417.32,-108.99 425.05,-116.25 427.88,-109.85"/>
</g>
</g>
</svg>
