<?xml version="1.0" encoding="UTF-8" standalone="no"?>
<!DOCTYPE svg PUBLIC "-//W3C//DTD SVG 1.1//EN"
 "http://www.w3.org/Graphics/SVG/1.1/DTD/svg11.dtd">
<!-- Generated by graphviz version a (a)
 -->
<!-- Title: G Pages: 1 -->
<svg width="172pt" height="222pt"
 viewBox="0.00 0.00 172.00 222.00" xmlns="http://www.w3.org/2000/svg" xmlns:xlink="http://www.w3.org/1999/xlink">
<g id="graph0" class="graph" transform="scale(1 1) rotate(0) translate(4 218.4)">
<title>G</title>
<polygon fill="white" stroke="none" points="-4,4 -4,-218.4 168,-218.4 168,4 -4,4"/>
<text xml:space="preserve" text-anchor="middle" x="38.91" y="-8.2" font-family="Times,serif" font-size="14.00">label demo</text>
<g id="clust1" class="cluster">
<title>cluster0</title>
<polygon fill="none" stroke="black" points="8,-32.8 8,-181.6 78,-181.6 78,-32.8 8,-32.8"/>
<text xml:space="preserve" text-anchor="middle" x="38.16" y="-41" font-family="Times,serif" font-size="14.00">cluster0</text>
</g>
<g id="clust2" class="cluster">
<title>cluster1</title>
<polygon fill="none" stroke="black" points="86,-57.6 86,-206.4 156,-206.4 156,-57.6 86,-57.6"/>
<text xml:space="preserve" text-anchor="middle" x="116.16" y="-189.8" font-family="Times,serif" font-size="14.00">cluster1</text>
</g>
<!-- a -->
<g id="node1" class="node">
<title>a</title>
<ellipse fill="none" stroke="black" cx="43" cy="-155.6" rx="27" ry="18"/>
<text xml:space="preserve" text-anchor="middle" x="43" y="-151.4" font-family="Times,serif" font-size="14.00">a</text>
</g>
<!-- b -->
<g id="node2" class="node">
<title>b</title>
<ellipse fill="none" stroke="black" cx="43" cy="-83.6" rx="27" ry="18"/>
<text xml:space="preserve" text-anchor="middle" x="43" y="-79.4" font-family="Times,serif" font-size="14.00">b</text>
</g>
<!-- a&#45;&gt;b -->
<g id="edge1" class="edge">
<title>a&#45;&gt;b</title>
<path fill="none" stroke="black" d="M43,-137.3C43,-130.01 43,-121.33 43,-113.14"/>
<polygon fill="black" stroke="black" points="46.5,-113.22 43,-103.22 39.5,-113.22 46.5,-113.22"/>
</g>
<!-- c -->
<g id="node3" class="node">
<title>c</title>
<ellipse fill="none" stroke="black" cx="121" cy="-155.6" rx="27" ry="18"/>
<text xml:space="preserve" text-anchor="middle" x="121" y="-151.4" font-family="Times,serif" font-size="14.00">c</text>
</g>
<!-- d -->
<g id="node4" class="node">
<title>d</title>
<ellipse fill="none" stroke="black" cx="121" cy="-83.6" rx="27" ry="18"/>
<text xml:space="preserve" text-anchor="middle" x="121" y="-79.4" font-family="Times,serif" font-size="14.00">d</text>
</g>
<!-- c&#45;&gt;d -->
<g id="edge2" class="edge">
<title>c&#45;&gt;d</title>
<path fill="none" stroke="black" d="M121,-137.3C121,-130.01 121,-121.33 121,-113.14"/>
<polygon fill="black" stroke="black" points="124.5,-113.22 121,-103.22 117.5,-113.22 124.5,-113.22"/>
</g>
</g>
</svg>
