<?xml version="1.0" encoding="UTF-8" standalone="no"?>
<!DOCTYPE svg PUBLIC "-//W3C//DTD SVG 1.1//EN"
 "http://www.w3.org/Graphics/SVG/1.1/DTD/svg11.dtd">
<!-- Generated by graphviz version a (a)
 -->
<!-- Title: G Pages: 1 -->
<svg width="217pt" height="1542pt"
 viewBox="0.00 0.00 217.00 1542.00" xmlns="http://www.w3.org/2000/svg" xmlns:xlink="http://www.w3.org/1999/xlink">
<g id="graph0" class="graph" transform="scale(1 1) rotate(0) translate(4 1538.49)">
<title>G</title>
<polygon fill="white" stroke="none" points="-4,4 -4,-1538.49 212.79,-1538.49 212.79,4 -4,4"/>
<text xml:space="preserve" text-anchor="middle" x="104.4" y="-8.2" font-family="Times,serif" font-size="14.00">SelfRight</text>
<!-- node23 -->
<g id="node1" class="node">
<title>node23</title>
<polygon fill="none" stroke="black" points="57.21,-1527.64 0,-1527.64 0,-1491.64 57.21,-1491.64 57.21,-1527.64"/>
<text xml:space="preserve" text-anchor="middle" x="28.61" y="-1505.44" font-family="Times,serif" font-size="14.00">node23</text>
</g>
<!-- node23&#45;&gt;node23 -->
<g id="edge1" class="edge">
<title>node23:n&#45;&gt;node23:ne</title>
<path fill="none" stroke="black" d="M28.61,-1527.64C44.14,-1536.77 75.21,-1536.77 75.21,-1527.64 75.21,-1522.23 70.98,-1520.02 66.29,-1521.04"/>
<polygon fill="black" stroke="black" points="64.47,-1518.04 58.44,-1526.75 68.58,-1523.7 64.47,-1518.04"/>
<text xml:space="preserve" text-anchor="middle" x="139.67" y="-1505.44" font-family="Times,serif" font-size="14.00">tailport=n headport=ne</text>
</g>
<!-- node24 -->
<g id="node2" class="node">
<title>node24</title>
<polygon fill="none" stroke="black" points="57.21,-1454.64 0,-1454.64 0,-1418.64 57.21,-1418.64 57.21,-1454.64"/>
<text xml:space="preserve" text-anchor="middle" x="28.61" y="-1432.44" font-family="Times,serif" font-size="14.00">node24</text>
</g>
<!-- node23&#45;&gt;node24 -->
<g id="edge2" class="edge">
<title>node23&#45;&gt;node24</title>
<path fill="none" stroke="black" d="M28.61,-1491.46C28.61,-1483.87 28.61,-1474.75 28.61,-1466.18"/>
<polygon fill="black" stroke="black" points="32.11,-1466.19 28.61,-1456.19 25.11,-1466.19 32.11,-1466.19"/>
</g>
<!-- node24&#45;&gt;node24 -->
<g id="edge3" class="edge">
<title>node24:n&#45;&gt;node24:e</title>
<path fill="none" stroke="black" d="M28.61,-1454.64C44.14,-1463.77 75.21,-1463.77 75.21,-1445.64 75.21,-1435.45 71.42,-1430.99 67.03,-1430.66"/>
<polygon fill="black" stroke="black" points="65.22,-1427.66 58.51,-1435.86 68.87,-1433.64 65.22,-1427.66"/>
<text xml:space="preserve" text-anchor="middle" x="136.17" y="-1432.44" font-family="Times,serif" font-size="14.00">tailport=n headport=e</text>
</g>
<!-- node25 -->
<g id="node3" class="node">
<title>node25</title>
<polygon fill="none" stroke="black" points="57.21,-1381.64 0,-1381.64 0,-1345.64 57.21,-1345.64 57.21,-1381.64"/>
<text xml:space="preserve" text-anchor="middle" x="28.61" y="-1359.44" font-family="Times,serif" font-size="14.00">node25</text>
</g>
<!-- node24&#45;&gt;node25 -->
<g id="edge4" class="edge">
<title>node24&#45;&gt;node25</title>
<path fill="none" stroke="black" d="M28.61,-1418.46C28.61,-1410.87 28.61,-1401.75 28.61,-1393.18"/>
<polygon fill="black" stroke="black" points="32.11,-1393.19 28.61,-1383.19 25.11,-1393.19 32.11,-1393.19"/>
</g>
<!-- node25&#45;&gt;node25 -->
<g id="edge5" class="edge">
<title>node25:n&#45;&gt;node25:se</title>
<path fill="none" stroke="black" d="M28.61,-1381.64C44.14,-1390.77 75.21,-1390.77 75.21,-1363.64 75.21,-1348.81 71.62,-1342.09 67.39,-1340.53"/>
<polygon fill="black" stroke="black" points="65.93,-1337.35 58.57,-1344.96 69.07,-1343.61 65.93,-1337.35"/>
<text xml:space="preserve" text-anchor="middle" x="138.9" y="-1359.44" font-family="Times,serif" font-size="14.00">tailport=n headport=se</text>
</g>
<!-- node26 -->
<g id="node4" class="node">
<title>node26</title>
<polygon fill="none" stroke="black" points="57.21,-1308.64 0,-1308.64 0,-1272.64 57.21,-1272.64 57.21,-1308.64"/>
<text xml:space="preserve" text-anchor="middle" x="28.61" y="-1286.44" font-family="Times,serif" font-size="14.00">node26</text>
</g>
<!-- node25&#45;&gt;node26 -->
<g id="edge6" class="edge">
<title>node25&#45;&gt;node26</title>
<path fill="none" stroke="black" d="M28.61,-1345.46C28.61,-1337.87 28.61,-1328.75 28.61,-1320.18"/>
<polygon fill="black" stroke="black" points="32.11,-1320.19 28.61,-1310.19 25.11,-1320.19 32.11,-1320.19"/>
</g>
<!-- node26&#45;&gt;node26 -->
<g id="edge7" class="edge">
<title>node26:n&#45;&gt;node26:s</title>
<path fill="none" stroke="black" d="M28.61,-1308.64C44.14,-1317.77 75.21,-1317.77 75.21,-1290.64 75.21,-1268.82 55.09,-1264.55 39.14,-1268.48"/>
<polygon fill="black" stroke="black" points="38.02,-1265.15 30.01,-1272.09 40.6,-1271.66 38.02,-1265.15"/>
<text xml:space="preserve" text-anchor="middle" x="135.79" y="-1286.44" font-family="Times,serif" font-size="14.00">tailport=n headport=s</text>
</g>
<!-- node32 -->
<g id="node5" class="node">
<title>node32</title>
<polygon fill="none" stroke="black" points="57.21,-1235.64 0,-1235.64 0,-1199.64 57.21,-1199.64 57.21,-1235.64"/>
<text xml:space="preserve" text-anchor="middle" x="28.61" y="-1213.44" font-family="Times,serif" font-size="14.00">node32</text>
</g>
<!-- node26&#45;&gt;node32 -->
<g id="edge8" class="edge">
<title>node26&#45;&gt;node32</title>
<path fill="none" stroke="black" d="M28.61,-1272.46C28.61,-1264.87 28.61,-1255.75 28.61,-1247.18"/>
<polygon fill="black" stroke="black" points="32.11,-1247.19 28.61,-1237.19 25.11,-1247.19 32.11,-1247.19"/>
</g>
<!-- node32&#45;&gt;node32 -->
<g id="edge9" class="edge">
<title>node32:ne&#45;&gt;node32:n</title>
<path fill="none" stroke="black" d="M57.21,-1235.64C63.21,-1226.52 75.21,-1226.52 75.21,-1235.64 75.21,-1242.99 55.09,-1244.42 39.14,-1239.95"/>
<polygon fill="black" stroke="black" points="40.59,-1236.76 30.01,-1236.22 37.94,-1243.24 40.59,-1236.76"/>
<text xml:space="preserve" text-anchor="middle" x="139.67" y="-1213.44" font-family="Times,serif" font-size="14.00">tailport=ne headport=n</text>
</g>
<!-- node34 -->
<g id="node6" class="node">
<title>node34</title>
<polygon fill="none" stroke="black" points="57.21,-1162.64 0,-1162.64 0,-1126.64 57.21,-1126.64 57.21,-1162.64"/>
<text xml:space="preserve" text-anchor="middle" x="28.61" y="-1140.44" font-family="Times,serif" font-size="14.00">node34</text>
</g>
<!-- node32&#45;&gt;node34 -->
<g id="edge10" class="edge">
<title>node32&#45;&gt;node34</title>
<path fill="none" stroke="black" d="M28.61,-1199.46C28.61,-1191.87 28.61,-1182.75 28.61,-1174.18"/>
<polygon fill="black" stroke="black" points="32.11,-1174.19 28.61,-1164.19 25.11,-1174.19 32.11,-1174.19"/>
</g>
<!-- node34&#45;&gt;node34 -->
<g id="edge11" class="edge">
<title>node34:ne&#45;&gt;node34:e</title>
<path fill="none" stroke="black" d="M57.21,-1162.64C63.21,-1171.77 75.21,-1171.77 75.21,-1153.64 75.21,-1143.45 71.42,-1138.99 67.03,-1138.66"/>
<polygon fill="black" stroke="black" points="65.22,-1135.66 58.51,-1143.86 68.87,-1141.64 65.22,-1135.66"/>
<text xml:space="preserve" text-anchor="middle" x="139.28" y="-1140.44" font-family="Times,serif" font-size="14.00">tailport=ne headport=e</text>
</g>
<!-- node35 -->
<g id="node7" class="node">
<title>node35</title>
<polygon fill="none" stroke="black" points="57.21,-1089.64 0,-1089.64 0,-1053.64 57.21,-1053.64 57.21,-1089.64"/>
<text xml:space="preserve" text-anchor="middle" x="28.61" y="-1067.44" font-family="Times,serif" font-size="14.00">node35</text>
</g>
<!-- node34&#45;&gt;node35 -->
<g id="edge12" class="edge">
<title>node34&#45;&gt;node35</title>
<path fill="none" stroke="black" d="M28.61,-1126.46C28.61,-1118.87 28.61,-1109.75 28.61,-1101.18"/>
<polygon fill="black" stroke="black" points="32.11,-1101.19 28.61,-1091.19 25.11,-1101.19 32.11,-1101.19"/>
</g>
<!-- node35&#45;&gt;node35 -->
<g id="edge13" class="edge">
<title>node35:ne&#45;&gt;node35:se</title>
<path fill="none" stroke="black" d="M57.21,-1089.64C63.21,-1098.77 75.21,-1098.77 75.21,-1071.64 75.21,-1056.81 71.62,-1050.09 67.39,-1048.53"/>
<polygon fill="black" stroke="black" points="65.93,-1045.35 58.57,-1052.96 69.07,-1051.61 65.93,-1045.35"/>
<text xml:space="preserve" text-anchor="middle" x="142" y="-1067.44" font-family="Times,serif" font-size="14.00">tailport=ne headport=se</text>
</g>
<!-- node36 -->
<g id="node8" class="node">
<title>node36</title>
<polygon fill="none" stroke="black" points="57.21,-1016.64 0,-1016.64 0,-980.64 57.21,-980.64 57.21,-1016.64"/>
<text xml:space="preserve" text-anchor="middle" x="28.61" y="-994.44" font-family="Times,serif" font-size="14.00">node36</text>
</g>
<!-- node35&#45;&gt;node36 -->
<g id="edge14" class="edge">
<title>node35&#45;&gt;node36</title>
<path fill="none" stroke="black" d="M28.61,-1053.46C28.61,-1045.87 28.61,-1036.75 28.61,-1028.18"/>
<polygon fill="black" stroke="black" points="32.11,-1028.19 28.61,-1018.19 25.11,-1028.19 32.11,-1028.19"/>
</g>
<!-- node36&#45;&gt;node36 -->
<g id="edge15" class="edge">
<title>node36:ne&#45;&gt;node36:s</title>
<path fill="none" stroke="black" d="M57.21,-1016.64C63.21,-1025.77 75.21,-1025.77 75.21,-998.64 75.21,-976.82 55.09,-972.55 39.14,-976.48"/>
<polygon fill="black" stroke="black" points="38.02,-973.15 30.01,-980.09 40.6,-979.66 38.02,-973.15"/>
<text xml:space="preserve" text-anchor="middle" x="138.9" y="-994.44" font-family="Times,serif" font-size="14.00">tailport=ne headport=s</text>
</g>
<!-- node42 -->
<g id="node9" class="node">
<title>node42</title>
<polygon fill="none" stroke="black" points="57.21,-943.64 0,-943.64 0,-907.64 57.21,-907.64 57.21,-943.64"/>
<text xml:space="preserve" text-anchor="middle" x="28.61" y="-921.44" font-family="Times,serif" font-size="14.00">node42</text>
</g>
<!-- node36&#45;&gt;node42 -->
<g id="edge16" class="edge">
<title>node36&#45;&gt;node42</title>
<path fill="none" stroke="black" d="M28.61,-980.46C28.61,-972.87 28.61,-963.75 28.61,-955.18"/>
<polygon fill="black" stroke="black" points="32.11,-955.19 28.61,-945.19 25.11,-955.19 32.11,-955.19"/>
</g>
<!-- node42&#45;&gt;node42 -->
<g id="edge17" class="edge">
<title>node42:e&#45;&gt;node42:n</title>
<path fill="none" stroke="black" d="M57.21,-925.64C63.21,-916.52 75.21,-916.52 75.21,-934.64 75.21,-949.23 55.09,-952.08 39.14,-947.88"/>
<polygon fill="black" stroke="black" points="40.6,-944.69 30.01,-944.21 37.98,-951.19 40.6,-944.69"/>
<text xml:space="preserve" text-anchor="middle" x="136.17" y="-921.44" font-family="Times,serif" font-size="14.00">tailport=e headport=n</text>
</g>
<!-- node43 -->
<g id="node10" class="node">
<title>node43</title>
<polygon fill="none" stroke="black" points="57.21,-870.64 0,-870.64 0,-834.64 57.21,-834.64 57.21,-870.64"/>
<text xml:space="preserve" text-anchor="middle" x="28.61" y="-848.44" font-family="Times,serif" font-size="14.00">node43</text>
</g>
<!-- node42&#45;&gt;node43 -->
<g id="edge18" class="edge">
<title>node42&#45;&gt;node43</title>
<path fill="none" stroke="black" d="M28.61,-907.46C28.61,-899.87 28.61,-890.75 28.61,-882.18"/>
<polygon fill="black" stroke="black" points="32.11,-882.19 28.61,-872.19 25.11,-882.19 32.11,-882.19"/>
</g>
<!-- node43&#45;&gt;node43 -->
<g id="edge19" class="edge">
<title>node43:e&#45;&gt;node43:ne</title>
<path fill="none" stroke="black" d="M57.21,-852.64C63.21,-843.52 75.21,-843.52 75.21,-861.64 75.21,-871.84 71.42,-876.3 67.03,-876.63"/>
<polygon fill="black" stroke="black" points="68.87,-873.65 58.51,-871.43 65.22,-879.63 68.87,-873.65"/>
<text xml:space="preserve" text-anchor="middle" x="139.28" y="-848.44" font-family="Times,serif" font-size="14.00">tailport=e headport=ne</text>
</g>
<!-- node44 -->
<g id="node11" class="node">
<title>node44</title>
<polygon fill="none" stroke="black" points="57.21,-797.64 0,-797.64 0,-761.64 57.21,-761.64 57.21,-797.64"/>
<text xml:space="preserve" text-anchor="middle" x="28.61" y="-775.44" font-family="Times,serif" font-size="14.00">node44</text>
</g>
<!-- node43&#45;&gt;node44 -->
<g id="edge20" class="edge">
<title>node43&#45;&gt;node44</title>
<path fill="none" stroke="black" d="M28.61,-834.46C28.61,-826.87 28.61,-817.75 28.61,-809.18"/>
<polygon fill="black" stroke="black" points="32.11,-809.19 28.61,-799.19 25.11,-809.19 32.11,-809.19"/>
</g>
<!-- node44&#45;&gt;node44 -->
<g id="edge21" class="edge">
<title>node44:e&#45;&gt;node44:e</title>
<path fill="none" stroke="black" d="M57.21,-779.64C63.21,-788.77 75.21,-788.77 75.21,-779.64 75.21,-774.23 70.98,-772.02 66.29,-773.04"/>
<polygon fill="black" stroke="black" points="64.47,-770.04 58.44,-778.75 68.58,-775.7 64.47,-770.04"/>
<text xml:space="preserve" text-anchor="middle" x="135.78" y="-775.44" font-family="Times,serif" font-size="14.00">tailport=e headport=e</text>
</g>
<!-- node45 -->
<g id="node12" class="node">
<title>node45</title>
<polygon fill="none" stroke="black" points="57.21,-724.64 0,-724.64 0,-688.64 57.21,-688.64 57.21,-724.64"/>
<text xml:space="preserve" text-anchor="middle" x="28.61" y="-702.44" font-family="Times,serif" font-size="14.00">node45</text>
</g>
<!-- node44&#45;&gt;node45 -->
<g id="edge22" class="edge">
<title>node44&#45;&gt;node45</title>
<path fill="none" stroke="black" d="M28.61,-761.46C28.61,-753.87 28.61,-744.75 28.61,-736.18"/>
<polygon fill="black" stroke="black" points="32.11,-736.19 28.61,-726.19 25.11,-736.19 32.11,-736.19"/>
</g>
<!-- node45&#45;&gt;node45 -->
<g id="edge23" class="edge">
<title>node45:e&#45;&gt;node45:se</title>
<path fill="none" stroke="black" d="M57.21,-706.64C63.21,-715.77 75.21,-715.77 75.21,-697.64 75.21,-687.45 71.42,-682.99 67.03,-682.66"/>
<polygon fill="black" stroke="black" points="65.22,-679.66 58.51,-687.86 68.87,-685.64 65.22,-679.66"/>
<text xml:space="preserve" text-anchor="middle" x="138.5" y="-702.44" font-family="Times,serif" font-size="14.00">tailport=e headport=se</text>
</g>
<!-- node46 -->
<g id="node13" class="node">
<title>node46</title>
<polygon fill="none" stroke="black" points="57.21,-651.64 0,-651.64 0,-615.64 57.21,-615.64 57.21,-651.64"/>
<text xml:space="preserve" text-anchor="middle" x="28.61" y="-629.44" font-family="Times,serif" font-size="14.00">node46</text>
</g>
<!-- node45&#45;&gt;node46 -->
<g id="edge24" class="edge">
<title>node45&#45;&gt;node46</title>
<path fill="none" stroke="black" d="M28.61,-688.46C28.61,-680.87 28.61,-671.75 28.61,-663.18"/>
<polygon fill="black" stroke="black" points="32.11,-663.19 28.61,-653.19 25.11,-663.19 32.11,-663.19"/>
</g>
<!-- node46&#45;&gt;node46 -->
<g id="edge25" class="edge">
<title>node46:e&#45;&gt;node46:s</title>
<path fill="none" stroke="black" d="M57.21,-633.64C63.21,-642.77 75.21,-642.77 75.21,-624.64 75.21,-610.06 55.09,-607.21 39.14,-611.41"/>
<polygon fill="black" stroke="black" points="37.98,-608.1 30.01,-615.08 40.6,-614.6 37.98,-608.1"/>
<text xml:space="preserve" text-anchor="middle" x="135.4" y="-629.44" font-family="Times,serif" font-size="14.00">tailport=e headport=s</text>
</g>
<!-- node52 -->
<g id="node14" class="node">
<title>node52</title>
<polygon fill="none" stroke="black" points="57.21,-578.64 0,-578.64 0,-542.64 57.21,-542.64 57.21,-578.64"/>
<text xml:space="preserve" text-anchor="middle" x="28.61" y="-556.44" font-family="Times,serif" font-size="14.00">node52</text>
</g>
<!-- node46&#45;&gt;node52 -->
<g id="edge26" class="edge">
<title>node46&#45;&gt;node52</title>
<path fill="none" stroke="black" d="M28.61,-615.46C28.61,-607.87 28.61,-598.75 28.61,-590.18"/>
<polygon fill="black" stroke="black" points="32.11,-590.19 28.61,-580.19 25.11,-590.19 32.11,-590.19"/>
</g>
<!-- node52&#45;&gt;node52 -->
<g id="edge27" class="edge">
<title>node52:se&#45;&gt;node52:n</title>
<path fill="none" stroke="black" d="M57.21,-542.64C63.21,-533.52 75.21,-533.52 75.21,-560.64 75.21,-582.47 55.09,-586.73 39.14,-582.81"/>
<polygon fill="black" stroke="black" points="40.6,-579.63 30.01,-579.2 38.02,-586.13 40.6,-579.63"/>
<text xml:space="preserve" text-anchor="middle" x="138.9" y="-556.44" font-family="Times,serif" font-size="14.00">tailport=se headport=n</text>
</g>
<!-- node53 -->
<g id="node15" class="node">
<title>node53</title>
<polygon fill="none" stroke="black" points="57.21,-505.64 0,-505.64 0,-469.64 57.21,-469.64 57.21,-505.64"/>
<text xml:space="preserve" text-anchor="middle" x="28.61" y="-483.44" font-family="Times,serif" font-size="14.00">node53</text>
</g>
<!-- node52&#45;&gt;node53 -->
<g id="edge28" class="edge">
<title>node52&#45;&gt;node53</title>
<path fill="none" stroke="black" d="M28.61,-542.46C28.61,-534.87 28.61,-525.75 28.61,-517.18"/>
<polygon fill="black" stroke="black" points="32.11,-517.19 28.61,-507.19 25.11,-517.19 32.11,-517.19"/>
</g>
<!-- node53&#45;&gt;node53 -->
<g id="edge29" class="edge">
<title>node53:se&#45;&gt;node53:ne</title>
<path fill="none" stroke="black" d="M57.21,-469.64C63.21,-460.52 75.21,-460.52 75.21,-487.64 75.21,-502.48 71.62,-509.2 67.39,-510.75"/>
<polygon fill="black" stroke="black" points="69.07,-507.68 58.57,-506.32 65.93,-513.94 69.07,-507.68"/>
<text xml:space="preserve" text-anchor="middle" x="142" y="-483.44" font-family="Times,serif" font-size="14.00">tailport=se headport=ne</text>
</g>
<!-- node54 -->
<g id="node16" class="node">
<title>node54</title>
<polygon fill="none" stroke="black" points="57.21,-432.64 0,-432.64 0,-396.64 57.21,-396.64 57.21,-432.64"/>
<text xml:space="preserve" text-anchor="middle" x="28.61" y="-410.44" font-family="Times,serif" font-size="14.00">node54</text>
</g>
<!-- node53&#45;&gt;node54 -->
<g id="edge30" class="edge">
<title>node53&#45;&gt;node54</title>
<path fill="none" stroke="black" d="M28.61,-469.46C28.61,-461.87 28.61,-452.75 28.61,-444.18"/>
<polygon fill="black" stroke="black" points="32.11,-444.19 28.61,-434.19 25.11,-444.19 32.11,-444.19"/>
</g>
<!-- node54&#45;&gt;node54 -->
<g id="edge31" class="edge">
<title>node54:se&#45;&gt;node54:e</title>
<path fill="none" stroke="black" d="M57.21,-396.64C63.21,-387.52 75.21,-387.52 75.21,-405.64 75.21,-415.84 71.42,-420.3 67.03,-420.63"/>
<polygon fill="black" stroke="black" points="68.87,-417.65 58.51,-415.43 65.22,-423.63 68.87,-417.65"/>
<text xml:space="preserve" text-anchor="middle" x="138.5" y="-410.44" font-family="Times,serif" font-size="14.00">tailport=se headport=e</text>
</g>
<!-- node56 -->
<g id="node17" class="node">
<title>node56</title>
<polygon fill="none" stroke="black" points="57.21,-359.64 0,-359.64 0,-323.64 57.21,-323.64 57.21,-359.64"/>
<text xml:space="preserve" text-anchor="middle" x="28.61" y="-337.44" font-family="Times,serif" font-size="14.00">node56</text>
</g>
<!-- node54&#45;&gt;node56 -->
<g id="edge32" class="edge">
<title>node54&#45;&gt;node56</title>
<path fill="none" stroke="black" d="M28.61,-396.46C28.61,-388.87 28.61,-379.75 28.61,-371.18"/>
<polygon fill="black" stroke="black" points="32.11,-371.19 28.61,-361.19 25.11,-371.19 32.11,-371.19"/>
</g>
<!-- node56&#45;&gt;node56 -->
<g id="edge33" class="edge">
<title>node56:se&#45;&gt;node56:s</title>
<path fill="none" stroke="black" d="M57.21,-323.64C63.21,-332.77 75.21,-332.77 75.21,-323.64 75.21,-316.3 55.09,-314.87 39.14,-319.34"/>
<polygon fill="black" stroke="black" points="37.94,-316.05 30.01,-323.07 40.59,-322.53 37.94,-316.05"/>
<text xml:space="preserve" text-anchor="middle" x="138.12" y="-337.44" font-family="Times,serif" font-size="14.00">tailport=se headport=s</text>
</g>
<!-- node62 -->
<g id="node18" class="node">
<title>node62</title>
<polygon fill="none" stroke="black" points="57.21,-286.64 0,-286.64 0,-250.64 57.21,-250.64 57.21,-286.64"/>
<text xml:space="preserve" text-anchor="middle" x="28.61" y="-264.44" font-family="Times,serif" font-size="14.00">node62</text>
</g>
<!-- node56&#45;&gt;node62 -->
<g id="edge34" class="edge">
<title>node56&#45;&gt;node62</title>
<path fill="none" stroke="black" d="M28.61,-323.46C28.61,-315.87 28.61,-306.75 28.61,-298.18"/>
<polygon fill="black" stroke="black" points="32.11,-298.19 28.61,-288.19 25.11,-298.19 32.11,-298.19"/>
</g>
<!-- node62&#45;&gt;node62 -->
<g id="edge35" class="edge">
<title>node62:s&#45;&gt;node62:n</title>
<path fill="none" stroke="black" d="M28.61,-250.64C44.14,-241.52 75.21,-241.52 75.21,-268.64 75.21,-290.47 55.09,-294.73 39.14,-290.81"/>
<polygon fill="black" stroke="black" points="40.6,-287.63 30.01,-287.2 38.02,-294.13 40.6,-287.63"/>
<text xml:space="preserve" text-anchor="middle" x="135.79" y="-264.44" font-family="Times,serif" font-size="14.00">tailport=s headport=n</text>
</g>
<!-- node63 -->
<g id="node19" class="node">
<title>node63</title>
<polygon fill="none" stroke="black" points="57.21,-213.64 0,-213.64 0,-177.64 57.21,-177.64 57.21,-213.64"/>
<text xml:space="preserve" text-anchor="middle" x="28.61" y="-191.44" font-family="Times,serif" font-size="14.00">node63</text>
</g>
<!-- node62&#45;&gt;node63 -->
<g id="edge36" class="edge">
<title>node62&#45;&gt;node63</title>
<path fill="none" stroke="black" d="M28.61,-250.46C28.61,-242.87 28.61,-233.75 28.61,-225.18"/>
<polygon fill="black" stroke="black" points="32.11,-225.19 28.61,-215.19 25.11,-225.19 32.11,-225.19"/>
</g>
<!-- node63&#45;&gt;node63 -->
<g id="edge37" class="edge">
<title>node63:s&#45;&gt;node63:ne</title>
<path fill="none" stroke="black" d="M28.61,-177.64C44.14,-168.52 75.21,-168.52 75.21,-195.64 75.21,-210.48 71.62,-217.2 67.39,-218.75"/>
<polygon fill="black" stroke="black" points="69.07,-215.68 58.57,-214.32 65.93,-221.94 69.07,-215.68"/>
<text xml:space="preserve" text-anchor="middle" x="138.9" y="-191.44" font-family="Times,serif" font-size="14.00">tailport=s headport=ne</text>
</g>
<!-- node64 -->
<g id="node20" class="node">
<title>node64</title>
<polygon fill="none" stroke="black" points="57.21,-140.64 0,-140.64 0,-104.64 57.21,-104.64 57.21,-140.64"/>
<text xml:space="preserve" text-anchor="middle" x="28.61" y="-118.44" font-family="Times,serif" font-size="14.00">node64</text>
</g>
<!-- node63&#45;&gt;node64 -->
<g id="edge38" class="edge">
<title>node63&#45;&gt;node64</title>
<path fill="none" stroke="black" d="M28.61,-177.46C28.61,-169.87 28.61,-160.75 28.61,-152.18"/>
<polygon fill="black" stroke="black" points="32.11,-152.19 28.61,-142.19 25.11,-152.19 32.11,-152.19"/>
</g>
<!-- node64&#45;&gt;node64 -->
<g id="edge39" class="edge">
<title>node64:s&#45;&gt;node64:e</title>
<path fill="none" stroke="black" d="M28.61,-104.64C44.14,-95.52 75.21,-95.52 75.21,-113.64 75.21,-123.84 71.42,-128.3 67.03,-128.63"/>
<polygon fill="black" stroke="black" points="68.87,-125.65 58.51,-123.43 65.22,-131.63 68.87,-125.65"/>
<text xml:space="preserve" text-anchor="middle" x="135.4" y="-118.44" font-family="Times,serif" font-size="14.00">tailport=s headport=e</text>
</g>
<!-- node65 -->
<g id="node21" class="node">
<title>node65</title>
<polygon fill="none" stroke="black" points="57.21,-67.64 0,-67.64 0,-31.64 57.21,-31.64 57.21,-67.64"/>
<text xml:space="preserve" text-anchor="middle" x="28.61" y="-45.44" font-family="Times,serif" font-size="14.00">node65</text>
</g>
<!-- node64&#45;&gt;node65 -->
<g id="edge40" class="edge">
<title>node64&#45;&gt;node65</title>
<path fill="none" stroke="black" d="M28.61,-104.46C28.61,-96.87 28.61,-87.75 28.61,-79.18"/>
<polygon fill="black" stroke="black" points="32.11,-79.19 28.61,-69.19 25.11,-79.19 32.11,-79.19"/>
</g>
<!-- node65&#45;&gt;node65 -->
<g id="edge41" class="edge">
<title>node65:s&#45;&gt;node65:se</title>
<path fill="none" stroke="black" d="M28.61,-31.64C44.14,-22.52 75.21,-22.52 75.21,-31.64 75.21,-37.06 70.98,-39.26 66.29,-38.25"/>
<polygon fill="black" stroke="black" points="68.58,-35.59 58.44,-32.53 64.47,-41.25 68.58,-35.59"/>
<text xml:space="preserve" text-anchor="middle" x="138.12" y="-45.44" font-family="Times,serif" font-size="14.00">tailport=s headport=se</text>
</g>
</g>
</svg>
