<?xml version="1.0" encoding="UTF-8" standalone="no"?>
<!DOCTYPE svg PUBLIC "-//W3C//DTD SVG 1.1//EN"
 "http://www.w3.org/Graphics/SVG/1.1/DTD/svg11.dtd">
<!-- Generated by graphviz version a (a)
 -->
<!-- Title: shells Pages: 1 -->
<svg width="430pt" height="576pt"
 viewBox="0.00 0.00 430.00 576.00" xmlns="http://www.w3.org/2000/svg" xmlns:xlink="http://www.w3.org/1999/xlink">
<g id="graph0" class="graph" transform="scale(0.822857 0.822857) rotate(0) translate(4 696)">
<title>shells</title>
<polygon fill="white" stroke="none" points="-4,4 -4,-696 518.65,-696 518.65,4 -4,4"/>
<!-- 1972 -->
<g id="node1" class="node">
<title>1972</title>
<text xml:space="preserve" text-anchor="middle" x="36.65" y="-666.4" font-family="Times,serif" font-size="24.00">1972</text>
</g>
<!-- 1976 -->
<g id="node2" class="node">
<title>1976</title>
<text xml:space="preserve" text-anchor="middle" x="36.65" y="-593.6" font-family="Times,serif" font-size="24.00">1976</text>
</g>
<!-- 1972&#45;&gt;1976 -->
<g id="edge1" class="edge">
<title>1972&#45;&gt;1976</title>
<path fill="none" stroke="black" d="M36.65,-655.46C36.65,-647.9 36.65,-638.8 36.65,-630.26"/>
<polygon fill="black" stroke="black" points="40.15,-630.29 36.65,-620.29 33.15,-630.29 40.15,-630.29"/>
</g>
<!-- 1978 -->
<g id="node3" class="node">
<title>1978</title>
<text xml:space="preserve" text-anchor="middle" x="36.65" y="-520.8" font-family="Times,serif" font-size="24.00">1978</text>
</g>
<!-- 1976&#45;&gt;1978 -->
<g id="edge2" class="edge">
<title>1976&#45;&gt;1978</title>
<path fill="none" stroke="black" d="M36.65,-582.66C36.65,-575.1 36.65,-566 36.65,-557.46"/>
<polygon fill="black" stroke="black" points="40.15,-557.49 36.65,-547.49 33.15,-557.49 40.15,-557.49"/>
</g>
<!-- 1980 -->
<g id="node4" class="node">
<title>1980</title>
<text xml:space="preserve" text-anchor="middle" x="36.65" y="-448" font-family="Times,serif" font-size="24.00">1980</text>
</g>
<!-- 1978&#45;&gt;1980 -->
<g id="edge3" class="edge">
<title>1978&#45;&gt;1980</title>
<path fill="none" stroke="black" d="M36.65,-509.86C36.65,-502.3 36.65,-493.2 36.65,-484.66"/>
<polygon fill="black" stroke="black" points="40.15,-484.69 36.65,-474.69 33.15,-484.69 40.15,-484.69"/>
</g>
<!-- 1982 -->
<g id="node5" class="node">
<title>1982</title>
<text xml:space="preserve" text-anchor="middle" x="36.65" y="-375.2" font-family="Times,serif" font-size="24.00">1982</text>
</g>
<!-- 1980&#45;&gt;1982 -->
<g id="edge4" class="edge">
<title>1980&#45;&gt;1982</title>
<path fill="none" stroke="black" d="M36.65,-437.06C36.65,-429.5 36.65,-420.4 36.65,-411.86"/>
<polygon fill="black" stroke="black" points="40.15,-411.89 36.65,-401.89 33.15,-411.89 40.15,-411.89"/>
</g>
<!-- 1984 -->
<g id="node6" class="node">
<title>1984</title>
<text xml:space="preserve" text-anchor="middle" x="36.65" y="-302.4" font-family="Times,serif" font-size="24.00">1984</text>
</g>
<!-- 1982&#45;&gt;1984 -->
<g id="edge5" class="edge">
<title>1982&#45;&gt;1984</title>
<path fill="none" stroke="black" d="M36.65,-364.26C36.65,-356.7 36.65,-347.6 36.65,-339.06"/>
<polygon fill="black" stroke="black" points="40.15,-339.09 36.65,-329.09 33.15,-339.09 40.15,-339.09"/>
</g>
<!-- 1986 -->
<g id="node7" class="node">
<title>1986</title>
<text xml:space="preserve" text-anchor="middle" x="36.65" y="-229.6" font-family="Times,serif" font-size="24.00">1986</text>
</g>
<!-- 1984&#45;&gt;1986 -->
<g id="edge6" class="edge">
<title>1984&#45;&gt;1986</title>
<path fill="none" stroke="black" d="M36.65,-291.46C36.65,-283.9 36.65,-274.8 36.65,-266.26"/>
<polygon fill="black" stroke="black" points="40.15,-266.29 36.65,-256.29 33.15,-266.29 40.15,-266.29"/>
</g>
<!-- v9sh -->
<g id="node19" class="node">
<title>v9sh</title>
<polygon fill="none" stroke="black" points="178.65,-327.6 124.65,-327.6 124.65,-291.6 178.65,-291.6 178.65,-327.6"/>
<text xml:space="preserve" text-anchor="middle" x="151.65" y="-303.6" font-family="Times,serif" font-size="20.00">v9sh</text>
</g>
<!-- 1984&#45;&gt;v9sh -->
<!-- 1988 -->
<g id="node8" class="node">
<title>1988</title>
<text xml:space="preserve" text-anchor="middle" x="36.65" y="-156.8" font-family="Times,serif" font-size="24.00">1988</text>
</g>
<!-- 1986&#45;&gt;1988 -->
<g id="edge7" class="edge">
<title>1986&#45;&gt;1988</title>
<path fill="none" stroke="black" d="M36.65,-218.66C36.65,-211.1 36.65,-202 36.65,-193.46"/>
<polygon fill="black" stroke="black" points="40.15,-193.49 36.65,-183.49 33.15,-193.49 40.15,-193.49"/>
</g>
<!-- 1990 -->
<g id="node9" class="node">
<title>1990</title>
<text xml:space="preserve" text-anchor="middle" x="36.65" y="-84" font-family="Times,serif" font-size="24.00">1990</text>
</g>
<!-- 1988&#45;&gt;1990 -->
<g id="edge8" class="edge">
<title>1988&#45;&gt;1990</title>
<path fill="none" stroke="black" d="M36.65,-145.86C36.65,-138.3 36.65,-129.2 36.65,-120.66"/>
<polygon fill="black" stroke="black" points="40.15,-120.69 36.65,-110.69 33.15,-120.69 40.15,-120.69"/>
</g>
<!-- rc -->
<g id="node24" class="node">
<title>rc</title>
<polygon fill="none" stroke="black" points="178.65,-182 124.65,-182 124.65,-146 178.65,-146 178.65,-182"/>
<text xml:space="preserve" text-anchor="middle" x="151.65" y="-158" font-family="Times,serif" font-size="20.00">rc</text>
</g>
<!-- 1988&#45;&gt;rc -->
<!-- future -->
<g id="node10" class="node">
<title>future</title>
<text xml:space="preserve" text-anchor="middle" x="36.65" y="-11.2" font-family="Times,serif" font-size="24.00">future</text>
</g>
<!-- 1990&#45;&gt;future -->
<g id="edge9" class="edge">
<title>1990&#45;&gt;future</title>
<path fill="none" stroke="black" d="M36.65,-73.06C36.65,-65.5 36.65,-56.4 36.65,-47.86"/>
<polygon fill="black" stroke="black" points="40.15,-47.89 36.65,-37.89 33.15,-47.89 40.15,-47.89"/>
</g>
<!-- Mashey -->
<g id="node11" class="node">
<title>Mashey</title>
<polygon fill="none" stroke="black" points="234.31,-618.8 154.99,-618.8 154.99,-582.8 234.31,-582.8 234.31,-618.8"/>
<text xml:space="preserve" text-anchor="middle" x="194.65" y="-594.8" font-family="Times,serif" font-size="20.00">Mashey</text>
</g>
<!-- Bourne -->
<g id="node12" class="node">
<title>Bourne</title>
<polygon fill="none" stroke="black" points="327.09,-618.8 252.21,-618.8 252.21,-582.8 327.09,-582.8 327.09,-618.8"/>
<text xml:space="preserve" text-anchor="middle" x="289.65" y="-594.8" font-family="Times,serif" font-size="20.00">Bourne</text>
</g>
<!-- Formshell -->
<g id="node13" class="node">
<title>Formshell</title>
<polygon fill="none" stroke="black" points="302.21,-546 205.1,-546 205.1,-510 302.21,-510 302.21,-546"/>
<text xml:space="preserve" text-anchor="middle" x="253.65" y="-522" font-family="Times,serif" font-size="20.00">Formshell</text>
</g>
<!-- Bourne&#45;&gt;Formshell -->
<g id="edge32" class="edge">
<title>Bourne&#45;&gt;Formshell</title>
<path fill="none" stroke="black" d="M280.94,-582.66C276.97,-574.86 272.18,-565.44 267.73,-556.68"/>
<polygon fill="black" stroke="black" points="270.88,-555.15 263.22,-547.82 264.64,-558.32 270.88,-555.15"/>
</g>
<!-- esh -->
<g id="node15" class="node">
<title>esh</title>
<polygon fill="none" stroke="black" points="383.65,-473.2 329.65,-473.2 329.65,-437.2 383.65,-437.2 383.65,-473.2"/>
<text xml:space="preserve" text-anchor="middle" x="356.65" y="-449.2" font-family="Times,serif" font-size="20.00">esh</text>
</g>
<!-- Bourne&#45;&gt;esh -->
<g id="edge15" class="edge">
<title>Bourne&#45;&gt;esh</title>
<path fill="none" stroke="black" d="M313.93,-582.44C325.15,-573.08 337.53,-560.55 344.65,-546.4 354.22,-527.39 357.04,-503.41 357.57,-484.96"/>
<polygon fill="black" stroke="black" points="361.07,-484.99 357.62,-474.98 354.07,-484.96 361.07,-484.99"/>
</g>
<!-- vsh -->
<g id="node16" class="node">
<title>vsh</title>
<polygon fill="none" stroke="black" points="224.65,-473.2 170.65,-473.2 170.65,-437.2 224.65,-437.2 224.65,-473.2"/>
<text xml:space="preserve" text-anchor="middle" x="197.65" y="-449.2" font-family="Times,serif" font-size="20.00">vsh</text>
</g>
<!-- Bourne&#45;&gt;vsh -->
<g id="edge16" class="edge">
<title>Bourne&#45;&gt;vsh</title>
<path fill="none" stroke="black" d="M251.79,-583.11C228.59,-572.02 202.12,-557.51 195.65,-546.4 184.87,-527.88 186.19,-503.39 189.75,-484.6"/>
<polygon fill="black" stroke="black" points="193.14,-485.47 191.9,-474.95 186.31,-483.95 193.14,-485.47"/>
</g>
<!-- ksh -->
<g id="node17" class="node">
<title>ksh</title>
<polygon fill="none" stroke="black" points="319.65,-400.4 265.65,-400.4 265.65,-364.4 319.65,-364.4 319.65,-400.4"/>
<text xml:space="preserve" text-anchor="middle" x="292.65" y="-376.4" font-family="Times,serif" font-size="20.00">ksh</text>
</g>
<!-- Bourne&#45;&gt;ksh -->
<g id="edge14" class="edge">
<title>Bourne&#45;&gt;ksh</title>
<path fill="none" stroke="black" d="M298.78,-582.54C303.66,-572.34 309.16,-558.99 311.65,-546.4 320.91,-499.6 309.93,-444.29 301.23,-411.62"/>
<polygon fill="black" stroke="black" points="304.63,-410.82 298.57,-402.13 297.89,-412.7 304.63,-410.82"/>
</g>
<!-- System&#45;V -->
<g id="node18" class="node">
<title>System&#45;V</title>
<polygon fill="none" stroke="black" points="459.65,-400.4 363.65,-400.4 363.65,-364.4 459.65,-364.4 459.65,-400.4"/>
<text xml:space="preserve" text-anchor="middle" x="411.65" y="-376.4" font-family="Times,serif" font-size="20.00">System&#45;V</text>
</g>
<!-- Bourne&#45;&gt;System&#45;V -->
<g id="edge17" class="edge">
<title>Bourne&#45;&gt;System&#45;V</title>
<path fill="none" stroke="black" d="M321.7,-582.36C336.1,-573.21 352.35,-560.89 363.65,-546.4 394.73,-506.55 405.71,-447.05 409.57,-412.04"/>
<polygon fill="black" stroke="black" points="413.04,-412.54 410.52,-402.25 406.07,-411.87 413.04,-412.54"/>
</g>
<!-- Bourne&#45;&gt;v9sh -->
<g id="edge18" class="edge">
<title>Bourne&#45;&gt;v9sh</title>
<path fill="none" stroke="black" d="M251.74,-584.48C225.32,-573.13 193.16,-557.72 183.65,-546.4 133.67,-486.92 139.86,-387.58 146.66,-339.04"/>
<polygon fill="black" stroke="black" points="150.09,-339.76 148.14,-329.34 143.17,-338.7 150.09,-339.76"/>
</g>
<!-- Bash -->
<g id="node26" class="node">
<title>Bash</title>
<polygon fill="none" stroke="black" points="234.65,-109.2 178.65,-109.2 178.65,-73.2 234.65,-73.2 234.65,-109.2"/>
<text xml:space="preserve" text-anchor="middle" x="206.65" y="-85.2" font-family="Times,serif" font-size="20.00">Bash</text>
</g>
<!-- Bourne&#45;&gt;Bash -->
<g id="edge20" class="edge">
<title>Bourne&#45;&gt;Bash</title>
<path fill="none" stroke="black" d="M251.94,-585.17C214.33,-570.48 161.58,-549.58 157.65,-546.4 120.03,-515.96 96.65,-504.6 96.65,-456.2 96.65,-456.2 96.65,-456.2 96.65,-235.8 96.65,-194.83 91.72,-178.85 115.65,-145.6 128.53,-127.7 149.42,-114.83 167.94,-106.21"/>
<polygon fill="black" stroke="black" points="169.32,-109.43 177.1,-102.23 166.53,-103.01 169.32,-109.43"/>
</g>
<!-- csh -->
<g id="node14" class="node">
<title>csh</title>
<polygon fill="none" stroke="black" points="493.65,-546 439.65,-546 439.65,-510 493.65,-510 493.65,-546"/>
<text xml:space="preserve" text-anchor="middle" x="466.65" y="-522" font-family="Times,serif" font-size="20.00">csh</text>
</g>
<!-- Formshell&#45;&gt;csh -->
<!-- Formshell&#45;&gt;ksh -->
<g id="edge25" class="edge">
<title>Formshell&#45;&gt;ksh</title>
<path fill="none" stroke="black" d="M258.36,-509.68C264.94,-485.42 277,-441.03 284.92,-411.88"/>
<polygon fill="black" stroke="black" points="288.29,-412.81 287.53,-402.24 281.54,-410.98 288.29,-412.81"/>
</g>
<!-- csh&#45;&gt;ksh -->
<g id="edge26" class="edge">
<title>csh&#45;&gt;ksh</title>
<path fill="none" stroke="black" d="M455.52,-509.65C442.33,-490.1 418.8,-458.26 392.65,-436.8 373.91,-421.42 350.05,-408.48 330.34,-399.19"/>
<polygon fill="black" stroke="black" points="331.8,-396.01 321.25,-395.04 328.89,-402.38 331.8,-396.01"/>
</g>
<!-- tcsh -->
<g id="node20" class="node">
<title>tcsh</title>
<polygon fill="none" stroke="black" points="514.65,-327.6 460.65,-327.6 460.65,-291.6 514.65,-291.6 514.65,-327.6"/>
<text xml:space="preserve" text-anchor="middle" x="487.65" y="-303.6" font-family="Times,serif" font-size="20.00">tcsh</text>
</g>
<!-- csh&#45;&gt;tcsh -->
<g id="edge13" class="edge">
<title>csh&#45;&gt;tcsh</title>
<path fill="none" stroke="black" d="M468.34,-509.66C471.94,-472.54 480.42,-385.09 484.85,-339.45"/>
<polygon fill="black" stroke="black" points="488.33,-339.82 485.82,-329.53 481.37,-339.15 488.33,-339.82"/>
</g>
<!-- esh&#45;&gt;ksh -->
<g id="edge23" class="edge">
<title>esh&#45;&gt;ksh</title>
<path fill="none" stroke="black" d="M341.16,-437.06C333.65,-428.75 324.46,-418.59 316.11,-409.35"/>
<polygon fill="black" stroke="black" points="318.76,-407.07 309.46,-402 313.57,-411.76 318.76,-407.07"/>
</g>
<!-- vsh&#45;&gt;ksh -->
<g id="edge24" class="edge">
<title>vsh&#45;&gt;ksh</title>
<path fill="none" stroke="black" d="M220.65,-437.06C232.49,-428.24 247.13,-417.32 260.11,-407.65"/>
<polygon fill="black" stroke="black" points="262.07,-410.56 267.99,-401.78 257.88,-404.95 262.07,-410.56"/>
</g>
<!-- ksh&#45;i -->
<g id="node21" class="node">
<title>ksh&#45;i</title>
<polygon fill="none" stroke="black" points="311.65,-254.8 255.65,-254.8 255.65,-218.8 311.65,-218.8 311.65,-254.8"/>
<text xml:space="preserve" text-anchor="middle" x="283.65" y="-230.8" font-family="Times,serif" font-size="20.00">ksh&#45;i</text>
</g>
<!-- ksh&#45;&gt;ksh&#45;i -->
<g id="edge29" class="edge">
<title>ksh&#45;&gt;ksh&#45;i</title>
<path fill="none" stroke="black" d="M291.57,-364.08C290.05,-339.93 287.29,-295.83 285.46,-266.67"/>
<polygon fill="black" stroke="black" points="288.96,-266.45 284.84,-256.69 281.97,-266.89 288.96,-266.45"/>
</g>
<!-- POSIX -->
<g id="node27" class="node">
<title>POSIX</title>
<polygon fill="none" stroke="black" points="449.55,-36.4 375.76,-36.4 375.76,-0.4 449.55,-0.4 449.55,-36.4"/>
<text xml:space="preserve" text-anchor="middle" x="412.65" y="-12.4" font-family="Times,serif" font-size="20.00">POSIX</text>
</g>
<!-- System&#45;V&#45;&gt;POSIX -->
<g id="edge28" class="edge">
<title>System&#45;V&#45;&gt;POSIX</title>
<path fill="none" stroke="black" d="M415.8,-364.28C421.92,-337.48 432.65,-283.91 432.65,-237.8 432.65,-237.8 432.65,-237.8 432.65,-163 432.65,-122.69 424.83,-76.63 418.97,-47.78"/>
<polygon fill="black" stroke="black" points="422.4,-47.08 416.92,-38.02 415.55,-48.52 422.4,-47.08"/>
</g>
<!-- v9sh&#45;&gt;tcsh -->
<!-- v9sh&#45;&gt;rc -->
<g id="edge19" class="edge">
<title>v9sh&#45;&gt;rc</title>
<path fill="none" stroke="black" d="M151.65,-291.28C151.65,-267.13 151.65,-223.03 151.65,-193.87"/>
<polygon fill="black" stroke="black" points="155.15,-193.9 151.65,-183.9 148.15,-193.9 155.15,-193.9"/>
</g>
<!-- KornShell -->
<g id="node22" class="node">
<title>KornShell</title>
<polygon fill="none" stroke="black" points="332.76,-182 234.54,-182 234.54,-146 332.76,-146 332.76,-182"/>
<text xml:space="preserve" text-anchor="middle" x="283.65" y="-158" font-family="Times,serif" font-size="20.00">KornShell</text>
</g>
<!-- ksh&#45;i&#45;&gt;KornShell -->
<g id="edge30" class="edge">
<title>ksh&#45;i&#45;&gt;KornShell</title>
<path fill="none" stroke="black" d="M283.65,-218.66C283.65,-211.21 283.65,-202.26 283.65,-193.84"/>
<polygon fill="black" stroke="black" points="287.15,-193.99 283.65,-183.99 280.15,-193.99 287.15,-193.99"/>
</g>
<!-- ksh&#45;i&#45;&gt;Bash -->
<g id="edge21" class="edge">
<title>ksh&#45;i&#45;&gt;Bash</title>
<path fill="none" stroke="black" d="M258.52,-218.45C246.8,-209.09 233.7,-196.56 225.65,-182.4 214.94,-163.57 210.25,-139.44 208.2,-120.87"/>
<polygon fill="black" stroke="black" points="211.7,-120.75 207.33,-111.1 204.73,-121.37 211.7,-120.75"/>
</g>
<!-- Perl -->
<g id="node23" class="node">
<title>Perl</title>
<polygon fill="none" stroke="black" points="404.65,-182 350.65,-182 350.65,-146 404.65,-146 404.65,-182"/>
<text xml:space="preserve" text-anchor="middle" x="377.65" y="-158" font-family="Times,serif" font-size="20.00">Perl</text>
</g>
<!-- KornShell&#45;&gt;Perl -->
<!-- KornShell&#45;&gt;Bash -->
<g id="edge22" class="edge">
<title>KornShell&#45;&gt;Bash</title>
<path fill="none" stroke="black" d="M265.01,-145.86C255.69,-137.29 244.24,-126.76 233.95,-117.3"/>
<polygon fill="black" stroke="black" points="236.5,-114.89 226.77,-110.7 231.76,-120.04 236.5,-114.89"/>
</g>
<!-- KornShell&#45;&gt;POSIX -->
<g id="edge27" class="edge">
<title>KornShell&#45;&gt;POSIX</title>
<path fill="none" stroke="black" d="M299.21,-145.68C321.68,-120.67 363.38,-74.25 389.48,-45.2"/>
<polygon fill="black" stroke="black" points="391.95,-47.69 396.03,-37.91 386.74,-43.01 391.95,-47.69"/>
</g>
<!-- ksh&#45;POSIX -->
<g id="node28" class="node">
<title>ksh&#45;POSIX</title>
<polygon fill="none" stroke="black" points="337.77,-36.4 229.53,-36.4 229.53,-0.4 337.77,-0.4 337.77,-36.4"/>
<text xml:space="preserve" text-anchor="middle" x="283.65" y="-12.4" font-family="Times,serif" font-size="20.00">ksh&#45;POSIX</text>
</g>
<!-- KornShell&#45;&gt;ksh&#45;POSIX -->
<g id="edge31" class="edge">
<title>KornShell&#45;&gt;ksh&#45;POSIX</title>
<path fill="none" stroke="black" d="M283.65,-145.68C283.65,-121.53 283.65,-77.43 283.65,-48.27"/>
<polygon fill="black" stroke="black" points="287.15,-48.3 283.65,-38.3 280.15,-48.3 287.15,-48.3"/>
</g>
<!-- rc&#45;&gt;KornShell -->
<!-- tcl -->
<g id="node25" class="node">
<title>tcl</title>
<polygon fill="none" stroke="black" points="514.65,-109.2 460.65,-109.2 460.65,-73.2 514.65,-73.2 514.65,-109.2"/>
<text xml:space="preserve" text-anchor="middle" x="487.65" y="-85.2" font-family="Times,serif" font-size="20.00">tcl</text>
</g>
<!-- Thompson -->
<g id="node29" class="node">
<title>Thompson</title>
<polygon fill="none" stroke="black" points="340.43,-691.6 238.87,-691.6 238.87,-655.6 340.43,-655.6 340.43,-691.6"/>
<text xml:space="preserve" text-anchor="middle" x="289.65" y="-667.6" font-family="Times,serif" font-size="20.00">Thompson</text>
</g>
<!-- Thompson&#45;&gt;Mashey -->
<g id="edge10" class="edge">
<title>Thompson&#45;&gt;Mashey</title>
<path fill="none" stroke="black" d="M266.66,-655.46C254.81,-646.64 240.17,-635.72 227.19,-626.05"/>
<polygon fill="black" stroke="black" points="229.42,-623.35 219.31,-620.18 225.24,-628.96 229.42,-623.35"/>
</g>
<!-- Thompson&#45;&gt;Bourne -->
<g id="edge11" class="edge">
<title>Thompson&#45;&gt;Bourne</title>
<path fill="none" stroke="black" d="M289.65,-655.46C289.65,-648.01 289.65,-639.06 289.65,-630.64"/>
<polygon fill="black" stroke="black" points="293.15,-630.79 289.65,-620.79 286.15,-630.79 293.15,-630.79"/>
</g>
<!-- Thompson&#45;&gt;csh -->
<g id="edge12" class="edge">
<title>Thompson&#45;&gt;csh</title>
<path fill="none" stroke="black" d="M311,-655.28C342.37,-629.83 401.02,-582.25 436.69,-553.31"/>
<polygon fill="black" stroke="black" points="438.49,-556.35 444.05,-547.34 434.08,-550.92 438.49,-556.35"/>
</g>
</g>
</svg>
