<?xml version="1.0" encoding="UTF-8" standalone="no"?>
<!DOCTYPE svg PUBLIC "-//W3C//DTD SVG 1.1//EN"
 "http://www.w3.org/Graphics/SVG/1.1/DTD/svg11.dtd">
<!-- Generated by graphviz version a (a)
 -->
<!-- Title: G Pages: 1 -->
<svg width="404pt" height="285pt"
 viewBox="0.00 0.00 404.00 285.00" xmlns="http://www.w3.org/2000/svg" xmlns:xlink="http://www.w3.org/1999/xlink">
<g id="graph0" class="graph" transform="scale(1 1) rotate(0) translate(4 280.8)">
<title>G</title>
<polygon fill="white" stroke="none" points="-4,4 -4,-280.8 399.84,-280.8 399.84,4 -4,4"/>
<text xml:space="preserve" text-anchor="middle" x="197.92" y="-8.2" font-family="Times,serif" font-size="14.00">下駄配列の派生図</text>
<!-- getas -->
<g id="node1" class="node">
<title>getas</title>
<ellipse fill="none" stroke="black" cx="163.25" cy="-258.8" rx="40.01" ry="18"/>
<text xml:space="preserve" text-anchor="middle" x="163.25" y="-254.6" font-family="Times,serif" font-size="14.00">下駄配列</text>
</g>
<!-- new_getas -->
<g id="node2" class="node">
<title>new_getas</title>
<ellipse fill="none" stroke="black" cx="47.25" cy="-186.8" rx="47.25" ry="18"/>
<text xml:space="preserve" text-anchor="middle" x="47.25" y="-182.6" font-family="Times,serif" font-size="14.00">新下駄配列</text>
</g>
<!-- getas&#45;&gt;new_getas -->
<g id="edge1" class="edge">
<title>getas&#45;&gt;new_getas</title>
<path fill="none" stroke="black" d="M140.05,-243.8C123.24,-233.66 100.24,-219.77 81.34,-208.37"/>
<polygon fill="black" stroke="black" points="83.27,-205.45 72.9,-203.28 79.65,-211.44 83.27,-205.45"/>
</g>
<!-- getas_in_fine_weather -->
<g id="node3" class="node">
<title>getas_in_fine_weather</title>
<ellipse fill="none" stroke="black" cx="97.25" cy="-42.8" rx="54.49" ry="18"/>
<text xml:space="preserve" text-anchor="middle" x="97.25" y="-38.6" font-family="Times,serif" font-size="14.00">日和下駄配列</text>
</g>
<!-- getas&#45;&gt;getas_in_fine_weather -->
<g id="edge2" class="edge">
<title>getas&#45;&gt;getas_in_fine_weather</title>
<path fill="none" stroke="black" d="M155.56,-240.83C151.06,-230.53 145.45,-217.05 141.25,-204.8 125.52,-158.9 111.55,-104.17 103.76,-71.79"/>
<polygon fill="black" stroke="black" points="107.24,-71.33 101.53,-62.41 100.43,-72.95 107.24,-71.33"/>
</g>
<!-- lacquered_getas -->
<g id="node6" class="node">
<title>lacquered_getas</title>
<ellipse fill="none" stroke="black" cx="204.25" cy="-186.8" rx="54.49" ry="18"/>
<text xml:space="preserve" text-anchor="middle" x="204.25" y="-182.6" font-family="Times,serif" font-size="14.00">塗り下駄配列</text>
</g>
<!-- getas&#45;&gt;lacquered_getas -->
<g id="edge3" class="edge">
<title>getas&#45;&gt;lacquered_getas</title>
<path fill="none" stroke="black" d="M172.97,-241.21C177.65,-233.22 183.37,-223.44 188.64,-214.44"/>
<polygon fill="black" stroke="black" points="191.52,-216.46 193.55,-206.06 185.48,-212.92 191.52,-216.46"/>
</g>
<!-- new_JIS_getas -->
<g id="node7" class="node">
<title>new_JIS_getas</title>
<ellipse fill="none" stroke="black" cx="336.25" cy="-186.8" rx="59.59" ry="18"/>
<text xml:space="preserve" text-anchor="middle" x="336.25" y="-182.6" font-family="Times,serif" font-size="14.00">新JIS下駄配列</text>
</g>
<!-- getas&#45;&gt;new_JIS_getas -->
<g id="edge4" class="edge">
<title>getas&#45;&gt;new_JIS_getas</title>
<path fill="none" stroke="black" d="M192.21,-246.08C219.14,-235.19 259.69,-218.78 290.91,-206.14"/>
<polygon fill="black" stroke="black" points="292.17,-209.41 300.13,-202.42 289.54,-202.92 292.17,-209.41"/>
</g>
<!-- black_lacquered_getas -->
<g id="node4" class="node">
<title>black_lacquered_getas</title>
<ellipse fill="none" stroke="black" cx="225.25" cy="-114.8" rx="61.74" ry="18"/>
<text xml:space="preserve" text-anchor="middle" x="225.25" y="-110.6" font-family="Times,serif" font-size="14.00">黒塗り下駄配列</text>
</g>
<!-- black_lacquered_getas&#45;&gt;getas_in_fine_weather -->
<g id="edge8" class="edge">
<title>black_lacquered_getas&#45;&gt;getas_in_fine_weather</title>
<path fill="none" stroke="black" stroke-dasharray="1,5" d="M197.16,-98.44C178.74,-88.36 154.44,-75.08 134.42,-64.13"/>
<polygon fill="black" stroke="black" points="136.18,-61.1 125.72,-59.37 132.82,-67.24 136.18,-61.1"/>
</g>
<!-- black_lacquered_getas_made_of_paulownia -->
<g id="node5" class="node">
<title>black_lacquered_getas_made_of_paulownia</title>
<ellipse fill="none" stroke="black" cx="238.25" cy="-42.8" rx="68.98" ry="18"/>
<text xml:space="preserve" text-anchor="middle" x="238.25" y="-38.6" font-family="Times,serif" font-size="14.00">黒塗り桐下駄配列</text>
</g>
<!-- black_lacquered_getas&#45;&gt;black_lacquered_getas_made_of_paulownia -->
<g id="edge6" class="edge">
<title>black_lacquered_getas&#45;&gt;black_lacquered_getas_made_of_paulownia</title>
<path fill="none" stroke="black" d="M222.55,-96.5C223.16,-89.12 224.55,-80.32 226.37,-72.05"/>
<polygon fill="black" stroke="black" points="229.76,-72.92 228.81,-62.37 222.97,-71.21 229.76,-72.92"/>
</g>
<!-- black_lacquered_getas_made_of_paulownia&#45;&gt;black_lacquered_getas -->
<g id="edge7" class="edge">
<title>black_lacquered_getas_made_of_paulownia&#45;&gt;black_lacquered_getas</title>
<path fill="none" stroke="black" d="M240.95,-61.08C240.34,-68.57 238.91,-77.55 237.05,-85.95"/>
<polygon fill="black" stroke="black" points="233.72,-84.83 234.65,-95.39 240.5,-86.56 233.72,-84.83"/>
</g>
<!-- lacquered_getas&#45;&gt;black_lacquered_getas -->
<g id="edge5" class="edge">
<title>lacquered_getas&#45;&gt;black_lacquered_getas</title>
<path fill="none" stroke="black" d="M209.44,-168.5C211.68,-161.04 214.35,-152.12 216.86,-143.77"/>
<polygon fill="black" stroke="black" points="220.16,-144.94 219.68,-134.35 213.46,-142.93 220.16,-144.94"/>
</g>
</g>
</svg>
