<?xml version="1.0" encoding="UTF-8" standalone="no"?>
<!DOCTYPE svg PUBLIC "-//W3C//DTD SVG 1.1//EN"
 "http://www.w3.org/Graphics/SVG/1.1/DTD/svg11.dtd">
<!-- Generated by graphviz version a (a)
 -->
<!-- Pages: 1 -->
<svg width="459pt" height="99pt"
 viewBox="0.00 0.00 459.00 99.00" xmlns="http://www.w3.org/2000/svg" xmlns:xlink="http://www.w3.org/1999/xlink">
<g id="graph0" class="graph" transform="scale(1 1) rotate(0) translate(4 95.2)">
<polygon fill="white" stroke="none" points="-4,4 -4,-95.2 454.62,-95.2 454.62,4 -4,4"/>
<!-- 35 -->
<g id="node1" class="node">
<title>35</title>
<polygon fill="none" stroke="black" points="450.62,-91.2 0,-91.2 0,0 450.62,0 450.62,-91.2"/>
<polygon fill="none" stroke="black" points="0,-68.4 0,-91.2 450.62,-91.2 450.62,-68.4 0,-68.4"/>
<text xml:space="preserve" text-anchor="start" x="181.11" y="-75.6" font-family="Dingbats,fantasy" font-size="14.00">&quot;ZapfDingbats&quot;</text>
<polygon fill="none" stroke="black" points="0,-45.6 0,-68.4 450.62,-68.4 450.62,-45.6 0,-45.6"/>
<text xml:space="preserve" text-anchor="start" x="93.98" y="-52.8" font-family="Dingbats,fantasy" font-size="14.00">&quot;ABCDEFGHIJLKLMNOPQRSTUVWXYZ&quot;</text>
<polygon fill="none" stroke="black" points="0,-22.8 0,-45.6 450.62,-45.6 450.62,-22.8 0,-22.8"/>
<text xml:space="preserve" text-anchor="start" x="134.06" y="-30" font-family="Dingbats,fantasy" font-size="14.00">&quot;abcdefghijlklmnopqrstuvwxyz&quot;</text>
<polygon fill="none" stroke="black" points="0,0 0,-22.8 450.62,-22.8 450.62,0 0,0"/>
<text xml:space="preserve" text-anchor="start" x="3" y="-7.2" font-family="Dingbats,fantasy" font-size="14.00">&quot;ABCDEFGHIJLKLMNOPQRSTUVWXYZ\nabcdefghijlklmnopqrstuvwxyz&quot;</text>
</g>
</g>
</svg>
