<?xml version="1.0" encoding="UTF-8" standalone="no"?>
<!DOCTYPE svg PUBLIC "-//W3C//DTD SVG 1.1//EN"
 "http://www.w3.org/Graphics/SVG/1.1/DTD/svg11.dtd">
<!-- Generated by graphviz version a (a)
 -->
<!-- Title: abstract Pages: 1 -->
<svg width="432pt" height="231pt"
 viewBox="0.00 0.00 432.00 231.00" xmlns="http://www.w3.org/2000/svg" xmlns:xlink="http://www.w3.org/1999/xlink">
<g id="graph0" class="graph" transform="scale(0.373057 0.373057) rotate(0) translate(4 616)">
<title>abstract</title>
<polygon fill="white" stroke="none" points="-4,4 -4,-616 1154,-616 1154,4 -4,4"/>
<!-- S24 -->
<g id="node1" class="node">
<title>S24</title>
<ellipse fill="none" stroke="black" cx="1110" cy="-522" rx="27" ry="18"/>
<text xml:space="preserve" text-anchor="middle" x="1110" y="-517.8" font-family="Times,serif" font-size="14.00">S24</text>
</g>
<!-- 27 -->
<g id="node2" class="node">
<title>27</title>
<ellipse fill="none" stroke="black" cx="1123" cy="-162" rx="27" ry="18"/>
<text xml:space="preserve" text-anchor="middle" x="1123" y="-157.8" font-family="Times,serif" font-size="14.00">27</text>
</g>
<!-- S24&#45;&gt;27 -->
<g id="edge1" class="edge">
<title>S24&#45;&gt;27</title>
<path fill="none" stroke="black" d="M1115.53,-504.16C1123.69,-477.79 1138,-424.98 1138,-379 1138,-379 1138,-379 1138,-305 1138,-265.31 1132.13,-219.71 1127.74,-191.13"/>
<polygon fill="black" stroke="black" points="1131.23,-190.81 1126.2,-181.48 1124.32,-191.91 1131.23,-190.81"/>
</g>
<!-- 25 -->
<g id="node3" class="node">
<title>25</title>
<ellipse fill="none" stroke="black" cx="1083" cy="-450" rx="27" ry="18"/>
<text xml:space="preserve" text-anchor="middle" x="1083" y="-445.8" font-family="Times,serif" font-size="14.00">25</text>
</g>
<!-- S24&#45;&gt;25 -->
<g id="edge2" class="edge">
<title>S24&#45;&gt;25</title>
<path fill="none" stroke="black" d="M1103.46,-504.05C1100.48,-496.32 1096.87,-486.96 1093.52,-478.27"/>
<polygon fill="black" stroke="black" points="1096.88,-477.27 1090.02,-469.2 1090.35,-479.79 1096.88,-477.27"/>
</g>
<!-- T24 -->
<g id="node17" class="node">
<title>T24</title>
<ellipse fill="none" stroke="black" cx="928" cy="-90" rx="27" ry="18"/>
<text xml:space="preserve" text-anchor="middle" x="928" y="-85.8" font-family="Times,serif" font-size="14.00">T24</text>
</g>
<!-- 27&#45;&gt;T24 -->
<g id="edge13" class="edge">
<title>27&#45;&gt;T24</title>
<path fill="none" stroke="black" d="M1099.48,-152.56C1065.29,-140.28 1001.67,-117.45 962.27,-103.3"/>
<polygon fill="black" stroke="black" points="963.62,-100.07 953.03,-99.98 961.26,-106.66 963.62,-100.07"/>
</g>
<!-- T1 -->
<g id="node15" class="node">
<title>T1</title>
<ellipse fill="none" stroke="black" cx="578" cy="-90" rx="27" ry="18"/>
<text xml:space="preserve" text-anchor="middle" x="578" y="-85.8" font-family="Times,serif" font-size="14.00">T1</text>
</g>
<!-- 25&#45;&gt;T1 -->
<g id="edge11" class="edge">
<title>25&#45;&gt;T1</title>
<path fill="none" stroke="black" d="M1087.11,-431.71C1090.63,-412.82 1093.38,-382.3 1081,-360 1052.64,-308.92 1023.83,-312.97 971,-288 922.58,-265.12 904.89,-273.87 856,-252 770.49,-213.74 756.34,-190.47 675,-144 652.93,-131.39 627.72,-117.64 608.54,-107.3"/>
<polygon fill="black" stroke="black" points="610.36,-104.31 599.9,-102.66 607.05,-110.48 610.36,-104.31"/>
</g>
<!-- 26 -->
<g id="node16" class="node">
<title>26</title>
<ellipse fill="none" stroke="black" cx="1045" cy="-378" rx="27" ry="18"/>
<text xml:space="preserve" text-anchor="middle" x="1045" y="-373.8" font-family="Times,serif" font-size="14.00">26</text>
</g>
<!-- 25&#45;&gt;26 -->
<g id="edge12" class="edge">
<title>25&#45;&gt;26</title>
<path fill="none" stroke="black" d="M1074.19,-432.76C1069.73,-424.55 1064.2,-414.37 1059.16,-405.09"/>
<polygon fill="black" stroke="black" points="1062.33,-403.6 1054.49,-396.48 1056.18,-406.94 1062.33,-403.6"/>
</g>
<!-- S1 -->
<g id="node4" class="node">
<title>S1</title>
<ellipse fill="none" stroke="black" cx="440" cy="-594" rx="27" ry="18"/>
<text xml:space="preserve" text-anchor="middle" x="440" y="-589.8" font-family="Times,serif" font-size="14.00">S1</text>
</g>
<!-- 10 -->
<g id="node5" class="node">
<title>10</title>
<ellipse fill="none" stroke="black" cx="366" cy="-522" rx="27" ry="18"/>
<text xml:space="preserve" text-anchor="middle" x="366" y="-517.8" font-family="Times,serif" font-size="14.00">10</text>
</g>
<!-- S1&#45;&gt;10 -->
<g id="edge3" class="edge">
<title>S1&#45;&gt;10</title>
<path fill="none" stroke="black" d="M425.02,-578.83C414.76,-569.13 400.94,-556.06 389.26,-545"/>
<polygon fill="black" stroke="black" points="391.98,-542.75 382.31,-538.42 387.17,-547.84 391.98,-542.75"/>
</g>
<!-- 2 -->
<g id="node6" class="node">
<title>2</title>
<ellipse fill="none" stroke="black" cx="476" cy="-522" rx="27" ry="18"/>
<text xml:space="preserve" text-anchor="middle" x="476" y="-517.8" font-family="Times,serif" font-size="14.00">2</text>
</g>
<!-- S1&#45;&gt;2 -->
<g id="edge4" class="edge">
<title>S1&#45;&gt;2</title>
<path fill="none" stroke="black" d="M448.35,-576.76C452.58,-568.55 457.81,-558.37 462.58,-549.09"/>
<polygon fill="black" stroke="black" points="465.54,-550.99 467,-540.49 459.32,-547.79 465.54,-550.99"/>
</g>
<!-- 10&#45;&gt;T1 -->
<g id="edge21" class="edge">
<title>10&#45;&gt;T1</title>
<path fill="none" stroke="black" d="M339.68,-516.68C255.76,-502.16 0,-451.93 0,-379 0,-379 0,-379 0,-233 0,-173.17 46.28,-168.2 101,-144 179.53,-109.26 440.83,-96.1 539.68,-92.3"/>
<polygon fill="black" stroke="black" points="539.53,-95.8 549.39,-91.93 539.27,-88.81 539.53,-95.8"/>
</g>
<!-- 11 -->
<g id="node22" class="node">
<title>11</title>
<ellipse fill="none" stroke="black" cx="863" cy="-378" rx="27" ry="18"/>
<text xml:space="preserve" text-anchor="middle" x="863" y="-373.8" font-family="Times,serif" font-size="14.00">11</text>
</g>
<!-- 10&#45;&gt;11 -->
<g id="edge19" class="edge">
<title>10&#45;&gt;11</title>
<path fill="none" stroke="black" d="M390.84,-514.4C405.12,-510.83 423.47,-506.62 440,-504 529.02,-489.88 776.52,-527.75 844,-468 860.73,-453.19 864.77,-427.57 865.04,-407.62"/>
<polygon fill="black" stroke="black" points="868.55,-407.8 864.85,-397.87 861.55,-407.94 868.55,-407.8"/>
</g>
<!-- 14 -->
<g id="node23" class="node">
<title>14</title>
<ellipse fill="none" stroke="black" cx="357" cy="-378" rx="27" ry="18"/>
<text xml:space="preserve" text-anchor="middle" x="357" y="-373.8" font-family="Times,serif" font-size="14.00">14</text>
</g>
<!-- 10&#45;&gt;14 -->
<g id="edge20" class="edge">
<title>10&#45;&gt;14</title>
<path fill="none" stroke="black" d="M364.9,-503.59C363.38,-479.61 360.62,-436.14 358.8,-407.42"/>
<polygon fill="black" stroke="black" points="362.31,-407.38 358.18,-397.62 355.32,-407.82 362.31,-407.38"/>
</g>
<!-- 13 -->
<g id="node24" class="node">
<title>13</title>
<ellipse fill="none" stroke="black" cx="440" cy="-450" rx="27" ry="18"/>
<text xml:space="preserve" text-anchor="middle" x="440" y="-445.8" font-family="Times,serif" font-size="14.00">13</text>
</g>
<!-- 10&#45;&gt;13 -->
<g id="edge22" class="edge">
<title>10&#45;&gt;13</title>
<path fill="none" stroke="black" d="M380.98,-506.83C391.24,-497.13 405.06,-484.06 416.74,-473"/>
<polygon fill="black" stroke="black" points="418.83,-475.84 423.69,-466.42 414.02,-470.75 418.83,-475.84"/>
</g>
<!-- 12 -->
<g id="node25" class="node">
<title>12</title>
<ellipse fill="none" stroke="black" cx="165" cy="-306" rx="27" ry="18"/>
<text xml:space="preserve" text-anchor="middle" x="165" y="-301.8" font-family="Times,serif" font-size="14.00">12</text>
</g>
<!-- 10&#45;&gt;12 -->
<g id="edge23" class="edge">
<title>10&#45;&gt;12</title>
<path fill="none" stroke="black" d="M338.54,-521.73C297.95,-521.18 222.59,-513.59 184,-468 152.61,-430.91 154.91,-370.62 159.75,-335.3"/>
<polygon fill="black" stroke="black" points="163.2,-335.83 161.28,-325.42 156.29,-334.76 163.2,-335.83"/>
</g>
<!-- 2&#45;&gt;T1 -->
<g id="edge17" class="edge">
<title>2&#45;&gt;T1</title>
<path fill="none" stroke="black" d="M453.56,-511.43C436.51,-502.81 414.3,-488.36 404,-468 396.78,-453.72 400.26,-447.56 404,-432 408.1,-414.95 523.72,-194.2 564.18,-117.25"/>
<polygon fill="black" stroke="black" points="567.11,-119.2 568.67,-108.72 560.92,-115.94 567.11,-119.2"/>
</g>
<!-- 3 -->
<g id="node18" class="node">
<title>3</title>
<ellipse fill="none" stroke="black" cx="935" cy="-378" rx="27" ry="18"/>
<text xml:space="preserve" text-anchor="middle" x="935" y="-373.8" font-family="Times,serif" font-size="14.00">3</text>
</g>
<!-- 2&#45;&gt;3 -->
<g id="edge14" class="edge">
<title>2&#45;&gt;3</title>
<path fill="none" stroke="black" d="M502.64,-517.78C590.96,-507.07 869.01,-473.04 877,-468 899.75,-453.66 915.4,-426.79 924.66,-406.31"/>
<polygon fill="black" stroke="black" points="927.76,-407.96 928.44,-397.39 921.31,-405.23 927.76,-407.96"/>
</g>
<!-- 16 -->
<g id="node19" class="node">
<title>16</title>
<ellipse fill="none" stroke="black" cx="478" cy="-378" rx="27" ry="18"/>
<text xml:space="preserve" text-anchor="middle" x="478" y="-373.8" font-family="Times,serif" font-size="14.00">16</text>
</g>
<!-- 2&#45;&gt;16 -->
<g id="edge15" class="edge">
<title>2&#45;&gt;16</title>
<path fill="none" stroke="black" d="M476.25,-503.59C476.58,-479.61 477.2,-436.14 477.6,-407.42"/>
<polygon fill="black" stroke="black" points="481.1,-407.67 477.74,-397.62 474.1,-407.57 481.1,-407.67"/>
</g>
<!-- 17 -->
<g id="node20" class="node">
<title>17</title>
<ellipse fill="none" stroke="black" cx="588" cy="-450" rx="27" ry="18"/>
<text xml:space="preserve" text-anchor="middle" x="588" y="-445.8" font-family="Times,serif" font-size="14.00">17</text>
</g>
<!-- 2&#45;&gt;17 -->
<g id="edge16" class="edge">
<title>2&#45;&gt;17</title>
<path fill="none" stroke="black" d="M495.25,-508.97C512.8,-498 538.97,-481.64 559.04,-469.1"/>
<polygon fill="black" stroke="black" points="560.71,-472.18 567.34,-463.91 557,-466.24 560.71,-472.18"/>
</g>
<!-- 18 -->
<g id="node21" class="node">
<title>18</title>
<ellipse fill="none" stroke="black" cx="292" cy="-450" rx="27" ry="18"/>
<text xml:space="preserve" text-anchor="middle" x="292" y="-445.8" font-family="Times,serif" font-size="14.00">18</text>
</g>
<!-- 2&#45;&gt;18 -->
<g id="edge18" class="edge">
<title>2&#45;&gt;18</title>
<path fill="none" stroke="black" d="M453.07,-512.28C421.11,-500.12 362.96,-478 325.97,-463.92"/>
<polygon fill="black" stroke="black" points="327.23,-460.66 316.64,-460.37 324.74,-467.2 327.23,-460.66"/>
</g>
<!-- S35 -->
<g id="node7" class="node">
<title>S35</title>
<ellipse fill="none" stroke="black" cx="789" cy="-594" rx="27" ry="18"/>
<text xml:space="preserve" text-anchor="middle" x="789" y="-589.8" font-family="Times,serif" font-size="14.00">S35</text>
</g>
<!-- 36 -->
<g id="node8" class="node">
<title>36</title>
<ellipse fill="none" stroke="black" cx="753" cy="-522" rx="27" ry="18"/>
<text xml:space="preserve" text-anchor="middle" x="753" y="-517.8" font-family="Times,serif" font-size="14.00">36</text>
</g>
<!-- S35&#45;&gt;36 -->
<g id="edge5" class="edge">
<title>S35&#45;&gt;36</title>
<path fill="none" stroke="black" d="M780.65,-576.76C776.42,-568.55 771.19,-558.37 766.42,-549.09"/>
<polygon fill="black" stroke="black" points="769.68,-547.79 762,-540.49 763.46,-550.99 769.68,-547.79"/>
</g>
<!-- 43 -->
<g id="node9" class="node">
<title>43</title>
<ellipse fill="none" stroke="black" cx="825" cy="-522" rx="27" ry="18"/>
<text xml:space="preserve" text-anchor="middle" x="825" y="-517.8" font-family="Times,serif" font-size="14.00">43</text>
</g>
<!-- S35&#45;&gt;43 -->
<g id="edge6" class="edge">
<title>S35&#45;&gt;43</title>
<path fill="none" stroke="black" d="M797.35,-576.76C801.58,-568.55 806.81,-558.37 811.58,-549.09"/>
<polygon fill="black" stroke="black" points="814.54,-550.99 816,-540.49 808.32,-547.79 814.54,-550.99"/>
</g>
<!-- 19 -->
<g id="node31" class="node">
<title>19</title>
<ellipse fill="none" stroke="black" cx="660" cy="-378" rx="27" ry="18"/>
<text xml:space="preserve" text-anchor="middle" x="660" y="-373.8" font-family="Times,serif" font-size="14.00">19</text>
</g>
<!-- 36&#45;&gt;19 -->
<g id="edge44" class="edge">
<title>36&#45;&gt;19</title>
<path fill="none" stroke="black" d="M752.92,-503.52C752.05,-484.48 748.28,-453.81 734,-432 723.66,-416.21 706.86,-403.62 691.88,-394.68"/>
<polygon fill="black" stroke="black" points="693.65,-391.66 683.22,-389.81 690.23,-397.76 693.65,-391.66"/>
</g>
<!-- 38 -->
<g id="node36" class="node">
<title>38</title>
<ellipse fill="none" stroke="black" cx="956" cy="-450" rx="27" ry="18"/>
<text xml:space="preserve" text-anchor="middle" x="956" y="-445.8" font-family="Times,serif" font-size="14.00">38</text>
</g>
<!-- 43&#45;&gt;38 -->
<g id="edge42" class="edge">
<title>43&#45;&gt;38</title>
<path fill="none" stroke="black" d="M845.76,-509.91C867.22,-498.44 900.96,-480.41 925.47,-467.32"/>
<polygon fill="black" stroke="black" points="926.83,-470.55 934,-462.75 923.54,-464.38 926.83,-470.55"/>
</g>
<!-- 40 -->
<g id="node37" class="node">
<title>40</title>
<ellipse fill="none" stroke="black" cx="698" cy="-450" rx="27" ry="18"/>
<text xml:space="preserve" text-anchor="middle" x="698" y="-445.8" font-family="Times,serif" font-size="14.00">40</text>
</g>
<!-- 43&#45;&gt;40 -->
<g id="edge43" class="edge">
<title>43&#45;&gt;40</title>
<path fill="none" stroke="black" d="M804.6,-509.75C783.95,-498.37 751.8,-480.65 728.2,-467.65"/>
<polygon fill="black" stroke="black" points="730.13,-464.71 719.68,-462.95 726.75,-470.84 730.13,-464.71"/>
</g>
<!-- S30 -->
<g id="node10" class="node">
<title>S30</title>
<ellipse fill="none" stroke="black" cx="220" cy="-450" rx="27" ry="18"/>
<text xml:space="preserve" text-anchor="middle" x="220" y="-445.8" font-family="Times,serif" font-size="14.00">S30</text>
</g>
<!-- 31 -->
<g id="node11" class="node">
<title>31</title>
<ellipse fill="none" stroke="black" cx="419" cy="-306" rx="27" ry="18"/>
<text xml:space="preserve" text-anchor="middle" x="419" y="-301.8" font-family="Times,serif" font-size="14.00">31</text>
</g>
<!-- S30&#45;&gt;31 -->
<g id="edge7" class="edge">
<title>S30&#45;&gt;31</title>
<path fill="none" stroke="black" d="M234.51,-434.29C253.37,-415.64 287.84,-383.13 321,-360 341.88,-345.43 367.2,-331.84 386.87,-322.06"/>
<polygon fill="black" stroke="black" points="388.34,-325.24 395.79,-317.71 385.27,-318.95 388.34,-325.24"/>
</g>
<!-- 33 -->
<g id="node12" class="node">
<title>33</title>
<ellipse fill="none" stroke="black" cx="93" cy="-378" rx="27" ry="18"/>
<text xml:space="preserve" text-anchor="middle" x="93" y="-373.8" font-family="Times,serif" font-size="14.00">33</text>
</g>
<!-- S30&#45;&gt;33 -->
<g id="edge8" class="edge">
<title>S30&#45;&gt;33</title>
<path fill="none" stroke="black" d="M199.6,-437.75C178.95,-426.37 146.8,-408.65 123.2,-395.65"/>
<polygon fill="black" stroke="black" points="125.13,-392.71 114.68,-390.95 121.75,-398.84 125.13,-392.71"/>
</g>
<!-- 31&#45;&gt;T1 -->
<g id="edge24" class="edge">
<title>31&#45;&gt;T1</title>
<path fill="none" stroke="black" d="M415.58,-287.74C412.74,-269.15 410.65,-239.14 421,-216 445.26,-161.78 506.83,-124.35 545.26,-105.38"/>
<polygon fill="black" stroke="black" points="546.55,-108.64 554.07,-101.17 543.54,-102.32 546.55,-108.64"/>
</g>
<!-- 32 -->
<g id="node26" class="node">
<title>32</title>
<ellipse fill="none" stroke="black" cx="457" cy="-234" rx="27" ry="18"/>
<text xml:space="preserve" text-anchor="middle" x="457" y="-229.8" font-family="Times,serif" font-size="14.00">32</text>
</g>
<!-- 31&#45;&gt;32 -->
<g id="edge25" class="edge">
<title>31&#45;&gt;32</title>
<path fill="none" stroke="black" d="M427.81,-288.76C432.27,-280.55 437.8,-270.37 442.84,-261.09"/>
<polygon fill="black" stroke="black" points="445.82,-262.94 447.51,-252.48 439.67,-259.6 445.82,-262.94"/>
</g>
<!-- T30 -->
<g id="node27" class="node">
<title>T30</title>
<ellipse fill="none" stroke="black" cx="137" cy="-162" rx="27" ry="18"/>
<text xml:space="preserve" text-anchor="middle" x="137" y="-157.8" font-family="Times,serif" font-size="14.00">T30</text>
</g>
<!-- 33&#45;&gt;T30 -->
<g id="edge26" class="edge">
<title>33&#45;&gt;T30</title>
<path fill="none" stroke="black" d="M79.25,-362.07C71.04,-352.1 61.38,-338.25 57,-324 52.3,-308.71 52.51,-303.36 57,-288 68.5,-248.7 96.55,-210.03 116.17,-186.35"/>
<polygon fill="black" stroke="black" points="118.69,-188.78 122.5,-178.89 113.36,-184.25 118.69,-188.78"/>
</g>
<!-- 34 -->
<g id="node28" class="node">
<title>34</title>
<ellipse fill="none" stroke="black" cx="93" cy="-306" rx="27" ry="18"/>
<text xml:space="preserve" text-anchor="middle" x="93" y="-301.8" font-family="Times,serif" font-size="14.00">34</text>
</g>
<!-- 33&#45;&gt;34 -->
<g id="edge27" class="edge">
<title>33&#45;&gt;34</title>
<path fill="none" stroke="black" d="M93,-359.7C93,-352.41 93,-343.73 93,-335.54"/>
<polygon fill="black" stroke="black" points="96.5,-335.62 93,-325.62 89.5,-335.62 96.5,-335.62"/>
</g>
<!-- 9 -->
<g id="node13" class="node">
<title>9</title>
<ellipse fill="none" stroke="black" cx="808" cy="-450" rx="27" ry="18"/>
<text xml:space="preserve" text-anchor="middle" x="808" y="-445.8" font-family="Times,serif" font-size="14.00">9</text>
</g>
<!-- 42 -->
<g id="node14" class="node">
<title>42</title>
<ellipse fill="none" stroke="black" cx="791" cy="-378" rx="27" ry="18"/>
<text xml:space="preserve" text-anchor="middle" x="791" y="-373.8" font-family="Times,serif" font-size="14.00">42</text>
</g>
<!-- 9&#45;&gt;42 -->
<g id="edge9" class="edge">
<title>9&#45;&gt;42</title>
<path fill="none" stroke="black" d="M803.88,-432.05C802.07,-424.6 799.9,-415.64 797.85,-407.22"/>
<polygon fill="black" stroke="black" points="801.31,-406.64 795.55,-397.75 794.51,-408.29 801.31,-406.64"/>
</g>
<!-- 9&#45;&gt;T1 -->
<g id="edge10" class="edge">
<title>9&#45;&gt;T1</title>
<path fill="none" stroke="black" d="M789.7,-436.5C777.45,-426.98 762.28,-412.7 755,-396 735.8,-351.97 768.76,-332.63 751,-288 720.22,-210.68 645.16,-143.31 604.77,-111.13"/>
<polygon fill="black" stroke="black" points="606.99,-108.42 596.96,-105.01 602.67,-113.93 606.99,-108.42"/>
</g>
<!-- 4 -->
<g id="node29" class="node">
<title>4</title>
<ellipse fill="none" stroke="black" cx="935" cy="-306" rx="27" ry="18"/>
<text xml:space="preserve" text-anchor="middle" x="935" y="-301.8" font-family="Times,serif" font-size="14.00">4</text>
</g>
<!-- 42&#45;&gt;4 -->
<g id="edge28" class="edge">
<title>42&#45;&gt;4</title>
<path fill="none" stroke="black" d="M812.56,-366.52C836.66,-354.8 875.92,-335.72 903.47,-322.32"/>
<polygon fill="black" stroke="black" points="904.94,-325.5 912.4,-317.98 901.88,-319.21 904.94,-325.5"/>
</g>
<!-- 26&#45;&gt;4 -->
<g id="edge29" class="edge">
<title>26&#45;&gt;4</title>
<path fill="none" stroke="black" d="M1025.84,-364.81C1008.65,-353.87 983.18,-337.66 963.58,-325.19"/>
<polygon fill="black" stroke="black" points="965.53,-322.28 955.22,-319.87 961.78,-328.19 965.53,-322.28"/>
</g>
<!-- 3&#45;&gt;4 -->
<g id="edge30" class="edge">
<title>3&#45;&gt;4</title>
<path fill="none" stroke="black" d="M935,-359.7C935,-352.41 935,-343.73 935,-335.54"/>
<polygon fill="black" stroke="black" points="938.5,-335.62 935,-325.62 931.5,-335.62 938.5,-335.62"/>
</g>
<!-- 15 -->
<g id="node30" class="node">
<title>15</title>
<ellipse fill="none" stroke="black" cx="578" cy="-234" rx="27" ry="18"/>
<text xml:space="preserve" text-anchor="middle" x="578" y="-229.8" font-family="Times,serif" font-size="14.00">15</text>
</g>
<!-- 16&#45;&gt;15 -->
<g id="edge31" class="edge">
<title>16&#45;&gt;15</title>
<path fill="none" stroke="black" d="M492.74,-362.41C502.72,-352.14 515.87,-337.82 526,-324 540.61,-304.06 554.59,-279.73 564.37,-261.55"/>
<polygon fill="black" stroke="black" points="567.46,-263.19 569.04,-252.72 561.27,-259.92 567.46,-263.19"/>
</g>
<!-- 17&#45;&gt;19 -->
<g id="edge32" class="edge">
<title>17&#45;&gt;19</title>
<path fill="none" stroke="black" d="M602.92,-434.5C612.77,-424.92 625.86,-412.19 637.03,-401.34"/>
<polygon fill="black" stroke="black" points="639.29,-404.02 644.02,-394.54 634.41,-399 639.29,-404.02"/>
</g>
<!-- 29 -->
<g id="node32" class="node">
<title>29</title>
<ellipse fill="none" stroke="black" cx="192" cy="-234" rx="27" ry="18"/>
<text xml:space="preserve" text-anchor="middle" x="192" y="-229.8" font-family="Times,serif" font-size="14.00">29</text>
</g>
<!-- 18&#45;&gt;29 -->
<g id="edge33" class="edge">
<title>18&#45;&gt;29</title>
<path fill="none" stroke="black" d="M284.32,-432.56C267.16,-395.84 225.57,-306.84 204.57,-261.91"/>
<polygon fill="black" stroke="black" points="207.75,-260.44 200.35,-252.86 201.41,-263.41 207.75,-260.44"/>
</g>
<!-- 11&#45;&gt;4 -->
<g id="edge34" class="edge">
<title>11&#45;&gt;4</title>
<path fill="none" stroke="black" d="M877.92,-362.5C887.77,-352.92 900.86,-340.19 912.03,-329.34"/>
<polygon fill="black" stroke="black" points="914.29,-332.02 919.02,-322.54 909.41,-327 914.29,-332.02"/>
</g>
<!-- 14&#45;&gt;15 -->
<g id="edge35" class="edge">
<title>14&#45;&gt;15</title>
<path fill="none" stroke="black" d="M378.1,-366.6C398.25,-356.43 429.29,-340.16 455,-324 489.68,-302.21 527.57,-274.08 552,-255.34"/>
<polygon fill="black" stroke="black" points="554,-258.22 559.78,-249.34 549.73,-252.68 554,-258.22"/>
</g>
<!-- 13&#45;&gt;19 -->
<g id="edge40" class="edge">
<title>13&#45;&gt;19</title>
<path fill="none" stroke="black" d="M465.42,-443.06C501.31,-434.35 568.64,-416.89 624,-396 625.54,-395.42 627.1,-394.8 628.66,-394.16"/>
<polygon fill="black" stroke="black" points="629.79,-397.48 637.54,-390.25 626.98,-391.08 629.79,-397.48"/>
</g>
<!-- 12&#45;&gt;29 -->
<g id="edge41" class="edge">
<title>12&#45;&gt;29</title>
<path fill="none" stroke="black" d="M171.54,-288.05C174.52,-280.32 178.13,-270.96 181.48,-262.27"/>
<polygon fill="black" stroke="black" points="184.65,-263.79 184.98,-253.2 178.12,-261.27 184.65,-263.79"/>
</g>
<!-- 23 -->
<g id="node38" class="node">
<title>23</title>
<ellipse fill="none" stroke="black" cx="892" cy="-162" rx="27" ry="18"/>
<text xml:space="preserve" text-anchor="middle" x="892" y="-157.8" font-family="Times,serif" font-size="14.00">23</text>
</g>
<!-- 32&#45;&gt;23 -->
<g id="edge45" class="edge">
<title>32&#45;&gt;23</title>
<path fill="none" stroke="black" d="M482.61,-227.55C499.45,-224.05 521.99,-219.51 542,-216 655.4,-196.09 790.26,-176.94 854.45,-168.09"/>
<polygon fill="black" stroke="black" points="854.66,-171.6 864.09,-166.77 853.7,-164.66 854.66,-171.6"/>
</g>
<!-- 34&#45;&gt;29 -->
<g id="edge46" class="edge">
<title>34&#45;&gt;29</title>
<path fill="none" stroke="black" d="M111.16,-292.16C126.23,-281.5 147.89,-266.19 164.99,-254.1"/>
<polygon fill="black" stroke="black" points="166.58,-257.26 172.72,-248.63 162.54,-251.55 166.58,-257.26"/>
</g>
<!-- 5 -->
<g id="node39" class="node">
<title>5</title>
<ellipse fill="none" stroke="black" cx="964" cy="-234" rx="27" ry="18"/>
<text xml:space="preserve" text-anchor="middle" x="964" y="-229.8" font-family="Times,serif" font-size="14.00">5</text>
</g>
<!-- 4&#45;&gt;5 -->
<g id="edge51" class="edge">
<title>4&#45;&gt;5</title>
<path fill="none" stroke="black" d="M941.87,-288.41C945.16,-280.48 949.18,-270.78 952.88,-261.84"/>
<polygon fill="black" stroke="black" points="956,-263.45 956.6,-252.87 949.54,-260.77 956,-263.45"/>
</g>
<!-- 15&#45;&gt;T1 -->
<g id="edge62" class="edge">
<title>15&#45;&gt;T1</title>
<path fill="none" stroke="black" d="M578,-215.59C578,-191.61 578,-148.14 578,-119.42"/>
<polygon fill="black" stroke="black" points="581.5,-119.62 578,-109.62 574.5,-119.62 581.5,-119.62"/>
</g>
<!-- 21 -->
<g id="node40" class="node">
<title>21</title>
<ellipse fill="none" stroke="black" cx="715" cy="-306" rx="27" ry="18"/>
<text xml:space="preserve" text-anchor="middle" x="715" y="-301.8" font-family="Times,serif" font-size="14.00">21</text>
</g>
<!-- 19&#45;&gt;21 -->
<g id="edge52" class="edge">
<title>19&#45;&gt;21</title>
<path fill="none" stroke="black" d="M672.21,-361.46C679.11,-352.67 687.91,-341.48 695.73,-331.53"/>
<polygon fill="black" stroke="black" points="698.47,-333.71 701.89,-323.68 692.96,-329.38 698.47,-333.71"/>
</g>
<!-- 20 -->
<g id="node41" class="node">
<title>20</title>
<ellipse fill="none" stroke="black" cx="643" cy="-306" rx="27" ry="18"/>
<text xml:space="preserve" text-anchor="middle" x="643" y="-301.8" font-family="Times,serif" font-size="14.00">20</text>
</g>
<!-- 19&#45;&gt;20 -->
<g id="edge53" class="edge">
<title>19&#45;&gt;20</title>
<path fill="none" stroke="black" d="M655.88,-360.05C654.07,-352.6 651.9,-343.64 649.85,-335.22"/>
<polygon fill="black" stroke="black" points="653.31,-334.64 647.55,-325.75 646.51,-336.29 653.31,-334.64"/>
</g>
<!-- 28 -->
<g id="node42" class="node">
<title>28</title>
<ellipse fill="none" stroke="black" cx="347" cy="-306" rx="27" ry="18"/>
<text xml:space="preserve" text-anchor="middle" x="347" y="-301.8" font-family="Times,serif" font-size="14.00">28</text>
</g>
<!-- 19&#45;&gt;28 -->
<g id="edge54" class="edge">
<title>19&#45;&gt;28</title>
<path fill="none" stroke="black" d="M639.47,-366.04C634.52,-363.76 629.16,-361.57 624,-360 520.37,-328.54 486.63,-355.46 383,-324 381.39,-323.51 379.76,-322.96 378.12,-322.37"/>
<polygon fill="black" stroke="black" points="379.5,-319.15 368.93,-318.54 376.81,-325.61 379.5,-319.15"/>
</g>
<!-- 29&#45;&gt;T30 -->
<g id="edge65" class="edge">
<title>29&#45;&gt;T30</title>
<path fill="none" stroke="black" d="M179.79,-217.46C172.89,-208.67 164.09,-197.48 156.27,-187.53"/>
<polygon fill="black" stroke="black" points="159.04,-185.38 150.11,-179.68 153.53,-189.71 159.04,-185.38"/>
</g>
<!-- 37 -->
<g id="node33" class="node">
<title>37</title>
<ellipse fill="none" stroke="black" cx="662" cy="-522" rx="27" ry="18"/>
<text xml:space="preserve" text-anchor="middle" x="662" y="-517.8" font-family="Times,serif" font-size="14.00">37</text>
</g>
<!-- 39 -->
<g id="node34" class="node">
<title>39</title>
<ellipse fill="none" stroke="black" cx="588" cy="-378" rx="27" ry="18"/>
<text xml:space="preserve" text-anchor="middle" x="588" y="-373.8" font-family="Times,serif" font-size="14.00">39</text>
</g>
<!-- 37&#45;&gt;39 -->
<g id="edge36" class="edge">
<title>37&#45;&gt;39</title>
<path fill="none" stroke="black" d="M655.92,-504.15C649.09,-485.9 637.21,-456.18 624,-432 618.73,-422.35 612.16,-412.26 606.09,-403.5"/>
<polygon fill="black" stroke="black" points="609.05,-401.63 600.41,-395.5 603.35,-405.68 609.05,-401.63"/>
</g>
<!-- 41 -->
<g id="node35" class="node">
<title>41</title>
<ellipse fill="none" stroke="black" cx="275" cy="-306" rx="27" ry="18"/>
<text xml:space="preserve" text-anchor="middle" x="275" y="-301.8" font-family="Times,serif" font-size="14.00">41</text>
</g>
<!-- 37&#45;&gt;41 -->
<g id="edge37" class="edge">
<title>37&#45;&gt;41</title>
<path fill="none" stroke="black" d="M636.74,-514.89C611.93,-507.66 574.62,-493.27 552,-468 518.06,-430.08 552.79,-392.94 514,-360 444.15,-300.69 398.31,-351.81 311,-324 309.39,-323.49 307.77,-322.92 306.14,-322.31"/>
<polygon fill="black" stroke="black" points="307.53,-319.1 296.95,-318.44 304.81,-325.55 307.53,-319.1"/>
</g>
<!-- 37&#45;&gt;38 -->
<g id="edge38" class="edge">
<title>37&#45;&gt;38</title>
<path fill="none" stroke="black" d="M685.92,-512.92C695.51,-509.86 706.71,-506.52 717,-504 803.88,-482.76 829.2,-493.27 915,-468 917.78,-467.18 920.63,-466.24 923.47,-465.22"/>
<polygon fill="black" stroke="black" points="924.72,-468.49 932.77,-461.6 922.18,-461.96 924.72,-468.49"/>
</g>
<!-- 37&#45;&gt;40 -->
<g id="edge39" class="edge">
<title>37&#45;&gt;40</title>
<path fill="none" stroke="black" d="M670.35,-504.76C674.58,-496.55 679.81,-486.37 684.58,-477.09"/>
<polygon fill="black" stroke="black" points="687.54,-478.99 689,-468.49 681.32,-475.79 687.54,-478.99"/>
</g>
<!-- 39&#45;&gt;15 -->
<g id="edge47" class="edge">
<title>39&#45;&gt;15</title>
<path fill="none" stroke="black" d="M586.77,-359.59C585.09,-335.61 582.02,-292.14 580,-263.42"/>
<polygon fill="black" stroke="black" points="583.51,-263.35 579.31,-253.62 576.52,-263.84 583.51,-263.35"/>
</g>
<!-- 41&#45;&gt;29 -->
<g id="edge48" class="edge">
<title>41&#45;&gt;29</title>
<path fill="none" stroke="black" d="M258.6,-291.17C246.78,-281.2 230.6,-267.56 217.15,-256.21"/>
<polygon fill="black" stroke="black" points="219.42,-253.55 209.52,-249.78 214.91,-258.9 219.42,-253.55"/>
</g>
<!-- 38&#45;&gt;4 -->
<g id="edge49" class="edge">
<title>38&#45;&gt;4</title>
<path fill="none" stroke="black" d="M963.35,-432.3C970.27,-414.18 978.55,-384.56 971,-360 967.82,-349.65 961.85,-339.51 955.67,-330.91"/>
<polygon fill="black" stroke="black" points="958.55,-328.91 949.67,-323.13 953.01,-333.19 958.55,-328.91"/>
</g>
<!-- 40&#45;&gt;19 -->
<g id="edge50" class="edge">
<title>40&#45;&gt;19</title>
<path fill="none" stroke="black" d="M689.19,-432.76C684.73,-424.55 679.2,-414.37 674.16,-405.09"/>
<polygon fill="black" stroke="black" points="677.33,-403.6 669.49,-396.48 671.18,-406.94 677.33,-403.6"/>
</g>
<!-- 23&#45;&gt;T1 -->
<g id="edge68" class="edge">
<title>23&#45;&gt;T1</title>
<path fill="none" stroke="black" d="M870.17,-150.99C864.05,-148.46 857.35,-145.91 851,-144 768.69,-119.22 668.83,-103.27 615.64,-95.86"/>
<polygon fill="black" stroke="black" points="616.28,-92.41 605.9,-94.53 615.33,-99.35 616.28,-92.41"/>
</g>
<!-- 23&#45;&gt;T24 -->
<g id="edge67" class="edge">
<title>23&#45;&gt;T24</title>
<path fill="none" stroke="black" d="M900.35,-144.76C904.58,-136.55 909.81,-126.37 914.58,-117.09"/>
<polygon fill="black" stroke="black" points="917.54,-118.99 919,-108.49 911.32,-115.79 917.54,-118.99"/>
</g>
<!-- 5&#45;&gt;23 -->
<g id="edge57" class="edge">
<title>5&#45;&gt;23</title>
<path fill="none" stroke="black" d="M949.08,-218.5C939.23,-208.92 926.14,-196.19 914.97,-185.34"/>
<polygon fill="black" stroke="black" points="917.59,-183 907.98,-178.54 912.71,-188.02 917.59,-183"/>
</g>
<!-- 6 -->
<g id="node43" class="node">
<title>6</title>
<ellipse fill="none" stroke="black" cx="1036" cy="-162" rx="27" ry="18"/>
<text xml:space="preserve" text-anchor="middle" x="1036" y="-157.8" font-family="Times,serif" font-size="14.00">6</text>
</g>
<!-- 5&#45;&gt;6 -->
<g id="edge55" class="edge">
<title>5&#45;&gt;6</title>
<path fill="none" stroke="black" d="M978.92,-218.5C988.77,-208.92 1001.86,-196.19 1013.03,-185.34"/>
<polygon fill="black" stroke="black" points="1015.29,-188.02 1020.02,-178.54 1010.41,-183 1015.29,-188.02"/>
</g>
<!-- T35 -->
<g id="node44" class="node">
<title>T35</title>
<ellipse fill="none" stroke="black" cx="964" cy="-162" rx="27" ry="18"/>
<text xml:space="preserve" text-anchor="middle" x="964" y="-157.8" font-family="Times,serif" font-size="14.00">T35</text>
</g>
<!-- 5&#45;&gt;T35 -->
<g id="edge56" class="edge">
<title>5&#45;&gt;T35</title>
<path fill="none" stroke="black" d="M964,-215.7C964,-208.41 964,-199.73 964,-191.54"/>
<polygon fill="black" stroke="black" points="967.5,-191.62 964,-181.62 960.5,-191.62 967.5,-191.62"/>
</g>
<!-- 22 -->
<g id="node45" class="node">
<title>22</title>
<ellipse fill="none" stroke="black" cx="892" cy="-234" rx="27" ry="18"/>
<text xml:space="preserve" text-anchor="middle" x="892" y="-229.8" font-family="Times,serif" font-size="14.00">22</text>
</g>
<!-- 21&#45;&gt;22 -->
<g id="edge58" class="edge">
<title>21&#45;&gt;22</title>
<path fill="none" stroke="black" d="M737.78,-295.99C768.49,-283.84 823.41,-262.13 858.74,-248.15"/>
<polygon fill="black" stroke="black" points="859.61,-251.57 867.62,-244.64 857.04,-245.06 859.61,-251.57"/>
</g>
<!-- 20&#45;&gt;15 -->
<g id="edge59" class="edge">
<title>20&#45;&gt;15</title>
<path fill="none" stroke="black" d="M629.22,-290.15C620.6,-280.87 609.32,-268.73 599.54,-258.19"/>
<polygon fill="black" stroke="black" points="602.16,-255.88 592.79,-250.93 597.03,-260.64 602.16,-255.88"/>
</g>
<!-- 28&#45;&gt;29 -->
<g id="edge60" class="edge">
<title>28&#45;&gt;29</title>
<path fill="none" stroke="black" d="M325.33,-294.67C320.62,-292.45 315.65,-290.13 311,-288 281.76,-274.59 248.29,-259.72 224.3,-249.15"/>
<polygon fill="black" stroke="black" points="225.95,-246.06 215.38,-245.23 223.13,-252.46 225.95,-246.06"/>
</g>
<!-- 7 -->
<g id="node46" class="node">
<title>7</title>
<ellipse fill="none" stroke="black" cx="1036" cy="-90" rx="27" ry="18"/>
<text xml:space="preserve" text-anchor="middle" x="1036" y="-85.8" font-family="Times,serif" font-size="14.00">7</text>
</g>
<!-- 6&#45;&gt;7 -->
<g id="edge61" class="edge">
<title>6&#45;&gt;7</title>
<path fill="none" stroke="black" d="M1036,-143.7C1036,-136.41 1036,-127.73 1036,-119.54"/>
<polygon fill="black" stroke="black" points="1039.5,-119.62 1036,-109.62 1032.5,-119.62 1039.5,-119.62"/>
</g>
<!-- 22&#45;&gt;23 -->
<g id="edge63" class="edge">
<title>22&#45;&gt;23</title>
<path fill="none" stroke="black" d="M892,-215.7C892,-208.41 892,-199.73 892,-191.54"/>
<polygon fill="black" stroke="black" points="895.5,-191.62 892,-181.62 888.5,-191.62 895.5,-191.62"/>
</g>
<!-- 22&#45;&gt;T35 -->
<g id="edge64" class="edge">
<title>22&#45;&gt;T35</title>
<path fill="none" stroke="black" d="M906.92,-218.5C916.77,-208.92 929.86,-196.19 941.03,-185.34"/>
<polygon fill="black" stroke="black" points="943.29,-188.02 948.02,-178.54 938.41,-183 943.29,-188.02"/>
</g>
<!-- T8 -->
<g id="node47" class="node">
<title>T8</title>
<ellipse fill="none" stroke="black" cx="1036" cy="-18" rx="27" ry="18"/>
<text xml:space="preserve" text-anchor="middle" x="1036" y="-13.8" font-family="Times,serif" font-size="14.00">T8</text>
</g>
<!-- 7&#45;&gt;T8 -->
<g id="edge66" class="edge">
<title>7&#45;&gt;T8</title>
<path fill="none" stroke="black" d="M1036,-71.7C1036,-64.41 1036,-55.73 1036,-47.54"/>
<polygon fill="black" stroke="black" points="1039.5,-47.62 1036,-37.62 1032.5,-47.62 1039.5,-47.62"/>
</g>
</g>
</svg>
