<?xml version="1.0" encoding="UTF-8" standalone="no"?>
<!DOCTYPE svg PUBLIC "-//W3C//DTD SVG 1.1//EN"
 "http://www.w3.org/Graphics/SVG/1.1/DTD/svg11.dtd">
<!-- Generated by graphviz version a (a)
 -->
<!-- Title: If.try_if_then Pages: 1 -->
<svg width="744pt" height="612pt"
 viewBox="0.00 0.00 744.00 612.00" xmlns="http://www.w3.org/2000/svg" xmlns:xlink="http://www.w3.org/1999/xlink">
<g id="graph0" class="graph" transform="scale(1 1) rotate(0) translate(4 607.8)">
<title>If.try_if_then</title>
<polygon fill="white" stroke="none" points="-4,4 -4,-607.8 740,-607.8 740,4 -4,4"/>
<text xml:space="preserve" text-anchor="middle" x="368" y="-8.2" font-family="Times,serif" font-size="14.00">If.try_if_then</text>
<g id="clust1" class="cluster">
<title>cluster_node_57</title>
<polygon fill="none" stroke="black" points="8,-372.8 8,-510.8 380,-510.8 380,-372.8 8,-372.8"/>
</g>
<g id="clust2" class="cluster">
<title>cluster_node_43</title>
<polygon fill="none" stroke="black" points="388,-457.8 388,-595.8 682,-595.8 682,-457.8 388,-457.8"/>
</g>
<g id="clust3" class="cluster">
<title>cluster_node_52</title>
<polygon fill="none" stroke="black" points="388,-202.8 388,-425.8 686,-425.8 686,-202.8 388,-202.8"/>
</g>
<g id="clust4" class="cluster">
<title>cluster_node_60</title>
<polygon fill="none" stroke="black" points="525,-117.8 525,-170.8 728,-170.8 728,-117.8 525,-117.8"/>
</g>
<g id="clust5" class="cluster">
<title>cluster_node_44</title>
<polygon fill="none" stroke="black" points="340,-32.8 340,-85.8 528,-85.8 528,-32.8 340,-32.8"/>
</g>
<!-- node_57 -->
<g id="node1" class="node">
<title>node_57</title>
<polygon fill="lightblue" stroke="lightblue" points="157.65,-466.3 157.65,-502.3 226.35,-502.3 226.35,-466.3 157.65,-466.3"/>
<text xml:space="preserve" text-anchor="middle" x="192" y="-480.7" font-family="Helvetica,sans-Serif" font-size="12.00">Block [57]</text>
</g>
<!-- node_58 -->
<g id="node2" class="node">
<title>node_58</title>
<polygon fill="lightblue" stroke="lightblue" points="221.55,-381.3 221.55,-417.3 322.45,-417.3 322.45,-381.3 221.55,-381.3"/>
<text xml:space="preserve" text-anchor="middle" x="272" y="-395.7" font-family="Helvetica,sans-Serif" font-size="12.00">Return [58@57]</text>
</g>
<!-- node_44 -->
<g id="node16" class="node">
<title>node_44</title>
<polygon fill="lightblue" stroke="lightblue" points="347.65,-41.3 347.65,-77.3 416.35,-77.3 416.35,-41.3 347.65,-41.3"/>
<text xml:space="preserve" text-anchor="middle" x="382" y="-55.7" font-family="Helvetica,sans-Serif" font-size="12.00">Block [44]</text>
</g>
<!-- node_58&#45;&gt;node_44 -->
<g id="edge17" class="edge">
<title>node_58&#45;&gt;node_44</title>
<path fill="none" stroke="black" d="M280.16,-370.26C284.1,-354.29 288,-333.84 288,-315.3 288,-315.3 288,-315.3 288,-143.3 288,-110.54 320.49,-87.61 347.26,-74.28"/>
<polygon fill="black" stroke="black" points="276.88,-368.97 277.71,-379.54 283.64,-370.76 276.88,-368.97"/>
<text xml:space="preserve" text-anchor="middle" x="296.06" y="-226.3" font-family="Helvetica,sans-Serif" font-size="10.00">exe</text>
</g>
<!-- node_50 -->
<g id="node3" class="node">
<title>node_50</title>
<polygon fill="lightblue" stroke="lightblue" points="15.89,-466.3 15.89,-502.3 140.11,-502.3 140.11,-466.3 15.89,-466.3"/>
<text xml:space="preserve" text-anchor="middle" x="78" y="-480.7" font-family="Helvetica,sans-Serif" font-size="12.00">Proj (mem) [50@43]</text>
</g>
<!-- node_50&#45;&gt;node_58 -->
<g id="edge1" class="edge">
<title>node_50&#45;&gt;node_58</title>
<path fill="none" stroke="black" d="M129.14,-461.42C161.09,-447.75 201.65,-430.4 231.38,-417.68"/>
<polygon fill="black" stroke="black" points="127.88,-458.15 120.06,-465.31 130.63,-464.59 127.88,-458.15"/>
<text xml:space="preserve" text-anchor="middle" x="197.73" y="-438.8" font-family="Helvetica,sans-Serif" font-size="10.00">mem</text>
</g>
<!-- node_61 -->
<g id="node15" class="node">
<title>node_61</title>
<polygon fill="lightblue" stroke="lightblue" points="619.55,-126.3 619.55,-162.3 720.45,-162.3 720.45,-126.3 619.55,-126.3"/>
<text xml:space="preserve" text-anchor="middle" x="670" y="-140.7" font-family="Helvetica,sans-Serif" font-size="12.00">Return [61@60]</text>
</g>
<!-- node_50&#45;&gt;node_61 -->
<g id="edge12" class="edge">
<title>node_50&#45;&gt;node_61</title>
<path fill="none" stroke="black" d="M131.18,-462.39C137.13,-460.6 143.15,-459.01 149,-457.8 239.99,-438.98 350,-493.22 350,-400.3 350,-400.3 350,-400.3 350,-228.3 350,-209.41 366.54,-210.02 384,-202.8 477.75,-164.04 512.26,-197.98 610,-170.8 617.63,-168.68 625.58,-165.81 633.09,-162.76"/>
<polygon fill="black" stroke="black" points="130.5,-458.94 122.06,-465.34 132.65,-465.6 130.5,-458.94"/>
<text xml:space="preserve" text-anchor="middle" x="361.11" y="-311.3" font-family="Helvetica,sans-Serif" font-size="10.00">mem</text>
</g>
<!-- node_48 -->
<g id="node4" class="node">
<title>node_48</title>
<polygon fill="lightblue" stroke="lightblue" points="243.88,-466.3 243.88,-502.3 372.12,-502.3 372.12,-466.3 243.88,-466.3"/>
<text xml:space="preserve" text-anchor="middle" x="308" y="-480.7" font-family="Helvetica,sans-Serif" font-size="12.00">Proj (arg_1) [48@43]</text>
</g>
<!-- node_48&#45;&gt;node_58 -->
<g id="edge2" class="edge">
<title>node_48&#45;&gt;node_58</title>
<path fill="none" stroke="black" d="M296.04,-455.72C290.61,-443.2 284.34,-428.76 279.57,-417.76"/>
<polygon fill="black" stroke="black" points="292.75,-456.93 299.94,-464.71 299.17,-454.15 292.75,-456.93"/>
<text xml:space="preserve" text-anchor="middle" x="297.44" y="-438.8" font-family="Helvetica,sans-Serif" font-size="10.00">int</text>
</g>
<!-- node_53 -->
<g id="node12" class="node">
<title>node_53</title>
<polygon fill="lightblue" stroke="lightblue" points="537.88,-381.3 537.88,-417.3 652.12,-417.3 652.12,-381.3 537.88,-381.3"/>
<text xml:space="preserve" text-anchor="middle" x="595" y="-395.7" font-family="Helvetica,sans-Serif" font-size="12.00">Compare [53@52]</text>
</g>
<!-- node_48&#45;&gt;node_53 -->
<g id="edge8" class="edge">
<title>node_48&#45;&gt;node_53</title>
<path fill="none" stroke="black" d="M368.97,-462.32C403.36,-450.57 441.1,-437.88 449.44,-435.8 475.91,-429.21 483.42,-431.95 510,-425.8 519.91,-423.51 530.35,-420.7 540.41,-417.8"/>
<polygon fill="black" stroke="black" points="368.2,-458.88 359.87,-465.43 370.47,-465.51 368.2,-458.88"/>
<text xml:space="preserve" text-anchor="middle" x="454.72" y="-438.8" font-family="Helvetica,sans-Serif" font-size="10.00">int</text>
</g>
<!-- node_43 -->
<g id="node5" class="node">
<title>node_43</title>
<polygon fill="lightblue" stroke="lightblue" points="395.65,-551.3 395.65,-587.3 464.35,-587.3 464.35,-551.3 395.65,-551.3"/>
<text xml:space="preserve" text-anchor="middle" x="430" y="-565.7" font-family="Helvetica,sans-Serif" font-size="12.00">Block [43]</text>
</g>
<!-- node_45 -->
<g id="node6" class="node">
<title>node_45</title>
<polygon fill="lightblue" stroke="lightblue" points="481.89,-551.3 481.89,-587.3 572.11,-587.3 572.11,-551.3 481.89,-551.3"/>
<text xml:space="preserve" text-anchor="middle" x="527" y="-565.7" font-family="Helvetica,sans-Serif" font-size="12.00">Start [45@43]</text>
</g>
<!-- node_45&#45;&gt;node_50 -->
<g id="edge3" class="edge">
<title>node_45&#45;&gt;node_50</title>
<path fill="none" stroke="black" d="M470.27,-550.44C329.19,-520.64 286.56,-543.56 149,-510.8 140.08,-508.68 130.73,-505.81 121.85,-502.76"/>
<polygon fill="black" stroke="black" points="469.51,-553.86 480.02,-552.56 471,-547.02 469.51,-553.86"/>
<text xml:space="preserve" text-anchor="middle" x="343.67" y="-523.8" font-family="Helvetica,sans-Serif" font-size="10.00">tuple</text>
</g>
<!-- node_45&#45;&gt;node_48 -->
<g id="edge5" class="edge">
<title>node_45&#45;&gt;node_48</title>
<path fill="none" stroke="black" d="M471.21,-547.16C434.94,-533.41 388.23,-515.7 354.07,-502.76"/>
<polygon fill="black" stroke="black" points="469.62,-550.29 480.21,-550.57 472.1,-543.75 469.62,-550.29"/>
<text xml:space="preserve" text-anchor="middle" x="441.45" y="-523.8" font-family="Helvetica,sans-Serif" font-size="10.00">tuple</text>
</g>
<!-- node_49 -->
<g id="node7" class="node">
<title>node_49</title>
<polygon fill="lightblue" stroke="lightblue" points="545.88,-466.3 545.88,-502.3 674.12,-502.3 674.12,-466.3 545.88,-466.3"/>
<text xml:space="preserve" text-anchor="middle" x="610" y="-480.7" font-family="Helvetica,sans-Serif" font-size="12.00">Proj (arg_2) [49@43]</text>
</g>
<!-- node_45&#45;&gt;node_49 -->
<g id="edge4" class="edge">
<title>node_45&#45;&gt;node_49</title>
<path fill="none" stroke="black" d="M552.32,-542.98C565.34,-529.96 580.87,-514.43 592.54,-502.76"/>
<polygon fill="black" stroke="black" points="549.86,-540.49 545.27,-550.03 554.81,-545.44 549.86,-540.49"/>
<text xml:space="preserve" text-anchor="middle" x="584.31" y="-523.8" font-family="Helvetica,sans-Serif" font-size="10.00">tuple</text>
</g>
<!-- node_51 -->
<g id="node8" class="node">
<title>node_51</title>
<polygon fill="lightblue" stroke="lightblue" points="396.22,-466.3 396.22,-502.3 527.78,-502.3 527.78,-466.3 396.22,-466.3"/>
<text xml:space="preserve" text-anchor="middle" x="462" y="-480.7" font-family="Helvetica,sans-Serif" font-size="12.00">Proj (exe(4)) [51@43]</text>
</g>
<!-- node_45&#45;&gt;node_51 -->
<g id="edge6" class="edge">
<title>node_45&#45;&gt;node_51</title>
<path fill="none" stroke="black" d="M506.58,-542.23C496.51,-529.37 484.64,-514.21 475.67,-502.76"/>
<polygon fill="black" stroke="black" points="503.68,-544.2 512.6,-549.91 509.19,-539.88 503.68,-544.2"/>
<text xml:space="preserve" text-anchor="middle" x="509.23" y="-523.8" font-family="Helvetica,sans-Serif" font-size="10.00">tuple</text>
</g>
<!-- node_49&#45;&gt;node_53 -->
<g id="edge9" class="edge">
<title>node_49&#45;&gt;node_53</title>
<path fill="none" stroke="black" d="M604.88,-454.96C602.65,-442.62 600.1,-428.54 598.16,-417.76"/>
<polygon fill="black" stroke="black" points="601.4,-455.39 606.62,-464.61 608.29,-454.15 601.4,-455.39"/>
<text xml:space="preserve" text-anchor="middle" x="608.68" y="-438.8" font-family="Helvetica,sans-Serif" font-size="10.00">int</text>
</g>
<!-- node_49&#45;&gt;node_61 -->
<g id="edge13" class="edge">
<title>node_49&#45;&gt;node_61</title>
<path fill="none" stroke="black" d="M666.89,-460.47C690.28,-447.02 712,-427.27 712,-400.3 712,-400.3 712,-400.3 712,-228.3 712,-203.59 697,-178.77 684.93,-162.8"/>
<polygon fill="black" stroke="black" points="665.32,-457.34 658.16,-465.14 668.62,-463.52 665.32,-457.34"/>
<text xml:space="preserve" text-anchor="middle" x="717.28" y="-311.3" font-family="Helvetica,sans-Serif" font-size="10.00">int</text>
</g>
<!-- node_52 -->
<g id="node9" class="node">
<title>node_52</title>
<polygon fill="lightblue" stroke="lightblue" points="432.65,-381.3 432.65,-417.3 501.35,-417.3 501.35,-381.3 432.65,-381.3"/>
<text xml:space="preserve" text-anchor="middle" x="467" y="-395.7" font-family="Helvetica,sans-Serif" font-size="12.00">Block [52]</text>
</g>
<!-- node_51&#45;&gt;node_52 -->
<g id="edge15" class="edge">
<title>node_51&#45;&gt;node_52</title>
<path fill="none" stroke="black" d="M463.71,-454.96C464.45,-442.62 465.3,-428.54 465.95,-417.76"/>
<polygon fill="black" stroke="black" points="460.23,-454.4 463.13,-464.59 467.22,-454.82 460.23,-454.4"/>
<text xml:space="preserve" text-anchor="middle" x="472.86" y="-438.8" font-family="Helvetica,sans-Serif" font-size="10.00">exe</text>
</g>
<!-- node_56 -->
<g id="node10" class="node">
<title>node_56</title>
<polygon fill="lightblue" stroke="lightblue" points="546.22,-211.3 546.22,-247.3 677.78,-247.3 677.78,-211.3 546.22,-211.3"/>
<text xml:space="preserve" text-anchor="middle" x="612" y="-225.7" font-family="Helvetica,sans-Serif" font-size="12.00">Proj (exe(0)) [56@52]</text>
</g>
<!-- node_60 -->
<g id="node14" class="node">
<title>node_60</title>
<polygon fill="lightblue" stroke="lightblue" points="532.65,-126.3 532.65,-162.3 601.35,-162.3 601.35,-126.3 532.65,-126.3"/>
<text xml:space="preserve" text-anchor="middle" x="567" y="-140.7" font-family="Helvetica,sans-Serif" font-size="12.00">Block [60]</text>
</g>
<!-- node_56&#45;&gt;node_60 -->
<g id="edge14" class="edge">
<title>node_56&#45;&gt;node_60</title>
<path fill="none" stroke="black" d="M597.25,-201.1C590.42,-188.49 582.49,-173.87 576.47,-162.76"/>
<polygon fill="black" stroke="black" points="594.11,-202.65 601.95,-209.77 600.27,-199.31 594.11,-202.65"/>
<text xml:space="preserve" text-anchor="middle" x="600.26" y="-183.8" font-family="Helvetica,sans-Serif" font-size="10.00">exe</text>
</g>
<!-- node_54 -->
<g id="node11" class="node">
<title>node_54</title>
<polygon fill="lightblue" stroke="lightblue" points="539.22,-296.3 539.22,-332.3 650.78,-332.3 650.78,-296.3 539.22,-296.3"/>
<text xml:space="preserve" text-anchor="middle" x="595" y="-310.7" font-family="Helvetica,sans-Serif" font-size="12.00">Cond (2) [54@52]</text>
</g>
<!-- node_54&#45;&gt;node_56 -->
<g id="edge7" class="edge">
<title>node_54&#45;&gt;node_56</title>
<path fill="none" stroke="black" d="M600.8,-284.96C603.33,-272.62 606.22,-258.54 608.42,-247.76"/>
<polygon fill="black" stroke="black" points="597.4,-284.12 598.83,-294.62 604.26,-285.53 597.4,-284.12"/>
<text xml:space="preserve" text-anchor="middle" x="615.36" y="-268.8" font-family="Helvetica,sans-Serif" font-size="10.00">tuple</text>
</g>
<!-- node_55 -->
<g id="node13" class="node">
<title>node_55</title>
<polygon fill="lightblue" stroke="lightblue" points="396.22,-211.3 396.22,-247.3 527.78,-247.3 527.78,-211.3 396.22,-211.3"/>
<text xml:space="preserve" text-anchor="middle" x="462" y="-225.7" font-family="Helvetica,sans-Serif" font-size="12.00">Proj (exe(1)) [55@52]</text>
</g>
<!-- node_54&#45;&gt;node_55 -->
<g id="edge11" class="edge">
<title>node_54&#45;&gt;node_55</title>
<path fill="none" stroke="black" d="M557.63,-289.98C536.11,-276.55 509.52,-259.96 489.84,-247.68"/>
<polygon fill="black" stroke="black" points="555.5,-292.77 565.83,-295.1 559.2,-286.84 555.5,-292.77"/>
<text xml:space="preserve" text-anchor="middle" x="547.31" y="-268.8" font-family="Helvetica,sans-Serif" font-size="10.00">tuple</text>
</g>
<!-- node_53&#45;&gt;node_54 -->
<g id="edge10" class="edge">
<title>node_53&#45;&gt;node_54</title>
<path fill="none" stroke="black" d="M595,-369.96C595,-357.62 595,-343.54 595,-332.76"/>
<polygon fill="black" stroke="black" points="591.5,-369.59 595,-379.59 598.5,-369.59 591.5,-369.59"/>
<text xml:space="preserve" text-anchor="middle" x="615.01" y="-353.8" font-family="Helvetica,sans-Serif" font-size="10.00">condition</text>
</g>
<!-- node_55&#45;&gt;node_57 -->
<g id="edge16" class="edge">
<title>node_55&#45;&gt;node_57</title>
<path fill="none" stroke="black" d="M458.42,-258.66C450.71,-306.66 427.73,-403.03 364,-447.8 340.47,-464.33 262.41,-449.13 235,-457.8 228.88,-459.74 222.7,-462.68 217.01,-465.9"/>
<polygon fill="black" stroke="black" points="461.84,-259.47 459.85,-249.06 454.92,-258.44 461.84,-259.47"/>
<text xml:space="preserve" text-anchor="middle" x="441.42" y="-353.8" font-family="Helvetica,sans-Serif" font-size="10.00">exe</text>
</g>
<!-- node_61&#45;&gt;node_44 -->
<g id="edge18" class="edge">
<title>node_61&#45;&gt;node_44</title>
<path fill="none" stroke="black" d="M622.1,-121.8C618.05,-120.33 613.98,-118.97 610,-117.8 529.96,-94.21 503.29,-114.67 425,-85.8 419.3,-83.7 413.5,-80.84 408.09,-77.79"/>
<polygon fill="black" stroke="black" points="620.72,-125.02 631.31,-125.35 623.23,-118.49 620.72,-125.02"/>
<text xml:space="preserve" text-anchor="middle" x="571.87" y="-98.8" font-family="Helvetica,sans-Serif" font-size="10.00">exe</text>
</g>
<!-- node_46 -->
<g id="node17" class="node">
<title>node_46</title>
<polygon fill="lightblue" stroke="lightblue" points="433.88,-41.3 433.88,-77.3 520.12,-77.3 520.12,-41.3 433.88,-41.3"/>
<text xml:space="preserve" text-anchor="middle" x="477" y="-55.7" font-family="Helvetica,sans-Serif" font-size="12.00">End [46@44]</text>
</g>
</g>
</svg>
