<?xml version="1.0" encoding="UTF-8" standalone="no"?>
<!DOCTYPE svg PUBLIC "-//W3C//DTD SVG 1.1//EN"
 "http://www.w3.org/Graphics/SVG/1.1/DTD/svg11.dtd">
<!-- Generated by graphviz version a (a)
 -->
<!-- Title: process Pages: 1 -->
<svg width="5525pt" height="518pt"
 viewBox="0.00 0.00 5525.00 518.00" xmlns="http://www.w3.org/2000/svg" xmlns:xlink="http://www.w3.org/1999/xlink">
<g id="graph0" class="graph" transform="scale(1 1) rotate(0) translate(4 514.3)">
<title>process</title>
<polygon fill="white" stroke="none" points="-4,4 -4,-514.3 5520.76,-514.3 5520.76,4 -4,4"/>
<!-- node1 -->
<g id="node1" class="node">
<title>node1</title>
<ellipse fill="purple" stroke="purple" cx="93.38" cy="-224" rx="93.38" ry="18"/>
<text xml:space="preserve" text-anchor="middle" x="93.38" y="-219.8" font-family="Arial-Bold" font-size="14.00" fill="white">1 &#45; Subscription page</text>
</g>
<!-- node2 -->
<g id="node2" class="node">
<title>node2</title>
<polygon fill="none" stroke="black" points="248.99,-256.2 248.99,-305.8 323.78,-305.8 323.78,-256.2 248.99,-256.2"/>
<text xml:space="preserve" text-anchor="middle" x="274.88" y="-289.2" font-family="Arial-Bold" font-size="14.00">Popup</text>
<polyline fill="none" stroke="black" points="300.78,-281 300.78,-305.8"/>
<text xml:space="preserve" text-anchor="middle" x="312.28" y="-289.2" font-family="Arial-Bold" font-size="14.00">2</text>
<polyline fill="none" stroke="black" points="248.99,-281 323.78,-281"/>
<text xml:space="preserve" text-anchor="middle" x="286.38" y="-264.4" font-family="Arial-Bold" font-size="14.00">Drops out</text>
</g>
<!-- node1&#45;&gt;node2 -->
<g id="edge1" class="edge">
<title>node1&#45;&gt;node2</title>
<path fill="none" stroke="black" d="M145.56,-239.27C178.05,-248.97 219.33,-261.29 248.59,-270.02"/>
</g>
<!-- node20 -->
<g id="node27" class="node">
<title>node20</title>
<polygon fill="purple" stroke="purple" points="223.75,-146.2 223.75,-195.8 349.02,-195.8 349.02,-146.2 223.75,-146.2"/>
<text xml:space="preserve" text-anchor="middle" x="252" y="-179.2" font-family="Arial-Bold" font-size="14.00" fill="white"> </text>
<polyline fill="none" stroke="purple" points="280.25,-171 280.25,-195.8"/>
<text xml:space="preserve" text-anchor="middle" x="314.25" y="-179.2" font-family="Arial-Bold" font-size="14.00" fill="white">20</text>
<polyline fill="none" stroke="purple" points="223.75,-171 349.02,-171"/>
<text xml:space="preserve" text-anchor="middle" x="286.38" y="-154.4" font-family="Arial-Bold" font-size="14.00" fill="white">Honey subscription</text>
</g>
<!-- node1&#45;&gt;node20 -->
<g id="edge27" class="edge">
<title>node1&#45;&gt;node20</title>
<path fill="none" stroke="black" d="M148.34,-209.02C171.73,-202.54 199.25,-194.9 223.46,-188.18"/>
</g>
<!-- node3 -->
<g id="node3" class="node">
<title>node3</title>
<ellipse fill="none" stroke="black" cx="490.13" cy="-287" rx="99.83" ry="18"/>
<text xml:space="preserve" text-anchor="middle" x="490.13" y="-282.8" font-family="Arial-Bold" font-size="14.00">3 &#45; Subscription Popup</text>
</g>
<!-- node2&#45;&gt;node3 -->
<g id="edge2" class="edge">
<title>node2&#45;&gt;node3</title>
<path fill="none" stroke="black" d="M323.92,-282.09C340.01,-282.57 359.86,-283.16 380.15,-283.76"/>
<polygon fill="black" stroke="black" points="379.83,-287.25 389.93,-284.05 380.04,-280.25 379.83,-287.25"/>
</g>
<!-- node4 -->
<g id="node4" class="node">
<title>node4</title>
<polygon fill="none" stroke="black" points="646,-265.2 646,-314.8 766.21,-314.8 766.21,-265.2 646,-265.2"/>
<text xml:space="preserve" text-anchor="middle" x="681.67" y="-298.2" font-family="Arial-Bold" font-size="14.00">Form</text>
<polyline fill="none" stroke="black" points="717.34,-290 717.34,-314.8"/>
<text xml:space="preserve" text-anchor="middle" x="741.34" y="-298.2" font-family="Arial-Bold" font-size="14.00">4</text>
<polyline fill="none" stroke="black" points="646,-290 766.21,-290"/>
<text xml:space="preserve" text-anchor="middle" x="706.1" y="-273.4" font-family="Arial-Bold" font-size="14.00">Signup news letter</text>
</g>
<!-- node3&#45;&gt;node4 -->
<g id="edge3" class="edge">
<title>node3&#45;&gt;node4</title>
<path fill="none" stroke="black" d="M589.97,-288.39C609.03,-288.65 628.43,-288.92 645.74,-289.17"/>
</g>
<!-- node5 -->
<g id="node5" class="node">
<title>node5</title>
<ellipse fill="none" stroke="black" cx="974.36" cy="-351" rx="125.31" ry="18"/>
<text xml:space="preserve" text-anchor="middle" x="974.36" y="-346.8" font-family="Arial-Bold" font-size="14.00">5 &#45; Signup submitted (output)</text>
</g>
<!-- node4&#45;&gt;node5 -->
<g id="edge4" class="edge">
<title>node4&#45;&gt;node5</title>
<path fill="none" stroke="black" d="M766.59,-304.76C783.2,-308.81 801.27,-313.14 817.96,-317 841.77,-322.5 867.69,-328.26 891.41,-333.45"/>
<polygon fill="black" stroke="black" points="890.51,-336.83 901.02,-335.54 892,-329.99 890.51,-336.83"/>
</g>
<!-- node8 -->
<g id="node6" class="node">
<title>node8</title>
<ellipse fill="none" stroke="black" cx="974.36" cy="-290" rx="122.08" ry="18"/>
<text xml:space="preserve" text-anchor="middle" x="974.36" y="-285.8" font-family="Arial-Bold" font-size="14.00">8 &#45; Signup submitted (email)</text>
</g>
<!-- node4&#45;&gt;node8 -->
<g id="edge5" class="edge">
<title>node4&#45;&gt;node8</title>
<path fill="none" stroke="black" d="M766.53,-290C788.55,-290 814.52,-290 840.47,-290"/>
<polygon fill="black" stroke="black" points="840.46,-293.5 850.46,-290 840.46,-286.5 840.46,-293.5"/>
</g>
<!-- node6 -->
<g id="node7" class="node">
<title>node6</title>
<polygon fill="none" stroke="black" points="1167.76,-334.2 1167.76,-383.8 1285.64,-383.8 1285.64,-334.2 1167.76,-334.2"/>
<text xml:space="preserve" text-anchor="middle" x="1204.71" y="-367.2" font-family="Arial-Bold" font-size="14.00">Output</text>
<polyline fill="none" stroke="black" points="1241.65,-359 1241.65,-383.8"/>
<text xml:space="preserve" text-anchor="middle" x="1263.15" y="-367.2" font-family="Arial-Bold" font-size="14.00">6</text>
<polyline fill="none" stroke="black" points="1167.76,-359 1285.64,-359"/>
<text xml:space="preserve" text-anchor="middle" x="1226.7" y="-342.4" font-family="Arial-Bold" font-size="14.00">Thanks for signup</text>
</g>
<!-- node5&#45;&gt;node6 -->
<g id="edge6" class="edge">
<title>node5&#45;&gt;node6</title>
<path fill="none" stroke="black" d="M1097.23,-354.89C1121.73,-355.68 1146.39,-356.47 1167.47,-357.14"/>
</g>
<!-- node9 -->
<g id="node9" class="node">
<title>node9</title>
<polygon fill="none" stroke="black" points="1175.73,-265.2 1175.73,-314.8 1277.68,-314.8 1277.68,-265.2 1175.73,-265.2"/>
<text xml:space="preserve" text-anchor="middle" x="1210.95" y="-298.2" font-family="Arial-Bold" font-size="14.00">Timeout</text>
<polyline fill="none" stroke="black" points="1246.16,-290 1246.16,-314.8"/>
<text xml:space="preserve" text-anchor="middle" x="1261.66" y="-298.2" font-family="Arial-Bold" font-size="14.00">9</text>
<polyline fill="none" stroke="black" points="1175.73,-290 1277.68,-290"/>
<text xml:space="preserve" text-anchor="middle" x="1226.7" y="-273.4" font-family="Arial-Bold" font-size="14.00">Signup timeout</text>
</g>
<!-- node8&#45;&gt;node9 -->
<g id="edge8" class="edge">
<title>node8&#45;&gt;node9</title>
<path fill="none" stroke="black" d="M1096.87,-290C1124.65,-290 1152.67,-290 1175.45,-290"/>
</g>
<!-- node7 -->
<g id="node8" class="node">
<title>node7</title>
<ellipse fill="black" stroke="black" cx="1436.15" cy="-359" rx="95" ry="18"/>
<text xml:space="preserve" text-anchor="middle" x="1436.15" y="-354.8" font-family="Arial-Bold" font-size="14.00" fill="white">7 &#45; &#160;&#160;signup submitted</text>
</g>
<!-- node6&#45;&gt;node7 -->
<g id="edge7" class="edge">
<title>node6&#45;&gt;node7</title>
<path fill="none" stroke="black" d="M1286.04,-359C1299.6,-359 1314.45,-359 1329.36,-359"/>
<polygon fill="black" stroke="black" points="1329.23,-362.5 1339.23,-359 1329.23,-355.5 1329.23,-362.5"/>
</g>
<!-- node10 -->
<g id="node10" class="node">
<title>node10</title>
<ellipse fill="none" stroke="black" cx="1436.15" cy="-301" rx="113.51" ry="18"/>
<text xml:space="preserve" text-anchor="middle" x="1436.15" y="-296.8" font-family="Arial-Bold" font-size="14.00">10 &#45; Popup signup timeout</text>
</g>
<!-- node9&#45;&gt;node10 -->
<g id="edge9" class="edge">
<title>node9&#45;&gt;node10</title>
<path fill="none" stroke="black" d="M1277.92,-292.66C1289.82,-293.29 1303.01,-293.99 1316.54,-294.71"/>
<polygon fill="black" stroke="black" points="1316.29,-298.2 1326.46,-295.24 1316.66,-291.21 1316.29,-298.2"/>
</g>
<!-- node11 -->
<g id="node11" class="node">
<title>node11</title>
<polygon fill="none" stroke="black" points="1677.85,-286.2 1677.85,-335.8 1758.79,-335.8 1758.79,-286.2 1677.85,-286.2"/>
<text xml:space="preserve" text-anchor="middle" x="1702.57" y="-319.2" font-family="Arial-Bold" font-size="14.00">Email</text>
<polyline fill="none" stroke="black" points="1727.29,-311 1727.29,-335.8"/>
<text xml:space="preserve" text-anchor="middle" x="1742.79" y="-319.2" font-family="Arial-Bold" font-size="14.00">11</text>
<polyline fill="none" stroke="black" points="1677.85,-311 1758.79,-311"/>
<text xml:space="preserve" text-anchor="middle" x="1718.32" y="-294.4" font-family="Arial-Bold" font-size="14.00">Send Email</text>
</g>
<!-- node10&#45;&gt;node11 -->
<g id="edge10" class="edge">
<title>node10&#45;&gt;node11</title>
<path fill="none" stroke="black" d="M1547.48,-304.94C1593.26,-306.57 1643.49,-308.37 1677.36,-309.57"/>
</g>
<!-- node12 -->
<g id="node12" class="node">
<title>node12</title>
<ellipse fill="none" stroke="black" cx="2190.82" cy="-347" rx="96.87" ry="18"/>
<text xml:space="preserve" text-anchor="middle" x="2190.82" y="-342.8" font-family="Arial-Bold" font-size="14.00">12 &#45; Popup Email sent</text>
</g>
<!-- node11&#45;&gt;node12 -->
<g id="edge11" class="edge">
<title>node11&#45;&gt;node12</title>
<path fill="none" stroke="black" d="M1759.03,-314.04C1831.31,-319.57 1986.4,-331.44 2089.41,-339.32"/>
<polygon fill="black" stroke="black" points="2089.03,-342.8 2099.26,-340.07 2089.56,-335.82 2089.03,-342.8"/>
</g>
<!-- node13 -->
<g id="node13" class="node">
<title>node13</title>
<polygon fill="none" stroke="black" points="2376.98,-460.2 2376.98,-509.8 2477.35,-509.8 2477.35,-460.2 2376.98,-460.2"/>
<text xml:space="preserve" text-anchor="middle" x="2408.87" y="-493.2" font-family="Arial-Bold" font-size="14.00">Bounce</text>
<polyline fill="none" stroke="black" points="2440.75,-485 2440.75,-509.8"/>
<text xml:space="preserve" text-anchor="middle" x="2458.75" y="-493.2" font-family="Arial-Bold" font-size="14.00">13</text>
<polyline fill="none" stroke="black" points="2376.98,-485 2477.35,-485"/>
<text xml:space="preserve" text-anchor="middle" x="2427.17" y="-468.4" font-family="Arial-Bold" font-size="14.00">Email bounced</text>
</g>
<!-- node12&#45;&gt;node13 -->
<g id="edge12" class="edge">
<title>node12&#45;&gt;node13</title>
<path fill="none" stroke="black" d="M2221.5,-364.48C2262.39,-388.56 2336.3,-432.08 2383.22,-459.71"/>
</g>
<!-- node15 -->
<g id="node15" class="node">
<title>node15</title>
<polygon fill="none" stroke="black" points="2376.56,-391.2 2376.56,-440.8 2477.77,-440.8 2477.77,-391.2 2376.56,-391.2"/>
<text xml:space="preserve" text-anchor="middle" x="2412.17" y="-424.2" font-family="Arial-Bold" font-size="14.00">OptedOut</text>
<polyline fill="none" stroke="black" points="2447.77,-416 2447.77,-440.8"/>
<text xml:space="preserve" text-anchor="middle" x="2462.77" y="-424.2" font-family="Arial-Bold" font-size="14.00">15</text>
<polyline fill="none" stroke="black" points="2376.56,-416 2477.77,-416"/>
<text xml:space="preserve" text-anchor="middle" x="2427.17" y="-399.4" font-family="Arial-Bold" font-size="14.00">Email</text>
</g>
<!-- node12&#45;&gt;node15 -->
<g id="edge14" class="edge">
<title>node12&#45;&gt;node15</title>
<path fill="none" stroke="black" d="M2244.12,-362.4C2283.64,-374.04 2337.55,-389.91 2376.43,-401.36"/>
</g>
<!-- node17 -->
<g id="node17" class="node">
<title>node17</title>
<polygon fill="none" stroke="black" points="2387.09,-322.2 2387.09,-371.8 2467.24,-371.8 2467.24,-322.2 2387.09,-322.2"/>
<text xml:space="preserve" text-anchor="middle" x="2410.76" y="-355.2" font-family="Arial-Bold" font-size="14.00">Click</text>
<polyline fill="none" stroke="black" points="2434.43,-347 2434.43,-371.8"/>
<text xml:space="preserve" text-anchor="middle" x="2450.43" y="-355.2" font-family="Arial-Bold" font-size="14.00">17</text>
<polyline fill="none" stroke="black" points="2387.09,-347 2467.24,-347"/>
<text xml:space="preserve" text-anchor="middle" x="2427.17" y="-330.4" font-family="Arial-Bold" font-size="14.00">Email click</text>
</g>
<!-- node12&#45;&gt;node17 -->
<g id="edge16" class="edge">
<title>node12&#45;&gt;node17</title>
<path fill="none" stroke="black" d="M2288.15,-347C2322.74,-347 2359.83,-347 2386.85,-347"/>
</g>
<!-- node25 -->
<g id="node24" class="node">
<title>node25</title>
<polygon fill="none" stroke="black" points="2387.09,-253.2 2387.09,-302.8 2467.24,-302.8 2467.24,-253.2 2387.09,-253.2"/>
<text xml:space="preserve" text-anchor="middle" x="2410.76" y="-286.2" font-family="Arial-Bold" font-size="14.00">Click</text>
<polyline fill="none" stroke="black" points="2434.43,-278 2434.43,-302.8"/>
<text xml:space="preserve" text-anchor="middle" x="2450.43" y="-286.2" font-family="Arial-Bold" font-size="14.00">25</text>
<polyline fill="none" stroke="black" points="2387.09,-278 2467.24,-278"/>
<text xml:space="preserve" text-anchor="middle" x="2427.17" y="-261.4" font-family="Arial-Bold" font-size="14.00">Email click</text>
</g>
<!-- node12&#45;&gt;node25 -->
<g id="edge23" class="edge">
<title>node12&#45;&gt;node25</title>
<path fill="none" stroke="black" d="M2244.12,-331.6C2287.28,-318.89 2347.61,-301.13 2386.78,-289.6"/>
</g>
<!-- node14 -->
<g id="node14" class="node">
<title>node14</title>
<ellipse fill="black" stroke="black" cx="3063.39" cy="-486" rx="114.03" ry="18"/>
<text xml:space="preserve" text-anchor="middle" x="3063.39" y="-481.8" font-family="Arial-Bold" font-size="14.00" fill="white">14 &#45; Popup Email bounced</text>
</g>
<!-- node13&#45;&gt;node14 -->
<g id="edge13" class="edge">
<title>node13&#45;&gt;node14</title>
<path fill="none" stroke="black" d="M2477.67,-485.08C2575.73,-485.23 2797.34,-485.58 2937.82,-485.8"/>
<polygon fill="black" stroke="black" points="2937.53,-489.3 2947.54,-485.82 2937.55,-482.3 2937.53,-489.3"/>
</g>
<!-- node16 -->
<g id="node16" class="node">
<title>node16</title>
<ellipse fill="black" stroke="black" cx="3063.39" cy="-432" rx="83.73" ry="18"/>
<text xml:space="preserve" text-anchor="middle" x="3063.39" y="-427.8" font-family="Arial-Bold" font-size="14.00" fill="white">16 &#45; Popup Email &#160;</text>
</g>
<!-- node15&#45;&gt;node16 -->
<g id="edge15" class="edge">
<title>node15&#45;&gt;node16</title>
<path fill="none" stroke="black" d="M2478.2,-417.26C2584.1,-419.93 2832.37,-426.2 2968.69,-429.64"/>
<polygon fill="black" stroke="black" points="2968.32,-433.13 2978.4,-429.88 2968.49,-426.13 2968.32,-433.13"/>
</g>
<!-- node18 -->
<g id="node18" class="node">
<title>node18</title>
<ellipse fill="none" stroke="black" cx="3063.39" cy="-378" rx="56.63" ry="18"/>
<text xml:space="preserve" text-anchor="middle" x="3063.39" y="-373.8" font-family="Arial-Bold" font-size="14.00">18 &#45; Email &#160;</text>
</g>
<!-- node17&#45;&gt;node18 -->
<g id="edge17" class="edge">
<title>node17&#45;&gt;node18</title>
<path fill="none" stroke="black" d="M2467.36,-348.92C2572.98,-354.08 2864.44,-368.32 2996.19,-374.76"/>
<polygon fill="black" stroke="black" points="2995.63,-378.24 3005.78,-375.23 2995.97,-371.25 2995.63,-378.24"/>
</g>
<!-- node22 -->
<g id="node19" class="node">
<title>node22</title>
<ellipse fill="none" stroke="black" cx="3063.39" cy="-324" rx="83.72" ry="18"/>
<text xml:space="preserve" text-anchor="middle" x="3063.39" y="-319.8" font-family="Arial-Bold" font-size="14.00">22 &#45; Email output &#160;</text>
</g>
<!-- node17&#45;&gt;node22 -->
<g id="edge18" class="edge">
<title>node17&#45;&gt;node22</title>
<path fill="none" stroke="black" d="M2467.36,-345.58C2566.29,-341.99 2828.26,-332.49 2969.32,-327.37"/>
<polygon fill="black" stroke="black" points="2969.13,-330.88 2979,-327.02 2968.88,-323.89 2969.13,-330.88"/>
</g>
<!-- node19 -->
<g id="node20" class="node">
<title>node19</title>
<polygon fill="none" stroke="black" points="3249.67,-364.2 3249.67,-413.8 3303.67,-413.8 3303.67,-364.2 3249.67,-364.2"/>
<text xml:space="preserve" text-anchor="middle" x="3260.42" y="-397.2" font-family="Arial-Bold" font-size="14.00"> </text>
<polyline fill="none" stroke="black" points="3271.17,-389 3271.17,-413.8"/>
<text xml:space="preserve" text-anchor="middle" x="3287.17" y="-397.2" font-family="Arial-Bold" font-size="14.00">19</text>
<polyline fill="none" stroke="black" points="3249.67,-389 3303.67,-389"/>
<text xml:space="preserve" text-anchor="middle" x="3276.67" y="-372.4" font-family="Arial-Bold" font-size="14.00">Email</text>
</g>
<!-- node18&#45;&gt;node19 -->
<g id="edge19" class="edge">
<title>node18&#45;&gt;node19</title>
<path fill="none" stroke="black" d="M3119.62,-380.88C3161.44,-383.05 3217.02,-385.95 3249.32,-387.63"/>
</g>
<!-- node23 -->
<g id="node22" class="node">
<title>node23</title>
<polygon fill="none" stroke="black" points="3230.76,-295.2 3230.76,-344.8 3322.58,-344.8 3322.58,-295.2 3230.76,-295.2"/>
<text xml:space="preserve" text-anchor="middle" x="3259.71" y="-328.2" font-family="Arial-Bold" font-size="14.00">Output</text>
<polyline fill="none" stroke="black" points="3288.65,-320 3288.65,-344.8"/>
<text xml:space="preserve" text-anchor="middle" x="3305.15" y="-328.2" font-family="Arial-Bold" font-size="14.00">23</text>
<polyline fill="none" stroke="black" points="3230.76,-320 3322.58,-320"/>
<text xml:space="preserve" text-anchor="middle" x="3276.67" y="-303.4" font-family="Arial-Bold" font-size="14.00">Output Email</text>
</g>
<!-- node22&#45;&gt;node23 -->
<g id="edge21" class="edge">
<title>node22&#45;&gt;node23</title>
<path fill="none" stroke="black" d="M3147.29,-322.43C3175.61,-321.89 3206.23,-321.31 3230.45,-320.86"/>
</g>
<!-- node21 -->
<g id="node21" class="node">
<title>node21</title>
<ellipse fill="black" stroke="black" cx="3480.84" cy="-389" rx="77.81" ry="18"/>
<text xml:space="preserve" text-anchor="middle" x="3480.84" y="-384.8" font-family="Arial-Bold" font-size="14.00" fill="white">21 &#45; Email &#160;&#160;done</text>
</g>
<!-- node19&#45;&gt;node21 -->
<g id="edge20" class="edge">
<title>node19&#45;&gt;node21</title>
<path fill="none" stroke="black" d="M3304.1,-389C3326.51,-389 3359.96,-389 3391.69,-389"/>
<polygon fill="black" stroke="black" points="3391.31,-392.5 3401.31,-389 3391.31,-385.5 3391.31,-392.5"/>
</g>
<!-- node24 -->
<g id="node23" class="node">
<title>node24</title>
<ellipse fill="black" stroke="black" cx="3480.84" cy="-320" rx="104.91" ry="18"/>
<text xml:space="preserve" text-anchor="middle" x="3480.84" y="-315.8" font-family="Arial-Bold" font-size="14.00" fill="white">24 &#45; Email output &#160;&#160;done</text>
</g>
<!-- node23&#45;&gt;node24 -->
<g id="edge22" class="edge">
<title>node23&#45;&gt;node24</title>
<path fill="none" stroke="black" d="M3323.04,-320C3335.57,-320 3349.75,-320 3364.34,-320"/>
<polygon fill="black" stroke="black" points="3364.05,-323.5 3374.05,-320 3364.05,-316.5 3364.05,-323.5"/>
</g>
<!-- node26 -->
<g id="node25" class="node">
<title>node26</title>
<ellipse fill="none" stroke="black" cx="3063.39" cy="-270" rx="109.2" ry="18"/>
<text xml:space="preserve" text-anchor="middle" x="3063.39" y="-265.8" font-family="Arial-Bold" font-size="14.00">26 &#45; Popup Email clicked</text>
</g>
<!-- node25&#45;&gt;node26 -->
<g id="edge24" class="edge">
<title>node25&#45;&gt;node26</title>
<path fill="none" stroke="black" d="M2467.36,-277.51C2560.4,-276.33 2797.65,-273.34 2942.91,-271.51"/>
<polygon fill="black" stroke="black" points="2942.6,-275.01 2952.56,-271.39 2942.51,-268.01 2942.6,-275.01"/>
</g>
<!-- node27 -->
<g id="node26" class="node">
<title>node27</title>
<polygon fill="none" stroke="black" points="3228.83,-226.2 3228.83,-275.8 3324.51,-275.8 3324.51,-226.2 3228.83,-226.2"/>
<text xml:space="preserve" text-anchor="middle" x="3261.04" y="-259.2" font-family="Arial-Bold" font-size="14.00">Redirect</text>
<polyline fill="none" stroke="black" points="3293.25,-251 3293.25,-275.8"/>
<text xml:space="preserve" text-anchor="middle" x="3308.75" y="-259.2" font-family="Arial-Bold" font-size="14.00">27</text>
<polyline fill="none" stroke="black" points="3228.83,-251 3324.51,-251"/>
<text xml:space="preserve" text-anchor="middle" x="3276.67" y="-234.4" font-family="Arial-Bold" font-size="14.00">Email redirect</text>
</g>
<!-- node26&#45;&gt;node27 -->
<g id="edge25" class="edge">
<title>node26&#45;&gt;node27</title>
<path fill="none" stroke="black" d="M3160.14,-261.39C3183.83,-259.26 3208.2,-257.07 3228.4,-255.25"/>
</g>
<!-- node27&#45;&gt;node1 -->
<g id="edge26" class="edge">
<title>node27&#45;&gt;node1</title>
<path fill="none" stroke="black" d="M3228.48,-241.48C3185.81,-233.71 3121.15,-224 3064.39,-224 285.38,-224 285.38,-224 285.38,-224 257.26,-224 226.8,-224 198.65,-224"/>
<polygon fill="black" stroke="black" points="198.67,-220.5 188.67,-224 198.67,-227.5 198.67,-220.5"/>
</g>
<!-- node28 -->
<g id="node28" class="node">
<title>node28</title>
<ellipse fill="purple" stroke="purple" cx="490.13" cy="-171" rx="104.11" ry="18"/>
<text xml:space="preserve" text-anchor="middle" x="490.13" y="-166.8" font-family="Arial-Bold" font-size="14.00" fill="white">28 &#45; Limbo subscription</text>
</g>
<!-- node20&#45;&gt;node28 -->
<g id="edge28" class="edge">
<title>node20&#45;&gt;node28</title>
<path fill="none" stroke="black" d="M349.28,-171C357.34,-171 365.78,-171 374.37,-171"/>
<polygon fill="black" stroke="black" points="374.19,-174.5 384.19,-171 374.19,-167.5 374.19,-174.5"/>
</g>
<!-- node29 -->
<g id="node29" class="node">
<title>node29</title>
<polygon fill="purple" stroke="purple" points="631.24,-146.2 631.24,-195.8 780.96,-195.8 780.96,-146.2 631.24,-146.2"/>
<text xml:space="preserve" text-anchor="middle" x="680.35" y="-179.2" font-family="Arial-Bold" font-size="14.00" fill="white">Impression</text>
<polyline fill="none" stroke="purple" points="729.45,-171 729.45,-195.8"/>
<text xml:space="preserve" text-anchor="middle" x="754.95" y="-179.2" font-family="Arial-Bold" font-size="14.00" fill="white">29</text>
<polyline fill="none" stroke="purple" points="631.24,-171 780.96,-171"/>
<text xml:space="preserve" text-anchor="middle" x="706.1" y="-154.4" font-family="Arial-Bold" font-size="14.00" fill="white">Wait success confirmed</text>
</g>
<!-- node28&#45;&gt;node29 -->
<g id="edge29" class="edge">
<title>node28&#45;&gt;node29</title>
<path fill="none" stroke="black" d="M594.67,-171C606.94,-171 619.26,-171 631.01,-171"/>
</g>
<!-- node46 -->
<g id="node51" class="node">
<title>node46</title>
<polygon fill="none" stroke="black" points="644.83,-77.2 644.83,-126.8 767.38,-126.8 767.38,-77.2 644.83,-77.2"/>
<text xml:space="preserve" text-anchor="middle" x="683.54" y="-110.2" font-family="Arial-Bold" font-size="14.00">Timeout</text>
<polyline fill="none" stroke="black" points="722.26,-102 722.26,-126.8"/>
<text xml:space="preserve" text-anchor="middle" x="744.76" y="-110.2" font-family="Arial-Bold" font-size="14.00">46</text>
<polyline fill="none" stroke="black" points="644.83,-102 767.38,-102"/>
<text xml:space="preserve" text-anchor="middle" x="706.1" y="-85.4" font-family="Arial-Bold" font-size="14.00">Limbo sub timeout</text>
</g>
<!-- node28&#45;&gt;node46 -->
<g id="edge54" class="edge">
<title>node28&#45;&gt;node46</title>
<path fill="none" stroke="black" d="M541.03,-154.91C571.9,-144.95 611.74,-132.11 644.43,-121.56"/>
</g>
<!-- node30 -->
<g id="node30" class="node">
<title>node30</title>
<ellipse fill="purple" stroke="purple" cx="974.36" cy="-169" rx="156.4" ry="18"/>
<text xml:space="preserve" text-anchor="middle" x="974.36" y="-164.8" font-family="Arial-Bold" font-size="14.00" fill="white">30 &#45; Honey subscription confirmation</text>
</g>
<!-- node29&#45;&gt;node30 -->
<g id="edge30" class="edge">
<title>node29&#45;&gt;node30</title>
<path fill="none" stroke="black" d="M781.27,-170.44C789.35,-170.38 797.79,-170.32 806.43,-170.25"/>
<polygon fill="black" stroke="black" points="806.42,-173.75 816.39,-170.18 806.36,-166.75 806.42,-173.75"/>
</g>
<!-- node31 -->
<g id="node31" class="node">
<title>node31</title>
<polygon fill="none" stroke="black" points="1169.91,-139.2 1169.91,-188.8 1283.49,-188.8 1283.49,-139.2 1169.91,-139.2"/>
<text xml:space="preserve" text-anchor="middle" x="1205.57" y="-172.2" font-family="Arial-Bold" font-size="14.00">Success</text>
<polyline fill="none" stroke="black" points="1241.23,-164 1241.23,-188.8"/>
<text xml:space="preserve" text-anchor="middle" x="1262.23" y="-172.2" font-family="Arial-Bold" font-size="14.00">31</text>
<polyline fill="none" stroke="black" points="1169.91,-164 1283.49,-164"/>
<text xml:space="preserve" text-anchor="middle" x="1226.7" y="-147.4" font-family="Arial-Bold" font-size="14.00">Magazine bought</text>
</g>
<!-- node30&#45;&gt;node31 -->
<g id="edge31" class="edge">
<title>node30&#45;&gt;node31</title>
<path fill="none" stroke="black" d="M1128.92,-165.93C1143.29,-165.65 1157.13,-165.37 1169.64,-165.12"/>
</g>
<!-- node32 -->
<g id="node32" class="node">
<title>node32</title>
<ellipse fill="none" stroke="black" cx="1436.15" cy="-164" rx="96.05" ry="18"/>
<text xml:space="preserve" text-anchor="middle" x="1436.15" y="-159.8" font-family="Arial-Bold" font-size="14.00">32 &#45; Magazine bought</text>
</g>
<!-- node31&#45;&gt;node32 -->
<g id="edge32" class="edge">
<title>node31&#45;&gt;node32</title>
<path fill="none" stroke="black" d="M1283.84,-164C1297.74,-164 1313.11,-164 1328.55,-164"/>
<polygon fill="black" stroke="black" points="1328.28,-167.5 1338.28,-164 1328.28,-160.5 1328.28,-167.5"/>
</g>
<!-- node45 -->
<g id="node33" class="node">
<title>node45</title>
<ellipse fill="none" stroke="black" cx="1436.15" cy="-90" rx="89.09" ry="18"/>
<text xml:space="preserve" text-anchor="middle" x="1436.15" y="-85.8" font-family="Arial-Bold" font-size="14.00">45 &#45; Bill subcription</text>
</g>
<!-- node31&#45;&gt;node45 -->
<g id="edge33" class="edge">
<title>node31&#45;&gt;node45</title>
<path fill="none" stroke="black" d="M1283.84,-143.97C1313.76,-133.3 1350.43,-120.22 1380.18,-109.61"/>
<polygon fill="black" stroke="black" points="1381.13,-112.99 1389.37,-106.33 1378.78,-106.39 1381.13,-112.99"/>
</g>
<!-- node33 -->
<g id="node34" class="node">
<title>node33</title>
<polygon fill="none" stroke="black" points="1718.32,-182 1591.19,-164 1718.32,-146 1845.44,-164 1718.32,-182"/>
<text xml:space="preserve" text-anchor="middle" x="1718.32" y="-159.8" font-family="Arial-Bold" font-size="14.00">33 &#45; Check 1st Xsell</text>
</g>
<!-- node32&#45;&gt;node33 -->
<g id="edge34" class="edge">
<title>node32&#45;&gt;node33</title>
<path fill="none" stroke="black" d="M1532.39,-164C1550.32,-164 1569.34,-164 1588.1,-164"/>
</g>
<!-- node47 -->
<g id="node46" class="node">
<title>node47</title>
<polygon fill="none" stroke="black" points="1718.32,-90 1586.66,-72 1718.32,-54 1849.98,-72 1718.32,-90"/>
<text xml:space="preserve" text-anchor="middle" x="1718.32" y="-67.8" font-family="Arial-Bold" font-size="14.00">47 &#45; Check if billable</text>
</g>
<!-- node45&#45;&gt;node47 -->
<g id="edge49" class="edge">
<title>node45&#45;&gt;node47</title>
<path fill="none" stroke="black" d="M1521.59,-84.57C1554.62,-82.45 1592.58,-80.01 1626.22,-77.85"/>
</g>
<!-- node35 -->
<g id="node35" class="node">
<title>node35</title>
<ellipse fill="none" stroke="black" cx="3480.84" cy="-174" rx="93.12" ry="18"/>
<text xml:space="preserve" text-anchor="middle" x="3480.84" y="-169.8" font-family="Arial-Bold" font-size="14.00">35 &#45; End 1st Xselling</text>
</g>
<!-- node33&#45;&gt;node35 -->
<g id="edge35" class="edge">
<title>node33&#45;&gt;node35</title>
<path fill="none" stroke="black" d="M1803.83,-170.33C1897.96,-176.83 2054.69,-186 2189.82,-186 2189.82,-186 2189.82,-186 3277.67,-186 3312.26,-186 3350.12,-184.23 3383.63,-182.05"/>
<polygon fill="black" stroke="black" points="3383.57,-185.56 3393.31,-181.39 3383.1,-178.57 3383.57,-185.56"/>
<text xml:space="preserve" text-anchor="middle" x="2716.18" y="-190.2" font-family="Times,serif" font-size="14.00">&#39;HeartAndSoul&#39; in decode_b64(nvl(&#39;vmi_cookie_mag_sold&#39;,encode_b64([])))</text>
</g>
<!-- node42 -->
<g id="node36" class="node">
<title>node42</title>
<ellipse fill="none" stroke="black" cx="2190.82" cy="-137" rx="143.52" ry="18"/>
<text xml:space="preserve" text-anchor="middle" x="2190.82" y="-132.8" font-family="Arial-Bold" font-size="14.00">42 &#45; Wait before sending 1st Xsell</text>
</g>
<!-- node33&#45;&gt;node42 -->
<g id="edge36" class="edge">
<title>node33&#45;&gt;node42</title>
<path fill="none" stroke="black" d="M1810.51,-158.56C1829.5,-157.44 1849.39,-156.28 1867.98,-155.2 1926.65,-151.8 1991.34,-148.13 2047.25,-144.98"/>
<polygon fill="black" stroke="black" points="2047.37,-148.48 2057.16,-144.42 2046.98,-141.49 2047.37,-148.48"/>
<text xml:space="preserve" text-anchor="middle" x="1948.64" y="-159.4" font-family="Times,serif" font-size="14.00">default</text>
</g>
<!-- node36 -->
<g id="node37" class="node">
<title>node36</title>
<polygon fill="none" stroke="black" points="3754.42,-192 3622.75,-174 3754.42,-156 3886.09,-174 3754.42,-192"/>
<text xml:space="preserve" text-anchor="middle" x="3754.42" y="-169.8" font-family="Arial-Bold" font-size="14.00">36 &#45; Check 2nd Xsell</text>
</g>
<!-- node35&#45;&gt;node36 -->
<g id="edge37" class="edge">
<title>node35&#45;&gt;node36</title>
<path fill="none" stroke="black" d="M3574.16,-174C3588.77,-174 3604.13,-174 3619.46,-174"/>
</g>
<!-- node34 -->
<g id="node43" class="node">
<title>node34</title>
<polygon fill="none" stroke="black" points="2371.33,-108.2 2371.33,-157.8 2483,-157.8 2483,-108.2 2371.33,-108.2"/>
<text xml:space="preserve" text-anchor="middle" x="2407.55" y="-141.2" font-family="Arial-Bold" font-size="14.00">Timeout</text>
<polyline fill="none" stroke="black" points="2443.77,-133 2443.77,-157.8"/>
<text xml:space="preserve" text-anchor="middle" x="2463.27" y="-141.2" font-family="Arial-Bold" font-size="14.00">34</text>
<polyline fill="none" stroke="black" points="2371.33,-133 2483,-133"/>
<text xml:space="preserve" text-anchor="middle" x="2427.17" y="-116.4" font-family="Arial-Bold" font-size="14.00">1st Xsell timeout</text>
</g>
<!-- node42&#45;&gt;node34 -->
<g id="edge45" class="edge">
<title>node42&#45;&gt;node34</title>
<path fill="none" stroke="black" d="M2333.54,-134.58C2346.65,-134.36 2359.33,-134.14 2370.89,-133.94"/>
</g>
<!-- node37 -->
<g id="node38" class="node">
<title>node37</title>
<ellipse fill="black" stroke="black" cx="5437.33" cy="-174" rx="79.43" ry="18"/>
<text xml:space="preserve" text-anchor="middle" x="5437.33" y="-169.8" font-family="Arial-Bold" font-size="14.00" fill="white">37 &#45; End Xselling</text>
</g>
<!-- node36&#45;&gt;node37 -->
<g id="edge38" class="edge">
<title>node36&#45;&gt;node37</title>
<path fill="none" stroke="black" d="M3820.1,-183.48C3906.56,-195.31 4064.65,-214 4200.38,-214 4200.38,-214 4200.38,-214 5257.31,-214 5299.84,-214 5346.71,-203.11 5381.83,-192.7"/>
<polygon fill="black" stroke="black" points="5382.81,-196.06 5391.35,-189.79 5380.76,-189.37 5382.81,-196.06"/>
<text xml:space="preserve" text-anchor="middle" x="4714.59" y="-218.2" font-family="Times,serif" font-size="14.00">&#39;Honey&#39; in decode_b64(nvl(&#39;vmi_cookie_mag_sold&#39;, encode_b64([])))</text>
</g>
<!-- node36&#45;&gt;node37 -->
<g id="edge40" class="edge">
<title>node36&#45;&gt;node37</title>
<path fill="none" stroke="black" d="M3889.77,-174C3978.06,-174 4096.09,-174 4200.38,-174 4200.38,-174 4200.38,-174 5257.31,-174 5286.26,-174 5317.84,-174 5346.3,-174"/>
<polygon fill="black" stroke="black" points="5345.95,-177.5 5355.95,-174 5345.95,-170.5 5345.95,-177.5"/>
<text xml:space="preserve" text-anchor="middle" x="4714.59" y="-178.2" font-family="Times,serif" font-size="14.00">default</text>
</g>
<!-- node39 -->
<g id="node39" class="node">
<title>node39</title>
<ellipse fill="none" stroke="black" cx="4201.38" cy="-126" rx="146.73" ry="18"/>
<text xml:space="preserve" text-anchor="middle" x="4201.38" y="-121.8" font-family="Arial-Bold" font-size="14.00">39 &#45; Wait before sending 2nd Xsell</text>
</g>
<!-- node36&#45;&gt;node39 -->
<g id="edge39" class="edge">
<title>node36&#45;&gt;node39</title>
<path fill="none" stroke="black" d="M3803.32,-162.22C3832.31,-155.55 3870.12,-147.68 3904.09,-143.2 3950.22,-137.12 4000.68,-133.18 4046.66,-130.64"/>
<polygon fill="black" stroke="black" points="4046.63,-134.15 4056.43,-130.12 4046.26,-127.16 4046.63,-134.15"/>
<text xml:space="preserve" text-anchor="middle" x="3970.37" y="-147.4" font-family="Times,serif" font-size="14.00">!is_defined(&#39;xsell_flag&#39;)</text>
</g>
<!-- node38 -->
<g id="node40" class="node">
<title>node38</title>
<polygon fill="none" stroke="black" points="4385.11,-96.2 4385.11,-145.8 4501.44,-145.8 4501.44,-96.2 4385.11,-96.2"/>
<text xml:space="preserve" text-anchor="middle" x="4422.33" y="-129.2" font-family="Arial-Bold" font-size="14.00">Timeout</text>
<polyline fill="none" stroke="black" points="4459.55,-121 4459.55,-145.8"/>
<text xml:space="preserve" text-anchor="middle" x="4480.05" y="-129.2" font-family="Arial-Bold" font-size="14.00">38</text>
<polyline fill="none" stroke="black" points="4385.11,-121 4501.44,-121"/>
<text xml:space="preserve" text-anchor="middle" x="4443.28" y="-104.4" font-family="Arial-Bold" font-size="14.00">2nd Xsell timeout</text>
</g>
<!-- node39&#45;&gt;node38 -->
<g id="edge41" class="edge">
<title>node39&#45;&gt;node38</title>
<path fill="none" stroke="black" d="M4346.43,-123C4359.86,-122.72 4372.88,-122.45 4384.76,-122.2"/>
</g>
<!-- node40 -->
<g id="node41" class="node">
<title>node40</title>
<ellipse fill="none" stroke="black" cx="5041.24" cy="-121" rx="113.49" ry="18"/>
<text xml:space="preserve" text-anchor="middle" x="5041.24" y="-116.8" font-family="Arial-Bold" font-size="14.00">40 &#45; Activate 2nd Xselling</text>
</g>
<!-- node38&#45;&gt;node40 -->
<g id="edge42" class="edge">
<title>node38&#45;&gt;node40</title>
<path fill="none" stroke="black" d="M4501.69,-121C4596.7,-121 4788.73,-121 4915.92,-121"/>
<polygon fill="black" stroke="black" points="4915.74,-124.5 4925.74,-121 4915.74,-117.5 4915.74,-124.5"/>
</g>
<!-- node41 -->
<g id="node42" class="node">
<title>node41</title>
<polygon fill="none" stroke="black" points="5191.72,-96.2 5191.72,-145.8 5320.9,-145.8 5320.9,-96.2 5191.72,-96.2"/>
<text xml:space="preserve" text-anchor="middle" x="5233.83" y="-129.2" font-family="Arial-Bold" font-size="14.00">NewFlow</text>
<polyline fill="none" stroke="black" points="5275.94,-121 5275.94,-145.8"/>
<text xml:space="preserve" text-anchor="middle" x="5297.94" y="-129.2" font-family="Arial-Bold" font-size="14.00">41</text>
<polyline fill="none" stroke="black" points="5191.72,-121 5320.9,-121"/>
<text xml:space="preserve" text-anchor="middle" x="5256.31" y="-104.4" font-family="Arial-Bold" font-size="14.00">Send SEP 2nd Xsell</text>
</g>
<!-- node40&#45;&gt;node41 -->
<g id="edge43" class="edge">
<title>node40&#45;&gt;node41</title>
<path fill="none" stroke="black" d="M5155.01,-121C5167.49,-121 5179.85,-121 5191.41,-121"/>
</g>
<!-- node41&#45;&gt;node37 -->
<g id="edge44" class="edge">
<title>node41&#45;&gt;node37</title>
<path fill="none" stroke="black" d="M5321.18,-139.91C5339.31,-145.28 5358.97,-151.1 5376.83,-156.38"/>
<polygon fill="black" stroke="black" points="5375.65,-159.69 5386.23,-159.17 5377.64,-152.97 5375.65,-159.69"/>
</g>
<!-- node43 -->
<g id="node44" class="node">
<title>node43</title>
<ellipse fill="none" stroke="black" cx="3063.39" cy="-133" rx="110.27" ry="18"/>
<text xml:space="preserve" text-anchor="middle" x="3063.39" y="-128.8" font-family="Arial-Bold" font-size="14.00">43 &#45; Activate 1st Xselling</text>
</g>
<!-- node34&#45;&gt;node43 -->
<g id="edge46" class="edge">
<title>node34&#45;&gt;node43</title>
<path fill="none" stroke="black" d="M2483.34,-133C2584.91,-133 2803.66,-133 2941.31,-133"/>
<polygon fill="black" stroke="black" points="2941.21,-136.5 2951.21,-133 2941.21,-129.5 2941.21,-136.5"/>
</g>
<!-- node44 -->
<g id="node45" class="node">
<title>node44</title>
<polygon fill="none" stroke="black" points="3214.42,-108.2 3214.42,-157.8 3338.93,-157.8 3338.93,-108.2 3214.42,-108.2"/>
<text xml:space="preserve" text-anchor="middle" x="3255.53" y="-141.2" font-family="Arial-Bold" font-size="14.00">NewFlow</text>
<polyline fill="none" stroke="black" points="3296.64,-133 3296.64,-157.8"/>
<text xml:space="preserve" text-anchor="middle" x="3317.64" y="-141.2" font-family="Arial-Bold" font-size="14.00">44</text>
<polyline fill="none" stroke="black" points="3214.42,-133 3338.93,-133"/>
<text xml:space="preserve" text-anchor="middle" x="3276.67" y="-116.4" font-family="Arial-Bold" font-size="14.00">Send SEP 1st Xsell</text>
</g>
<!-- node43&#45;&gt;node44 -->
<g id="edge47" class="edge">
<title>node43&#45;&gt;node44</title>
<path fill="none" stroke="black" d="M3174.05,-133C3187.82,-133 3201.49,-133 3214.14,-133"/>
</g>
<!-- node44&#45;&gt;node35 -->
<g id="edge48" class="edge">
<title>node44&#45;&gt;node35</title>
<path fill="none" stroke="black" d="M3339.43,-145.52C3359.9,-149.68 3382.91,-154.34 3404.3,-158.68"/>
<polygon fill="black" stroke="black" points="3403.33,-162.06 3413.83,-160.61 3404.72,-155.2 3403.33,-162.06"/>
</g>
<!-- node48 -->
<g id="node47" class="node">
<title>node48</title>
<ellipse fill="none" stroke="black" cx="2190.82" cy="-72" rx="86.4" ry="18"/>
<text xml:space="preserve" text-anchor="middle" x="2190.82" y="-67.8" font-family="Arial-Bold" font-size="14.00">48 &#45; Bill authorized</text>
</g>
<!-- node47&#45;&gt;node48 -->
<g id="edge50" class="edge">
<title>node47&#45;&gt;node48</title>
<path fill="none" stroke="black" d="M1853.51,-72C1929.8,-72 2023.59,-72 2092.73,-72"/>
<polygon fill="black" stroke="black" points="2092.52,-75.5 2102.52,-72 2092.52,-68.5 2092.52,-75.5"/>
<text xml:space="preserve" text-anchor="middle" x="1948.64" y="-76.2" font-family="Times,serif" font-size="14.00">is_defined(&#39;vmi_cookie_ref&#39;)</text>
</g>
<!-- node51 -->
<g id="node48" class="node">
<title>node51</title>
<ellipse fill="black" stroke="black" cx="2190.82" cy="-18" rx="76.74" ry="18"/>
<text xml:space="preserve" text-anchor="middle" x="2190.82" y="-13.8" font-family="Arial-Bold" font-size="14.00" fill="white">51 &#45; Non billable</text>
</g>
<!-- node47&#45;&gt;node51 -->
<g id="edge51" class="edge">
<title>node47&#45;&gt;node51</title>
<path fill="none" stroke="black" d="M1783.64,-62.48C1809.78,-58.75 1840.3,-54.56 1867.98,-51.2 1949.25,-41.33 2042.3,-31.93 2107.37,-25.68"/>
<polygon fill="black" stroke="black" points="2107.66,-29.16 2117.28,-24.73 2106.99,-22.2 2107.66,-29.16"/>
<text xml:space="preserve" text-anchor="middle" x="1948.64" y="-55.4" font-family="Times,serif" font-size="14.00">default</text>
</g>
<!-- node49 -->
<g id="node49" class="node">
<title>node49</title>
<polygon fill="none" stroke="black" points="2372.69,-39.2 2372.69,-88.8 2481.64,-88.8 2481.64,-39.2 2372.69,-39.2"/>
<text xml:space="preserve" text-anchor="middle" x="2401.19" y="-72.2" font-family="Arial-Bold" font-size="14.00">Bill</text>
<polyline fill="none" stroke="black" points="2429.7,-64 2429.7,-88.8"/>
<text xml:space="preserve" text-anchor="middle" x="2455.2" y="-72.2" font-family="Arial-Bold" font-size="14.00">49</text>
<polyline fill="none" stroke="black" points="2372.69,-64 2481.64,-64"/>
<text xml:space="preserve" text-anchor="middle" x="2427.17" y="-47.4" font-family="Arial-Bold" font-size="14.00">Bill subscription</text>
</g>
<!-- node48&#45;&gt;node49 -->
<g id="edge52" class="edge">
<title>node48&#45;&gt;node49</title>
<path fill="none" stroke="black" d="M2276.42,-69.11C2308.41,-68.02 2343.92,-66.81 2372.33,-65.84"/>
</g>
<!-- node50 -->
<g id="node50" class="node">
<title>node50</title>
<ellipse fill="black" stroke="black" cx="3063.39" cy="-64" rx="73.8" ry="18"/>
<text xml:space="preserve" text-anchor="middle" x="3063.39" y="-59.8" font-family="Arial-Bold" font-size="14.00" fill="white">50 &#45; Subcription</text>
</g>
<!-- node49&#45;&gt;node50 -->
<g id="edge53" class="edge">
<title>node49&#45;&gt;node50</title>
<path fill="none" stroke="black" d="M2481.96,-64C2592.4,-64 2845.42,-64 2977.93,-64"/>
<polygon fill="black" stroke="black" points="2977.69,-67.5 2987.69,-64 2977.69,-60.5 2977.69,-67.5"/>
</g>
<!-- node52 -->
<g id="node52" class="node">
<title>node52</title>
<ellipse fill="black" stroke="black" cx="974.36" cy="-102" rx="136.03" ry="18"/>
<text xml:space="preserve" text-anchor="middle" x="974.36" y="-97.8" font-family="Arial-Bold" font-size="14.00" fill="white">52 &#45; Limbo subscription timeout</text>
</g>
<!-- node46&#45;&gt;node52 -->
<g id="edge55" class="edge">
<title>node46&#45;&gt;node52</title>
<path fill="none" stroke="black" d="M767.85,-102C785.6,-102 805.8,-102 826.46,-102"/>
<polygon fill="black" stroke="black" points="826.45,-105.5 836.45,-102 826.45,-98.5 826.45,-105.5"/>
</g>
</g>
</svg>
