<?xml version="1.0" encoding="UTF-8" standalone="no"?>
<!DOCTYPE svg PUBLIC "-//W3C//DTD SVG 1.1//EN"
 "http://www.w3.org/Graphics/SVG/1.1/DTD/svg11.dtd">
<!-- Generated by graphviz version a (a)
 -->
<!-- Title: simple Pages: 1 -->
<svg width="213pt" height="638pt"
 viewBox="0.00 0.00 213.00 638.00" xmlns="http://www.w3.org/2000/svg" xmlns:xlink="http://www.w3.org/1999/xlink">
<g id="graph0" class="graph" transform="scale(1 1) rotate(-90) translate(-634 208.8)">
<title>simple</title>
<polygon fill="white" stroke="none" points="-4,4 -4,-208.8 634,-208.8 634,4 -4,4"/>
<text xml:space="preserve" text-anchor="middle" x="315" y="-8.2" font-family="Times,serif" font-size="14.00">Task Hierarchy: model2</text>
<!-- task15 -->
<g id="node1" class="node">
<title>task15</title>
<polygon fill="none" stroke="black" points="306,-204.8 252,-204.8 252,-168.8 306,-168.8 306,-204.8"/>
<text xml:space="preserve" text-anchor="middle" x="279" y="-182.6" font-family="Times,serif" font-size="14.00" fill="forestgreen">task15</text>
</g>
<!-- task16 -->
<g id="node2" class="node">
<title>task16</title>
<polygon fill="none" stroke="black" points="54,-132.8 0,-132.8 0,-96.8 54,-96.8 54,-132.8"/>
<text xml:space="preserve" text-anchor="middle" x="27" y="-110.6" font-family="Times,serif" font-size="14.00">task16</text>
</g>
<!-- task15&#45;&gt;task16 -->
<g id="edge1" class="edge">
<title>task15&#45;&gt;task16</title>
<path fill="none" stroke="black" d="M251.55,-180.9C211.96,-173.44 136.55,-157.79 64.83,-133.08"/>
<polygon fill="black" stroke="black" points="66.3,-129.89 55.71,-129.88 63.98,-136.5 66.3,-129.89"/>
</g>
<!-- task17 -->
<g id="node3" class="node">
<title>task17</title>
<polygon fill="none" stroke="black" points="126,-132.8 72,-132.8 72,-96.8 126,-96.8 126,-132.8"/>
<text xml:space="preserve" text-anchor="middle" x="99" y="-110.6" font-family="Times,serif" font-size="14.00">task17</text>
</g>
<!-- task15&#45;&gt;task17 -->
<g id="edge2" class="edge">
<title>task15&#45;&gt;task17</title>
<path fill="none" stroke="black" d="M251.65,-176.54C224.58,-167.21 181.81,-151.99 136.92,-133.44"/>
<polygon fill="black" stroke="black" points="138.38,-130.26 127.8,-129.63 135.68,-136.71 138.38,-130.26"/>
</g>
<!-- task18 -->
<g id="node4" class="node">
<title>task18</title>
<polygon fill="none" stroke="black" points="198,-132.8 144,-132.8 144,-96.8 198,-96.8 198,-132.8"/>
<text xml:space="preserve" text-anchor="middle" x="171" y="-110.6" font-family="Times,serif" font-size="14.00">task18</text>
</g>
<!-- task15&#45;&gt;task18 -->
<g id="edge3" class="edge">
<title>task15&#45;&gt;task18</title>
<path fill="none" stroke="black" d="M252.03,-168.32C238.39,-159.48 221.66,-148.64 206.95,-139.1"/>
<polygon fill="black" stroke="black" points="209.2,-136.39 198.9,-133.88 205.39,-142.26 209.2,-136.39"/>
</g>
<!-- task19 -->
<g id="node5" class="node">
<title>task19</title>
<polygon fill="none" stroke="black" points="270,-132.8 216,-132.8 216,-96.8 270,-96.8 270,-132.8"/>
<text xml:space="preserve" text-anchor="middle" x="243" y="-110.6" font-family="Times,serif" font-size="14.00">task19</text>
</g>
<!-- task15&#45;&gt;task19 -->
<g id="edge4" class="edge">
<title>task15&#45;&gt;task19</title>
<path fill="none" stroke="black" d="M270.1,-168.5C266.13,-160.78 261.37,-151.51 256.94,-142.91"/>
<polygon fill="black" stroke="black" points="260.17,-141.54 252.49,-134.25 253.95,-144.74 260.17,-141.54"/>
</g>
<!-- task20 -->
<g id="node6" class="node">
<title>task20</title>
<polygon fill="none" stroke="black" points="342,-132.8 288,-132.8 288,-96.8 342,-96.8 342,-132.8"/>
<text xml:space="preserve" text-anchor="middle" x="315" y="-110.6" font-family="Times,serif" font-size="14.00">task20</text>
</g>
<!-- task15&#45;&gt;task20 -->
<g id="edge5" class="edge">
<title>task15&#45;&gt;task20</title>
<path fill="none" stroke="black" d="M287.9,-168.5C291.87,-160.78 296.63,-151.51 301.06,-142.91"/>
<polygon fill="black" stroke="black" points="304.05,-144.74 305.51,-134.25 297.83,-141.54 304.05,-144.74"/>
</g>
<!-- task21 -->
<g id="node7" class="node">
<title>task21</title>
<polygon fill="none" stroke="black" points="414,-132.8 360,-132.8 360,-96.8 414,-96.8 414,-132.8"/>
<text xml:space="preserve" text-anchor="middle" x="387" y="-110.6" font-family="Times,serif" font-size="14.00">task21</text>
</g>
<!-- task15&#45;&gt;task21 -->
<g id="edge6" class="edge">
<title>task15&#45;&gt;task21</title>
<path fill="none" stroke="black" d="M305.97,-168.32C319.61,-159.48 336.34,-148.64 351.05,-139.1"/>
<polygon fill="black" stroke="black" points="352.61,-142.26 359.1,-133.88 348.8,-136.39 352.61,-142.26"/>
</g>
<!-- task95 -->
<g id="node8" class="node">
<title>task95</title>
<polygon fill="none" stroke="black" points="486,-132.8 432,-132.8 432,-96.8 486,-96.8 486,-132.8"/>
<text xml:space="preserve" text-anchor="middle" x="459" y="-110.6" font-family="Times,serif" font-size="14.00">task95</text>
</g>
<!-- task15&#45;&gt;task95 -->
<g id="edge7" class="edge">
<title>task15&#45;&gt;task95</title>
<path fill="none" stroke="black" d="M306.35,-176.54C333.42,-167.21 376.19,-151.99 421.08,-133.44"/>
<polygon fill="black" stroke="black" points="422.32,-136.71 430.2,-129.63 419.62,-130.26 422.32,-136.71"/>
</g>
<!-- task31 -->
<g id="node9" class="node">
<title>task31</title>
<polygon fill="none" stroke="black" points="558,-132.8 504,-132.8 504,-96.8 558,-96.8 558,-132.8"/>
<text xml:space="preserve" text-anchor="middle" x="531" y="-110.6" font-family="Times,serif" font-size="14.00">task31</text>
</g>
<!-- task15&#45;&gt;task31 -->
<g id="edge8" class="edge">
<title>task15&#45;&gt;task31</title>
<path fill="none" stroke="black" d="M306.45,-180.9C346.04,-173.44 421.45,-157.79 493.17,-133.08"/>
<polygon fill="black" stroke="black" points="494.02,-136.5 502.29,-129.88 491.7,-129.89 494.02,-136.5"/>
</g>
<!-- task32 -->
<g id="node10" class="node">
<title>task32</title>
<polygon fill="none" stroke="black" points="486,-60.8 432,-60.8 432,-24.8 486,-24.8 486,-60.8"/>
<text xml:space="preserve" text-anchor="middle" x="459" y="-38.6" font-family="Times,serif" font-size="14.00">task32</text>
</g>
<!-- task31&#45;&gt;task32 -->
<g id="edge9" class="edge">
<title>task31&#45;&gt;task32</title>
<path fill="none" stroke="black" d="M513.2,-96.5C504.72,-88.25 494.41,-78.23 485.07,-69.15"/>
<polygon fill="black" stroke="black" points="487.54,-66.66 477.93,-62.2 482.66,-71.68 487.54,-66.66"/>
</g>
<!-- task33 -->
<g id="node11" class="node">
<title>task33</title>
<polygon fill="none" stroke="black" points="558,-60.8 504,-60.8 504,-24.8 558,-24.8 558,-60.8"/>
<text xml:space="preserve" text-anchor="middle" x="531" y="-38.6" font-family="Times,serif" font-size="14.00">task33</text>
</g>
<!-- task31&#45;&gt;task33 -->
<g id="edge10" class="edge">
<title>task31&#45;&gt;task33</title>
<path fill="none" stroke="black" d="M531,-96.5C531,-89.21 531,-80.53 531,-72.34"/>
<polygon fill="black" stroke="black" points="534.5,-72.42 531,-62.42 527.5,-72.42 534.5,-72.42"/>
</g>
<!-- task34 -->
<g id="node12" class="node">
<title>task34</title>
<polygon fill="none" stroke="black" points="630,-60.8 576,-60.8 576,-24.8 630,-24.8 630,-60.8"/>
<text xml:space="preserve" text-anchor="middle" x="603" y="-38.6" font-family="Times,serif" font-size="14.00">task34</text>
</g>
<!-- task31&#45;&gt;task34 -->
<g id="edge11" class="edge">
<title>task31&#45;&gt;task34</title>
<path fill="none" stroke="black" d="M548.8,-96.5C557.28,-88.25 567.59,-78.23 576.93,-69.15"/>
<polygon fill="black" stroke="black" points="579.34,-71.68 584.07,-62.2 574.46,-66.66 579.34,-71.68"/>
</g>
</g>
</svg>
