<?xml version="1.0" encoding="UTF-8" standalone="no"?>
<!DOCTYPE svg PUBLIC "-//W3C//DTD SVG 1.1//EN"
 "http://www.w3.org/Graphics/SVG/1.1/DTD/svg11.dtd">
<!-- Generated by graphviz version a (a)
 -->
<!-- Title: firewall Pages: 1 -->
<svg width="2527pt" height="133pt"
 viewBox="0.00 0.00 2527.00 133.00" xmlns="http://www.w3.org/2000/svg" xmlns:xlink="http://www.w3.org/1999/xlink">
<g id="graph0" class="graph" transform="scale(1 1) rotate(0) translate(4 128.8)">
<title>firewall</title>
<polygon fill="white" stroke="none" points="-4,4 -4,-128.8 2523.21,-128.8 2523.21,4 -4,4"/>
<!-- h208_50_157_183 -->
<g id="node1" class="node">
<title>h208_50_157_183</title>
<ellipse fill="none" stroke="black" cx="224.61" cy="-106.8" rx="83.46" ry="18"/>
<text xml:space="preserve" text-anchor="middle" x="224.61" y="-102.6" font-family="Times,serif" font-size="14.00">h208_50_157_183</text>
</g>
<!-- h130_75_118_14_p9705 -->
<g id="node2" class="node">
<title>h130_75_118_14_p9705</title>
<ellipse fill="none" stroke="black" cx="107.61" cy="-18" rx="107.61" ry="18"/>
<text xml:space="preserve" text-anchor="middle" x="107.61" y="-13.8" font-family="Times,serif" font-size="14.00">h130_75_118_14_p9705</text>
</g>
<!-- h208_50_157_183&#45;&gt;h130_75_118_14_p9705 -->
<g id="edge1" class="edge">
<title>h208_50_157_183&#45;&gt;h130_75_118_14_p9705</title>
<path fill="none" stroke="black" d="M202.05,-89.06C184.36,-75.94 159.51,-57.5 139.74,-42.84"/>
<polygon fill="black" stroke="black" points="141.83,-40.03 131.71,-36.88 137.66,-45.65 141.83,-40.03"/>
<text xml:space="preserve" text-anchor="middle" x="181.64" y="-58.2" font-family="Times,serif" font-size="14.00">X</text>
</g>
<!-- h130_75_118_14_p6635 -->
<g id="node3" class="node">
<title>h130_75_118_14_p6635</title>
<ellipse fill="none" stroke="black" cx="340.61" cy="-18" rx="107.61" ry="18"/>
<text xml:space="preserve" text-anchor="middle" x="340.61" y="-13.8" font-family="Times,serif" font-size="14.00">h130_75_118_14_p6635</text>
</g>
<!-- h208_50_157_183&#45;&gt;h130_75_118_14_p6635 -->
<g id="edge2" class="edge">
<title>h208_50_157_183&#45;&gt;h130_75_118_14_p6635</title>
<path fill="none" stroke="black" d="M246.97,-89.06C264.51,-75.94 289.15,-57.5 308.75,-42.84"/>
<polygon fill="black" stroke="black" points="310.79,-45.68 316.7,-36.89 306.6,-40.08 310.79,-45.68"/>
<text xml:space="preserve" text-anchor="middle" x="298.05" y="-58.2" font-family="Times,serif" font-size="14.00">X</text>
</g>
<!-- h130_75_118_214 -->
<g id="node4" class="node">
<title>h130_75_118_214</title>
<ellipse fill="none" stroke="black" cx="1115.61" cy="-106.8" rx="83.46" ry="18"/>
<text xml:space="preserve" text-anchor="middle" x="1115.61" y="-102.6" font-family="Times,serif" font-size="14.00">h130_75_118_214</text>
</g>
<!-- h130_75_118_14_p514 -->
<g id="node5" class="node">
<title>h130_75_118_14_p514</title>
<ellipse fill="none" stroke="black" cx="1198.61" cy="-18" rx="102.78" ry="18"/>
<text xml:space="preserve" text-anchor="middle" x="1198.61" y="-13.8" font-family="Times,serif" font-size="14.00">h130_75_118_14_p514</text>
</g>
<!-- h130_75_118_214&#45;&gt;h130_75_118_14_p514 -->
<g id="edge3" class="edge">
<title>h130_75_118_214&#45;&gt;h130_75_118_14_p514</title>
<path fill="none" stroke="black" d="M1032.19,-104.91C843.18,-102.48 396.89,-94.28 374.5,-70.8 369.34,-65.4 369.33,-59.39 374.5,-54 398.65,-28.8 864.09,-21.68 1084.59,-19.72"/>
<polygon fill="black" stroke="black" points="1084.39,-23.22 1094.36,-19.64 1084.33,-16.22 1084.39,-23.22"/>
<text xml:space="preserve" text-anchor="middle" x="379.55" y="-58.2" font-family="Times,serif" font-size="14.00">X</text>
</g>
<!-- h130_75_118_214&#45;&gt;h130_75_118_14_p514 -->
<g id="edge4" class="edge">
<title>h130_75_118_214&#45;&gt;h130_75_118_14_p514</title>
<path fill="none" stroke="black" d="M1032.51,-104.72C850.02,-101.94 428.74,-93.12 407.5,-70.8 402.35,-65.39 402.33,-59.4 407.5,-54 430.5,-29.95 871.43,-22.26 1084.81,-19.94"/>
<polygon fill="black" stroke="black" points="1084.56,-23.44 1094.53,-19.83 1084.49,-16.44 1084.56,-23.44"/>
<text xml:space="preserve" text-anchor="middle" x="412.55" y="-58.2" font-family="Times,serif" font-size="14.00">X</text>
</g>
<!-- h130_75_118_214&#45;&gt;h130_75_118_14_p514 -->
<g id="edge5" class="edge">
<title>h130_75_118_214&#45;&gt;h130_75_118_14_p514</title>
<path fill="none" stroke="black" d="M1032.43,-104.5C856.4,-101.35 460.57,-91.94 440.5,-70.8 435.35,-65.39 435.34,-59.4 440.5,-54 462.35,-31.12 878.36,-22.87 1084.63,-20.18"/>
<polygon fill="black" stroke="black" points="1084.63,-23.68 1094.58,-20.05 1084.54,-16.68 1084.63,-23.68"/>
<text xml:space="preserve" text-anchor="middle" x="445.55" y="-58.2" font-family="Times,serif" font-size="14.00">X</text>
</g>
<!-- h130_75_118_214&#45;&gt;h130_75_118_14_p514 -->
<g id="edge6" class="edge">
<title>h130_75_118_214&#45;&gt;h130_75_118_14_p514</title>
<path fill="none" stroke="black" d="M1032.66,-104.27C863.39,-100.75 492.42,-90.79 473.5,-70.8 468.36,-65.38 468.34,-59.41 473.5,-54 494.22,-32.25 886.33,-23.48 1085.1,-20.43"/>
<polygon fill="black" stroke="black" points="1084.99,-23.93 1094.94,-20.28 1084.89,-16.93 1084.99,-23.93"/>
<text xml:space="preserve" text-anchor="middle" x="478.55" y="-58.2" font-family="Times,serif" font-size="14.00">X</text>
</g>
<!-- h130_75_118_214&#45;&gt;h130_75_118_14_p514 -->
<g id="edge13" class="edge">
<title>h130_75_118_214&#45;&gt;h130_75_118_14_p514</title>
<path fill="none" stroke="black" d="M1032.6,-104.01C870.12,-100.11 524.27,-89.62 506.5,-70.8 501.37,-65.37 501.35,-59.41 506.5,-54 526.07,-33.41 893.56,-24.15 1084.89,-20.71"/>
<polygon fill="black" stroke="black" points="1084.94,-24.21 1094.88,-20.53 1084.82,-17.21 1084.94,-24.21"/>
<text xml:space="preserve" text-anchor="middle" x="511.55" y="-58.2" font-family="Times,serif" font-size="14.00">X</text>
</g>
<!-- h130_75_118_214&#45;&gt;h130_75_118_14_p514 -->
<g id="edge14" class="edge">
<title>h130_75_118_214&#45;&gt;h130_75_118_14_p514</title>
<path fill="none" stroke="black" d="M1032.93,-103.73C877.58,-99.44 556.13,-88.47 539.5,-70.8 534.38,-65.36 534.36,-59.42 539.5,-54 557.95,-34.54 901.88,-24.83 1085.39,-21.01"/>
<polygon fill="black" stroke="black" points="1085.26,-24.51 1095.19,-20.81 1085.12,-17.51 1085.26,-24.51"/>
<text xml:space="preserve" text-anchor="middle" x="544.55" y="-58.2" font-family="Times,serif" font-size="14.00">X</text>
</g>
<!-- h130_75_118_214&#45;&gt;h130_75_118_14_p514 -->
<g id="edge15" class="edge">
<title>h130_75_118_214&#45;&gt;h130_75_118_14_p514</title>
<path fill="none" stroke="black" d="M1031.76,-106.55C887.12,-106.96 603.17,-103.52 572.5,-70.8 567.39,-65.35 567.37,-59.43 572.5,-54 589.82,-35.68 910.12,-25.54 1085.7,-21.34"/>
<polygon fill="black" stroke="black" points="1085.63,-24.84 1095.54,-21.11 1085.46,-17.85 1085.63,-24.84"/>
<text xml:space="preserve" text-anchor="middle" x="577.55" y="-58.2" font-family="Times,serif" font-size="14.00">X</text>
</g>
<!-- h130_75_118_214&#45;&gt;h130_75_118_14_p514 -->
<g id="edge16" class="edge">
<title>h130_75_118_214&#45;&gt;h130_75_118_14_p514</title>
<path fill="none" stroke="black" d="M1031.96,-106.16C894.68,-105.86 633.91,-101.23 605.5,-70.8 600.4,-65.34 600.37,-59.43 605.5,-54 621.7,-36.82 918.35,-26.3 1085.83,-21.71"/>
<polygon fill="black" stroke="black" points="1085.75,-25.22 1095.65,-21.45 1085.56,-18.22 1085.75,-25.22"/>
<text xml:space="preserve" text-anchor="middle" x="610.55" y="-58.2" font-family="Times,serif" font-size="14.00">X</text>
</g>
<!-- h130_75_118_214&#45;&gt;h130_75_118_14_p514 -->
<g id="edge17" class="edge">
<title>h130_75_118_214&#45;&gt;h130_75_118_14_p514</title>
<path fill="none" stroke="black" d="M1031.9,-105.71C902.16,-104.69 664.64,-98.94 638.5,-70.8 633.41,-65.33 633.38,-59.44 638.5,-54 653.59,-37.93 927.43,-27.09 1086.52,-22.11"/>
<polygon fill="black" stroke="black" points="1086.37,-25.62 1096.26,-21.81 1086.15,-18.62 1086.37,-25.62"/>
<text xml:space="preserve" text-anchor="middle" x="643.55" y="-58.2" font-family="Times,serif" font-size="14.00">X</text>
</g>
<!-- h130_75_118_214&#45;&gt;h130_75_118_14_p514 -->
<g id="edge18" class="edge">
<title>h130_75_118_214&#45;&gt;h130_75_118_14_p514</title>
<path fill="none" stroke="black" d="M1031.97,-105.2C910.07,-103.44 695.4,-96.66 671.5,-70.8 666.43,-65.32 666.39,-59.45 671.5,-54 699.06,-24.55 937.65,-19.05 1084.22,-18.49"/>
<polygon fill="black" stroke="black" points="1083.98,-21.99 1093.97,-18.46 1083.96,-14.99 1083.98,-21.99"/>
<text xml:space="preserve" text-anchor="middle" x="676.55" y="-58.2" font-family="Times,serif" font-size="14.00">X</text>
</g>
<!-- h130_75_118_214&#45;&gt;h130_75_118_14_p514 -->
<g id="edge19" class="edge">
<title>h130_75_118_214&#45;&gt;h130_75_118_14_p514</title>
<path fill="none" stroke="black" d="M1032.29,-104.61C918.53,-102.11 726.18,-94.41 704.5,-70.8 699.44,-65.3 699.41,-59.46 704.5,-54 729.83,-26.8 946.31,-20.38 1084.2,-19.07"/>
<polygon fill="black" stroke="black" points="1084.15,-22.57 1094.12,-18.99 1084.09,-15.57 1084.15,-22.57"/>
<text xml:space="preserve" text-anchor="middle" x="709.55" y="-58.2" font-family="Times,serif" font-size="14.00">X</text>
</g>
<!-- h130_75_118_214&#45;&gt;h130_75_118_14_p514 -->
<g id="edge20" class="edge">
<title>h130_75_118_214&#45;&gt;h130_75_118_14_p514</title>
<path fill="none" stroke="black" d="M1031.86,-106.42C908.36,-105.87 696.17,-98.58 737.5,-54 760.64,-29.03 955.57,-21.78 1084.47,-19.74"/>
<polygon fill="black" stroke="black" points="1084.49,-23.24 1094.44,-19.59 1084.39,-16.24 1084.49,-23.24"/>
<text xml:space="preserve" text-anchor="middle" x="742.55" y="-58.2" font-family="Times,serif" font-size="14.00">X</text>
</g>
<!-- h130_75_118_214&#45;&gt;h130_75_118_14_p514 -->
<g id="edge21" class="edge">
<title>h130_75_118_214&#45;&gt;h130_75_118_14_p514</title>
<path fill="none" stroke="black" d="M1032.17,-105.41C918.66,-103.39 733.59,-94.04 770.5,-54 791.47,-31.24 965.29,-23.28 1084.89,-20.5"/>
<polygon fill="black" stroke="black" points="1084.86,-24 1094.78,-20.28 1084.7,-17 1084.86,-24"/>
<text xml:space="preserve" text-anchor="middle" x="775.55" y="-58.2" font-family="Times,serif" font-size="14.00">X</text>
</g>
<!-- h130_75_118_214&#45;&gt;h130_75_118_14_p514 -->
<g id="edge22" class="edge">
<title>h130_75_118_214&#45;&gt;h130_75_118_14_p514</title>
<path fill="none" stroke="black" d="M1032.78,-104.2C929.71,-100.7 770.95,-89.55 803.5,-54 822.33,-33.43 975.58,-24.87 1085.56,-21.37"/>
<polygon fill="black" stroke="black" points="1085.67,-24.87 1095.56,-21.06 1085.45,-17.87 1085.67,-24.87"/>
<text xml:space="preserve" text-anchor="middle" x="808.55" y="-58.2" font-family="Times,serif" font-size="14.00">X</text>
</g>
<!-- h130_75_118_214&#45;&gt;h130_75_118_14_p514 -->
<g id="edge23" class="edge">
<title>h130_75_118_214&#45;&gt;h130_75_118_14_p514</title>
<path fill="none" stroke="black" d="M1036,-101.13C958.21,-95.74 849.6,-85.65 836.5,-70.8 831.56,-65.2 831.48,-59.53 836.5,-54 853.21,-35.6 986.31,-26.59 1086.33,-22.39"/>
<polygon fill="black" stroke="black" points="1086.38,-25.89 1096.23,-21.98 1086.09,-18.89 1086.38,-25.89"/>
<text xml:space="preserve" text-anchor="middle" x="841.55" y="-58.2" font-family="Times,serif" font-size="14.00">X</text>
</g>
<!-- h130_75_118_214&#45;&gt;h130_75_118_14_p514 -->
<g id="edge24" class="edge">
<title>h130_75_118_214&#45;&gt;h130_75_118_14_p514</title>
<path fill="none" stroke="black" d="M1032.01,-105.23C969.15,-102.82 890.39,-94.88 869.5,-70.8 864.6,-65.16 864.5,-59.55 869.5,-54 884.14,-37.71 998.1,-28.41 1087.86,-23.55"/>
<polygon fill="black" stroke="black" points="1087.93,-27.05 1097.73,-23.03 1087.56,-20.06 1087.93,-27.05"/>
<text xml:space="preserve" text-anchor="middle" x="874.55" y="-58.2" font-family="Times,serif" font-size="14.00">X</text>
</g>
<!-- h130_75_118_214&#45;&gt;h130_75_118_14_p514 -->
<g id="edge25" class="edge">
<title>h130_75_118_214&#45;&gt;h130_75_118_14_p514</title>
<path fill="none" stroke="black" d="M1033.61,-103.02C980.96,-99.31 919.39,-90.7 902.5,-70.8 897.66,-65.11 897.54,-59.58 902.5,-54 915.14,-39.77 1011,-30.34 1090.28,-24.89"/>
<polygon fill="black" stroke="black" points="1090.09,-28.41 1099.84,-24.25 1089.62,-21.43 1090.09,-28.41"/>
<text xml:space="preserve" text-anchor="middle" x="907.55" y="-58.2" font-family="Times,serif" font-size="14.00">X</text>
</g>
<!-- h130_75_118_214&#45;&gt;h130_75_118_14_p514 -->
<g id="edge26" class="edge">
<title>h130_75_118_214&#45;&gt;h130_75_118_14_p514</title>
<path fill="none" stroke="black" d="M1032,-105.4C970.7,-102.19 903.34,-90.72 935.5,-54 955.22,-31.48 1022.68,-22.8 1084.35,-19.72"/>
<polygon fill="black" stroke="black" points="1084.44,-23.22 1094.28,-19.28 1084.13,-16.23 1084.44,-23.22"/>
<text xml:space="preserve" text-anchor="middle" x="940.55" y="-58.2" font-family="Times,serif" font-size="14.00">X</text>
</g>
<!-- h130_75_118_214&#45;&gt;h130_75_118_14_p514 -->
<g id="edge27" class="edge">
<title>h130_75_118_214&#45;&gt;h130_75_118_14_p514</title>
<path fill="none" stroke="black" d="M1035.89,-101.09C989.28,-95.32 944.01,-82.49 968.5,-54 984.29,-35.62 1035.79,-26.78 1086.07,-22.58"/>
<polygon fill="black" stroke="black" points="1086.23,-26.08 1095.93,-21.82 1085.69,-19.1 1086.23,-26.08"/>
<text xml:space="preserve" text-anchor="middle" x="973.55" y="-58.2" font-family="Times,serif" font-size="14.00">X</text>
</g>
<!-- h130_75_118_214&#45;&gt;h130_75_118_14_p514 -->
<g id="edge28" class="edge">
<title>h130_75_118_214&#45;&gt;h130_75_118_14_p514</title>
<path fill="none" stroke="black" d="M1046.68,-96.26C1013.04,-88.7 983.33,-75.68 1001.5,-54 1013.71,-39.42 1051.52,-30.91 1090.79,-25.95"/>
<polygon fill="black" stroke="black" points="1091.14,-29.43 1100.66,-24.78 1090.32,-22.48 1091.14,-29.43"/>
<text xml:space="preserve" text-anchor="middle" x="1006.55" y="-58.2" font-family="Times,serif" font-size="14.00">X</text>
</g>
<!-- h130_75_118_214&#45;&gt;h130_75_118_14_p514 -->
<g id="edge29" class="edge">
<title>h130_75_118_214&#45;&gt;h130_75_118_14_p514</title>
<path fill="none" stroke="black" d="M1064.41,-92.16C1041.01,-83.37 1021.15,-70.5 1034.5,-54 1043.6,-42.75 1070.33,-34.97 1099.65,-29.65"/>
<polygon fill="black" stroke="black" points="1100.22,-33.1 1109.49,-27.98 1099.05,-26.2 1100.22,-33.1"/>
<text xml:space="preserve" text-anchor="middle" x="1039.55" y="-58.2" font-family="Times,serif" font-size="14.00">X</text>
</g>
<!-- h130_75_118_214&#45;&gt;h130_75_118_14_p514 -->
<g id="edge30" class="edge">
<title>h130_75_118_214&#45;&gt;h130_75_118_14_p514</title>
<path fill="none" stroke="black" d="M1085.05,-89.7C1070.33,-79.81 1057.78,-66.65 1067.5,-54 1073.97,-45.57 1092.18,-38.73 1113.05,-33.41"/>
<polygon fill="black" stroke="black" points="1113.76,-36.84 1122.68,-31.12 1112.14,-30.03 1113.76,-36.84"/>
<text xml:space="preserve" text-anchor="middle" x="1072.55" y="-58.2" font-family="Times,serif" font-size="14.00">X</text>
</g>
<!-- h130_75_118_214&#45;&gt;h130_75_118_14_p514 -->
<g id="edge31" class="edge">
<title>h130_75_118_214&#45;&gt;h130_75_118_14_p514</title>
<path fill="none" stroke="black" d="M1103.65,-88.71C1097.74,-77.97 1093.26,-64.26 1100.5,-54 1105.48,-46.93 1112.02,-41.28 1119.37,-36.77"/>
<polygon fill="black" stroke="black" points="1120.51,-40.13 1127.71,-32.35 1117.24,-33.94 1120.51,-40.13"/>
<text xml:space="preserve" text-anchor="middle" x="1105.55" y="-58.2" font-family="Times,serif" font-size="14.00">X</text>
</g>
<!-- h130_75_118_214&#45;&gt;h130_75_118_14_p514 -->
<g id="edge32" class="edge">
<title>h130_75_118_214&#45;&gt;h130_75_118_14_p514</title>
<path fill="none" stroke="black" d="M1118.29,-88.34C1120.72,-77.45 1125.23,-63.71 1133.5,-54 1137.7,-49.05 1142.79,-44.69 1148.25,-40.89"/>
<polygon fill="black" stroke="black" points="1149.78,-44.05 1156.41,-35.79 1146.07,-38.12 1149.78,-44.05"/>
<text xml:space="preserve" text-anchor="middle" x="1138.55" y="-58.2" font-family="Times,serif" font-size="14.00">X</text>
</g>
<!-- h130_75_118_214&#45;&gt;h130_75_118_14_p514 -->
<g id="edge33" class="edge">
<title>h130_75_118_214&#45;&gt;h130_75_118_14_p514</title>
<path fill="none" stroke="black" d="M1131.61,-89.06C1143.82,-76.3 1160.83,-58.51 1174.66,-44.05"/>
<polygon fill="black" stroke="black" points="1176.94,-46.72 1181.32,-37.07 1171.88,-41.88 1176.94,-46.72"/>
<text xml:space="preserve" text-anchor="middle" x="1169.6" y="-58.2" font-family="Times,serif" font-size="14.00">X</text>
</g>
<!-- h130_75_118_214&#45;&gt;h130_75_118_14_p514 -->
<g id="edge34" class="edge">
<title>h130_75_118_214&#45;&gt;h130_75_118_14_p514</title>
<path fill="none" stroke="black" d="M1151.68,-90.2C1160.68,-85.03 1169.72,-78.56 1176.61,-70.8 1182.58,-64.07 1187.1,-55.47 1190.45,-47.23"/>
<polygon fill="black" stroke="black" points="1193.73,-48.43 1193.79,-37.83 1187.14,-46.08 1193.73,-48.43"/>
<text xml:space="preserve" text-anchor="middle" x="1192.44" y="-58.2" font-family="Times,serif" font-size="14.00">X</text>
</g>
<!-- h130_75_118_214&#45;&gt;h130_75_118_14_p514 -->
<g id="edge35" class="edge">
<title>h130_75_118_214&#45;&gt;h130_75_118_14_p514</title>
<path fill="none" stroke="black" d="M1172.78,-93.5C1184.14,-88.37 1194.68,-81.1 1201.61,-70.8 1206.13,-64.07 1207.1,-55.67 1206.46,-47.6"/>
<polygon fill="black" stroke="black" points="1209.92,-47.05 1204.84,-37.75 1203.01,-48.19 1209.92,-47.05"/>
<text xml:space="preserve" text-anchor="middle" x="1211.58" y="-58.2" font-family="Times,serif" font-size="14.00">X</text>
</g>
<!-- h130_75_118_214&#45;&gt;h130_75_118_14_p514 -->
<g id="edge36" class="edge">
<title>h130_75_118_214&#45;&gt;h130_75_118_14_p514</title>
<path fill="none" stroke="black" d="M1184.32,-96.3C1198.5,-91.06 1211.79,-83.04 1220.61,-70.8 1226.11,-63.17 1224.36,-53.94 1220.03,-45.41"/>
<polygon fill="black" stroke="black" points="1223.12,-43.75 1214.85,-37.13 1217.18,-47.46 1223.12,-43.75"/>
<text xml:space="preserve" text-anchor="middle" x="1229.11" y="-58.2" font-family="Times,serif" font-size="14.00">X</text>
</g>
<!-- h130_75_118_214&#45;&gt;h130_75_118_14_p514 -->
<g id="edge37" class="edge">
<title>h130_75_118_214&#45;&gt;h130_75_118_14_p514</title>
<path fill="none" stroke="black" d="M1179.44,-94.91C1205.31,-89.09 1230.91,-80.99 1238.61,-70.8 1245.35,-61.87 1240.98,-52.14 1233.05,-43.55"/>
<polygon fill="black" stroke="black" points="1235.43,-40.98 1225.72,-36.75 1230.68,-46.12 1235.43,-40.98"/>
<text xml:space="preserve" text-anchor="middle" x="1246.97" y="-58.2" font-family="Times,serif" font-size="14.00">X</text>
</g>
<!-- h130_75_118_214&#45;&gt;h130_75_118_14_p514 -->
<g id="edge38" class="edge">
<title>h130_75_118_214&#45;&gt;h130_75_118_14_p514</title>
<path fill="none" stroke="black" d="M1185.09,-96.55C1215.54,-90.94 1246.43,-82.55 1255.61,-70.8 1263.87,-60.22 1256.88,-49.97 1245.34,-41.42"/>
<polygon fill="black" stroke="black" points="1247.36,-38.56 1237.07,-36.06 1243.55,-44.43 1247.36,-38.56"/>
<text xml:space="preserve" text-anchor="middle" x="1264.27" y="-58.2" font-family="Times,serif" font-size="14.00">X</text>
</g>
<!-- h130_75_118_214&#45;&gt;h130_75_118_14_p514 -->
<g id="edge39" class="edge">
<title>h130_75_118_214&#45;&gt;h130_75_118_14_p514</title>
<path fill="none" stroke="black" d="M1190.04,-98.25C1225.59,-92.95 1262.75,-84.33 1273.61,-70.8 1283.7,-58.23 1273.88,-47.46 1258.41,-39.05"/>
<polygon fill="black" stroke="black" points="1260.06,-35.96 1249.53,-34.78 1257.03,-42.27 1260.06,-35.96"/>
<text xml:space="preserve" text-anchor="middle" x="1282.75" y="-58.2" font-family="Times,serif" font-size="14.00">X</text>
</g>
<!-- h130_75_118_214&#45;&gt;h130_75_118_14_p514 -->
<g id="edge40" class="edge">
<title>h130_75_118_214&#45;&gt;h130_75_118_14_p514</title>
<path fill="none" stroke="black" d="M1193.16,-99.97C1234.27,-95.1 1278.86,-86.33 1291.61,-70.8 1303.64,-56.14 1291.08,-44.91 1271.72,-36.72"/>
<polygon fill="black" stroke="black" points="1273.07,-33.49 1262.48,-33.24 1270.6,-40.04 1273.07,-33.49"/>
<text xml:space="preserve" text-anchor="middle" x="1301.35" y="-58.2" font-family="Times,serif" font-size="14.00">X</text>
</g>
<!-- h130_75_118_214&#45;&gt;h130_75_118_14_p514 -->
<g id="edge41" class="edge">
<title>h130_75_118_214&#45;&gt;h130_75_118_14_p514</title>
<path fill="none" stroke="black" d="M1195.92,-101.6C1242.89,-97.27 1295.79,-88.51 1310.61,-70.8 1325.04,-53.55 1308.79,-41.73 1284.6,-33.8"/>
<polygon fill="black" stroke="black" points="1285.85,-30.52 1275.27,-31.06 1283.88,-37.23 1285.85,-30.52"/>
<text xml:space="preserve" text-anchor="middle" x="1321.08" y="-58.2" font-family="Times,serif" font-size="14.00">X</text>
</g>
<!-- h130_75_118_214&#45;&gt;h130_75_118_14_p514 -->
<g id="edge42" class="edge">
<title>h130_75_118_214&#45;&gt;h130_75_118_14_p514</title>
<path fill="none" stroke="black" d="M1197.76,-103.16C1250.99,-99.51 1313.49,-90.93 1330.61,-70.8 1348.01,-50.33 1326.59,-37.9 1296.28,-30.38"/>
<polygon fill="black" stroke="black" points="1297.23,-27 1286.71,-28.24 1295.71,-33.84 1297.23,-27"/>
<text xml:space="preserve" text-anchor="middle" x="1341.89" y="-58.2" font-family="Times,serif" font-size="14.00">X</text>
</g>
<!-- h130_75_118_214&#45;&gt;h130_75_118_14_p514 -->
<g id="edge43" class="edge">
<title>h130_75_118_214&#45;&gt;h130_75_118_14_p514</title>
<path fill="none" stroke="black" d="M1198.82,-104.54C1258.28,-101.67 1331.08,-93.45 1350.61,-70.8 1371.57,-46.48 1342.91,-33.56 1305.03,-26.7"/>
<polygon fill="black" stroke="black" points="1306.06,-23.32 1295.63,-25.17 1304.93,-30.23 1306.06,-23.32"/>
<text xml:space="preserve" text-anchor="middle" x="1362.73" y="-58.2" font-family="Times,serif" font-size="14.00">X</text>
</g>
<!-- h130_75_118_214&#45;&gt;h130_75_118_14_p514 -->
<g id="edge44" class="edge">
<title>h130_75_118_214&#45;&gt;h130_75_118_14_p514</title>
<path fill="none" stroke="black" d="M1199.22,-105.82C1265.12,-103.83 1349.45,-96.19 1371.61,-70.8 1396.94,-41.76 1358.06,-28.67 1310.79,-22.9"/>
<polygon fill="black" stroke="black" points="1311.44,-19.45 1301.12,-21.84 1310.68,-26.41 1311.44,-19.45"/>
<text xml:space="preserve" text-anchor="middle" x="1384.64" y="-58.2" font-family="Times,serif" font-size="14.00">X</text>
</g>
<!-- h130_75_118_214&#45;&gt;h130_75_118_14_p514 -->
<g id="edge45" class="edge">
<title>h130_75_118_214&#45;&gt;h130_75_118_14_p514</title>
<path fill="none" stroke="black" d="M1195.25,-101.08C1272.71,-95.67 1380.57,-85.58 1393.61,-70.8 1398.54,-65.2 1398.4,-59.73 1393.61,-54 1381.55,-39.59 1344.28,-31.11 1305.51,-26.11"/>
<polygon fill="black" stroke="black" points="1306.41,-22.7 1296.06,-24.98 1305.57,-29.65 1306.41,-22.7"/>
<text xml:space="preserve" text-anchor="middle" x="1402.31" y="-58.2" font-family="Times,serif" font-size="14.00">X</text>
</g>
<!-- h130_75_118_214&#45;&gt;h130_75_118_14_p514 -->
<g id="edge46" class="edge">
<title>h130_75_118_214&#45;&gt;h130_75_118_14_p514</title>
<path fill="none" stroke="black" d="M1196.22,-101.7C1278.92,-96.65 1397.45,-86.73 1411.61,-70.8 1416.57,-65.22 1416.44,-59.69 1411.61,-54 1397.69,-37.61 1353.43,-28.88 1308.85,-24.24"/>
<polygon fill="black" stroke="black" points="1309.32,-20.76 1299.03,-23.29 1308.64,-27.73 1309.32,-20.76"/>
<text xml:space="preserve" text-anchor="middle" x="1420.33" y="-58.2" font-family="Times,serif" font-size="14.00">X</text>
</g>
<!-- h130_75_118_214&#45;&gt;h130_75_118_14_p514 -->
<g id="edge47" class="edge">
<title>h130_75_118_214&#45;&gt;h130_75_118_14_p514</title>
<path fill="none" stroke="black" d="M1196.75,-102.28C1284.59,-97.62 1414.29,-87.92 1429.61,-70.8 1434.58,-65.24 1434.47,-59.66 1429.61,-54 1413.72,-35.52 1361.85,-26.68 1311.28,-22.5"/>
<polygon fill="black" stroke="black" points="1311.59,-19.01 1301.35,-21.74 1311.06,-25.99 1311.59,-19.01"/>
<text xml:space="preserve" text-anchor="middle" x="1438.35" y="-58.2" font-family="Times,serif" font-size="14.00">X</text>
</g>
<!-- h130_75_118_214&#45;&gt;h130_75_118_14_p514 -->
<g id="edge48" class="edge">
<title>h130_75_118_214&#45;&gt;h130_75_118_14_p514</title>
<path fill="none" stroke="black" d="M1197.26,-102.8C1290.13,-98.53 1431.13,-89.11 1447.61,-70.8 1452.6,-65.25 1452.5,-59.64 1447.61,-54 1429.58,-33.27 1369.1,-24.46 1312.26,-20.86"/>
<polygon fill="black" stroke="black" points="1312.65,-17.38 1302.46,-20.3 1312.24,-24.37 1312.65,-17.38"/>
<text xml:space="preserve" text-anchor="middle" x="1456.37" y="-58.2" font-family="Times,serif" font-size="14.00">X</text>
</g>
<!-- h130_75_118_214&#45;&gt;h130_75_118_14_p514 -->
<g id="edge49" class="edge">
<title>h130_75_118_214&#45;&gt;h130_75_118_14_p514</title>
<path fill="none" stroke="black" d="M1197.81,-103.27C1295.61,-99.4 1447.96,-90.3 1465.61,-70.8 1470.62,-65.26 1470.53,-59.61 1465.61,-54 1445.39,-30.96 1375.83,-22.34 1312.78,-19.41"/>
<polygon fill="black" stroke="black" points="1313.16,-15.93 1303.02,-19.01 1312.87,-22.92 1313.16,-15.93"/>
<text xml:space="preserve" text-anchor="middle" x="1474.39" y="-58.2" font-family="Times,serif" font-size="14.00">X</text>
</g>
<!-- h130_75_118_214&#45;&gt;h130_75_118_14_p514 -->
<g id="edge50" class="edge">
<title>h130_75_118_214&#45;&gt;h130_75_118_14_p514</title>
<path fill="none" stroke="black" d="M1198.02,-103.71C1300.63,-100.25 1464.77,-91.51 1483.61,-70.8 1488.63,-65.28 1488.55,-59.59 1483.61,-54 1471.62,-40.45 1381.65,-31.02 1305.95,-25.39"/>
<polygon fill="black" stroke="black" points="1306.64,-21.93 1296.41,-24.69 1306.13,-28.91 1306.64,-21.93"/>
<text xml:space="preserve" text-anchor="middle" x="1492.4" y="-58.2" font-family="Times,serif" font-size="14.00">X</text>
</g>
<!-- h130_75_118_214&#45;&gt;h130_75_118_14_p514 -->
<g id="edge51" class="edge">
<title>h130_75_118_214&#45;&gt;h130_75_118_14_p514</title>
<path fill="none" stroke="black" d="M1198.37,-104.11C1305.69,-101.05 1481.58,-92.72 1501.61,-70.8 1530,-39.72 1408.34,-27.27 1310.78,-22.3"/>
<polygon fill="black" stroke="black" points="1310.98,-18.81 1300.82,-21.82 1310.64,-25.8 1310.98,-18.81"/>
<text xml:space="preserve" text-anchor="middle" x="1510.85" y="-58.2" font-family="Times,serif" font-size="14.00">X</text>
</g>
<!-- h130_75_118_214&#45;&gt;h130_75_118_14_p514 -->
<g id="edge52" class="edge">
<title>h130_75_118_214&#45;&gt;h130_75_118_14_p514</title>
<path fill="none" stroke="black" d="M1198.9,-104.47C1310.86,-101.81 1498.4,-93.92 1519.61,-70.8 1550.25,-37.38 1416.03,-25.51 1311.79,-21.3"/>
<polygon fill="black" stroke="black" points="1312.16,-17.81 1302.04,-20.92 1311.9,-24.8 1312.16,-17.81"/>
<text xml:space="preserve" text-anchor="middle" x="1529.1" y="-58.2" font-family="Times,serif" font-size="14.00">X</text>
</g>
<!-- h130_75_118_214&#45;&gt;h130_75_118_14_p514 -->
<g id="edge53" class="edge">
<title>h130_75_118_214&#45;&gt;h130_75_118_14_p514</title>
<path fill="none" stroke="black" d="M1198.89,-104.84C1315.59,-102.61 1516.11,-95.23 1538.61,-70.8 1571.69,-34.86 1423.58,-23.7 1312.38,-20.33"/>
<polygon fill="black" stroke="black" points="1312.67,-16.84 1302.58,-20.05 1312.47,-23.83 1312.67,-16.84"/>
<text xml:space="preserve" text-anchor="middle" x="1548.37" y="-58.2" font-family="Times,serif" font-size="14.00">X</text>
</g>
<!-- h130_75_118_214&#45;&gt;h130_75_118_14_p514 -->
<g id="edge57" class="edge">
<title>h130_75_118_214&#45;&gt;h130_75_118_14_p514</title>
<path fill="none" stroke="black" d="M1199.09,-105.17C1320.46,-103.36 1533.84,-96.52 1557.61,-70.8 1593.16,-32.32 1430.85,-21.98 1312.86,-19.45"/>
<polygon fill="black" stroke="black" points="1313.16,-15.96 1303.1,-19.26 1313.03,-22.96 1313.16,-15.96"/>
<text xml:space="preserve" text-anchor="middle" x="1567.64" y="-58.2" font-family="Times,serif" font-size="14.00">X</text>
</g>
<!-- h130_104_19_203 -->
<g id="node6" class="node">
<title>h130_104_19_203</title>
<ellipse fill="none" stroke="black" cx="2221.61" cy="-106.8" rx="83.46" ry="18"/>
<text xml:space="preserve" text-anchor="middle" x="2221.61" y="-102.6" font-family="Times,serif" font-size="14.00">h130_104_19_203</text>
</g>
<!-- h130_75_118_14_p1080 -->
<g id="node7" class="node">
<title>h130_75_118_14_p1080</title>
<ellipse fill="none" stroke="black" cx="2138.61" cy="-18" rx="107.61" ry="18"/>
<text xml:space="preserve" text-anchor="middle" x="2138.61" y="-13.8" font-family="Times,serif" font-size="14.00">h130_75_118_14_p1080</text>
</g>
<!-- h130_104_19_203&#45;&gt;h130_75_118_14_p1080 -->
<g id="edge7" class="edge">
<title>h130_104_19_203&#45;&gt;h130_75_118_14_p1080</title>
<path fill="none" stroke="black" d="M2217.3,-88.39C2213.92,-77.53 2208.3,-63.79 2199.61,-54 2195.5,-49.38 2190.64,-45.21 2185.47,-41.51"/>
<polygon fill="black" stroke="black" points="2187.51,-38.66 2177.22,-36.16 2183.71,-44.53 2187.51,-38.66"/>
<text xml:space="preserve" text-anchor="middle" x="2215.44" y="-58.2" font-family="Times,serif" font-size="14.00">X</text>
</g>
<!-- h66_28_31_74 -->
<g id="node8" class="node">
<title>h66_28_31_74</title>
<ellipse fill="none" stroke="black" cx="2037.61" cy="-106.8" rx="68.98" ry="18"/>
<text xml:space="preserve" text-anchor="middle" x="2037.61" y="-102.6" font-family="Times,serif" font-size="14.00">h66_28_31_74</text>
</g>
<!-- h66_28_31_74&#45;&gt;h130_75_118_14_p514 -->
<g id="edge54" class="edge">
<title>h66_28_31_74&#45;&gt;h130_75_118_14_p514</title>
<path fill="none" stroke="black" d="M1975.76,-98.46C1887.32,-88.06 1719.62,-68.65 1576.61,-54 1483.03,-44.41 1376.3,-34.63 1300.17,-27.86"/>
<polygon fill="black" stroke="black" points="1300.94,-24.42 1290.67,-27.02 1300.32,-31.39 1300.94,-24.42"/>
<text xml:space="preserve" text-anchor="middle" x="1733.87" y="-58.2" font-family="Times,serif" font-size="14.00">X</text>
</g>
<!-- h66_28_31_74&#45;&gt;h130_75_118_14_p514 -->
<g id="edge55" class="edge">
<title>h66_28_31_74&#45;&gt;h130_75_118_14_p514</title>
<path fill="none" stroke="black" d="M1985.11,-94.79C1926.31,-82.88 1828.06,-64.22 1742.61,-54 1593.76,-36.2 1420.85,-27.03 1310.63,-22.62"/>
<polygon fill="black" stroke="black" points="1310.81,-19.12 1300.68,-22.23 1310.54,-26.12 1310.81,-19.12"/>
<text xml:space="preserve" text-anchor="middle" x="1861.65" y="-58.2" font-family="Times,serif" font-size="14.00">X</text>
</g>
<!-- h66_28_31_74&#45;&gt;h130_75_118_14_p514 -->
<g id="edge56" class="edge">
<title>h66_28_31_74&#45;&gt;h130_75_118_14_p514</title>
<path fill="none" stroke="black" d="M2000.13,-91.23C1966.72,-78.95 1916.18,-62.12 1870.61,-54 1766.64,-35.47 1474.38,-25.66 1311.62,-21.49"/>
<polygon fill="black" stroke="black" points="1311.73,-17.99 1301.64,-21.24 1311.55,-24.99 1311.73,-17.99"/>
<text xml:space="preserve" text-anchor="middle" x="1940.92" y="-58.2" font-family="Times,serif" font-size="14.00">X</text>
</g>
<!-- h66_28_31_74&#45;&gt;h130_75_118_14_p514 -->
<g id="edge58" class="edge">
<title>h66_28_31_74&#45;&gt;h130_75_118_14_p514</title>
<path fill="none" stroke="black" d="M2016.57,-89.42C1999.55,-77.19 1974.41,-61.38 1949.61,-54 1890.27,-36.34 1506.41,-25.63 1311.63,-21.27"/>
<polygon fill="black" stroke="black" points="1311.81,-17.78 1301.73,-21.05 1311.65,-24.77 1311.81,-17.78"/>
<text xml:space="preserve" text-anchor="middle" x="1990.44" y="-58.2" font-family="Times,serif" font-size="14.00">X</text>
</g>
<!-- h66_28_31_74&#45;&gt;h130_75_118_14_p514 -->
<g id="edge59" class="edge">
<title>h66_28_31_74&#45;&gt;h130_75_118_14_p514</title>
<path fill="none" stroke="black" d="M2030.02,-88.57C2023.74,-76.59 2013.57,-61.46 1999.61,-54 1940.72,-22.53 1520.14,-18.57 1313.13,-18.56"/>
<polygon fill="black" stroke="black" points="1313.13,-15.06 1303.13,-18.57 1313.13,-22.06 1313.13,-15.06"/>
<text xml:space="preserve" text-anchor="middle" x="2022.9" y="-58.2" font-family="Times,serif" font-size="14.00">X</text>
</g>
<!-- h66_28_31_74&#45;&gt;h130_75_118_14_p1080 -->
<g id="edge8" class="edge">
<title>h66_28_31_74&#45;&gt;h130_75_118_14_p1080</title>
<path fill="none" stroke="black" d="M2040.64,-88.55C2043.38,-77.48 2048.42,-63.45 2057.5,-54 2063.05,-48.22 2069.71,-43.34 2076.8,-39.24"/>
<polygon fill="black" stroke="black" points="2078.07,-42.52 2085.33,-34.8 2074.84,-36.31 2078.07,-42.52"/>
<text xml:space="preserve" text-anchor="middle" x="2062.55" y="-58.2" font-family="Times,serif" font-size="14.00">X</text>
</g>
<!-- h66_28_31_74&#45;&gt;h130_75_118_14_p1080 -->
<g id="edge9" class="edge">
<title>h66_28_31_74&#45;&gt;h130_75_118_14_p1080</title>
<path fill="none" stroke="black" d="M2053.69,-88.82C2063.88,-78.38 2077.54,-64.95 2090.5,-54 2095.13,-50.08 2100.17,-46.12 2105.19,-42.34"/>
<polygon fill="black" stroke="black" points="2106.9,-45.42 2112.88,-36.67 2102.75,-39.78 2106.9,-45.42"/>
<text xml:space="preserve" text-anchor="middle" x="2095.55" y="-58.2" font-family="Times,serif" font-size="14.00">X</text>
</g>
<!-- h66_28_31_74&#45;&gt;h130_75_118_14_p1080 -->
<g id="edge10" class="edge">
<title>h66_28_31_74&#45;&gt;h130_75_118_14_p1080</title>
<path fill="none" stroke="black" d="M2071.09,-90.66C2081.18,-85.22 2091.88,-78.49 2100.61,-70.8 2108.75,-63.62 2116.2,-54.41 2122.3,-45.75"/>
<polygon fill="black" stroke="black" points="2125.09,-47.86 2127.74,-37.61 2119.27,-43.98 2125.09,-47.86"/>
<text xml:space="preserve" text-anchor="middle" x="2121.18" y="-58.2" font-family="Times,serif" font-size="14.00">X</text>
</g>
<!-- h66_28_31_74&#45;&gt;h130_75_118_14_p1080 -->
<g id="edge11" class="edge">
<title>h66_28_31_74&#45;&gt;h130_75_118_14_p1080</title>
<path fill="none" stroke="black" d="M2092.83,-95.59C2107.06,-90.4 2121.04,-82.59 2130.61,-70.8 2135.91,-64.27 2138.42,-55.7 2139.48,-47.42"/>
<polygon fill="black" stroke="black" points="2142.96,-47.84 2140.04,-37.65 2135.97,-47.44 2142.96,-47.84"/>
<text xml:space="preserve" text-anchor="middle" x="2143.27" y="-58.2" font-family="Times,serif" font-size="14.00">X</text>
</g>
<!-- h66_28_31_74&#45;&gt;h130_75_118_14_p1080 -->
<g id="edge12" class="edge">
<title>h66_28_31_74&#45;&gt;h130_75_118_14_p1080</title>
<path fill="none" stroke="black" d="M2092.6,-95.55C2118.34,-89.53 2145,-81.07 2152.61,-70.8 2157.77,-63.83 2157.32,-55.07 2154.66,-46.75"/>
<polygon fill="black" stroke="black" points="2157.92,-45.46 2150.77,-37.64 2151.48,-48.21 2157.92,-45.46"/>
<text xml:space="preserve" text-anchor="middle" x="2161.66" y="-58.2" font-family="Times,serif" font-size="14.00">X</text>
</g>
<!-- h212_202_184_169 -->
<g id="node9" class="node">
<title>h212_202_184_169</title>
<ellipse fill="none" stroke="black" cx="2411.61" cy="-106.8" rx="88.29" ry="18"/>
<text xml:space="preserve" text-anchor="middle" x="2411.61" y="-102.6" font-family="Times,serif" font-size="14.00">h212_202_184_169</text>
</g>
<!-- h130_75_118_14_p1433 -->
<g id="node10" class="node">
<title>h130_75_118_14_p1433</title>
<ellipse fill="none" stroke="black" cx="2411.61" cy="-18" rx="107.61" ry="18"/>
<text xml:space="preserve" text-anchor="middle" x="2411.61" y="-13.8" font-family="Times,serif" font-size="14.00">h130_75_118_14_p1433</text>
</g>
<!-- h212_202_184_169&#45;&gt;h130_75_118_14_p1433 -->
<g id="edge60" class="edge">
<title>h212_202_184_169&#45;&gt;h130_75_118_14_p1433</title>
<path fill="none" stroke="black" d="M2411.61,-88.65C2411.61,-76.96 2411.61,-61.19 2411.61,-47.62"/>
<polygon fill="black" stroke="black" points="2415.11,-47.92 2411.61,-37.92 2408.11,-47.92 2415.11,-47.92"/>
<text xml:space="preserve" text-anchor="middle" x="2416.66" y="-58.2" font-family="Times,serif" font-size="14.00">X</text>
</g>
</g>
</svg>
