<?xml version="1.0" encoding="UTF-8" standalone="no"?>
<!DOCTYPE svg PUBLIC "-//W3C//DTD SVG 1.1//EN"
 "http://www.w3.org/Graphics/SVG/1.1/DTD/svg11.dtd">
<!-- Generated by graphviz version a (a)
 -->
<!-- Title: G Pages: 1 -->
<svg width="358pt" height="245pt"
 viewBox="0.00 0.00 358.00 245.00" xmlns="http://www.w3.org/2000/svg" xmlns:xlink="http://www.w3.org/1999/xlink">
<g id="graph0" class="graph" transform="scale(1 1) rotate(0) translate(4 240.77)">
<title>G</title>
<polygon fill="white" stroke="none" points="-4,4 -4,-240.77 354.07,-240.77 354.07,4 -4,4"/>
<!-- xyz -->
<g id="node1" class="node">
<title>xyz</title>
<ellipse fill="slateblue" stroke="slateblue" cx="77.32" cy="-190.39" rx="50.91" ry="46.39"/>
<text xml:space="preserve" text-anchor="middle" x="77.32" y="-197.59" font-family="Palatino Linotype,serif" font-style="italic" font-size="24.00" fill="hotpink">hello</text>
<text xml:space="preserve" text-anchor="middle" x="77.32" y="-168.79" font-family="Palatino Linotype,serif" font-style="italic" font-size="24.00" fill="hotpink">world</text>
</g>
<!-- red -->
<g id="node2" class="node">
<title>red</title>
<ellipse fill="red" stroke="red" cx="173.32" cy="-190.39" rx="27" ry="18"/>
<text xml:space="preserve" text-anchor="middle" x="173.32" y="-186.19" font-family="Times,serif" font-size="14.00">red</text>
</g>
<!-- green -->
<g id="node3" class="node">
<title>green</title>
<ellipse fill="green" stroke="green" cx="130.32" cy="-90" rx="32.48" ry="18"/>
<text xml:space="preserve" text-anchor="middle" x="130.32" y="-85.8" font-family="Times,serif" font-size="14.00">green</text>
</g>
<!-- red&#45;&gt;green -->
<g id="edge1" class="edge">
<title>red&#45;&gt;green</title>
<path fill="none" stroke="black" d="M166.03,-172.7C159.48,-157.71 149.75,-135.45 142.1,-117.95"/>
<polygon fill="black" stroke="black" points="145.47,-116.92 138.26,-109.16 139.05,-119.72 145.47,-116.92"/>
</g>
<!-- blue -->
<g id="node4" class="node">
<title>blue</title>
<ellipse fill="blue" stroke="blue" cx="215.32" cy="-90" rx="27.66" ry="18"/>
<text xml:space="preserve" text-anchor="middle" x="215.32" y="-85.8" font-family="Times,serif" font-size="14.00">blue</text>
</g>
<!-- red&#45;&gt;blue -->
<g id="edge2" class="edge">
<title>red&#45;&gt;blue</title>
<path fill="none" stroke="black" d="M180.44,-172.7C186.84,-157.71 196.34,-135.45 203.82,-117.95"/>
<polygon fill="black" stroke="black" points="206.86,-119.73 207.57,-109.16 200.42,-116.99 206.86,-119.73"/>
</g>
<!-- yellow -->
<g id="node7" class="node">
<title>yellow</title>
<ellipse fill="yellow" stroke="yellow" cx="37.32" cy="-18" rx="37.32" ry="18"/>
<text xml:space="preserve" text-anchor="middle" x="37.32" y="-13.8" font-family="Times,serif" font-size="14.00">yellow</text>
</g>
<!-- green&#45;&gt;yellow -->
<g id="edge5" class="edge">
<title>green&#45;&gt;yellow</title>
<path fill="none" stroke="black" d="M111.5,-74.83C98.31,-64.91 80.46,-51.47 65.57,-40.26"/>
<polygon fill="black" stroke="black" points="68.06,-37.75 57.96,-34.54 63.85,-43.35 68.06,-37.75"/>
</g>
<!-- orange -->
<g id="node8" class="node">
<title>orange</title>
<ellipse fill="orange" stroke="orange" cx="130.32" cy="-18" rx="37.31" ry="18"/>
<text xml:space="preserve" text-anchor="middle" x="130.32" y="-13.8" font-family="Times,serif" font-size="14.00">orange</text>
</g>
<!-- green&#45;&gt;orange -->
<g id="edge6" class="edge">
<title>green&#45;&gt;orange</title>
<path fill="none" stroke="black" d="M130.32,-71.7C130.32,-64.41 130.32,-55.73 130.32,-47.54"/>
<polygon fill="black" stroke="black" points="133.82,-47.62 130.32,-37.62 126.82,-47.62 133.82,-47.62"/>
</g>
<!-- cyan -->
<g id="node5" class="node">
<title>cyan</title>
<ellipse fill="cyan" stroke="cyan" cx="215.32" cy="-18" rx="29.27" ry="18"/>
<text xml:space="preserve" text-anchor="middle" x="215.32" y="-13.8" font-family="Times,serif" font-size="14.00">cyan</text>
</g>
<!-- blue&#45;&gt;cyan -->
<g id="edge3" class="edge">
<title>blue&#45;&gt;cyan</title>
<path fill="none" stroke="black" d="M215.32,-71.7C215.32,-64.41 215.32,-55.73 215.32,-47.54"/>
<polygon fill="black" stroke="black" points="218.82,-47.62 215.32,-37.62 211.82,-47.62 218.82,-47.62"/>
</g>
<!-- magenta -->
<g id="node6" class="node">
<title>magenta</title>
<ellipse fill="magenta" stroke="magenta" cx="306.32" cy="-18" rx="43.75" ry="18"/>
<text xml:space="preserve" text-anchor="middle" x="306.32" y="-13.8" font-family="Times,serif" font-size="14.00">magenta</text>
</g>
<!-- blue&#45;&gt;magenta -->
<g id="edge4" class="edge">
<title>blue&#45;&gt;magenta</title>
<path fill="none" stroke="black" d="M232.44,-75.83C245.14,-66.06 262.76,-52.5 277.61,-41.08"/>
<polygon fill="black" stroke="black" points="279.44,-44.1 285.23,-35.22 275.17,-38.55 279.44,-44.1"/>
</g>
</g>
</svg>
