<?xml version="1.0" encoding="UTF-8" standalone="no"?>
<!DOCTYPE svg PUBLIC "-//W3C//DTD SVG 1.1//EN"
 "http://www.w3.org/Graphics/SVG/1.1/DTD/svg11.dtd">
<!-- Generated by graphviz version a (a)
 -->
<!-- Title: G Pages: 1 -->
<svg width="392pt" height="116pt"
 viewBox="0.00 0.00 392.00 116.00" xmlns="http://www.w3.org/2000/svg" xmlns:xlink="http://www.w3.org/1999/xlink">
<g id="graph0" class="graph" transform="scale(1 1) rotate(0) translate(4 112)">
<title>G</title>
<polygon fill="white" stroke="none" points="-4,4 -4,-112 388.29,-112 388.29,4 -4,4"/>
<!-- Marden -->
<g id="node1" class="node">
<title>Marden</title>
<ellipse fill="none" stroke="black" cx="41.07" cy="-90" rx="41.07" ry="18"/>
<text xml:space="preserve" text-anchor="middle" x="41.07" y="-85.8" font-family="Times,serif" font-size="14.00">Marden</text>
</g>
<!-- ldt -->
<g id="node2" class="node">
<title>ldt</title>
<ellipse fill="none" stroke="black" cx="185.07" cy="-18" rx="27" ry="18"/>
<text xml:space="preserve" text-anchor="middle" x="185.07" y="-13.8" font-family="Times,serif" font-size="14.00">ldt</text>
</g>
<!-- Marden&#45;&#45;ldt -->
<g id="edge1" class="edge">
<title>Marden&#45;&#45;ldt</title>
<path fill="none" stroke="black" d="M67.82,-76C95.47,-62.55 138.1,-41.83 163.62,-29.42"/>
</g>
<!-- kg -->
<g id="node3" class="node">
<title>kg</title>
<ellipse fill="none" stroke="black" cx="113.07" cy="-18" rx="27" ry="18"/>
<text xml:space="preserve" text-anchor="middle" x="113.07" y="-13.8" font-family="Times,serif" font-size="14.00">kg</text>
</g>
<!-- Marden&#45;&#45;kg -->
<g id="edge2" class="edge">
<title>Marden&#45;&#45;kg</title>
<path fill="none" stroke="black" d="M57.41,-73.12C69.69,-61.18 86.37,-44.95 98.26,-33.39"/>
</g>
<!-- hg -->
<g id="node4" class="node">
<title>hg</title>
<ellipse fill="none" stroke="black" cx="41.07" cy="-18" rx="27" ry="18"/>
<text xml:space="preserve" text-anchor="middle" x="41.07" y="-13.8" font-family="Times,serif" font-size="14.00">hg</text>
</g>
<!-- Marden&#45;&#45;hg -->
<g id="edge3" class="edge">
<title>Marden&#45;&#45;hg</title>
<path fill="none" stroke="black" d="M41.07,-71.7C41.07,-60.85 41.07,-46.92 41.07,-36.1"/>
</g>
<!-- Cannon -->
<g id="node5" class="node">
<title>Cannon</title>
<ellipse fill="none" stroke="black" cx="239.07" cy="-90" rx="41.08" ry="18"/>
<text xml:space="preserve" text-anchor="middle" x="239.07" y="-85.8" font-family="Times,serif" font-size="14.00">Cannon</text>
</g>
<!-- Cannon&#45;&#45;ldt -->
<g id="edge4" class="edge">
<title>Cannon&#45;&#45;ldt</title>
<path fill="none" stroke="black" d="M226.27,-72.41C217.41,-60.93 205.71,-45.75 197.03,-34.51"/>
</g>
<!-- Cannon&#45;&#45;kg -->
<g id="edge5" class="edge">
<title>Cannon&#45;&#45;kg</title>
<path fill="none" stroke="black" d="M214.48,-75.34C190.84,-62.21 155.55,-42.6 133.44,-30.32"/>
</g>
<!-- ggt -->
<g id="node6" class="node">
<title>ggt</title>
<ellipse fill="none" stroke="black" cx="257.07" cy="-18" rx="27" ry="18"/>
<text xml:space="preserve" text-anchor="middle" x="257.07" y="-13.8" font-family="Times,serif" font-size="14.00">ggt</text>
</g>
<!-- Cannon&#45;&#45;ggt -->
<g id="edge6" class="edge">
<title>Cannon&#45;&#45;ggt</title>
<path fill="none" stroke="black" d="M243.52,-71.7C246.31,-60.85 249.89,-46.92 252.67,-36.1"/>
</g>
<!-- Epstein -->
<g id="node7" class="node">
<title>Epstein</title>
<ellipse fill="none" stroke="black" cx="140.07" cy="-90" rx="40" ry="18"/>
<text xml:space="preserve" text-anchor="middle" x="140.07" y="-85.8" font-family="Times,serif" font-size="14.00">Epstein</text>
</g>
<!-- Epstein&#45;&#45;ldt -->
<g id="edge8" class="edge">
<title>Epstein&#45;&#45;ldt</title>
<path fill="none" stroke="black" d="M150.73,-72.41C158.01,-61.09 167.6,-46.18 174.79,-34.99"/>
</g>
<!-- Epstein&#45;&#45;kg -->
<g id="edge7" class="edge">
<title>Epstein&#45;&#45;kg</title>
<path fill="none" stroke="black" d="M133.53,-72.05C129.29,-61.05 123.78,-46.76 119.54,-35.79"/>
</g>
<!-- Epstein&#45;&#45;hg -->
<g id="edge10" class="edge">
<title>Epstein&#45;&#45;hg</title>
<path fill="none" stroke="black" d="M119.56,-74.5C101.77,-61.92 76.28,-43.9 59.22,-31.84"/>
</g>
<!-- Epstein&#45;&#45;ggt -->
<g id="edge9" class="edge">
<title>Epstein&#45;&#45;ggt</title>
<path fill="none" stroke="black" d="M163.46,-75C185.2,-62 217.21,-42.85 237.59,-30.65"/>
</g>
<!-- Conway -->
<g id="node8" class="node">
<title>Conway</title>
<ellipse fill="none" stroke="black" cx="341.07" cy="-90" rx="43.22" ry="18"/>
<text xml:space="preserve" text-anchor="middle" x="341.07" y="-85.8" font-family="Times,serif" font-size="14.00">Conway</text>
</g>
<!-- Conway&#45;&#45;ggt -->
<g id="edge11" class="edge">
<title>Conway&#45;&#45;ggt</title>
<path fill="none" stroke="black" d="M322.43,-73.46C307.73,-61.22 287.45,-44.32 273.39,-32.6"/>
</g>
</g>
</svg>
