<?xml version="1.0" encoding="UTF-8" standalone="no"?>
<!DOCTYPE svg PUBLIC "-//W3C//DTD SVG 1.1//EN"
 "http://www.w3.org/Graphics/SVG/1.1/DTD/svg11.dtd">
<!-- Generated by graphviz version a (a)
 -->
<!-- Pages: 1 -->
<svg width="533pt" height="133pt"
 viewBox="0.00 0.00 533.00 133.00" xmlns="http://www.w3.org/2000/svg" xmlns:xlink="http://www.w3.org/1999/xlink">
<g id="graph0" class="graph" transform="scale(1 1) rotate(0) translate(4 128.8)">
<polygon fill="white" stroke="none" points="-4,4 -4,-128.8 529.16,-128.8 529.16,4 -4,4"/>
<!-- tcp -->
<g id="node1" class="node">
<title>tcp</title>
<ellipse fill="none" stroke="black" cx="59.84" cy="-106.8" rx="27" ry="18"/>
<text xml:space="preserve" text-anchor="middle" x="59.84" y="-102.6" font-family="Times,serif" font-size="14.00">tcp</text>
</g>
<!-- kernel_linux -->
<g id="node2" class="node">
<title>kernel_linux</title>
<ellipse fill="none" stroke="black" cx="59.84" cy="-18" rx="59.84" ry="18"/>
<text xml:space="preserve" text-anchor="middle" x="59.84" y="-13.8" font-family="Times,serif" font-size="14.00">kernel_linux</text>
</g>
<!-- tcp&#45;&gt;kernel_linux -->
<g id="edge1" class="edge">
<title>tcp&#45;&gt;kernel_linux</title>
<path fill="none" stroke="black" d="M59.84,-88.65C59.84,-76.96 59.84,-61.19 59.84,-47.62"/>
<polygon fill="black" stroke="black" points="63.34,-47.92 59.84,-37.92 56.34,-47.92 63.34,-47.92"/>
<text xml:space="preserve" text-anchor="middle" x="74.23" y="-58.2" font-family="Times,serif" font-size="14.00">linux</text>
</g>
<!-- usmStats -->
<g id="node3" class="node">
<title>usmStats</title>
<ellipse fill="none" stroke="black" cx="183.84" cy="-18" rx="45.92" ry="18"/>
<text xml:space="preserve" text-anchor="middle" x="183.84" y="-13.8" font-family="Times,serif" font-size="14.00">usmStats</text>
</g>
<!-- usmStats&#45;5.5 -->
<g id="node4" class="node">
<title>usmStats&#45;5.5</title>
<ellipse fill="none" stroke="black" cx="326.84" cy="-18" rx="61.2" ry="18"/>
<text xml:space="preserve" text-anchor="middle" x="326.84" y="-13.8" font-family="Times,serif" font-size="14.00">usmStats&#45;5.5</text>
</g>
<!-- usmStats&#45;&gt;usmStats&#45;5.5 -->
<g id="edge2" class="edge">
<title>usmStats&#45;&gt;usmStats&#45;5.5</title>
<path fill="none" stroke="red" d="M221.83,-7.47C237.45,-4.7 253.08,-3.87 268.7,-4.97"/>
<polygon fill="red" stroke="red" points="268.27,-8.45 278.57,-5.96 268.97,-1.48 268.27,-8.45"/>
</g>
<!-- usmStats&#45;5.5&#45;&gt;usmStats -->
<g id="edge3" class="edge">
<title>usmStats&#45;5.5&#45;&gt;usmStats</title>
<path fill="none" stroke="red" d="M280.08,-29.88C264.46,-31.93 248.83,-32.03 233.21,-30.21"/>
<polygon fill="red" stroke="red" points="233.73,-26.75 223.33,-28.75 232.71,-33.67 233.73,-26.75"/>
</g>
<!-- snmpv3mibs -->
<g id="node5" class="node">
<title>snmpv3mibs</title>
<ellipse fill="none" stroke="black" cx="326.84" cy="-106.8" rx="60.4" ry="18"/>
<text xml:space="preserve" text-anchor="middle" x="326.84" y="-102.6" font-family="Times,serif" font-size="14.00">snmpv3mibs</text>
</g>
<!-- snmpv3mibs&#45;&gt;usmStats -->
<g id="edge6" class="edge">
<title>snmpv3mibs&#45;&gt;usmStats</title>
<path fill="none" stroke="black" stroke-dasharray="5,2" d="M300.95,-90.08C277.64,-75.93 243.24,-55.05 217.75,-39.58"/>
<polygon fill="black" stroke="black" points="219.78,-36.72 209.41,-34.52 216.14,-42.7 219.78,-36.72"/>
</g>
<!-- snmpv3mibs&#45;&gt;usmStats&#45;5.5 -->
<g id="edge5" class="edge">
<title>snmpv3mibs&#45;&gt;usmStats&#45;5.5</title>
<path fill="none" stroke="black" d="M326.84,-88.65C326.84,-76.96 326.84,-61.19 326.84,-47.62"/>
<polygon fill="black" stroke="black" points="330.34,-47.92 326.84,-37.92 323.34,-47.92 330.34,-47.92"/>
</g>
<!-- snmpEngine -->
<g id="node6" class="node">
<title>snmpEngine</title>
<ellipse fill="none" stroke="black" cx="465.84" cy="-18" rx="59.32" ry="18"/>
<text xml:space="preserve" text-anchor="middle" x="465.84" y="-13.8" font-family="Times,serif" font-size="14.00">snmpEngine</text>
</g>
<!-- snmpv3mibs&#45;&gt;snmpEngine -->
<g id="edge4" class="edge">
<title>snmpv3mibs&#45;&gt;snmpEngine</title>
<path fill="none" stroke="black" d="M352.02,-90.08C374.16,-76.26 406.6,-56 431.19,-40.64"/>
<polygon fill="black" stroke="black" points="432.95,-43.67 439.58,-35.4 429.24,-37.73 432.95,-43.67"/>
</g>
</g>
</svg>
