<?xml version="1.0" encoding="UTF-8" standalone="no"?>
<!DOCTYPE svg PUBLIC "-//W3C//DTD SVG 1.1//EN"
 "http://www.w3.org/Graphics/SVG/1.1/DTD/svg11.dtd">
<!-- Generated by graphviz version a (a)
 -->
<!-- Title: G Pages: 1 -->
<svg width="455pt" height="293pt"
 viewBox="0.00 0.00 455.00 293.00" xmlns="http://www.w3.org/2000/svg" xmlns:xlink="http://www.w3.org/1999/xlink">
<g id="graph0" class="graph" transform="scale(1 1) rotate(0) translate(4 288.72)">
<title>G</title>
<polygon fill="white" stroke="none" points="-4,4 -4,-288.72 451.42,-288.72 451.42,4 -4,4"/>
<!-- a -->
<g id="node1" class="node">
<title>a</title>
<polygon fill="yellow" stroke="none" points="8,-43.72 8,-66.52 41.21,-66.52 41.21,-43.72 8,-43.72"/>
<polygon fill="none" stroke="black" points="8,-43.72 8,-66.52 41.21,-66.52 41.21,-43.72 8,-43.72"/>
<text xml:space="preserve" text-anchor="start" x="11" y="-50.92" font-family="Times,serif" font-size="14.00">class</text>
<polygon fill="lightblue" stroke="none" points="41.21,-43.72 41.21,-66.52 94.63,-66.52 94.63,-43.72 41.21,-43.72"/>
<polygon fill="none" stroke="black" points="41.21,-43.72 41.21,-66.52 94.63,-66.52 94.63,-43.72 41.21,-43.72"/>
<text xml:space="preserve" text-anchor="start" x="44.21" y="-50.92" font-family="Times,serif" font-size="14.00">qualifier</text>
</g>
<!-- b -->
<g id="node2" class="node">
<title>b</title>
<g id="a_node2"><a xlink:href="http://www.graphviz.org/content/node-shapes" xlink:title="&lt;TABLE&gt;">
<ellipse fill="lightgrey" stroke="black" cx="343.49" cy="-87.12" rx="103.93" ry="87.12"/>
<g id="a_node2_5"><a xlink:href="http://www.graphviz.org/content/node-shapes#html" xlink:title="&lt;TABLE&gt;">
<polygon fill="bisque" stroke="none" points="278,-29.52 278,-144.72 408.98,-144.72 408.98,-29.52 278,-29.52"/>
<g id="a_node2_6"><a xlink:href="http://go/wiki/Elephant" xlink:title="&lt;TABLE&gt;">
<polygon fill="bisque" stroke="none" points="281,-118.92 281,-141.72 376.98,-141.72 376.98,-118.92 281,-118.92"/>
<polygon fill="none" stroke="black" points="281,-118.92 281,-141.72 376.98,-141.72 376.98,-118.92 281,-118.92"/>
<text xml:space="preserve" text-anchor="start" x="305.28" y="-126.12" font-family="Times,serif" font-size="14.00">elephant</text>
</a>
</g>
<polygon fill="chartreuse" stroke="none" points="378.98,-78.72 378.98,-141.72 405.98,-141.72 405.98,-78.72 378.98,-78.72"/>
<polygon fill="none" stroke="black" points="378.98,-78.72 378.98,-141.72 405.98,-141.72 405.98,-78.72 378.98,-78.72"/>
<text xml:space="preserve" text-anchor="start" x="381.98" y="-85.92" font-family="Times,serif" font-size="14.00">two</text>
<polygon fill="none" stroke="black" points="281,-32.52 281,-116.92 323.87,-116.92 323.87,-32.52 281,-32.52"/>
<g id="a_node2_7"><a xlink:href="http://go/wiki/Grey" xlink:title="&lt;TABLE&gt;">
<polygon fill="grey" stroke="none" points="284,-35.52 284,-113.92 320.87,-113.92 320.87,-35.52 284,-35.52"/>
<g id="a_node2_8"><a xlink:href="http://go/wiki/Sweet_corn" xlink:title="&lt;TABLE&gt;">
<polygon fill="none" stroke="black" points="287,-88.12 287,-110.92 317.87,-110.92 317.87,-88.12 287,-88.12"/>
<text xml:space="preserve" text-anchor="start" x="290" y="-95.32" font-family="Times,serif" font-size="14.00">corn</text>
</a>
</g>
<polygon fill="yellow" stroke="none" points="287,-63.32 287,-86.12 317.87,-86.12 317.87,-63.32 287,-63.32"/>
<polygon fill="none" stroke="black" points="287,-63.32 287,-86.12 317.87,-86.12 317.87,-63.32 287,-63.32"/>
<text xml:space="preserve" text-anchor="start" x="299.33" y="-70.52" font-family="Times,serif" font-size="14.00">c</text>
<g id="a_node2_9"><a xlink:href="http://go/wiki/F" xlink:title="&lt;TABLE&gt;">
<polygon fill="none" stroke="black" points="287,-38.52 287,-61.32 317.87,-61.32 317.87,-38.52 287,-38.52"/>
<text xml:space="preserve" text-anchor="start" x="300.1" y="-45.72" font-family="Times,serif" font-size="14.00">f</text>
</a>
</g>
<polygon fill="none" stroke="black" points="284,-35.52 284,-113.92 320.87,-113.92 320.87,-35.52 284,-35.52"/>
</a>
</g>
<polygon fill="white" stroke="none" points="325.87,-78.72 325.87,-116.92 376.98,-116.92 376.98,-78.72 325.87,-78.72"/>
<polygon fill="none" stroke="black" points="325.87,-78.72 325.87,-116.92 376.98,-116.92 376.98,-78.72 325.87,-78.72"/>
<text xml:space="preserve" text-anchor="start" x="328.87" y="-93.62" font-family="Times,serif" font-size="14.00">penguin</text>
<polygon fill="none" stroke="black" stroke-width="4" points="327.87,-34.52 327.87,-74.72 403.98,-74.72 403.98,-34.52 327.87,-34.52"/>
<text xml:space="preserve" text-anchor="start" x="392.98" y="-50.42" font-family="Times,serif" font-size="14.00">4</text>
<polygon fill="none" stroke="black" points="278,-29.52 278,-144.72 408.98,-144.72 408.98,-29.52 278,-29.52"/>
</a>
</g>
</a>
</g>
</g>
<!-- a&#45;&gt;b -->
<g id="edge1" class="edge">
<title>a:here&#45;&gt;b:there</title>
<path fill="none" stroke="black" d="M108.61,-54.19C175.67,-45.89 337.77,14.41 362.69,-20.5"/>
<polygon fill="black" stroke="black" points="108.5,-54.2 102.8,-58.61 96.53,-55.05 102.23,-50.63 108.5,-54.2"/>
<polygon fill="black" stroke="black" points="359.32,-21.46 365.5,-30.06 366.03,-19.48 359.32,-21.46"/>
</g>
<!-- c -->
<g id="node3" class="node">
<title>c</title>
<text xml:space="preserve" text-anchor="start" x="313.54" y="-251.72" font-family="Times,serif" font-size="14.00">long line 1</text>
<text xml:space="preserve" text-anchor="start" x="313.54" y="-234.92" font-family="Times,serif" font-size="14.00">line 2</text>
<text xml:space="preserve" text-anchor="start" x="341.93" y="-218.12" font-family="Times,serif" font-size="14.00">line 3</text>
</g>
<!-- c&#45;&gt;b -->
<g id="edge2" class="edge">
<title>c&#45;&gt;b</title>
<path fill="none" stroke="black" d="M343.49,-209.92C343.49,-201.94 343.49,-193.96 343.49,-185.98"/>
<polygon fill="black" stroke="black" points="346.99,-186.21 343.49,-176.21 339.99,-186.21 346.99,-186.21"/>
</g>
<!-- d -->
<g id="node4" class="node">
<title>d</title>
<polygon fill="none" stroke="black" points="51.32,-263.92 19.59,-226.72 83.05,-226.72 51.32,-263.92"/>
<text xml:space="preserve" text-anchor="middle" x="51.32" y="-234.92" font-family="Times,serif" font-size="14.00">d</text>
</g>
<!-- d&#45;&gt;c -->
<g id="edge3" class="edge">
<title>d&#45;&gt;c</title>
<path fill="none" stroke="black" d="M72.72,-239.12C118.38,-239.12 229.85,-239.12 294.3,-239.12"/>
<polygon fill="black" stroke="black" points="294.25,-242.62 304.25,-239.12 294.25,-235.62 294.25,-242.62"/>
<polygon fill="red" stroke="none" points="123.63,-242.12 123.63,-281.72 133.63,-281.72 133.63,-242.12 123.63,-242.12"/>
<polygon fill="none" stroke="black" points="123.63,-242.12 123.63,-281.72 133.63,-281.72 133.63,-242.12 123.63,-242.12"/>
<text xml:space="preserve" text-anchor="start" x="126.88" y="-257.72" font-family="Times,serif" font-size="14.00"> </text>
<polygon fill="none" stroke="black" points="135.63,-242.12 135.63,-281.72 206.56,-281.72 206.56,-242.12 135.63,-242.12"/>
<text xml:space="preserve" text-anchor="start" x="138.63" y="-266.12" font-family="Times,serif" font-size="14.00">Edge labels</text>
<text xml:space="preserve" text-anchor="start" x="159.82" y="-249.32" font-family="Times,serif" font-size="14.00">also</text>
<polygon fill="blue" stroke="none" points="208.56,-242.12 208.56,-281.72 218.56,-281.72 218.56,-242.12 208.56,-242.12"/>
<polygon fill="none" stroke="black" points="208.56,-242.12 208.56,-281.72 218.56,-281.72 218.56,-242.12 208.56,-242.12"/>
<text xml:space="preserve" text-anchor="start" x="211.81" y="-257.72" font-family="Times,serif" font-size="14.00"> </text>
<polygon fill="none" stroke="black" points="120.63,-239.12 120.63,-284.72 221.56,-284.72 221.56,-239.12 120.63,-239.12"/>
</g>
</g>
</svg>
