<?xml version="1.0" encoding="UTF-8" standalone="no"?>
<!DOCTYPE svg PUBLIC "-//W3C//DTD SVG 1.1//EN"
 "http://www.w3.org/Graphics/SVG/1.1/DTD/svg11.dtd">
<!-- Generated by graphviz version a (a)
 -->
<!-- Title: G Pages: 1 -->
<svg width="328pt" height="481pt"
 viewBox="0.00 0.00 328.00 481.00" xmlns="http://www.w3.org/2000/svg" xmlns:xlink="http://www.w3.org/1999/xlink">
<g id="graph0" class="graph" transform="scale(1 1) rotate(0) translate(4 476.8)">
<title>G</title>
<polygon fill="white" stroke="none" points="-4,4 -4,-476.8 324.1,-476.8 324.1,4 -4,4"/>
<g id="clust1" class="cluster">
<title>cluster_outer</title>
<polygon fill="none" stroke="black" stroke-width="2" points="76.1,-64 76.1,-408.8 312.1,-408.8 312.1,-64 76.1,-64"/>
</g>
<g id="clust2" class="cluster">
<title>cluster_inner</title>
<polygon fill="none" stroke="black" stroke-width="2" points="84.1,-136 84.1,-356.8 292.1,-356.8 292.1,-136 84.1,-136"/>
<text xml:space="preserve" text-anchor="middle" x="188.1" y="-340.2" font-family="Times,serif" font-size="14.00"> &#160;&#160;&#160;&#160;&#160;&#160;&#160;&#160;&#160;&#160;&#160;&#160;&#160;&#160;&#160;&#160;&#160;&#160;&#160;&#160;&#160;&#160;&#160;&#160;&#160;Act_2</text>
</g>
<!-- Act_1 -->
<g id="node1" class="node">
<title>Act_1</title>
<ellipse fill="none" stroke="black" cx="200.1" cy="-382.8" rx="34.64" ry="18"/>
<text xml:space="preserve" text-anchor="middle" x="200.1" y="-378.6" font-family="Times,serif" font-size="14.00">Act_1</text>
</g>
<!-- Act_21 -->
<g id="node2" class="node">
<title>Act_21</title>
<ellipse fill="none" stroke="black" cx="131.1" cy="-306" rx="39.47" ry="18"/>
<text xml:space="preserve" text-anchor="middle" x="131.1" y="-301.8" font-family="Times,serif" font-size="14.00">Act_21</text>
</g>
<!-- Act_1&#45;&gt;Act_21 -->
<g id="edge1" class="edge">
<title>Act_1&#45;&gt;Act_21</title>
<path fill="none" stroke="black" d="M185.81,-366.3C176.5,-356.21 164.15,-342.83 153.55,-331.33"/>
<polygon fill="black" stroke="black" points="156.24,-329.08 146.88,-324.11 151.09,-333.83 156.24,-329.08"/>
</g>
<!-- Act_23 -->
<g id="node3" class="node">
<title>Act_23</title>
<ellipse fill="none" stroke="black" cx="245.1" cy="-234" rx="39.47" ry="18"/>
<text xml:space="preserve" text-anchor="middle" x="245.1" y="-229.8" font-family="Times,serif" font-size="14.00">Act_23</text>
</g>
<!-- Act_1&#45;&gt;Act_23 -->
<g id="edge2" class="edge">
<title>Act_1&#45;&gt;Act_23</title>
<path fill="none" stroke="black" d="M233.23,-377.2C256.87,-373.16 285.73,-366.42 293.1,-356.8 311.71,-332.53 304.1,-316.53 293.1,-288 288.75,-276.71 280.75,-266.33 272.51,-257.8"/>
<polygon fill="black" stroke="black" points="275.05,-255.39 265.41,-250.98 270.2,-260.44 275.05,-255.39"/>
</g>
<!-- Act_22 -->
<g id="node6" class="node">
<title>Act_22</title>
<ellipse fill="none" stroke="black" cx="245.1" cy="-306" rx="39.47" ry="18"/>
<text xml:space="preserve" text-anchor="middle" x="245.1" y="-301.8" font-family="Times,serif" font-size="14.00">Act_22</text>
</g>
<!-- Act_21&#45;&gt;Act_22 -->
<g id="edge4" class="edge">
<title>Act_21&#45;&gt;Act_22</title>
<path fill="none" stroke="black" d="M170.74,-306C178.48,-306 186.22,-306 193.96,-306"/>
<polygon fill="black" stroke="black" points="193.79,-309.5 203.79,-306 193.79,-302.5 193.79,-309.5"/>
</g>
<!-- Act_25 -->
<g id="node4" class="node">
<title>Act_25</title>
<ellipse fill="none" stroke="black" cx="188.1" cy="-162" rx="39.47" ry="18"/>
<text xml:space="preserve" text-anchor="middle" x="188.1" y="-157.8" font-family="Times,serif" font-size="14.00">Act_25</text>
</g>
<!-- Act_23&#45;&gt;Act_25 -->
<g id="edge8" class="edge">
<title>Act_23&#45;&gt;Act_25</title>
<path fill="none" stroke="black" d="M231.88,-216.76C224.91,-208.19 216.19,-197.49 208.38,-187.9"/>
<polygon fill="black" stroke="black" points="211.24,-185.87 202.21,-180.32 205.81,-190.29 211.24,-185.87"/>
</g>
<!-- Act_24 -->
<g id="node7" class="node">
<title>Act_24</title>
<ellipse fill="none" stroke="black" cx="131.1" cy="-234" rx="39.47" ry="18"/>
<text xml:space="preserve" text-anchor="middle" x="131.1" y="-229.8" font-family="Times,serif" font-size="14.00">Act_24</text>
</g>
<!-- Act_23&#45;&gt;Act_24 -->
<g id="edge7" class="edge">
<title>Act_23&#45;&gt;Act_24</title>
<path fill="none" stroke="black" d="M205.31,-234C197.56,-234 189.82,-234 182.08,-234"/>
<polygon fill="black" stroke="black" points="182.25,-230.5 172.25,-234 182.25,-237.5 182.25,-230.5"/>
</g>
<!-- Act_3 -->
<g id="node5" class="node">
<title>Act_3</title>
<ellipse fill="none" stroke="black" cx="188.1" cy="-90" rx="34.64" ry="18"/>
<text xml:space="preserve" text-anchor="middle" x="188.1" y="-85.8" font-family="Times,serif" font-size="14.00">Act_3</text>
</g>
<!-- Act_25&#45;&gt;Act_3 -->
<g id="edge3" class="edge">
<title>Act_25&#45;&gt;Act_3</title>
<path fill="none" stroke="black" d="M188.1,-143.7C188.1,-136.41 188.1,-127.73 188.1,-119.54"/>
<polygon fill="black" stroke="black" points="191.6,-119.62 188.1,-109.62 184.6,-119.62 191.6,-119.62"/>
</g>
<!-- Ext_2 -->
<g id="node9" class="node">
<title>Ext_2</title>
<ellipse fill="none" stroke="black" cx="188.1" cy="-18" rx="34.1" ry="18"/>
<text xml:space="preserve" text-anchor="middle" x="188.1" y="-13.8" font-family="Times,serif" font-size="14.00">Ext_2</text>
</g>
<!-- Act_3&#45;&gt;Ext_2 -->
<g id="edge11" class="edge">
<title>Act_3&#45;&gt;Ext_2</title>
<path fill="none" stroke="black" d="M188.1,-71.7C188.1,-64.41 188.1,-55.73 188.1,-47.54"/>
<polygon fill="black" stroke="black" points="191.6,-47.62 188.1,-37.62 184.6,-47.62 191.6,-47.62"/>
</g>
<!-- Act_22&#45;&gt;Act_23 -->
<g id="edge5" class="edge">
<title>Act_22&#45;&gt;Act_23</title>
<path fill="none" stroke="black" d="M245.1,-287.7C245.1,-280.41 245.1,-271.73 245.1,-263.54"/>
<polygon fill="black" stroke="black" points="248.6,-263.62 245.1,-253.62 241.6,-263.62 248.6,-263.62"/>
</g>
<!-- Act_22&#45;&gt;Act_24 -->
<g id="edge6" class="edge">
<title>Act_22&#45;&gt;Act_24</title>
<path fill="none" stroke="black" d="M222.31,-291C205.45,-280.65 182.27,-266.42 163.49,-254.89"/>
<polygon fill="black" stroke="black" points="165.5,-252.02 155.15,-249.77 161.84,-257.98 165.5,-252.02"/>
</g>
<!-- Act_24&#45;&gt;Act_25 -->
<g id="edge9" class="edge">
<title>Act_24&#45;&gt;Act_25</title>
<path fill="none" stroke="black" d="M144.32,-216.76C151.3,-208.19 160.02,-197.49 167.83,-187.9"/>
<polygon fill="black" stroke="black" points="170.4,-190.29 174,-180.32 164.97,-185.87 170.4,-190.29"/>
</g>
<!-- Ext_1 -->
<g id="node8" class="node">
<title>Ext_1</title>
<ellipse fill="none" stroke="black" cx="200.1" cy="-454.8" rx="34.1" ry="18"/>
<text xml:space="preserve" text-anchor="middle" x="200.1" y="-450.6" font-family="Times,serif" font-size="14.00">Ext_1</text>
</g>
<!-- Ext_1&#45;&gt;Act_1 -->
<g id="edge10" class="edge">
<title>Ext_1&#45;&gt;Act_1</title>
<path fill="none" stroke="black" d="M200.1,-436.5C200.1,-429.21 200.1,-420.53 200.1,-412.34"/>
<polygon fill="black" stroke="black" points="203.6,-412.42 200.1,-402.42 196.6,-412.42 203.6,-412.42"/>
</g>
<!-- Ext_3 -->
<g id="node10" class="node">
<title>Ext_3</title>
<ellipse fill="none" stroke="black" cx="34.1" cy="-306" rx="34.1" ry="18"/>
<text xml:space="preserve" text-anchor="middle" x="34.1" y="-301.8" font-family="Times,serif" font-size="14.00">Ext_3</text>
</g>
<!-- Ext_3&#45;&gt;Act_24 -->
<g id="edge12" class="edge">
<title>Ext_3&#45;&gt;Act_24</title>
<path fill="none" stroke="black" d="M53.73,-290.83C67.49,-280.91 86.11,-267.47 101.64,-256.26"/>
<polygon fill="black" stroke="black" points="103.55,-259.2 109.61,-250.51 99.45,-253.53 103.55,-259.2"/>
</g>
</g>
</svg>
