<?xml version="1.0" encoding="UTF-8" standalone="no"?>
<!DOCTYPE svg PUBLIC "-//W3C//DTD SVG 1.1//EN"
 "http://www.w3.org/Graphics/SVG/1.1/DTD/svg11.dtd">
<!-- Generated by graphviz version a (a)
 -->
<!-- Title: unix Pages: 1 -->
<svg width="432pt" height="325pt"
 viewBox="0.00 0.00 432.00 325.00" xmlns="http://www.w3.org/2000/svg" xmlns:xlink="http://www.w3.org/1999/xlink">
<g id="graph0" class="graph" transform="scale(0.425695 0.425695) rotate(0) translate(4 760)">
<title>unix</title>
<polygon fill="white" stroke="none" points="-4,4 -4,-760 1010.81,-760 1010.81,4 -4,4"/>
<!-- 5th Edition -->
<g id="node1" class="node">
<title>5th Edition</title>
<ellipse fill="none" stroke="black" cx="537.43" cy="-738" rx="54.22" ry="18"/>
<text xml:space="preserve" text-anchor="middle" x="537.43" y="-733.8" font-family="Times,serif" font-size="14.00">5th Edition</text>
</g>
<!-- 6th Edition -->
<g id="node2" class="node">
<title>6th Edition</title>
<ellipse fill="none" stroke="black" cx="437.43" cy="-666" rx="54.22" ry="18"/>
<text xml:space="preserve" text-anchor="middle" x="437.43" y="-661.8" font-family="Times,serif" font-size="14.00">6th Edition</text>
</g>
<!-- 5th Edition&#45;&gt;6th Edition -->
<g id="edge1" class="edge">
<title>5th Edition&#45;&gt;6th Edition</title>
<path fill="none" stroke="black" stroke-dasharray="5,2" d="M515.23,-721.46C501.73,-712.02 484.27,-699.79 469.31,-689.32"/>
<polygon fill="black" stroke="black" points="471.34,-686.47 461.14,-683.6 467.33,-692.2 471.34,-686.47"/>
</g>
<!-- PWB 1.0 -->
<g id="node3" class="node">
<title>PWB 1.0</title>
<ellipse fill="none" stroke="black" cx="702.43" cy="-666" rx="46.45" ry="18"/>
<text xml:space="preserve" text-anchor="middle" x="702.43" y="-661.8" font-family="Times,serif" font-size="14.00">PWB 1.0</text>
</g>
<!-- 5th Edition&#45;&gt;PWB 1.0 -->
<g id="edge2" class="edge">
<title>5th Edition&#45;&gt;PWB 1.0</title>
<path fill="none" stroke="black" stroke-dasharray="5,2" d="M570.02,-723.17C596.26,-712.04 633.27,-696.34 661.5,-684.36"/>
<polygon fill="black" stroke="black" points="662.61,-687.69 670.45,-680.56 659.88,-681.25 662.61,-687.69"/>
</g>
<!-- LSX -->
<g id="node4" class="node">
<title>LSX</title>
<ellipse fill="none" stroke="black" cx="608.43" cy="-594" rx="29.28" ry="18"/>
<text xml:space="preserve" text-anchor="middle" x="608.43" y="-589.8" font-family="Times,serif" font-size="14.00">LSX</text>
</g>
<!-- 6th Edition&#45;&gt;LSX -->
<g id="edge3" class="edge">
<title>6th Edition&#45;&gt;LSX</title>
<path fill="none" stroke="black" stroke-dasharray="5,2" d="M471.45,-651.66C498.17,-641.1 536.28,-625.87 569.43,-612 571.16,-611.27 572.93,-610.53 574.72,-609.76"/>
<polygon fill="black" stroke="black" points="575.77,-613.12 583.57,-605.96 573,-606.69 575.77,-613.12"/>
</g>
<!-- 1 BSD -->
<g id="node5" class="node">
<title>1 BSD</title>
<ellipse fill="none" stroke="black" cx="127.43" cy="-594" rx="37.06" ry="18"/>
<text xml:space="preserve" text-anchor="middle" x="127.43" y="-589.8" font-family="Times,serif" font-size="14.00">1 BSD</text>
</g>
<!-- 6th Edition&#45;&gt;1 BSD -->
<g id="edge4" class="edge">
<title>6th Edition&#45;&gt;1 BSD</title>
<path fill="none" stroke="black" stroke-dasharray="5,2" d="M393.34,-655.05C334.42,-641.74 230.58,-618.29 171.61,-604.98"/>
<polygon fill="black" stroke="black" points="172.44,-601.58 161.92,-602.79 170.9,-608.41 172.44,-601.58"/>
</g>
<!-- Mini Unix -->
<g id="node6" class="node">
<title>Mini Unix</title>
<ellipse fill="none" stroke="black" cx="372.43" cy="-594" rx="51.55" ry="18"/>
<text xml:space="preserve" text-anchor="middle" x="372.43" y="-589.8" font-family="Times,serif" font-size="14.00">Mini Unix</text>
</g>
<!-- 6th Edition&#45;&gt;Mini Unix -->
<g id="edge5" class="edge">
<title>6th Edition&#45;&gt;Mini Unix</title>
<path fill="none" stroke="black" stroke-dasharray="5,2" d="M422.02,-648.41C414.09,-639.87 404.26,-629.28 395.44,-619.79"/>
<polygon fill="black" stroke="black" points="398.12,-617.53 388.75,-612.58 392.99,-622.29 398.12,-617.53"/>
</g>
<!-- Wollongong -->
<g id="node7" class="node">
<title>Wollongong</title>
<ellipse fill="none" stroke="black" cx="501.43" cy="-594" rx="59.32" ry="18"/>
<text xml:space="preserve" text-anchor="middle" x="501.43" y="-589.8" font-family="Times,serif" font-size="14.00">Wollongong</text>
</g>
<!-- 6th Edition&#45;&gt;Wollongong -->
<g id="edge6" class="edge">
<title>6th Edition&#45;&gt;Wollongong</title>
<path fill="none" stroke="black" stroke-dasharray="5,2" d="M452.59,-648.41C460.4,-639.87 470.09,-629.28 478.76,-619.79"/>
<polygon fill="black" stroke="black" points="481.18,-622.33 485.35,-612.59 476.02,-617.61 481.18,-622.33"/>
</g>
<!-- Interdata -->
<g id="node8" class="node">
<title>Interdata</title>
<ellipse fill="none" stroke="black" cx="257.43" cy="-594" rx="45.35" ry="18"/>
<text xml:space="preserve" text-anchor="middle" x="257.43" y="-589.8" font-family="Times,serif" font-size="14.00">Interdata</text>
</g>
<!-- 6th Edition&#45;&gt;Interdata -->
<g id="edge7" class="edge">
<title>6th Edition&#45;&gt;Interdata</title>
<path fill="none" stroke="black" stroke-dasharray="5,2" d="M403.15,-651.67C373.76,-640.24 331.32,-623.74 299.81,-611.48"/>
<polygon fill="black" stroke="black" points="301.16,-608.25 290.57,-607.89 298.63,-614.78 301.16,-608.25"/>
</g>
<!-- PWB 1.2 -->
<g id="node28" class="node">
<title>PWB 1.2</title>
<ellipse fill="none" stroke="black" cx="702.43" cy="-594" rx="46.45" ry="18"/>
<text xml:space="preserve" text-anchor="middle" x="702.43" y="-589.8" font-family="Times,serif" font-size="14.00">PWB 1.2</text>
</g>
<!-- PWB 1.0&#45;&gt;PWB 1.2 -->
<g id="edge31" class="edge">
<title>PWB 1.0&#45;&gt;PWB 1.2</title>
<path fill="none" stroke="black" stroke-dasharray="5,2" d="M702.43,-647.7C702.43,-640.41 702.43,-631.73 702.43,-623.54"/>
<polygon fill="black" stroke="black" points="705.93,-623.62 702.43,-613.62 698.93,-623.62 705.93,-623.62"/>
</g>
<!-- USG 1.0 -->
<g id="node29" class="node">
<title>USG 1.0</title>
<ellipse fill="none" stroke="black" cx="811.43" cy="-594" rx="44.84" ry="18"/>
<text xml:space="preserve" text-anchor="middle" x="811.43" y="-589.8" font-family="Times,serif" font-size="14.00">USG 1.0</text>
</g>
<!-- PWB 1.0&#45;&gt;USG 1.0 -->
<g id="edge32" class="edge">
<title>PWB 1.0&#45;&gt;USG 1.0</title>
<path fill="none" stroke="black" stroke-dasharray="5,2" d="M725.81,-649.98C741.29,-640.04 761.8,-626.87 778.87,-615.91"/>
<polygon fill="black" stroke="black" points="780.66,-618.92 787.18,-610.57 776.88,-613.03 780.66,-618.92"/>
</g>
<!-- 2 BSD -->
<g id="node19" class="node">
<title>2 BSD</title>
<ellipse fill="none" stroke="black" cx="80.43" cy="-234" rx="37.06" ry="18"/>
<text xml:space="preserve" text-anchor="middle" x="80.43" y="-229.8" font-family="Times,serif" font-size="14.00">2 BSD</text>
</g>
<!-- 1 BSD&#45;&gt;2 BSD -->
<g id="edge19" class="edge">
<title>1 BSD&#45;&gt;2 BSD</title>
<path fill="none" stroke="black" stroke-dasharray="5,2" d="M120.55,-575.83C110.61,-549.44 93.43,-497.14 93.43,-451 93.43,-451 93.43,-451 93.43,-377 93.43,-337.58 88.39,-292.25 84.59,-263.62"/>
<polygon fill="black" stroke="black" points="88.09,-263.37 83.26,-253.94 81.16,-264.32 88.09,-263.37"/>
</g>
<!-- Unix/TS 3.0 -->
<g id="node9" class="node">
<title>Unix/TS 3.0</title>
<ellipse fill="none" stroke="black" cx="625.43" cy="-378" rx="58.79" ry="18"/>
<text xml:space="preserve" text-anchor="middle" x="625.43" y="-373.8" font-family="Times,serif" font-size="14.00">Unix/TS 3.0</text>
</g>
<!-- Interdata&#45;&gt;Unix/TS 3.0 -->
<g id="edge8" class="edge">
<title>Interdata&#45;&gt;Unix/TS 3.0</title>
<path fill="none" stroke="black" stroke-dasharray="5,2" d="M282.14,-578.63C345.55,-541.75 514.26,-443.65 588.96,-400.21"/>
<polygon fill="black" stroke="black" points="590.66,-403.27 597.55,-395.21 587.14,-397.21 590.66,-403.27"/>
</g>
<!-- PWB 2.0 -->
<g id="node10" class="node">
<title>PWB 2.0</title>
<ellipse fill="none" stroke="black" cx="569.43" cy="-522" rx="46.45" ry="18"/>
<text xml:space="preserve" text-anchor="middle" x="569.43" y="-517.8" font-family="Times,serif" font-size="14.00">PWB 2.0</text>
</g>
<!-- Interdata&#45;&gt;PWB 2.0 -->
<g id="edge9" class="edge">
<title>Interdata&#45;&gt;PWB 2.0</title>
<path fill="none" stroke="black" stroke-dasharray="5,2" d="M291.23,-581.65C297.88,-579.61 304.84,-577.63 311.43,-576 398.25,-554.53 422.3,-560.21 509.43,-540 513.69,-539.01 518.11,-537.91 522.53,-536.75"/>
<polygon fill="black" stroke="black" points="523.2,-540.2 531.94,-534.21 521.37,-533.44 523.2,-540.2"/>
</g>
<!-- 7th Edition -->
<g id="node11" class="node">
<title>7th Edition</title>
<ellipse fill="none" stroke="black" cx="257.43" cy="-522" rx="54.22" ry="18"/>
<text xml:space="preserve" text-anchor="middle" x="257.43" y="-517.8" font-family="Times,serif" font-size="14.00">7th Edition</text>
</g>
<!-- Interdata&#45;&gt;7th Edition -->
<g id="edge10" class="edge">
<title>Interdata&#45;&gt;7th Edition</title>
<path fill="none" stroke="black" stroke-dasharray="5,2" d="M257.43,-575.7C257.43,-568.41 257.43,-559.73 257.43,-551.54"/>
<polygon fill="black" stroke="black" points="260.93,-551.62 257.43,-541.62 253.93,-551.62 260.93,-551.62"/>
</g>
<!-- TS 4.0 -->
<g id="node38" class="node">
<title>TS 4.0</title>
<ellipse fill="none" stroke="black" cx="715.43" cy="-234" rx="36.79" ry="18"/>
<text xml:space="preserve" text-anchor="middle" x="715.43" y="-229.8" font-family="Times,serif" font-size="14.00">TS 4.0</text>
</g>
<!-- Unix/TS 3.0&#45;&gt;TS 4.0 -->
<g id="edge44" class="edge">
<title>Unix/TS 3.0&#45;&gt;TS 4.0</title>
<path fill="none" stroke="black" stroke-dasharray="5,2" d="M636.28,-359.87C651.92,-335.19 680.92,-289.45 699.13,-260.71"/>
<polygon fill="black" stroke="black" points="701.88,-262.91 704.28,-252.59 695.97,-259.16 701.88,-262.91"/>
</g>
<!-- PWB 2.0&#45;&gt;Unix/TS 3.0 -->
<g id="edge42" class="edge">
<title>PWB 2.0&#45;&gt;Unix/TS 3.0</title>
<path fill="none" stroke="black" stroke-dasharray="5,2" d="M566.11,-503.79C563.37,-485.24 561.35,-455.26 571.43,-432 576.33,-420.67 584.91,-410.52 593.81,-402.21"/>
<polygon fill="black" stroke="black" points="595.92,-405.01 601.18,-395.81 591.33,-399.72 595.92,-405.01"/>
</g>
<!-- 8th Edition -->
<g id="node12" class="node">
<title>8th Edition</title>
<ellipse fill="none" stroke="black" cx="479.43" cy="-162" rx="54.22" ry="18"/>
<text xml:space="preserve" text-anchor="middle" x="479.43" y="-157.8" font-family="Times,serif" font-size="14.00">8th Edition</text>
</g>
<!-- 7th Edition&#45;&gt;8th Edition -->
<g id="edge11" class="edge">
<title>7th Edition&#45;&gt;8th Edition</title>
<path fill="none" stroke="black" stroke-dasharray="5,2" d="M304.54,-512.84C351.86,-503.7 420.27,-487.56 438.43,-468 465.94,-438.35 457.43,-419.45 457.43,-379 457.43,-379 457.43,-379 457.43,-305 457.43,-265.27 465.94,-220.02 472.37,-191.49"/>
<polygon fill="black" stroke="black" points="475.76,-192.36 474.63,-181.83 468.95,-190.77 475.76,-192.36"/>
</g>
<!-- 32V -->
<g id="node13" class="node">
<title>32V</title>
<ellipse fill="none" stroke="black" cx="401.43" cy="-450" rx="27.67" ry="18"/>
<text xml:space="preserve" text-anchor="middle" x="401.43" y="-445.8" font-family="Times,serif" font-size="14.00">32V</text>
</g>
<!-- 7th Edition&#45;&gt;32V -->
<g id="edge12" class="edge">
<title>7th Edition&#45;&gt;32V</title>
<path fill="none" stroke="black" stroke-dasharray="5,2" d="M287.26,-506.5C311.23,-494.84 344.82,-478.52 369.36,-466.59"/>
<polygon fill="black" stroke="black" points="370.78,-469.79 378.24,-462.27 367.72,-463.49 370.78,-469.79"/>
</g>
<!-- V7M -->
<g id="node14" class="node">
<title>V7M</title>
<ellipse fill="none" stroke="black" cx="31.43" cy="-378" rx="31.43" ry="18"/>
<text xml:space="preserve" text-anchor="middle" x="31.43" y="-373.8" font-family="Times,serif" font-size="14.00">V7M</text>
</g>
<!-- 7th Edition&#45;&gt;V7M -->
<g id="edge13" class="edge">
<title>7th Edition&#45;&gt;V7M</title>
<path fill="none" stroke="black" stroke-dasharray="5,2" d="M219.45,-508.74C193.58,-499.51 159.13,-485.47 131.43,-468 101.8,-449.32 72.4,-421.79 53.23,-402.3"/>
<polygon fill="black" stroke="black" points="55.94,-400.07 46.47,-395.32 50.91,-404.94 55.94,-400.07"/>
</g>
<!-- Ultrix&#45;11 -->
<g id="node15" class="node">
<title>Ultrix&#45;11</title>
<ellipse fill="none" stroke="black" cx="108.43" cy="-90" rx="46.98" ry="18"/>
<text xml:space="preserve" text-anchor="middle" x="108.43" y="-85.8" font-family="Times,serif" font-size="14.00">Ultrix&#45;11</text>
</g>
<!-- 7th Edition&#45;&gt;Ultrix&#45;11 -->
<g id="edge14" class="edge">
<title>7th Edition&#45;&gt;Ultrix&#45;11</title>
<path fill="none" stroke="black" stroke-dasharray="5,2" d="M220.53,-508.5C201,-500.03 178.25,-486.9 164.43,-468 140.55,-435.36 145.43,-419.45 145.43,-379 145.43,-379 145.43,-379 145.43,-233 145.43,-192.25 130.98,-146.98 120.14,-118.75"/>
<polygon fill="black" stroke="black" points="123.42,-117.52 116.47,-109.52 116.91,-120.11 123.42,-117.52"/>
</g>
<!-- Xenix -->
<g id="node16" class="node">
<title>Xenix</title>
<ellipse fill="none" stroke="black" cx="208.43" cy="-450" rx="34.64" ry="18"/>
<text xml:space="preserve" text-anchor="middle" x="208.43" y="-445.8" font-family="Times,serif" font-size="14.00">Xenix</text>
</g>
<!-- 7th Edition&#45;&gt;Xenix -->
<g id="edge15" class="edge">
<title>7th Edition&#45;&gt;Xenix</title>
<path fill="none" stroke="black" stroke-dasharray="5,2" d="M245.56,-504.05C239.82,-495.85 232.81,-485.83 226.43,-476.71"/>
<polygon fill="black" stroke="black" points="229.31,-474.73 220.71,-468.55 223.58,-478.75 229.31,-474.73"/>
</g>
<!-- UniPlus+ -->
<g id="node17" class="node">
<title>UniPlus+</title>
<ellipse fill="none" stroke="black" cx="308.43" cy="-450" rx="47.61" ry="18"/>
<text xml:space="preserve" text-anchor="middle" x="308.43" y="-445.8" font-family="Times,serif" font-size="14.00">UniPlus+</text>
</g>
<!-- 7th Edition&#45;&gt;UniPlus+ -->
<g id="edge16" class="edge">
<title>7th Edition&#45;&gt;UniPlus+</title>
<path fill="none" stroke="black" stroke-dasharray="5,2" d="M269.77,-504.05C275.72,-495.89 282.99,-485.91 289.61,-476.82"/>
<polygon fill="black" stroke="black" points="292.24,-479.16 295.3,-469.01 286.58,-475.03 292.24,-479.16"/>
</g>
<!-- 9th Edition -->
<g id="node18" class="node">
<title>9th Edition</title>
<ellipse fill="none" stroke="black" cx="552.43" cy="-90" rx="54.22" ry="18"/>
<text xml:space="preserve" text-anchor="middle" x="552.43" y="-85.8" font-family="Times,serif" font-size="14.00">9th Edition</text>
</g>
<!-- 8th Edition&#45;&gt;9th Edition -->
<g id="edge18" class="edge">
<title>8th Edition&#45;&gt;9th Edition</title>
<path fill="none" stroke="black" stroke-dasharray="5,2" d="M496.36,-144.76C505.5,-135.99 516.98,-124.99 527.16,-115.22"/>
<polygon fill="black" stroke="black" points="529.45,-117.88 534.24,-108.44 524.6,-112.83 529.45,-117.88"/>
</g>
<!-- 3 BSD -->
<g id="node22" class="node">
<title>3 BSD</title>
<ellipse fill="none" stroke="black" cx="377.43" cy="-378" rx="37.06" ry="18"/>
<text xml:space="preserve" text-anchor="middle" x="377.43" y="-373.8" font-family="Times,serif" font-size="14.00">3 BSD</text>
</g>
<!-- 32V&#45;&gt;3 BSD -->
<g id="edge23" class="edge">
<title>32V&#45;&gt;3 BSD</title>
<path fill="none" stroke="black" stroke-dasharray="5,2" d="M395.62,-432.05C392.99,-424.4 389.82,-415.16 386.87,-406.56"/>
<polygon fill="black" stroke="black" points="390.23,-405.55 383.67,-397.22 383.61,-407.82 390.23,-405.55"/>
</g>
<!-- V7M&#45;&gt;Ultrix&#45;11 -->
<g id="edge17" class="edge">
<title>V7M&#45;&gt;Ultrix&#45;11</title>
<path fill="none" stroke="black" stroke-dasharray="5,2" d="M28.91,-359.66C25.18,-329.69 20.07,-266.56 34.43,-216 45.08,-178.47 69.88,-140.66 87.83,-116.6"/>
<polygon fill="black" stroke="black" points="90.6,-118.75 93.89,-108.68 85.04,-114.5 90.6,-118.75"/>
</g>
<!-- 2.8 BSD -->
<g id="node20" class="node">
<title>2.8 BSD</title>
<ellipse fill="none" stroke="black" cx="217.43" cy="-162" rx="44.31" ry="18"/>
<text xml:space="preserve" text-anchor="middle" x="217.43" y="-157.8" font-family="Times,serif" font-size="14.00">2.8 BSD</text>
</g>
<!-- 2 BSD&#45;&gt;2.8 BSD -->
<g id="edge20" class="edge">
<title>2 BSD&#45;&gt;2.8 BSD</title>
<path fill="none" stroke="black" stroke-dasharray="5,2" d="M105.24,-220.32C126.33,-209.55 156.9,-193.92 180.81,-181.71"/>
<polygon fill="black" stroke="black" points="182.27,-184.89 189.58,-177.23 179.09,-178.66 182.27,-184.89"/>
</g>
<!-- 2.8 BSD&#45;&gt;Ultrix&#45;11 -->
<g id="edge21" class="edge">
<title>2.8 BSD&#45;&gt;Ultrix&#45;11</title>
<path fill="none" stroke="black" stroke-dasharray="5,2" d="M194.31,-146.15C178.95,-136.29 158.55,-123.19 141.48,-112.23"/>
<polygon fill="black" stroke="black" points="143.46,-109.34 133.16,-106.88 139.68,-115.23 143.46,-109.34"/>
</g>
<!-- 2.9 BSD -->
<g id="node21" class="node">
<title>2.9 BSD</title>
<ellipse fill="none" stroke="black" cx="217.43" cy="-90" rx="44.31" ry="18"/>
<text xml:space="preserve" text-anchor="middle" x="217.43" y="-85.8" font-family="Times,serif" font-size="14.00">2.9 BSD</text>
</g>
<!-- 2.8 BSD&#45;&gt;2.9 BSD -->
<g id="edge22" class="edge">
<title>2.8 BSD&#45;&gt;2.9 BSD</title>
<path fill="none" stroke="black" stroke-dasharray="5,2" d="M217.43,-143.7C217.43,-136.41 217.43,-127.73 217.43,-119.54"/>
<polygon fill="black" stroke="black" points="220.93,-119.62 217.43,-109.62 213.93,-119.62 220.93,-119.62"/>
</g>
<!-- 4 BSD -->
<g id="node23" class="node">
<title>4 BSD</title>
<ellipse fill="none" stroke="black" cx="370.43" cy="-306" rx="37.06" ry="18"/>
<text xml:space="preserve" text-anchor="middle" x="370.43" y="-301.8" font-family="Times,serif" font-size="14.00">4 BSD</text>
</g>
<!-- 3 BSD&#45;&gt;4 BSD -->
<g id="edge24" class="edge">
<title>3 BSD&#45;&gt;4 BSD</title>
<path fill="none" stroke="black" stroke-dasharray="5,2" d="M375.7,-359.7C374.97,-352.41 374.1,-343.73 373.28,-335.54"/>
<polygon fill="black" stroke="black" points="376.76,-335.21 372.29,-325.61 369.8,-335.91 376.76,-335.21"/>
</g>
<!-- 4.1 BSD -->
<g id="node24" class="node">
<title>4.1 BSD</title>
<ellipse fill="none" stroke="black" cx="366.43" cy="-234" rx="44.31" ry="18"/>
<text xml:space="preserve" text-anchor="middle" x="366.43" y="-229.8" font-family="Times,serif" font-size="14.00">4.1 BSD</text>
</g>
<!-- 4 BSD&#45;&gt;4.1 BSD -->
<g id="edge25" class="edge">
<title>4 BSD&#45;&gt;4.1 BSD</title>
<path fill="none" stroke="black" stroke-dasharray="5,2" d="M369.44,-287.7C369.02,-280.41 368.52,-271.73 368.06,-263.54"/>
<polygon fill="black" stroke="black" points="371.55,-263.4 367.49,-253.62 364.57,-263.8 371.55,-263.4"/>
</g>
<!-- 4.1 BSD&#45;&gt;8th Edition -->
<g id="edge28" class="edge">
<title>4.1 BSD&#45;&gt;8th Edition</title>
<path fill="none" stroke="black" stroke-dasharray="5,2" d="M390.11,-218.33C406.06,-208.45 427.34,-195.27 445.13,-184.25"/>
<polygon fill="black" stroke="black" points="446.65,-187.42 453.31,-179.18 442.96,-181.47 446.65,-187.42"/>
</g>
<!-- 4.1 BSD&#45;&gt;2.8 BSD -->
<g id="edge27" class="edge">
<title>4.1 BSD&#45;&gt;2.8 BSD</title>
<path fill="none" stroke="black" stroke-dasharray="5,2" d="M338.4,-219.83C315.06,-208.87 281.59,-193.14 255.77,-181.01"/>
<polygon fill="black" stroke="black" points="257.49,-177.95 246.95,-176.87 254.51,-184.29 257.49,-177.95"/>
</g>
<!-- 4.2 BSD -->
<g id="node25" class="node">
<title>4.2 BSD</title>
<ellipse fill="none" stroke="black" cx="362.43" cy="-162" rx="44.31" ry="18"/>
<text xml:space="preserve" text-anchor="middle" x="362.43" y="-157.8" font-family="Times,serif" font-size="14.00">4.2 BSD</text>
</g>
<!-- 4.1 BSD&#45;&gt;4.2 BSD -->
<g id="edge26" class="edge">
<title>4.1 BSD&#45;&gt;4.2 BSD</title>
<path fill="none" stroke="black" stroke-dasharray="5,2" d="M365.44,-215.7C365.02,-208.41 364.52,-199.73 364.06,-191.54"/>
<polygon fill="black" stroke="black" points="367.55,-191.4 363.49,-181.62 360.57,-191.8 367.55,-191.4"/>
</g>
<!-- 4.3 BSD -->
<g id="node26" class="node">
<title>4.3 BSD</title>
<ellipse fill="none" stroke="black" cx="435.43" cy="-90" rx="44.31" ry="18"/>
<text xml:space="preserve" text-anchor="middle" x="435.43" y="-85.8" font-family="Times,serif" font-size="14.00">4.3 BSD</text>
</g>
<!-- 4.2 BSD&#45;&gt;4.3 BSD -->
<g id="edge29" class="edge">
<title>4.2 BSD&#45;&gt;4.3 BSD</title>
<path fill="none" stroke="black" stroke-dasharray="5,2" d="M378.99,-145.12C388.26,-136.23 400,-124.97 410.37,-115.03"/>
<polygon fill="black" stroke="black" points="412.79,-117.56 417.58,-108.11 407.94,-112.51 412.79,-117.56"/>
</g>
<!-- Ultrix&#45;32 -->
<g id="node27" class="node">
<title>Ultrix&#45;32</title>
<ellipse fill="none" stroke="black" cx="326.43" cy="-90" rx="46.98" ry="18"/>
<text xml:space="preserve" text-anchor="middle" x="326.43" y="-85.8" font-family="Times,serif" font-size="14.00">Ultrix&#45;32</text>
</g>
<!-- 4.2 BSD&#45;&gt;Ultrix&#45;32 -->
<g id="edge30" class="edge">
<title>4.2 BSD&#45;&gt;Ultrix&#45;32</title>
<path fill="none" stroke="black" stroke-dasharray="5,2" d="M353.71,-144.05C349.69,-136.23 344.81,-126.75 340.3,-117.98"/>
<polygon fill="black" stroke="black" points="343.44,-116.43 335.75,-109.13 337.21,-119.63 343.44,-116.43"/>
</g>
<!-- PWB 1.2&#45;&gt;PWB 2.0 -->
<g id="edge33" class="edge">
<title>PWB 1.2&#45;&gt;PWB 2.0</title>
<path fill="none" stroke="black" stroke-dasharray="5,2" d="M675.83,-579C655.81,-568.46 628.12,-553.89 606.01,-542.25"/>
<polygon fill="black" stroke="black" points="607.79,-539.24 597.31,-537.68 604.53,-545.43 607.79,-539.24"/>
</g>
<!-- CB Unix 1 -->
<g id="node30" class="node">
<title>CB Unix 1</title>
<ellipse fill="none" stroke="black" cx="845.43" cy="-522" rx="52.89" ry="18"/>
<text xml:space="preserve" text-anchor="middle" x="845.43" y="-517.8" font-family="Times,serif" font-size="14.00">CB Unix 1</text>
</g>
<!-- USG 1.0&#45;&gt;CB Unix 1 -->
<g id="edge34" class="edge">
<title>USG 1.0&#45;&gt;CB Unix 1</title>
<path fill="none" stroke="black" stroke-dasharray="5,2" d="M819.66,-576.05C823.46,-568.23 828.06,-558.75 832.32,-549.98"/>
<polygon fill="black" stroke="black" points="835.39,-551.67 836.61,-541.15 829.09,-548.62 835.39,-551.67"/>
</g>
<!-- USG 2.0 -->
<g id="node31" class="node">
<title>USG 2.0</title>
<ellipse fill="none" stroke="black" cx="712.43" cy="-522" rx="44.84" ry="18"/>
<text xml:space="preserve" text-anchor="middle" x="712.43" y="-517.8" font-family="Times,serif" font-size="14.00">USG 2.0</text>
</g>
<!-- USG 1.0&#45;&gt;USG 2.0 -->
<g id="edge35" class="edge">
<title>USG 1.0&#45;&gt;USG 2.0</title>
<path fill="none" stroke="black" stroke-dasharray="5,2" d="M789.94,-577.81C776.19,-568.09 758.14,-555.32 742.91,-544.56"/>
<polygon fill="black" stroke="black" points="745.29,-541.95 735.1,-539.03 741.25,-547.66 745.29,-541.95"/>
</g>
<!-- CB Unix 2 -->
<g id="node32" class="node">
<title>CB Unix 2</title>
<ellipse fill="none" stroke="black" cx="877.43" cy="-450" rx="52.89" ry="18"/>
<text xml:space="preserve" text-anchor="middle" x="877.43" y="-445.8" font-family="Times,serif" font-size="14.00">CB Unix 2</text>
</g>
<!-- CB Unix 1&#45;&gt;CB Unix 2 -->
<g id="edge36" class="edge">
<title>CB Unix 1&#45;&gt;CB Unix 2</title>
<path fill="none" stroke="black" stroke-dasharray="5,2" d="M853.17,-504.05C856.66,-496.43 860.86,-487.23 864.79,-478.65"/>
<polygon fill="black" stroke="black" points="867.92,-480.2 868.9,-469.65 861.56,-477.29 867.92,-480.2"/>
</g>
<!-- USG 3.0 -->
<g id="node36" class="node">
<title>USG 3.0</title>
<ellipse fill="none" stroke="black" cx="625.43" cy="-450" rx="44.84" ry="18"/>
<text xml:space="preserve" text-anchor="middle" x="625.43" y="-445.8" font-family="Times,serif" font-size="14.00">USG 3.0</text>
</g>
<!-- USG 2.0&#45;&gt;USG 3.0 -->
<g id="edge40" class="edge">
<title>USG 2.0&#45;&gt;USG 3.0</title>
<path fill="none" stroke="black" stroke-dasharray="5,2" d="M693.12,-505.46C681.52,-496.13 666.55,-484.09 653.64,-473.7"/>
<polygon fill="black" stroke="black" points="655.84,-470.98 645.86,-467.44 651.46,-476.44 655.84,-470.98"/>
</g>
<!-- CB Unix 3 -->
<g id="node33" class="node">
<title>CB Unix 3</title>
<ellipse fill="none" stroke="black" cx="816.43" cy="-378" rx="52.89" ry="18"/>
<text xml:space="preserve" text-anchor="middle" x="816.43" y="-373.8" font-family="Times,serif" font-size="14.00">CB Unix 3</text>
</g>
<!-- CB Unix 2&#45;&gt;CB Unix 3 -->
<g id="edge37" class="edge">
<title>CB Unix 2&#45;&gt;CB Unix 3</title>
<path fill="none" stroke="black" stroke-dasharray="5,2" d="M862.97,-432.41C855.6,-423.95 846.48,-413.49 838.28,-404.08"/>
<polygon fill="black" stroke="black" points="840.98,-401.85 831.77,-396.61 835.7,-406.45 840.98,-401.85"/>
</g>
<!-- Unix/TS++ -->
<g id="node34" class="node">
<title>Unix/TS++</title>
<ellipse fill="none" stroke="black" cx="798.43" cy="-306" rx="55.2" ry="18"/>
<text xml:space="preserve" text-anchor="middle" x="798.43" y="-301.8" font-family="Times,serif" font-size="14.00">Unix/TS++</text>
</g>
<!-- CB Unix 3&#45;&gt;Unix/TS++ -->
<g id="edge38" class="edge">
<title>CB Unix 3&#45;&gt;Unix/TS++</title>
<path fill="none" stroke="black" stroke-dasharray="5,2" d="M811.98,-359.7C810.08,-352.32 807.82,-343.52 805.69,-335.25"/>
<polygon fill="black" stroke="black" points="809.08,-334.38 803.2,-325.57 802.3,-336.13 809.08,-334.38"/>
</g>
<!-- PDP&#45;11 Sys V -->
<g id="node35" class="node">
<title>PDP&#45;11 Sys V</title>
<ellipse fill="none" stroke="black" cx="939.43" cy="-306" rx="67.38" ry="18"/>
<text xml:space="preserve" text-anchor="middle" x="939.43" y="-301.8" font-family="Times,serif" font-size="14.00">PDP&#45;11 Sys V</text>
</g>
<!-- CB Unix 3&#45;&gt;PDP&#45;11 Sys V -->
<g id="edge39" class="edge">
<title>CB Unix 3&#45;&gt;PDP&#45;11 Sys V</title>
<path fill="none" stroke="black" stroke-dasharray="5,2" d="M842.81,-361.98C860.04,-352.18 882.81,-339.22 901.91,-328.35"/>
<polygon fill="black" stroke="black" points="903.53,-331.46 910.49,-323.47 900.06,-325.37 903.53,-331.46"/>
</g>
<!-- CB Unix 3&#45;&gt;TS 4.0 -->
<g id="edge46" class="edge">
<title>CB Unix 3&#45;&gt;TS 4.0</title>
<path fill="none" stroke="black" stroke-dasharray="5,2" d="M783.84,-363.48C766.6,-354.7 746.55,-341.58 734.43,-324 722.21,-306.29 717.62,-282.24 715.99,-263.6"/>
<polygon fill="black" stroke="black" points="719.49,-263.54 715.39,-253.77 712.51,-263.96 719.49,-263.54"/>
</g>
<!-- Unix/TS++&#45;&gt;TS 4.0 -->
<g id="edge45" class="edge">
<title>Unix/TS++&#45;&gt;TS 4.0</title>
<path fill="none" stroke="black" stroke-dasharray="5,2" d="M779.17,-288.76C768.18,-279.5 754.24,-267.73 742.19,-257.58"/>
<polygon fill="black" stroke="black" points="744.49,-254.94 734.59,-251.16 739.98,-260.29 744.49,-254.94"/>
</g>
<!-- USG 3.0&#45;&gt;Unix/TS 3.0 -->
<g id="edge41" class="edge">
<title>USG 3.0&#45;&gt;Unix/TS 3.0</title>
<path fill="none" stroke="black" stroke-dasharray="5,2" d="M625.43,-431.7C625.43,-424.41 625.43,-415.73 625.43,-407.54"/>
<polygon fill="black" stroke="black" points="628.93,-407.62 625.43,-397.62 621.93,-407.62 628.93,-407.62"/>
</g>
<!-- Unix/TS 1.0 -->
<g id="node37" class="node">
<title>Unix/TS 1.0</title>
<ellipse fill="none" stroke="black" cx="747.43" cy="-450" rx="58.79" ry="18"/>
<text xml:space="preserve" text-anchor="middle" x="747.43" y="-445.8" font-family="Times,serif" font-size="14.00">Unix/TS 1.0</text>
</g>
<!-- Unix/TS 1.0&#45;&gt;Unix/TS 3.0 -->
<g id="edge43" class="edge">
<title>Unix/TS 1.0&#45;&gt;Unix/TS 3.0</title>
<path fill="none" stroke="black" stroke-dasharray="5,2" d="M720.65,-433.64C703.41,-423.75 680.77,-410.76 661.9,-399.93"/>
<polygon fill="black" stroke="black" points="663.86,-397.02 653.45,-395.08 660.38,-403.09 663.86,-397.02"/>
</g>
<!-- System V.0 -->
<g id="node39" class="node">
<title>System V.0</title>
<ellipse fill="none" stroke="black" cx="715.43" cy="-162" rx="56.11" ry="18"/>
<text xml:space="preserve" text-anchor="middle" x="715.43" y="-157.8" font-family="Times,serif" font-size="14.00">System V.0</text>
</g>
<!-- TS 4.0&#45;&gt;System V.0 -->
<g id="edge47" class="edge">
<title>TS 4.0&#45;&gt;System V.0</title>
<path fill="none" stroke="black" stroke-dasharray="5,2" d="M715.43,-215.7C715.43,-208.41 715.43,-199.73 715.43,-191.54"/>
<polygon fill="black" stroke="black" points="718.93,-191.62 715.43,-181.62 711.93,-191.62 718.93,-191.62"/>
</g>
<!-- System V.2 -->
<g id="node40" class="node">
<title>System V.2</title>
<ellipse fill="none" stroke="black" cx="715.43" cy="-90" rx="56.11" ry="18"/>
<text xml:space="preserve" text-anchor="middle" x="715.43" y="-85.8" font-family="Times,serif" font-size="14.00">System V.2</text>
</g>
<!-- System V.0&#45;&gt;System V.2 -->
<g id="edge48" class="edge">
<title>System V.0&#45;&gt;System V.2</title>
<path fill="none" stroke="black" stroke-dasharray="5,2" d="M715.43,-143.7C715.43,-136.41 715.43,-127.73 715.43,-119.54"/>
<polygon fill="black" stroke="black" points="718.93,-119.62 715.43,-109.62 711.93,-119.62 718.93,-119.62"/>
</g>
<!-- System V.3 -->
<g id="node41" class="node">
<title>System V.3</title>
<ellipse fill="none" stroke="black" cx="715.43" cy="-18" rx="56.11" ry="18"/>
<text xml:space="preserve" text-anchor="middle" x="715.43" y="-13.8" font-family="Times,serif" font-size="14.00">System V.3</text>
</g>
<!-- System V.2&#45;&gt;System V.3 -->
<g id="edge49" class="edge">
<title>System V.2&#45;&gt;System V.3</title>
<path fill="none" stroke="black" stroke-dasharray="5,2" d="M715.43,-71.7C715.43,-64.41 715.43,-55.73 715.43,-47.54"/>
<polygon fill="black" stroke="black" points="718.93,-47.62 715.43,-37.62 711.93,-47.62 718.93,-47.62"/>
</g>
</g>
</svg>
