<?xml version="1.0" encoding="UTF-8" standalone="no"?>
<!DOCTYPE svg PUBLIC "-//W3C//DTD SVG 1.1//EN"
 "http://www.w3.org/Graphics/SVG/1.1/DTD/svg11.dtd">
<!-- Generated by graphviz version a (a)
 -->
<!-- Title: g Pages: 1 -->
<svg width="537pt" height="421pt"
 viewBox="0.00 0.00 537.00 421.00" xmlns="http://www.w3.org/2000/svg" xmlns:xlink="http://www.w3.org/1999/xlink">
<g id="graph0" class="graph" transform="scale(1 1) rotate(0) translate(4 417.43)">
<title>g</title>
<polygon fill="white" stroke="none" points="-4,4 -4,-417.43 532.83,-417.43 532.83,4 -4,4"/>
<!-- 22690 -->
<g id="node1" class="node">
<title>22690</title>
<polygon fill="none" stroke="black" points="243.7,-413.43 192.7,-413.43 192.7,-371.83 243.7,-371.83 243.7,-413.43"/>
<text xml:space="preserve" text-anchor="middle" x="218.2" y="-396.83" font-family="Times,serif" font-size="14.00">22690</text>
<text xml:space="preserve" text-anchor="middle" x="218.2" y="-380.03" font-family="Times,serif" font-size="14.00">?</text>
</g>
<!-- 22692 -->
<g id="node2" class="node">
<title>22692</title>
<polygon fill="none" stroke="black" points="243.7,-335.83 192.7,-335.83 192.7,-294.23 243.7,-294.23 243.7,-335.83"/>
<text xml:space="preserve" text-anchor="middle" x="218.2" y="-319.23" font-family="Times,serif" font-size="14.00">22692</text>
<text xml:space="preserve" text-anchor="middle" x="218.2" y="-302.43" font-family="Times,serif" font-size="14.00">dotty</text>
</g>
<!-- 22690&#45;&gt;22692 -->
<g id="edge1" class="edge">
<title>22690&#45;&gt;22692</title>
<path fill="none" stroke="black" d="M218.2,-371.38C218.2,-364.03 218.2,-355.55 218.2,-347.46"/>
<polygon fill="black" stroke="black" points="221.7,-347.6 218.2,-337.6 214.7,-347.6 221.7,-347.6"/>
</g>
<!-- 116842+2595 -->
<g id="node3" class="node">
<title>116842+2595</title>
<ellipse fill="none" stroke="black" cx="131.2" cy="-228.82" rx="131.2" ry="29.42"/>
<text xml:space="preserve" text-anchor="middle" x="131.2" y="-233.02" font-family="Times,serif" font-size="14.00">116842+2595</text>
<text xml:space="preserve" text-anchor="middle" x="131.2" y="-216.22" font-family="Times,serif" font-size="14.00">/home/ek/work/sun4/bin/dotty</text>
</g>
<!-- 22692&#45;&gt;116842+2595 -->
<g id="edge2" class="edge">
<title>22692&#45;&gt;116842+2595</title>
<path fill="none" stroke="black" d="M189.33,-286.09C179.98,-277.04 169.6,-266.99 160.23,-257.92"/>
<polygon fill="black" stroke="black" points="186.88,-288.58 196.49,-293.02 191.74,-283.55 186.88,-288.58"/>
</g>
<!-- 22693 -->
<g id="node4" class="node">
<title>22693</title>
<polygon fill="none" stroke="black" points="331.7,-249.62 280.7,-249.62 280.7,-208.02 331.7,-208.02 331.7,-249.62"/>
<text xml:space="preserve" text-anchor="middle" x="306.2" y="-233.02" font-family="Times,serif" font-size="14.00">22693</text>
<text xml:space="preserve" text-anchor="middle" x="306.2" y="-216.22" font-family="Times,serif" font-size="14.00">lefty</text>
</g>
<!-- 22692&#45;&gt;22693 -->
<g id="edge3" class="edge">
<title>22692&#45;&gt;22693</title>
<path fill="none" stroke="black" d="M239.05,-294.08C250.37,-283.25 264.54,-269.69 276.94,-257.82"/>
<polygon fill="black" stroke="black" points="279.29,-260.41 284.1,-250.97 274.45,-255.36 279.29,-260.41"/>
</g>
<!-- 182440&#45;1 -->
<g id="node5" class="node">
<title>182440&#45;1</title>
<ellipse fill="none" stroke="black" cx="235.2" cy="-34.29" rx="30.29" ry="30.29"/>
<ellipse fill="none" stroke="black" cx="235.2" cy="-34.29" rx="34.29" ry="34.29"/>
<text xml:space="preserve" text-anchor="middle" x="235.2" y="-40.59" font-family="Times,serif" font-size="7.00">182440&#45;1</text>
<text xml:space="preserve" text-anchor="middle" x="235.2" y="-32.19" font-family="Times,serif" font-size="7.00">182441&#45;1</text>
<text xml:space="preserve" text-anchor="middle" x="235.2" y="-23.79" font-family="Times,serif" font-size="7.00">pipe</text>
</g>
<!-- 22693&#45;&gt;182440&#45;1 -->
<g id="edge4" class="edge">
<title>22693&#45;&gt;182440&#45;1</title>
<path fill="none" stroke="black" d="M272.13,-200.21C261.67,-189.83 251.32,-177.18 245.2,-163.4 231.89,-133.43 230.57,-95.64 231.85,-68.89"/>
<polygon fill="black" stroke="black" points="269.66,-202.7 279.35,-206.99 274.45,-197.59 269.66,-202.7"/>
</g>
<!-- 182442&#45;1 -->
<g id="node6" class="node">
<title>182442&#45;1</title>
<ellipse fill="none" stroke="black" cx="327.2" cy="-34.29" rx="30.29" ry="30.29"/>
<ellipse fill="none" stroke="black" cx="327.2" cy="-34.29" rx="34.29" ry="34.29"/>
<text xml:space="preserve" text-anchor="middle" x="327.2" y="-40.59" font-family="Times,serif" font-size="7.00">182442&#45;1</text>
<text xml:space="preserve" text-anchor="middle" x="327.2" y="-32.19" font-family="Times,serif" font-size="7.00">182443&#45;1</text>
<text xml:space="preserve" text-anchor="middle" x="327.2" y="-23.79" font-family="Times,serif" font-size="7.00">pipe</text>
</g>
<!-- 22693&#45;&gt;182442&#45;1 -->
<g id="edge5" class="edge">
<title>22693&#45;&gt;182442&#45;1</title>
<path fill="none" stroke="black" d="M308.84,-207.52C310.46,-194.85 312.53,-178.19 314.2,-163.4 317.33,-135.69 320.49,-104.56 322.92,-79.93"/>
<polygon fill="black" stroke="black" points="326.37,-80.56 323.86,-70.26 319.41,-79.88 326.37,-80.56"/>
</g>
<!-- 22694 -->
<g id="node7" class="node">
<title>22694</title>
<polygon fill="none" stroke="black" points="304.7,-154.79 253.7,-154.79 253.7,-113.19 304.7,-113.19 304.7,-154.79"/>
<text xml:space="preserve" text-anchor="middle" x="279.2" y="-138.19" font-family="Times,serif" font-size="14.00">22694</text>
<text xml:space="preserve" text-anchor="middle" x="279.2" y="-121.39" font-family="Times,serif" font-size="14.00">dot</text>
</g>
<!-- 22693&#45;&gt;22694 -->
<g id="edge6" class="edge">
<title>22693&#45;&gt;22694</title>
<path fill="none" stroke="black" d="M300.34,-207.68C296.8,-195.51 292.22,-179.76 288.23,-166.03"/>
<polygon fill="black" stroke="black" points="291.62,-165.17 285.47,-156.54 284.9,-167.12 291.62,-165.17"/>
</g>
<!-- 4761+2595 -->
<g id="node8" class="node">
<title>4761+2595</title>
<ellipse fill="none" stroke="black" cx="445.2" cy="-133.99" rx="83.63" ry="29.42"/>
<text xml:space="preserve" text-anchor="middle" x="445.2" y="-138.19" font-family="Times,serif" font-size="14.00">4761+2595</text>
<text xml:space="preserve" text-anchor="middle" x="445.2" y="-121.39" font-family="Times,serif" font-size="14.00">/home/ek/pm2.dot</text>
</g>
<!-- 22693&#45;&gt;4761+2595 -->
<g id="edge9" class="edge">
<title>22693&#45;&gt;4761+2595</title>
<path fill="none" stroke="black" d="M341.39,-204.32C361.38,-190.97 386.44,-174.23 406.92,-160.55"/>
<polygon fill="black" stroke="black" points="339.65,-201.27 333.28,-209.74 343.54,-207.09 339.65,-201.27"/>
</g>
<!-- 22694&#45;&gt;182440&#45;1 -->
<g id="edge7" class="edge">
<title>22694&#45;&gt;182440&#45;1</title>
<path fill="none" stroke="black" d="M270.08,-112.74C265.32,-102.18 259.32,-88.85 253.65,-76.25"/>
<polygon fill="black" stroke="black" points="256.91,-74.97 249.61,-67.28 250.53,-77.84 256.91,-74.97"/>
</g>
<!-- 22694&#45;&gt;182442&#45;1 -->
<g id="edge8" class="edge">
<title>22694&#45;&gt;182442&#45;1</title>
<path fill="none" stroke="black" d="M294.18,-102.49C299.97,-90.72 306.57,-77.28 312.34,-65.53"/>
<polygon fill="black" stroke="black" points="291.08,-100.87 289.81,-111.39 297.36,-103.95 291.08,-100.87"/>
</g>
</g>
</svg>
