<?xml version="1.0" encoding="UTF-8" standalone="no"?>
<!DOCTYPE svg PUBLIC "-//W3C//DTD SVG 1.1//EN"
 "http://www.w3.org/Graphics/SVG/1.1/DTD/svg11.dtd">
<!-- Generated by graphviz version a (a)
 -->
<!-- Title: G Pages: 1 -->
<svg width="140pt" height="195pt"
 viewBox="0.00 0.00 140.00 195.00" xmlns="http://www.w3.org/2000/svg" xmlns:xlink="http://www.w3.org/1999/xlink">
<g id="graph0" class="graph" transform="scale(1 1) rotate(0) translate(4 191.1)">
<title>G</title>
<polygon fill="white" stroke="none" points="-4,4 -4,-191.1 136.03,-191.1 136.03,4 -4,4"/>
<text xml:space="preserve" text-anchor="middle" x="66.01" y="-8.2" font-family="Times,serif" font-size="14.00">SelfBottom</text>
<!-- node55 -->
<g id="node1" class="node">
<title>node55</title>
<polygon fill="none" stroke="black" points="94.62,-187.1 37.41,-187.1 37.41,-151.1 94.62,-151.1 94.62,-187.1"/>
<text xml:space="preserve" text-anchor="middle" x="66.01" y="-164.9" font-family="Times,serif" font-size="14.00">node55</text>
</g>
<!-- node55&#45;&gt;node55 -->
<g id="edge1" class="edge">
<title>node55:se&#45;&gt;node55:se</title>
<path fill="none" stroke="black" d="M94.62,-151.1C99.12,-145.02 99.12,-132.85 94.62,-132.85 92.23,-132.85 91.11,-136.28 91.26,-140.41"/>
<polygon fill="black" stroke="black" points="87.83,-141.17 94.17,-149.66 94.5,-139.07 87.83,-141.17"/>
<text xml:space="preserve" text-anchor="middle" x="66.01" y="-120.25" font-family="Times,serif" font-size="14.00">tailport=se headport=se</text>
</g>
<!-- node55&#45;&gt;node55 -->
<g id="edge2" class="edge">
<title>node55:se&#45;&gt;node55:se</title>
<path fill="none" stroke="black" d="M94.62,-151.1C103.62,-138.93 103.62,-114.6 94.62,-114.6 87.73,-114.6 86.12,-128.86 89.78,-141.01"/>
<polygon fill="black" stroke="black" points="86.48,-142.24 93.97,-149.74 92.79,-139.21 86.48,-142.24"/>
<text xml:space="preserve" text-anchor="middle" x="66.01" y="-102" font-family="Times,serif" font-size="14.00">tailport=se headport=se</text>
</g>
<!-- node66 -->
<g id="node2" class="node">
<title>node66</title>
<polygon fill="none" stroke="black" points="94.62,-114.1 37.41,-114.1 37.41,-78.1 94.62,-78.1 94.62,-114.1"/>
<text xml:space="preserve" text-anchor="middle" x="66.01" y="-91.9" font-family="Times,serif" font-size="14.00">node66</text>
</g>
<!-- node55&#45;&gt;node66 -->
<g id="edge3" class="edge">
<title>node55&#45;&gt;node66</title>
<path fill="none" stroke="black" d="M66.01,-150.91C66.01,-143.33 66.01,-134.2 66.01,-125.64"/>
<polygon fill="black" stroke="black" points="69.51,-125.64 66.01,-115.64 62.51,-125.64 69.51,-125.64"/>
</g>
<!-- node66&#45;&gt;node66 -->
<g id="edge4" class="edge">
<title>node66:s&#45;&gt;node66:s</title>
<path fill="none" stroke="black" d="M66.01,-78.1C70.51,-72.02 70.51,-59.85 66.01,-59.85 63.62,-59.85 62.5,-63.28 62.65,-67.41"/>
<polygon fill="black" stroke="black" points="59.22,-68.17 65.56,-76.66 65.9,-66.07 59.22,-68.17"/>
<text xml:space="preserve" text-anchor="middle" x="66.01" y="-47.25" font-family="Times,serif" font-size="14.00">tailport=s headport=s</text>
</g>
<!-- node66&#45;&gt;node66 -->
<g id="edge5" class="edge">
<title>node66:s&#45;&gt;node66:s</title>
<path fill="none" stroke="black" d="M66.01,-78.1C75.01,-65.93 75.01,-41.6 66.01,-41.6 59.12,-41.6 57.51,-55.86 61.17,-68.01"/>
<polygon fill="black" stroke="black" points="57.88,-69.24 65.36,-76.74 64.19,-66.21 57.88,-69.24"/>
<text xml:space="preserve" text-anchor="middle" x="66.01" y="-29" font-family="Times,serif" font-size="14.00">tailport=s headport=s</text>
</g>
</g>
</svg>
