<?xml version="1.0" encoding="UTF-8" standalone="no"?>
<!DOCTYPE svg PUBLIC "-//W3C//DTD SVG 1.1//EN"
 "http://www.w3.org/Graphics/SVG/1.1/DTD/svg11.dtd">
<!-- Generated by graphviz version a (a)
 -->
<!-- Title: unix Pages: 1 -->
<svg width="1019pt" height="836pt"
 viewBox="0.00 0.00 1019.00 836.00" xmlns="http://www.w3.org/2000/svg" xmlns:xlink="http://www.w3.org/1999/xlink">
<g id="graph0" class="graph" transform="scale(1 1) rotate(0) translate(4 832)">
<title>unix</title>
<polygon fill="white" stroke="none" points="-4,4 -4,-832 1014.81,-832 1014.81,4 -4,4"/>
<!-- 5th Edition -->
<g id="node1" class="node">
<title>5th Edition</title>
<ellipse fill="#b2dfee" stroke="#b2dfee" cx="537.43" cy="-810" rx="54.22" ry="18"/>
<text xml:space="preserve" text-anchor="middle" x="537.43" y="-805.8" font-family="Times,serif" font-size="14.00">5th Edition</text>
</g>
<!-- 6th Edition -->
<g id="node2" class="node">
<title>6th Edition</title>
<ellipse fill="#b2dfee" stroke="#b2dfee" cx="437.43" cy="-738" rx="54.22" ry="18"/>
<text xml:space="preserve" text-anchor="middle" x="437.43" y="-733.8" font-family="Times,serif" font-size="14.00">6th Edition</text>
</g>
<!-- 5th Edition&#45;&gt;6th Edition -->
<g id="edge1" class="edge">
<title>5th Edition&#45;&gt;6th Edition</title>
<path fill="none" stroke="black" d="M515.23,-793.46C501.73,-784.02 484.27,-771.79 469.31,-761.32"/>
<polygon fill="black" stroke="black" points="471.34,-758.47 461.14,-755.6 467.33,-764.2 471.34,-758.47"/>
</g>
<!-- PWB 1.0 -->
<g id="node3" class="node">
<title>PWB 1.0</title>
<ellipse fill="#b2dfee" stroke="#b2dfee" cx="702.43" cy="-738" rx="46.45" ry="18"/>
<text xml:space="preserve" text-anchor="middle" x="702.43" y="-733.8" font-family="Times,serif" font-size="14.00">PWB 1.0</text>
</g>
<!-- 5th Edition&#45;&gt;PWB 1.0 -->
<g id="edge2" class="edge">
<title>5th Edition&#45;&gt;PWB 1.0</title>
<path fill="none" stroke="black" d="M570.02,-795.17C596.26,-784.04 633.27,-768.34 661.5,-756.36"/>
<polygon fill="black" stroke="black" points="662.61,-759.69 670.45,-752.56 659.88,-753.25 662.61,-759.69"/>
</g>
<!-- LSX -->
<g id="node4" class="node">
<title>LSX</title>
<ellipse fill="#b2dfee" stroke="#b2dfee" cx="608.43" cy="-666" rx="29.28" ry="18"/>
<text xml:space="preserve" text-anchor="middle" x="608.43" y="-661.8" font-family="Times,serif" font-size="14.00">LSX</text>
</g>
<!-- 6th Edition&#45;&gt;LSX -->
<g id="edge3" class="edge">
<title>6th Edition&#45;&gt;LSX</title>
<path fill="none" stroke="black" d="M471.45,-723.66C498.17,-713.1 536.28,-697.87 569.43,-684 571.16,-683.27 572.93,-682.53 574.72,-681.76"/>
<polygon fill="black" stroke="black" points="575.77,-685.12 583.57,-677.96 573,-678.69 575.77,-685.12"/>
</g>
<!-- 1 BSD -->
<g id="node5" class="node">
<title>1 BSD</title>
<ellipse fill="#b2dfee" stroke="#b2dfee" cx="127.43" cy="-666" rx="37.06" ry="18"/>
<text xml:space="preserve" text-anchor="middle" x="127.43" y="-661.8" font-family="Times,serif" font-size="14.00">1 BSD</text>
</g>
<!-- 6th Edition&#45;&gt;1 BSD -->
<g id="edge4" class="edge">
<title>6th Edition&#45;&gt;1 BSD</title>
<path fill="none" stroke="black" d="M393.34,-727.05C334.42,-713.74 230.58,-690.29 171.61,-676.98"/>
<polygon fill="black" stroke="black" points="172.44,-673.58 161.92,-674.79 170.9,-680.41 172.44,-673.58"/>
</g>
<!-- Mini Unix -->
<g id="node6" class="node">
<title>Mini Unix</title>
<ellipse fill="#b2dfee" stroke="#b2dfee" cx="372.43" cy="-666" rx="51.55" ry="18"/>
<text xml:space="preserve" text-anchor="middle" x="372.43" y="-661.8" font-family="Times,serif" font-size="14.00">Mini Unix</text>
</g>
<!-- 6th Edition&#45;&gt;Mini Unix -->
<g id="edge5" class="edge">
<title>6th Edition&#45;&gt;Mini Unix</title>
<path fill="none" stroke="black" d="M422.02,-720.41C414.09,-711.87 404.26,-701.28 395.44,-691.79"/>
<polygon fill="black" stroke="black" points="398.12,-689.53 388.75,-684.58 392.99,-694.29 398.12,-689.53"/>
</g>
<!-- Wollongong -->
<g id="node7" class="node">
<title>Wollongong</title>
<ellipse fill="#b2dfee" stroke="#b2dfee" cx="501.43" cy="-666" rx="59.32" ry="18"/>
<text xml:space="preserve" text-anchor="middle" x="501.43" y="-661.8" font-family="Times,serif" font-size="14.00">Wollongong</text>
</g>
<!-- 6th Edition&#45;&gt;Wollongong -->
<g id="edge6" class="edge">
<title>6th Edition&#45;&gt;Wollongong</title>
<path fill="none" stroke="black" d="M452.59,-720.41C460.4,-711.87 470.09,-701.28 478.76,-691.79"/>
<polygon fill="black" stroke="black" points="481.18,-694.33 485.35,-684.59 476.02,-689.61 481.18,-694.33"/>
</g>
<!-- Interdata -->
<g id="node8" class="node">
<title>Interdata</title>
<ellipse fill="#b2dfee" stroke="#b2dfee" cx="257.43" cy="-666" rx="45.35" ry="18"/>
<text xml:space="preserve" text-anchor="middle" x="257.43" y="-661.8" font-family="Times,serif" font-size="14.00">Interdata</text>
</g>
<!-- 6th Edition&#45;&gt;Interdata -->
<g id="edge7" class="edge">
<title>6th Edition&#45;&gt;Interdata</title>
<path fill="none" stroke="black" d="M403.15,-723.67C373.76,-712.24 331.32,-695.74 299.81,-683.48"/>
<polygon fill="black" stroke="black" points="301.16,-680.25 290.57,-679.89 298.63,-686.78 301.16,-680.25"/>
</g>
<!-- PWB 1.2 -->
<g id="node33" class="node">
<title>PWB 1.2</title>
<ellipse fill="#b2dfee" stroke="#b2dfee" cx="702.43" cy="-666" rx="46.45" ry="18"/>
<text xml:space="preserve" text-anchor="middle" x="702.43" y="-661.8" font-family="Times,serif" font-size="14.00">PWB 1.2</text>
</g>
<!-- PWB 1.0&#45;&gt;PWB 1.2 -->
<g id="edge36" class="edge">
<title>PWB 1.0&#45;&gt;PWB 1.2</title>
<path fill="none" stroke="black" d="M702.43,-719.7C702.43,-712.41 702.43,-703.73 702.43,-695.54"/>
<polygon fill="black" stroke="black" points="705.93,-695.62 702.43,-685.62 698.93,-695.62 705.93,-695.62"/>
</g>
<!-- USG 1.0 -->
<g id="node34" class="node">
<title>USG 1.0</title>
<ellipse fill="#b2dfee" stroke="#b2dfee" cx="811.43" cy="-666" rx="44.84" ry="18"/>
<text xml:space="preserve" text-anchor="middle" x="811.43" y="-661.8" font-family="Times,serif" font-size="14.00">USG 1.0</text>
</g>
<!-- PWB 1.0&#45;&gt;USG 1.0 -->
<g id="edge37" class="edge">
<title>PWB 1.0&#45;&gt;USG 1.0</title>
<path fill="none" stroke="black" d="M725.81,-721.98C741.29,-712.04 761.8,-698.87 778.87,-687.91"/>
<polygon fill="black" stroke="black" points="780.66,-690.92 787.18,-682.57 776.88,-685.03 780.66,-690.92"/>
</g>
<!-- 2 BSD -->
<g id="node20" class="node">
<title>2 BSD</title>
<ellipse fill="#b2dfee" stroke="#b2dfee" cx="80.43" cy="-306" rx="37.06" ry="18"/>
<text xml:space="preserve" text-anchor="middle" x="80.43" y="-301.8" font-family="Times,serif" font-size="14.00">2 BSD</text>
</g>
<!-- 1 BSD&#45;&gt;2 BSD -->
<g id="edge20" class="edge">
<title>1 BSD&#45;&gt;2 BSD</title>
<path fill="none" stroke="black" d="M120.55,-647.83C110.61,-621.44 93.43,-569.14 93.43,-523 93.43,-523 93.43,-523 93.43,-449 93.43,-409.58 88.39,-364.25 84.59,-335.62"/>
<polygon fill="black" stroke="black" points="88.09,-335.37 83.26,-325.94 81.16,-336.32 88.09,-335.37"/>
</g>
<!-- Unix/TS 3.0 -->
<g id="node9" class="node">
<title>Unix/TS 3.0</title>
<ellipse fill="#b2dfee" stroke="#b2dfee" cx="627.43" cy="-450" rx="58.79" ry="18"/>
<text xml:space="preserve" text-anchor="middle" x="627.43" y="-445.8" font-family="Times,serif" font-size="14.00">Unix/TS 3.0</text>
</g>
<!-- Interdata&#45;&gt;Unix/TS 3.0 -->
<g id="edge8" class="edge">
<title>Interdata&#45;&gt;Unix/TS 3.0</title>
<path fill="none" stroke="black" d="M282.28,-650.63C346.03,-613.75 515.65,-515.65 590.76,-472.21"/>
<polygon fill="black" stroke="black" points="592.49,-475.25 599.4,-467.21 588.99,-469.19 592.49,-475.25"/>
</g>
<!-- PWB 2.0 -->
<g id="node10" class="node">
<title>PWB 2.0</title>
<ellipse fill="#b2dfee" stroke="#b2dfee" cx="569.43" cy="-594" rx="46.45" ry="18"/>
<text xml:space="preserve" text-anchor="middle" x="569.43" y="-589.8" font-family="Times,serif" font-size="14.00">PWB 2.0</text>
</g>
<!-- Interdata&#45;&gt;PWB 2.0 -->
<g id="edge9" class="edge">
<title>Interdata&#45;&gt;PWB 2.0</title>
<path fill="none" stroke="black" d="M291.23,-653.65C297.88,-651.61 304.84,-649.63 311.43,-648 398.25,-626.53 422.3,-632.21 509.43,-612 513.69,-611.01 518.11,-609.91 522.53,-608.75"/>
<polygon fill="black" stroke="black" points="523.2,-612.2 531.94,-606.21 521.37,-605.44 523.2,-612.2"/>
</g>
<!-- 7th Edition -->
<g id="node11" class="node">
<title>7th Edition</title>
<ellipse fill="#b2dfee" stroke="#b2dfee" cx="257.43" cy="-594" rx="54.22" ry="18"/>
<text xml:space="preserve" text-anchor="middle" x="257.43" y="-589.8" font-family="Times,serif" font-size="14.00">7th Edition</text>
</g>
<!-- Interdata&#45;&gt;7th Edition -->
<g id="edge10" class="edge">
<title>Interdata&#45;&gt;7th Edition</title>
<path fill="none" stroke="black" d="M257.43,-647.7C257.43,-640.41 257.43,-631.73 257.43,-623.54"/>
<polygon fill="black" stroke="black" points="260.93,-623.62 257.43,-613.62 253.93,-623.62 260.93,-623.62"/>
</g>
<!-- TS 4.0 -->
<g id="node43" class="node">
<title>TS 4.0</title>
<ellipse fill="#b2dfee" stroke="#b2dfee" cx="719.43" cy="-306" rx="36.79" ry="18"/>
<text xml:space="preserve" text-anchor="middle" x="719.43" y="-301.8" font-family="Times,serif" font-size="14.00">TS 4.0</text>
</g>
<!-- Unix/TS 3.0&#45;&gt;TS 4.0 -->
<g id="edge49" class="edge">
<title>Unix/TS 3.0&#45;&gt;TS 4.0</title>
<path fill="none" stroke="black" d="M638.52,-431.87C654.51,-407.19 684.15,-361.45 702.77,-332.71"/>
<polygon fill="black" stroke="black" points="705.53,-334.88 708.03,-324.58 699.66,-331.07 705.53,-334.88"/>
</g>
<!-- PWB 2.0&#45;&gt;Unix/TS 3.0 -->
<g id="edge47" class="edge">
<title>PWB 2.0&#45;&gt;Unix/TS 3.0</title>
<path fill="none" stroke="black" d="M566.6,-575.75C564.35,-557.17 563.09,-527.16 573.43,-504 578.46,-492.73 587.07,-482.59 595.96,-474.27"/>
<polygon fill="black" stroke="black" points="598.07,-477.08 603.31,-467.87 593.47,-471.8 598.07,-477.08"/>
</g>
<!-- 8th Edition -->
<g id="node12" class="node">
<title>8th Edition</title>
<ellipse fill="#b2dfee" stroke="#b2dfee" cx="479.43" cy="-234" rx="54.22" ry="18"/>
<text xml:space="preserve" text-anchor="middle" x="479.43" y="-229.8" font-family="Times,serif" font-size="14.00">8th Edition</text>
</g>
<!-- 7th Edition&#45;&gt;8th Edition -->
<g id="edge11" class="edge">
<title>7th Edition&#45;&gt;8th Edition</title>
<path fill="none" stroke="black" d="M304.54,-584.84C351.86,-575.7 420.27,-559.56 438.43,-540 465.94,-510.35 457.43,-491.45 457.43,-451 457.43,-451 457.43,-451 457.43,-377 457.43,-337.27 465.94,-292.02 472.37,-263.49"/>
<polygon fill="black" stroke="black" points="475.76,-264.36 474.63,-253.83 468.95,-262.77 475.76,-264.36"/>
</g>
<!-- 32V -->
<g id="node13" class="node">
<title>32V</title>
<ellipse fill="#b2dfee" stroke="#b2dfee" cx="401.43" cy="-522" rx="27.67" ry="18"/>
<text xml:space="preserve" text-anchor="middle" x="401.43" y="-517.8" font-family="Times,serif" font-size="14.00">32V</text>
</g>
<!-- 7th Edition&#45;&gt;32V -->
<g id="edge12" class="edge">
<title>7th Edition&#45;&gt;32V</title>
<path fill="none" stroke="black" d="M287.26,-578.5C311.23,-566.84 344.82,-550.52 369.36,-538.59"/>
<polygon fill="black" stroke="black" points="370.78,-541.79 378.24,-534.27 367.72,-535.49 370.78,-541.79"/>
</g>
<!-- V7M -->
<g id="node14" class="node">
<title>V7M</title>
<ellipse fill="#b2dfee" stroke="#b2dfee" cx="31.43" cy="-450" rx="31.43" ry="18"/>
<text xml:space="preserve" text-anchor="middle" x="31.43" y="-445.8" font-family="Times,serif" font-size="14.00">V7M</text>
</g>
<!-- 7th Edition&#45;&gt;V7M -->
<g id="edge13" class="edge">
<title>7th Edition&#45;&gt;V7M</title>
<path fill="none" stroke="black" d="M219.45,-580.74C193.58,-571.51 159.13,-557.47 131.43,-540 101.8,-521.32 72.4,-493.79 53.23,-474.3"/>
<polygon fill="black" stroke="black" points="55.94,-472.07 46.47,-467.32 50.91,-476.94 55.94,-472.07"/>
</g>
<!-- Ultrix&#45;11 -->
<g id="node15" class="node">
<title>Ultrix&#45;11</title>
<ellipse fill="#b2dfee" stroke="#b2dfee" cx="108.43" cy="-162" rx="46.98" ry="18"/>
<text xml:space="preserve" text-anchor="middle" x="108.43" y="-157.8" font-family="Times,serif" font-size="14.00">Ultrix&#45;11</text>
</g>
<!-- 7th Edition&#45;&gt;Ultrix&#45;11 -->
<g id="edge14" class="edge">
<title>7th Edition&#45;&gt;Ultrix&#45;11</title>
<path fill="none" stroke="black" d="M220.53,-580.5C201,-572.03 178.25,-558.9 164.43,-540 140.55,-507.36 145.43,-491.45 145.43,-451 145.43,-451 145.43,-451 145.43,-305 145.43,-264.25 130.98,-218.98 120.14,-190.75"/>
<polygon fill="black" stroke="black" points="123.42,-189.52 116.47,-181.52 116.91,-192.11 123.42,-189.52"/>
</g>
<!-- Xenix -->
<g id="node16" class="node">
<title>Xenix</title>
<ellipse fill="#b2dfee" stroke="#b2dfee" cx="208.43" cy="-522" rx="34.64" ry="18"/>
<text xml:space="preserve" text-anchor="middle" x="208.43" y="-517.8" font-family="Times,serif" font-size="14.00">Xenix</text>
</g>
<!-- 7th Edition&#45;&gt;Xenix -->
<g id="edge15" class="edge">
<title>7th Edition&#45;&gt;Xenix</title>
<path fill="none" stroke="black" d="M245.56,-576.05C239.82,-567.85 232.81,-557.83 226.43,-548.71"/>
<polygon fill="black" stroke="black" points="229.31,-546.73 220.71,-540.55 223.58,-550.75 229.31,-546.73"/>
</g>
<!-- UniPlus+ -->
<g id="node17" class="node">
<title>UniPlus+</title>
<ellipse fill="#b2dfee" stroke="#b2dfee" cx="308.43" cy="-522" rx="47.61" ry="18"/>
<text xml:space="preserve" text-anchor="middle" x="308.43" y="-517.8" font-family="Times,serif" font-size="14.00">UniPlus+</text>
</g>
<!-- 7th Edition&#45;&gt;UniPlus+ -->
<g id="edge16" class="edge">
<title>7th Edition&#45;&gt;UniPlus+</title>
<path fill="none" stroke="black" d="M269.77,-576.05C275.72,-567.89 282.99,-557.91 289.61,-548.82"/>
<polygon fill="black" stroke="black" points="292.24,-551.16 295.3,-541.01 286.58,-547.03 292.24,-551.16"/>
</g>
<!-- 9th Edition -->
<g id="node18" class="node">
<title>9th Edition</title>
<ellipse fill="#b2dfee" stroke="#b2dfee" cx="554.43" cy="-162" rx="54.22" ry="18"/>
<text xml:space="preserve" text-anchor="middle" x="554.43" y="-157.8" font-family="Times,serif" font-size="14.00">9th Edition</text>
</g>
<!-- 8th Edition&#45;&gt;9th Edition -->
<g id="edge18" class="edge">
<title>8th Edition&#45;&gt;9th Edition</title>
<path fill="none" stroke="black" d="M496.82,-216.76C506.22,-207.99 518.01,-196.99 528.47,-187.22"/>
<polygon fill="black" stroke="black" points="530.84,-189.8 535.76,-180.42 526.06,-184.69 530.84,-189.8"/>
</g>
<!-- 3 BSD -->
<g id="node23" class="node">
<title>3 BSD</title>
<ellipse fill="#b2dfee" stroke="#b2dfee" cx="377.43" cy="-450" rx="37.06" ry="18"/>
<text xml:space="preserve" text-anchor="middle" x="377.43" y="-445.8" font-family="Times,serif" font-size="14.00">3 BSD</text>
</g>
<!-- 32V&#45;&gt;3 BSD -->
<g id="edge24" class="edge">
<title>32V&#45;&gt;3 BSD</title>
<path fill="none" stroke="black" d="M395.62,-504.05C392.99,-496.4 389.82,-487.16 386.87,-478.56"/>
<polygon fill="black" stroke="black" points="390.23,-477.55 383.67,-469.22 383.61,-479.82 390.23,-477.55"/>
</g>
<!-- V7M&#45;&gt;Ultrix&#45;11 -->
<g id="edge17" class="edge">
<title>V7M&#45;&gt;Ultrix&#45;11</title>
<path fill="none" stroke="black" d="M28.91,-431.66C25.18,-401.69 20.07,-338.56 34.43,-288 45.08,-250.47 69.88,-212.66 87.83,-188.6"/>
<polygon fill="black" stroke="black" points="90.6,-190.75 93.89,-180.68 85.04,-186.5 90.6,-190.75"/>
</g>
<!-- 10th Edition -->
<g id="node19" class="node">
<title>10th Edition</title>
<ellipse fill="#b2dfee" stroke="#b2dfee" cx="555.43" cy="-90" rx="59.05" ry="18"/>
<text xml:space="preserve" text-anchor="middle" x="555.43" y="-85.8" font-family="Times,serif" font-size="14.00">10th Edition</text>
</g>
<!-- 9th Edition&#45;&gt;10th Edition -->
<g id="edge19" class="edge">
<title>9th Edition&#45;&gt;10th Edition</title>
<path fill="none" stroke="black" d="M554.67,-143.7C554.78,-136.41 554.9,-127.73 555.02,-119.54"/>
<polygon fill="black" stroke="black" points="558.52,-119.67 555.16,-109.62 551.52,-119.57 558.52,-119.67"/>
</g>
<!-- 2.8 BSD -->
<g id="node21" class="node">
<title>2.8 BSD</title>
<ellipse fill="#b2dfee" stroke="#b2dfee" cx="217.43" cy="-234" rx="44.31" ry="18"/>
<text xml:space="preserve" text-anchor="middle" x="217.43" y="-229.8" font-family="Times,serif" font-size="14.00">2.8 BSD</text>
</g>
<!-- 2 BSD&#45;&gt;2.8 BSD -->
<g id="edge21" class="edge">
<title>2 BSD&#45;&gt;2.8 BSD</title>
<path fill="none" stroke="black" d="M105.24,-292.32C126.33,-281.55 156.9,-265.92 180.81,-253.71"/>
<polygon fill="black" stroke="black" points="182.27,-256.89 189.58,-249.23 179.09,-250.66 182.27,-256.89"/>
</g>
<!-- 2.8 BSD&#45;&gt;Ultrix&#45;11 -->
<g id="edge22" class="edge">
<title>2.8 BSD&#45;&gt;Ultrix&#45;11</title>
<path fill="none" stroke="black" d="M194.31,-218.15C178.95,-208.29 158.55,-195.19 141.48,-184.23"/>
<polygon fill="black" stroke="black" points="143.46,-181.34 133.16,-178.88 139.68,-187.23 143.46,-181.34"/>
</g>
<!-- 2.9 BSD -->
<g id="node22" class="node">
<title>2.9 BSD</title>
<ellipse fill="#b2dfee" stroke="#b2dfee" cx="217.43" cy="-162" rx="44.31" ry="18"/>
<text xml:space="preserve" text-anchor="middle" x="217.43" y="-157.8" font-family="Times,serif" font-size="14.00">2.9 BSD</text>
</g>
<!-- 2.8 BSD&#45;&gt;2.9 BSD -->
<g id="edge23" class="edge">
<title>2.8 BSD&#45;&gt;2.9 BSD</title>
<path fill="none" stroke="black" d="M217.43,-215.7C217.43,-208.41 217.43,-199.73 217.43,-191.54"/>
<polygon fill="black" stroke="black" points="220.93,-191.62 217.43,-181.62 213.93,-191.62 220.93,-191.62"/>
</g>
<!-- 4 BSD -->
<g id="node24" class="node">
<title>4 BSD</title>
<ellipse fill="#b2dfee" stroke="#b2dfee" cx="370.43" cy="-378" rx="37.06" ry="18"/>
<text xml:space="preserve" text-anchor="middle" x="370.43" y="-373.8" font-family="Times,serif" font-size="14.00">4 BSD</text>
</g>
<!-- 3 BSD&#45;&gt;4 BSD -->
<g id="edge25" class="edge">
<title>3 BSD&#45;&gt;4 BSD</title>
<path fill="none" stroke="black" d="M375.7,-431.7C374.97,-424.41 374.1,-415.73 373.28,-407.54"/>
<polygon fill="black" stroke="black" points="376.76,-407.21 372.29,-397.61 369.8,-407.91 376.76,-407.21"/>
</g>
<!-- 4.1 BSD -->
<g id="node25" class="node">
<title>4.1 BSD</title>
<ellipse fill="#b2dfee" stroke="#b2dfee" cx="366.43" cy="-306" rx="44.31" ry="18"/>
<text xml:space="preserve" text-anchor="middle" x="366.43" y="-301.8" font-family="Times,serif" font-size="14.00">4.1 BSD</text>
</g>
<!-- 4 BSD&#45;&gt;4.1 BSD -->
<g id="edge26" class="edge">
<title>4 BSD&#45;&gt;4.1 BSD</title>
<path fill="none" stroke="black" d="M369.44,-359.7C369.02,-352.41 368.52,-343.73 368.06,-335.54"/>
<polygon fill="black" stroke="black" points="371.55,-335.4 367.49,-325.62 364.57,-335.8 371.55,-335.4"/>
</g>
<!-- 4.1 BSD&#45;&gt;8th Edition -->
<g id="edge29" class="edge">
<title>4.1 BSD&#45;&gt;8th Edition</title>
<path fill="none" stroke="black" d="M390.11,-290.33C406.06,-280.45 427.34,-267.27 445.13,-256.25"/>
<polygon fill="black" stroke="black" points="446.65,-259.42 453.31,-251.18 442.96,-253.47 446.65,-259.42"/>
</g>
<!-- 4.1 BSD&#45;&gt;2.8 BSD -->
<g id="edge28" class="edge">
<title>4.1 BSD&#45;&gt;2.8 BSD</title>
<path fill="none" stroke="black" d="M338.4,-291.83C315.06,-280.87 281.59,-265.14 255.77,-253.01"/>
<polygon fill="black" stroke="black" points="257.49,-249.95 246.95,-248.87 254.51,-256.29 257.49,-249.95"/>
</g>
<!-- 4.2 BSD -->
<g id="node26" class="node">
<title>4.2 BSD</title>
<ellipse fill="#b2dfee" stroke="#b2dfee" cx="362.43" cy="-234" rx="44.31" ry="18"/>
<text xml:space="preserve" text-anchor="middle" x="362.43" y="-229.8" font-family="Times,serif" font-size="14.00">4.2 BSD</text>
</g>
<!-- 4.1 BSD&#45;&gt;4.2 BSD -->
<g id="edge27" class="edge">
<title>4.1 BSD&#45;&gt;4.2 BSD</title>
<path fill="none" stroke="black" d="M365.44,-287.7C365.02,-280.41 364.52,-271.73 364.06,-263.54"/>
<polygon fill="black" stroke="black" points="367.55,-263.4 363.49,-253.62 360.57,-263.8 367.55,-263.4"/>
</g>
<!-- 4.3 BSD -->
<g id="node27" class="node">
<title>4.3 BSD</title>
<ellipse fill="#b2dfee" stroke="#b2dfee" cx="435.43" cy="-162" rx="44.31" ry="18"/>
<text xml:space="preserve" text-anchor="middle" x="435.43" y="-157.8" font-family="Times,serif" font-size="14.00">4.3 BSD</text>
</g>
<!-- 4.2 BSD&#45;&gt;4.3 BSD -->
<g id="edge30" class="edge">
<title>4.2 BSD&#45;&gt;4.3 BSD</title>
<path fill="none" stroke="black" d="M378.99,-217.12C388.26,-208.23 400,-196.97 410.37,-187.03"/>
<polygon fill="black" stroke="black" points="412.79,-189.56 417.58,-180.11 407.94,-184.51 412.79,-189.56"/>
</g>
<!-- Ultrix&#45;32 -->
<g id="node28" class="node">
<title>Ultrix&#45;32</title>
<ellipse fill="#b2dfee" stroke="#b2dfee" cx="326.43" cy="-162" rx="46.98" ry="18"/>
<text xml:space="preserve" text-anchor="middle" x="326.43" y="-157.8" font-family="Times,serif" font-size="14.00">Ultrix&#45;32</text>
</g>
<!-- 4.2 BSD&#45;&gt;Ultrix&#45;32 -->
<g id="edge31" class="edge">
<title>4.2 BSD&#45;&gt;Ultrix&#45;32</title>
<path fill="none" stroke="black" d="M353.71,-216.05C349.69,-208.23 344.81,-198.75 340.3,-189.98"/>
<polygon fill="black" stroke="black" points="343.44,-188.43 335.75,-181.13 337.21,-191.63 343.44,-188.43"/>
</g>
<!-- 4.4 BSD -->
<g id="node29" class="node">
<title>4.4 BSD</title>
<ellipse fill="#b2dfee" stroke="#b2dfee" cx="434.43" cy="-90" rx="44.31" ry="18"/>
<text xml:space="preserve" text-anchor="middle" x="434.43" y="-85.8" font-family="Times,serif" font-size="14.00">4.4 BSD</text>
</g>
<!-- 4.3 BSD&#45;&gt;4.4 BSD -->
<g id="edge32" class="edge">
<title>4.3 BSD&#45;&gt;4.4 BSD</title>
<path fill="none" stroke="black" d="M435.18,-143.7C435.07,-136.41 434.95,-127.73 434.83,-119.54"/>
<polygon fill="black" stroke="black" points="438.33,-119.57 434.69,-109.62 431.33,-119.67 438.33,-119.57"/>
</g>
<!-- FreeBSD -->
<g id="node30" class="node">
<title>FreeBSD</title>
<ellipse fill="#b2dfee" stroke="#b2dfee" cx="325.43" cy="-18" rx="46.98" ry="18"/>
<text xml:space="preserve" text-anchor="middle" x="325.43" y="-13.8" font-family="Times,serif" font-size="14.00">FreeBSD</text>
</g>
<!-- 4.4 BSD&#45;&gt;FreeBSD -->
<g id="edge33" class="edge">
<title>4.4 BSD&#45;&gt;FreeBSD</title>
<path fill="none" stroke="black" d="M411.31,-74.15C395.95,-64.29 375.55,-51.19 358.48,-40.23"/>
<polygon fill="black" stroke="black" points="360.46,-37.34 350.16,-34.88 356.68,-43.23 360.46,-37.34"/>
</g>
<!-- NetBSD -->
<g id="node31" class="node">
<title>NetBSD</title>
<ellipse fill="#b2dfee" stroke="#b2dfee" cx="434.43" cy="-18" rx="43.77" ry="18"/>
<text xml:space="preserve" text-anchor="middle" x="434.43" y="-13.8" font-family="Times,serif" font-size="14.00">NetBSD</text>
</g>
<!-- 4.4 BSD&#45;&gt;NetBSD -->
<g id="edge34" class="edge">
<title>4.4 BSD&#45;&gt;NetBSD</title>
<path fill="none" stroke="black" d="M434.43,-71.7C434.43,-64.41 434.43,-55.73 434.43,-47.54"/>
<polygon fill="black" stroke="black" points="437.93,-47.62 434.43,-37.62 430.93,-47.62 437.93,-47.62"/>
</g>
<!-- OpenBSD -->
<g id="node32" class="node">
<title>OpenBSD</title>
<ellipse fill="#b2dfee" stroke="#b2dfee" cx="547.43" cy="-18" rx="50.74" ry="18"/>
<text xml:space="preserve" text-anchor="middle" x="547.43" y="-13.8" font-family="Times,serif" font-size="14.00">OpenBSD</text>
</g>
<!-- 4.4 BSD&#45;&gt;OpenBSD -->
<g id="edge35" class="edge">
<title>4.4 BSD&#45;&gt;OpenBSD</title>
<path fill="none" stroke="black" d="M458.11,-74.33C474.17,-64.38 495.63,-51.09 513.49,-40.02"/>
<polygon fill="black" stroke="black" points="515.04,-43.18 521.7,-34.94 511.36,-37.23 515.04,-43.18"/>
</g>
<!-- PWB 1.2&#45;&gt;PWB 2.0 -->
<g id="edge38" class="edge">
<title>PWB 1.2&#45;&gt;PWB 2.0</title>
<path fill="none" stroke="black" d="M675.83,-651C655.81,-640.46 628.12,-625.89 606.01,-614.25"/>
<polygon fill="black" stroke="black" points="607.79,-611.24 597.31,-609.68 604.53,-617.43 607.79,-611.24"/>
</g>
<!-- CB Unix 1 -->
<g id="node35" class="node">
<title>CB Unix 1</title>
<ellipse fill="#b2dfee" stroke="#b2dfee" cx="845.43" cy="-594" rx="52.89" ry="18"/>
<text xml:space="preserve" text-anchor="middle" x="845.43" y="-589.8" font-family="Times,serif" font-size="14.00">CB Unix 1</text>
</g>
<!-- USG 1.0&#45;&gt;CB Unix 1 -->
<g id="edge39" class="edge">
<title>USG 1.0&#45;&gt;CB Unix 1</title>
<path fill="none" stroke="black" d="M819.66,-648.05C823.46,-640.23 828.06,-630.75 832.32,-621.98"/>
<polygon fill="black" stroke="black" points="835.39,-623.67 836.61,-613.15 829.09,-620.62 835.39,-623.67"/>
</g>
<!-- USG 2.0 -->
<g id="node36" class="node">
<title>USG 2.0</title>
<ellipse fill="#b2dfee" stroke="#b2dfee" cx="712.43" cy="-594" rx="44.84" ry="18"/>
<text xml:space="preserve" text-anchor="middle" x="712.43" y="-589.8" font-family="Times,serif" font-size="14.00">USG 2.0</text>
</g>
<!-- USG 1.0&#45;&gt;USG 2.0 -->
<g id="edge40" class="edge">
<title>USG 1.0&#45;&gt;USG 2.0</title>
<path fill="none" stroke="black" d="M789.94,-649.81C776.19,-640.09 758.14,-627.32 742.91,-616.56"/>
<polygon fill="black" stroke="black" points="745.29,-613.95 735.1,-611.03 741.25,-619.66 745.29,-613.95"/>
</g>
<!-- CB Unix 2 -->
<g id="node37" class="node">
<title>CB Unix 2</title>
<ellipse fill="#b2dfee" stroke="#b2dfee" cx="879.43" cy="-522" rx="52.89" ry="18"/>
<text xml:space="preserve" text-anchor="middle" x="879.43" y="-517.8" font-family="Times,serif" font-size="14.00">CB Unix 2</text>
</g>
<!-- CB Unix 1&#45;&gt;CB Unix 2 -->
<g id="edge41" class="edge">
<title>CB Unix 1&#45;&gt;CB Unix 2</title>
<path fill="none" stroke="black" d="M853.66,-576.05C857.46,-568.23 862.06,-558.75 866.32,-549.98"/>
<polygon fill="black" stroke="black" points="869.39,-551.67 870.61,-541.15 863.09,-548.62 869.39,-551.67"/>
</g>
<!-- USG 3.0 -->
<g id="node41" class="node">
<title>USG 3.0</title>
<ellipse fill="#b2dfee" stroke="#b2dfee" cx="627.43" cy="-522" rx="44.84" ry="18"/>
<text xml:space="preserve" text-anchor="middle" x="627.43" y="-517.8" font-family="Times,serif" font-size="14.00">USG 3.0</text>
</g>
<!-- USG 2.0&#45;&gt;USG 3.0 -->
<g id="edge45" class="edge">
<title>USG 2.0&#45;&gt;USG 3.0</title>
<path fill="none" stroke="black" d="M693.56,-577.46C682.31,-568.2 667.81,-556.25 655.25,-545.92"/>
<polygon fill="black" stroke="black" points="657.64,-543.35 647.7,-539.7 653.19,-548.75 657.64,-543.35"/>
</g>
<!-- CB Unix 3 -->
<g id="node38" class="node">
<title>CB Unix 3</title>
<ellipse fill="#b2dfee" stroke="#b2dfee" cx="818.43" cy="-450" rx="52.89" ry="18"/>
<text xml:space="preserve" text-anchor="middle" x="818.43" y="-445.8" font-family="Times,serif" font-size="14.00">CB Unix 3</text>
</g>
<!-- CB Unix 2&#45;&gt;CB Unix 3 -->
<g id="edge42" class="edge">
<title>CB Unix 2&#45;&gt;CB Unix 3</title>
<path fill="none" stroke="black" d="M864.97,-504.41C857.6,-495.95 848.48,-485.49 840.28,-476.08"/>
<polygon fill="black" stroke="black" points="842.98,-473.85 833.77,-468.61 837.7,-478.45 842.98,-473.85"/>
</g>
<!-- Unix/TS++ -->
<g id="node39" class="node">
<title>Unix/TS++</title>
<ellipse fill="#b2dfee" stroke="#b2dfee" cx="802.43" cy="-378" rx="55.2" ry="18"/>
<text xml:space="preserve" text-anchor="middle" x="802.43" y="-373.8" font-family="Times,serif" font-size="14.00">Unix/TS++</text>
</g>
<!-- CB Unix 3&#45;&gt;Unix/TS++ -->
<g id="edge43" class="edge">
<title>CB Unix 3&#45;&gt;Unix/TS++</title>
<path fill="none" stroke="black" d="M814.47,-431.7C812.78,-424.32 810.77,-415.52 808.88,-407.25"/>
<polygon fill="black" stroke="black" points="812.31,-406.55 806.67,-397.58 805.49,-408.11 812.31,-406.55"/>
</g>
<!-- PDP&#45;11 Sys V -->
<g id="node40" class="node">
<title>PDP&#45;11 Sys V</title>
<ellipse fill="#b2dfee" stroke="#b2dfee" cx="943.43" cy="-378" rx="67.38" ry="18"/>
<text xml:space="preserve" text-anchor="middle" x="943.43" y="-373.8" font-family="Times,serif" font-size="14.00">PDP&#45;11 Sys V</text>
</g>
<!-- CB Unix 3&#45;&gt;PDP&#45;11 Sys V -->
<g id="edge44" class="edge">
<title>CB Unix 3&#45;&gt;PDP&#45;11 Sys V</title>
<path fill="none" stroke="black" d="M844.93,-434.15C862.51,-424.31 885.85,-411.24 905.39,-400.3"/>
<polygon fill="black" stroke="black" points="906.88,-403.48 913.9,-395.54 903.46,-397.37 906.88,-403.48"/>
</g>
<!-- CB Unix 3&#45;&gt;TS 4.0 -->
<g id="edge51" class="edge">
<title>CB Unix 3&#45;&gt;TS 4.0</title>
<path fill="none" stroke="black" d="M786.63,-435.3C769.81,-426.46 750.24,-413.35 738.43,-396 726.31,-378.22 721.71,-354.17 720.06,-335.56"/>
<polygon fill="black" stroke="black" points="723.56,-335.5 719.44,-325.74 716.57,-335.94 723.56,-335.5"/>
</g>
<!-- Unix/TS++&#45;&gt;TS 4.0 -->
<g id="edge50" class="edge">
<title>Unix/TS++&#45;&gt;TS 4.0</title>
<path fill="none" stroke="black" d="M783.17,-360.76C772.18,-351.5 758.24,-339.73 746.19,-329.58"/>
<polygon fill="black" stroke="black" points="748.49,-326.94 738.59,-323.16 743.98,-332.29 748.49,-326.94"/>
</g>
<!-- USG 3.0&#45;&gt;Unix/TS 3.0 -->
<g id="edge46" class="edge">
<title>USG 3.0&#45;&gt;Unix/TS 3.0</title>
<path fill="none" stroke="black" d="M627.43,-503.7C627.43,-496.41 627.43,-487.73 627.43,-479.54"/>
<polygon fill="black" stroke="black" points="630.93,-479.62 627.43,-469.62 623.93,-479.62 630.93,-479.62"/>
</g>
<!-- Unix/TS 1.0 -->
<g id="node42" class="node">
<title>Unix/TS 1.0</title>
<ellipse fill="#b2dfee" stroke="#b2dfee" cx="749.43" cy="-522" rx="58.79" ry="18"/>
<text xml:space="preserve" text-anchor="middle" x="749.43" y="-517.8" font-family="Times,serif" font-size="14.00">Unix/TS 1.0</text>
</g>
<!-- Unix/TS 1.0&#45;&gt;Unix/TS 3.0 -->
<g id="edge48" class="edge">
<title>Unix/TS 1.0&#45;&gt;Unix/TS 3.0</title>
<path fill="none" stroke="black" d="M722.65,-505.64C705.41,-495.75 682.77,-482.76 663.9,-471.93"/>
<polygon fill="black" stroke="black" points="665.86,-469.02 655.45,-467.08 662.38,-475.09 665.86,-469.02"/>
</g>
<!-- System V.0 -->
<g id="node44" class="node">
<title>System V.0</title>
<ellipse fill="#b2dfee" stroke="#b2dfee" cx="719.43" cy="-234" rx="56.11" ry="18"/>
<text xml:space="preserve" text-anchor="middle" x="719.43" y="-229.8" font-family="Times,serif" font-size="14.00">System V.0</text>
</g>
<!-- TS 4.0&#45;&gt;System V.0 -->
<g id="edge52" class="edge">
<title>TS 4.0&#45;&gt;System V.0</title>
<path fill="none" stroke="black" d="M719.43,-287.7C719.43,-280.41 719.43,-271.73 719.43,-263.54"/>
<polygon fill="black" stroke="black" points="722.93,-263.62 719.43,-253.62 715.93,-263.62 722.93,-263.62"/>
</g>
<!-- System V.2 -->
<g id="node45" class="node">
<title>System V.2</title>
<ellipse fill="#b2dfee" stroke="#b2dfee" cx="719.43" cy="-162" rx="56.11" ry="18"/>
<text xml:space="preserve" text-anchor="middle" x="719.43" y="-157.8" font-family="Times,serif" font-size="14.00">System V.2</text>
</g>
<!-- System V.0&#45;&gt;System V.2 -->
<g id="edge53" class="edge">
<title>System V.0&#45;&gt;System V.2</title>
<path fill="none" stroke="black" d="M719.43,-215.7C719.43,-208.41 719.43,-199.73 719.43,-191.54"/>
<polygon fill="black" stroke="black" points="722.93,-191.62 719.43,-181.62 715.93,-191.62 722.93,-191.62"/>
</g>
<!-- System V.3 -->
<g id="node46" class="node">
<title>System V.3</title>
<ellipse fill="#b2dfee" stroke="#b2dfee" cx="719.43" cy="-90" rx="56.11" ry="18"/>
<text xml:space="preserve" text-anchor="middle" x="719.43" y="-85.8" font-family="Times,serif" font-size="14.00">System V.3</text>
</g>
<!-- System V.2&#45;&gt;System V.3 -->
<g id="edge54" class="edge">
<title>System V.2&#45;&gt;System V.3</title>
<path fill="none" stroke="black" d="M719.43,-143.7C719.43,-136.41 719.43,-127.73 719.43,-119.54"/>
<polygon fill="black" stroke="black" points="722.93,-119.62 719.43,-109.62 715.93,-119.62 722.93,-119.62"/>
</g>
<!-- System V.4 -->
<g id="node47" class="node">
<title>System V.4</title>
<ellipse fill="#b2dfee" stroke="#b2dfee" cx="719.43" cy="-18" rx="56.11" ry="18"/>
<text xml:space="preserve" text-anchor="middle" x="719.43" y="-13.8" font-family="Times,serif" font-size="14.00">System V.4</text>
</g>
<!-- System V.3&#45;&gt;System V.4 -->
<g id="edge55" class="edge">
<title>System V.3&#45;&gt;System V.4</title>
<path fill="none" stroke="black" d="M719.43,-71.7C719.43,-64.41 719.43,-55.73 719.43,-47.54"/>
<polygon fill="black" stroke="black" points="722.93,-47.62 719.43,-37.62 715.93,-47.62 722.93,-47.62"/>
</g>
</g>
</svg>
