<?xml version="1.0" encoding="UTF-8" standalone="no"?>
<!DOCTYPE svg PUBLIC "-//W3C//DTD SVG 1.1//EN"
 "http://www.w3.org/Graphics/SVG/1.1/DTD/svg11.dtd">
<!-- Generated by graphviz version a (a)
 -->
<!-- Title: G Pages: 1 -->
<svg width="1411pt" height="314pt"
 viewBox="0.00 0.00 1411.00 314.00" xmlns="http://www.w3.org/2000/svg" xmlns:xlink="http://www.w3.org/1999/xlink">
<g id="graph0" class="graph" transform="scale(1 1) rotate(0) translate(4 310)">
<title>G</title>
<polygon fill="white" stroke="none" points="-4,4 -4,-310 1407,-310 1407,4 -4,4"/>
<g id="clust1" class="cluster">
<title>cluster_base</title>
<polygon fill="none" stroke="black" points="8,-81 8,-225 340,-225 340,-81 8,-81"/>
<text xml:space="preserve" text-anchor="middle" x="174" y="-208.4" font-family="Times,serif" font-size="14.00">table border:10,cellspacing:0,cellpadding:0,cell border:1</text>
</g>
<g id="clust2" class="cluster">
<title>cluster_table_border</title>
<polygon fill="none" stroke="black" points="348,-36 348,-270 687,-270 687,-36 348,-36"/>
<text xml:space="preserve" text-anchor="middle" x="517.5" y="-253.4" font-family="Times,serif" font-size="14.00">table border:10,cellspacing:2,cellpadding:10,cell border:1</text>
</g>
<g id="clust3" class="cluster">
<title>cluster_cellspacing</title>
<polygon fill="none" stroke="black" points="695,-20 695,-286 1041,-286 1041,-20 695,-20"/>
<text xml:space="preserve" text-anchor="middle" x="868" y="-269.4" font-family="Times,serif" font-size="14.00">table border:10,cellspacing:10,cellpadding:10,cell border:0</text>
</g>
<g id="clust4" class="cluster">
<title>cluster_cellpadding</title>
<polygon fill="none" stroke="black" points="1049,-8 1049,-298 1395,-298 1395,-8 1049,-8"/>
<text xml:space="preserve" text-anchor="middle" x="1222" y="-281.4" font-family="Times,serif" font-size="14.00">table border:10,cellspacing:10,cellpadding:10,cell border:3</text>
</g>
<!-- tbl1100 -->
<g id="node1" class="node">
<title>tbl1100</title>
<polygon fill="none" stroke="black" points="142,-159.4 142,-178.2 158,-178.2 158,-159.4 142,-159.4"/>
<text xml:space="preserve" text-anchor="start" x="143" y="-164.6" font-family="Times,serif" font-size="14.00">00</text>
<polygon fill="none" stroke="black" points="158,-159.4 158,-178.2 174,-178.2 174,-159.4 158,-159.4"/>
<text xml:space="preserve" text-anchor="start" x="159" y="-164.6" font-family="Times,serif" font-size="14.00">01</text>
<polygon fill="none" stroke="black" points="174,-159.4 174,-178.2 190,-178.2 190,-159.4 174,-159.4"/>
<text xml:space="preserve" text-anchor="start" x="175" y="-164.6" font-family="Times,serif" font-size="14.00">02</text>
<polygon fill="none" stroke="black" points="190,-159.4 190,-178.2 206,-178.2 206,-159.4 190,-159.4"/>
<text xml:space="preserve" text-anchor="start" x="191" y="-164.6" font-family="Times,serif" font-size="14.00">03</text>
<polygon fill="none" stroke="black" points="142,-140.6 142,-159.4 158,-159.4 158,-140.6 142,-140.6"/>
<text xml:space="preserve" text-anchor="start" x="143" y="-145.8" font-family="Times,serif" font-size="14.00">10</text>
<polygon fill="none" stroke="black" points="158,-121.8 158,-159.4 174,-159.4 174,-121.8 158,-121.8"/>
<text xml:space="preserve" text-anchor="start" x="159" y="-136.4" font-family="Times,serif" font-size="14.00">11</text>
<polygon fill="none" stroke="black" points="174,-140.6 174,-159.4 190,-159.4 190,-140.6 174,-140.6"/>
<text xml:space="preserve" text-anchor="start" x="175" y="-145.8" font-family="Times,serif" font-size="14.00">12</text>
<polygon fill="none" stroke="black" points="190,-140.6 190,-159.4 206,-159.4 206,-140.6 190,-140.6"/>
<text xml:space="preserve" text-anchor="start" x="191" y="-145.8" font-family="Times,serif" font-size="14.00">13</text>
<polygon fill="none" stroke="black" points="142,-121.8 142,-140.6 158,-140.6 158,-121.8 142,-121.8"/>
<text xml:space="preserve" text-anchor="start" x="143" y="-127" font-family="Times,serif" font-size="14.00">20</text>
<polygon fill="none" stroke="black" points="174,-121.8 174,-140.6 206,-140.6 206,-121.8 174,-121.8"/>
<text xml:space="preserve" text-anchor="start" x="183" y="-127" font-family="Times,serif" font-size="14.00">22</text>
<polygon fill="none" stroke="black" points="142,-103 142,-121.8 158,-121.8 158,-103 142,-103"/>
<text xml:space="preserve" text-anchor="start" x="143" y="-108.2" font-family="Times,serif" font-size="14.00">30</text>
<polygon fill="none" stroke="black" points="158,-103 158,-121.8 174,-121.8 174,-103 158,-103"/>
<text xml:space="preserve" text-anchor="start" x="159" y="-108.2" font-family="Times,serif" font-size="14.00">31</text>
<polygon fill="none" stroke="black" points="174,-103 174,-121.8 190,-121.8 190,-103 174,-103"/>
<text xml:space="preserve" text-anchor="start" x="175" y="-108.2" font-family="Times,serif" font-size="14.00">32</text>
<polygon fill="none" stroke="black" points="190,-103 190,-121.8 206,-121.8 206,-103 190,-103"/>
<text xml:space="preserve" text-anchor="start" x="191" y="-108.2" font-family="Times,serif" font-size="14.00">33</text>
<polygon fill="black" stroke="black" points="158,-159.4 158,-188.2 158,-188.2 158,-159.4 158,-159.4"/>
<polygon fill="black" stroke="black" points="132,-159.4 132,-159.4 158,-159.4 158,-159.4 132,-159.4"/>
<polygon fill="black" stroke="black" points="174,-159.4 174,-188.2 174,-188.2 174,-159.4 174,-159.4"/>
<polygon fill="black" stroke="black" points="158,-159.4 158,-159.4 174,-159.4 174,-159.4 158,-159.4"/>
<polygon fill="black" stroke="black" points="190,-159.4 190,-188.2 190,-188.2 190,-159.4 190,-159.4"/>
<polygon fill="black" stroke="black" points="174,-159.4 174,-159.4 190,-159.4 190,-159.4 174,-159.4"/>
<polygon fill="black" stroke="black" points="190,-159.4 190,-159.4 216,-159.4 216,-159.4 190,-159.4"/>
<polygon fill="black" stroke="black" points="158,-140.6 158,-159.4 158,-159.4 158,-140.6 158,-140.6"/>
<polygon fill="black" stroke="black" points="132,-140.6 132,-140.6 158,-140.6 158,-140.6 132,-140.6"/>
<polygon fill="black" stroke="black" points="174,-121.8 174,-159.4 174,-159.4 174,-121.8 174,-121.8"/>
<polygon fill="black" stroke="black" points="158,-121.8 158,-121.8 174,-121.8 174,-121.8 158,-121.8"/>
<polygon fill="black" stroke="black" points="190,-140.6 190,-159.4 190,-159.4 190,-140.6 190,-140.6"/>
<polygon fill="black" stroke="black" points="174,-140.6 174,-140.6 190,-140.6 190,-140.6 174,-140.6"/>
<polygon fill="black" stroke="black" points="190,-140.6 190,-140.6 216,-140.6 216,-140.6 190,-140.6"/>
<polygon fill="black" stroke="black" points="158,-121.8 158,-140.6 158,-140.6 158,-121.8 158,-121.8"/>
<polygon fill="black" stroke="black" points="132,-121.8 132,-121.8 158,-121.8 158,-121.8 132,-121.8"/>
<polygon fill="black" stroke="black" points="174,-121.8 174,-121.8 216,-121.8 216,-121.8 174,-121.8"/>
<polygon fill="black" stroke="black" points="158,-93 158,-121.8 158,-121.8 158,-93 158,-93"/>
<polygon fill="black" stroke="black" points="174,-93 174,-121.8 174,-121.8 174,-93 174,-93"/>
<polygon fill="black" stroke="black" points="190,-93 190,-121.8 190,-121.8 190,-93 190,-93"/>
<polygon fill="none" stroke="black" stroke-width="10" points="137,-98 137,-183.2 211,-183.2 211,-98 137,-98"/>
</g>
<!-- tbl1010 -->
<g id="node2" class="node">
<title>tbl1010</title>
<polygon fill="none" stroke="black" points="442,-182.4 442,-221.2 478,-221.2 478,-182.4 442,-182.4"/>
<text xml:space="preserve" text-anchor="start" x="453" y="-197.6" font-family="Times,serif" font-size="14.00">00</text>
<polygon fill="none" stroke="black" points="480,-182.4 480,-221.2 516,-221.2 516,-182.4 480,-182.4"/>
<text xml:space="preserve" text-anchor="start" x="491" y="-197.6" font-family="Times,serif" font-size="14.00">01</text>
<polygon fill="none" stroke="black" points="518,-182.4 518,-221.2 554,-221.2 554,-182.4 518,-182.4"/>
<text xml:space="preserve" text-anchor="start" x="529" y="-197.6" font-family="Times,serif" font-size="14.00">02</text>
<polygon fill="none" stroke="black" points="556,-182.4 556,-221.2 592,-221.2 592,-182.4 556,-182.4"/>
<text xml:space="preserve" text-anchor="start" x="567" y="-197.6" font-family="Times,serif" font-size="14.00">03</text>
<polygon fill="none" stroke="black" points="442,-141.6 442,-180.4 478,-180.4 478,-141.6 442,-141.6"/>
<text xml:space="preserve" text-anchor="start" x="453" y="-156.8" font-family="Times,serif" font-size="14.00">10</text>
<polygon fill="none" stroke="black" points="480,-100.8 480,-180.4 516,-180.4 516,-100.8 480,-100.8"/>
<text xml:space="preserve" text-anchor="start" x="491" y="-136.4" font-family="Times,serif" font-size="14.00">11</text>
<polygon fill="none" stroke="black" points="518,-141.6 518,-180.4 554,-180.4 554,-141.6 518,-141.6"/>
<text xml:space="preserve" text-anchor="start" x="529" y="-156.8" font-family="Times,serif" font-size="14.00">12</text>
<polygon fill="none" stroke="black" points="556,-141.6 556,-180.4 592,-180.4 592,-141.6 556,-141.6"/>
<text xml:space="preserve" text-anchor="start" x="567" y="-156.8" font-family="Times,serif" font-size="14.00">13</text>
<polygon fill="none" stroke="black" points="442,-100.8 442,-139.6 478,-139.6 478,-100.8 442,-100.8"/>
<text xml:space="preserve" text-anchor="start" x="453" y="-116" font-family="Times,serif" font-size="14.00">20</text>
<polygon fill="none" stroke="black" points="518,-100.8 518,-139.6 592,-139.6 592,-100.8 518,-100.8"/>
<text xml:space="preserve" text-anchor="start" x="548" y="-116" font-family="Times,serif" font-size="14.00">22</text>
<polygon fill="none" stroke="black" points="442,-60 442,-98.8 478,-98.8 478,-60 442,-60"/>
<text xml:space="preserve" text-anchor="start" x="453" y="-75.2" font-family="Times,serif" font-size="14.00">30</text>
<polygon fill="none" stroke="black" points="480,-60 480,-98.8 516,-98.8 516,-60 480,-60"/>
<text xml:space="preserve" text-anchor="start" x="491" y="-75.2" font-family="Times,serif" font-size="14.00">31</text>
<polygon fill="none" stroke="black" points="518,-60 518,-98.8 554,-98.8 554,-60 518,-60"/>
<text xml:space="preserve" text-anchor="start" x="529" y="-75.2" font-family="Times,serif" font-size="14.00">32</text>
<polygon fill="none" stroke="black" points="556,-60 556,-98.8 592,-98.8 592,-60 556,-60"/>
<text xml:space="preserve" text-anchor="start" x="567" y="-75.2" font-family="Times,serif" font-size="14.00">33</text>
<polygon fill="black" stroke="black" points="479,-181.4 479,-233.2 479,-233.2 479,-181.4 479,-181.4"/>
<polygon fill="black" stroke="black" points="517,-181.4 517,-233.2 517,-233.2 517,-181.4 517,-181.4"/>
<polygon fill="black" stroke="black" points="555,-181.4 555,-233.2 555,-233.2 555,-181.4 555,-181.4"/>
<polygon fill="black" stroke="black" points="479,-140.6 479,-181.4 479,-181.4 479,-140.6 479,-140.6"/>
<polygon fill="black" stroke="black" points="430,-140.6 430,-140.6 479,-140.6 479,-140.6 430,-140.6"/>
<polygon fill="black" stroke="black" points="517,-99.8 517,-181.4 517,-181.4 517,-99.8 517,-99.8"/>
<polygon fill="black" stroke="black" points="555,-140.6 555,-181.4 555,-181.4 555,-140.6 555,-140.6"/>
<polygon fill="black" stroke="black" points="517,-140.6 517,-140.6 555,-140.6 555,-140.6 517,-140.6"/>
<polygon fill="black" stroke="black" points="555,-140.6 555,-140.6 604,-140.6 604,-140.6 555,-140.6"/>
<polygon fill="black" stroke="black" points="479,-99.8 479,-140.6 479,-140.6 479,-99.8 479,-99.8"/>
<polygon fill="black" stroke="black" points="479,-48 479,-99.8 479,-99.8 479,-48 479,-48"/>
<polygon fill="black" stroke="black" points="517,-48 517,-99.8 517,-99.8 517,-48 517,-48"/>
<polygon fill="black" stroke="black" points="555,-48 555,-99.8 555,-99.8 555,-48 555,-48"/>
<polygon fill="none" stroke="black" stroke-width="10" points="435,-53 435,-228.2 599,-228.2 599,-53 435,-53"/>
</g>
<!-- tbl1110 -->
<g id="node3" class="node">
<title>tbl1110</title>
<text xml:space="preserve" text-anchor="start" x="795" y="-206.6" font-family="Times,serif" font-size="14.00">00</text>
<text xml:space="preserve" text-anchor="start" x="839" y="-206.6" font-family="Times,serif" font-size="14.00">01</text>
<text xml:space="preserve" text-anchor="start" x="883" y="-206.6" font-family="Times,serif" font-size="14.00">02</text>
<text xml:space="preserve" text-anchor="start" x="927" y="-206.6" font-family="Times,serif" font-size="14.00">03</text>
<text xml:space="preserve" text-anchor="start" x="795" y="-159.8" font-family="Times,serif" font-size="14.00">10</text>
<text xml:space="preserve" text-anchor="start" x="839" y="-136.4" font-family="Times,serif" font-size="14.00">11</text>
<text xml:space="preserve" text-anchor="start" x="883" y="-159.8" font-family="Times,serif" font-size="14.00">12</text>
<text xml:space="preserve" text-anchor="start" x="927" y="-159.8" font-family="Times,serif" font-size="14.00">13</text>
<text xml:space="preserve" text-anchor="start" x="795" y="-113" font-family="Times,serif" font-size="14.00">20</text>
<text xml:space="preserve" text-anchor="start" x="905" y="-113" font-family="Times,serif" font-size="14.00">22</text>
<text xml:space="preserve" text-anchor="start" x="795" y="-66.2" font-family="Times,serif" font-size="14.00">30</text>
<text xml:space="preserve" text-anchor="start" x="839" y="-66.2" font-family="Times,serif" font-size="14.00">31</text>
<text xml:space="preserve" text-anchor="start" x="883" y="-66.2" font-family="Times,serif" font-size="14.00">32</text>
<text xml:space="preserve" text-anchor="start" x="927" y="-66.2" font-family="Times,serif" font-size="14.00">33</text>
<polygon fill="black" stroke="black" points="824,-187.4 824,-249.2 824,-249.2 824,-187.4 824,-187.4"/>
<polygon fill="black" stroke="black" points="765,-187.4 765,-187.4 824,-187.4 824,-187.4 765,-187.4"/>
<polygon fill="black" stroke="black" points="824,-187.4 824,-187.4 868,-187.4 868,-187.4 824,-187.4"/>
<polygon fill="black" stroke="black" points="868,-187.4 868,-187.4 912,-187.4 912,-187.4 868,-187.4"/>
<polygon fill="black" stroke="black" points="912,-187.4 912,-187.4 971,-187.4 971,-187.4 912,-187.4"/>
<polygon fill="black" stroke="black" points="765,-140.6 765,-140.6 824,-140.6 824,-140.6 765,-140.6"/>
<polygon fill="black" stroke="black" points="868,-93.8 868,-187.4 868,-187.4 868,-93.8 868,-93.8"/>
<polygon fill="black" stroke="black" points="824,-93.8 824,-93.8 868,-93.8 868,-93.8 824,-93.8"/>
<polygon fill="black" stroke="black" points="868,-140.6 868,-140.6 912,-140.6 912,-140.6 868,-140.6"/>
<polygon fill="black" stroke="black" points="912,-140.6 912,-140.6 971,-140.6 971,-140.6 912,-140.6"/>
<polygon fill="black" stroke="black" points="765,-93.8 765,-93.8 824,-93.8 824,-93.8 765,-93.8"/>
<polygon fill="black" stroke="black" points="868,-93.8 868,-93.8 971,-93.8 971,-93.8 868,-93.8"/>
<polygon fill="black" stroke="black" points="912,-32 912,-93.8 912,-93.8 912,-32 912,-32"/>
<polygon fill="none" stroke="black" stroke-width="10" points="770,-37 770,-244.2 966,-244.2 966,-37 770,-37"/>
</g>
<!-- tbl1111 -->
<g id="node4" class="node">
<title>tbl1111</title>
<polygon fill="none" stroke="black" stroke-width="3" points="1128.5,-199.9 1128.5,-239.7 1165.5,-239.7 1165.5,-199.9 1128.5,-199.9"/>
<text xml:space="preserve" text-anchor="start" x="1140" y="-215.6" font-family="Times,serif" font-size="14.00">00</text>
<polygon fill="none" stroke="black" stroke-width="3" points="1178.5,-199.9 1178.5,-239.7 1215.5,-239.7 1215.5,-199.9 1178.5,-199.9"/>
<text xml:space="preserve" text-anchor="start" x="1190" y="-215.6" font-family="Times,serif" font-size="14.00">01</text>
<polygon fill="none" stroke="black" stroke-width="3" points="1228.5,-199.9 1228.5,-239.7 1265.5,-239.7 1265.5,-199.9 1228.5,-199.9"/>
<text xml:space="preserve" text-anchor="start" x="1240" y="-215.6" font-family="Times,serif" font-size="14.00">02</text>
<polygon fill="none" stroke="black" stroke-width="3" points="1278.5,-199.9 1278.5,-239.7 1315.5,-239.7 1315.5,-199.9 1278.5,-199.9"/>
<text xml:space="preserve" text-anchor="start" x="1290" y="-215.6" font-family="Times,serif" font-size="14.00">03</text>
<polygon fill="none" stroke="black" stroke-width="3" points="1128.5,-147.1 1128.5,-186.9 1165.5,-186.9 1165.5,-147.1 1128.5,-147.1"/>
<text xml:space="preserve" text-anchor="start" x="1140" y="-162.8" font-family="Times,serif" font-size="14.00">10</text>
<polygon fill="none" stroke="black" stroke-width="3" points="1178.5,-94.3 1178.5,-186.9 1215.5,-186.9 1215.5,-94.3 1178.5,-94.3"/>
<text xml:space="preserve" text-anchor="start" x="1190" y="-136.4" font-family="Times,serif" font-size="14.00">11</text>
<polygon fill="none" stroke="black" stroke-width="3" points="1228.5,-147.1 1228.5,-186.9 1265.5,-186.9 1265.5,-147.1 1228.5,-147.1"/>
<text xml:space="preserve" text-anchor="start" x="1240" y="-162.8" font-family="Times,serif" font-size="14.00">12</text>
<polygon fill="none" stroke="black" stroke-width="3" points="1278.5,-147.1 1278.5,-186.9 1315.5,-186.9 1315.5,-147.1 1278.5,-147.1"/>
<text xml:space="preserve" text-anchor="start" x="1290" y="-162.8" font-family="Times,serif" font-size="14.00">13</text>
<polygon fill="none" stroke="black" stroke-width="3" points="1128.5,-94.3 1128.5,-134.1 1165.5,-134.1 1165.5,-94.3 1128.5,-94.3"/>
<text xml:space="preserve" text-anchor="start" x="1140" y="-110" font-family="Times,serif" font-size="14.00">20</text>
<polygon fill="none" stroke="black" stroke-width="3" points="1228.5,-94.3 1228.5,-134.1 1315.5,-134.1 1315.5,-94.3 1228.5,-94.3"/>
<text xml:space="preserve" text-anchor="start" x="1265" y="-110" font-family="Times,serif" font-size="14.00">22</text>
<polygon fill="none" stroke="black" stroke-width="3" points="1128.5,-41.5 1128.5,-81.3 1165.5,-81.3 1165.5,-41.5 1128.5,-41.5"/>
<text xml:space="preserve" text-anchor="start" x="1140" y="-57.2" font-family="Times,serif" font-size="14.00">30</text>
<polygon fill="none" stroke="black" stroke-width="3" points="1178.5,-41.5 1178.5,-81.3 1215.5,-81.3 1215.5,-41.5 1178.5,-41.5"/>
<text xml:space="preserve" text-anchor="start" x="1190" y="-57.2" font-family="Times,serif" font-size="14.00">31</text>
<polygon fill="none" stroke="black" stroke-width="3" points="1228.5,-41.5 1228.5,-81.3 1265.5,-81.3 1265.5,-41.5 1228.5,-41.5"/>
<text xml:space="preserve" text-anchor="start" x="1240" y="-57.2" font-family="Times,serif" font-size="14.00">32</text>
<polygon fill="none" stroke="black" stroke-width="3" points="1278.5,-41.5 1278.5,-81.3 1315.5,-81.3 1315.5,-41.5 1278.5,-41.5"/>
<text xml:space="preserve" text-anchor="start" x="1290" y="-57.2" font-family="Times,serif" font-size="14.00">33</text>
<polygon fill="black" stroke="black" points="1172,-193.4 1172,-261.2 1172,-261.2 1172,-193.4 1172,-193.4"/>
<polygon fill="black" stroke="black" points="1107,-193.4 1107,-193.4 1172,-193.4 1172,-193.4 1107,-193.4"/>
<polygon fill="black" stroke="black" points="1172,-193.4 1172,-193.4 1222,-193.4 1222,-193.4 1172,-193.4"/>
<polygon fill="black" stroke="black" points="1222,-193.4 1222,-193.4 1272,-193.4 1272,-193.4 1222,-193.4"/>
<polygon fill="black" stroke="black" points="1272,-193.4 1272,-193.4 1337,-193.4 1337,-193.4 1272,-193.4"/>
<polygon fill="black" stroke="black" points="1107,-140.6 1107,-140.6 1172,-140.6 1172,-140.6 1107,-140.6"/>
<polygon fill="black" stroke="black" points="1222,-87.8 1222,-193.4 1222,-193.4 1222,-87.8 1222,-87.8"/>
<polygon fill="black" stroke="black" points="1172,-87.8 1172,-87.8 1222,-87.8 1222,-87.8 1172,-87.8"/>
<polygon fill="black" stroke="black" points="1222,-140.6 1222,-140.6 1272,-140.6 1272,-140.6 1222,-140.6"/>
<polygon fill="black" stroke="black" points="1272,-140.6 1272,-140.6 1337,-140.6 1337,-140.6 1272,-140.6"/>
<polygon fill="black" stroke="black" points="1107,-87.8 1107,-87.8 1172,-87.8 1172,-87.8 1107,-87.8"/>
<polygon fill="black" stroke="black" points="1222,-87.8 1222,-87.8 1337,-87.8 1337,-87.8 1222,-87.8"/>
<polygon fill="black" stroke="black" points="1272,-20 1272,-87.8 1272,-87.8 1272,-20 1272,-20"/>
<polygon fill="none" stroke="black" stroke-width="10" points="1112,-25 1112,-256.2 1332,-256.2 1332,-25 1112,-25"/>
</g>
</g>
</svg>
