<?xml version="1.0" encoding="UTF-8" standalone="no"?>
<!DOCTYPE svg PUBLIC "-//W3C//DTD SVG 1.1//EN"
 "http://www.w3.org/Graphics/SVG/1.1/DTD/svg11.dtd">
<!-- Generated by graphviz version a (a)
 -->
<!-- Title: G Pages: 1 -->
<svg width="147pt" height="1509pt"
 viewBox="0.00 0.00 147.00 1509.00" xmlns="http://www.w3.org/2000/svg" xmlns:xlink="http://www.w3.org/1999/xlink">
<g id="graph0" class="graph" transform="scale(1 1) rotate(0) translate(4 1505.1)">
<title>G</title>
<polygon fill="white" stroke="none" points="-4,4 -4,-1505.1 143.03,-1505.1 143.03,4 -4,4"/>
<text xml:space="preserve" text-anchor="middle" x="69.51" y="-8.2" font-family="Times,serif" font-size="14.00">SelfTop</text>
<!-- node13 -->
<g id="node1" class="node">
<title>node13</title>
<polygon fill="none" stroke="black" points="98.12,-1447.8 40.91,-1447.8 40.91,-1411.8 98.12,-1411.8 98.12,-1447.8"/>
<text xml:space="preserve" text-anchor="middle" x="69.51" y="-1425.6" font-family="Times,serif" font-size="14.00">node13</text>
</g>
<!-- node13&#45;&gt;node13 -->
<g id="edge1" class="edge">
<title>node13:nw&#45;&gt;node13:ne</title>
<path fill="none" stroke="black" d="M40.91,-1447.8C36.41,-1453.88 36.41,-1466.05 69.51,-1466.05 86.07,-1466.05 94.34,-1463.01 97.92,-1459.21"/>
<polygon fill="black" stroke="black" points="101.42,-1459.37 98.09,-1449.31 94.42,-1459.25 101.42,-1459.37"/>
<text xml:space="preserve" text-anchor="middle" x="69.51" y="-1470.25" font-family="Times,serif" font-size="14.00">tailport=nw headport=ne</text>
</g>
<!-- node13&#45;&gt;node13 -->
<g id="edge2" class="edge">
<title>node13:nw&#45;&gt;node13:ne</title>
<path fill="none" stroke="black" d="M40.91,-1447.8C31.91,-1459.97 31.91,-1484.3 69.51,-1484.3 98.01,-1484.3 104.92,-1470.33 102.67,-1458.26"/>
<polygon fill="black" stroke="black" points="105.92,-1456.96 98.73,-1449.19 99.5,-1459.75 105.92,-1456.96"/>
<text xml:space="preserve" text-anchor="middle" x="69.51" y="-1488.5" font-family="Times,serif" font-size="14.00">tailport=nw headport=ne</text>
</g>
<!-- node14 -->
<g id="node2" class="node">
<title>node14</title>
<polygon fill="none" stroke="black" points="98.12,-1374.8 40.91,-1374.8 40.91,-1338.8 98.12,-1338.8 98.12,-1374.8"/>
<text xml:space="preserve" text-anchor="middle" x="69.51" y="-1352.6" font-family="Times,serif" font-size="14.00">node14</text>
</g>
<!-- node13&#45;&gt;node14 -->
<g id="edge3" class="edge">
<title>node13&#45;&gt;node14</title>
<path fill="none" stroke="black" d="M69.51,-1411.61C69.51,-1404.03 69.51,-1394.9 69.51,-1386.34"/>
<polygon fill="black" stroke="black" points="73.01,-1386.34 69.51,-1376.34 66.01,-1386.34 73.01,-1386.34"/>
</g>
<!-- node14&#45;&gt;node14 -->
<g id="edge4" class="edge">
<title>node14:nw&#45;&gt;node14:e</title>
<path fill="none" stroke="black" d="M40.91,-1374.8C36.41,-1380.88 36.41,-1393.05 69.51,-1393.05 94.09,-1393.05 100.42,-1379.74 100.21,-1367.93"/>
<polygon fill="black" stroke="black" points="103.69,-1367.47 98.4,-1358.29 96.81,-1368.76 103.69,-1367.47"/>
<text xml:space="preserve" text-anchor="middle" x="69.51" y="-1397.25" font-family="Times,serif" font-size="14.00">tailport=nw headport=e</text>
</g>
<!-- node14&#45;&gt;node14 -->
<g id="edge5" class="edge">
<title>node14:nw&#45;&gt;node14:e</title>
<path fill="none" stroke="black" d="M40.91,-1374.8C31.91,-1386.97 31.91,-1411.3 69.51,-1411.3 100.66,-1411.3 106.01,-1386.38 101.82,-1367.5"/>
<polygon fill="black" stroke="black" points="105.19,-1366.54 98.62,-1358.23 98.57,-1368.83 105.19,-1366.54"/>
<text xml:space="preserve" text-anchor="middle" x="69.51" y="-1415.5" font-family="Times,serif" font-size="14.00">tailport=nw headport=e</text>
</g>
<!-- node15 -->
<g id="node3" class="node">
<title>node15</title>
<polygon fill="none" stroke="black" points="98.12,-1301.8 40.91,-1301.8 40.91,-1265.8 98.12,-1265.8 98.12,-1301.8"/>
<text xml:space="preserve" text-anchor="middle" x="69.51" y="-1279.6" font-family="Times,serif" font-size="14.00">node15</text>
</g>
<!-- node14&#45;&gt;node15 -->
<g id="edge6" class="edge">
<title>node14&#45;&gt;node15</title>
<path fill="none" stroke="black" d="M69.51,-1338.61C69.51,-1331.03 69.51,-1321.9 69.51,-1313.34"/>
<polygon fill="black" stroke="black" points="73.01,-1313.34 69.51,-1303.34 66.01,-1313.34 73.01,-1313.34"/>
</g>
<!-- node15&#45;&gt;node15 -->
<g id="edge7" class="edge">
<title>node15:nw&#45;&gt;node15:se</title>
<path fill="none" stroke="black" d="M40.91,-1301.8C31.91,-1307.88 31.91,-1320.05 69.51,-1320.05 99.48,-1320.05 105.57,-1293.27 102.25,-1276.28"/>
<polygon fill="black" stroke="black" points="105.6,-1275.23 98.68,-1267.21 99.09,-1277.8 105.6,-1275.23"/>
<text xml:space="preserve" text-anchor="middle" x="69.51" y="-1324.25" font-family="Times,serif" font-size="14.00">tailport=nw headport=se</text>
</g>
<!-- node15&#45;&gt;node15 -->
<g id="edge8" class="edge">
<title>node15:nw&#45;&gt;node15:se</title>
<path fill="none" stroke="black" d="M40.91,-1301.8C27.41,-1313.97 27.41,-1338.3 69.51,-1338.3 105.37,-1338.3 110.69,-1298.9 103.15,-1275.98"/>
<polygon fill="black" stroke="black" points="106.36,-1274.58 98.79,-1267.16 100.08,-1277.67 106.36,-1274.58"/>
<text xml:space="preserve" text-anchor="middle" x="69.51" y="-1342.5" font-family="Times,serif" font-size="14.00">tailport=nw headport=se</text>
</g>
<!-- node22 -->
<g id="node4" class="node">
<title>node22</title>
<polygon fill="none" stroke="black" points="98.12,-1228.8 40.91,-1228.8 40.91,-1192.8 98.12,-1192.8 98.12,-1228.8"/>
<text xml:space="preserve" text-anchor="middle" x="69.51" y="-1206.6" font-family="Times,serif" font-size="14.00">node22</text>
</g>
<!-- node15&#45;&gt;node22 -->
<g id="edge9" class="edge">
<title>node15&#45;&gt;node22</title>
<path fill="none" stroke="black" d="M69.51,-1265.61C69.51,-1258.03 69.51,-1248.9 69.51,-1240.34"/>
<polygon fill="black" stroke="black" points="73.01,-1240.34 69.51,-1230.34 66.01,-1240.34 73.01,-1240.34"/>
</g>
<!-- node22&#45;&gt;node22 -->
<g id="edge10" class="edge">
<title>node22:n&#45;&gt;node22:n</title>
<path fill="none" stroke="black" d="M69.51,-1228.8C74.01,-1234.88 74.01,-1247.05 69.51,-1247.05 67.12,-1247.05 66,-1243.62 66.15,-1239.49"/>
<polygon fill="black" stroke="black" points="69.4,-1240.83 69.06,-1230.24 62.72,-1238.73 69.4,-1240.83"/>
<text xml:space="preserve" text-anchor="middle" x="69.51" y="-1251.25" font-family="Times,serif" font-size="14.00">tailport=n headport=n</text>
</g>
<!-- node22&#45;&gt;node22 -->
<g id="edge11" class="edge">
<title>node22:n&#45;&gt;node22:n</title>
<path fill="none" stroke="black" d="M69.51,-1228.8C78.51,-1240.97 78.51,-1265.3 69.51,-1265.3 62.62,-1265.3 61.01,-1251.04 64.67,-1238.89"/>
<polygon fill="black" stroke="black" points="67.69,-1240.69 68.86,-1230.16 61.38,-1237.66 67.69,-1240.69"/>
<text xml:space="preserve" text-anchor="middle" x="69.51" y="-1269.5" font-family="Times,serif" font-size="14.00">tailport=n headport=n</text>
</g>
<!-- node31 -->
<g id="node5" class="node">
<title>node31</title>
<polygon fill="none" stroke="black" points="98.12,-1155.8 40.91,-1155.8 40.91,-1119.8 98.12,-1119.8 98.12,-1155.8"/>
<text xml:space="preserve" text-anchor="middle" x="69.51" y="-1133.6" font-family="Times,serif" font-size="14.00">node31</text>
</g>
<!-- node22&#45;&gt;node31 -->
<g id="edge12" class="edge">
<title>node22&#45;&gt;node31</title>
<path fill="none" stroke="black" d="M69.51,-1192.61C69.51,-1185.03 69.51,-1175.9 69.51,-1167.34"/>
<polygon fill="black" stroke="black" points="73.01,-1167.34 69.51,-1157.34 66.01,-1167.34 73.01,-1167.34"/>
</g>
<!-- node31&#45;&gt;node31 -->
<g id="edge13" class="edge">
<title>node31:ne&#45;&gt;node31:nw</title>
<path fill="none" stroke="black" d="M98.12,-1155.8C102.62,-1161.88 102.62,-1174.05 69.51,-1174.05 52.96,-1174.05 44.68,-1171.01 41.11,-1167.21"/>
<polygon fill="black" stroke="black" points="44.61,-1167.25 40.93,-1157.31 37.61,-1167.37 44.61,-1167.25"/>
<text xml:space="preserve" text-anchor="middle" x="69.51" y="-1178.25" font-family="Times,serif" font-size="14.00">tailport=ne headport=nw</text>
</g>
<!-- node31&#45;&gt;node31 -->
<g id="edge14" class="edge">
<title>node31:ne&#45;&gt;node31:nw</title>
<path fill="none" stroke="black" d="M98.12,-1155.8C107.12,-1167.97 107.12,-1192.3 69.51,-1192.3 41.02,-1192.3 34.11,-1178.33 36.36,-1166.26"/>
<polygon fill="black" stroke="black" points="39.53,-1167.75 40.3,-1157.19 33.11,-1164.96 39.53,-1167.75"/>
<text xml:space="preserve" text-anchor="middle" x="69.51" y="-1196.5" font-family="Times,serif" font-size="14.00">tailport=ne headport=nw</text>
</g>
<!-- node33 -->
<g id="node6" class="node">
<title>node33</title>
<polygon fill="none" stroke="black" points="98.12,-1082.8 40.91,-1082.8 40.91,-1046.8 98.12,-1046.8 98.12,-1082.8"/>
<text xml:space="preserve" text-anchor="middle" x="69.51" y="-1060.6" font-family="Times,serif" font-size="14.00">node33</text>
</g>
<!-- node31&#45;&gt;node33 -->
<g id="edge15" class="edge">
<title>node31&#45;&gt;node33</title>
<path fill="none" stroke="black" d="M69.51,-1119.61C69.51,-1112.03 69.51,-1102.9 69.51,-1094.34"/>
<polygon fill="black" stroke="black" points="73.01,-1094.34 69.51,-1084.34 66.01,-1094.34 73.01,-1094.34"/>
</g>
<!-- node33&#45;&gt;node33 -->
<g id="edge16" class="edge">
<title>node33:ne&#45;&gt;node33:ne</title>
<path fill="none" stroke="black" d="M98.12,-1082.8C102.62,-1088.88 102.62,-1101.05 98.12,-1101.05 95.73,-1101.05 94.61,-1097.62 94.76,-1093.49"/>
<polygon fill="black" stroke="black" points="98,-1094.83 97.67,-1084.24 91.33,-1092.73 98,-1094.83"/>
<text xml:space="preserve" text-anchor="middle" x="69.51" y="-1105.25" font-family="Times,serif" font-size="14.00">tailport=ne headport=ne</text>
</g>
<!-- node33&#45;&gt;node33 -->
<g id="edge17" class="edge">
<title>node33:ne&#45;&gt;node33:ne</title>
<path fill="none" stroke="black" d="M98.12,-1082.8C107.12,-1094.97 107.12,-1119.3 98.12,-1119.3 91.23,-1119.3 89.62,-1105.04 93.28,-1092.89"/>
<polygon fill="black" stroke="black" points="96.29,-1094.69 97.47,-1084.16 89.98,-1091.66 96.29,-1094.69"/>
<text xml:space="preserve" text-anchor="middle" x="69.51" y="-1123.5" font-family="Times,serif" font-size="14.00">tailport=ne headport=ne</text>
</g>
<!-- node37 -->
<g id="node7" class="node">
<title>node37</title>
<polygon fill="none" stroke="black" points="98.12,-1009.8 40.91,-1009.8 40.91,-973.8 98.12,-973.8 98.12,-1009.8"/>
<text xml:space="preserve" text-anchor="middle" x="69.51" y="-987.6" font-family="Times,serif" font-size="14.00">node37</text>
</g>
<!-- node33&#45;&gt;node37 -->
<g id="edge18" class="edge">
<title>node33&#45;&gt;node37</title>
<path fill="none" stroke="black" d="M69.51,-1046.61C69.51,-1039.03 69.51,-1029.9 69.51,-1021.34"/>
<polygon fill="black" stroke="black" points="73.01,-1021.34 69.51,-1011.34 66.01,-1021.34 73.01,-1021.34"/>
</g>
<!-- node37&#45;&gt;node37 -->
<g id="edge19" class="edge">
<title>node37:ne&#45;&gt;node37:sw</title>
<path fill="none" stroke="black" d="M98.12,-1009.8C140.76,-1015.88 140.76,-1028.05 69.51,-1028.05 4.67,-1028.05 -1.16,-993.12 30.47,-977.73"/>
<polygon fill="black" stroke="black" points="31.37,-981.13 39.49,-974.33 28.9,-974.58 31.37,-981.13"/>
<text xml:space="preserve" text-anchor="middle" x="69.51" y="-1032.25" font-family="Times,serif" font-size="14.00">tailport=ne headport=sw</text>
</g>
<!-- node37&#45;&gt;node37 -->
<g id="edge20" class="edge">
<title>node37:ne&#45;&gt;node37:sw</title>
<path fill="none" stroke="black" d="M98.12,-1009.8C145.26,-1021.97 145.26,-1046.3 69.51,-1046.3 -0.32,-1046.3 -5.77,-1000.12 30.74,-978.68"/>
<polygon fill="black" stroke="black" points="32.04,-981.93 39.54,-974.45 29.01,-975.62 32.04,-981.93"/>
<text xml:space="preserve" text-anchor="middle" x="69.51" y="-1050.5" font-family="Times,serif" font-size="14.00">tailport=ne headport=sw</text>
</g>
<!-- node38 -->
<g id="node8" class="node">
<title>node38</title>
<polygon fill="none" stroke="black" points="98.12,-936.8 40.91,-936.8 40.91,-900.8 98.12,-900.8 98.12,-936.8"/>
<text xml:space="preserve" text-anchor="middle" x="69.51" y="-914.6" font-family="Times,serif" font-size="14.00">node38</text>
</g>
<!-- node37&#45;&gt;node38 -->
<g id="edge21" class="edge">
<title>node37&#45;&gt;node38</title>
<path fill="none" stroke="black" d="M69.51,-973.61C69.51,-966.03 69.51,-956.9 69.51,-948.34"/>
<polygon fill="black" stroke="black" points="73.01,-948.34 69.51,-938.34 66.01,-948.34 73.01,-948.34"/>
</g>
<!-- node38&#45;&gt;node38 -->
<g id="edge22" class="edge">
<title>node38:ne&#45;&gt;node38:w</title>
<path fill="none" stroke="black" d="M98.12,-936.8C107.12,-942.88 107.12,-955.05 69.51,-955.05 41.02,-955.05 34.11,-941.17 36.36,-929.19"/>
<polygon fill="black" stroke="black" points="39.5,-930.75 40.3,-920.19 33.08,-927.94 39.5,-930.75"/>
<text xml:space="preserve" text-anchor="middle" x="69.51" y="-959.25" font-family="Times,serif" font-size="14.00">tailport=ne headport=w</text>
</g>
<!-- node38&#45;&gt;node38 -->
<g id="edge23" class="edge">
<title>node38:ne&#45;&gt;node38:w</title>
<path fill="none" stroke="black" d="M98.12,-936.8C111.62,-948.97 111.62,-973.3 69.51,-973.3 34.15,-973.3 28.49,-947.67 35.58,-928.7"/>
<polygon fill="black" stroke="black" points="38.53,-930.6 40.19,-920.13 32.37,-927.28 38.53,-930.6"/>
<text xml:space="preserve" text-anchor="middle" x="69.51" y="-977.5" font-family="Times,serif" font-size="14.00">tailport=ne headport=w</text>
</g>
<!-- node41 -->
<g id="node9" class="node">
<title>node41</title>
<polygon fill="none" stroke="black" points="98.12,-863.8 40.91,-863.8 40.91,-827.8 98.12,-827.8 98.12,-863.8"/>
<text xml:space="preserve" text-anchor="middle" x="69.51" y="-841.6" font-family="Times,serif" font-size="14.00">node41</text>
</g>
<!-- node38&#45;&gt;node41 -->
<g id="edge24" class="edge">
<title>node38&#45;&gt;node41</title>
<path fill="none" stroke="black" d="M69.51,-900.61C69.51,-893.03 69.51,-883.9 69.51,-875.34"/>
<polygon fill="black" stroke="black" points="73.01,-875.34 69.51,-865.34 66.01,-875.34 73.01,-875.34"/>
</g>
<!-- node41&#45;&gt;node41 -->
<g id="edge25" class="edge">
<title>node41:e&#45;&gt;node41:nw</title>
<path fill="none" stroke="black" d="M98.12,-845.8C107.12,-857.88 107.12,-882.05 69.51,-882.05 49.54,-882.05 40.17,-878.62 37.13,-874.49"/>
<polygon fill="black" stroke="black" points="40.37,-875.82 40.4,-865.23 33.77,-873.49 40.37,-875.82"/>
<text xml:space="preserve" text-anchor="middle" x="69.51" y="-886.25" font-family="Times,serif" font-size="14.00">tailport=e headport=nw</text>
</g>
<!-- node41&#45;&gt;node41 -->
<g id="edge26" class="edge">
<title>node41:e&#45;&gt;node41:nw</title>
<path fill="none" stroke="black" d="M98.12,-845.8C111.62,-863.97 111.62,-900.3 69.51,-900.3 36.62,-900.3 29.42,-885.45 34.29,-873.15"/>
<polygon fill="black" stroke="black" points="37.11,-875.22 40.03,-865.04 31.4,-871.17 37.11,-875.22"/>
<text xml:space="preserve" text-anchor="middle" x="69.51" y="-904.5" font-family="Times,serif" font-size="14.00">tailport=e headport=nw</text>
</g>
<!-- node47 -->
<g id="node10" class="node">
<title>node47</title>
<polygon fill="none" stroke="black" points="98.12,-790.8 40.91,-790.8 40.91,-754.8 98.12,-754.8 98.12,-790.8"/>
<text xml:space="preserve" text-anchor="middle" x="69.51" y="-768.6" font-family="Times,serif" font-size="14.00">node47</text>
</g>
<!-- node41&#45;&gt;node47 -->
<g id="edge27" class="edge">
<title>node41&#45;&gt;node47</title>
<path fill="none" stroke="black" d="M69.51,-827.61C69.51,-820.03 69.51,-810.9 69.51,-802.34"/>
<polygon fill="black" stroke="black" points="73.01,-802.34 69.51,-792.34 66.01,-802.34 73.01,-802.34"/>
</g>
<!-- node47&#45;&gt;node47 -->
<g id="edge28" class="edge">
<title>node47:e&#45;&gt;node47:sw</title>
<path fill="none" stroke="black" d="M98.12,-772.8C140.76,-784.88 140.76,-809.05 69.51,-809.05 4.67,-809.05 -1.16,-774.12 30.47,-758.73"/>
<polygon fill="black" stroke="black" points="31.37,-762.13 39.49,-755.33 28.9,-755.58 31.37,-762.13"/>
<text xml:space="preserve" text-anchor="middle" x="69.51" y="-813.25" font-family="Times,serif" font-size="14.00">tailport=e headport=sw</text>
</g>
<!-- node47&#45;&gt;node47 -->
<g id="edge29" class="edge">
<title>node47:e&#45;&gt;node47:sw</title>
<path fill="none" stroke="black" d="M98.12,-772.8C145.26,-790.97 145.26,-827.3 69.51,-827.3 -0.32,-827.3 -5.77,-781.12 30.74,-759.68"/>
<polygon fill="black" stroke="black" points="32.04,-762.93 39.54,-755.45 29.01,-756.62 32.04,-762.93"/>
<text xml:space="preserve" text-anchor="middle" x="69.51" y="-831.5" font-family="Times,serif" font-size="14.00">tailport=e headport=sw</text>
</g>
<!-- node48 -->
<g id="node11" class="node">
<title>node48</title>
<polygon fill="none" stroke="black" points="98.12,-717.8 40.91,-717.8 40.91,-681.8 98.12,-681.8 98.12,-717.8"/>
<text xml:space="preserve" text-anchor="middle" x="69.51" y="-695.6" font-family="Times,serif" font-size="14.00">node48</text>
</g>
<!-- node47&#45;&gt;node48 -->
<g id="edge30" class="edge">
<title>node47&#45;&gt;node48</title>
<path fill="none" stroke="black" d="M69.51,-754.61C69.51,-747.03 69.51,-737.9 69.51,-729.34"/>
<polygon fill="black" stroke="black" points="73.01,-729.34 69.51,-719.34 66.01,-729.34 73.01,-729.34"/>
</g>
<!-- node48&#45;&gt;node48 -->
<g id="edge31" class="edge">
<title>node48:e&#45;&gt;node48:w</title>
<path fill="none" stroke="black" d="M98.12,-699.8C107.12,-711.88 107.12,-736.05 69.51,-736.05 41.02,-736.05 34.11,-722.17 36.36,-710.19"/>
<polygon fill="black" stroke="black" points="39.5,-711.75 40.3,-701.19 33.08,-708.94 39.5,-711.75"/>
<text xml:space="preserve" text-anchor="middle" x="69.51" y="-740.25" font-family="Times,serif" font-size="14.00">tailport=e headport=w</text>
</g>
<!-- node48&#45;&gt;node48 -->
<g id="edge32" class="edge">
<title>node48:e&#45;&gt;node48:w</title>
<path fill="none" stroke="black" d="M98.12,-699.8C111.62,-717.97 111.62,-754.3 69.51,-754.3 34.15,-754.3 28.49,-728.67 35.58,-709.7"/>
<polygon fill="black" stroke="black" points="38.53,-711.6 40.19,-701.13 32.37,-708.28 38.53,-711.6"/>
<text xml:space="preserve" text-anchor="middle" x="69.51" y="-758.5" font-family="Times,serif" font-size="14.00">tailport=e headport=w</text>
</g>
<!-- node51 -->
<g id="node12" class="node">
<title>node51</title>
<polygon fill="none" stroke="black" points="98.12,-644.8 40.91,-644.8 40.91,-608.8 98.12,-608.8 98.12,-644.8"/>
<text xml:space="preserve" text-anchor="middle" x="69.51" y="-622.6" font-family="Times,serif" font-size="14.00">node51</text>
</g>
<!-- node48&#45;&gt;node51 -->
<g id="edge33" class="edge">
<title>node48&#45;&gt;node51</title>
<path fill="none" stroke="black" d="M69.51,-681.61C69.51,-674.03 69.51,-664.9 69.51,-656.34"/>
<polygon fill="black" stroke="black" points="73.01,-656.34 69.51,-646.34 66.01,-656.34 73.01,-656.34"/>
</g>
<!-- node51&#45;&gt;node51 -->
<g id="edge34" class="edge">
<title>node51:se&#45;&gt;node51:nw</title>
<path fill="none" stroke="black" d="M98.12,-608.8C140.76,-620.88 140.76,-663.05 69.51,-663.05 5.22,-663.05 -1.06,-653.14 29.66,-646.74"/>
<polygon fill="black" stroke="black" points="30.16,-650.21 39.42,-645.06 28.97,-643.31 30.16,-650.21"/>
<text xml:space="preserve" text-anchor="middle" x="69.51" y="-667.25" font-family="Times,serif" font-size="14.00">tailport=se headport=nw</text>
</g>
<!-- node51&#45;&gt;node51 -->
<g id="edge35" class="edge">
<title>node51:se&#45;&gt;node51:nw</title>
<path fill="none" stroke="black" d="M98.12,-608.8C145.26,-626.97 145.26,-681.3 69.51,-681.3 -0.02,-681.3 -5.73,-660.8 30.27,-648.02"/>
<polygon fill="black" stroke="black" points="30.9,-651.49 39.46,-645.24 28.87,-644.79 30.9,-651.49"/>
<text xml:space="preserve" text-anchor="middle" x="69.51" y="-685.5" font-family="Times,serif" font-size="14.00">tailport=se headport=nw</text>
</g>
<!-- node57 -->
<g id="node13" class="node">
<title>node57</title>
<polygon fill="none" stroke="black" points="98.12,-571.8 40.91,-571.8 40.91,-535.8 98.12,-535.8 98.12,-571.8"/>
<text xml:space="preserve" text-anchor="middle" x="69.51" y="-549.6" font-family="Times,serif" font-size="14.00">node57</text>
</g>
<!-- node51&#45;&gt;node57 -->
<g id="edge36" class="edge">
<title>node51&#45;&gt;node57</title>
<path fill="none" stroke="black" d="M69.51,-608.61C69.51,-601.03 69.51,-591.9 69.51,-583.34"/>
<polygon fill="black" stroke="black" points="73.01,-583.34 69.51,-573.34 66.01,-583.34 73.01,-583.34"/>
</g>
<!-- node57&#45;&gt;node57 -->
<g id="edge37" class="edge">
<title>node57:se&#45;&gt;node57:sw</title>
<path fill="none" stroke="black" d="M98.12,-535.8C140.76,-547.88 140.76,-590.05 69.51,-590.05 4.67,-590.05 -1.16,-555.12 30.47,-539.73"/>
<polygon fill="black" stroke="black" points="31.37,-543.13 39.49,-536.33 28.9,-536.58 31.37,-543.13"/>
<text xml:space="preserve" text-anchor="middle" x="69.51" y="-594.25" font-family="Times,serif" font-size="14.00">tailport=se headport=sw</text>
</g>
<!-- node57&#45;&gt;node57 -->
<g id="edge38" class="edge">
<title>node57:se&#45;&gt;node57:sw</title>
<path fill="none" stroke="black" d="M98.12,-535.8C145.26,-553.97 145.26,-608.3 69.51,-608.3 -0.32,-608.3 -5.77,-562.12 30.74,-540.68"/>
<polygon fill="black" stroke="black" points="32.04,-543.93 39.54,-536.45 29.01,-537.62 32.04,-543.93"/>
<text xml:space="preserve" text-anchor="middle" x="69.51" y="-612.5" font-family="Times,serif" font-size="14.00">tailport=se headport=sw</text>
</g>
<!-- node58 -->
<g id="node14" class="node">
<title>node58</title>
<polygon fill="none" stroke="black" points="98.12,-498.8 40.91,-498.8 40.91,-462.8 98.12,-462.8 98.12,-498.8"/>
<text xml:space="preserve" text-anchor="middle" x="69.51" y="-476.6" font-family="Times,serif" font-size="14.00">node58</text>
</g>
<!-- node57&#45;&gt;node58 -->
<g id="edge39" class="edge">
<title>node57&#45;&gt;node58</title>
<path fill="none" stroke="black" d="M69.51,-535.61C69.51,-528.03 69.51,-518.9 69.51,-510.34"/>
<polygon fill="black" stroke="black" points="73.01,-510.34 69.51,-500.34 66.01,-510.34 73.01,-510.34"/>
</g>
<!-- node58&#45;&gt;node58 -->
<g id="edge40" class="edge">
<title>node58:se&#45;&gt;node58:w</title>
<path fill="none" stroke="black" d="M98.12,-462.8C140.76,-474.88 140.76,-517.05 69.51,-517.05 4.94,-517.05 -1.11,-497.2 30.06,-484.49"/>
<polygon fill="black" stroke="black" points="31.13,-487.82 39.47,-481.29 28.88,-481.19 31.13,-487.82"/>
<text xml:space="preserve" text-anchor="middle" x="69.51" y="-521.25" font-family="Times,serif" font-size="14.00">tailport=se headport=w</text>
</g>
<!-- node58&#45;&gt;node58 -->
<g id="edge41" class="edge">
<title>node58:se&#45;&gt;node58:w</title>
<path fill="none" stroke="black" d="M98.12,-462.8C145.26,-480.97 145.26,-535.3 69.51,-535.3 -0.32,-535.3 -5.77,-504.42 30.74,-485.36"/>
<polygon fill="black" stroke="black" points="31.84,-488.71 39.53,-481.42 28.97,-482.32 31.84,-488.71"/>
<text xml:space="preserve" text-anchor="middle" x="69.51" y="-539.5" font-family="Times,serif" font-size="14.00">tailport=se headport=w</text>
</g>
<!-- node73 -->
<g id="node15" class="node">
<title>node73</title>
<polygon fill="none" stroke="black" points="98.12,-425.8 40.91,-425.8 40.91,-389.8 98.12,-389.8 98.12,-425.8"/>
<text xml:space="preserve" text-anchor="middle" x="69.51" y="-403.6" font-family="Times,serif" font-size="14.00">node73</text>
</g>
<!-- node58&#45;&gt;node73 -->
<g id="edge42" class="edge">
<title>node58&#45;&gt;node73</title>
<path fill="none" stroke="black" d="M69.51,-462.61C69.51,-455.03 69.51,-445.9 69.51,-437.34"/>
<polygon fill="black" stroke="black" points="73.01,-437.34 69.51,-427.34 66.01,-437.34 73.01,-437.34"/>
</g>
<!-- node73&#45;&gt;node73 -->
<g id="edge43" class="edge">
<title>node73:sw&#45;&gt;node73:ne</title>
<path fill="none" stroke="black" d="M40.91,-389.8C31.91,-401.88 31.91,-444.05 69.51,-444.05 89.49,-444.05 98.86,-440.62 101.9,-436.49"/>
<polygon fill="black" stroke="black" points="105.26,-435.49 98.63,-427.23 98.66,-437.82 105.26,-435.49"/>
<text xml:space="preserve" text-anchor="middle" x="69.51" y="-448.25" font-family="Times,serif" font-size="14.00">tailport=sw headport=ne</text>
</g>
<!-- node73&#45;&gt;node73 -->
<g id="edge44" class="edge">
<title>node73:sw&#45;&gt;node73:ne</title>
<path fill="none" stroke="black" d="M40.91,-389.8C27.41,-407.97 27.41,-462.3 69.51,-462.3 102.41,-462.3 109.61,-447.45 104.74,-435.15"/>
<polygon fill="black" stroke="black" points="107.63,-433.17 99,-427.04 101.92,-437.22 107.63,-433.17"/>
<text xml:space="preserve" text-anchor="middle" x="69.51" y="-466.5" font-family="Times,serif" font-size="14.00">tailport=sw headport=ne</text>
</g>
<!-- node74 -->
<g id="node16" class="node">
<title>node74</title>
<polygon fill="none" stroke="black" points="98.12,-352.8 40.91,-352.8 40.91,-316.8 98.12,-316.8 98.12,-352.8"/>
<text xml:space="preserve" text-anchor="middle" x="69.51" y="-330.6" font-family="Times,serif" font-size="14.00">node74</text>
</g>
<!-- node73&#45;&gt;node74 -->
<g id="edge45" class="edge">
<title>node73&#45;&gt;node74</title>
<path fill="none" stroke="black" d="M69.51,-389.61C69.51,-382.03 69.51,-372.9 69.51,-364.34"/>
<polygon fill="black" stroke="black" points="73.01,-364.34 69.51,-354.34 66.01,-364.34 73.01,-364.34"/>
</g>
<!-- node74&#45;&gt;node74 -->
<g id="edge46" class="edge">
<title>node74:sw&#45;&gt;node74:e</title>
<path fill="none" stroke="black" d="M40.91,-316.8C27.41,-328.88 27.41,-371.05 69.51,-371.05 102.41,-371.05 109.61,-356.3 104.74,-344.08"/>
<polygon fill="black" stroke="black" points="107.66,-342.14 99,-336.03 101.96,-346.21 107.66,-342.14"/>
<text xml:space="preserve" text-anchor="middle" x="69.51" y="-375.25" font-family="Times,serif" font-size="14.00">tailport=sw headport=e</text>
</g>
<!-- node74&#45;&gt;node74 -->
<g id="edge47" class="edge">
<title>node74:sw&#45;&gt;node74:e</title>
<path fill="none" stroke="black" d="M40.91,-316.8C22.91,-334.97 22.91,-389.3 69.51,-389.3 109.2,-389.3 115.09,-362.95 104.85,-343.91"/>
<polygon fill="black" stroke="black" points="107.78,-341.98 99.02,-336.02 102.15,-346.14 107.78,-341.98"/>
<text xml:space="preserve" text-anchor="middle" x="69.51" y="-393.5" font-family="Times,serif" font-size="14.00">tailport=sw headport=e</text>
</g>
<!-- node75 -->
<g id="node17" class="node">
<title>node75</title>
<polygon fill="none" stroke="black" points="98.12,-279.8 40.91,-279.8 40.91,-243.8 98.12,-243.8 98.12,-279.8"/>
<text xml:space="preserve" text-anchor="middle" x="69.51" y="-257.6" font-family="Times,serif" font-size="14.00">node75</text>
</g>
<!-- node74&#45;&gt;node75 -->
<g id="edge48" class="edge">
<title>node74&#45;&gt;node75</title>
<path fill="none" stroke="black" d="M69.51,-316.61C69.51,-309.03 69.51,-299.9 69.51,-291.34"/>
<polygon fill="black" stroke="black" points="73.01,-291.34 69.51,-281.34 66.01,-291.34 73.01,-291.34"/>
</g>
<!-- node75&#45;&gt;node75 -->
<g id="edge49" class="edge">
<title>node75:sw&#45;&gt;node75:se</title>
<path fill="none" stroke="black" d="M40.91,-243.8C27.41,-255.88 27.41,-298.05 69.51,-298.05 103.73,-298.05 110.14,-270.21 104.1,-253.29"/>
<polygon fill="black" stroke="black" points="107.22,-251.68 98.93,-245.08 101.3,-255.41 107.22,-251.68"/>
<text xml:space="preserve" text-anchor="middle" x="69.51" y="-302.25" font-family="Times,serif" font-size="14.00">tailport=sw headport=se</text>
</g>
<!-- node75&#45;&gt;node75 -->
<g id="edge50" class="edge">
<title>node75:sw&#45;&gt;node75:se</title>
<path fill="none" stroke="black" d="M40.91,-243.8C22.91,-261.97 22.91,-316.3 69.51,-316.3 109.75,-316.3 115.25,-275.81 104.42,-253.05"/>
<polygon fill="black" stroke="black" points="107.5,-251.34 98.97,-245.05 101.71,-255.29 107.5,-251.34"/>
<text xml:space="preserve" text-anchor="middle" x="69.51" y="-320.5" font-family="Times,serif" font-size="14.00">tailport=sw headport=se</text>
</g>
<!-- node83 -->
<g id="node18" class="node">
<title>node83</title>
<polygon fill="none" stroke="black" points="98.12,-206.8 40.91,-206.8 40.91,-170.8 98.12,-170.8 98.12,-206.8"/>
<text xml:space="preserve" text-anchor="middle" x="69.51" y="-184.6" font-family="Times,serif" font-size="14.00">node83</text>
</g>
<!-- node75&#45;&gt;node83 -->
<g id="edge51" class="edge">
<title>node75&#45;&gt;node83</title>
<path fill="none" stroke="black" d="M69.51,-243.61C69.51,-236.03 69.51,-226.9 69.51,-218.34"/>
<polygon fill="black" stroke="black" points="73.01,-218.34 69.51,-208.34 66.01,-218.34 73.01,-218.34"/>
</g>
<!-- node83&#45;&gt;node83 -->
<g id="edge52" class="edge">
<title>node83:w&#45;&gt;node83:ne</title>
<path fill="none" stroke="black" d="M40.91,-188.8C36.41,-200.88 36.41,-225.05 69.51,-225.05 86.07,-225.05 94.34,-222.01 97.92,-218.21"/>
<polygon fill="black" stroke="black" points="101.42,-218.37 98.09,-208.31 94.42,-218.25 101.42,-218.37"/>
<text xml:space="preserve" text-anchor="middle" x="69.51" y="-229.25" font-family="Times,serif" font-size="14.00">tailport=w headport=ne</text>
</g>
<!-- node83&#45;&gt;node83 -->
<g id="edge53" class="edge">
<title>node83:w&#45;&gt;node83:ne</title>
<path fill="none" stroke="black" d="M40.91,-188.8C31.91,-206.97 31.91,-243.3 69.51,-243.3 98.01,-243.3 104.92,-229.33 102.67,-217.26"/>
<polygon fill="black" stroke="black" points="105.92,-215.96 98.73,-208.19 99.5,-218.75 105.92,-215.96"/>
<text xml:space="preserve" text-anchor="middle" x="69.51" y="-247.5" font-family="Times,serif" font-size="14.00">tailport=w headport=ne</text>
</g>
<!-- node84 -->
<g id="node19" class="node">
<title>node84</title>
<polygon fill="none" stroke="black" points="98.12,-133.8 40.91,-133.8 40.91,-97.8 98.12,-97.8 98.12,-133.8"/>
<text xml:space="preserve" text-anchor="middle" x="69.51" y="-111.6" font-family="Times,serif" font-size="14.00">node84</text>
</g>
<!-- node83&#45;&gt;node84 -->
<g id="edge54" class="edge">
<title>node83&#45;&gt;node84</title>
<path fill="none" stroke="black" d="M69.51,-170.61C69.51,-163.03 69.51,-153.9 69.51,-145.34"/>
<polygon fill="black" stroke="black" points="73.01,-145.34 69.51,-135.34 66.01,-145.34 73.01,-145.34"/>
</g>
<!-- node84&#45;&gt;node84 -->
<g id="edge55" class="edge">
<title>node84:w&#45;&gt;node84:e</title>
<path fill="none" stroke="black" d="M40.91,-115.8C31.91,-127.88 31.91,-152.05 69.51,-152.05 98.01,-152.05 104.92,-138.17 102.67,-126.19"/>
<polygon fill="black" stroke="black" points="105.95,-124.94 98.73,-117.19 99.53,-127.75 105.95,-124.94"/>
<text xml:space="preserve" text-anchor="middle" x="69.51" y="-156.25" font-family="Times,serif" font-size="14.00">tailport=w headport=e</text>
</g>
<!-- node84&#45;&gt;node84 -->
<g id="edge56" class="edge">
<title>node84:w&#45;&gt;node84:e</title>
<path fill="none" stroke="black" d="M40.91,-115.8C27.41,-133.97 27.41,-170.3 69.51,-170.3 104.88,-170.3 110.54,-144.67 103.45,-125.7"/>
<polygon fill="black" stroke="black" points="106.66,-124.28 98.84,-117.13 100.5,-127.6 106.66,-124.28"/>
<text xml:space="preserve" text-anchor="middle" x="69.51" y="-174.5" font-family="Times,serif" font-size="14.00">tailport=w headport=e</text>
</g>
<!-- node85 -->
<g id="node20" class="node">
<title>node85</title>
<polygon fill="none" stroke="black" points="98.12,-60.8 40.91,-60.8 40.91,-24.8 98.12,-24.8 98.12,-60.8"/>
<text xml:space="preserve" text-anchor="middle" x="69.51" y="-38.6" font-family="Times,serif" font-size="14.00">node85</text>
</g>
<!-- node84&#45;&gt;node85 -->
<g id="edge57" class="edge">
<title>node84&#45;&gt;node85</title>
<path fill="none" stroke="black" d="M69.51,-97.61C69.51,-90.03 69.51,-80.9 69.51,-72.34"/>
<polygon fill="black" stroke="black" points="73.01,-72.34 69.51,-62.34 66.01,-72.34 73.01,-72.34"/>
</g>
<!-- node85&#45;&gt;node85 -->
<g id="edge58" class="edge">
<title>node85:w&#45;&gt;node85:se</title>
<path fill="none" stroke="black" d="M40.91,-42.8C27.41,-54.88 27.41,-79.05 69.51,-79.05 103.73,-79.05 110.14,-51.21 104.1,-34.29"/>
<polygon fill="black" stroke="black" points="107.22,-32.68 98.93,-26.08 101.3,-36.41 107.22,-32.68"/>
<text xml:space="preserve" text-anchor="middle" x="69.51" y="-83.25" font-family="Times,serif" font-size="14.00">tailport=w headport=se</text>
</g>
<!-- node85&#45;&gt;node85 -->
<g id="edge59" class="edge">
<title>node85:w&#45;&gt;node85:se</title>
<path fill="none" stroke="black" d="M40.91,-42.8C22.91,-60.97 22.91,-97.3 69.51,-97.3 109.75,-97.3 115.25,-56.81 104.42,-34.05"/>
<polygon fill="black" stroke="black" points="107.5,-32.34 98.97,-26.05 101.71,-36.29 107.5,-32.34"/>
<text xml:space="preserve" text-anchor="middle" x="69.51" y="-101.5" font-family="Times,serif" font-size="14.00">tailport=w headport=se</text>
</g>
</g>
</svg>
