<?xml version="1.0" encoding="UTF-8" standalone="no"?>
<!DOCTYPE svg PUBLIC "-//W3C//DTD SVG 1.1//EN"
 "http://www.w3.org/Graphics/SVG/1.1/DTD/svg11.dtd">
<!-- Generated by graphviz version a (a)
 -->
<!-- Title: g Pages: 1 -->
<svg width="855pt" height="636pt"
 viewBox="0.00 0.00 855.00 636.00" xmlns="http://www.w3.org/2000/svg" xmlns:xlink="http://www.w3.org/1999/xlink">
<g id="graph0" class="graph" transform="scale(1 1) rotate(0) translate(4 631.8)">
<title>g</title>
<defs>
<linearGradient id="graph0_l_44" gradientUnits="userSpaceOnUse" x1="423.58" y1="-631.8" x2="423.58" y2="4" >
<stop offset="0" style="stop-color:white;stop-opacity:1.;"/>
<stop offset="1" style="stop-color:lightblue;stop-opacity:1.;"/>
</linearGradient>
</defs>
<polygon fill="url(#graph0_l_44)" stroke="none" points="-4,4 -4,-631.8 851.16,-631.8 851.16,4 -4,4"/>
<!-- node0 -->
<g id="node1" class="node">
<title>node0</title>
<defs>
<linearGradient id="node1_l_45" gradientUnits="userSpaceOnUse" x1="38.7" y1="-462.7" x2="38.7" y2="-517.1" >
<stop offset="0" style="stop-color:yellow;stop-opacity:1.;"/>
<stop offset="1" style="stop-color:blue;stop-opacity:1.;"/>
</linearGradient>
</defs>
<polygon fill="url(#node1_l_45)" stroke="black" points="0,-462.7 0,-517.1 77.39,-517.1 77.39,-462.7 0,-462.7"/>
<text xml:space="preserve" text-anchor="middle" x="38.7" y="-498.7" font-family="Helvetica,sans-Serif" font-size="16.00">0x10ba8</text>
<polyline fill="none" stroke="black" points="0,-489.9 77.39,-489.9"/>
<text xml:space="preserve" text-anchor="middle" x="38.7" y="-471.5" font-family="Helvetica,sans-Serif" font-size="16.00"> </text>
</g>
<!-- node1 -->
<g id="node2" class="node">
<title>node1</title>
<defs>
<linearGradient id="node2_l_46" gradientUnits="userSpaceOnUse" x1="113.39" y1="-513.9" x2="207.67" y2="-513.9" >
<stop offset="0" style="stop-color:blue;stop-opacity:1.;"/>
<stop offset="1" style="stop-color:red;stop-opacity:1.;"/>
</linearGradient>
</defs>
<polygon fill="url(#node2_l_46)" stroke="black" points="113.39,-459.5 113.39,-568.3 207.67,-568.3 207.67,-459.5 113.39,-459.5"/>
<text xml:space="preserve" text-anchor="middle" x="160.53" y="-549.9" font-family="Helvetica,sans-Serif" font-size="16.00">0xf7fc4380</text>
<polyline fill="none" stroke="black" points="113.39,-541.1 207.67,-541.1"/>
<text xml:space="preserve" text-anchor="middle" x="160.53" y="-522.7" font-family="Helvetica,sans-Serif" font-size="16.00"> </text>
<polyline fill="none" stroke="black" points="113.39,-513.9 207.67,-513.9"/>
<text xml:space="preserve" text-anchor="middle" x="160.53" y="-495.5" font-family="Helvetica,sans-Serif" font-size="16.00"> </text>
<polyline fill="none" stroke="black" points="113.39,-486.7 207.67,-486.7"/>
<text xml:space="preserve" text-anchor="middle" x="160.53" y="-468.3" font-family="Helvetica,sans-Serif" font-size="16.00">&#45;1</text>
</g>
<!-- node0&#45;&gt;node1 -->
<g id="0" class="edge">
<title>node0:f0&#45;&gt;node1:f0</title>
<path fill="none" stroke="black" d="M77.39,-503.5C100.43,-503.5 90.92,-538.61 102.77,-550.68"/>
<polygon fill="black" stroke="black" points="101.38,-553.9 111.97,-554.16 103.86,-547.35 101.38,-553.9"/>
</g>
<!-- node2 -->
<g id="node3" class="node">
<title>node2</title>
<defs>
<linearGradient id="node3_l_47" gradientUnits="userSpaceOnUse" x1="160.53" y1="-331.5" x2="160.53" y2="-440.3" >
<stop offset="0" style="stop-color:brown;stop-opacity:1.;"/>
<stop offset="1" style="stop-color:yellow;stop-opacity:1.;"/>
</linearGradient>
</defs>
<polygon fill="url(#node3_l_47)" stroke="black" points="113.39,-331.5 113.39,-440.3 207.67,-440.3 207.67,-331.5 113.39,-331.5"/>
<text xml:space="preserve" text-anchor="middle" x="160.53" y="-421.9" font-family="Helvetica,sans-Serif" font-size="16.00">0xf7fc44b8</text>
<polyline fill="none" stroke="black" points="113.39,-413.1 207.67,-413.1"/>
<text xml:space="preserve" text-anchor="middle" x="160.53" y="-394.7" font-family="Helvetica,sans-Serif" font-size="16.00"> </text>
<polyline fill="none" stroke="black" points="113.39,-385.9 207.67,-385.9"/>
<text xml:space="preserve" text-anchor="middle" x="160.53" y="-367.5" font-family="Helvetica,sans-Serif" font-size="16.00"> </text>
<polyline fill="none" stroke="black" points="113.39,-358.7 207.67,-358.7"/>
<text xml:space="preserve" text-anchor="middle" x="160.53" y="-340.3" font-family="Helvetica,sans-Serif" font-size="16.00">2</text>
</g>
<!-- node0&#45;&gt;node2 -->
<g id="1" class="edge">
<title>node0:f1&#45;&gt;node2:f0</title>
<path fill="none" stroke="black" d="M77.39,-476.3C99.95,-476.3 91.15,-442.28 102.93,-430.59"/>
<polygon fill="black" stroke="black" points="103.82,-434 111.97,-427.23 101.38,-427.44 103.82,-434"/>
</g>
<!-- node3 -->
<g id="node4" class="node">
<title>node3</title>
<defs>
<linearGradient id="node4_l_48" gradientUnits="userSpaceOnUse" x1="740.84" y1="-518.5" x2="740.84" y2="-627.3" >
<stop offset="0" style="stop-color:green;stop-opacity:1.;"/>
<stop offset="1" style="stop-color:red;stop-opacity:1.;"/>
</linearGradient>
</defs>
<polygon fill="url(#node4_l_48)" stroke="black" points="634.52,-518.5 634.52,-627.3 847.16,-627.3 847.16,-518.5 634.52,-518.5"/>
<text xml:space="preserve" text-anchor="middle" x="740.84" y="-608.9" font-family="Helvetica,sans-Serif" font-size="16.00">3.43322790286038071e&#45;06</text>
<polyline fill="none" stroke="black" points="634.52,-600.1 847.16,-600.1"/>
<text xml:space="preserve" text-anchor="middle" x="740.84" y="-581.7" font-family="Helvetica,sans-Serif" font-size="16.00">44.79998779296875</text>
<polyline fill="none" stroke="black" points="634.52,-572.9 847.16,-572.9"/>
<text xml:space="preserve" text-anchor="middle" x="740.84" y="-554.5" font-family="Helvetica,sans-Serif" font-size="16.00">0</text>
<polyline fill="none" stroke="black" points="634.52,-545.7 847.16,-545.7"/>
<text xml:space="preserve" text-anchor="middle" x="740.84" y="-527.3" font-family="Helvetica,sans-Serif" font-size="16.00"> </text>
</g>
<!-- node1&#45;&gt;node3 -->
<g id="2" class="edge">
<title>node1:f0&#45;&gt;node3:f0</title>
<path fill="none" stroke="black" d="M207.67,-554.7C226.02,-554.7 226.17,-569.39 243.67,-574.9 406.59,-626.22 457.76,-614.26 623.43,-613.72"/>
<polygon fill="black" stroke="black" points="623.01,-617.22 633,-613.7 623,-610.22 623.01,-617.22"/>
</g>
<!-- node4 -->
<g id="node5" class="node">
<title>node4</title>
<defs>
<linearGradient id="node5_l_49" gradientUnits="userSpaceOnUse" x1="243.67" y1="-486.9" x2="337.95" y2="-486.9" >
<stop offset="0" style="stop-color:red;stop-opacity:1.;"/>
<stop offset="1" style="stop-color:green;stop-opacity:1.;"/>
</linearGradient>
</defs>
<polygon fill="url(#node5_l_49)" stroke="black" points="243.67,-432.5 243.67,-541.3 337.95,-541.3 337.95,-432.5 243.67,-432.5"/>
<text xml:space="preserve" text-anchor="middle" x="290.81" y="-522.9" font-family="Helvetica,sans-Serif" font-size="16.00">0xf7fc4380</text>
<polyline fill="none" stroke="black" points="243.67,-514.1 337.95,-514.1"/>
<text xml:space="preserve" text-anchor="middle" x="290.81" y="-495.7" font-family="Helvetica,sans-Serif" font-size="16.00"> </text>
<polyline fill="none" stroke="black" points="243.67,-486.9 337.95,-486.9"/>
<text xml:space="preserve" text-anchor="middle" x="290.81" y="-468.5" font-family="Helvetica,sans-Serif" font-size="16.00"> </text>
<polyline fill="none" stroke="black" points="243.67,-459.7 337.95,-459.7"/>
<text xml:space="preserve" text-anchor="middle" x="290.81" y="-441.3" font-family="Helvetica,sans-Serif" font-size="16.00">2</text>
</g>
<!-- node1&#45;&gt;node4 -->
<g id="3" class="edge">
<title>node1:f1&#45;&gt;node4:f0</title>
<path fill="none" stroke="black" d="M207.67,-527.5C219.05,-527.5 224.36,-527.6 232.23,-527.66"/>
<polygon fill="black" stroke="black" points="232.15,-531.16 242.16,-527.69 232.17,-524.16 232.15,-531.16"/>
</g>
<!-- node5 -->
<g id="node6" class="node">
<title>node5</title>
<defs>
<linearGradient id="node6_l_50" gradientUnits="userSpaceOnUse" x1="290.81" y1="-80.5" x2="290.81" y2="-189.3" >
<stop offset="0" style="stop-color:red;stop-opacity:1.;"/>
<stop offset="1" style="stop-color:red;stop-opacity:1.;"/>
</linearGradient>
</defs>
<polygon fill="url(#node6_l_50)" stroke="black" points="263.81,-80.5 263.81,-189.3 317.81,-189.3 317.81,-80.5 263.81,-80.5"/>
<text xml:space="preserve" text-anchor="middle" x="290.81" y="-170.9" font-family="Helvetica,sans-Serif" font-size="16.00">(nil)</text>
<polyline fill="none" stroke="black" points="263.81,-162.1 317.81,-162.1"/>
<text xml:space="preserve" text-anchor="middle" x="290.81" y="-143.7" font-family="Helvetica,sans-Serif" font-size="16.00"> </text>
<polyline fill="none" stroke="black" points="263.81,-134.9 317.81,-134.9"/>
<text xml:space="preserve" text-anchor="middle" x="290.81" y="-116.5" font-family="Helvetica,sans-Serif" font-size="16.00"> </text>
<polyline fill="none" stroke="black" points="263.81,-107.7 317.81,-107.7"/>
<text xml:space="preserve" text-anchor="middle" x="290.81" y="-89.3" font-family="Helvetica,sans-Serif" font-size="16.00">&#45;1</text>
</g>
<!-- node1&#45;&gt;node5 -->
<g id="4" class="edge">
<title>node1:f2&#45;&gt;node5:f0</title>
<path fill="none" stroke="black" d="M207.67,-500.3C274.02,-500.3 200.65,-254.42 243.67,-203.9 253.83,-191.97 273.74,-201.43 284.13,-199.6"/>
<polygon fill="black" stroke="black" points="286.94,-201.69 289.93,-191.53 281.25,-197.61 286.94,-201.69"/>
</g>
<!-- node4&#45;&gt;node3 -->
<g id="5" class="edge">
<title>node4:f0&#45;&gt;node3:f1</title>
<path fill="none" stroke="black" d="M337.95,-527.7C411.87,-527.7 430.33,-529.85 504.23,-530.9 558.18,-531.67 574.43,-532.05 623.22,-532.09"/>
<polygon fill="black" stroke="black" points="623,-535.59 633,-532.1 623,-528.59 623,-535.59"/>
</g>
<!-- node6 -->
<g id="node7" class="node">
<title>node6</title>
<defs>
<linearGradient id="node7_l_51" gradientUnits="userSpaceOnUse" x1="421.09" y1="-405.5" x2="421.09" y2="-514.3" >
<stop offset="0" style="stop-color:orange;stop-opacity:1.;"/>
<stop offset="1" style="stop-color:green;stop-opacity:1.;"/>
</linearGradient>
</defs>
<polygon fill="url(#node7_l_51)" stroke="black" points="373.95,-405.5 373.95,-514.3 468.23,-514.3 468.23,-405.5 373.95,-405.5"/>
<text xml:space="preserve" text-anchor="middle" x="421.09" y="-495.9" font-family="Helvetica,sans-Serif" font-size="16.00">0xf7fc4380</text>
<polyline fill="none" stroke="black" points="373.95,-487.1 468.23,-487.1"/>
<text xml:space="preserve" text-anchor="middle" x="421.09" y="-468.7" font-family="Helvetica,sans-Serif" font-size="16.00"> </text>
<polyline fill="none" stroke="black" points="373.95,-459.9 468.23,-459.9"/>
<text xml:space="preserve" text-anchor="middle" x="421.09" y="-441.5" font-family="Helvetica,sans-Serif" font-size="16.00"> </text>
<polyline fill="none" stroke="black" points="373.95,-432.7 468.23,-432.7"/>
<text xml:space="preserve" text-anchor="middle" x="421.09" y="-414.3" font-family="Helvetica,sans-Serif" font-size="16.00">1</text>
</g>
<!-- node4&#45;&gt;node6 -->
<g id="6" class="edge">
<title>node4:f1&#45;&gt;node6:f0</title>
<path fill="none" stroke="black" d="M337.95,-500.5C349.33,-500.5 354.64,-500.6 362.51,-500.66"/>
<polygon fill="black" stroke="black" points="362.43,-504.16 372.44,-500.69 362.45,-497.16 362.43,-504.16"/>
</g>
<!-- node10 -->
<g id="node11" class="node">
<title>node10</title>
<defs>
<linearGradient id="node11_l_52" gradientUnits="userSpaceOnUse" x1="421.09" y1="-246.5" x2="421.09" y2="-355.3" >
<stop offset="0" style="stop-color:magenta;stop-opacity:1.;"/>
<stop offset="1" style="stop-color:green;stop-opacity:1.;"/>
</linearGradient>
</defs>
<polygon fill="url(#node11_l_52)" stroke="black" points="394.09,-246.5 394.09,-355.3 448.09,-355.3 448.09,-246.5 394.09,-246.5"/>
<text xml:space="preserve" text-anchor="middle" x="421.09" y="-336.9" font-family="Helvetica,sans-Serif" font-size="16.00">(nil)</text>
<polyline fill="none" stroke="black" points="394.09,-328.1 448.09,-328.1"/>
<text xml:space="preserve" text-anchor="middle" x="421.09" y="-309.7" font-family="Helvetica,sans-Serif" font-size="16.00"> </text>
<polyline fill="none" stroke="black" points="394.09,-300.9 448.09,-300.9"/>
<text xml:space="preserve" text-anchor="middle" x="421.09" y="-282.5" font-family="Helvetica,sans-Serif" font-size="16.00"> </text>
<polyline fill="none" stroke="black" points="394.09,-273.7 448.09,-273.7"/>
<text xml:space="preserve" text-anchor="middle" x="421.09" y="-255.3" font-family="Helvetica,sans-Serif" font-size="16.00">&#45;1</text>
</g>
<!-- node4&#45;&gt;node10 -->
<g id="7" class="edge">
<title>node4:f2&#45;&gt;node10:f0</title>
<path fill="none" stroke="black" d="M337.95,-473.3C397.03,-473.3 338.85,-359.08 381.9,-343.46"/>
<polygon fill="black" stroke="black" points="382.26,-346.95 391.6,-341.94 381.18,-340.03 382.26,-346.95"/>
</g>
<!-- node6&#45;&gt;node3 -->
<g id="8" class="edge">
<title>node6:f0&#45;&gt;node3:f1</title>
<path fill="none" stroke="black" d="M468.23,-500.7C539.48,-500.7 557.47,-528.88 623.1,-531.85"/>
<polygon fill="black" stroke="black" points="622.93,-535.34 633,-532.07 623.08,-528.35 622.93,-535.34"/>
</g>
<!-- node7 -->
<g id="node8" class="node">
<title>node7</title>
<defs>
<linearGradient id="node8_l_53" gradientUnits="userSpaceOnUse" x1="551.38" y1="-384.5" x2="551.38" y2="-493.3" >
<stop offset="0" style="stop-color:cyan;stop-opacity:1.;"/>
<stop offset="1" style="stop-color:green;stop-opacity:1.;"/>
</linearGradient>
</defs>
<polygon fill="url(#node8_l_53)" stroke="black" points="504.23,-384.5 504.23,-493.3 598.52,-493.3 598.52,-384.5 504.23,-384.5"/>
<text xml:space="preserve" text-anchor="middle" x="551.38" y="-474.9" font-family="Helvetica,sans-Serif" font-size="16.00">0xf7fc4380</text>
<polyline fill="none" stroke="black" points="504.23,-466.1 598.52,-466.1"/>
<text xml:space="preserve" text-anchor="middle" x="551.38" y="-447.7" font-family="Helvetica,sans-Serif" font-size="16.00"> </text>
<polyline fill="none" stroke="black" points="504.23,-438.9 598.52,-438.9"/>
<text xml:space="preserve" text-anchor="middle" x="551.38" y="-420.5" font-family="Helvetica,sans-Serif" font-size="16.00"> </text>
<polyline fill="none" stroke="black" points="504.23,-411.7 598.52,-411.7"/>
<text xml:space="preserve" text-anchor="middle" x="551.38" y="-393.3" font-family="Helvetica,sans-Serif" font-size="16.00">2</text>
</g>
<!-- node6&#45;&gt;node7 -->
<g id="9" class="edge">
<title>node6:f1&#45;&gt;node7:f0</title>
<path fill="none" stroke="black" d="M468.23,-473.5C479.9,-473.5 485.01,-476.7 492.99,-478.5"/>
<polygon fill="black" stroke="black" points="492.42,-481.96 502.73,-479.54 493.16,-475 492.42,-481.96"/>
</g>
<!-- node9 -->
<g id="node10" class="node">
<title>node9</title>
<defs>
<linearGradient id="node10_l_54" gradientUnits="userSpaceOnUse" x1="551.38" y1="-256.5" x2="551.38" y2="-365.3" >
<stop offset="0" style="stop-color:orange;stop-opacity:1.;"/>
<stop offset="1" style="stop-color:orange;stop-opacity:1.;"/>
</linearGradient>
</defs>
<polygon fill="url(#node10_l_54)" stroke="black" points="524.38,-256.5 524.38,-365.3 578.38,-365.3 578.38,-256.5 524.38,-256.5"/>
<text xml:space="preserve" text-anchor="middle" x="551.38" y="-346.9" font-family="Helvetica,sans-Serif" font-size="16.00">(nil)</text>
<polyline fill="none" stroke="black" points="524.38,-338.1 578.38,-338.1"/>
<text xml:space="preserve" text-anchor="middle" x="551.38" y="-319.7" font-family="Helvetica,sans-Serif" font-size="16.00"> </text>
<polyline fill="none" stroke="black" points="524.38,-310.9 578.38,-310.9"/>
<text xml:space="preserve" text-anchor="middle" x="551.38" y="-292.5" font-family="Helvetica,sans-Serif" font-size="16.00"> </text>
<polyline fill="none" stroke="black" points="524.38,-283.7 578.38,-283.7"/>
<text xml:space="preserve" text-anchor="middle" x="551.38" y="-265.3" font-family="Helvetica,sans-Serif" font-size="16.00">&#45;1</text>
</g>
<!-- node6&#45;&gt;node9 -->
<g id="10" class="edge">
<title>node6:f2&#45;&gt;node9:f0</title>
<path fill="none" stroke="black" d="M468.23,-446.3C512.53,-446.3 481.56,-367.93 512.33,-353.85"/>
<polygon fill="black" stroke="black" points="512.74,-357.34 521.89,-351.99 511.4,-350.47 512.74,-357.34"/>
</g>
<!-- node7&#45;&gt;node1 -->
<g id="12" class="edge">
<title>node7:f1&#45;&gt;node1:f0</title>
<path fill="none" stroke="black" d="M504.23,-452.5C468.7,-452.5 496.44,-502.28 468.23,-523.9 378.76,-592.49 327.74,-557.24 219.08,-554.83"/>
<polygon fill="black" stroke="black" points="219.22,-551.33 209.19,-554.72 219.15,-558.33 219.22,-551.33"/>
</g>
<!-- node7&#45;&gt;node3 -->
<g id="11" class="edge">
<title>node7:f0&#45;&gt;node3:f1</title>
<path fill="none" stroke="black" d="M598.52,-479.7C621.91,-479.7 611.87,-515.64 623.77,-527.99"/>
<polygon fill="black" stroke="black" points="622.51,-531.25 633.1,-531.56 625.01,-524.72 622.51,-531.25"/>
</g>
<!-- node8 -->
<g id="node9" class="node">
<title>node8</title>
<defs>
<linearGradient id="node9_l_55" gradientUnits="userSpaceOnUse" x1="740.84" y1="-330.5" x2="740.84" y2="-439.3" >
<stop offset="0" style="stop-color:cyan;stop-opacity:1.;"/>
<stop offset="1" style="stop-color:cyan;stop-opacity:1.;"/>
</linearGradient>
</defs>
<polygon fill="url(#node9_l_55)" stroke="black" points="713.84,-330.5 713.84,-439.3 767.84,-439.3 767.84,-330.5 713.84,-330.5"/>
<text xml:space="preserve" text-anchor="middle" x="740.84" y="-420.9" font-family="Helvetica,sans-Serif" font-size="16.00">(nil)</text>
<polyline fill="none" stroke="black" points="713.84,-412.1 767.84,-412.1"/>
<text xml:space="preserve" text-anchor="middle" x="740.84" y="-393.7" font-family="Helvetica,sans-Serif" font-size="16.00"> </text>
<polyline fill="none" stroke="black" points="713.84,-384.9 767.84,-384.9"/>
<text xml:space="preserve" text-anchor="middle" x="740.84" y="-366.5" font-family="Helvetica,sans-Serif" font-size="16.00"> </text>
<polyline fill="none" stroke="black" points="713.84,-357.7 767.84,-357.7"/>
<text xml:space="preserve" text-anchor="middle" x="740.84" y="-339.3" font-family="Helvetica,sans-Serif" font-size="16.00">&#45;1</text>
</g>
<!-- node7&#45;&gt;node8 -->
<g id="13" class="edge">
<title>node7:f2&#45;&gt;node8:f0</title>
<path fill="none" stroke="black" d="M598.52,-425.3C645.26,-425.3 659.75,-425.64 701.32,-425.69"/>
<polygon fill="black" stroke="black" points="701.32,-429.19 711.32,-425.7 701.32,-422.19 701.32,-429.19"/>
</g>
<!-- node11 -->
<g id="node12" class="node">
<title>node11</title>
<defs>
<linearGradient id="node12_l_56" gradientUnits="userSpaceOnUse" x1="551.38" y1="-128.5" x2="551.38" y2="-237.3" >
<stop offset="0" style="stop-color:red;stop-opacity:1.;"/>
<stop offset="1" style="stop-color:green;stop-opacity:1.;"/>
</linearGradient>
</defs>
<polygon fill="url(#node12_l_56)" stroke="black" points="524.38,-128.5 524.38,-237.3 578.38,-237.3 578.38,-128.5 524.38,-128.5"/>
<text xml:space="preserve" text-anchor="middle" x="551.38" y="-218.9" font-family="Helvetica,sans-Serif" font-size="16.00">(nil)</text>
<polyline fill="none" stroke="black" points="524.38,-210.1 578.38,-210.1"/>
<text xml:space="preserve" text-anchor="middle" x="551.38" y="-191.7" font-family="Helvetica,sans-Serif" font-size="16.00"> </text>
<polyline fill="none" stroke="black" points="524.38,-182.9 578.38,-182.9"/>
<text xml:space="preserve" text-anchor="middle" x="551.38" y="-164.5" font-family="Helvetica,sans-Serif" font-size="16.00"> </text>
<polyline fill="none" stroke="black" points="524.38,-155.7 578.38,-155.7"/>
<text xml:space="preserve" text-anchor="middle" x="551.38" y="-137.3" font-family="Helvetica,sans-Serif" font-size="16.00">&#45;1</text>
</g>
<!-- node10&#45;&gt;node11 -->
<g id="14" class="edge">
<title>node10:f1&#45;&gt;node11:f0</title>
<path fill="none" stroke="black" d="M449.09,-314.5C496.96,-314.5 475.6,-237.99 512.11,-225.43"/>
<polygon fill="black" stroke="black" points="512.53,-228.91 521.88,-223.93 511.46,-221.99 512.53,-228.91"/>
</g>
<!-- node12 -->
<g id="node13" class="node">
<title>node12</title>
<defs>
<linearGradient id="node13_l_57" gradientUnits="userSpaceOnUse" x1="551.38" y1="-0.5" x2="551.38" y2="-109.3" >
<stop offset="0" style="stop-color:magenta;stop-opacity:1.;"/>
<stop offset="1" style="stop-color:magenta;stop-opacity:1.;"/>
</linearGradient>
</defs>
<polygon fill="url(#node13_l_57)" stroke="black" points="504.23,-0.5 504.23,-109.3 598.52,-109.3 598.52,-0.5 504.23,-0.5"/>
<text xml:space="preserve" text-anchor="middle" x="551.38" y="-90.9" font-family="Helvetica,sans-Serif" font-size="16.00">0xf7fc43e0</text>
<polyline fill="none" stroke="black" points="504.23,-82.1 598.52,-82.1"/>
<text xml:space="preserve" text-anchor="middle" x="551.38" y="-63.7" font-family="Helvetica,sans-Serif" font-size="16.00"> </text>
<polyline fill="none" stroke="black" points="504.23,-54.9 598.52,-54.9"/>
<text xml:space="preserve" text-anchor="middle" x="551.38" y="-36.5" font-family="Helvetica,sans-Serif" font-size="16.00"> </text>
<polyline fill="none" stroke="black" points="504.23,-27.7 598.52,-27.7"/>
<text xml:space="preserve" text-anchor="middle" x="551.38" y="-9.3" font-family="Helvetica,sans-Serif" font-size="16.00">1</text>
</g>
<!-- node10&#45;&gt;node12 -->
<g id="15" class="edge">
<title>node10:f2&#45;&gt;node12:f0</title>
<path fill="none" stroke="black" d="M449.09,-287.3C533.55,-287.3 426.6,-113.24 493.12,-96.92"/>
<polygon fill="black" stroke="black" points="493.17,-100.44 502.73,-95.87 492.41,-93.48 493.17,-100.44"/>
</g>
<!-- node11&#45;&gt;node1 -->
<g id="16" class="edge">
<title>node11:f2&#45;&gt;node1:f0</title>
<path fill="none" stroke="black" d="M523.38,-169.3C355.57,-169.3 314.97,-271 243.67,-422.9 219.69,-474 261.67,-544 218.9,-553.59"/>
<polygon fill="black" stroke="black" points="218.79,-550.09 209.18,-554.55 219.47,-557.05 218.79,-550.09"/>
</g>
</g>
</svg>
