<?xml version="1.0" encoding="UTF-8" standalone="no"?>
<!DOCTYPE svg PUBLIC "-//W3C//DTD SVG 1.1//EN"
 "http://www.w3.org/Graphics/SVG/1.1/DTD/svg11.dtd">
<!-- Generated by graphviz version a (a)
 -->
<!-- Title: G Pages: 1 -->
<svg width="216pt" height="213pt"
 viewBox="0.00 0.00 216.00 213.00" xmlns="http://www.w3.org/2000/svg" xmlns:xlink="http://www.w3.org/1999/xlink">
<g id="graph0" class="graph" transform="scale(1 1) rotate(0) translate(4 209.2)">
<title>G</title>
<polygon fill="white" stroke="none" points="-4,4 -4,-209.2 212.29,-209.2 212.29,4 -4,4"/>
<!-- a0 -->
<g id="node1" class="node">
<title>a0</title>
<defs>
<linearGradient id="l_133" gradientUnits="userSpaceOnUse" x1="36.16" y1="-172.32" x2="172.13" y2="-32.88" >
<stop offset="0" style="stop-color:#a50026;stop-opacity:1.;"/>
<stop offset="1" style="stop-color:#006837;stop-opacity:1.;"/>
</linearGradient>
</defs>
<path fill="url(#l_133)" stroke="none" d="M20,-4C20,-4 188.29,-4 188.29,-4 194.29,-4 200.29,-10 200.29,-16 200.29,-16 200.29,-189.2 200.29,-189.2 200.29,-195.2 194.29,-201.2 188.29,-201.2 188.29,-201.2 20,-201.2 20,-201.2 14,-201.2 8,-195.2 8,-189.2 8,-189.2 8,-16 8,-16 8,-10 14,-4 20,-4"/>
<defs>
<linearGradient id="l_134" gradientUnits="userSpaceOnUse" x1="18" y1="-172.8" x2="53.57" y2="-172.8" >
<stop offset="0" style="stop-color:#a50026;stop-opacity:1.;"/>
<stop offset="1" style="stop-color:#d73027;stop-opacity:1.;"/>
</linearGradient>
</defs>
<polygon fill="url(#l_134)" stroke="none" points="18,-154.4 18,-191.2 53.57,-191.2 53.57,-154.4 18,-154.4"/>
<text xml:space="preserve" text-anchor="start" x="28" y="-168.6" font-family="Helvetica,sans-Serif" font-size="14.00">00</text>
<defs>
<linearGradient id="l_135" gradientUnits="userSpaceOnUse" x1="63.57" y1="-172.8" x2="99.14" y2="-172.8" >
<stop offset="0" style="stop-color:#d73027;stop-opacity:1.;"/>
<stop offset="1" style="stop-color:#f46d43;stop-opacity:1.;"/>
</linearGradient>
</defs>
<polygon fill="url(#l_135)" stroke="none" points="63.57,-154.4 63.57,-191.2 99.14,-191.2 99.14,-154.4 63.57,-154.4"/>
<text xml:space="preserve" text-anchor="start" x="73.57" y="-168.6" font-family="Helvetica,sans-Serif" font-size="14.00">01</text>
<defs>
<linearGradient id="l_136" gradientUnits="userSpaceOnUse" x1="109.14" y1="-172.8" x2="144.72" y2="-172.8" >
<stop offset="0" style="stop-color:#f46d43;stop-opacity:1.;"/>
<stop offset="1" style="stop-color:#fdae61;stop-opacity:1.;"/>
</linearGradient>
</defs>
<polygon fill="url(#l_136)" stroke="none" points="109.14,-154.4 109.14,-191.2 144.72,-191.2 144.72,-154.4 109.14,-154.4"/>
<text xml:space="preserve" text-anchor="start" x="119.14" y="-168.6" font-family="Helvetica,sans-Serif" font-size="14.00">02</text>
<defs>
<linearGradient id="l_137" gradientUnits="userSpaceOnUse" x1="154.72" y1="-172.8" x2="190.29" y2="-172.8" >
<stop offset="0" style="stop-color:#fdae61;stop-opacity:1.;"/>
<stop offset="1" style="stop-color:#fee08b;stop-opacity:1.;"/>
</linearGradient>
</defs>
<polygon fill="url(#l_137)" stroke="none" points="154.72,-154.4 154.72,-191.2 190.29,-191.2 190.29,-154.4 154.72,-154.4"/>
<text xml:space="preserve" text-anchor="start" x="164.72" y="-168.6" font-family="Helvetica,sans-Serif" font-size="14.00">03</text>
<defs>
<linearGradient id="l_138" gradientUnits="userSpaceOnUse" x1="35.79" y1="-144.4" x2="35.79" y2="-107.6" >
<stop offset="0" style="stop-color:#a50026;stop-opacity:1.;"/>
<stop offset="1" style="stop-color:#ffffbf;stop-opacity:1.;"/>
</linearGradient>
</defs>
<polygon fill="url(#l_138)" stroke="none" points="18,-107.6 18,-144.4 53.57,-144.4 53.57,-107.6 18,-107.6"/>
<text xml:space="preserve" text-anchor="start" x="28" y="-121.8" font-family="Helvetica,sans-Serif" font-size="14.00">10</text>
<defs>
<linearGradient id="l_139" gradientUnits="userSpaceOnUse" x1="81.36" y1="-144.4" x2="81.36" y2="-60.8" >
<stop offset="0" style="stop-color:#f46d43;stop-opacity:1.;"/>
<stop offset="1" style="stop-color:#66bd63;stop-opacity:1.;"/>
</linearGradient>
</defs>
<polygon fill="url(#l_139)" stroke="none" points="63.57,-60.8 63.57,-144.4 99.14,-144.4 99.14,-60.8 63.57,-60.8"/>
<text xml:space="preserve" text-anchor="start" x="73.57" y="-98.4" font-family="Helvetica,sans-Serif" font-size="14.00">11</text>
<defs>
<linearGradient id="l_140" gradientUnits="userSpaceOnUse" x1="126.93" y1="-144.4" x2="126.93" y2="-107.6" >
<stop offset="0" style="stop-color:#f46d43;stop-opacity:1.;"/>
<stop offset="1" style="stop-color:#a6d96a;stop-opacity:1.;"/>
</linearGradient>
</defs>
<polygon fill="url(#l_140)" stroke="none" points="109.14,-107.6 109.14,-144.4 144.72,-144.4 144.72,-107.6 109.14,-107.6"/>
<text xml:space="preserve" text-anchor="start" x="119.14" y="-121.8" font-family="Helvetica,sans-Serif" font-size="14.00">12</text>
<defs>
<linearGradient id="l_141" gradientUnits="userSpaceOnUse" x1="172.5" y1="-144.4" x2="172.5" y2="-107.6" >
<stop offset="0" style="stop-color:#fdae61;stop-opacity:1.;"/>
<stop offset="1" style="stop-color:#66bd63;stop-opacity:1.;"/>
</linearGradient>
</defs>
<polygon fill="url(#l_141)" stroke="none" points="154.72,-107.6 154.72,-144.4 190.29,-144.4 190.29,-107.6 154.72,-107.6"/>
<text xml:space="preserve" text-anchor="start" x="164.72" y="-121.8" font-family="Helvetica,sans-Serif" font-size="14.00">13</text>
<defs>
<linearGradient id="l_142" gradientUnits="userSpaceOnUse" x1="35.79" y1="-97.6" x2="35.79" y2="-60.8" >
<stop offset="0" style="stop-color:#ffffbf;stop-opacity:1.;"/>
<stop offset="1" style="stop-color:#66bd63;stop-opacity:1.;"/>
</linearGradient>
</defs>
<polygon fill="url(#l_142)" stroke="none" points="18,-60.8 18,-97.6 53.57,-97.6 53.57,-60.8 18,-60.8"/>
<text xml:space="preserve" text-anchor="start" x="28" y="-75" font-family="Helvetica,sans-Serif" font-size="14.00">20</text>
<defs>
<linearGradient id="l_143" gradientUnits="userSpaceOnUse" x1="109.14" y1="-79.2" x2="190.29" y2="-79.2" >
<stop offset="0" style="stop-color:#66bd63;stop-opacity:1.;"/>
<stop offset="1" style="stop-color:#006837;stop-opacity:1.;"/>
</linearGradient>
</defs>
<polygon fill="url(#l_143)" stroke="none" points="109.14,-60.8 109.14,-97.6 190.29,-97.6 190.29,-60.8 109.14,-60.8"/>
<text xml:space="preserve" text-anchor="start" x="141.93" y="-75" font-family="Helvetica,sans-Serif" font-size="14.00">22</text>
<defs>
<radialGradient id="r_83" cx="50%" cy="50%" r="75%" fx="50%" fy="50%">
<stop offset="0" style="stop-color:#a50026;stop-opacity:1.;"/>
<stop offset="1" style="stop-color:#a6d96a;stop-opacity:1.;"/>
</radialGradient>
</defs>
<polygon fill="url(#r_83)" stroke="none" points="18,-14 18,-50.8 53.57,-50.8 53.57,-14 18,-14"/>
<text xml:space="preserve" text-anchor="start" x="28" y="-28.2" font-family="Helvetica,sans-Serif" font-size="14.00">30</text>
<defs>
<radialGradient id="r_84" cx="50%" cy="50%" r="75%" fx="85%" fy="15%">
<stop offset="0" style="stop-color:#a50026;stop-opacity:1.;"/>
<stop offset="1" style="stop-color:#a6d96a;stop-opacity:1.;"/>
</radialGradient>
</defs>
<polygon fill="url(#r_84)" stroke="none" points="63.57,-14 63.57,-50.8 99.14,-50.8 99.14,-14 63.57,-14"/>
<text xml:space="preserve" text-anchor="start" x="73.57" y="-28.2" font-family="Helvetica,sans-Serif" font-size="14.00">31</text>
<defs>
<radialGradient id="r_85" cx="50%" cy="50%" r="75%" fx="50%" fy="0%">
<stop offset="0" style="stop-color:#a50026;stop-opacity:1.;"/>
<stop offset="1" style="stop-color:#a6d96a;stop-opacity:1.;"/>
</radialGradient>
</defs>
<polygon fill="url(#r_85)" stroke="none" points="109.14,-14 109.14,-50.8 144.72,-50.8 144.72,-14 109.14,-14"/>
<text xml:space="preserve" text-anchor="start" x="119.14" y="-28.2" font-family="Helvetica,sans-Serif" font-size="14.00">32</text>
<defs>
<radialGradient id="r_86" cx="50%" cy="50%" r="75%" fx="0%" fy="50%">
<stop offset="0" style="stop-color:#a50026;stop-opacity:1.;"/>
<stop offset="1" style="stop-color:#a6d96a;stop-opacity:1.;"/>
</radialGradient>
</defs>
<polygon fill="url(#r_86)" stroke="none" points="154.72,-14 154.72,-50.8 190.29,-50.8 190.29,-14 154.72,-14"/>
<text xml:space="preserve" text-anchor="start" x="164.72" y="-28.2" font-family="Helvetica,sans-Serif" font-size="14.00">33</text>
</g>
</g>
</svg>
