<?xml version="1.0" encoding="UTF-8" standalone="no"?>
<!DOCTYPE svg PUBLIC "-//W3C//DTD SVG 1.1//EN"
 "http://www.w3.org/Graphics/SVG/1.1/DTD/svg11.dtd">
<!-- Generated by graphviz version a (a)
 -->
<!-- Title: G Pages: 1 -->
<svg width="703pt" height="588pt"
 viewBox="0.00 0.00 703.00 588.00" xmlns="http://www.w3.org/2000/svg" xmlns:xlink="http://www.w3.org/1999/xlink">
<g id="graph0" class="graph" transform="scale(1 1) rotate(0) translate(4 584.23)">
<title>G</title>
<polygon fill="white" stroke="none" points="-4,4 -4,-584.23 699.24,-584.23 699.24,4 -4,4"/>
<!-- 1 -->
<g id="node1" class="node">
<title>1</title>
<ellipse fill="none" stroke="black" cx="317.6" cy="-156.42" rx="27" ry="18"/>
<text xml:space="preserve" text-anchor="middle" x="317.6" y="-152.22" font-family="Times,serif" font-size="14.00">1</text>
</g>
<!-- 2 -->
<g id="node2" class="node">
<title>2</title>
<ellipse fill="none" stroke="black" cx="385" cy="-99.75" rx="27" ry="18"/>
<text xml:space="preserve" text-anchor="middle" x="385" y="-95.55" font-family="Times,serif" font-size="14.00">2</text>
</g>
<!-- 1&#45;&#45;2 -->
<g id="edge1" class="edge">
<title>1&#45;&#45;2</title>
<path fill="none" stroke="black" d="M334.61,-142.12C344.91,-133.46 357.98,-122.47 368.24,-113.85"/>
</g>
<!-- 3 -->
<g id="node3" class="node">
<title>3</title>
<ellipse fill="none" stroke="black" cx="243.97" cy="-113.78" rx="27" ry="18"/>
<text xml:space="preserve" text-anchor="middle" x="243.97" y="-109.58" font-family="Times,serif" font-size="14.00">3</text>
</g>
<!-- 1&#45;&#45;3 -->
<g id="edge2" class="edge">
<title>1&#45;&#45;3</title>
<path fill="none" stroke="black" d="M297.09,-144.54C286.96,-138.68 274.77,-131.62 264.63,-125.74"/>
</g>
<!-- 4 -->
<g id="node4" class="node">
<title>4</title>
<ellipse fill="none" stroke="black" cx="259.76" cy="-210.66" rx="27" ry="18"/>
<text xml:space="preserve" text-anchor="middle" x="259.76" y="-206.46" font-family="Times,serif" font-size="14.00">4</text>
</g>
<!-- 1&#45;&#45;4 -->
<g id="edge3" class="edge">
<title>1&#45;&#45;4</title>
<path fill="none" stroke="black" d="M301.8,-171.24C293.64,-178.89 283.71,-188.2 275.55,-195.85"/>
</g>
<!-- 5 -->
<g id="node5" class="node">
<title>5</title>
<ellipse fill="none" stroke="black" cx="374.44" cy="-213.87" rx="27" ry="18"/>
<text xml:space="preserve" text-anchor="middle" x="374.44" y="-209.67" font-family="Times,serif" font-size="14.00">5</text>
</g>
<!-- 1&#45;&#45;5 -->
<g id="edge4" class="edge">
<title>1&#45;&#45;5</title>
<path fill="none" stroke="black" d="M332.83,-171.81C341.12,-180.19 351.33,-190.51 359.56,-198.83"/>
</g>
<!-- 6 -->
<g id="node6" class="node">
<title>6</title>
<ellipse fill="none" stroke="black" cx="316.59" cy="-242.56" rx="27" ry="18"/>
<text xml:space="preserve" text-anchor="middle" x="316.59" y="-238.36" font-family="Times,serif" font-size="14.00">6</text>
</g>
<!-- 1&#45;&#45;6 -->
<g id="edge5" class="edge">
<title>1&#45;&#45;6</title>
<path fill="none" stroke="black" d="M317.39,-174.69C317.22,-189.3 316.98,-209.7 316.81,-224.32"/>
</g>
<!-- 8 -->
<g id="node7" class="node">
<title>8</title>
<ellipse fill="none" stroke="black" cx="375.16" cy="-18" rx="27" ry="18"/>
<text xml:space="preserve" text-anchor="middle" x="375.16" y="-13.8" font-family="Times,serif" font-size="14.00">8</text>
</g>
<!-- 2&#45;&#45;8 -->
<g id="edge6" class="edge">
<title>2&#45;&#45;8</title>
<path fill="none" stroke="black" d="M382.82,-81.61C381.2,-68.16 379,-49.88 377.37,-36.38"/>
</g>
<!-- 9 -->
<g id="node8" class="node">
<title>9</title>
<ellipse fill="none" stroke="black" cx="462.19" cy="-133.72" rx="27" ry="18"/>
<text xml:space="preserve" text-anchor="middle" x="462.19" y="-129.52" font-family="Times,serif" font-size="14.00">9</text>
</g>
<!-- 2&#45;&#45;9 -->
<g id="edge7" class="edge">
<title>2&#45;&#45;9</title>
<path fill="none" stroke="black" d="M407.75,-109.76C417.71,-114.14 429.37,-119.28 439.35,-123.67"/>
</g>
<!-- 10 -->
<g id="node9" class="node">
<title>10</title>
<ellipse fill="none" stroke="black" cx="448.91" cy="-51.27" rx="27" ry="18"/>
<text xml:space="preserve" text-anchor="middle" x="448.91" y="-47.07" font-family="Times,serif" font-size="14.00">10</text>
</g>
<!-- 2&#45;&#45;10 -->
<g id="edge8" class="edge">
<title>2&#45;&#45;10</title>
<path fill="none" stroke="black" d="M403.15,-85.99C411.85,-79.38 422.26,-71.49 430.94,-64.9"/>
</g>
<!-- 11 -->
<g id="node10" class="node">
<title>11</title>
<ellipse fill="none" stroke="black" cx="171.58" cy="-84.48" rx="27" ry="18"/>
<text xml:space="preserve" text-anchor="middle" x="171.58" y="-80.28" font-family="Times,serif" font-size="14.00">11</text>
</g>
<!-- 3&#45;&#45;11 -->
<g id="edge9" class="edge">
<title>3&#45;&#45;11</title>
<path fill="none" stroke="black" d="M220.67,-104.35C212.4,-101 203.1,-97.24 194.84,-93.89"/>
</g>
<!-- 12 -->
<g id="node11" class="node">
<title>12</title>
<ellipse fill="none" stroke="black" cx="100.16" cy="-62.19" rx="27" ry="18"/>
<text xml:space="preserve" text-anchor="middle" x="100.16" y="-57.99" font-family="Times,serif" font-size="14.00">12</text>
</g>
<!-- 11&#45;&#45;12 -->
<g id="edge10" class="edge">
<title>11&#45;&#45;12</title>
<path fill="none" stroke="black" d="M147,-76.81C139.9,-74.59 132.14,-72.17 125.02,-69.95"/>
</g>
<!-- 13 -->
<g id="node12" class="node">
<title>13</title>
<ellipse fill="none" stroke="black" cx="27" cy="-54.58" rx="27" ry="18"/>
<text xml:space="preserve" text-anchor="middle" x="27" y="-50.38" font-family="Times,serif" font-size="14.00">13</text>
</g>
<!-- 12&#45;&#45;13 -->
<g id="edge11" class="edge">
<title>12&#45;&#45;13</title>
<path fill="none" stroke="black" d="M73.33,-59.4C66.97,-58.74 60.18,-58.04 53.82,-57.37"/>
</g>
<!-- a1 -->
<g id="node13" class="node">
<title>a1</title>
<ellipse fill="none" stroke="black" cx="546.87" cy="-480.33" rx="27" ry="18"/>
<text xml:space="preserve" text-anchor="middle" x="546.87" y="-476.13" font-family="Times,serif" font-size="14.00">a1</text>
</g>
<!-- a2 -->
<g id="node14" class="node">
<title>a2</title>
<ellipse fill="none" stroke="black" cx="584.9" cy="-402.47" rx="27" ry="18"/>
<text xml:space="preserve" text-anchor="middle" x="584.9" y="-398.27" font-family="Times,serif" font-size="14.00">a2</text>
</g>
<!-- a1&#45;&#45;a2 -->
<g id="edge12" class="edge">
<title>a1&#45;&#45;a2</title>
<path fill="none" stroke="black" d="M555.31,-463.05C561.57,-450.24 570.07,-432.84 576.35,-419.97"/>
</g>
<!-- a3 -->
<g id="node15" class="node">
<title>a3</title>
<ellipse fill="none" stroke="black" cx="469" cy="-451.59" rx="27" ry="18"/>
<text xml:space="preserve" text-anchor="middle" x="469" y="-447.39" font-family="Times,serif" font-size="14.00">a3</text>
</g>
<!-- a1&#45;&#45;a3 -->
<g id="edge13" class="edge">
<title>a1&#45;&#45;a3</title>
<path fill="none" stroke="black" d="M523.09,-471.55C513.51,-468.02 502.49,-463.96 492.91,-460.42"/>
</g>
<!-- a4 -->
<g id="node16" class="node">
<title>a4</title>
<ellipse fill="none" stroke="black" cx="478.83" cy="-526.38" rx="27" ry="18"/>
<text xml:space="preserve" text-anchor="middle" x="478.83" y="-522.18" font-family="Times,serif" font-size="14.00">a4</text>
</g>
<!-- a1&#45;&#45;a4 -->
<g id="edge14" class="edge">
<title>a1&#45;&#45;a4</title>
<path fill="none" stroke="black" d="M527.56,-493.41C518.28,-499.68 507.2,-507.18 497.96,-513.44"/>
</g>
<!-- a5 -->
<g id="node17" class="node">
<title>a5</title>
<ellipse fill="none" stroke="black" cx="617.27" cy="-524.36" rx="27" ry="18"/>
<text xml:space="preserve" text-anchor="middle" x="617.27" y="-520.16" font-family="Times,serif" font-size="14.00">a5</text>
</g>
<!-- a1&#45;&#45;a5 -->
<g id="edge15" class="edge">
<title>a1&#45;&#45;a5</title>
<path fill="none" stroke="black" d="M566.86,-492.83C576.45,-498.83 587.91,-506 597.48,-511.99"/>
</g>
<!-- a6 -->
<g id="node18" class="node">
<title>a6</title>
<ellipse fill="none" stroke="black" cx="551.41" cy="-562.23" rx="27" ry="18"/>
<text xml:space="preserve" text-anchor="middle" x="551.41" y="-558.03" font-family="Times,serif" font-size="14.00">a6</text>
</g>
<!-- a1&#45;&#45;a6 -->
<g id="edge16" class="edge">
<title>a1&#45;&#45;a6</title>
<path fill="none" stroke="black" d="M547.88,-498.51C548.63,-511.99 549.64,-530.29 550.39,-543.82"/>
</g>
<!-- a8 -->
<g id="node19" class="node">
<title>a8</title>
<ellipse fill="none" stroke="black" cx="530.87" cy="-338.65" rx="27" ry="18"/>
<text xml:space="preserve" text-anchor="middle" x="530.87" y="-334.45" font-family="Times,serif" font-size="14.00">a8</text>
</g>
<!-- a2&#45;&#45;a8 -->
<g id="edge17" class="edge">
<title>a2&#45;&#45;a8</title>
<path fill="none" stroke="black" d="M571.55,-386.7C563.3,-376.95 552.74,-364.48 544.45,-354.69"/>
</g>
<!-- a9 -->
<g id="node20" class="node">
<title>a9</title>
<ellipse fill="none" stroke="black" cx="668.24" cy="-403.48" rx="27" ry="18"/>
<text xml:space="preserve" text-anchor="middle" x="668.24" y="-399.28" font-family="Times,serif" font-size="14.00">a9</text>
</g>
<!-- a2&#45;&#45;a9 -->
<g id="edge18" class="edge">
<title>a2&#45;&#45;a9</title>
<path fill="none" stroke="black" d="M612.19,-402.8C621.4,-402.91 631.67,-403.04 640.89,-403.15"/>
</g>
<!-- a10 -->
<g id="node21" class="node">
<title>a10</title>
<ellipse fill="none" stroke="black" cx="617.98" cy="-330" rx="27" ry="18"/>
<text xml:space="preserve" text-anchor="middle" x="617.98" y="-325.8" font-family="Times,serif" font-size="14.00">a10</text>
</g>
<!-- a2&#45;&#45;a10 -->
<g id="edge19" class="edge">
<title>a2&#45;&#45;a10</title>
<path fill="none" stroke="black" d="M592.91,-384.93C598.07,-373.62 604.76,-358.96 609.93,-347.63"/>
</g>
<!-- A -->
<g id="node22" class="node">
<title>A</title>
<ellipse fill="none" stroke="black" cx="287" cy="-340.64" rx="27" ry="18"/>
<text xml:space="preserve" text-anchor="middle" x="287" y="-336.44" font-family="Times,serif" font-size="14.00">A</text>
</g>
<!-- B -->
<g id="node23" class="node">
<title>B</title>
<ellipse fill="none" stroke="black" cx="358.21" cy="-330" rx="27" ry="18"/>
<text xml:space="preserve" text-anchor="middle" x="358.21" y="-325.8" font-family="Times,serif" font-size="14.00">B</text>
</g>
<!-- A&#45;&#45;B -->
<g id="edge20" class="edge">
<title>A&#45;&#45;B</title>
<path fill="none" stroke="black" d="M313.52,-336.68C319.37,-335.8 325.57,-334.88 331.43,-334"/>
</g>
<!-- C -->
<g id="node24" class="node">
<title>C</title>
<ellipse fill="none" stroke="black" cx="183" cy="-330" rx="27" ry="18"/>
<text xml:space="preserve" text-anchor="middle" x="183" y="-325.8" font-family="Times,serif" font-size="14.00">C</text>
</g>
</g>
</svg>
