<?xml version="1.0" encoding="UTF-8" standalone="no"?>
<!DOCTYPE svg PUBLIC "-//W3C//DTD SVG 1.1//EN"
 "http://www.w3.org/Graphics/SVG/1.1/DTD/svg11.dtd">
<!-- Generated by graphviz version a (a)
 -->
<!-- Title: G Pages: 1 -->
<svg width="239pt" height="2452pt"
 viewBox="0.00 0.00 239.00 2452.00" xmlns="http://www.w3.org/2000/svg" xmlns:xlink="http://www.w3.org/1999/xlink">
<g id="graph0" class="graph" transform="scale(1 1) rotate(0) translate(4 2448.08)">
<title>G</title>
<polygon fill="white" stroke="none" points="-4,4 -4,-2448.08 234.51,-2448.08 234.51,4 -4,4"/>
<text xml:space="preserve" text-anchor="middle" x="115.26" y="-8.2" font-family="Times,serif" font-size="14.00">SelfRight</text>
<!-- node23 -->
<g id="node1" class="node">
<title>node23</title>
<ellipse fill="none" stroke="black" cx="39.47" cy="-2393.74" rx="39.47" ry="39.47"/>
<text xml:space="preserve" text-anchor="middle" x="39.47" y="-2389.54" font-family="Times,serif" font-size="14.00">node23</text>
</g>
<!-- node23&#45;&gt;node23 -->
<g id="edge1" class="edge">
<title>node23:n&#45;&gt;node23:ne</title>
<path fill="none" stroke="black" d="M39.47,-2433.58C58.62,-2448.07 96.93,-2448.07 96.93,-2427.77 96.93,-2411.28 89.01,-2408.19 76.79,-2415.38"/>
<polygon fill="black" stroke="black" points="74.96,-2412.38 68.91,-2421.08 79.07,-2418.05 74.96,-2412.38"/>
<text xml:space="preserve" text-anchor="middle" x="161.39" y="-2389.54" font-family="Times,serif" font-size="14.00">tailport=n headport=ne</text>
</g>
<!-- node24 -->
<g id="node2" class="node">
<title>node24</title>
<ellipse fill="none" stroke="black" cx="39.47" cy="-2277.81" rx="39.47" ry="39.47"/>
<text xml:space="preserve" text-anchor="middle" x="39.47" y="-2273.61" font-family="Times,serif" font-size="14.00">node24</text>
</g>
<!-- node23&#45;&gt;node24 -->
<g id="edge2" class="edge">
<title>node23&#45;&gt;node24</title>
<path fill="none" stroke="black" d="M39.47,-2353.85C39.47,-2345.79 39.47,-2337.18 39.47,-2328.78"/>
<polygon fill="black" stroke="black" points="42.97,-2329.04 39.47,-2319.04 35.97,-2329.04 42.97,-2329.04"/>
</g>
<!-- node24&#45;&gt;node24 -->
<g id="edge3" class="edge">
<title>node24:n&#45;&gt;node24:e</title>
<path fill="none" stroke="black" d="M39.47,-2317.65C58.62,-2332.14 96.93,-2332.14 96.93,-2297.73 96.93,-2274.61 91.51,-2267.03 86.25,-2268.93"/>
<polygon fill="black" stroke="black" points="83.64,-2266.59 80.23,-2276.62 89.15,-2270.9 83.64,-2266.59"/>
<text xml:space="preserve" text-anchor="middle" x="157.89" y="-2273.61" font-family="Times,serif" font-size="14.00">tailport=n headport=e</text>
</g>
<!-- node25 -->
<g id="node3" class="node">
<title>node25</title>
<ellipse fill="none" stroke="black" cx="39.47" cy="-2161.88" rx="39.47" ry="39.47"/>
<text xml:space="preserve" text-anchor="middle" x="39.47" y="-2157.68" font-family="Times,serif" font-size="14.00">node25</text>
</g>
<!-- node24&#45;&gt;node25 -->
<g id="edge4" class="edge">
<title>node24&#45;&gt;node25</title>
<path fill="none" stroke="black" d="M39.47,-2237.92C39.47,-2229.86 39.47,-2221.25 39.47,-2212.85"/>
<polygon fill="black" stroke="black" points="42.97,-2213.11 39.47,-2203.11 35.97,-2213.11 42.97,-2213.11"/>
</g>
<!-- node25&#45;&gt;node25 -->
<g id="edge5" class="edge">
<title>node25:n&#45;&gt;node25:se</title>
<path fill="none" stroke="black" d="M39.47,-2201.72C58.62,-2216.21 96.93,-2216.21 96.93,-2167.69 96.93,-2128.27 89.01,-2120.88 76.79,-2127.26"/>
<polygon fill="black" stroke="black" points="75.09,-2124.18 68.93,-2132.79 79.12,-2129.9 75.09,-2124.18"/>
<text xml:space="preserve" text-anchor="middle" x="160.61" y="-2157.68" font-family="Times,serif" font-size="14.00">tailport=n headport=se</text>
</g>
<!-- node26 -->
<g id="node4" class="node">
<title>node26</title>
<ellipse fill="none" stroke="black" cx="39.47" cy="-2045.95" rx="39.47" ry="39.47"/>
<text xml:space="preserve" text-anchor="middle" x="39.47" y="-2041.75" font-family="Times,serif" font-size="14.00">node26</text>
</g>
<!-- node25&#45;&gt;node26 -->
<g id="edge6" class="edge">
<title>node25&#45;&gt;node26</title>
<path fill="none" stroke="black" d="M39.47,-2121.99C39.47,-2113.93 39.47,-2105.32 39.47,-2096.92"/>
<polygon fill="black" stroke="black" points="42.97,-2097.18 39.47,-2087.18 35.97,-2097.18 42.97,-2097.18"/>
</g>
<!-- node26&#45;&gt;node26 -->
<g id="edge7" class="edge">
<title>node26:n&#45;&gt;node26:s</title>
<path fill="none" stroke="black" d="M39.47,-2085.79C58.62,-2100.28 96.93,-2100.28 96.93,-2045.95 96.93,-1999.9 69.4,-1992.89 49.35,-2000.65"/>
<polygon fill="black" stroke="black" points="47.84,-1997.48 40.79,-2005.39 51.23,-2003.6 47.84,-1997.48"/>
<text xml:space="preserve" text-anchor="middle" x="157.51" y="-2041.75" font-family="Times,serif" font-size="14.00">tailport=n headport=s</text>
</g>
<!-- node32 -->
<g id="node5" class="node">
<title>node32</title>
<ellipse fill="none" stroke="black" cx="39.47" cy="-1930.02" rx="39.47" ry="39.47"/>
<text xml:space="preserve" text-anchor="middle" x="39.47" y="-1925.82" font-family="Times,serif" font-size="14.00">node32</text>
</g>
<!-- node26&#45;&gt;node32 -->
<g id="edge8" class="edge">
<title>node26&#45;&gt;node32</title>
<path fill="none" stroke="black" d="M39.47,-2006.06C39.47,-1998 39.47,-1989.39 39.47,-1980.99"/>
<polygon fill="black" stroke="black" points="42.97,-1981.25 39.47,-1971.25 35.97,-1981.25 42.97,-1981.25"/>
</g>
<!-- node32&#45;&gt;node32 -->
<g id="edge9" class="edge">
<title>node32:ne&#45;&gt;node32:n</title>
<path fill="none" stroke="black" d="M67.69,-1958.25C84.93,-1943.75 96.93,-1943.75 96.93,-1964.05 96.93,-1981.26 69.4,-1983.88 49.35,-1975.45"/>
<polygon fill="black" stroke="black" points="51.21,-1972.48 40.78,-1970.6 47.76,-1978.57 51.21,-1972.48"/>
<text xml:space="preserve" text-anchor="middle" x="161.39" y="-1925.82" font-family="Times,serif" font-size="14.00">tailport=ne headport=n</text>
</g>
<!-- node34 -->
<g id="node6" class="node">
<title>node34</title>
<ellipse fill="none" stroke="black" cx="39.47" cy="-1814.09" rx="39.47" ry="39.47"/>
<text xml:space="preserve" text-anchor="middle" x="39.47" y="-1809.89" font-family="Times,serif" font-size="14.00">node34</text>
</g>
<!-- node32&#45;&gt;node34 -->
<g id="edge10" class="edge">
<title>node32&#45;&gt;node34</title>
<path fill="none" stroke="black" d="M39.47,-1890.13C39.47,-1882.07 39.47,-1873.46 39.47,-1865.06"/>
<polygon fill="black" stroke="black" points="42.97,-1865.32 39.47,-1855.32 35.97,-1865.32 42.97,-1865.32"/>
</g>
<!-- node34&#45;&gt;node34 -->
<g id="edge11" class="edge">
<title>node34:ne&#45;&gt;node34:e</title>
<path fill="none" stroke="black" d="M67.69,-1842.32C84.93,-1856.81 96.93,-1856.81 96.93,-1828.2 96.93,-1808.99 91.51,-1802.68 86.25,-1805.01"/>
<polygon fill="black" stroke="black" points="83.52,-1802.82 80.22,-1812.89 89.08,-1807.07 83.52,-1802.82"/>
<text xml:space="preserve" text-anchor="middle" x="161" y="-1809.89" font-family="Times,serif" font-size="14.00">tailport=ne headport=e</text>
</g>
<!-- node35 -->
<g id="node7" class="node">
<title>node35</title>
<ellipse fill="none" stroke="black" cx="39.47" cy="-1698.16" rx="39.47" ry="39.47"/>
<text xml:space="preserve" text-anchor="middle" x="39.47" y="-1693.96" font-family="Times,serif" font-size="14.00">node35</text>
</g>
<!-- node34&#45;&gt;node35 -->
<g id="edge12" class="edge">
<title>node34&#45;&gt;node35</title>
<path fill="none" stroke="black" d="M39.47,-1774.2C39.47,-1766.14 39.47,-1757.53 39.47,-1749.13"/>
<polygon fill="black" stroke="black" points="42.97,-1749.39 39.47,-1739.39 35.97,-1749.39 42.97,-1749.39"/>
</g>
<!-- node35&#45;&gt;node35 -->
<g id="edge13" class="edge">
<title>node35:ne&#45;&gt;node35:se</title>
<path fill="none" stroke="black" d="M67.69,-1726.38C84.93,-1740.88 96.93,-1740.88 96.93,-1698.16 96.93,-1663.46 89.01,-1656.95 76.79,-1663.5"/>
<polygon fill="black" stroke="black" points="75.07,-1660.43 68.92,-1669.07 79.11,-1666.15 75.07,-1660.43"/>
<text xml:space="preserve" text-anchor="middle" x="163.72" y="-1693.96" font-family="Times,serif" font-size="14.00">tailport=ne headport=se</text>
</g>
<!-- node36 -->
<g id="node8" class="node">
<title>node36</title>
<ellipse fill="none" stroke="black" cx="39.47" cy="-1582.23" rx="39.47" ry="39.47"/>
<text xml:space="preserve" text-anchor="middle" x="39.47" y="-1578.03" font-family="Times,serif" font-size="14.00">node36</text>
</g>
<!-- node35&#45;&gt;node36 -->
<g id="edge14" class="edge">
<title>node35&#45;&gt;node36</title>
<path fill="none" stroke="black" d="M39.47,-1658.27C39.47,-1650.21 39.47,-1641.6 39.47,-1633.2"/>
<polygon fill="black" stroke="black" points="42.97,-1633.46 39.47,-1623.46 35.97,-1633.46 42.97,-1633.46"/>
</g>
<!-- node36&#45;&gt;node36 -->
<g id="edge15" class="edge">
<title>node36:ne&#45;&gt;node36:s</title>
<path fill="none" stroke="black" d="M67.69,-1610.45C84.93,-1624.95 96.93,-1624.95 96.93,-1576.43 96.93,-1535.3 69.4,-1529.03 49.35,-1536.9"/>
<polygon fill="black" stroke="black" points="47.83,-1533.75 40.79,-1541.66 51.23,-1539.86 47.83,-1533.75"/>
<text xml:space="preserve" text-anchor="middle" x="160.61" y="-1578.03" font-family="Times,serif" font-size="14.00">tailport=ne headport=s</text>
</g>
<!-- node42 -->
<g id="node9" class="node">
<title>node42</title>
<ellipse fill="none" stroke="black" cx="39.47" cy="-1466.3" rx="39.47" ry="39.47"/>
<text xml:space="preserve" text-anchor="middle" x="39.47" y="-1462.1" font-family="Times,serif" font-size="14.00">node42</text>
</g>
<!-- node36&#45;&gt;node42 -->
<g id="edge16" class="edge">
<title>node36&#45;&gt;node42</title>
<path fill="none" stroke="black" d="M39.47,-1542.34C39.47,-1534.28 39.47,-1525.67 39.47,-1517.27"/>
<polygon fill="black" stroke="black" points="42.97,-1517.53 39.47,-1507.53 35.97,-1517.53 42.97,-1517.53"/>
</g>
<!-- node42&#45;&gt;node42 -->
<g id="edge17" class="edge">
<title>node42:e&#45;&gt;node42:n</title>
<path fill="none" stroke="black" d="M79.3,-1466.3C84.93,-1451.81 96.93,-1451.81 96.93,-1486.22 96.93,-1515.39 69.4,-1519.83 49.35,-1511.68"/>
<polygon fill="black" stroke="black" points="51.22,-1508.72 40.79,-1506.88 47.8,-1514.82 51.22,-1508.72"/>
<text xml:space="preserve" text-anchor="middle" x="157.89" y="-1462.1" font-family="Times,serif" font-size="14.00">tailport=e headport=n</text>
</g>
<!-- node43 -->
<g id="node10" class="node">
<title>node43</title>
<ellipse fill="none" stroke="black" cx="39.47" cy="-1350.37" rx="39.47" ry="39.47"/>
<text xml:space="preserve" text-anchor="middle" x="39.47" y="-1346.17" font-family="Times,serif" font-size="14.00">node43</text>
</g>
<!-- node42&#45;&gt;node43 -->
<g id="edge18" class="edge">
<title>node42&#45;&gt;node43</title>
<path fill="none" stroke="black" d="M39.47,-1426.41C39.47,-1418.35 39.47,-1409.74 39.47,-1401.34"/>
<polygon fill="black" stroke="black" points="42.97,-1401.6 39.47,-1391.6 35.97,-1401.6 42.97,-1401.6"/>
</g>
<!-- node43&#45;&gt;node43 -->
<g id="edge19" class="edge">
<title>node43:e&#45;&gt;node43:ne</title>
<path fill="none" stroke="black" d="M79.3,-1350.37C84.93,-1335.88 96.93,-1335.88 96.93,-1364.48 96.93,-1387.72 89.01,-1392.08 76.79,-1385.12"/>
<polygon fill="black" stroke="black" points="79.08,-1382.46 68.92,-1379.48 75,-1388.15 79.08,-1382.46"/>
<text xml:space="preserve" text-anchor="middle" x="161" y="-1346.17" font-family="Times,serif" font-size="14.00">tailport=e headport=ne</text>
</g>
<!-- node44 -->
<g id="node11" class="node">
<title>node44</title>
<ellipse fill="none" stroke="black" cx="39.47" cy="-1234.44" rx="39.47" ry="39.47"/>
<text xml:space="preserve" text-anchor="middle" x="39.47" y="-1230.24" font-family="Times,serif" font-size="14.00">node44</text>
</g>
<!-- node43&#45;&gt;node44 -->
<g id="edge20" class="edge">
<title>node43&#45;&gt;node44</title>
<path fill="none" stroke="black" d="M39.47,-1310.48C39.47,-1302.42 39.47,-1293.81 39.47,-1285.41"/>
<polygon fill="black" stroke="black" points="42.97,-1285.67 39.47,-1275.67 35.97,-1285.67 42.97,-1285.67"/>
</g>
<!-- node44&#45;&gt;node44 -->
<g id="edge21" class="edge">
<title>node44:e&#45;&gt;node44:e</title>
<path fill="none" stroke="black" d="M79.3,-1234.44C84.93,-1248.93 96.93,-1248.93 96.93,-1234.44 96.93,-1224.48 91.26,-1221.37 85.88,-1225.1"/>
<polygon fill="black" stroke="black" points="83.07,-1223.01 80.17,-1233.2 88.79,-1227.05 83.07,-1223.01"/>
<text xml:space="preserve" text-anchor="middle" x="157.5" y="-1230.24" font-family="Times,serif" font-size="14.00">tailport=e headport=e</text>
</g>
<!-- node45 -->
<g id="node12" class="node">
<title>node45</title>
<ellipse fill="none" stroke="black" cx="39.47" cy="-1118.51" rx="39.47" ry="39.47"/>
<text xml:space="preserve" text-anchor="middle" x="39.47" y="-1114.31" font-family="Times,serif" font-size="14.00">node45</text>
</g>
<!-- node44&#45;&gt;node45 -->
<g id="edge22" class="edge">
<title>node44&#45;&gt;node45</title>
<path fill="none" stroke="black" d="M39.47,-1194.55C39.47,-1186.49 39.47,-1177.88 39.47,-1169.48"/>
<polygon fill="black" stroke="black" points="42.97,-1169.74 39.47,-1159.74 35.97,-1169.74 42.97,-1169.74"/>
</g>
<!-- node45&#45;&gt;node45 -->
<g id="edge23" class="edge">
<title>node45:e&#45;&gt;node45:se</title>
<path fill="none" stroke="black" d="M79.3,-1118.51C84.93,-1133 96.93,-1133 96.93,-1104.4 96.93,-1081.16 89.01,-1076.8 76.79,-1083.76"/>
<polygon fill="black" stroke="black" points="75,-1080.73 68.92,-1089.41 79.08,-1086.42 75,-1080.73"/>
<text xml:space="preserve" text-anchor="middle" x="160.22" y="-1114.31" font-family="Times,serif" font-size="14.00">tailport=e headport=se</text>
</g>
<!-- node46 -->
<g id="node13" class="node">
<title>node46</title>
<ellipse fill="none" stroke="black" cx="39.47" cy="-1002.58" rx="39.47" ry="39.47"/>
<text xml:space="preserve" text-anchor="middle" x="39.47" y="-998.38" font-family="Times,serif" font-size="14.00">node46</text>
</g>
<!-- node45&#45;&gt;node46 -->
<g id="edge24" class="edge">
<title>node45&#45;&gt;node46</title>
<path fill="none" stroke="black" d="M39.47,-1078.62C39.47,-1070.56 39.47,-1061.95 39.47,-1053.55"/>
<polygon fill="black" stroke="black" points="42.97,-1053.81 39.47,-1043.81 35.97,-1053.81 42.97,-1053.81"/>
</g>
<!-- node46&#45;&gt;node46 -->
<g id="edge25" class="edge">
<title>node46:e&#45;&gt;node46:s</title>
<path fill="none" stroke="black" d="M79.3,-1002.58C84.93,-1017.07 96.93,-1017.07 96.93,-982.66 96.93,-953.5 69.4,-949.05 49.35,-957.2"/>
<polygon fill="black" stroke="black" points="47.8,-954.06 40.79,-962.01 51.22,-960.17 47.8,-954.06"/>
<text xml:space="preserve" text-anchor="middle" x="157.11" y="-998.38" font-family="Times,serif" font-size="14.00">tailport=e headport=s</text>
</g>
<!-- node52 -->
<g id="node14" class="node">
<title>node52</title>
<ellipse fill="none" stroke="black" cx="39.47" cy="-886.65" rx="39.47" ry="39.47"/>
<text xml:space="preserve" text-anchor="middle" x="39.47" y="-882.45" font-family="Times,serif" font-size="14.00">node52</text>
</g>
<!-- node46&#45;&gt;node52 -->
<g id="edge26" class="edge">
<title>node46&#45;&gt;node52</title>
<path fill="none" stroke="black" d="M39.47,-962.69C39.47,-954.63 39.47,-946.02 39.47,-937.62"/>
<polygon fill="black" stroke="black" points="42.97,-937.88 39.47,-927.88 35.97,-937.88 42.97,-937.88"/>
</g>
<!-- node52&#45;&gt;node52 -->
<g id="edge27" class="edge">
<title>node52:se&#45;&gt;node52:n</title>
<path fill="none" stroke="black" d="M67.69,-858.43C84.93,-843.94 96.93,-843.94 96.93,-892.46 96.93,-933.59 69.4,-939.85 49.35,-931.98"/>
<polygon fill="black" stroke="black" points="51.23,-929.02 40.79,-927.22 47.83,-935.14 51.23,-929.02"/>
<text xml:space="preserve" text-anchor="middle" x="160.61" y="-882.45" font-family="Times,serif" font-size="14.00">tailport=se headport=n</text>
</g>
<!-- node53 -->
<g id="node15" class="node">
<title>node53</title>
<ellipse fill="none" stroke="black" cx="39.47" cy="-770.72" rx="39.47" ry="39.47"/>
<text xml:space="preserve" text-anchor="middle" x="39.47" y="-766.52" font-family="Times,serif" font-size="14.00">node53</text>
</g>
<!-- node52&#45;&gt;node53 -->
<g id="edge28" class="edge">
<title>node52&#45;&gt;node53</title>
<path fill="none" stroke="black" d="M39.47,-846.76C39.47,-838.7 39.47,-830.09 39.47,-821.69"/>
<polygon fill="black" stroke="black" points="42.97,-821.95 39.47,-811.95 35.97,-821.95 42.97,-821.95"/>
</g>
<!-- node53&#45;&gt;node53 -->
<g id="edge29" class="edge">
<title>node53:se&#45;&gt;node53:ne</title>
<path fill="none" stroke="black" d="M67.69,-742.5C84.93,-728.01 96.93,-728.01 96.93,-770.72 96.93,-805.43 89.01,-811.93 76.79,-805.38"/>
<polygon fill="black" stroke="black" points="79.11,-802.73 68.92,-799.82 75.07,-808.45 79.11,-802.73"/>
<text xml:space="preserve" text-anchor="middle" x="163.72" y="-766.52" font-family="Times,serif" font-size="14.00">tailport=se headport=ne</text>
</g>
<!-- node54 -->
<g id="node16" class="node">
<title>node54</title>
<ellipse fill="none" stroke="black" cx="39.47" cy="-654.79" rx="39.47" ry="39.47"/>
<text xml:space="preserve" text-anchor="middle" x="39.47" y="-650.59" font-family="Times,serif" font-size="14.00">node54</text>
</g>
<!-- node53&#45;&gt;node54 -->
<g id="edge30" class="edge">
<title>node53&#45;&gt;node54</title>
<path fill="none" stroke="black" d="M39.47,-730.83C39.47,-722.77 39.47,-714.16 39.47,-705.76"/>
<polygon fill="black" stroke="black" points="42.97,-706.02 39.47,-696.02 35.97,-706.02 42.97,-706.02"/>
</g>
<!-- node54&#45;&gt;node54 -->
<g id="edge31" class="edge">
<title>node54:se&#45;&gt;node54:e</title>
<path fill="none" stroke="black" d="M67.69,-626.57C84.93,-612.08 96.93,-612.08 96.93,-640.68 96.93,-659.9 91.51,-666.2 86.25,-663.88"/>
<polygon fill="black" stroke="black" points="89.08,-661.81 80.22,-655.99 83.52,-666.06 89.08,-661.81"/>
<text xml:space="preserve" text-anchor="middle" x="160.22" y="-650.59" font-family="Times,serif" font-size="14.00">tailport=se headport=e</text>
</g>
<!-- node56 -->
<g id="node17" class="node">
<title>node56</title>
<ellipse fill="none" stroke="black" cx="39.47" cy="-538.86" rx="39.47" ry="39.47"/>
<text xml:space="preserve" text-anchor="middle" x="39.47" y="-534.66" font-family="Times,serif" font-size="14.00">node56</text>
</g>
<!-- node54&#45;&gt;node56 -->
<g id="edge32" class="edge">
<title>node54&#45;&gt;node56</title>
<path fill="none" stroke="black" d="M39.47,-614.9C39.47,-606.84 39.47,-598.23 39.47,-589.83"/>
<polygon fill="black" stroke="black" points="42.97,-590.09 39.47,-580.09 35.97,-590.09 42.97,-590.09"/>
</g>
<!-- node56&#45;&gt;node56 -->
<g id="edge33" class="edge">
<title>node56:se&#45;&gt;node56:s</title>
<path fill="none" stroke="black" d="M67.69,-510.64C84.93,-525.13 96.93,-525.13 96.93,-504.83 96.93,-487.63 69.4,-485.01 49.35,-493.43"/>
<polygon fill="black" stroke="black" points="47.76,-490.31 40.78,-498.28 51.21,-496.4 47.76,-490.31"/>
<text xml:space="preserve" text-anchor="middle" x="159.84" y="-534.66" font-family="Times,serif" font-size="14.00">tailport=se headport=s</text>
</g>
<!-- node62 -->
<g id="node18" class="node">
<title>node62</title>
<ellipse fill="none" stroke="black" cx="39.47" cy="-422.93" rx="39.47" ry="39.47"/>
<text xml:space="preserve" text-anchor="middle" x="39.47" y="-418.73" font-family="Times,serif" font-size="14.00">node62</text>
</g>
<!-- node56&#45;&gt;node62 -->
<g id="edge34" class="edge">
<title>node56&#45;&gt;node62</title>
<path fill="none" stroke="black" d="M39.47,-498.97C39.47,-490.91 39.47,-482.3 39.47,-473.9"/>
<polygon fill="black" stroke="black" points="42.97,-474.16 39.47,-464.16 35.97,-474.16 42.97,-474.16"/>
</g>
<!-- node62&#45;&gt;node62 -->
<g id="edge35" class="edge">
<title>node62:s&#45;&gt;node62:n</title>
<path fill="none" stroke="black" d="M39.47,-383.1C58.62,-368.6 96.93,-368.6 96.93,-422.93 96.93,-468.98 69.4,-476 49.35,-468.24"/>
<polygon fill="black" stroke="black" points="51.23,-465.28 40.79,-463.5 47.84,-471.4 51.23,-465.28"/>
<text xml:space="preserve" text-anchor="middle" x="157.51" y="-418.73" font-family="Times,serif" font-size="14.00">tailport=s headport=n</text>
</g>
<!-- node63 -->
<g id="node19" class="node">
<title>node63</title>
<ellipse fill="none" stroke="black" cx="39.47" cy="-307" rx="39.47" ry="39.47"/>
<text xml:space="preserve" text-anchor="middle" x="39.47" y="-302.8" font-family="Times,serif" font-size="14.00">node63</text>
</g>
<!-- node62&#45;&gt;node63 -->
<g id="edge36" class="edge">
<title>node62&#45;&gt;node63</title>
<path fill="none" stroke="black" d="M39.47,-383.04C39.47,-374.98 39.47,-366.37 39.47,-357.97"/>
<polygon fill="black" stroke="black" points="42.97,-358.23 39.47,-348.23 35.97,-358.23 42.97,-358.23"/>
</g>
<!-- node63&#45;&gt;node63 -->
<g id="edge37" class="edge">
<title>node63:s&#45;&gt;node63:ne</title>
<path fill="none" stroke="black" d="M39.47,-267.17C58.62,-252.67 96.93,-252.67 96.93,-301.19 96.93,-340.62 89.01,-348.01 76.79,-341.62"/>
<polygon fill="black" stroke="black" points="79.12,-338.98 68.93,-336.09 75.09,-344.71 79.12,-338.98"/>
<text xml:space="preserve" text-anchor="middle" x="160.61" y="-302.8" font-family="Times,serif" font-size="14.00">tailport=s headport=ne</text>
</g>
<!-- node64 -->
<g id="node20" class="node">
<title>node64</title>
<ellipse fill="none" stroke="black" cx="39.47" cy="-191.07" rx="39.47" ry="39.47"/>
<text xml:space="preserve" text-anchor="middle" x="39.47" y="-186.87" font-family="Times,serif" font-size="14.00">node64</text>
</g>
<!-- node63&#45;&gt;node64 -->
<g id="edge38" class="edge">
<title>node63&#45;&gt;node64</title>
<path fill="none" stroke="black" d="M39.47,-267.11C39.47,-259.05 39.47,-250.44 39.47,-242.04"/>
<polygon fill="black" stroke="black" points="42.97,-242.3 39.47,-232.3 35.97,-242.3 42.97,-242.3"/>
</g>
<!-- node64&#45;&gt;node64 -->
<g id="edge39" class="edge">
<title>node64:s&#45;&gt;node64:e</title>
<path fill="none" stroke="black" d="M39.47,-151.24C58.62,-136.74 96.93,-136.74 96.93,-171.15 96.93,-194.27 91.51,-201.86 86.25,-199.95"/>
<polygon fill="black" stroke="black" points="89.15,-197.98 80.23,-192.26 83.64,-202.29 89.15,-197.98"/>
<text xml:space="preserve" text-anchor="middle" x="157.11" y="-186.87" font-family="Times,serif" font-size="14.00">tailport=s headport=e</text>
</g>
<!-- node65 -->
<g id="node21" class="node">
<title>node65</title>
<ellipse fill="none" stroke="black" cx="39.47" cy="-75.14" rx="39.47" ry="39.47"/>
<text xml:space="preserve" text-anchor="middle" x="39.47" y="-70.94" font-family="Times,serif" font-size="14.00">node65</text>
</g>
<!-- node64&#45;&gt;node65 -->
<g id="edge40" class="edge">
<title>node64&#45;&gt;node65</title>
<path fill="none" stroke="black" d="M39.47,-151.18C39.47,-143.12 39.47,-134.51 39.47,-126.11"/>
<polygon fill="black" stroke="black" points="42.97,-126.37 39.47,-116.37 35.97,-126.37 42.97,-126.37"/>
</g>
<!-- node65&#45;&gt;node65 -->
<g id="edge41" class="edge">
<title>node65:s&#45;&gt;node65:se</title>
<path fill="none" stroke="black" d="M39.47,-35.31C58.62,-20.81 96.93,-20.81 96.93,-41.11 96.93,-57.6 89.01,-60.7 76.79,-53.5"/>
<polygon fill="black" stroke="black" points="79.07,-50.83 68.91,-47.81 74.96,-56.5 79.07,-50.83"/>
<text xml:space="preserve" text-anchor="middle" x="159.84" y="-70.94" font-family="Times,serif" font-size="14.00">tailport=s headport=se</text>
</g>
</g>
</svg>
