<?xml version="1.0" encoding="UTF-8" standalone="no"?>
<!DOCTYPE svg PUBLIC "-//W3C//DTD SVG 1.1//EN"
 "http://www.w3.org/Graphics/SVG/1.1/DTD/svg11.dtd">
<!-- Generated by graphviz version a (a)
 -->
<!-- Title: Viewfile Pages: 1 -->
<svg width="832pt" height="404pt"
 viewBox="0.00 0.00 832.00 404.00" xmlns="http://www.w3.org/2000/svg" xmlns:xlink="http://www.w3.org/1999/xlink">
<g id="graph0" class="graph" transform="scale(1 1) rotate(0) translate(4 400)">
<title>Viewfile</title>
<polygon fill="white" stroke="none" points="-4,4 -4,-400 828.18,-400 828.18,4 -4,4"/>
<!-- atoi -->
<g id="node1" class="node">
<title>atoi</title>
<ellipse fill="green" stroke="green" cx="198.52" cy="-234" rx="27" ry="18"/>
<text xml:space="preserve" text-anchor="middle" x="198.52" y="-229.8" font-family="Times,serif" font-size="14.00">atoi</text>
</g>
<!-- chkmalloc -->
<g id="node2" class="node">
<title>chkmalloc</title>
<ellipse fill="green" stroke="green" cx="78.52" cy="-162" rx="51.26" ry="18"/>
<text xml:space="preserve" text-anchor="middle" x="78.52" y="-157.8" font-family="Times,serif" font-size="14.00">chkmalloc</text>
</g>
<!-- error -->
<g id="node4" class="node">
<title>error</title>
<ellipse fill="blue" stroke="blue" cx="369.52" cy="-90" rx="29.8" ry="18"/>
<text xml:space="preserve" text-anchor="middle" x="369.52" y="-85.8" font-family="Times,serif" font-size="14.00">error</text>
</g>
<!-- chkmalloc&#45;&gt;error -->
<g id="edge24" class="edge">
<title>chkmalloc&#45;&gt;error</title>
<path fill="none" stroke="blue" d="M119.91,-151.05C176.31,-137.48 276.54,-113.37 331.26,-100.2"/>
<polygon fill="blue" stroke="blue" points="331.84,-103.66 340.75,-97.92 330.2,-96.86 331.84,-103.66"/>
</g>
<!-- malloc -->
<g id="node19" class="node">
<title>malloc</title>
<ellipse fill="green" stroke="green" cx="78.52" cy="-90" rx="37.31" ry="18"/>
<text xml:space="preserve" text-anchor="middle" x="78.52" y="-85.8" font-family="Times,serif" font-size="14.00">malloc</text>
</g>
<!-- chkmalloc&#45;&gt;malloc -->
<g id="edge23" class="edge">
<title>chkmalloc&#45;&gt;malloc</title>
<path fill="none" stroke="green" d="M78.52,-143.7C78.52,-136.41 78.52,-127.73 78.52,-119.54"/>
<polygon fill="green" stroke="green" points="82.02,-119.62 78.52,-109.62 75.02,-119.62 82.02,-119.62"/>
</g>
<!-- close -->
<g id="node3" class="node">
<title>close</title>
<ellipse fill="green" stroke="green" cx="431.52" cy="-162" rx="30.88" ry="18"/>
<text xml:space="preserve" text-anchor="middle" x="431.52" y="-157.8" font-family="Times,serif" font-size="14.00">close</text>
</g>
<!-- error&#45;&gt;error -->
<g id="edge27" class="edge">
<title>error&#45;&gt;error</title>
<path fill="none" stroke="blue" d="M391.15,-102.55C404.56,-105.57 417.32,-101.39 417.32,-90 417.32,-81.99 411.01,-77.55 402.6,-76.66"/>
<polygon fill="blue" stroke="blue" points="402.4,-73.17 392.66,-77.35 402.88,-80.15 402.4,-73.17"/>
</g>
<!-- exit -->
<g id="node5" class="node">
<title>exit</title>
<ellipse fill="blue" stroke="blue" cx="409.52" cy="-18" rx="27" ry="18"/>
<text xml:space="preserve" text-anchor="middle" x="409.52" y="-13.8" font-family="Times,serif" font-size="14.00">exit</text>
</g>
<!-- error&#45;&gt;exit -->
<g id="edge25" class="edge">
<title>error&#45;&gt;exit</title>
<path fill="none" stroke="blue" d="M378.8,-72.76C383.49,-64.55 389.31,-54.37 394.61,-45.09"/>
<polygon fill="blue" stroke="blue" points="397.62,-46.88 399.54,-36.46 391.54,-43.41 397.62,-46.88"/>
</g>
<!-- fprintf -->
<g id="node9" class="node">
<title>fprintf</title>
<ellipse fill="blue" stroke="blue" cx="328.52" cy="-18" rx="35.71" ry="18"/>
<text xml:space="preserve" text-anchor="middle" x="328.52" y="-13.8" font-family="Times,serif" font-size="14.00">fprintf</text>
</g>
<!-- error&#45;&gt;fprintf -->
<g id="edge26" class="edge">
<title>error&#45;&gt;fprintf</title>
<path fill="none" stroke="blue" d="M360.01,-72.76C355.27,-64.67 349.41,-54.66 344.04,-45.49"/>
<polygon fill="blue" stroke="blue" points="347.1,-43.8 339.03,-36.94 341.06,-47.34 347.1,-43.8"/>
</g>
<!-- fclose -->
<g id="node6" class="node">
<title>fclose</title>
<ellipse fill="green" stroke="green" cx="431.52" cy="-234" rx="34.09" ry="18"/>
<text xml:space="preserve" text-anchor="middle" x="431.52" y="-229.8" font-family="Times,serif" font-size="14.00">fclose</text>
</g>
<!-- fclose&#45;&gt;close -->
<g id="edge1" class="edge">
<title>fclose&#45;&gt;close</title>
<path fill="none" stroke="green" d="M431.52,-215.7C431.52,-208.41 431.52,-199.73 431.52,-191.54"/>
<polygon fill="green" stroke="green" points="435.02,-191.62 431.52,-181.62 428.02,-191.62 435.02,-191.62"/>
</g>
<!-- fgets -->
<g id="node7" class="node">
<title>fgets</title>
<ellipse fill="red" stroke="red" cx="725.52" cy="-90" rx="29.81" ry="18"/>
<text xml:space="preserve" text-anchor="middle" x="725.52" y="-85.8" font-family="Times,serif" font-size="14.00">fgets</text>
</g>
<!-- fstat -->
<g id="node12" class="node">
<title>fstat</title>
<ellipse fill="green" stroke="green" cx="796.52" cy="-18" rx="27.66" ry="18"/>
<text xml:space="preserve" text-anchor="middle" x="796.52" y="-13.8" font-family="Times,serif" font-size="14.00">fstat</text>
</g>
<!-- fgets&#45;&gt;fstat -->
<g id="edge2" class="edge">
<title>fgets&#45;&gt;fstat</title>
<path fill="none" stroke="green" d="M740.58,-74.15C750.31,-64.56 763.15,-51.9 774.07,-41.13"/>
<polygon fill="green" stroke="green" points="776.23,-43.92 780.89,-34.41 771.32,-38.94 776.23,-43.92"/>
</g>
<!-- read -->
<g id="node22" class="node">
<title>read</title>
<ellipse fill="green" stroke="green" cx="723.52" cy="-18" rx="27.65" ry="18"/>
<text xml:space="preserve" text-anchor="middle" x="723.52" y="-13.8" font-family="Times,serif" font-size="14.00">read</text>
</g>
<!-- fgets&#45;&gt;read -->
<g id="edge3" class="edge">
<title>fgets&#45;&gt;read</title>
<path fill="none" stroke="green" d="M725.03,-71.7C724.82,-64.41 724.57,-55.73 724.34,-47.54"/>
<polygon fill="green" stroke="green" points="727.84,-47.51 724.05,-37.62 720.84,-47.71 727.84,-47.51"/>
</g>
<!-- fopen -->
<g id="node8" class="node">
<title>fopen</title>
<ellipse fill="green" stroke="green" cx="516.52" cy="-234" rx="33.02" ry="18"/>
<text xml:space="preserve" text-anchor="middle" x="516.52" y="-229.8" font-family="Times,serif" font-size="14.00">fopen</text>
</g>
<!-- open -->
<g id="node20" class="node">
<title>open</title>
<ellipse fill="green" stroke="green" cx="516.52" cy="-162" rx="29.81" ry="18"/>
<text xml:space="preserve" text-anchor="middle" x="516.52" y="-157.8" font-family="Times,serif" font-size="14.00">open</text>
</g>
<!-- fopen&#45;&gt;open -->
<g id="edge4" class="edge">
<title>fopen&#45;&gt;open</title>
<path fill="none" stroke="green" d="M516.52,-215.7C516.52,-208.41 516.52,-199.73 516.52,-191.54"/>
<polygon fill="green" stroke="green" points="520.02,-191.62 516.52,-181.62 513.02,-191.62 520.02,-191.62"/>
</g>
<!-- free -->
<g id="node10" class="node">
<title>free</title>
<ellipse fill="blue" stroke="blue" cx="780.52" cy="-306" rx="27" ry="18"/>
<text xml:space="preserve" text-anchor="middle" x="780.52" y="-301.8" font-family="Times,serif" font-size="14.00">free</text>
</g>
<!-- free_list -->
<g id="node11" class="node">
<title>free_list</title>
<ellipse fill="blue" stroke="blue" cx="780.52" cy="-378" rx="42.68" ry="18"/>
<text xml:space="preserve" text-anchor="middle" x="780.52" y="-373.8" font-family="Times,serif" font-size="14.00">free_list</text>
</g>
<!-- free_list&#45;&gt;free -->
<g id="edge18" class="edge">
<title>free_list&#45;&gt;free</title>
<path fill="none" stroke="blue" d="M780.52,-359.7C780.52,-352.41 780.52,-343.73 780.52,-335.54"/>
<polygon fill="blue" stroke="blue" points="784.02,-335.62 780.52,-325.62 777.02,-335.62 784.02,-335.62"/>
</g>
<!-- getopt -->
<g id="node13" class="node">
<title>getopt</title>
<ellipse fill="green" stroke="green" cx="304.52" cy="-306" rx="35.17" ry="18"/>
<text xml:space="preserve" text-anchor="middle" x="304.52" y="-301.8" font-family="Times,serif" font-size="14.00">getopt</text>
</g>
<!-- init_list -->
<g id="node14" class="node">
<title>init_list</title>
<ellipse fill="green" stroke="green" cx="112.52" cy="-234" rx="40.55" ry="18"/>
<text xml:space="preserve" text-anchor="middle" x="112.52" y="-229.8" font-family="Times,serif" font-size="14.00">init_list</text>
</g>
<!-- init_list&#45;&gt;chkmalloc -->
<g id="edge19" class="edge">
<title>init_list&#45;&gt;chkmalloc</title>
<path fill="none" stroke="green" d="M104.29,-216.05C100.49,-208.23 95.88,-198.75 91.62,-189.98"/>
<polygon fill="green" stroke="green" points="94.85,-188.62 87.34,-181.15 88.56,-191.67 94.85,-188.62"/>
</g>
<!-- insert_list -->
<g id="node15" class="node">
<title>insert_list</title>
<ellipse fill="green" stroke="green" cx="292.52" cy="-234" rx="49.13" ry="18"/>
<text xml:space="preserve" text-anchor="middle" x="292.52" y="-229.8" font-family="Times,serif" font-size="14.00">insert_list</text>
</g>
<!-- insert_list&#45;&gt;chkmalloc -->
<g id="edge20" class="edge">
<title>insert_list&#45;&gt;chkmalloc</title>
<path fill="none" stroke="green" d="M256.7,-221.28C220.89,-209.57 165.6,-191.48 126.12,-178.57"/>
<polygon fill="green" stroke="green" points="127.21,-175.24 116.61,-175.46 125.03,-181.9 127.21,-175.24"/>
</g>
<!-- main -->
<g id="node16" class="node">
<title>main</title>
<ellipse fill="green" stroke="green" cx="304.52" cy="-378" rx="30.35" ry="18"/>
<text xml:space="preserve" text-anchor="middle" x="304.52" y="-373.8" font-family="Times,serif" font-size="14.00">main</text>
</g>
<!-- main&#45;&gt;chkmalloc -->
<g id="edge10" class="edge">
<title>main&#45;&gt;chkmalloc</title>
<path fill="none" stroke="green" d="M274.02,-376.34C204.88,-374.14 39.6,-364.65 5.52,-324 -10.62,-304.74 13.25,-230.43 21.52,-216 28.05,-204.6 37.85,-194.21 47.48,-185.72"/>
<polygon fill="green" stroke="green" points="49.58,-188.52 55.02,-179.44 45.1,-183.14 49.58,-188.52"/>
</g>
<!-- main&#45;&gt;error -->
<g id="edge11" class="edge">
<title>main&#45;&gt;error</title>
<path fill="none" stroke="blue" d="M320.81,-362.45C330.64,-352.64 342.41,-338.81 348.52,-324 377.05,-254.87 375.4,-164.66 372.23,-119.44"/>
<polygon fill="blue" stroke="blue" points="375.74,-119.4 371.46,-109.7 368.76,-119.95 375.74,-119.4"/>
</g>
<!-- main&#45;&gt;fgets -->
<g id="edge6" class="edge">
<title>main&#45;&gt;fgets</title>
<path fill="none" stroke="blue" d="M335.34,-377.92C410.46,-378.25 602.94,-367.32 685.52,-252 714.17,-211.99 722.4,-153.67 724.7,-119.31"/>
<polygon fill="blue" stroke="blue" points="728.17,-119.9 725.21,-109.73 721.18,-119.53 728.17,-119.9"/>
</g>
<!-- main&#45;&gt;getopt -->
<g id="edge7" class="edge">
<title>main&#45;&gt;getopt</title>
<path fill="none" stroke="green" d="M304.52,-359.7C304.52,-352.41 304.52,-343.73 304.52,-335.54"/>
<polygon fill="green" stroke="green" points="308.02,-335.62 304.52,-325.62 301.02,-335.62 308.02,-335.62"/>
</g>
<!-- makeargs -->
<g id="node17" class="node">
<title>makeargs</title>
<ellipse fill="blue" stroke="blue" cx="62.52" cy="-306" rx="48.04" ry="18"/>
<text xml:space="preserve" text-anchor="middle" x="62.52" y="-301.8" font-family="Times,serif" font-size="14.00">makeargs</text>
</g>
<!-- main&#45;&gt;makeargs -->
<g id="edge8" class="edge">
<title>main&#45;&gt;makeargs</title>
<path fill="none" stroke="blue" d="M277.7,-369.24C237.43,-357.59 160.73,-335.41 110.62,-320.91"/>
<polygon fill="blue" stroke="blue" points="111.77,-317.6 101.19,-318.19 109.83,-324.33 111.77,-317.6"/>
</g>
<!-- makepairs -->
<g id="node18" class="node">
<title>makepairs</title>
<ellipse fill="green" stroke="green" cx="198.52" cy="-306" rx="50.72" ry="18"/>
<text xml:space="preserve" text-anchor="middle" x="198.52" y="-301.8" font-family="Times,serif" font-size="14.00">makepairs</text>
</g>
<!-- main&#45;&gt;makepairs -->
<g id="edge9" class="edge">
<title>main&#45;&gt;makepairs</title>
<path fill="none" stroke="green" d="M285.08,-364.16C270.05,-354.24 248.91,-340.27 231.28,-328.63"/>
<polygon fill="green" stroke="green" points="233.45,-325.87 223.17,-323.28 229.59,-331.71 233.45,-325.87"/>
</g>
<!-- viewlines -->
<g id="node25" class="node">
<title>viewlines</title>
<ellipse fill="green" stroke="green" cx="516.52" cy="-306" rx="48.05" ry="18"/>
<text xml:space="preserve" text-anchor="middle" x="516.52" y="-301.8" font-family="Times,serif" font-size="14.00">viewlines</text>
</g>
<!-- main&#45;&gt;viewlines -->
<g id="edge12" class="edge">
<title>main&#45;&gt;viewlines</title>
<path fill="none" stroke="green" d="M330.52,-368.42C365.4,-356.9 427.93,-336.25 470.79,-322.1"/>
<polygon fill="green" stroke="green" points="471.66,-325.5 480.06,-319.04 469.47,-318.85 471.66,-325.5"/>
</g>
<!-- makeargs&#45;&gt;chkmalloc -->
<g id="edge13" class="edge">
<title>makeargs&#45;&gt;chkmalloc</title>
<path fill="none" stroke="blue" d="M48.88,-288.5C41.58,-278.59 33.33,-265.34 29.52,-252 25.12,-236.62 23.69,-230.9 29.52,-216 33.84,-204.97 41.64,-194.86 49.78,-186.5"/>
<polygon fill="blue" stroke="blue" points="51.99,-189.23 56.8,-179.79 47.15,-184.16 51.99,-189.23"/>
</g>
<!-- makepairs&#45;&gt;atoi -->
<g id="edge14" class="edge">
<title>makepairs&#45;&gt;atoi</title>
<path fill="none" stroke="green" d="M198.52,-287.7C198.52,-280.41 198.52,-271.73 198.52,-263.54"/>
<polygon fill="green" stroke="green" points="202.02,-263.62 198.52,-253.62 195.02,-263.62 202.02,-263.62"/>
</g>
<!-- makepairs&#45;&gt;chkmalloc -->
<g id="edge17" class="edge">
<title>makepairs&#45;&gt;chkmalloc</title>
<path fill="none" stroke="green" d="M158.27,-294.72C122.36,-284.64 73.75,-268.42 62.52,-252 50.15,-233.91 56.03,-209.08 63.94,-190.25"/>
<polygon fill="green" stroke="green" points="67.04,-191.86 68.06,-181.32 60.69,-188.92 67.04,-191.86"/>
</g>
<!-- makepairs&#45;&gt;init_list -->
<g id="edge15" class="edge">
<title>makepairs&#45;&gt;init_list</title>
<path fill="none" stroke="green" d="M179.01,-289.12C167.52,-279.77 152.81,-267.79 140.15,-257.49"/>
<polygon fill="green" stroke="green" points="142.51,-254.89 132.54,-251.3 138.09,-260.32 142.51,-254.89"/>
</g>
<!-- makepairs&#45;&gt;insert_list -->
<g id="edge16" class="edge">
<title>makepairs&#45;&gt;insert_list</title>
<path fill="none" stroke="green" d="M219.38,-289.46C232.07,-280.02 248.49,-267.79 262.55,-257.32"/>
<polygon fill="green" stroke="green" points="264.25,-260.42 270.18,-251.64 260.07,-254.8 264.25,-260.42"/>
</g>
<!-- printf -->
<g id="node21" class="node">
<title>printf</title>
<ellipse fill="red" stroke="red" cx="645.52" cy="-90" rx="32.49" ry="18"/>
<text xml:space="preserve" text-anchor="middle" x="645.52" y="-85.8" font-family="Times,serif" font-size="14.00">printf</text>
</g>
<!-- write -->
<g id="node27" class="node">
<title>write</title>
<ellipse fill="green" stroke="green" cx="645.52" cy="-18" rx="30.88" ry="18"/>
<text xml:space="preserve" text-anchor="middle" x="645.52" y="-13.8" font-family="Times,serif" font-size="14.00">write</text>
</g>
<!-- printf&#45;&gt;write -->
<g id="edge5" class="edge">
<title>printf&#45;&gt;write</title>
<path fill="none" stroke="green" d="M645.52,-71.7C645.52,-64.41 645.52,-55.73 645.52,-47.54"/>
<polygon fill="green" stroke="green" points="649.02,-47.62 645.52,-37.62 642.02,-47.62 649.02,-47.62"/>
</g>
<!-- rewind -->
<g id="node23" class="node">
<title>rewind</title>
<ellipse fill="green" stroke="green" cx="557.52" cy="-90" rx="37.85" ry="18"/>
<text xml:space="preserve" text-anchor="middle" x="557.52" y="-85.8" font-family="Times,serif" font-size="14.00">rewind</text>
</g>
<!-- viewline -->
<g id="node24" class="node">
<title>viewline</title>
<ellipse fill="green" stroke="green" cx="646.52" cy="-162" rx="44.29" ry="18"/>
<text xml:space="preserve" text-anchor="middle" x="646.52" y="-157.8" font-family="Times,serif" font-size="14.00">viewline</text>
</g>
<!-- viewline&#45;&gt;fgets -->
<g id="edge28" class="edge">
<title>viewline&#45;&gt;fgets</title>
<path fill="none" stroke="red" d="M664.45,-145.12C675.19,-135.6 688.99,-123.37 700.76,-112.94"/>
<polygon fill="red" stroke="red" points="702.98,-115.65 708.15,-106.4 698.34,-110.41 702.98,-115.65"/>
</g>
<!-- viewline&#45;&gt;printf -->
<g id="edge29" class="edge">
<title>viewline&#45;&gt;printf</title>
<path fill="none" stroke="red" d="M646.27,-143.7C646.17,-136.41 646.05,-127.73 645.93,-119.54"/>
<polygon fill="red" stroke="red" points="649.43,-119.57 645.79,-109.62 642.43,-119.67 649.43,-119.57"/>
</g>
<!-- viewline&#45;&gt;rewind -->
<g id="edge30" class="edge">
<title>viewline&#45;&gt;rewind</title>
<path fill="none" stroke="green" d="M626.77,-145.46C614.62,-135.91 598.86,-123.51 585.45,-112.96"/>
<polygon fill="green" stroke="green" points="587.82,-110.38 577.8,-106.95 583.49,-115.88 587.82,-110.38"/>
</g>
<!-- viewlines&#45;&gt;fclose -->
<g id="edge31" class="edge">
<title>viewlines&#45;&gt;fclose</title>
<path fill="none" stroke="green" d="M497.23,-289.12C485.65,-279.57 470.74,-267.29 458.05,-256.85"/>
<polygon fill="green" stroke="green" points="460.4,-254.25 450.45,-250.59 455.95,-259.65 460.4,-254.25"/>
</g>
<!-- viewlines&#45;&gt;fopen -->
<g id="edge32" class="edge">
<title>viewlines&#45;&gt;fopen</title>
<path fill="none" stroke="green" d="M516.52,-287.7C516.52,-280.41 516.52,-271.73 516.52,-263.54"/>
<polygon fill="green" stroke="green" points="520.02,-263.62 516.52,-253.62 513.02,-263.62 520.02,-263.62"/>
</g>
<!-- viewlines&#45;&gt;viewline -->
<g id="edge34" class="edge">
<title>viewlines&#45;&gt;viewline</title>
<path fill="none" stroke="blue" d="M563.87,-302.43C599.09,-297.74 644.97,-285.15 668.52,-252 681.59,-233.61 673.44,-208.3 663.56,-189.37"/>
<polygon fill="blue" stroke="blue" points="666.74,-187.88 658.77,-180.91 660.65,-191.33 666.74,-187.88"/>
</g>
<!-- walk_list -->
<g id="node26" class="node">
<title>walk_list</title>
<ellipse fill="green" stroke="green" cx="613.52" cy="-234" rx="46.44" ry="18"/>
<text xml:space="preserve" text-anchor="middle" x="613.52" y="-229.8" font-family="Times,serif" font-size="14.00">walk_list</text>
</g>
<!-- viewlines&#45;&gt;walk_list -->
<g id="edge33" class="edge">
<title>viewlines&#45;&gt;walk_list</title>
<path fill="none" stroke="green" d="M538.05,-289.46C551.33,-279.88 568.56,-267.45 583.2,-256.88"/>
<polygon fill="green" stroke="green" points="585.1,-259.83 591.16,-251.14 581,-254.15 585.1,-259.83"/>
</g>
<!-- walk_list&#45;&gt;error -->
<g id="edge21" class="edge">
<title>walk_list&#45;&gt;error</title>
<path fill="none" stroke="blue" d="M606.83,-215.92C598.05,-195.75 580.76,-162.61 555.52,-144 512.36,-112.17 450.64,-99.43 410.33,-94.34"/>
<polygon fill="blue" stroke="blue" points="410.9,-90.89 400.57,-93.22 410.1,-97.84 410.9,-90.89"/>
</g>
<!-- walk_list&#45;&gt;viewline -->
<g id="edge22" class="edge">
<title>walk_list&#45;&gt;viewline</title>
<path fill="none" stroke="green" d="M621.51,-216.05C625.2,-208.23 629.67,-198.75 633.8,-189.98"/>
<polygon fill="green" stroke="green" points="636.86,-191.7 637.96,-181.16 630.53,-188.71 636.86,-191.7"/>
</g>
</g>
</svg>
